<svg width="26" height="36" viewBox="0 0 26 36" fill="none" xmlns="http://www.w3.org/2000/svg">
<path d="M25.0392 7.5445L18.31 0.815332C18.1616 0.666895 17.9601 0.583374 17.7503 0.583374H1.52116C1.08416 0.583374 0.729492 0.938041 0.729492 1.37504V34.625C0.729492 35.062 1.08416 35.4167 1.52116 35.4167H24.4795C24.9165 35.4167 25.2712 35.062 25.2712 34.625V8.10421C25.2712 7.89442 25.1876 7.69294 25.0392 7.5445ZM18.542 3.28612L22.568 7.31254H18.542V3.28612ZM23.6878 33.8334H2.31283V2.16671H16.9587V8.10421C16.9587 8.54121 17.3133 8.89587 17.7503 8.89587H23.6878V33.8334ZM5.47949 8.10421C5.47949 7.66721 5.83416 7.31254 6.27116 7.31254H13.792C14.8113 7.31254 14.8132 8.89587 13.792 8.89587H6.27116C5.83416 8.89587 5.47949 8.54121 5.47949 8.10421ZM6.27116 13.6459H19.7295C20.7488 13.6459 20.7507 15.2292 19.7295 15.2292H6.27116C5.25189 15.2292 5.24991 13.6459 6.27116 13.6459ZM20.5212 20.375C20.5212 20.812 20.1665 21.1667 19.7295 21.1667H6.27116C5.25189 21.1667 5.24991 19.5834 6.27116 19.5834H19.7295C20.1665 19.5834 20.5212 19.938 20.5212 20.375ZM20.5212 26.7084C20.5212 27.1454 20.1665 27.5 19.7295 27.5H6.27116C5.25189 27.5 5.24991 25.9167 6.27116 25.9167H19.7295C20.1665 25.9167 20.5212 26.2714 20.5212 26.7084Z" fill="#2E4056"/>
</svg>
