<svg width="38" height="38" viewBox="0 0 38 38" fill="none" xmlns="http://www.w3.org/2000/svg">
<path d="M35.9327 34.1168H35.2844L35.3225 9.90244C35.3225 9.05675 34.6359 8.37008 33.7908 8.37008H28.1477V3.57044C28.1477 2.72475 27.4608 2.03784 26.6157 2.03784H11.3003C10.4554 2.03784 9.77324 2.72475 9.76853 3.56574L9.76383 8.39878L4.13039 8.36537H4.12545C3.28033 8.36537 2.5984 9.05204 2.5937 9.89303L2.55513 34.1069H1.94022C1.48874 34.1069 1.12402 34.4723 1.12402 34.9237C1.12402 35.3754 1.48874 35.7409 1.94022 35.7409H35.9327C36.3838 35.7409 36.7489 35.3754 36.7489 34.9237C36.7489 34.4819 36.3838 34.1168 35.9327 34.1168ZM33.6899 10.0031L33.6516 34.1168H28.1477V10.0031H33.6899ZM20.7565 34.1168H17.1258V29.7016H20.7565V34.1168ZM21.4288 28.3515H16.4489C16.079 28.3515 15.7763 28.6538 15.7763 29.0241V34.1116H11.3633L11.4012 3.67112H26.5151V34.1116H22.1013V29.0241C22.1013 28.6538 21.7987 28.3515 21.4288 28.3515ZM4.2261 10.0031L9.76383 10.037L9.73467 34.1168H4.18777L4.2261 10.0031Z" fill="#2E4056"/>
<path d="M29.6842 15.2257H32.114C32.4839 15.2257 32.7863 14.923 32.7863 14.5532C32.7863 14.1834 32.4839 13.8806 32.114 13.8806H29.6842C29.3141 13.8806 29.0117 14.1834 29.0117 14.5532C29.0117 14.923 29.3141 15.2257 29.6842 15.2257Z" fill="#2E4056"/>
<path d="M29.6842 21.7452H32.114C32.4839 21.7452 32.7863 21.443 32.7863 21.0727C32.7863 20.7027 32.4839 20.3999 32.114 20.3999H29.6842C29.3141 20.3999 29.0117 20.7027 29.0117 21.0727C29.0117 21.4477 29.3141 21.7452 29.6842 21.7452Z" fill="#2E4056"/>
<path d="M32.114 26.9246H29.6842C29.3141 26.9246 29.0117 27.2273 29.0117 27.5971C29.0117 27.9672 29.3141 28.2699 29.6842 28.2699H32.114C32.4839 28.2699 32.7863 27.9672 32.7863 27.5971C32.7863 27.2273 32.4839 26.9246 32.114 26.9246Z" fill="#2E4056"/>
<path d="M5.76311 15.2257H8.1548C8.52445 15.2257 8.82732 14.923 8.82732 14.5532C8.82732 14.1834 8.52445 13.8806 8.1548 13.8806H5.76311C5.39299 13.8806 5.09082 14.1834 5.09082 14.5532C5.09082 14.923 5.38828 15.2257 5.76311 15.2257Z" fill="#2E4056"/>
<path d="M8.1548 20.3999H5.76311C5.39299 20.3999 5.09082 20.7027 5.09082 21.0727C5.09082 21.443 5.39299 21.7452 5.76311 21.7452H8.1548C8.52445 21.7452 8.82732 21.443 8.82732 21.0727C8.82732 20.7027 8.52445 20.3999 8.1548 20.3999Z" fill="#2E4056"/>
<path d="M8.1548 26.9246H5.76311C5.39299 26.9246 5.09082 27.2273 5.09082 27.5971C5.09082 27.9672 5.39299 28.2699 5.76311 28.2699H8.1548C8.52445 28.2699 8.82732 27.9672 8.82732 27.5971C8.82732 27.2273 8.52445 26.9246 8.1548 26.9246Z" fill="#2E4056"/>
<path d="M17.4145 6.85632H13.7116C13.3417 6.85632 13.0391 7.15931 13.0391 7.52888V9.69099C13.0391 10.0613 13.3417 10.3635 13.7116 10.3635C14.081 10.3635 14.3839 10.0613 14.3839 9.69099V8.20167H17.4145C17.7839 8.20167 18.0867 7.89891 18.0867 7.52888C18.0867 7.15437 17.7839 6.85632 17.4145 6.85632Z" fill="#2E4056"/>
<path d="M17.4145 14.8848H13.7116C13.3417 14.8848 13.0391 15.1873 13.0391 15.5573V17.7194C13.0391 18.0895 13.3417 18.3922 13.7116 18.3922C14.081 18.3922 14.3839 18.0895 14.3839 17.7194V16.2299H17.4145C17.7839 16.2299 18.0867 15.9276 18.0867 15.5573C18.0867 15.1826 17.7839 14.8848 17.4145 14.8848Z" fill="#2E4056"/>
<path d="M17.4145 22.9128H13.7116C13.3417 22.9128 13.0391 23.2156 13.0391 23.5854V25.7477C13.0391 26.1173 13.3417 26.4203 13.7116 26.4203C14.081 26.4203 14.3839 26.1173 14.3839 25.7477V24.2582H17.4145C17.7839 24.2582 18.0867 23.9557 18.0867 23.5854C18.0867 23.2109 17.7839 22.9128 17.4145 22.9128Z" fill="#2E4056"/>
<path d="M24.8771 23.5854C24.8771 23.2156 24.5747 22.9128 24.2048 22.9128H20.5021C20.1322 22.9128 19.8301 23.2156 19.8301 23.5854V25.7477C19.8301 26.1173 20.1322 26.4203 20.5021 26.4203C20.872 26.4203 21.1747 26.1173 21.1747 25.7477V24.2582H24.2048C24.5747 24.2582 24.8771 23.9557 24.8771 23.5854Z" fill="#2E4056"/>
<path d="M20.5021 18.3922C20.872 18.3922 21.1747 18.0895 21.1747 17.7194V16.2299H24.2048C24.5747 16.2299 24.8771 15.9276 24.8771 15.5573C24.8771 15.1873 24.5747 14.8848 24.2048 14.8848H20.5021C20.1322 14.8848 19.8301 15.1873 19.8301 15.5573V17.7194C19.8301 18.0895 20.1273 18.3922 20.5021 18.3922Z" fill="#2E4056"/>
<path d="M20.5021 10.3588C20.872 10.3588 21.1747 10.0565 21.1747 9.68622V8.19691H24.2048C24.5747 8.19691 24.8771 7.89415 24.8771 7.52412C24.8771 7.15432 24.5747 6.85156 24.2048 6.85156H20.5021C20.1322 6.85156 19.8301 7.15432 19.8301 7.52412V9.68622C19.8301 10.0612 20.1273 10.3588 20.5021 10.3588Z" fill="#2E4056"/>
</svg>
