<svg width="39" height="35" viewBox="0 0 39 35" fill="none" xmlns="http://www.w3.org/2000/svg">
<path d="M19.4999 0.73999L0.917969 7.34099V27.6578L19.4999 34.2601L38.0819 27.6578V7.34099L19.4999 0.73999ZM36.8007 8.28912L36.7834 8.23979L36.8007 8.24619V8.28912ZM35.5233 7.79135L30.4335 9.60112L14.7907 3.77271L19.4999 2.0994L35.5233 7.79135ZM19.4999 13.4871L3.4715 7.79327L8.1423 6.13405L24.1451 11.8356L19.4999 13.4871ZM26.7147 12.2828L30.028 11.1047V16.6012C28.9171 16.9939 27.8146 17.3873 26.7147 17.78V12.2828ZM26.0561 11.1572L10.0533 5.45563L12.9111 4.44088L28.5552 10.2693L26.0561 11.1572ZM20.1406 32.6726V22.085H18.8593V32.6719L2.19922 26.7532V8.7004L18.8593 14.6198V20.3233H20.1406V14.6198L25.4334 12.7383V19.5981L26.4347 19.24C27.9113 18.7134 29.3886 18.1855 30.8813 17.6583L31.3092 17.5077V10.6498L36.8007 8.69719V26.7538L20.1406 32.6726Z" fill="#2E4056"/>
</svg>
