<svg width="97" height="23" viewBox="0 0 97 23" fill="none" xmlns="http://www.w3.org/2000/svg">
<g clip-path="url(#clip0_143_1435)">
<path fill-rule="evenodd" clip-rule="evenodd" d="M6.0235 1.48806C5.895 1.80831 5.33925 3.70156 4.788 5.69531C4.237 7.68906 3.483 10.3891 3.11225 11.6953C0.757 19.9941 0.25 21.8421 0.25 22.1266C0.25 22.3521 0.723 22.4453 1.86525 22.4453H3.48075L3.72775 21.5078C4.03375 20.3473 6.561 10.2048 7.13825 7.82031C7.3715 6.85781 7.6085 5.98981 7.6655 5.89131C7.72225 5.79306 8.42075 6.24306 9.2175 6.89131C10.0142 7.53981 11.2195 8.51431 11.8958 9.05681C12.5717 9.59931 13.4718 10.3626 13.8953 10.7526L14.6655 11.4616L15.2703 10.8641C15.603 10.5353 16.9967 9.22781 18.3678 7.95806C20.7035 5.79506 20.8708 5.68681 21.027 6.23506C21.4778 7.81756 22.295 10.8683 22.9923 13.5703C23.418 15.2203 24.1372 17.9766 24.5907 19.6953L25.415 22.8203L26.8325 22.8953C27.8903 22.9513 28.25 22.8851 28.25 22.6341C28.25 22.3513 25.3555 11.7603 23.1225 3.87156C22.78 2.66231 22.5 1.50931 22.5 1.30906C22.5 1.10906 22.385 0.945312 22.2445 0.945312C22.104 0.945312 20.3485 2.57356 18.3438 4.56331L14.6985 8.18131L13.864 7.54481C13.405 7.19481 12.9945 6.81981 12.9522 6.71181C12.9097 6.60356 12.0875 5.85606 11.125 5.05031C10.1625 4.24456 8.7765 3.01956 8.045 2.32781C6.42825 0.799063 6.31825 0.753563 6.0235 1.48806ZM85.9255 2.86156C86.1115 3.34656 87.19 3.55631 87.6283 3.19256C88.2203 2.70131 88.0738 2.57181 86.8978 2.54681C86.068 2.52931 85.8278 2.60706 85.9255 2.86156ZM55.6068 3.52256C55.0885 3.96831 54.9077 4.39081 54.813 5.37881C54.7045 6.50706 54.766 6.73381 55.3335 7.30156C56.2427 8.21081 57.7855 8.20256 58.637 7.28381C59.7528 6.07981 59.3387 3.69956 57.9282 3.20781C56.814 2.81931 56.3512 2.88206 55.6068 3.52256ZM63.8257 3.24456C63.019 3.63431 62.4427 5.01156 62.6423 6.07406C63.1087 8.56056 66.6805 8.52706 67.1488 6.03156C67.544 3.92506 65.6702 2.35331 63.8257 3.24456ZM72.7077 3.32781C71.3385 4.07131 71.193 6.46981 72.4567 7.46606C73.6515 8.40806 75.7178 7.72656 75.742 6.38281C75.7527 5.78756 75.0713 5.82681 74.879 6.43256C74.7 6.99631 73.959 7.29531 73.277 7.07881C72.475 6.82431 72.2208 5.01031 72.8928 4.33806C73.3903 3.84081 74.3445 3.83156 74.75 4.32031C75.1758 4.83331 75.75 4.79256 75.75 4.24931C75.75 3.75156 74.5495 2.93981 73.8365 2.95531C73.5827 2.96081 73.0747 3.12831 72.7077 3.32781ZM29.5 5.44531C29.5 7.57231 29.529 7.69531 30.031 7.69531C30.5212 7.69531 30.5532 7.59056 30.4487 6.33206C30.3867 5.58231 30.429 5.02631 30.543 5.09681C30.6567 5.16731 30.75 5.42956 30.75 5.67956C30.75 6.43306 31.483 7.94531 31.848 7.94531C32.1975 7.94531 32.5475 7.24231 32.9673 5.69531C33.194 4.86081 33.206 4.88681 33.2275 6.25781C33.2397 7.04856 33.3625 7.69531 33.5 7.69531C33.6375 7.69531 33.8172 7.69531 33.8997 7.69556C33.982 7.69556 34.0558 6.71106 34.0638 5.50806C34.0768 3.48431 34.0392 3.31456 33.5622 3.24356C33.1412 3.18081 32.9508 3.42331 32.5233 4.56531C32.2355 5.33456 31.991 6.15681 31.9802 6.39231C31.9695 6.62756 31.6787 6.00481 31.3345 5.00781C30.7895 3.43056 30.63 3.19531 30.1042 3.19531C29.51 3.19531 29.5 3.23256 29.5 5.44531ZM35.2762 5.20581C34.3135 7.64181 34.3175 8.41531 35.2868 7.38281C36.111 6.50506 37.171 6.45481 37.4842 7.27856C37.7332 7.93356 38.507 8.07831 38.487 7.46606C38.4797 7.24831 38.1628 6.22656 37.7822 5.19531C37.265 3.79356 36.9627 3.30156 36.5853 3.24556C36.165 3.18356 35.9455 3.51231 35.2762 5.20581ZM39 5.51681C39 7.43481 39.0682 7.86206 39.375 7.86206C39.6765 7.86206 39.75 7.47781 39.75 5.90356V3.94531H41.0207C42.9237 3.94531 42.5105 3.34081 40.5428 3.24581L39 3.17156V5.51681ZM42.5 5.32031C42.5 6.48906 42.5 7.52956 42.5 7.63281C42.5 7.73606 42.6408 7.82031 42.8125 7.82031C43.0015 7.82031 43.1555 7.40006 43.2018 6.75781C43.2785 5.70056 43.2835 5.69531 44.2643 5.69531C45.2475 5.69531 45.25 5.69781 45.25 6.69531C45.25 7.52856 45.3332 7.69531 45.75 7.69531C46.213 7.69531 46.25 7.52856 46.25 5.44531C46.25 3.36206 46.213 3.19531 45.75 3.19531C45.3452 3.19531 45.25 3.36206 45.25 4.07031C45.25 4.92456 45.2262 4.94531 44.25 4.94531C43.2738 4.94531 43.25 4.92456 43.25 4.07031C43.25 3.45931 43.137 3.19531 42.875 3.19531C42.571 3.19531 42.5 3.59806 42.5 5.32031ZM47 5.52856C47 7.51856 47.06 7.86206 47.4075 7.86206C47.7778 7.86206 49.6893 5.24506 49.7943 4.59406C49.8185 4.44356 49.9028 5.09906 49.9818 6.05081C50.0688 7.10281 50.2475 7.82156 50.4375 7.88406C50.673 7.96156 50.75 7.39256 50.75 5.57381C50.75 3.22106 50.736 3.16256 50.193 3.24031C49.809 3.29556 49.343 3.82481 48.693 4.94431L47.75 6.56806V4.88181C47.75 3.54931 47.6712 3.19531 47.375 3.19531C47.0685 3.19531 47 3.62131 47 5.52856ZM51 3.57031C51 3.81906 51.2487 3.94531 51.7395 3.94531H52.479L52.552 5.88281C52.6095 7.40581 52.7052 7.82031 53 7.82031C53.301 7.82031 53.375 7.43831 53.375 5.88231V3.94456L54.1875 3.94481C54.7433 3.94506 55 3.82681 55 3.57031C55 3.26831 54.611 3.19531 53 3.19531C51.389 3.19531 51 3.26831 51 3.57031ZM59.75 5.44531C59.75 7.52856 59.787 7.69531 60.25 7.69531C60.7055 7.69531 60.75 7.52856 60.75 5.82031V3.94531H61.875C62.7082 3.94531 63 3.84806 63 3.57031C63 3.27556 62.6527 3.19531 61.375 3.19531H59.75V5.44531ZM67.75 5.57031C67.75 7.51481 67.818 7.94531 68.125 7.94531C68.3958 7.94531 68.5 7.66756 68.5 6.94531V5.94531H69.6162C70.8215 5.94531 71.25 5.53656 71.25 4.38681C71.25 3.47181 70.7742 3.19531 69.2 3.19531H67.75V5.57031ZM76.25 5.43056C76.25 6.66006 76.3398 7.72131 76.4495 7.78906C76.8158 8.01531 77.204 7.57656 77.29 6.83881C77.4143 5.77306 77.8305 5.79881 78.6077 6.92031C79.0362 7.53881 79.4738 7.89731 79.772 7.87481C80.035 7.85506 80.25 7.79356 80.25 7.73806C80.25 7.68256 79.841 7.08006 79.341 6.39906L78.4323 5.16081L79.3917 4.17806C80.3095 3.23831 80.3252 3.19531 79.7487 3.19531C79.391 3.19531 78.7607 3.57156 78.198 4.12106L77.25 5.04681V4.12106C77.25 3.36206 77.16 3.19531 76.75 3.19531C76.2872 3.19531 76.25 3.36206 76.25 5.43056ZM80.5 5.43056C80.5 8.55756 81.0387 8.69231 82.591 5.95356L83.375 4.57031L83.4495 6.13281C83.505 7.29806 83.6162 7.69531 83.887 7.69531C84.1775 7.69531 84.25 7.24581 84.25 5.44531C84.25 3.46731 84.197 3.19581 83.8125 3.19981C83.404 3.20406 81.75 5.39156 81.75 5.92756C81.75 6.05856 81.6403 6.23381 81.5058 6.31656C81.3548 6.41006 81.2968 5.96781 81.3538 5.15606C81.459 3.65281 81.341 3.19531 80.8483 3.19531C80.5765 3.19531 80.5 3.68656 80.5 5.43056ZM85 5.44531C85 7.63006 85.0167 7.69531 85.5782 7.69531C86.026 7.69531 86.35 7.35006 87.0157 6.16256L87.875 4.62981L88 6.22506C88.0938 7.42081 88.219 7.82031 88.5 7.82031C88.8035 7.82031 88.8832 7.37606 88.9177 5.49306C88.959 3.23681 88.9437 3.16806 88.4177 3.24306C88.084 3.29056 87.538 3.83406 87 4.65431L86.125 5.98806L86.05 4.59181C85.986 3.39956 85.9038 3.19531 85.4875 3.19531C85.0403 3.19531 85 3.38106 85 5.44531ZM56.0705 4.10831C55.903 4.17606 55.6935 4.61781 55.605 5.08956C55.299 6.72031 56.6407 7.75356 57.884 6.84456C58.4815 6.40781 58.5588 4.54356 57.9943 4.18656C57.6058 3.94081 56.586 3.89931 56.0705 4.10831ZM63.7588 4.42881C62.8442 6.13756 64.6068 8.09681 65.8363 6.73806C66.3045 6.22056 66.3765 5.14881 65.9912 4.42881C65.8125 4.09506 65.4668 3.94531 64.875 3.94531C64.2832 3.94531 63.9375 4.09506 63.7588 4.42881ZM68.5 4.57031C68.5 5.17456 68.573 5.21956 69.4375 5.14781C70.1825 5.08631 70.375 4.96756 70.375 4.57031C70.375 4.17306 70.1825 4.05431 69.4375 3.99281C68.573 3.92106 68.5 3.96606 68.5 4.57031ZM36.1888 5.07031C36.0988 5.54131 36.1755 5.69531 36.5 5.69531C36.8245 5.69531 36.9012 5.54131 36.8112 5.07031C36.7455 4.72656 36.6055 4.44531 36.5 4.44531C36.3945 4.44531 36.2545 4.72656 36.1888 5.07031ZM8.343 8.13281C8.25125 8.51081 7.42125 11.8266 6.498 15.5011C5.575 19.1756 4.87925 22.2411 4.9515 22.3136C5.024 22.3861 5.56325 22.4453 6.14975 22.4453C6.947 22.4453 7.25075 22.3348 7.35225 22.0078C7.42725 21.7671 8.04775 19.3918 8.73125 16.7291C9.41475 14.0666 10.008 11.8546 10.0495 11.8141C10.091 11.7733 11.1627 12.5861 12.4312 13.6198L14.7375 15.4996L16.805 13.6096L18.8725 11.7198L20.199 17.0201C20.9287 19.9353 21.5725 22.4611 21.63 22.6328C21.693 22.8216 22.1833 22.9453 22.8673 22.9453C23.7483 22.9453 24 22.8546 24 22.5371C24 22.3126 23.5998 20.4846 23.1103 18.4746C22.621 16.4648 21.8155 13.1576 21.3205 11.1253C20.8255 9.09281 20.3342 7.46156 20.2285 7.50031C20.123 7.53881 19.3185 8.24531 18.4405 9.07031C14.8127 12.4801 14.764 12.5163 14.3007 12.1538C14.0665 11.9703 13.8188 11.7603 13.75 11.6868C13.6812 11.6133 13.077 11.1106 12.407 10.5693C11.7372 10.0281 10.6685 9.10481 10.032 8.51781C9.39575 7.93081 8.79275 7.44956 8.69225 7.44806C8.59175 7.44656 8.4345 7.75481 8.343 8.13281ZM93.75 9.66481C93.75 10.0286 93.593 10.1953 93.25 10.1953C92.785 10.1953 92.75 10.3621 92.75 12.5703C92.75 14.7391 92.7913 14.9453 93.2262 14.9453C93.6565 14.9453 94.1765 14.2763 95.4337 12.1038C95.7012 11.6418 95.743 11.7963 95.7462 13.2578C95.7492 14.5896 95.829 14.9453 96.125 14.9453C96.432 14.9453 96.5 14.5148 96.5 12.5703C96.5 10.8348 96.4157 10.1963 96.1875 10.1991C95.67 10.2056 95.3647 10.5133 94.642 11.7578C94.2627 12.4108 93.907 12.9453 93.8512 12.9453C93.7955 12.9453 93.75 12.3243 93.75 11.5656C93.75 10.2168 93.764 10.1893 94.3783 10.3436C94.7385 10.4338 95.165 10.3696 95.3783 10.1926C95.949 9.71881 95.8203 9.41806 95.1217 9.59356C94.7615 9.68381 94.335 9.61956 94.1217 9.44256C93.8125 9.18606 93.75 9.22356 93.75 9.66481ZM80.7095 10.2233C78.6038 11.0111 79.1562 14.9453 81.3727 14.9453C82.5533 14.9453 82.9657 14.7366 83.3842 13.9273C83.855 13.0171 83.8465 12.9453 83.2667 12.9453C83.001 12.9453 82.7122 13.1703 82.625 13.4453C82.5378 13.7203 82.3895 13.9536 82.2958 13.9638C82.2018 13.9741 81.8773 14.0288 81.5742 14.0856C80.4875 14.2888 79.7798 12.2013 80.6428 11.3381C81.2498 10.7313 82.1905 10.7411 82.6685 11.3596C82.83 11.5683 83.1582 11.7013 83.398 11.6548C83.784 11.5801 83.7647 11.4928 83.2295 10.8923C82.527 10.1043 81.65 9.87156 80.7095 10.2233ZM29.5795 12.5703C29.589 14.6091 29.6493 14.9453 30.0042 14.9453C30.3165 14.9453 30.428 14.6898 30.4587 13.9038C30.5138 12.5001 30.6325 12.4678 31.0572 13.7421C31.6715 15.5861 32.2058 15.2906 32.9485 12.6953C33.1845 11.8711 33.2005 11.9118 33.2245 13.4011C33.2465 14.7648 33.3102 14.9703 33.6875 14.8978C34.0655 14.8248 34.125 14.5078 34.125 12.5668C34.125 10.3471 34.1177 10.3203 33.5103 10.3203C32.97 10.3203 32.8315 10.5246 32.3703 12.0026L31.845 13.6851L31.2833 11.9401C30.8022 10.4473 30.638 10.1953 30.1448 10.1953C29.5825 10.1953 29.5688 10.2538 29.5795 12.5703ZM34.75 12.5703V14.9453H36.5C38.0833 14.9453 38.25 14.8978 38.25 14.4453C38.25 14.0133 38.0832 13.9453 37.0267 13.9453C36.142 13.9453 35.7615 13.8358 35.6517 13.5498C35.352 12.7686 35.5073 12.6586 36.8125 12.7278C37.8262 12.7818 38.125 12.7148 38.125 12.4341C38.125 12.1776 37.775 12.0478 36.9375 11.9941C35.954 11.9311 35.75 11.8343 35.75 11.4316C35.75 11.0148 35.9285 10.9453 37 10.9453C37.9445 10.9453 38.25 10.8536 38.25 10.5703C38.25 10.2728 37.889 10.1953 36.5 10.1953H34.75V12.5703ZM38.561 10.5078C38.6175 10.6798 38.9642 10.8558 39.3317 10.8993C39.9932 10.9778 40 10.9986 40 12.9618C40 14.7786 40.042 14.9453 40.5 14.9453C40.9582 14.9453 41 14.7786 41 12.9453V10.9453H41.75C42.25 10.9453 42.5 10.8203 42.5 10.5703C42.5 10.2678 42.1088 10.1953 40.4793 10.1953C38.9745 10.1953 38.4845 10.2751 38.561 10.5078ZM42.538 12.3333C42.1045 13.5228 41.75 14.5973 41.75 14.7208C41.75 15.2163 42.5277 14.9048 42.75 14.3203C42.9395 13.8221 43.1608 13.6953 43.8418 13.6953C44.5443 13.6953 44.7237 13.8063 44.8527 14.3203C44.98 14.8281 45.1632 14.9453 45.8298 14.9453C47.0187 14.9453 47.25 14.5708 47.25 12.6453V10.9453H47.9895H48.729L48.802 12.8801C48.8627 14.4896 48.9485 14.8291 49.3125 14.8983C49.7045 14.9733 49.75 14.7331 49.75 12.5886V10.1953H48.125H46.5V12.0398C46.5 13.3023 46.3913 13.9743 46.1553 14.1703C45.8735 14.4041 45.6792 14.0781 45.0928 12.3883C44.5285 10.7626 44.2627 10.3043 43.8505 10.2453C43.4 10.1811 43.2142 10.4763 42.538 12.3333ZM50.5257 12.1211C50.5547 13.3773 50.4713 14.0798 50.2853 14.1418C49.8043 14.3023 49.9692 14.9453 50.4912 14.9453C51.196 14.9453 51.5 14.1968 51.5 12.4618V10.9453H52.25H53V12.9453C53 14.7786 53.0418 14.9453 53.5 14.9453C53.965 14.9453 54 14.7786 54 12.5703V10.1953H52.2405H50.481L50.5257 12.1211ZM54.25 10.3233C54.25 10.4128 54.6402 11.1521 55.1172 11.9658C55.9835 13.4441 56.0395 14.0308 55.3397 14.2993C54.8497 14.4873 55.1483 14.9453 55.7612 14.9453C56.2315 14.9453 57.0622 13.5816 58.0835 11.1328C58.4595 10.2311 58.4552 10.1953 57.9733 10.1953C57.6183 10.1953 57.324 10.5293 56.9652 11.3403L56.4588 12.4856L55.8815 11.4028C55.5275 10.7393 55.1003 10.2893 54.7772 10.2403C54.4872 10.1966 54.25 10.2338 54.25 10.3233ZM58.75 12.5703C58.75 14.8181 58.7782 14.9453 59.2762 14.9453C59.7395 14.9453 59.791 14.8256 59.7072 13.9453C59.612 12.9483 59.6145 12.9453 60.5003 12.9453C61.6108 12.9453 62.5 12.3448 62.5 11.5948C62.5 10.6453 61.7503 10.1953 60.1678 10.1953H58.75V12.5703ZM63 12.5703C63 14.5148 63.068 14.9453 63.375 14.9453C63.677 14.9453 63.75 14.5563 63.75 12.9453V10.9453H64.8483C65.5938 10.9453 65.9928 10.8248 66.0905 10.5703C66.2093 10.2608 65.952 10.1953 64.6172 10.1953H63V12.5703ZM66.5 12.5703C66.5 14.4048 66.5772 14.9453 66.8395 14.9453C67.1545 14.9453 68.609 12.9693 69.14 11.8203C69.3118 11.4491 69.3905 11.7873 69.4465 13.1328C69.5042 14.5186 69.6077 14.9453 69.886 14.9453C70.1793 14.9453 70.25 14.4808 70.25 12.5528C70.25 10.2148 70.2373 10.1623 69.6875 10.2403C69.3047 10.2948 68.8453 10.7961 68.25 11.8078L67.375 13.2953L67.3005 11.7453C67.2452 10.5911 67.1335 10.1953 66.863 10.1953C66.571 10.1953 66.5 10.6606 66.5 12.5703ZM70.817 11.3676C70.9808 12.8201 71.517 13.2858 72.7975 13.0873C73.712 12.9456 73.7205 12.9521 73.7975 13.8803C73.8518 14.5343 74.0068 14.8411 74.3125 14.8991C74.7045 14.9733 74.75 14.7328 74.75 12.5886C74.75 10.3621 74.7152 10.1953 74.25 10.1953C73.832 10.1953 73.75 10.3621 73.75 11.2103V12.2256L72.8125 12.1478C71.926 12.0746 71.8708 12.0193 71.7975 11.1328C71.7347 10.3766 71.6198 10.1953 71.2025 10.1953C70.734 10.1953 70.6975 10.3063 70.817 11.3676ZM75.375 12.5703V14.9453H77.1875C78.8333 14.9453 79 14.8993 79 14.4453C79 14.0051 78.8333 13.9453 77.6075 13.9453C76.3067 13.9453 76.2205 13.9083 76.295 13.3828C76.3645 12.8951 76.5238 12.8203 77.495 12.8203C78.3625 12.8203 78.6345 12.7216 78.701 12.3828C78.7735 12.0123 78.5922 11.9453 77.5182 11.9453C76.4167 11.9453 76.25 11.8796 76.25 11.4453C76.25 11.0058 76.4167 10.9453 77.625 10.9453C78.6805 10.9453 79 10.8583 79 10.5703C79 10.2716 78.632 10.1953 77.1875 10.1953H75.375V12.5703ZM84 12.5703C84 14.7786 84.035 14.9453 84.5 14.9453C84.8968 14.9453 85.0008 14.7773 85.0038 14.1328C85.011 12.6308 85.3643 12.5328 86.2312 13.7931C86.7165 14.4983 87.2132 14.9453 87.512 14.9453C87.9758 14.9453 88.2093 14.3301 87.8125 14.1536C87.7093 14.1078 87.3025 13.6386 86.908 13.1111L86.1913 12.1516L87.1462 11.1736C88.0605 10.2373 88.0758 10.1953 87.4987 10.1953C87.141 10.1953 86.5107 10.5716 85.948 11.1211L85 12.0468V11.1211C85 10.3621 84.91 10.1953 84.5 10.1953C84.035 10.1953 84 10.3621 84 12.5703ZM88.25 12.5703C88.25 14.6668 88.3015 14.9453 88.688 14.9453C88.9555 14.9453 89.5478 14.2876 90.208 13.2578L91.2897 11.5703L91.2363 12.6953C91.15 14.5121 91.225 14.9453 91.625 14.9453C91.932 14.9453 92 14.5148 92 12.5703C92 10.3818 91.9618 10.1953 91.5123 10.1953C91.1718 10.1953 90.75 10.6861 90.1158 11.8203C89.616 12.7141 89.1758 13.4453 89.1377 13.4453C89.0997 13.4453 89.1102 12.7141 89.1612 11.8203C89.2462 10.3291 89.2127 10.1953 88.752 10.1953C88.2845 10.1953 88.25 10.3588 88.25 12.5703ZM59.5 11.5703C59.5 12.1746 59.573 12.2196 60.4375 12.1478C61.1825 12.0863 61.375 11.9676 61.375 11.5703C61.375 11.1731 61.1825 11.0543 60.4375 10.9928C59.573 10.9211 59.5 10.9661 59.5 11.5703ZM43.5643 11.9453C43.4243 12.2906 43.4092 12.6076 43.5305 12.6536C43.978 12.8236 44.1525 12.5528 43.9875 11.9453L43.8177 11.3203L43.5643 11.9453ZM10.25 14.4231C10.25 14.6861 9.961 16.1203 9.60775 17.6106C9.2545 19.1011 8.87525 20.7983 8.765 21.3828L8.5645 22.4453H10.2627H11.961L12.9738 21.2606L13.9865 20.0758L15.1892 21.2606C16.3832 22.4366 16.4045 22.4453 18.071 22.4453C18.9945 22.4453 19.743 22.3608 19.7345 22.2578C19.726 22.1548 18.9338 21.4033 17.974 20.5883L16.2288 19.1063L17.5985 17.7133L18.9685 16.3203L18.692 15.1328C18.54 14.4798 18.349 13.9453 18.2675 13.9453C18.0903 13.9453 14.4655 16.9278 13.3125 18.0221L12.5 18.7933V17.2478C12.5 15.7833 12.4508 15.6563 11.5625 14.8306C10.4855 13.8293 10.25 13.7561 10.25 14.4231ZM29.674 17.1196C29.6068 17.2301 29.5495 18.3673 29.5462 19.6473C29.541 21.6793 29.5928 21.9641 29.954 21.8946C30.2148 21.8443 30.4237 21.4688 30.5198 20.8773C30.6035 20.3618 30.735 19.8768 30.812 19.8001C30.889 19.7231 31.3055 20.1743 31.738 20.8028C32.2183 21.5008 32.714 21.9453 33.012 21.9453C33.2805 21.9453 33.5 21.8793 33.5 21.7986C33.5 21.5918 31.927 19.3586 31.625 19.1366C31.4667 19.0203 31.482 18.9516 31.6665 18.9491C31.8267 18.9471 32.3145 18.4953 32.75 17.9453C33.421 17.0981 33.472 16.9458 33.0835 16.9481C32.8312 16.9496 32.1537 17.4013 31.5777 17.9523L30.5308 18.9538L30.4527 18.0313C30.38 17.1691 29.9497 16.6656 29.674 17.1196ZM34.375 17.2473C33.5405 17.7258 33.2663 18.2671 33.258 19.4521C33.2487 20.7746 33.6825 21.5031 34.74 21.9413C37.0263 22.8883 38.839 19.4961 37.0192 17.6761C36.2388 16.8958 35.2637 16.7376 34.375 17.2473ZM38.25 19.4278C38.25 21.4988 38.3165 21.9453 38.625 21.9453C38.9168 21.9453 39.0033 21.5983 39.0148 20.3828L39.0298 18.8203L39.5773 20.3171C40.321 22.3493 40.7595 22.3668 41.4352 20.3913L41.9725 18.8203L41.9863 20.3828C41.997 21.5991 42.0832 21.9453 42.375 21.9453C42.6833 21.9453 42.75 21.5008 42.75 19.4453C42.75 17.4886 42.6752 16.9453 42.4055 16.9453C41.8825 16.9453 41.5975 17.4183 41.0607 19.1761L40.5705 20.7821L39.9533 18.9261C39.4625 17.4511 39.2245 17.0538 38.793 16.9903C38.2663 16.9131 38.25 16.9863 38.25 19.4278ZM43.5 19.4453V21.9453H44.8273C46.3473 21.9453 46.8898 21.6203 47.067 20.6038C47.2428 19.5953 46.5305 18.9453 45.25 18.9453C44.4168 18.9453 44.25 18.8621 44.25 18.4453C44.25 18.0121 44.4167 17.9453 45.5 17.9453C46.5833 17.9453 46.75 17.8786 46.75 17.4453C46.75 16.9966 46.5833 16.9453 45.125 16.9453H43.5V19.4453ZM47.6175 17.5108C47.5395 17.8218 47.5093 18.9186 47.5503 19.9483C47.6173 21.6241 47.677 21.8203 48.1213 21.8203C48.4733 21.8203 48.9098 21.3123 49.6213 20.0743L50.625 18.3283L50.6985 20.1368C50.7548 21.5198 50.8575 21.9453 51.136 21.9453C51.4305 21.9453 51.5 21.4651 51.5 19.4271C51.5 17.1646 51.4555 16.9168 51.0625 16.9896C50.8218 17.0341 50.147 17.7978 49.5625 18.6873L48.5 20.3041V18.6248C48.5 17.3081 48.42 16.9453 48.1297 16.9453C47.9263 16.9453 47.6958 17.1998 47.6175 17.5108ZM52.1143 17.2578C52.0395 17.4528 52.0115 18.5578 52.0518 19.7136C52.1133 21.4813 52.1945 21.8281 52.5625 21.8983C52.9275 21.9681 53 21.7928 53 20.8386V19.6953H54H55V20.8203C55 21.7853 55.0725 21.9453 55.509 21.9453C55.9912 21.9453 56.0142 21.8166 55.9465 19.5078C55.8887 17.5396 55.8027 17.0703 55.5 17.0703C55.2472 17.0703 55.0998 17.3756 55.0475 18.0078C54.9723 18.9168 54.9403 18.9453 54 18.9453C53.0638 18.9453 53.0275 18.9136 52.9525 18.0271C52.8735 17.0901 52.3597 16.6186 52.1143 17.2578ZM57.149 19.2443C56.1082 21.9326 56.1063 21.9453 56.6953 21.9453C56.9603 21.9453 57.255 21.6418 57.4235 21.1953C57.6365 20.6308 57.865 20.4453 58.3467 20.4453C58.8055 20.4453 59.0973 20.6581 59.375 21.1953C59.5882 21.6078 59.9287 21.9453 60.1315 21.9453C60.6208 21.9453 60.616 21.9173 59.6787 19.3231C58.5822 16.2873 58.297 16.2783 57.149 19.2443ZM59.75 17.4453C59.75 17.8343 59.9168 17.9453 60.5 17.9453H61.25V19.9636C61.25 21.7511 61.3 21.9723 61.6875 21.8983C62.0515 21.8291 62.1373 21.4896 62.198 19.8801C62.2685 18.0116 62.292 17.9453 62.8855 17.9453C63.3333 17.9453 63.5 17.8098 63.5 17.4453C63.5 16.9898 63.3333 16.9453 61.625 16.9453C59.9167 16.9453 59.75 16.9898 59.75 17.4453ZM34.3927 18.3381C33.5588 19.1723 34.2657 21.1953 35.3915 21.1953C36.3242 21.1953 36.75 20.6988 36.75 19.6116C36.75 19.0251 36.615 18.4103 36.45 18.2453C36.0252 17.8206 34.8577 17.8733 34.3927 18.3381ZM58.0542 18.8971C57.8153 19.5828 57.8312 19.7421 58.1507 19.8648C58.7625 20.0996 58.986 19.6331 58.6502 18.8233L58.3405 18.0763L58.0542 18.8971ZM44.25 20.4303C44.25 21.0991 44.3365 21.1948 44.9375 21.1916C45.8587 21.1863 46.3182 20.8608 46.21 20.2903C46.145 19.9483 45.8663 19.7993 45.1855 19.7428C44.2918 19.6686 44.25 19.6993 44.25 20.4303Z" fill="#766E6C"/>
</g>
<defs>
<clipPath id="clip0_143_1435">
<rect width="96.5" height="22" fill="white" transform="translate(0 0.945312)"/>
</clipPath>
</defs>
</svg>
