<svg width="87" height="55" viewBox="0 0 87 55" fill="none" xmlns="http://www.w3.org/2000/svg">
<g clip-path="url(#clip0_143_1430)">
<path d="M19.121 52.4318L20.386 50.9689C20.3818 50.8048 20.3509 50.6909 20.2934 50.627C20.2359 50.5631 20.1369 50.5302 19.9963 50.5278V50.4066H21.3572V50.5278C21.2145 50.5278 21.1187 50.5429 21.0697 50.5727C21.0207 50.6003 20.9824 50.6356 20.9547 50.6781C20.927 50.7207 20.9131 50.8591 20.9131 51.0933V52.6458C20.9131 52.8716 20.9249 53.0069 20.9483 53.0516C20.9717 53.0941 21.0079 53.1325 21.0569 53.1666C21.108 53.1985 21.2081 53.2146 21.3572 53.2146V53.3327H19.942V53.2146C20.1188 53.2146 20.237 53.1827 20.2966 53.1188C20.3562 53.0526 20.386 52.895 20.386 52.6458V51.269L19.121 52.7353C19.1253 52.9163 19.1508 53.0409 19.1977 53.1092C19.2445 53.1772 19.3457 53.2125 19.5012 53.2146V53.3327H18.1499V53.2146C18.3394 53.2146 18.4608 53.1803 18.5141 53.1123C18.5673 53.0419 18.5939 52.8864 18.5939 52.6458V51.0933C18.5939 50.8656 18.5822 50.7314 18.5588 50.6909C18.5354 50.6483 18.4992 50.6109 18.4502 50.579C18.4012 50.545 18.3011 50.5278 18.1499 50.5278V50.4066H19.5651V50.5278C19.4224 50.5278 19.3265 50.5429 19.2776 50.5727C19.2286 50.6003 19.1902 50.6356 19.1626 50.6781C19.1349 50.7207 19.121 50.8591 19.121 51.0933V52.4318ZM23.5997 52.5692L24.5133 50.4066H25.5004V50.5278C25.3556 50.5278 25.2587 50.5429 25.2097 50.5727C25.1629 50.6003 25.1256 50.6356 25.0979 50.6781C25.0702 50.7207 25.0564 50.8591 25.0564 51.0933V52.6458C25.0564 52.8483 25.066 52.9791 25.0851 53.0388C25.1064 53.0962 25.148 53.1401 25.2097 53.1697C25.2736 53.1995 25.3705 53.2146 25.5004 53.2146V53.3327H24.0853V53.2146C24.2599 53.2146 24.377 53.1827 24.4366 53.1188C24.4963 53.0526 24.5261 52.895 24.5261 52.6458V50.8858L23.4911 53.3327H23.3793L22.3251 50.8858V52.6458C22.3251 52.8483 22.3358 52.9791 22.357 53.0388C22.3783 53.0962 22.4199 53.1401 22.4816 53.1697C22.5434 53.1995 22.6392 53.2146 22.7691 53.2146V53.3327H21.6511V53.2146C21.8406 53.2146 21.962 53.1803 22.0152 53.1123C22.0685 53.0419 22.0951 52.8864 22.0951 52.6458V51.0933C22.0951 50.8656 22.0834 50.7314 22.06 50.6909C22.0365 50.6483 22.0003 50.6109 21.9513 50.579C21.9024 50.545 21.8023 50.5278 21.6511 50.5278V50.4066H22.6797L23.5997 52.5692ZM26.3405 51.5087C26.3384 51.943 26.4438 52.2839 26.6567 52.531C26.8699 52.7779 27.1201 52.9015 27.4075 52.9015C27.5991 52.9015 27.7653 52.8493 27.906 52.7449C28.0485 52.6385 28.1679 52.4575 28.2637 52.2018L28.3627 52.2657C28.318 52.5575 28.1879 52.8236 27.973 53.0643C27.7577 53.3029 27.4885 53.4223 27.1648 53.4223C26.8133 53.4223 26.5121 53.286 26.2607 53.0134C26.0115 52.7385 25.887 52.3701 25.887 51.9079C25.887 51.4074 26.0147 51.0177 26.2703 50.7389C26.5279 50.4577 26.8507 50.317 27.2383 50.317C27.5662 50.317 27.8356 50.4258 28.0464 50.6428C28.2572 50.8581 28.3627 51.1465 28.3627 51.5087H26.3405ZM26.3405 51.3233H27.6949C27.6843 51.1358 27.6619 51.004 27.6279 50.9274C27.5747 50.808 27.4948 50.7142 27.3883 50.6462C27.284 50.5779 27.1744 50.5439 27.0594 50.5439C26.8826 50.5439 26.724 50.6132 26.5832 50.7516C26.4449 50.8879 26.3639 51.0785 26.3405 51.3233ZM29.6693 51.7132H30.9341V51.0933C30.9341 50.9082 30.9269 50.7877 30.9118 50.7324C30.897 50.6748 30.8596 50.627 30.8002 50.5886C30.7425 50.5481 30.6392 50.5278 30.4902 50.5278V50.4066H31.9054V50.5278C31.7732 50.5278 31.6764 50.5429 31.6146 50.5727C31.5551 50.6026 31.5146 50.6462 31.4934 50.7036C31.4721 50.7591 31.4614 50.889 31.4614 51.0933V52.6458C31.4614 52.8311 31.4687 52.9537 31.4837 53.0134C31.5006 53.0728 31.5401 53.1219 31.6019 53.1603C31.6637 53.1964 31.7649 53.2146 31.9054 53.2146V53.3327H30.4902V53.2146C30.667 53.2146 30.7851 53.1827 30.8448 53.1188C30.9045 53.0526 30.9341 52.895 30.9341 52.6458V51.9207H29.6693V52.6458C29.6693 52.8311 29.6766 52.9537 29.6916 53.0134C29.7085 53.0728 29.748 53.1219 29.8097 53.1603C29.8715 53.1964 29.9728 53.2146 30.1132 53.2146V53.3327H28.6981V53.2146C28.8876 53.2146 29.0091 53.1803 29.0623 53.1123C29.1155 53.0419 29.142 52.8864 29.142 52.6458V51.0933C29.142 50.9082 29.1337 50.7856 29.1166 50.7259C29.1018 50.6665 29.0634 50.6184 29.0016 50.5823C28.9398 50.546 28.8388 50.5278 28.6981 50.5278V50.4066H30.1132V50.5278C29.9811 50.5278 29.8843 50.5429 29.8225 50.5727C29.763 50.6026 29.7225 50.6462 29.7012 50.7036C29.6799 50.7591 29.6693 50.889 29.6693 51.0933V51.7132ZM33.1705 52.4318L34.4353 50.9689C34.4312 50.8048 34.4003 50.6909 34.3426 50.627C34.2853 50.5631 34.1863 50.5302 34.0456 50.5278V50.4066H35.4065V50.5278C35.2637 50.5278 35.1679 50.5429 35.1191 50.5727C35.0701 50.6003 35.0317 50.6356 35.0041 50.6781C34.9764 50.7207 34.9626 50.8591 34.9626 51.0933V52.6458C34.9626 52.8716 34.9743 53.0069 34.9976 53.0516C35.021 53.0941 35.0574 53.1325 35.1062 53.1666C35.1573 53.1985 35.2575 53.2146 35.4065 53.2146V53.3327H33.9914V53.2146C34.1682 53.2146 34.2863 53.1827 34.346 53.1188C34.4055 53.0526 34.4353 52.895 34.4353 52.6458V51.269L33.1705 52.7353C33.1746 52.9163 33.2003 53.0409 33.2471 53.1092C33.2938 53.1772 33.395 53.2125 33.5505 53.2146V53.3327H32.1992V53.2146C32.3888 53.2146 32.5103 53.1803 32.5635 53.1123C32.6167 53.0419 32.6432 52.8864 32.6432 52.6458V51.0933C32.6432 50.8656 32.6315 50.7314 32.6081 50.6909C32.5848 50.6483 32.5484 50.6109 32.4996 50.579C32.4506 50.545 32.3503 50.5278 32.1992 50.5278V50.4066H33.6144V50.5278C33.4716 50.5278 33.3758 50.5429 33.327 50.5727C33.278 50.6003 33.2395 50.6356 33.212 50.6781C33.1842 50.7207 33.1705 50.8591 33.1705 51.0933V52.4318ZM40.1822 51.8825H38.505L38.2112 52.5661C38.139 52.7343 38.1026 52.86 38.1026 52.943C38.1026 53.009 38.1335 53.0676 38.1953 53.1188C38.2592 53.1676 38.3955 53.1995 38.6042 53.2146V53.3327H37.2402V53.2146C37.4212 53.1827 37.5382 53.1411 37.5915 53.09C37.7002 52.9877 37.8204 52.78 37.9526 52.4669L39.4763 48.9019H39.5882L41.096 52.5053C41.2172 52.795 41.3271 52.9835 41.4249 53.0708C41.5252 53.1559 41.6635 53.2039 41.8403 53.2146V53.3327H40.1313V53.2146C40.3037 53.206 40.4197 53.1772 40.4794 53.1281C40.5412 53.0793 40.5721 53.0196 40.5721 52.9493C40.5721 52.8555 40.5295 52.7076 40.4441 52.5053L40.1822 51.8825ZM40.0929 51.646L39.3581 49.8954L38.6042 51.646H40.0929ZM42.7347 52.713C42.8347 52.713 42.9188 52.7481 42.987 52.8184C43.0551 52.8864 43.0893 52.9695 43.0893 53.0676C43.0893 53.1655 43.054 53.2496 42.9839 53.32C42.9157 53.388 42.8326 53.4223 42.7347 53.4223C42.6368 53.4223 42.5527 53.388 42.4824 53.32C42.4141 53.2496 42.3801 53.1655 42.3801 53.0676C42.3801 52.9674 42.4141 52.8833 42.4824 52.8153C42.5527 52.747 42.6368 52.713 42.7347 52.713ZM47.8938 53.2146V53.3327H46.7756C46.6544 53.139 46.3987 52.7738 46.009 52.2369C45.6193 51.6982 45.3817 51.4001 45.2966 51.3425C45.2114 51.2828 45.0827 51.2522 44.91 51.2498V52.5437C44.91 52.8291 44.9464 53.01 45.0188 53.0869C45.0933 53.1634 45.2657 53.206 45.5362 53.2146V53.3327H43.6706V53.2146C43.937 53.206 44.1073 53.1645 44.1818 53.09C44.2584 53.0134 44.2968 52.8311 44.2968 52.5437V49.79C44.2968 49.5047 44.2594 49.3237 44.1849 49.2469C44.1104 49.1703 43.9391 49.1277 43.6706 49.1192V49.001H45.5362V49.1192C45.2657 49.1277 45.0933 49.1703 45.0188 49.2469C44.9464 49.3237 44.91 49.5047 44.91 49.79V50.9975C45.1424 50.9954 45.3031 50.9806 45.3924 50.9528C45.482 50.923 45.5819 50.857 45.6928 50.7547C45.8057 50.6524 45.894 50.5429 45.9578 50.4258C46.024 50.3064 46.1081 50.1117 46.2102 49.8411C46.3062 49.5878 46.3839 49.412 46.4436 49.3141C46.5054 49.2139 46.6032 49.1288 46.7375 49.0584C46.8714 48.986 47.0313 48.9499 47.2164 48.9499C47.5446 48.9499 47.7084 49.0649 47.7084 49.2949C47.7084 49.3759 47.6754 49.446 47.6095 49.5057C47.5456 49.5654 47.4722 49.5953 47.3891 49.5953C47.3294 49.5953 47.2294 49.561 47.0887 49.493C46.9651 49.4312 46.8789 49.4003 46.8301 49.4003C46.7619 49.4003 46.7032 49.4364 46.6544 49.5088C46.6053 49.5792 46.5277 49.7601 46.4212 50.052C46.2167 50.5971 45.9557 50.9432 45.6385 51.0902C45.8322 51.1242 46.1006 51.3895 46.4436 51.8856C46.8075 52.4116 47.0749 52.7631 47.2453 52.9399C47.4156 53.1165 47.6318 53.2081 47.8938 53.2146ZM48.7339 52.713C48.8341 52.713 48.9182 52.7481 48.9862 52.8184C49.0545 52.8864 49.0885 52.9695 49.0885 53.0676C49.0885 53.1655 49.0535 53.2496 48.9831 53.32C48.9148 53.388 48.8318 53.4223 48.7339 53.4223C48.636 53.4223 48.5519 53.388 48.4815 53.32C48.4135 53.2496 48.3793 53.1655 48.3793 53.0676C48.3793 52.9674 48.4135 52.8833 48.4815 52.8153C48.5519 52.747 48.636 52.713 48.7339 52.713ZM55.1261 48.9019L55.2251 50.3747H55.1261C54.994 49.9338 54.8055 49.6166 54.5607 49.4226C54.3156 49.229 54.0217 49.1319 53.679 49.1319C53.3914 49.1319 53.1318 49.2053 52.8994 49.3523C52.6673 49.4972 52.4843 49.7292 52.3501 50.0488C52.2179 50.3682 52.152 50.7654 52.152 51.2402C52.152 51.6322 52.2148 51.9718 52.3405 52.2595C52.4661 52.5469 52.6546 52.7673 52.9059 52.9207C53.1593 53.0739 53.448 53.1507 53.7717 53.1507C54.0526 53.1507 54.3008 53.091 54.516 52.9718C54.731 52.8503 54.9675 52.6107 55.2251 52.253L55.3242 52.3168C55.1069 52.7024 54.8535 52.9846 54.5638 53.1634C54.2743 53.3423 53.9304 53.4316 53.5321 53.4316C52.8143 53.4316 52.2584 53.1655 51.8646 52.633C51.5707 52.2369 51.4238 51.7706 51.4238 51.234C51.4238 50.8017 51.5206 50.4045 51.7143 50.0423C51.9082 49.6804 52.1743 49.4003 52.5131 49.2022C52.8537 49.0021 53.2252 48.9019 53.6279 48.9019C53.941 48.9019 54.2497 48.9787 54.5542 49.1319C54.6438 49.1789 54.7076 49.2022 54.7461 49.2022C54.8034 49.2022 54.8535 49.182 54.8961 49.1415C54.9514 49.0841 54.9909 49.0041 55.0143 48.9019H55.1261ZM56.2474 51.5087C56.2453 51.943 56.3507 52.2839 56.5636 52.531C56.7765 52.7779 57.0268 52.9015 57.3144 52.9015C57.506 52.9015 57.6722 52.8493 57.8126 52.7449C57.9554 52.6385 58.0746 52.4575 58.1704 52.2018L58.2696 52.2657C58.2247 52.5575 58.0948 52.8236 57.8796 53.0643C57.6647 53.3029 57.3952 53.4223 57.0714 53.4223C56.7202 53.4223 56.4188 53.286 56.1675 53.0134C55.9182 52.7385 55.7936 52.3701 55.7936 51.9079C55.7936 51.4074 55.9216 51.0177 56.1771 50.7389C56.4349 50.4577 56.7573 50.317 57.1449 50.317C57.4731 50.317 57.7423 50.4258 57.9531 50.6428C58.1642 50.8581 58.2696 51.1465 58.2696 51.5087H56.2474ZM56.2474 51.3233H57.6018C57.5912 51.1358 57.5689 51.004 57.5349 50.9274C57.4814 50.808 57.4017 50.7142 57.2952 50.6462C57.1909 50.5779 57.0811 50.5439 56.966 50.5439C56.7892 50.5439 56.6306 50.6132 56.4902 50.7516C56.3518 50.8879 56.2708 51.0785 56.2474 51.3233ZM58.4516 50.6974L59.3524 50.3331H59.4737V51.0167C59.625 50.7591 59.7761 50.579 59.9275 50.4769C60.0806 50.3726 60.2416 50.3204 60.4098 50.3204C60.7037 50.3204 60.9485 50.4354 61.1446 50.6654C61.3852 50.9463 61.5054 51.3126 61.5054 51.7641C61.5054 52.2691 61.3605 52.6863 61.0711 53.0165C60.8325 53.287 60.5321 53.4223 60.1702 53.4223C60.0126 53.4223 59.8763 53.3997 59.7613 53.355C59.6762 53.3231 59.5804 53.2592 59.4737 53.1634V54.0547C59.4737 54.2549 59.4856 54.3816 59.509 54.4348C59.5344 54.4901 59.577 54.534 59.6367 54.5659C59.6985 54.5978 59.8091 54.6137 59.969 54.6137V54.7318H58.4355V54.6137H58.5154C58.6325 54.6157 58.7327 54.5934 58.8158 54.5467C58.8563 54.5233 58.8872 54.4849 58.9085 54.4317C58.9318 54.3805 58.9435 54.2484 58.9435 54.0355V51.269C58.9435 51.0795 58.935 50.9593 58.9178 50.9082C58.901 50.857 58.8732 50.8186 58.835 50.7932C58.7987 50.7675 58.7486 50.7547 58.6847 50.7547C58.6335 50.7547 58.5686 50.7698 58.49 50.7994L58.4516 50.6974ZM59.4737 51.2052V52.2976C59.4737 52.5341 59.4833 52.6896 59.5025 52.7642C59.5323 52.8877 59.6048 52.9963 59.7198 53.09C59.8369 53.1837 59.9838 53.2304 60.1606 53.2304C60.3735 53.2304 60.5461 53.1473 60.678 52.9812C60.8507 52.7642 60.9369 52.4586 60.9369 52.0645C60.9369 51.6172 60.839 51.2734 60.643 51.0328C60.5067 50.8666 60.3449 50.7835 60.1575 50.7835C60.0552 50.7835 59.954 50.809 59.854 50.8601C59.7772 50.8986 59.6505 51.0136 59.4737 51.2052ZM63.3648 50.3204C63.8077 50.3204 64.1634 50.4886 64.4315 50.8251C64.6595 51.1125 64.7735 51.4427 64.7735 51.8153C64.7735 52.0772 64.7106 52.3425 64.585 52.6107C64.4593 52.8792 64.2856 53.0814 64.0642 53.2177C63.8448 53.354 63.6 53.4223 63.3295 53.4223C62.8886 53.4223 62.5384 53.2465 62.2785 52.895C62.0592 52.599 61.9496 52.2667 61.9496 51.8983C61.9496 51.6302 62.0156 51.3638 62.1474 51.0998C62.2817 50.8337 62.4574 50.6376 62.6747 50.512C62.8918 50.3843 63.1218 50.3204 63.3648 50.3204ZM63.2656 50.5278C63.1527 50.5278 63.0387 50.5621 62.924 50.6301C62.811 50.6963 62.7194 50.8134 62.649 50.9816C62.5789 51.1499 62.5436 51.3659 62.5436 51.6302C62.5436 52.0559 62.6277 52.4233 62.796 52.7322C62.9665 53.0409 63.1901 53.1954 63.4668 53.1954C63.6735 53.1954 63.8438 53.1102 63.978 52.9399C64.1122 52.7693 64.1792 52.4765 64.1792 52.0614C64.1792 51.5416 64.0676 51.1327 63.8438 50.8347C63.6927 50.6301 63.4998 50.5278 63.2656 50.5278ZM67.0607 51.7867C67.5952 51.8973 67.8626 52.1476 67.8626 52.5373C67.8626 52.8036 67.7507 53.0027 67.5272 53.1346C67.3055 53.2668 66.9958 53.3327 66.5975 53.3327H65.1535V53.2146C65.343 53.2146 65.4625 53.1793 65.5113 53.1092C65.5624 53.0368 65.5881 52.8823 65.5881 52.6458V51.0933C65.5881 50.8632 65.5764 50.7282 65.5528 50.6877C65.5315 50.6472 65.4965 50.6109 65.4474 50.579C65.4007 50.545 65.3025 50.5278 65.1535 50.5278V50.4066H66.5017C66.7616 50.4066 66.9714 50.4268 67.131 50.4673C67.2928 50.5078 67.4249 50.5875 67.5272 50.707C67.6316 50.8261 67.6837 50.971 67.6837 51.1413C67.6837 51.4736 67.476 51.6886 67.0607 51.7867ZM66.1183 51.7132C66.212 51.7153 66.2686 51.7163 66.2875 51.7163C66.5793 51.7163 66.7901 51.661 66.9202 51.5502C67.05 51.4373 67.1149 51.301 67.1149 51.1413C67.1149 50.9559 67.049 50.822 66.9168 50.7389C66.7849 50.6558 66.5741 50.6143 66.2844 50.6143H66.1183V51.7132ZM66.1183 53.0739C66.2247 53.1081 66.3514 53.125 66.4983 53.125C66.752 53.125 66.9405 53.0697 67.0638 52.9589C67.1874 52.8483 67.2491 52.7055 67.2491 52.531C67.2491 52.335 67.1692 52.185 67.0095 52.0806C66.8498 51.9762 66.6284 51.924 66.3452 51.924C66.2748 51.924 66.1993 51.9261 66.1183 51.9303V53.0739ZM69.9549 52.9111C69.6547 53.1432 69.4663 53.2774 69.3894 53.3135C69.2744 53.3667 69.1521 53.3935 69.0221 53.3935C68.8198 53.3935 68.6526 53.3241 68.5205 53.1858C68.3907 53.0474 68.3258 52.8651 68.3258 52.6395C68.3258 52.4968 68.3577 52.3732 68.4216 52.2691C68.5088 52.1242 68.6601 51.9879 68.8751 51.8602C69.0924 51.7322 69.4522 51.5769 69.9549 51.3936V51.2786C69.9549 50.9868 69.9081 50.7867 69.8144 50.6781C69.7228 50.5694 69.5885 50.5151 69.4117 50.5151C69.2778 50.5151 69.1711 50.5515 69.0924 50.6239C69.0114 50.6963 68.9709 50.7791 68.9709 50.8729L68.9774 51.0582C68.9774 51.1561 68.9517 51.2319 68.9008 51.2851C68.8517 51.3383 68.7868 51.3648 68.7058 51.3648C68.6269 51.3648 68.562 51.3373 68.5109 51.2818C68.4621 51.2265 68.4374 51.1509 68.4374 51.0551C68.4374 50.8718 68.5311 50.7036 68.7186 50.5504C68.906 50.397 69.169 50.3204 69.5075 50.3204C69.7674 50.3204 69.9806 50.364 70.1465 50.4512C70.2721 50.5172 70.3648 50.6205 70.4245 50.7612C70.4629 50.8526 70.4819 51.04 70.4819 51.3233V52.3168C70.4819 52.5959 70.4873 52.7673 70.498 52.8311C70.5086 52.8929 70.5257 52.9345 70.5491 52.9558C70.5746 52.977 70.6034 52.9877 70.6353 52.9877C70.6693 52.9877 70.6992 52.9802 70.7249 52.9654C70.7695 52.9376 70.8557 52.86 70.9834 52.7322V52.9111C70.7451 53.2304 70.5172 53.3901 70.2999 53.3901C70.1955 53.3901 70.1124 53.354 70.0507 53.2816C69.9889 53.2091 69.9569 53.0856 69.9549 52.9111ZM69.9549 52.7034V51.5886C69.6332 51.7163 69.4258 51.8067 69.332 51.8602C69.1638 51.9536 69.0433 52.0518 68.9709 52.1541C68.8985 52.2561 68.8624 52.368 68.8624 52.4895C68.8624 52.6427 68.9081 52.7704 68.9997 52.8727C69.0914 52.9729 69.1968 53.0227 69.3159 53.0227C69.4779 53.0227 69.6908 52.9163 69.9549 52.7034Z" fill="#766E6C"/>
<path d="M4.59777 46.0639L3.40214 43.4604V45.5277C3.40214 45.7178 3.42267 45.8364 3.46374 45.8837C3.52003 45.9475 3.609 45.9795 3.7307 45.9795H3.84024V46.0639H2.76323V45.9795H2.87275C3.00357 45.9795 3.09636 45.9398 3.15114 45.8608C3.1846 45.812 3.20132 45.7012 3.20132 45.5277V43.5059C3.20132 43.369 3.18611 43.2701 3.15568 43.2094C3.13439 43.1652 3.09485 43.1286 3.03704 43.0998C2.98075 43.0694 2.88949 43.0541 2.76323 43.0541V42.9698H3.63942L4.76205 45.3907L5.86646 42.9698H6.74266V43.0541H6.63541C6.50306 43.0541 6.40952 43.0939 6.35474 43.1728C6.32128 43.2216 6.30456 43.3324 6.30456 43.5059V45.5277C6.30456 45.7178 6.32585 45.8364 6.36842 45.8837C6.42471 45.9475 6.5137 45.9795 6.63541 45.9795H6.74266V46.0639H5.42836V45.9795H5.53786C5.67021 45.9795 5.763 45.9398 5.81625 45.8608C5.84971 45.812 5.86646 45.7012 5.86646 45.5277V43.4604L4.67308 46.0639H4.59777ZM8.61407 43.1385V44.3616H9.29403C9.47049 44.3616 9.58838 44.3351 9.6477 44.2819C9.72681 44.2118 9.77092 44.0887 9.78005 43.9122H9.86448V44.989H9.78005C9.75877 44.8385 9.73745 44.7419 9.71616 44.6993C9.68877 44.6461 9.64391 44.6043 9.58155 44.5739C9.51917 44.5435 9.42334 44.5282 9.29403 44.5282H8.61407V45.5483C8.61407 45.6851 8.62014 45.7687 8.63232 45.799C8.6445 45.8281 8.66578 45.8517 8.69621 45.8699C8.72664 45.8865 8.78443 45.8951 8.86964 45.8951H9.39442C9.56938 45.8951 9.69638 45.8829 9.77548 45.8585C9.85459 45.8341 9.93066 45.7863 10.0037 45.7147C10.098 45.6204 10.1946 45.4782 10.2934 45.2881H10.3847L10.1178 46.0639H7.7333V45.9795H7.84283C7.91583 45.9795 7.98505 45.9618 8.05047 45.927C8.09915 45.9026 8.13186 45.866 8.14858 45.8175C8.16683 45.7687 8.17597 45.669 8.17597 45.5184V43.5082C8.17597 43.3119 8.15619 43.1912 8.11665 43.1455C8.06187 43.0845 7.97061 43.0541 7.84283 43.0541H7.7333V42.9698H10.1178L10.152 43.6474H10.063C10.0311 43.4846 9.9953 43.3729 9.95576 43.3119C9.91773 43.2512 9.86066 43.2047 9.78462 43.1728C9.72377 43.1499 9.61652 43.1385 9.46288 43.1385H8.61407ZM13.9926 42.9698L14.0268 43.6954H13.9401C13.9234 43.5676 13.9005 43.4763 13.8716 43.4215C13.8245 43.3332 13.7614 43.2686 13.6823 43.2276C13.6047 43.185 13.502 43.1637 13.3742 43.1637H12.9384V45.5277C12.9384 45.7178 12.9589 45.8364 13 45.8837C13.0578 45.9475 13.1468 45.9795 13.267 45.9795H13.3742V46.0639H12.0622V45.9795H12.1717C12.3026 45.9795 12.3953 45.9398 12.4501 45.8608C12.4836 45.812 12.5003 45.7012 12.5003 45.5277V43.1637H12.1284C11.9839 43.1637 11.8812 43.1743 11.8203 43.1956C11.7412 43.2244 11.6735 43.28 11.6172 43.3623C11.561 43.4443 11.5275 43.5554 11.5169 43.6954H11.4301L11.4666 42.9698H13.9926ZM17.0779 45.028H15.88L15.6701 45.5163C15.6183 45.6365 15.5925 45.7261 15.5925 45.7855C15.5925 45.8325 15.6145 45.8746 15.6586 45.9109C15.7043 45.946 15.8016 45.9688 15.9507 45.9795V46.0639H14.9764V45.9795C15.1057 45.9566 15.1893 45.927 15.2274 45.8904C15.305 45.8175 15.3909 45.669 15.4852 45.4454L16.5736 42.8991H16.6535L17.7305 45.473C17.8172 45.6799 17.8956 45.8144 17.9655 45.8767C18.037 45.9377 18.1359 45.9719 18.2622 45.9795V46.0639H17.0414V45.9795C17.1646 45.9732 17.2475 45.9527 17.2901 45.9179C17.3342 45.8829 17.3563 45.8403 17.3563 45.79C17.3563 45.7232 17.3259 45.6173 17.265 45.473L17.0779 45.028ZM17.014 44.859L16.4892 43.6087L15.9507 44.859H17.014ZM21.311 43.1385H20.3526V44.0056C20.3526 44.8803 20.2773 45.4486 20.1267 45.7103C19.9761 45.9704 19.7685 46.1005 19.5038 46.1005C19.3912 46.1005 19.3045 46.0729 19.2437 46.0182C19.1828 45.9618 19.1524 45.8972 19.1524 45.8242C19.1524 45.7679 19.1722 45.7193 19.2117 45.6783C19.2513 45.637 19.2992 45.6165 19.3555 45.6165C19.4026 45.6165 19.4566 45.6394 19.5175 45.6851C19.5859 45.7352 19.6475 45.7604 19.7023 45.7604C19.8346 45.7604 19.9426 45.6508 20.0263 45.4317C20.11 45.2113 20.1518 44.7943 20.1518 44.1814V43.5334C20.1518 43.3296 20.1252 43.2003 20.072 43.1455C20.0187 43.0907 19.8963 43.0604 19.7046 43.0541V42.9698H22.194V43.0541C22.0023 43.0604 21.8799 43.0907 21.8267 43.1455C21.7734 43.2003 21.7468 43.3296 21.7468 43.5334V45.5002C21.7468 45.704 21.7734 45.8333 21.8267 45.8881C21.8799 45.9429 22.0023 45.9732 22.194 45.9795V46.0639H20.8637V45.9795C21.0554 45.9732 21.1779 45.9429 21.2311 45.8881C21.2843 45.8333 21.311 45.704 21.311 45.5002V43.1385ZM25.2771 43.1385H24.3187V44.0056C24.3187 44.8803 24.2434 45.4486 24.0928 45.7103C23.9422 45.9704 23.7346 46.1005 23.4699 46.1005C23.3573 46.1005 23.2706 46.0729 23.2098 46.0182C23.1489 45.9618 23.1185 45.8972 23.1185 45.8242C23.1185 45.7679 23.1383 45.7193 23.1778 45.6783C23.2174 45.637 23.2653 45.6165 23.3216 45.6165C23.3687 45.6165 23.4227 45.6394 23.4836 45.6851C23.552 45.7352 23.6136 45.7604 23.6684 45.7604C23.8007 45.7604 23.9087 45.6508 23.9924 45.4317C24.0761 45.2113 24.1179 44.7943 24.1179 44.1814V43.5334C24.1179 43.3296 24.0913 43.2003 24.0381 43.1455C23.9848 43.0907 23.8623 43.0604 23.6707 43.0541V42.9698H26.1601V43.0541C25.9684 43.0604 25.846 43.0907 25.7927 43.1455C25.7395 43.2003 25.7129 43.3296 25.7129 43.5334V45.5002C25.7129 45.704 25.7395 45.8333 25.7927 45.8881C25.846 45.9429 25.9684 45.9732 26.1601 45.9795V46.0639H24.8298V45.9795C25.0215 45.9732 25.144 45.9429 25.1972 45.8881C25.2504 45.8333 25.2771 45.704 25.2771 45.5002V43.1385ZM27.1027 42.9698H28.3577V43.0541C28.1373 43.0632 28.027 43.1227 28.027 43.2322C28.027 43.3099 28.1082 43.4908 28.271 43.7753L28.9465 44.9618L29.4393 43.7753C29.5429 43.5258 29.5945 43.3584 29.5945 43.2732C29.5945 43.1546 29.4987 43.0816 29.3071 43.0541V42.9698H30.2768V43.0541C30.0486 43.0816 29.8752 43.2366 29.7565 43.5196L29.1656 44.9252C29.0119 45.2858 28.8871 45.542 28.7913 45.6942C28.6955 45.8463 28.5906 45.9582 28.4764 46.0296C28.3639 46.0997 28.2469 46.1345 28.1251 46.1345C28.0202 46.1345 27.9312 46.1119 27.8582 46.0662C27.7866 46.0221 27.751 45.961 27.751 45.8837C27.751 45.8273 27.7699 45.7809 27.8079 45.7445C27.846 45.7064 27.8977 45.6874 27.9631 45.6874C28.027 45.6874 28.103 45.7131 28.1913 45.765C28.2505 45.797 28.2954 45.8128 28.3258 45.8128C28.446 45.8128 28.5807 45.6882 28.7297 45.4387L27.6072 43.4648C27.528 43.3265 27.4527 43.2283 27.3813 43.1704C27.3112 43.1128 27.2185 43.0739 27.1027 43.0541V42.9698ZM32.1047 44.6149V45.5163C32.1047 45.711 32.126 45.8318 32.1689 45.879C32.2265 45.946 32.314 45.9795 32.4311 45.9795H32.5497V46.0639H31.2241V45.9795H31.3404C31.4713 45.9795 31.5647 45.9369 31.6211 45.8517C31.6515 45.8045 31.6668 45.6926 31.6668 45.5163V43.5173C31.6668 43.3226 31.6463 43.2019 31.6052 43.1546C31.5458 43.0876 31.4575 43.0541 31.3404 43.0541H31.2241V42.9698H32.3581C32.6349 42.9698 32.8532 42.9986 33.0129 43.0565C33.1728 43.1128 33.3073 43.2086 33.4168 43.3439C33.5264 43.4794 33.5812 43.6398 33.5812 43.8254C33.5812 44.0781 33.4976 44.2834 33.3301 44.4415C33.1642 44.5996 32.9293 44.6788 32.625 44.6788C32.5505 44.6788 32.47 44.6736 32.3833 44.663C32.2966 44.6521 32.2037 44.6362 32.1047 44.6149ZM32.1047 44.4849C32.1855 44.5002 32.2569 44.5116 32.3194 44.5191C32.3818 44.5267 32.435 44.5306 32.4791 44.5306C32.6372 44.5306 32.7735 44.4696 32.8875 44.3481C33.003 44.2247 33.0609 44.0659 33.0609 43.8711C33.0609 43.7372 33.0336 43.6133 32.9789 43.4991C32.9241 43.3836 32.8465 43.2977 32.746 43.2413C32.6455 43.1834 32.5316 43.1546 32.4038 43.1546C32.3262 43.1546 32.2265 43.1691 32.1047 43.198V44.4849ZM37.1091 42.9698L37.1205 43.693H37.0315C37.0255 43.5471 36.9943 43.4298 36.938 43.3418C36.8817 43.2535 36.8126 43.198 36.7303 43.1751C36.6498 43.1507 36.5327 43.1385 36.3791 43.1385H35.5119V45.5002C35.5119 45.704 35.5379 45.8333 35.5896 45.8881C35.6428 45.9429 35.7645 45.9732 35.9546 45.9795V46.0639H34.6266V45.9795C34.8182 45.9732 34.9408 45.9429 34.994 45.8881C35.0472 45.8333 35.0737 45.704 35.0737 45.5002V43.5334C35.0737 43.3296 35.0472 43.2003 34.994 43.1455C34.9408 43.0907 34.8182 43.0604 34.6266 43.0541V42.9698H37.1091ZM40.4431 43.4809C40.4431 43.2953 40.4127 43.1782 40.352 43.1294C40.2925 43.0793 40.1718 43.0541 39.989 43.0541V42.9698H41.3286V43.0541C41.1368 43.0604 41.0145 43.0907 40.9613 43.1455C40.908 43.2003 40.8813 43.3296 40.8813 43.5334V45.5002C40.8813 45.704 40.908 45.8333 40.9613 45.8881C41.0145 45.9429 41.1368 45.9732 41.3286 45.9795V46.0639H39.989V45.9795C40.1853 45.9732 40.3102 45.9429 40.3634 45.8881C40.4166 45.8318 40.4431 45.7025 40.4431 45.5002V43.725L39.0079 45.5641C39.0095 45.6965 39.0178 45.7855 39.0331 45.8312C39.0497 45.8751 39.0871 45.9102 39.145 45.9361C39.2042 45.9618 39.3083 45.9764 39.4576 45.9795V46.0639H38.1226V45.9795C38.3142 45.9732 38.4368 45.9429 38.49 45.8881C38.5432 45.8333 38.5699 45.704 38.5699 45.5002V43.5334C38.5699 43.3296 38.5432 43.2003 38.49 43.1455C38.4368 43.0907 38.3142 43.0604 38.1226 43.0541V42.9698H39.4576V43.0541C39.2642 43.0604 39.1411 43.0907 39.0879 43.1455C39.0347 43.2003 39.0079 43.3296 39.0079 43.5334V45.3154L40.4431 43.4809ZM44.2771 44.4758V43.5448C44.2771 43.3698 44.2664 43.2579 44.2449 43.2094C44.2236 43.1593 44.1802 43.1211 44.1148 43.0951C44.0496 43.0694 43.9544 43.0557 43.8298 43.0541V42.9698H45.1624V43.0541C45.0344 43.0557 44.9386 43.0694 44.8747 43.0951C44.8108 43.1211 44.7683 43.1606 44.747 43.2138C44.7257 43.2657 44.715 43.3758 44.715 43.5448V45.4888C44.715 45.6669 44.7272 45.7809 44.7516 45.8312C44.7774 45.8813 44.8199 45.9179 44.8794 45.9405C44.9401 45.9618 45.0344 45.9748 45.1624 45.9795V46.0639H43.8298V45.9795C43.9635 45.9764 44.0603 45.9626 44.1195 45.9385C44.1789 45.9125 44.22 45.8751 44.2428 45.8266C44.2657 45.7778 44.2771 45.6653 44.2771 45.4888V44.6583C43.8936 44.8302 43.581 44.9161 43.3391 44.9161C43.1581 44.9161 43.0107 44.8803 42.8964 44.8089C42.784 44.7375 42.7132 44.6599 42.6843 44.5763C42.6568 44.4908 42.6433 44.3221 42.6433 44.0695V43.5448C42.6433 43.3729 42.6319 43.261 42.609 43.2094C42.5878 43.1577 42.5436 43.1196 42.4766 43.0951C42.4112 43.0694 42.3178 43.0557 42.196 43.0541V42.9698H43.533V43.0541C43.4037 43.0541 43.3048 43.0687 43.2365 43.0975C43.168 43.1266 43.1246 43.1699 43.1065 43.2276C43.0896 43.2839 43.0813 43.3896 43.0813 43.5448V43.9737C43.0813 44.1746 43.0927 44.3174 43.1156 44.4028C43.1384 44.4864 43.1846 44.5511 43.2547 44.5968C43.3248 44.6409 43.4136 44.663 43.5216 44.663C43.7498 44.663 44.0016 44.6004 44.2771 44.4758ZM47.0199 43.1385V44.3616H47.7001C47.8764 44.3616 47.9942 44.3351 48.0537 44.2819C48.1329 44.2118 48.1768 44.0887 48.1861 43.9122H48.2705V44.989H48.1861C48.1648 44.8385 48.1435 44.7419 48.122 44.6993C48.0947 44.6461 48.0498 44.6043 47.9875 44.5739C47.9252 44.5435 47.8294 44.5282 47.7001 44.5282H47.0199V45.5483C47.0199 45.6851 47.0261 45.7687 47.0383 45.799C47.0505 45.8281 47.0718 45.8517 47.1022 45.8699C47.1326 45.8865 47.1905 45.8951 47.2756 45.8951H47.8003C47.9753 45.8951 48.1022 45.8829 48.1814 45.8585C48.2606 45.8341 48.3367 45.7863 48.4096 45.7147C48.5039 45.6204 48.6004 45.4782 48.6994 45.2881H48.7907L48.5236 46.0639H46.1393V45.9795H46.2489C46.3218 45.9795 46.3911 45.9618 46.4563 45.927C46.5051 45.9026 46.5378 45.866 46.5544 45.8175C46.5729 45.7687 46.5819 45.669 46.5819 45.5184V43.5082C46.5819 43.3119 46.5622 43.1912 46.5225 43.1455C46.4677 43.0845 46.3766 43.0541 46.2489 43.0541H46.1393V42.9698H48.5236L48.5579 43.6474H48.4688C48.4369 43.4846 48.4013 43.3729 48.3616 43.3119C48.3237 43.2512 48.2666 43.2047 48.1905 43.1728C48.1298 43.1499 48.0225 43.1385 47.8689 43.1385H47.0199ZM52.5079 42.8991L52.5788 43.9508H52.5079C52.4137 43.6359 52.2792 43.4093 52.1042 43.2709C51.9292 43.1325 51.7192 43.0632 51.4744 43.0632C51.269 43.0632 51.0834 43.1159 50.9178 43.2208C50.7519 43.3241 50.621 43.49 50.5252 43.7182C50.431 43.9464 50.3837 44.2302 50.3837 44.5692C50.3837 44.8491 50.4287 45.0918 50.5182 45.2972C50.6081 45.5026 50.7428 45.6599 50.9222 45.7694C51.1031 45.879 51.3093 45.9338 51.5406 45.9338C51.7413 45.9338 51.9186 45.8912 52.0723 45.8061C52.226 45.7193 52.3947 45.5483 52.5788 45.2925L52.6494 45.3382C52.4944 45.6137 52.3132 45.8151 52.1066 45.9429C51.8996 46.0706 51.6538 46.1345 51.3695 46.1345C50.8568 46.1345 50.4598 45.9444 50.1784 45.5641C49.9684 45.2811 49.8635 44.948 49.8635 44.5648C49.8635 44.2559 49.9328 43.9721 50.0712 43.7136C50.2095 43.455 50.3996 43.2551 50.6415 43.1136C50.8851 42.9705 51.1504 42.8991 51.4378 42.8991C51.6616 42.8991 51.882 42.9539 52.0995 43.0632C52.1634 43.0967 52.2091 43.1136 52.2366 43.1136C52.2776 43.1136 52.3132 43.099 52.3438 43.0702C52.3833 43.0292 52.4113 42.9721 52.4282 42.8991H52.5079ZM56.7069 45.9795V46.0639H55.9084C55.8216 45.9255 55.6389 45.6646 55.3606 45.2811C55.0823 44.8964 54.9127 44.6835 54.8517 44.6422C54.791 44.5996 54.6988 44.5776 54.5758 44.5763V45.5002C54.5758 45.704 54.6015 45.8333 54.6534 45.8881C54.7066 45.9429 54.8297 45.9732 55.0228 45.9795V46.0639H53.6905V45.9795C53.8805 45.9732 54.0023 45.9436 54.0555 45.8904C54.1103 45.8356 54.1375 45.7056 54.1375 45.5002V43.5334C54.1375 43.3296 54.111 43.2003 54.0578 43.1455C54.0046 43.0907 53.8821 43.0604 53.6905 43.0541V42.9698H55.0228V43.0541C54.8297 43.0604 54.7066 43.0907 54.6534 43.1455C54.6015 43.2003 54.5758 43.3296 54.5758 43.5334V44.3958C54.7414 44.3943 54.8564 44.3836 54.9203 44.3639C54.9841 44.3426 55.0555 44.2954 55.1347 44.2224C55.2155 44.1494 55.2785 44.071 55.3242 43.9874C55.3712 43.9023 55.4314 43.7631 55.5044 43.57C55.5729 43.3888 55.6282 43.2634 55.6711 43.1933C55.7149 43.1219 55.785 43.0611 55.8808 43.0108C55.9766 42.9591 56.0909 42.9331 56.223 42.9331C56.4575 42.9331 56.5745 43.0154 56.5745 43.1798C56.5745 43.2374 56.5509 43.2878 56.5039 43.3304C56.4582 43.3729 56.4058 43.3942 56.3463 43.3942C56.3038 43.3942 56.2324 43.3698 56.1319 43.3213C56.0436 43.2771 55.9821 43.2551 55.947 43.2551C55.8982 43.2551 55.8564 43.2808 55.8217 43.3324C55.7866 43.3828 55.731 43.5121 55.655 43.7206C55.5088 44.11 55.3227 44.3571 55.096 44.462C55.2344 44.4864 55.426 44.6757 55.6711 45.0303C55.9309 45.406 56.122 45.657 56.2438 45.7832C56.3653 45.9094 56.5198 45.9748 56.7069 45.9795ZM59.9223 43.4809C59.9223 43.2953 59.8919 43.1782 59.8309 43.1294C59.7717 43.0793 59.6507 43.0541 59.4682 43.0541V42.9698H60.8076V43.0541C60.616 43.0604 60.4934 43.0907 60.4402 43.1455C60.387 43.2003 60.3602 43.3296 60.3602 43.5334V45.5002C60.3602 45.704 60.387 45.8333 60.4402 45.8881C60.4934 45.9429 60.616 45.9732 60.8076 45.9795V46.0639H59.4682V45.9795C59.6645 45.9732 59.7891 45.9429 59.8423 45.8881C59.8955 45.8318 59.9223 45.7025 59.9223 45.5002V43.725L58.4871 45.5641C58.4884 45.6965 58.497 45.7855 58.512 45.8312C58.5289 45.8751 58.566 45.9102 58.6239 45.9361C58.6831 45.9618 58.7875 45.9764 58.9365 45.9795V46.0639H57.6016V45.9795C57.7934 45.9732 57.9157 45.9429 57.9692 45.8881C58.0224 45.8333 58.0489 45.704 58.0489 45.5002V43.5334C58.0489 43.3296 58.0224 43.2003 57.9692 43.1455C57.9157 43.0907 57.7934 43.0604 57.6016 43.0541V42.9698H58.9365V43.0541C58.7434 43.0604 58.62 43.0907 58.5668 43.1455C58.5136 43.2003 58.4871 43.3296 58.4871 43.5334V45.3154L59.9223 43.4809ZM64.08 41.9453C64.1273 41.9453 64.1675 41.9658 64.201 42.0068C64.236 42.0463 64.2534 42.0936 64.2534 42.1483C64.2534 42.2836 64.1833 42.4002 64.0434 42.4975C63.9035 42.5949 63.6815 42.6434 63.3772 42.6434C63.0714 42.6434 62.8487 42.5949 62.7087 42.4975C62.5704 42.4002 62.501 42.2836 62.501 42.1483C62.501 42.0951 62.5177 42.0479 62.5511 42.0068C62.5846 41.9658 62.6264 41.9453 62.6768 41.9453C62.7269 41.9453 62.7695 41.965 62.8045 42.0045C62.8411 42.0427 62.892 42.1278 62.9574 42.2602C63.0486 42.4487 63.1885 42.5429 63.3772 42.5429C63.5644 42.5429 63.7044 42.4487 63.797 42.2602C63.8609 42.1263 63.9105 42.0403 63.9453 42.0022C63.9803 41.9643 64.0252 41.9453 64.08 41.9453ZM64.0938 43.4809C64.0938 43.2953 64.0634 43.1782 64.0024 43.1294C63.9432 43.0793 63.8222 43.0541 63.6397 43.0541V42.9698H64.9791V43.0541C64.7875 43.0604 64.6649 43.0907 64.6117 43.1455C64.5585 43.2003 64.5317 43.3296 64.5317 43.5334V45.5002C64.5317 45.704 64.5585 45.8333 64.6117 45.8881C64.6649 45.9429 64.7875 45.9732 64.9791 45.9795V46.0639H63.6397V45.9795C63.836 45.9732 63.9606 45.9429 64.0138 45.8881C64.067 45.8318 64.0938 45.7025 64.0938 45.5002V43.725L62.6584 45.5641C62.6599 45.6965 62.6685 45.7855 62.6835 45.8312C62.7004 45.8751 62.7375 45.9102 62.7954 45.9361C62.8546 45.9618 62.959 45.9764 63.108 45.9795V46.0639H61.7731V45.9795C61.9649 45.9732 62.0872 45.9429 62.1404 45.8881C62.1936 45.8333 62.2204 45.704 62.2204 45.5002V43.5334C62.2204 43.3296 62.1936 43.2003 62.1404 43.1455C62.0872 43.0907 61.9649 43.0604 61.7731 43.0541V42.9698H63.108V43.0541C62.9149 43.0604 62.7915 43.0907 62.7383 43.1455C62.6851 43.2003 62.6584 43.3296 62.6584 43.5334V45.3154L64.0938 43.4809ZM68.0555 43.8026V42.9036H68.1355C68.1599 43.004 68.2162 43.0541 68.3042 43.0541C68.3377 43.0541 68.4094 43.0336 68.5189 42.9926C68.6908 42.9303 68.871 42.8991 69.0597 42.8991C69.3152 42.8991 69.5205 42.9757 69.6758 43.1294C69.8308 43.2831 69.9084 43.4625 69.9084 43.6679C69.9084 43.855 69.85 44.0155 69.7326 44.1494C69.6155 44.2819 69.4605 44.3792 69.2671 44.4415C69.4772 44.4794 69.6467 44.5755 69.776 44.7289C69.9053 44.881 69.9699 45.0607 69.9699 45.2676C69.9699 45.5231 69.8713 45.7315 69.6734 45.8928C69.4756 46.054 69.23 46.1345 68.9364 46.1345C68.4997 46.1345 68.1614 45.9278 67.921 45.514L67.9986 45.4636C68.076 45.5901 68.1887 45.6988 68.3362 45.79C68.4839 45.8813 68.6428 45.927 68.8131 45.927C69.0156 45.927 69.1721 45.8601 69.2832 45.7261C69.3959 45.5908 69.452 45.4257 69.452 45.231C69.452 45.0303 69.3814 44.8605 69.2399 44.7222C69.0984 44.5838 68.8642 44.5145 68.5371 44.5145V44.3639C68.7684 44.3639 68.9424 44.3395 69.0597 44.2909C69.1768 44.2421 69.2718 44.1632 69.3447 44.0536C69.4177 43.9441 69.4543 43.8171 69.4543 43.6725C69.4543 43.5053 69.4034 43.3683 69.3014 43.2618C69.1996 43.1554 69.061 43.1022 68.8863 43.1022C68.6687 43.1022 68.4982 43.1668 68.3751 43.2961C68.2533 43.4238 68.1734 43.5926 68.1355 43.8026H68.0555ZM73.0965 45.028H71.8986L71.6886 45.5163C71.6369 45.6365 71.6109 45.7261 71.6109 45.7855C71.6109 45.8325 71.633 45.8746 71.6771 45.9109C71.7228 45.946 71.8202 45.9688 71.9692 45.9795V46.0639H70.9949V45.9795C71.1242 45.9566 71.2078 45.927 71.2459 45.8904C71.3235 45.8175 71.4095 45.669 71.5037 45.4454L72.592 42.8991H72.672L73.7489 45.473C73.8356 45.6799 73.914 45.8144 73.9841 45.8767C74.0555 45.9377 74.1544 45.9719 74.2806 45.9795V46.0639H73.0599V45.9795C73.1832 45.9732 73.266 45.9527 73.3086 45.9179C73.3527 45.8829 73.3748 45.8403 73.3748 45.79C73.3748 45.7232 73.3444 45.6173 73.2836 45.473L73.0965 45.028ZM73.0326 44.859L72.5077 43.6087L71.9692 44.859H73.0326ZM77.2885 44.4849C77.5029 44.5306 77.6634 44.6035 77.7698 44.704C77.9175 44.8439 77.9912 45.015 77.9912 45.2172C77.9912 45.3709 77.9424 45.5184 77.8451 45.6599C77.7477 45.7998 77.614 45.9026 77.4435 45.9681C77.2747 46.0319 77.0161 46.0639 76.6677 46.0639H75.2074V45.9795H75.3237C75.453 45.9795 75.5459 45.9385 75.6023 45.8562C75.6371 45.8029 75.6547 45.6897 75.6547 45.5163V43.5173C75.6547 43.3257 75.6326 43.2047 75.5885 43.1546C75.5291 43.0876 75.441 43.0541 75.3237 43.0541H75.2074V42.9698H76.5444C76.7939 42.9698 76.9941 42.9879 77.1446 43.0245C77.3728 43.0793 77.547 43.1767 77.6672 43.3166C77.7874 43.455 77.8474 43.6146 77.8474 43.7959C77.8474 43.9508 77.8002 44.09 77.7059 44.2133C77.6117 44.3351 77.4725 44.4254 77.2885 44.4849ZM76.0927 44.3616C76.149 44.3722 76.2129 44.3808 76.2845 44.3867C76.3575 44.3914 76.4372 44.3935 76.5239 44.3935C76.7461 44.3935 76.9125 44.3701 77.0237 44.3229C77.1363 44.2741 77.2223 44.2003 77.2815 44.1014C77.3409 44.0028 77.3705 43.8948 77.3705 43.7774C77.3705 43.5965 77.2968 43.442 77.1493 43.3143C77.0016 43.1865 76.7864 43.1227 76.5034 43.1227C76.3513 43.1227 76.2144 43.1393 76.0927 43.1728V44.3616ZM76.0927 45.8403C76.2692 45.8813 76.4434 45.9019 76.6153 45.9019C76.8907 45.9019 77.1005 45.8403 77.2451 45.717C77.3895 45.5924 77.4619 45.4387 77.4619 45.2562C77.4619 45.136 77.4292 45.0202 77.3638 44.9093C77.2983 44.7982 77.1919 44.7107 77.0442 44.6469C76.8967 44.583 76.7142 44.5511 76.4966 44.5511C76.4024 44.5511 76.3217 44.5526 76.2547 44.5555C76.1877 44.5586 76.1337 44.5641 76.0927 44.5716V45.8403ZM80.7502 42.8991C81.1518 42.8991 81.4994 43.0518 81.7931 43.3576C82.088 43.6619 82.2357 44.0422 82.2357 44.4986C82.2357 44.9685 82.0875 45.3587 81.7907 45.669C81.494 45.9795 81.1352 46.1345 80.7138 46.1345C80.2878 46.1345 79.9295 45.9831 79.639 45.6804C79.3501 45.3777 79.2055 44.9862 79.2055 44.5054C79.2055 44.0139 79.3729 43.6133 79.7076 43.3028C79.9981 43.0336 80.3457 42.8991 80.7502 42.8991ZM80.7068 43.0656C80.4301 43.0656 80.2078 43.1684 80.0406 43.3737C79.8322 43.6292 79.7281 44.0033 79.7281 44.4963C79.7281 45.0012 79.8361 45.3899 80.0521 45.6622C80.2177 45.8691 80.4368 45.9725 80.7092 45.9725C80.9997 45.9725 81.2393 45.8593 81.428 45.6326C81.6181 45.406 81.7131 45.0485 81.7131 44.5602C81.7131 44.0308 81.609 43.6359 81.4005 43.3758C81.2333 43.1691 81.002 43.0656 80.7068 43.0656ZM83.7625 42.9698H86.3158V43.0541C86.1242 43.0604 86.0017 43.0907 85.9485 43.1455C85.8952 43.2003 85.8685 43.3296 85.8685 43.5334V45.2471C85.8685 45.5786 85.8877 45.784 85.9256 45.8632C85.9638 45.9405 86.0868 45.9795 86.2953 45.9795V46.9538H86.2177C86.172 46.7287 86.0983 46.5467 85.9965 46.4084C85.896 46.2715 85.7813 46.1794 85.6517 46.1324C85.524 46.0867 85.3706 46.0639 85.1909 46.0639H84.4014C84.0561 46.0639 83.802 46.1573 83.6394 46.3445C83.478 46.5317 83.3814 46.7347 83.3494 46.9538H83.2718V45.9795C83.5169 45.9582 83.716 45.8112 83.8697 45.5392C84.0234 45.2668 84.1299 44.933 84.1893 44.5373C84.2485 44.1404 84.2781 43.8148 84.2781 43.5606C84.2781 43.4085 84.2591 43.2969 84.2212 43.2252C84.1831 43.1538 84.1374 43.1089 84.0842 43.0907C84.0325 43.0726 83.9253 43.0604 83.7625 43.0541V42.9698ZM84.5063 43.1385C84.4684 44.0407 84.3962 44.6736 84.2895 45.0371C84.1831 45.4005 84.04 45.6866 83.8606 45.8951H85.0061C85.2099 45.8951 85.3316 45.8774 85.3711 45.8424C85.4124 45.8061 85.4329 45.6897 85.4329 45.4935V43.1385H84.5063Z" fill="#766E6C"/>
<path d="M63.3058 30.6167H12.6808V6.08301L0.47892 11.1455V35.6792H51.6232L63.3058 30.6167Z" fill="#766E6C"/>
<path d="M51.2337 20.4916V12.7031L39.2914 18.2849L25.6616 12.7031V25.2945H63.3058V30.6166L76.9357 24.905V20.4916H63.3058H51.2337Z" fill="#766E6C"/>
<path d="M51.2337 6.08301L39.2914 1.02051H25.6616L12.6808 6.08301H25.6616L39.2914 11.1455L51.2337 6.08301Z" fill="#766E6C"/>
<path d="M63.3058 20.4915L76.9356 13.0924V1.53955H63.3058L51.2337 6.08282H63.3058V20.4915Z" fill="#766E6C"/>
</g>
<defs>
<clipPath id="clip0_143_1430">
<rect width="86.1923" height="54" fill="white" transform="translate(0.349136 0.890625)"/>
</clipPath>
</defs>
</svg>
