<svg width="43" height="46" viewBox="0 0 43 46" fill="none" xmlns="http://www.w3.org/2000/svg">
<path fill-rule="evenodd" clip-rule="evenodd" d="M15.5512 0.521857C15.5512 0.72692 16.2509 1.8071 17.1613 3.00748C18.6451 4.96355 22.135 9.61386 24.4735 12.7507C28.377 17.9871 29.1313 19.0179 29.0901 19.0596C29.0662 19.0837 28.5578 19.2051 27.9601 19.3294C25.715 19.7964 24.1237 20.9805 23.1804 22.8862C22.9273 23.3974 22.7201 23.8889 22.7201 23.9783C22.7201 24.3805 22.2846 23.904 20.5095 21.5598C19.4645 20.1799 18.376 18.7749 18.0904 18.4376C17.8049 18.1003 17.0516 17.1218 16.4163 16.2632C15.781 15.4046 14.697 13.9494 14.0073 13.0295C11.0156 9.03904 10.647 8.53815 10.2852 7.97113C9.85679 7.29985 9.48511 6.12389 9.48511 5.43968C9.48511 4.46879 9.9094 3.46923 10.7271 2.51405C11.1343 2.03836 11.1501 1.99499 10.9648 1.85805C10.5766 1.57103 9.38353 1.75424 9.06986 2.14909C8.75453 2.54617 8.03896 4.22001 7.44559 5.94872C7.09828 6.96065 6.62722 8.26529 6.39892 8.84792C6.17051 9.43055 5.73364 10.6599 5.42791 11.5799C5.12218 12.4998 4.65101 13.8295 4.38091 14.5348C4.11069 15.2401 3.8118 16.043 3.71662 16.3189C3.42401 17.1671 2.31029 20.2545 2.14794 20.6677C2.06356 20.8824 1.64247 22.0616 1.21222 23.2882C0.78197 24.5148 0.333193 25.7863 0.21496 26.1137C0.0870209 26.4681 0 26.993 0 27.4109C0 28.0112 0.0662858 28.2468 0.457381 29.0367C1.07435 30.2831 2.20771 31.4602 3.11994 31.8022L3.7582 32.0415H16.0381C26.6387 32.0415 28.3362 32.0193 28.4509 31.8796C28.6631 31.621 28.4833 31.2988 27.9509 30.9833C27.4027 30.6585 26.5377 29.8042 26.0781 29.1337C25.2758 27.9631 25.8074 25.2167 27.0632 24.0441C27.7261 23.4251 27.9829 23.2844 28.957 23.0064C29.7457 22.7813 29.9005 22.7697 30.4957 22.8903C31.9571 23.1867 33.066 23.9889 33.6357 25.1618C34.123 26.1651 34.2674 26.975 34.1026 27.7814C33.8537 28.9999 33.981 29.5531 34.4885 29.4582C34.8215 29.3959 34.9782 29.0094 36.7867 23.79C36.9885 23.2073 37.7043 21.15 38.3772 19.2181C39.0501 17.2863 40.1976 13.8741 40.9273 11.6356C41.6568 9.39709 42.4087 7.13906 42.5981 6.61776C42.8222 6.0009 42.9576 5.39586 42.9861 4.88493C43.026 4.16638 42.9982 4.03892 42.6578 3.3788C42.0927 2.28256 41.5103 1.56156 40.7104 0.967665L39.9849 0.429083L27.768 0.399756C17.5364 0.375224 15.5512 0.395073 15.5512 0.521857ZM22.8645 4.23551C22.7828 4.45083 22.6996 4.3236 24.1539 6.20764C24.7909 7.0328 25.8331 8.3952 26.4701 9.23518C27.107 10.0752 28.188 11.4982 28.8723 12.3977C29.5566 13.2971 30.6963 14.8108 31.405 15.7614C33.2239 18.2012 33.963 19.1066 34.1359 19.1066C34.3831 19.1066 34.6972 18.5519 35.0513 17.4898C35.2355 16.9378 35.6434 15.7586 35.9579 14.8693C36.2724 13.9801 36.7406 12.6503 36.9983 11.9144C37.2561 11.1784 37.6281 10.1247 37.825 9.57272C38.4915 7.70452 39.151 5.56 39.1523 5.25703C39.1542 4.81635 38.9566 4.44972 38.6033 4.23874C38.3213 4.07037 37.5799 4.05308 30.6131 4.05308C23.6052 4.05308 22.9277 4.06903 22.8645 4.23551ZM8.68726 13.6383C8.47483 13.8892 8.22403 14.3566 8.12984 14.6771C8.03565 14.9975 7.11096 17.7918 6.07488 20.8869C4.83332 24.5956 4.19109 26.6719 4.19109 26.9768C4.19109 27.556 4.47521 27.9405 5.03792 28.1228C5.58353 28.2994 20.64 28.2591 20.6988 28.0808C20.7194 28.0182 20.4507 27.6098 20.1015 27.1731C19.1786 26.0189 16.7553 22.9377 16.4335 22.5092C15.87 21.759 9.32077 13.4426 9.15986 13.273C9.11243 13.223 8.89968 13.3874 8.68726 13.6383ZM31.1575 35.2327C29.3607 35.5474 28.4676 35.812 28.3041 36.0782C28.2104 36.2308 28.3128 36.4542 28.8279 37.221C29.1801 37.7452 29.5097 38.1999 29.5603 38.2315C29.6111 38.2632 29.8919 38.1942 30.1844 38.0782C31.5182 37.5496 33.0263 37.5457 33.446 38.0698C33.6919 38.3766 33.6886 38.429 33.4073 38.6864C33.2139 38.8635 32.9641 38.9047 31.8908 38.9372C31.1842 38.9585 30.5625 39.0178 30.5091 39.069C30.3745 39.1983 30.4261 41.3302 30.566 41.4177C30.6284 41.4567 31.018 41.464 31.4317 41.4342C32.3362 41.3687 33.3217 41.4793 33.5879 41.676C33.7266 41.7786 33.7616 41.9014 33.7105 42.107C33.5457 42.7705 31.796 42.8246 30.5625 42.2042C30.1744 42.0091 29.7774 41.8794 29.6801 41.9161C29.4578 41.9998 28.0142 43.7233 28.0142 43.9048C28.0142 44.1187 29.7563 44.9326 30.6478 45.1352C33.265 45.73 36.6742 45.2461 37.9584 44.0974C38.5256 43.5901 38.9331 42.8564 38.9331 42.3427C38.9331 41.5825 38.183 40.5495 37.4993 40.3681C37.0105 40.2386 36.8864 40.112 37.0512 39.9113C37.1305 39.8146 37.2443 39.7356 37.3039 39.7356C37.5247 39.7356 38.2509 39.0565 38.4236 38.6884C38.6609 38.183 38.6497 37.4253 38.3983 36.9461C38.1358 36.4461 37.2265 35.8005 36.3604 35.4991C35.8094 35.3074 33.2545 34.9139 32.8119 34.9525C32.7512 34.9579 32.0067 35.0839 31.1575 35.2327ZM4.13132 35.4146C4.1022 35.4914 4.09128 37.6866 4.10716 40.2931L4.13595 45.0322H6.67266H9.20938L9.23386 43.5268C9.24732 42.6989 9.25978 41.9797 9.26144 41.9286C9.26916 41.6948 9.56022 42.0185 10.6486 43.4711L11.8182 45.0322L12.4439 45.0879C12.788 45.1186 14.0498 45.1291 15.2479 45.1114C17.0283 45.0849 17.4261 45.0504 17.4261 44.9226C17.4261 44.8365 17.1598 44.4748 16.8342 44.1186C15.0386 42.1543 13.2351 39.9919 13.2608 39.8341C13.2769 39.7351 14.1339 38.7666 15.1651 37.6819C16.1964 36.5973 17.0401 35.6246 17.0401 35.5205C17.0401 35.3492 16.8175 35.328 14.724 35.2995C13.4501 35.2821 12.302 35.2941 12.1727 35.3262C12.0433 35.3582 11.5663 35.8491 11.1127 36.4171C9.96532 37.8536 9.40901 38.4653 9.32518 38.3826C9.2857 38.3437 9.25482 37.6952 9.25636 36.9413C9.25813 36.1049 9.21203 35.513 9.13813 35.4229C8.96718 35.2147 4.21017 35.2068 4.13132 35.4146ZM17.5471 35.4295C17.4616 35.5336 17.4291 36.0091 17.45 36.8523L17.4813 38.1187L18.6393 38.1491C19.5679 38.1736 19.8248 38.2165 19.9353 38.3656C20.0383 38.5045 20.0731 39.3778 20.0731 41.815V45.0782L22.086 45.1109C23.1931 45.129 24.3221 45.1186 24.5951 45.0879L25.0914 45.0322L25.1207 41.6925C25.1426 39.1912 25.1841 38.3308 25.2861 38.2653C25.361 38.2173 25.9325 38.1771 26.5561 38.1761L27.6899 38.1745L27.659 36.7527L27.6281 35.331L22.6519 35.302C18.4901 35.2777 17.6545 35.2986 17.5471 35.4295Z" fill="#766E6C"/>
</svg>
