<svg width="75" height="41" viewBox="0 0 75 41" fill="none" xmlns="http://www.w3.org/2000/svg">
<path fill-rule="evenodd" clip-rule="evenodd" d="M35.061 0.920732C26.0498 1.1075 17.758 2.80858 11.7124 5.71067C8.84808 7.08559 6.69312 8.55864 4.75421 10.4671C2.32531 12.8579 0.892357 15.4541 0.32763 18.4873C0.137014 19.5111 0.134326 22.3286 0.323053 23.2818C0.905941 26.2254 2.20349 28.6599 4.40239 30.9355C9.55547 36.2682 18.5682 39.6254 30.4482 40.6375C34.6897 40.9989 40.4899 40.9711 44.9042 40.5682C59.1278 39.2701 69.4624 34.2511 73.0195 26.9139C73.5541 25.8111 73.897 24.8194 74.1535 23.6338C74.3428 22.7592 74.3556 22.589 74.3582 20.9209C74.3606 19.3281 74.3429 19.0534 74.1894 18.3057C73.9478 17.1289 73.5786 16.0147 73.0943 15.0005C72.2243 13.1787 71.3098 11.9204 69.7197 10.357C64.9155 5.6336 56.6518 2.47675 46.1391 1.34889C43.9686 1.11607 42.6792 1.03071 40.0246 0.944342C38.0305 0.879399 37.2359 0.875621 35.061 0.920732ZM34.5888 2.80611C34.1294 2.81839 33.165 2.86285 32.4459 2.90491C22.6715 3.47639 14.7619 5.65009 9.32316 9.25943C7.25545 10.6317 5.52183 12.3129 4.32365 14.1078C3.4698 15.387 2.74148 17.1838 2.43072 18.7779C2.24969 19.7067 2.24875 22.0779 2.42912 22.9912C2.73553 24.5429 3.34508 26.0769 4.18992 27.4227C5.22493 29.0713 6.82933 30.7055 8.81684 32.1355C11.3179 33.935 14.2247 35.276 18.6074 36.6522C21.5032 37.5616 26.0945 38.3735 30.4845 38.7527C35.241 39.1634 41.5832 39.0765 46.357 38.5351C52.1451 37.8786 57.3014 36.5381 61.4809 34.6029C68.4829 31.361 72.2982 26.5062 72.2893 20.8501C72.2806 15.3792 68.7263 10.7102 62.0842 7.44451C56.9896 4.93971 50.4001 3.43128 42.2527 2.90476C41.0767 2.82878 36.1254 2.76499 34.5888 2.80611ZM34.044 4.54686C33.8443 4.56131 33.0434 4.60875 32.2643 4.65219C23.189 5.15851 15.3602 7.34943 10.4251 10.7638C7.06215 13.0905 5.05764 15.926 4.50293 19.1411C4.2959 20.3409 4.3437 22.1093 4.61422 23.2628C6.18622 29.9644 14.3716 34.8932 26.7797 36.6096C30.3931 37.1094 33.3191 37.2964 37.4219 37.2896C40.2036 37.285 42.2435 37.1953 44.6499 36.9719C52.5033 36.2426 59.2162 34.2596 63.6235 31.3672C64.9315 30.5088 65.5289 30.0221 66.6286 28.9188C67.7521 27.7918 68.3698 26.9676 68.9753 25.788C69.8159 24.1502 70.0992 23.073 70.1616 21.2763C70.2078 19.9452 70.1102 19.1103 69.7721 17.9433C68.0843 12.1177 61.1909 7.67966 50.7156 5.67442C48.2994 5.2119 45.8988 4.90455 42.9428 4.67936C41.5619 4.5741 35.0147 4.47668 34.044 4.54686ZM34.0803 4.94596C23.2017 5.38218 14.677 7.81601 9.48327 11.9684C8.72865 12.5717 7.52234 13.7855 7.00854 14.4585C4.78639 17.3692 4.16848 20.8874 5.29946 24.1898C6.99423 29.1386 12.6794 33.0454 21.2589 35.1568C24.5037 35.9554 27.7371 36.4366 32.01 36.7566C33.6876 36.8823 38.5112 36.9284 40.6909 36.8396C51.3479 36.4056 59.8945 33.9565 65.0219 29.8676C67.5991 27.8123 69.2259 25.242 69.6925 22.4883C69.8218 21.7249 69.7978 19.8519 69.6487 19.0852C69.3644 17.6224 68.7022 16.0915 67.8033 14.8189C67.1772 13.9326 65.5773 12.3272 64.578 11.5827C61.2262 9.0853 56.6027 7.23676 50.8972 6.11297C45.8553 5.11986 39.9543 4.71038 34.0803 4.94596ZM10.6893 20.594V26.8801L12.5598 26.8607L14.4304 26.8413L14.4495 24.3533L14.4686 21.8652L16.2656 21.8663C17.2539 21.8668 18.1361 21.887 18.226 21.911L18.3895 21.9548V24.4163V26.8776H20.2418H22.0942V20.594V14.3104H20.2418H18.3895V16.5986V18.8869H16.4291H14.4688L14.4496 16.6168L14.4304 14.3467L12.5598 14.3273L10.6893 14.3079V20.594ZM25.8343 14.4012C25.8163 14.4512 25.7914 16.2899 25.7792 18.4873C25.7558 22.6873 25.7505 22.7572 25.4169 23.2474C25.0932 23.7229 24.927 23.7905 24.0863 23.7882L23.3292 23.7861V25.3274V26.8687L23.6742 26.9277C23.864 26.9601 24.4279 26.9849 24.9273 26.983C25.6429 26.98 25.9583 26.9444 26.4155 26.815C27.9454 26.3818 28.8492 25.3687 29.2293 23.661C29.3601 23.0734 29.3838 22.6435 29.423 20.1581L29.4675 17.3251H30.6298H31.7921L31.8108 22.1013L31.8294 26.8776H33.6087H35.3879V20.594V14.3104H30.6275C26.8851 14.3104 25.8601 14.3298 25.8343 14.4012ZM38.4819 14.5101C38.4436 14.6963 38.184 16.5673 37.8544 19.0322C37.7769 19.6115 37.6485 20.5431 37.569 21.1025C37.4894 21.6618 37.3242 22.8387 37.2017 23.7176C37.0793 24.5966 36.9317 25.6518 36.8736 26.0626C36.8156 26.4733 36.7681 26.8247 36.7681 26.8435C36.7681 26.8623 37.552 26.8776 38.5102 26.8776H40.2522L40.2875 26.7142C40.3068 26.6243 40.3725 26.1258 40.4335 25.6064C40.4944 25.087 40.6428 23.9101 40.7634 22.9912C40.8838 22.0723 41.0029 21.1406 41.0279 20.9209C41.053 20.7011 41.0945 20.4814 41.12 20.4325C41.1556 20.3647 42.5359 24.8497 43.0198 26.6052L43.0949 26.8776H44.3502H45.6055L45.9539 25.6972C46.1456 25.048 46.4091 24.1571 46.5396 23.7176C46.67 23.2782 46.9491 22.3382 47.1597 21.6287C47.3703 20.9193 47.554 20.3502 47.5678 20.364C47.5981 20.3943 47.7882 21.784 48.1357 24.5167C48.2779 25.6354 48.4106 26.6243 48.4304 26.7142L48.4664 26.8776H50.2165H51.9667L51.9245 26.6415C51.8815 26.4009 50.8019 18.6685 50.4615 16.1628C50.3584 15.4036 50.2553 14.6763 50.2325 14.5465L50.1909 14.3104H48.3182H46.4454L46.3992 14.5101C46.3737 14.62 46.2717 14.9878 46.1724 15.3274C45.9312 16.153 44.5749 20.9464 44.4695 21.3459C44.4236 21.5198 44.3706 21.6465 44.3517 21.6276C44.3328 21.6086 44.0081 20.502 43.6302 19.1685C43.2523 17.835 42.7879 16.1963 42.5981 15.5271L42.2531 14.3104H40.3881H38.5231L38.4819 14.5101ZM53.2915 14.4012C53.2725 14.4512 53.2654 17.2706 53.2757 20.6666L53.2944 26.8413L55.164 26.8607L57.0337 26.8801L57.0528 24.3731L57.0719 21.8662L57.5155 22.5376C57.7594 22.9069 58.5019 24.0345 59.1654 25.0434L60.3718 26.8776H62.5901C63.8102 26.8776 64.8084 26.8524 64.8084 26.8215C64.8084 26.7907 64.7164 26.6518 64.604 26.5128C64.4916 26.3738 64.1872 25.9823 63.9275 25.6427C63.2751 24.7895 61.4947 22.4552 60.6912 21.3995C60.3136 20.9035 60.0489 20.4916 60.0807 20.4498C60.5048 19.8946 61.0372 19.1937 61.9029 18.0515C62.4783 17.2924 63.3211 16.1846 63.7758 15.5898C64.2306 14.995 64.6197 14.4638 64.6406 14.4094C64.6721 14.3272 64.3319 14.3104 62.6458 14.3104H60.6131L59.5717 15.7814C58.9989 16.5905 58.2022 17.7205 57.8011 18.2927L57.0719 19.3331L57.0528 16.8217L57.0337 14.3104H55.18C53.7639 14.3104 53.318 14.3318 53.2915 14.4012Z" fill="#766E6C"/>
</svg>
