<svg width="73" height="62" viewBox="0 0 73 62" fill="none" xmlns="http://www.w3.org/2000/svg">
<path fill-rule="evenodd" clip-rule="evenodd" d="M33.5298 1.6677C20.9716 5.0763 12.8049 16.3323 13.5289 29.2337L13.75 33.1665L6.87501 33.2171L0 33.2677L5.43709 33.8332C14.4686 34.7719 14.1029 34.6253 15.4647 37.8553C18.4597 44.9569 24.594 50.6121 32.1004 53.1912C34.2322 53.9238 36.0273 54.1682 39.9525 54.2609L45.0409 54.3808L45.8134 55.7847C46.2382 56.5569 47.0464 58.241 47.6094 59.5271L48.6332 61.8655L48.6574 57.5768L48.6821 53.2886L52.4023 51.4565C58.6472 48.3808 63.7544 42.4714 65.9126 35.8238L66.637 33.5917H69.5393C71.2744 33.5917 72.5635 33.3944 72.7446 33.1006C72.9317 32.7983 72.8615 32.7252 72.5618 32.9105C72.2944 33.0759 70.9555 32.9909 69.5865 32.7213L67.0975 32.2315L67.1064 27.9161C67.1171 22.831 66.3135 19.4254 64.0826 15.0967C61.9687 10.996 56.7539 5.83566 52.7212 3.85393C51.0843 3.04951 49.4146 1.99721 49.0103 1.51592C48.3679 0.750611 48.2748 0.733179 48.2663 1.37434C48.2582 2.00231 48.0885 2.04186 47.0877 1.64687C46.4444 1.39347 43.8139 1.10903 41.2416 1.01507C37.5426 0.879863 35.9304 1.01634 33.5298 1.6677ZM36.7565 4.26337C27.8087 5.64688 20.4193 12.0398 17.6004 20.8365C16.6884 23.6826 16.3227 30.2328 16.9656 32.2099L17.2768 33.1665H32.7667H48.2569V19.166V5.16559L46.0248 4.72851C42.4567 4.02995 39.2934 3.87094 36.7565 4.26337ZM49.5324 6.12137C49.5324 7.18302 51.4474 15.0882 52.2863 17.4887C54.3105 23.2825 57.7357 27.6223 62.2752 30.144L64.1052 31.1605L63.8879 26.7426C63.4946 18.7413 60.0915 12.5878 53.6268 8.1877C50.7025 6.19705 49.5324 5.60649 49.5324 6.12137ZM17.6446 26.5763V31.0406H19.983C21.7547 31.0406 22.5277 30.8344 23.1718 30.1903C24.8725 28.4896 23.739 26.1074 21.0226 25.6729C19.6165 25.4479 19.3453 25.2417 19.3453 24.3961C19.3453 23.4841 19.5285 23.3876 21.2585 23.3876C22.6756 23.3876 23.1718 23.2222 23.1718 22.7498C23.1718 22.2485 22.5813 22.1121 20.4082 22.1121H17.6446V26.5763ZM25.7228 26.5763C25.7228 30.7571 25.7768 31.0406 26.5732 31.0406C27.3368 31.0406 27.4261 30.7481 27.4503 28.1707L27.4771 25.3008L28.6161 28.1707C29.4967 30.3884 29.9503 31.0406 30.6127 31.0406C31.2832 31.0406 31.7012 30.4148 32.5294 28.1707L33.5885 25.3008L33.7144 28.1707C33.8245 30.692 33.941 31.0406 34.671 31.0406C35.4427 31.0406 35.5018 30.7226 35.5018 26.5763V22.1121H34.2815C33.1425 22.1121 32.9792 22.3387 31.8219 25.5257L30.5826 28.9394L29.3415 25.5257C28.1931 22.3676 28.0111 22.1121 26.9116 22.1121H25.7228V26.5763ZM37.6276 26.5763C37.6276 30.7571 37.6816 31.0406 38.478 31.0406C39.1935 31.0406 39.3283 30.7571 39.3283 29.2515V27.4624L41.1515 29.2515C42.2318 30.3115 43.3747 31.0406 43.9572 31.0406C44.8509 31.0406 44.7458 30.8166 42.796 28.5661L40.6523 26.0917L42.6421 24.1019C44.4933 22.2507 44.5592 22.1121 43.5924 22.1121C42.9674 22.1121 41.91 22.7396 40.9406 23.6865L39.3283 25.2609V23.6865C39.3283 22.3956 39.1753 22.1121 38.478 22.1121C37.6816 22.1121 37.6276 22.3956 37.6276 26.5763ZM19.3453 28.4896C19.3453 29.9012 20.2849 30.2031 21.6255 29.2226C22.7186 28.4233 22.0864 27.2141 20.5753 27.2141C19.492 27.2141 19.3453 27.3663 19.3453 28.4896ZM48.6821 41.661V49.7299L49.8513 49.2256C52.2922 48.1729 55.6591 45.7894 57.674 43.6886C59.6115 41.6674 63.1379 35.5313 63.1379 34.1801C63.1379 33.7022 61.7824 33.5917 55.91 33.5917H48.6821V41.661ZM18.0698 35.9998C18.0698 37.0925 21.3704 41.9973 23.6442 44.283C28.1893 48.8515 33.955 51.2023 39.9678 50.9382L42.8666 50.8111L40.6051 48.3396C35.54 42.8038 29.1144 39.0326 20.3019 36.4242C19.074 36.0606 18.0698 35.8697 18.0698 35.9998Z" fill="#766E6C"/>
</svg>
