<svg width="54" height="66" viewBox="0 0 54 66" fill="none" xmlns="http://www.w3.org/2000/svg">
<path fill-rule="evenodd" clip-rule="evenodd" d="M21.2782 2.20001C20.99 2.09112 20.4699 1.19444 20.5859 1.00675C20.6303 0.934917 22.7991 0.890904 26.2936 0.890904C30.8327 0.890904 31.9434 0.870594 32.042 1.17634C32.0796 1.29283 31.9702 1.45666 31.8476 1.68697C31.7236 1.91963 31.5829 2.13501 31.5347 2.16559C31.4865 2.1963 30.9846 2.30195 30.4195 2.40053C29.0921 2.63211 28.8467 2.73212 28.7746 3.07067C28.5945 3.91627 28.0231 6.41636 27.7241 7.66671C27.5349 8.45822 27.3426 9.31089 27.2969 9.56141C27.1815 10.1943 26.968 10.365 26.2929 10.365C25.5415 10.365 25.4233 10.2103 25.1008 8.806C24.9569 8.17939 24.7598 7.36989 24.6627 7.00711C24.5656 6.64434 24.3192 5.64596 24.115 4.78849C23.9109 3.93102 23.7159 3.13004 23.6818 3.00867C23.6042 2.73188 23.0575 2.50259 22.2032 2.38842C21.8402 2.33985 21.424 2.25518 21.2782 2.20001ZM19.3635 3.79478C19.5442 3.512 19.8655 3.17501 20.0776 3.04561C20.5399 2.76402 21.397 2.73584 21.9888 2.98289C22.4183 3.1623 23.1645 3.78867 23.1613 3.96712C23.1543 4.35136 22.1529 4.96838 21.5363 4.96838C20.3473 4.96838 20.0387 6.65453 21.037 7.69669C21.46 8.13825 21.9136 8.20313 22.3913 7.89013C22.6162 7.74298 22.854 7.71072 23.3439 7.76133C23.7031 7.79826 24.0522 7.86278 24.1199 7.90464C24.5078 8.14425 23.9151 9.47015 23.1889 9.98691C22.6904 10.3418 21.882 10.3299 21.1494 9.95717C20.2571 9.50325 19.6512 8.69339 19.1958 7.34638C18.9854 6.72361 18.9479 6.38278 18.9872 5.44808C19.0288 4.45809 19.0781 4.24139 19.3635 3.79478ZM29.4855 4.10827C29.4118 3.843 29.9724 3.31592 30.5588 3.09898C30.8336 2.99728 31.3273 2.94247 31.7714 2.96418C32.4376 2.9968 32.5673 3.04621 32.9436 3.41078C33.7328 4.17531 33.7294 5.1611 32.9341 6.04075C32.4664 6.55835 32.4546 6.61052 32.7014 7.08339C33.0875 7.82345 32.8554 8.82555 32.1465 9.47782C30.7585 10.7553 28.6617 10.3426 28.2048 8.70214C28.0442 8.12542 28.2838 7.92419 29.0352 8.0049C29.5381 8.05886 29.6467 8.13346 29.946 8.63067C30.2156 9.07847 31.2023 8.72061 31.2023 8.17507C31.2023 8.04651 31.0714 7.78579 30.9116 7.59583C30.6697 7.30849 30.6374 7.1846 30.7199 6.85889C30.7744 6.64362 30.8521 6.32006 30.8924 6.13981C30.9358 5.94589 31.1058 5.73986 31.3087 5.63492C31.7114 5.42685 31.8405 5.06648 31.6202 4.76534C31.4738 4.56531 31.4298 4.56363 30.9464 4.7398C30.4403 4.92413 30.4196 4.92161 29.9851 4.61855C29.7408 4.44814 29.5161 4.2186 29.4855 4.10827ZM33.4515 7.5854C33.417 7.23437 33.413 6.90662 33.4425 6.85721C33.4564 6.83382 33.468 6.81443 33.4847 6.80196C33.5651 6.74187 33.7658 6.84265 34.9427 7.43201C37.9453 8.93564 40.2992 10.9401 42.1243 13.5475C45.0555 17.7351 46.012 22.8934 44.7588 27.7543C43.4652 32.7711 39.8996 37.0913 35.0504 39.517C33.936 40.0746 32.102 40.752 31.0559 40.9925C23.8577 42.6471 16.8222 40.6072 12.015 35.4718C8.88982 32.1332 7.20399 27.9328 7.20507 23.4875C7.20531 22.6279 7.2887 21.4573 7.39249 20.8585C8.16186 16.4168 10.4284 12.5432 13.8834 9.7654C15.314 8.61508 18.0904 6.95771 18.4604 7.03314C18.6157 7.0648 18.9576 7.8436 18.9617 8.17483C18.9627 8.2565 18.5721 8.51974 18.0936 8.75971C16.1974 9.71108 14.1889 11.2311 12.9549 12.6487C12.597 13.0598 12.247 13.4562 12.177 13.5296C11.5869 14.1489 9.72446 17.4721 9.72446 17.9056C9.72446 17.9753 9.64791 18.2094 9.55444 18.426C8.79983 20.173 8.47514 23.814 8.87746 26.0153C9.26083 28.1133 10.2794 30.6361 11.4471 32.3804C12.4243 33.8402 14.194 35.6612 15.6639 36.7195C16.1389 37.0616 18.2065 38.3077 18.2989 38.3077C18.3253 38.3077 18.6968 38.4696 19.1246 38.6675C19.899 39.0257 20.4034 39.125 20.4034 38.9191C20.4034 38.8596 20.2548 38.7524 20.0734 38.6809C19.44 38.4315 17.8032 37.247 16.9744 36.438C13.5713 33.1166 12.4501 28.2371 14.0896 23.8835C15.6252 19.8057 19.1531 16.8898 23.7031 15.9376C24.165 15.841 24.6896 15.7618 24.8687 15.7618C25.2885 15.7617 25.4796 16.092 25.2851 16.4814C25.1668 16.7183 24.9719 16.7992 24.123 16.9631C22.7626 17.226 21.9955 17.4884 20.7034 18.1333C18.5574 19.2043 16.8871 20.8331 15.723 22.9902C15.2351 23.8943 14.7646 25.1938 14.7631 25.6412C14.7628 25.781 14.658 26.0536 14.5306 26.2469C14.3785 26.4774 14.3336 26.6632 14.3998 26.7869C14.4553 26.8907 14.5061 27.4715 14.5126 28.0777C14.5375 30.4039 15.2221 32.4244 16.6175 34.2902C17.4062 35.3447 18.208 36.1407 19.1896 36.8437C20.0308 37.4462 21.6676 38.3077 21.9709 38.3077C22.3202 38.3077 22.3326 38.1463 21.9953 37.9882C20.0959 37.0977 18.3822 34.9768 17.8427 32.8491C17.6143 31.9479 17.5423 30.5659 17.7147 30.3936C18.0713 30.0372 18.4257 30.6158 18.5223 31.7118C18.6528 33.1929 19.4472 34.8167 20.6014 35.9611C21.8773 37.2262 22.9429 37.7756 24.8931 38.1738C25.5188 38.3015 26.0865 38.4405 26.1545 38.4826C26.2227 38.5245 26.5358 38.4792 26.8506 38.3818C27.1652 38.2843 27.8006 38.1157 28.2626 38.0071C31.1755 37.3218 33.5717 34.7044 33.9157 31.8317C34.0068 31.0713 34.2248 30.5755 34.5176 30.4631C34.9116 30.312 34.978 30.5778 34.8196 31.6725C34.5137 33.7862 33.7204 35.3304 32.2292 36.7143C31.7467 37.1619 31.0889 37.6631 30.7675 37.828C30.4459 37.9929 30.1286 38.1915 30.0627 38.2692C29.9965 38.347 29.8074 38.4341 29.6425 38.4628C29.3932 38.5061 29.4084 38.5177 29.7324 38.5313C29.947 38.5403 30.1224 38.4936 30.1224 38.4276C30.1224 38.3617 30.2515 38.3077 30.4092 38.3077C30.7689 38.3077 32.1177 37.6441 33.053 37.0069C34.4762 36.0373 36.0054 34.3313 36.7761 32.8535C37.5529 31.364 38.1675 28.6139 37.9763 27.4829C37.9049 27.0606 37.9376 26.9697 38.2926 26.6036C38.5104 26.379 38.786 26.1952 38.905 26.1952C39.1013 26.1952 39.1215 26.3262 39.1214 27.6044C39.121 29.9151 38.806 31.3024 37.8439 33.2307C36.7159 35.4914 34.3922 37.8122 32.3722 38.6957C32.1908 38.7751 32.0422 38.8822 32.0422 38.9336C32.0422 39.0886 32.5178 39.0395 32.984 38.8363C36.1073 37.4756 38.3475 35.8074 40.2658 33.4142C43.6273 29.2205 44.6439 23.6276 42.9708 18.5347C42.5704 17.3163 42.2862 16.6886 41.4705 15.222C40.6906 13.8197 38.8754 11.8043 37.3099 10.6022C36.4489 9.94122 34.6822 8.806 34.5143 8.806C34.472 8.806 34.2296 8.67492 33.9757 8.51482C33.5547 8.24918 33.5088 8.16787 33.4515 7.5854ZM27.5229 16.7047C27.3519 16.5628 27.3168 16.2606 27.4355 15.9514C27.5254 15.7173 27.7261 15.7149 28.7647 15.9351C31.5229 16.5202 33.7349 17.6897 35.5819 19.5396C36.5431 20.5022 37.0792 21.223 37.7846 22.501C38.2318 23.3113 38.2457 23.4692 37.8989 23.792C37.509 24.1552 37.2636 24.0962 37.0455 23.5868C35.658 20.3479 32.2787 17.7244 28.5728 17.0092C28.0833 16.9148 27.6109 16.7777 27.5229 16.7047ZM18.7107 26.9669C19.8876 25.1127 21.7741 23.6811 23.7585 23.1364C24.6484 22.8922 24.8429 22.913 24.8429 23.2522C24.8429 23.5109 24.7461 23.5771 24.0567 23.79C23.6241 23.9235 22.909 24.209 22.4674 24.4244C21.3974 24.9464 19.8559 26.4504 19.3417 27.4741C19.0324 28.09 18.9292 28.2025 18.7232 28.1487C18.2329 28.0205 18.2298 27.7246 18.7107 26.9669ZM28.1133 23.6524C27.9192 23.4914 27.9187 23.1129 28.1126 23.0433C28.1952 23.0138 28.3535 23.0363 28.4647 23.0933C28.5759 23.1504 28.7572 23.1971 28.8676 23.1971C28.9781 23.1971 29.5799 23.4492 30.2051 23.7573C31.8079 24.547 33.6668 26.3034 33.3833 26.76C33.1883 27.0739 32.8766 26.8946 31.8622 25.8853C31.0224 25.0498 30.5822 24.715 29.8824 24.3799C29.3875 24.1428 28.8209 23.9103 28.6233 23.8631C28.4257 23.816 28.1961 23.7212 28.1133 23.6524ZM0.598057 54.3778C-0.164826 50.6295 1.10117 46.4112 3.29815 45.3807C4.23741 44.9401 5.48373 45.1099 6.21481 45.778C6.46955 46.0109 6.48466 46.1163 6.48299 47.6528C6.4819 48.5483 6.43619 49.3518 6.38123 49.4384C6.30324 49.5612 6.20449 49.532 5.93308 49.3063C4.73716 48.3118 3.75878 48.6394 3.14612 50.2397C2.7858 51.1808 2.77656 53.0141 3.12764 53.9043C3.45389 54.7318 3.7025 55.0444 4.22361 55.2827C4.74184 55.5197 5.27843 55.397 5.84213 54.9125C6.03063 54.7505 6.22429 54.6179 6.27253 54.6177C6.44831 54.6175 6.50398 55.2256 6.46487 56.7161C6.42539 58.2139 6.41939 58.243 6.09374 58.5022C5.75274 58.7738 4.89338 59.0549 4.40467 59.0549C3.43601 59.0549 2.1699 58.1632 1.52592 57.0276C1.01321 56.1235 0.87031 55.7155 0.598057 54.3778ZM49.126 46.9221C49.092 46.7995 49.1537 46.7005 49.2854 46.6662C49.76 46.543 49.9587 46.5982 50.2804 46.9424C50.4653 47.1402 50.7283 47.3021 50.8648 47.3021C51.0015 47.3021 51.2327 47.1405 51.3792 46.9424C51.6572 46.5666 51.9364 46.4972 52.3281 46.7067C52.6126 46.8589 52.6205 47.0576 52.3601 47.5112C52.092 47.978 51.3617 48.3815 50.7846 48.3815C50.2344 48.3815 49.3868 47.8347 49.2612 47.3987C49.2173 47.2466 49.1565 47.0322 49.126 46.9221ZM29.6121 49.923C29.9872 49.3938 30.5696 48.8677 30.9623 48.7032C31.0613 48.6617 31.505 48.6416 31.9484 48.6583C32.5424 48.6807 32.8423 48.7541 33.0883 48.9373C33.4006 49.17 33.4245 49.2507 33.4585 50.1928C33.4787 50.7467 33.4626 51.3759 33.4228 51.5912L33.3506 51.9827L32.9193 51.6539C32.097 51.027 31.2928 51.2675 30.8281 52.2791C30.512 52.967 30.514 54.7535 30.8315 55.376C31.3096 56.3131 32.0939 56.5496 32.9028 56.0002C33.274 55.748 33.3497 55.7317 33.4106 55.8901C33.5285 56.1972 33.4912 58.2141 33.3633 58.4531C33.2011 58.756 32.123 59.0994 31.6002 59.0146C30.4717 58.8316 29.4669 57.9184 29.0053 56.6563C28.6796 55.7658 28.4158 54.0549 28.4997 53.376C28.7229 51.5679 28.9535 50.8522 29.6121 49.923ZM44.828 49.8248C45.0027 49.3983 45.222 48.9936 45.3154 48.9253C45.4123 48.8545 45.8058 48.8269 46.2329 48.8612L46.9807 48.9211L47.0123 53.7182C47.0382 57.6466 47.0746 58.5573 46.7123 58.7615C46.5756 58.8386 46.3821 58.815 46.11 58.815C45.7488 58.815 45.5194 58.8208 45.3738 58.7133C45.1134 58.521 45.1209 57.9661 45.1209 56.367C45.1209 54.616 45.0862 54.1385 44.951 54.0264C44.8143 53.913 44.7659 53.9394 44.7033 54.1615C44.6606 54.3135 44.4722 54.8155 44.2848 55.2772C43.3105 57.6772 42.907 58.5906 42.7717 58.7029C42.6895 58.7711 42.2799 58.8108 41.8617 58.791L41.1013 58.755V53.8381V48.9211L41.9712 48.8859C42.4497 48.8666 42.8508 48.8666 42.8627 48.8859C42.8746 48.9053 42.9152 50.0704 42.9527 51.4751L43.0211 54.0289L43.2811 53.5138C43.4241 53.2304 43.7136 52.5669 43.9243 52.0392C44.135 51.5115 44.353 50.9719 44.4088 50.84C44.4646 50.708 44.6532 50.2512 44.828 49.8248ZM51.8402 49.2397C51.8402 49.1708 51.9474 49.0396 52.0784 48.9479C52.3571 48.7528 53.6469 48.8125 53.7882 49.0272C53.8367 49.1008 53.8771 51.2773 53.8782 53.8639C53.88 58.5497 53.8791 58.5672 53.6229 58.7043C53.3693 58.84 52.1527 58.8076 52.0064 58.6613C51.9656 58.6205 51.9197 57.5996 51.9042 56.3925C51.876 54.1984 51.8733 53.9341 51.786 53.9024C51.7734 53.8978 51.7589 53.8981 51.7423 53.8981C51.6574 53.8981 51.4824 54.2811 50.9757 55.577C50.9113 55.7419 50.579 56.5244 50.2374 57.3159L49.6164 58.755H48.7785H47.9406L47.9093 53.8081L47.878 48.8612H48.7792H49.6804L49.6888 51.2297C49.6935 52.5325 49.7347 53.6927 49.7805 53.8082C49.8741 54.0447 49.9831 53.8281 50.9418 51.4995C51.254 50.741 51.5839 49.9503 51.6749 49.7425C51.7658 49.5347 51.8402 49.3084 51.8402 49.2397ZM7.31546 53.7756C7.32794 51.1799 7.36538 49.0124 7.39849 48.9587C7.43173 48.9051 8.26289 48.8612 9.24559 48.8612C10.6644 48.8612 11.0521 48.8963 11.1283 49.0316C11.1811 49.1253 11.1973 49.6783 11.1643 50.2608L11.1043 51.3197H10.2901C9.41129 51.3197 9.24823 51.4229 9.24823 51.9792C9.24823 52.4581 9.37841 52.5447 10.1839 52.6018C10.663 52.6357 10.9835 52.7188 11.052 52.8271C11.1118 52.9214 11.1614 53.3913 11.1625 53.8711C11.1642 54.698 11.1482 54.7495 10.8565 54.8605C10.6872 54.9247 10.288 54.9774 9.96948 54.9774C9.34674 54.9774 9.24451 55.0769 9.24451 55.6828C9.24451 56.1829 9.44981 56.2966 10.3526 56.2966H11.1727L11.1385 57.5258L11.1043 58.755L9.42173 58.7881C8.14974 58.8132 7.68454 58.7814 7.51584 58.6581C7.30406 58.5033 7.29374 58.2533 7.31546 53.7756ZM12.1242 53.8839C12.1242 51.3301 12.157 49.1552 12.1971 49.0509C12.258 48.892 12.5121 48.8612 13.7629 48.8612C15.4289 48.8612 15.7546 48.9595 16.2453 49.6106C16.8627 50.4297 16.8954 52.1753 16.3076 52.9255C16.0841 53.2105 16.0849 53.214 16.4644 53.602C17.244 54.3989 17.4984 55.8446 17.0844 57.1259C16.8491 57.8538 16.2055 58.4968 15.5224 58.6864C14.8777 58.8654 12.4511 58.8539 12.2682 58.6711C12.1612 58.5641 12.1242 57.3355 12.1242 53.8839ZM18.0036 53.7938C18.0036 51.1689 18.0396 48.9851 18.0837 48.9412C18.1276 48.8972 18.9857 48.8612 19.9906 48.8612C21.5459 48.8612 21.8284 48.8894 21.8904 49.0509C22.0241 49.3989 21.9707 51.1211 21.8234 51.212C21.7466 51.2594 21.2851 51.3239 20.7977 51.355L19.9116 51.4119L19.9475 51.9655L19.9834 52.5189L20.7836 52.5789C21.2237 52.6119 21.6114 52.6665 21.6451 52.7005C21.7438 52.7994 21.7675 54.7332 21.6714 54.8296C21.6232 54.878 21.2237 54.9444 20.7836 54.9774L19.9834 55.0373L19.9471 55.6004C19.9114 56.1535 19.9178 56.1645 20.307 56.2298C20.5251 56.2663 20.9733 56.3098 21.3033 56.3264L21.9032 56.3565L21.9338 57.3759C21.9506 57.9366 21.9122 58.4762 21.8485 58.5752C21.7002 58.8051 18.6474 58.9111 18.2527 58.7C18.007 58.5686 18.0036 58.5025 18.0036 53.7938ZM22.8031 53.7938C22.8031 51.1689 22.8391 48.9851 22.8832 48.9412C23.0183 48.8061 25.7415 48.8527 26.1749 48.9974C26.7271 49.1819 27.2066 49.6502 27.5088 50.2999C27.7165 50.7464 27.7609 51.0787 27.7654 52.2191C27.7698 53.3966 27.7336 53.6684 27.5176 54.0779C27.1057 54.8593 26.6552 55.2044 25.8543 55.3523C25.3645 55.4427 25.099 55.4762 24.9522 55.6259C24.7622 55.8196 24.7708 56.2079 24.7495 57.1658C24.7174 58.6039 24.7045 58.6721 24.4495 58.7403C24.0298 58.8528 23.2896 58.8269 23.0352 58.6909C22.8118 58.5713 22.8031 58.3899 22.8031 53.7938ZM34.322 53.8441C34.322 51.1915 34.3601 48.9829 34.4067 48.9364C34.4534 48.8898 34.8718 48.8673 35.3366 48.8864L36.1818 48.9211L36.2152 50.4983C36.2408 51.7097 36.2895 52.1094 36.4251 52.222C36.5614 52.3349 36.6018 52.3354 36.6018 52.2243C36.6018 52.0506 37.7934 49.2241 37.9563 49.0111C38.0309 48.9136 38.4012 48.8612 39.0162 48.8612H39.9614V49.197C39.9614 49.3817 39.9145 49.584 39.8573 49.6467C39.7999 49.7093 39.4985 50.3273 39.1874 51.0198C38.8762 51.7124 38.5102 52.5151 38.3739 52.8035C38.0288 53.5335 38.0672 53.8159 38.693 55.1455C38.9947 55.7865 39.2415 56.3316 39.2415 56.3567C39.2415 56.3817 39.4575 56.8609 39.7214 57.4215C39.9854 57.982 40.2014 58.492 40.2014 58.555C40.2014 58.739 39.873 58.815 39.0784 58.815C38.3488 58.815 37.8016 58.6014 37.8016 58.3166C37.8016 58.2479 37.7275 58.0216 37.6368 57.8138C37.282 57.0004 36.7331 55.6232 36.6593 55.3608C36.5968 55.1387 36.5484 55.1123 36.4117 55.2256C36.2807 55.3343 36.2418 55.7329 36.2418 56.9666C36.2418 58.4258 36.2214 58.5777 36.0097 58.6909C35.7545 58.8274 35.0148 58.8527 34.592 58.7395L34.322 58.6671V53.8441ZM14.044 51.9393C14.044 51.5215 14.08 51.1437 14.1241 51.0998C14.4058 50.8182 15.0039 51.3639 15.0039 51.9025C15.0039 52.3427 14.7006 52.6988 14.3254 52.6988C14.0599 52.6988 14.044 52.6561 14.044 51.9393ZM24.8883 53.0465C24.7183 52.9053 24.6532 51.7005 24.7958 51.3295C24.9771 50.8571 25.9228 51.401 25.9228 51.9776C25.9228 52.7153 25.2845 53.3751 24.8883 53.0465ZM14.044 55.717C14.044 55.2662 14.08 54.8614 14.1241 54.8175C14.2856 54.656 14.7706 54.7441 15.0039 54.9774C15.2936 55.2669 15.3195 55.8955 15.0571 56.2698C14.9256 56.4575 14.7481 56.5364 14.4571 56.5364H14.044V55.717ZM29.0287 60.6096C28.7722 60.6153 28.1816 60.1453 28.2685 60.0047C28.3583 59.8593 28.7689 59.8628 28.8598 60.0097C28.9046 60.0824 29.0378 60.0765 29.2191 59.994C29.3775 59.9218 29.6027 59.8995 29.7196 59.9442C29.9063 60.0159 29.8891 60.0608 29.5772 60.3155C29.3821 60.4749 29.1353 60.6072 29.0287 60.6096ZM1.10633 61.6532C1.08497 61.4662 1.09673 61.2368 1.1326 61.1435C1.18408 61.0095 1.51573 60.9737 2.70397 60.9737C4.17274 60.9737 4.21341 60.9808 4.33988 61.2584C4.54074 61.6987 4.30328 62.0303 3.7547 62.0758L3.3051 62.113L3.30198 63.4811C3.29839 65.0178 3.20407 65.2092 2.56154 64.984L2.22521 64.8662L2.16522 63.4896L2.10523 62.113L1.62527 62.053C1.2046 62.0005 1.14052 61.9511 1.10633 61.6532ZM5.40489 63.0362C5.40489 61.9897 5.44089 61.0976 5.48493 61.0537C5.52884 61.0096 6.02835 60.9756 6.59481 60.978C7.49004 60.9817 7.66906 61.0186 7.96435 61.2601C8.2648 61.5058 8.30476 61.6185 8.31028 62.2376C8.3158 62.8524 8.2774 62.971 7.99387 63.2147C7.79973 63.3817 7.51584 63.4921 7.2809 63.4921C6.71396 63.4921 6.50158 63.7088 6.46043 64.3293C6.43007 64.7869 6.37788 64.8832 6.10886 64.9771C5.43849 65.2115 5.40489 65.1188 5.40489 63.0362ZM9.18127 61.993C9.02985 61.663 8.95594 61.3002 8.99073 61.0568C8.99829 61.0034 9.23227 60.9764 9.51064 60.9968C9.98723 61.0315 10.0229 61.06 10.1231 61.4859C10.1815 61.7345 10.3309 61.9923 10.4549 62.0586C10.6541 62.1653 10.6895 62.1232 10.7574 61.6986C10.8521 61.107 11.0326 60.9462 11.5465 60.9955C11.8904 61.0285 11.9402 61.0743 11.9144 61.3335C11.8978 61.4983 11.8034 61.8357 11.7044 62.083C11.6053 62.3304 11.4433 62.7486 11.3443 63.0124C10.6784 64.7873 10.4883 65.0511 9.87564 65.0511C9.26826 65.0511 8.99169 64.8668 9.11192 64.5421C9.16604 64.3959 9.33942 64.2461 9.49732 64.2091C9.98447 64.095 9.91176 63.5853 9.18127 61.993ZM12.9909 63.1374C12.9725 62.1178 12.9844 61.2139 13.017 61.1286C13.0607 61.0149 13.4298 60.9737 14.4041 60.9737C15.6705 60.9737 15.7363 60.9861 15.8339 61.2435C15.9925 61.6618 15.7771 61.7994 14.9036 61.8379C14.1401 61.8716 14.104 61.8867 14.104 62.1729C14.104 62.4436 14.1633 62.4799 14.7125 62.547C15.4226 62.6336 15.7597 62.792 16.0177 63.1599C16.3143 63.5833 16.2514 64.1546 15.8602 64.5923L15.5165 64.9768L14.2703 64.984L13.0241 64.9912L12.9909 63.1374ZM16.9237 62.9753C16.9237 61.9623 16.9622 61.095 17.0094 61.0479C17.0566 61.0008 17.2861 60.9784 17.5194 60.9979C17.926 61.0322 17.9463 61.0561 18.0067 61.5733C18.0864 62.2546 18.1871 62.4128 18.5408 62.4128C19.0832 62.4128 19.2035 62.295 19.2035 61.7643C19.2035 61.4878 19.2683 61.1967 19.3475 61.1176C19.536 60.9292 20.1002 60.9329 20.2584 61.1236C20.3303 61.2103 20.3885 62.0194 20.3963 63.0435L20.4099 64.8135L20.1067 64.9516C19.8793 65.0551 19.7283 65.0555 19.5035 64.953C19.243 64.8344 19.2035 64.7392 19.2035 64.2289C19.2035 63.5241 19.0474 63.361 18.4824 63.4757C18.0696 63.5595 18.0628 63.5709 18.0036 64.2749C17.9381 65.0544 17.8199 65.1578 17.2442 64.939L16.9237 64.8173V62.9753ZM21.3525 64.9179C21.2269 64.7195 21.2053 61.1716 21.329 61.0479C21.3761 61.0008 21.6057 60.9784 21.8389 60.9979C22.2592 61.0333 22.2638 61.0396 22.3232 61.681C22.391 62.4123 22.4714 62.4855 23.3282 62.5963C24.1478 62.7022 24.483 63.0589 24.483 63.8255C24.483 64.292 24.4231 64.4659 24.186 64.6886C23.9266 64.9322 23.7351 64.9749 22.6736 65.026C21.7186 65.0719 21.4354 65.0487 21.3525 64.9179ZM25.3229 63.0129C25.3229 61.6071 25.3619 61.0972 25.4729 61.0503C25.5554 61.0155 25.7848 60.9975 25.9828 61.0104L26.3428 61.0336L26.3758 62.9053C26.4125 64.9933 26.3639 65.1407 25.6878 64.9923L25.3229 64.9121V63.0129ZM27.3894 63.1374C27.3711 62.1178 27.383 61.2139 27.4156 61.1286C27.4906 60.9335 28.1067 60.9258 28.2986 61.1176C28.3778 61.1967 28.4426 61.5713 28.4426 61.95C28.4426 62.6965 28.6089 62.9514 28.8079 62.5099C28.9712 62.1476 29.1588 61.8369 29.5053 61.3544C29.7488 61.0154 29.8487 60.9658 30.2252 60.9972L30.6624 61.0336L30.6953 62.9053C30.7233 64.4942 30.6995 64.8009 30.5382 64.9347C30.4013 65.0483 30.2576 65.0605 30.0252 64.9785C29.7192 64.8704 29.7024 64.8236 29.7024 64.0775C29.7024 63.0677 29.5219 63.0919 28.8607 64.1906C28.3955 64.9636 28.3624 64.9912 27.9008 64.9912H27.4227L27.3894 63.1374ZM34.7892 61.8797C34.0404 62.2667 33.5535 61.8358 34.0921 61.2628C34.3223 61.0177 34.4769 60.9737 35.1053 60.9737C35.7329 60.9737 35.8973 61.0204 36.1756 61.2782C36.4857 61.5655 36.4996 61.6227 36.4215 62.2947C36.3553 62.865 36.3769 63.0447 36.5304 63.1979C36.8433 63.5108 36.7705 64.1535 36.3714 64.5995C36.0372 64.973 35.9811 64.9912 35.1605 64.9905C34.363 64.9897 34.2783 64.9646 34.0049 64.6468C33.8425 64.4582 33.7265 64.2157 33.7469 64.1079C33.7979 63.8387 34.4741 63.7888 34.8384 64.0273C35.1758 64.2484 35.4727 64.1726 35.5588 63.8435C35.6173 63.6201 35.4192 63.4023 34.8449 63.0589C34.6368 62.9346 34.6483 62.901 35.019 62.5545C35.357 62.2386 35.3964 62.1469 35.2843 61.9376C35.1599 61.7052 35.133 61.702 34.7892 61.8797ZM37.7246 62.9864C38.0614 61.9783 38.3921 61.1139 38.4593 61.0654C38.6595 60.9211 39.4425 60.9619 39.5743 61.1236C39.7178 61.2995 40.8013 64.5079 40.8013 64.7569C40.8013 65.1948 39.6893 65.037 39.5436 64.5783C39.4157 64.1756 38.6995 64.2409 38.304 64.6914C37.9763 65.0646 37.7001 65.1337 37.329 64.9352C37.1266 64.8269 37.153 64.6966 37.7246 62.9864ZM41.788 63.1374C41.7696 62.1178 41.7815 61.2139 41.8141 61.1286C41.857 61.0172 42.1903 60.9737 43.0012 60.9737C43.9492 60.9737 44.1774 61.0121 44.4355 61.215C44.8436 61.5358 44.939 62.0198 44.6917 62.5151C44.5036 62.8921 44.506 62.921 44.748 63.1785C45.0933 63.546 45.0839 64.2216 44.7279 64.6355C44.4658 64.94 44.4022 64.9535 43.1381 64.972L41.8212 64.9912L41.788 63.1374ZM45.6781 63.0956C45.6738 62.129 45.8682 61.6318 46.4074 61.2297C46.8314 60.9136 48.0457 60.8746 48.4588 61.1639C48.9826 61.5305 49.3205 62.2329 49.3205 62.9548C49.3205 64.2171 48.7347 64.9498 47.6662 65.0243C46.8059 65.0842 46.4322 64.9414 46.0132 64.3923C45.7238 64.0131 45.6815 63.8494 45.6781 63.0956ZM50.6725 62.4478C50.7354 61.802 50.8069 61.2043 50.8314 61.1196C50.865 61.0035 51.2075 60.9741 52.2279 60.9997L53.58 61.0336L53.64 62.497C53.6784 63.4344 53.7539 64.0141 53.85 64.11C53.9406 64.2004 54 64.5825 54 65.0751V65.8906H53.6454C53.3353 65.8906 53.281 65.8381 53.2122 65.4709L53.1333 65.0511H52.1208H51.1081L50.9294 65.4784C50.7789 65.8385 50.6996 65.8997 50.4256 65.8682C50.1153 65.8323 50.0987 65.7964 50.0648 65.0839C50.0352 64.467 50.0751 64.275 50.2936 63.9797C50.4962 63.7057 50.5847 63.348 50.6725 62.4478ZM6.77767 62.6526C6.47758 62.6526 6.39815 62.4181 6.55762 62.0029C6.67256 61.7037 7.06997 61.7725 7.15372 62.1061C7.25007 62.4895 7.13776 62.6526 6.77767 62.6526ZM43.5789 62.4032C43.0827 62.6687 42.7589 62.5008 42.9015 62.0519C42.9976 61.749 43.3421 61.7449 43.6124 62.0434C43.8111 62.263 43.8095 62.2798 43.5789 62.4032ZM46.8007 63.0001C46.8007 62.5326 46.8616 62.2492 46.9892 62.1215C47.2746 61.8364 47.7107 61.8918 47.9918 62.2491C48.4294 62.8049 48.2449 63.7532 47.6405 64.0543C47.385 64.1817 47.3086 64.1671 47.073 63.9458C46.8511 63.7375 46.8007 63.5624 46.8007 63.0001ZM51.5749 63.8819C51.5341 63.6824 51.6794 62.5311 51.7879 62.1949C51.8181 62.1012 51.9734 62.0524 52.1695 62.0749C52.4843 62.1112 52.502 62.1473 52.5369 62.8275C52.5921 63.9017 52.5154 64.0917 52.0267 64.0917C51.7337 64.0917 51.6056 64.0323 51.5749 63.8819ZM38.8347 63.4086C38.6911 63.3265 38.6941 63.2425 38.855 62.8418C39.0157 62.4412 39.0572 62.4055 39.1342 62.6019C39.3558 63.1674 39.1907 63.6123 38.8347 63.4086ZM14.044 63.812C14.044 63.658 14.08 63.4961 14.1241 63.4522C14.236 63.3402 14.4564 63.3525 14.8209 63.491C15.0879 63.5924 15.1147 63.6449 15.0045 63.8508C14.9135 64.021 14.7534 64.0917 14.4598 64.0917C14.1043 64.0917 14.044 64.0512 14.044 63.812ZM22.6634 64.1211C22.3988 64.0642 22.2847 63.7429 22.4558 63.5368C22.627 63.3307 22.9339 63.3259 23.2067 63.5252C23.5928 63.8074 23.2011 64.2368 22.6634 64.1211ZM43.3633 64.0917C42.9382 64.0917 42.7561 63.8865 42.8846 63.5521C43.0366 63.1558 43.9436 63.4401 43.8362 63.8503C43.7884 64.0329 43.673 64.0917 43.3633 64.0917Z" fill="#766E6C"/>
<path d="M26.373 12.8835C26.2116 13.7011 26.0518 15.3628 25.981 16.9609C25.9415 17.8514 25.8571 19.1736 25.7935 19.8991C25.7298 20.6247 25.6273 22.0818 25.5657 23.1371C25.3668 26.5446 25.1946 29.0069 25.1357 29.2833C25.0613 29.6333 24.7823 29.6253 24.183 29.2564C23.919 29.0939 23.5816 28.9593 23.4331 28.9572C23.1837 28.9538 23.1631 29.0066 23.1631 29.6491C23.1631 30.0316 23.1029 30.4049 23.0293 30.4784C22.8672 30.6404 22.5882 30.5476 20.2234 29.5456C20.0914 29.4897 19.6472 29.3065 19.2364 29.1384C18.8255 28.9704 18.186 28.6942 17.8152 28.5248C17.4445 28.3553 17.108 28.2496 17.0677 28.29C16.9633 28.3942 26.1854 37.5882 26.3944 37.5882C26.4893 37.5882 26.9457 37.197 27.4086 36.7187C27.8714 36.2404 31.1687 32.8856 34.7357 29.2634C42.0352 21.851 41.6412 22.2546 41.6412 22.189C41.6412 22.1621 41.5333 22.1685 41.4013 22.2029C41.2693 22.2374 41.1613 22.3134 41.1613 22.3716C41.1613 22.4298 41.1092 22.4775 41.0456 22.4775C40.9819 22.4775 40.2791 22.9228 39.4839 23.4669C38.6886 24.011 37.6623 24.6992 37.2034 24.996C36.7444 25.2928 34.5332 26.7676 32.2895 28.2734C29.8883 29.8849 28.1221 30.9945 27.9963 30.9707C27.8299 30.9391 27.7766 30.7976 27.7558 30.3316C27.741 30.0024 27.646 28.6807 27.5446 27.3945C27.1964 22.9771 27.1202 21.9333 26.9974 19.8991C26.9298 18.7778 26.8223 17.4652 26.7585 16.9823C26.6948 16.4992 26.6374 15.5818 26.6309 14.9436C26.6244 14.3052 26.5823 13.4861 26.5374 13.1233C26.4583 12.4838 26.4534 12.4764 26.373 12.8835Z" fill="#766E6C"/>
</svg>
