<svg width="56" height="57" viewBox="0 0 56 57" fill="none" xmlns="http://www.w3.org/2000/svg">
<path fill-rule="evenodd" clip-rule="evenodd" d="M0.0179074 28.9276L0.0357454 56.9099L28.0179 56.9276L56 56.9453V28.9453V0.945312H28H0L0.0179074 28.9276ZM6.254 9.43219C4.71855 9.46802 0.817539 9.75961 0.727996 9.84522C0.717834 9.85488 1.23718 9.88377 1.8821 9.90938C9.17515 10.1988 16.6734 13.0993 24.013 18.4701C28.7235 21.9171 33.8135 26.8713 37.5317 31.6284C41.5437 36.7612 44.328 42.0665 45.8449 47.4682C46.4789 49.7259 46.9511 52.6803 47.0252 54.8537C47.0483 55.5322 47.0897 56.0874 47.1172 56.0874C47.1447 56.0874 47.1888 55.8541 47.2153 55.5689C47.2417 55.2838 47.3117 54.5193 47.3708 53.8703C47.5458 51.9486 47.5807 48.0721 47.4416 46.0031C47.0163 39.6784 45.6654 34.2519 43.2842 29.3031C41.9733 26.5785 40.6126 24.4323 38.7952 22.2226C38.075 21.347 35.8704 19.1181 35.0001 18.3857C29.3756 13.6529 22.0126 10.6989 13.4672 9.74688C11.325 9.50822 8.4215 9.38148 6.254 9.43219ZM3.94436 27.3721V29.1959L5.6677 29.1958H7.39105V33.6301V38.0643H9.30982H11.2286V33.6301V29.1958H12.9342H14.6398V27.372V25.5483H9.29206L3.94436 25.5484V27.3721ZM12.721 39.0648V45.3594H14.3555H15.99V40.3744C15.99 36.891 16.0125 35.4121 16.0647 35.4646C16.1057 35.5059 16.5744 37.7491 17.1062 40.4496L18.0731 45.3594H19.6561C21.1024 45.3594 21.2425 45.3486 21.2764 45.2342C21.2968 45.1654 21.6326 43.532 22.0226 41.6046C22.4124 39.6771 22.8487 37.5208 22.992 36.8127C23.1352 36.1047 23.2813 35.4948 23.3166 35.4574C23.3549 35.4169 23.3808 37.4038 23.3808 40.3757V45.362L25.1042 45.3428L26.8275 45.3236V39.0656V32.8076H23.9849H21.1423L21.0507 33.2725C21.0003 33.5282 20.7186 35.0569 20.4247 36.6697C20.1309 38.2825 19.8602 39.6326 19.8234 39.67C19.7866 39.7073 19.7552 39.7234 19.7537 39.7057C19.7521 39.688 19.4547 38.1287 19.0927 36.2406L18.4346 32.8076L15.5777 32.7889L12.721 32.7702V39.0648ZM28.4265 46.3607V52.6545H30.3453H32.2641V49.9725C32.2641 48.4973 32.2898 47.2904 32.3213 47.2904C32.3527 47.2904 32.9407 48.4893 33.6277 49.9546L34.8771 52.6187L37.1593 52.6376C38.4146 52.6479 39.4417 52.6386 39.4417 52.6167C39.4417 52.5868 36.4832 47.2738 35.8354 46.1405C35.7328 45.9609 35.7702 45.8865 37.2392 43.3512C38.0693 41.9185 38.8401 40.5934 38.9523 40.4066L39.1561 40.0669H36.9686H34.7811L33.5824 42.5343C32.923 43.8914 32.3567 45.0018 32.3238 45.0018C32.291 45.0018 32.2641 43.8914 32.2641 42.5343V40.0669H30.3453H28.4265V46.3607Z" fill="#766E6C"/>
</svg>
