<svg width="73" height="60" viewBox="0 0 73 60" fill="none" xmlns="http://www.w3.org/2000/svg">
<path d="M3.11737 51.5652L4.18611 49.0263H5.3408V49.1688C5.1714 49.1688 5.05804 49.1863 5.00075 49.2213C4.94594 49.2538 4.90235 49.295 4.86996 49.345C4.83757 49.395 4.82138 49.5576 4.82138 49.8326V51.6552C4.82138 51.8927 4.83259 52.0465 4.85501 52.1165C4.87992 52.184 4.9285 52.2352 5.00075 52.2703C5.07549 52.3052 5.18884 52.3228 5.3408 52.3228V52.4615H3.68537V52.3228C3.88966 52.3228 4.02667 52.2852 4.09643 52.2102C4.16618 52.1328 4.20106 51.9477 4.20106 51.6552V49.5888L2.99032 52.4615H2.85953L1.62637 49.5888V51.6552C1.62637 51.8927 1.63882 52.0465 1.66373 52.1165C1.68865 52.184 1.73723 52.2352 1.80947 52.2703C1.88172 52.3052 1.99382 52.3228 2.14579 52.3228V52.4615H0.837891V52.3228C1.05961 52.3228 1.20161 52.2828 1.26389 52.2028C1.32617 52.1203 1.35732 51.9377 1.35732 51.6552V49.8326C1.35732 49.565 1.34361 49.4076 1.31621 49.3601C1.2888 49.3101 1.24645 49.2663 1.18915 49.2288C1.13186 49.1888 1.01477 49.1688 0.837891 49.1688V49.0263H2.04116L3.11737 51.5652ZM7.68756 51.9665C7.33629 52.239 7.11578 52.3965 7.02614 52.439C6.89159 52.5015 6.74835 52.5328 6.59639 52.5328C6.35972 52.5328 6.16415 52.4515 6.0097 52.289C5.85773 52.1265 5.78175 51.9128 5.78175 51.6477C5.78175 51.4802 5.81911 51.3352 5.89385 51.2127C5.99599 51.0427 6.17288 50.8826 6.42449 50.7326C6.6786 50.5826 7.09964 50.4001 7.68756 50.1851V50.0501C7.68756 49.7076 7.63277 49.4726 7.52312 49.345C7.41599 49.2176 7.25904 49.1538 7.05227 49.1538C6.89533 49.1538 6.77077 49.1963 6.6786 49.2813C6.58392 49.3663 6.53659 49.4638 6.53659 49.5738L6.54407 49.7913C6.54407 49.9064 6.51418 49.9951 6.45438 50.0576C6.39708 50.1201 6.3211 50.1514 6.22643 50.1514C6.13426 50.1514 6.05827 50.1189 5.99848 50.0538C5.94119 49.9889 5.91254 49.9001 5.91254 49.7876C5.91254 49.5726 6.02215 49.3751 6.24138 49.195C6.46061 49.015 6.76828 48.925 7.16437 48.925C7.46833 48.925 7.71743 48.9763 7.91175 49.0788C8.05876 49.1563 8.16711 49.2775 8.23688 49.4426C8.28173 49.5501 8.30412 49.7701 8.30412 50.1026V51.2689C8.30412 51.5964 8.31038 51.7977 8.32284 51.8727C8.33529 51.9452 8.35517 51.994 8.3826 52.019C8.41248 52.044 8.4461 52.0565 8.48346 52.0565C8.52335 52.0565 8.55826 52.0477 8.58814 52.0302C8.64041 51.9977 8.74135 51.9065 8.89081 51.7565V51.9665C8.61182 52.3415 8.34523 52.529 8.09116 52.529C7.96906 52.529 7.87187 52.4865 7.79965 52.4015C7.72737 52.3165 7.69001 52.1715 7.68756 51.9665ZM7.68756 51.7227V50.4139C7.31138 50.5639 7.06847 50.6701 6.95886 50.7326C6.76205 50.8427 6.6213 50.9576 6.53659 51.0777C6.45189 51.1977 6.40954 51.3289 6.40954 51.4714C6.40954 51.6515 6.4631 51.8015 6.57022 51.9215C6.67735 52.039 6.80066 52.0977 6.94018 52.0977C7.12952 52.0977 7.37863 51.9727 7.68756 51.7227ZM14.6306 52.3228V52.4615H9.08138V52.3228C9.28815 52.3228 9.42645 52.2852 9.49621 52.2102C9.56591 52.1328 9.60082 51.9477 9.60082 51.6552V49.8326C9.60082 49.565 9.58714 49.4076 9.55971 49.3601C9.53228 49.3101 9.48995 49.2663 9.43264 49.2288C9.37534 49.1888 9.25827 49.1688 9.08138 49.1688V49.0263H10.7368V49.1688C10.5699 49.1688 10.4578 49.1863 10.4005 49.2213C10.3432 49.2538 10.2984 49.295 10.266 49.345C10.2336 49.395 10.2174 49.5576 10.2174 49.8326V51.7265C10.2174 51.964 10.2386 52.1052 10.281 52.1502C10.3233 52.1953 10.4653 52.2177 10.7069 52.2177H11.1105C11.27 52.2177 11.3746 52.209 11.4244 52.1915C11.4742 52.1715 11.5066 52.139 11.5216 52.094C11.539 52.049 11.5477 51.9015 11.5477 51.6515V49.8326C11.5477 49.5676 11.534 49.4101 11.5066 49.3601C11.4792 49.3075 11.4356 49.2626 11.3758 49.225C11.3185 49.1875 11.2027 49.1688 11.0283 49.1688V49.0263H12.6202V49.1688C12.4857 49.1713 12.386 49.1938 12.3212 49.2363C12.2565 49.2788 12.2141 49.3325 12.1942 49.3976C12.1743 49.4626 12.1643 49.6076 12.1643 49.8326V51.7715C12.1643 51.9865 12.1854 52.1152 12.2278 52.1578C12.2702 52.1977 12.401 52.2177 12.6202 52.2177H13.0686C13.3078 52.2177 13.4386 52.1927 13.461 52.1427C13.4834 52.0902 13.4946 51.934 13.4946 51.674V49.8326C13.4946 49.565 13.4809 49.4076 13.4535 49.3601C13.4261 49.3101 13.3837 49.2663 13.3265 49.2288C13.2692 49.1888 13.152 49.1688 12.9752 49.1688V49.0263H14.6306V49.1688C14.4612 49.1688 14.3479 49.1863 14.2906 49.2213C14.2358 49.2538 14.1922 49.295 14.1598 49.345C14.1274 49.395 14.1112 49.5576 14.1112 49.8326V51.4527C14.1112 51.7878 14.1199 51.9953 14.1374 52.0753C14.1573 52.1552 14.2009 52.2153 14.2682 52.2552C14.3354 52.2953 14.4562 52.3177 14.6306 52.3228ZM16.1141 51.404L17.5939 49.6864C17.5889 49.4938 17.5528 49.3601 17.4856 49.2851C17.4183 49.2101 17.3025 49.1713 17.138 49.1688V49.0263H18.7299V49.1688C18.563 49.1688 18.4509 49.1863 18.3936 49.2213C18.3363 49.2538 18.2915 49.295 18.2591 49.345C18.2267 49.395 18.2105 49.5576 18.2105 49.8326V51.6552C18.2105 51.9202 18.2242 52.079 18.2517 52.1315C18.279 52.1815 18.3214 52.2265 18.3787 52.2665C18.4385 52.304 18.5556 52.3228 18.7299 52.3228V52.4615H17.0745V52.3228C17.2813 52.3228 17.4195 52.2852 17.4893 52.2102C17.5591 52.1328 17.5939 51.9477 17.5939 51.6552V50.0389L16.1141 51.7602C16.1192 51.9727 16.149 52.119 16.2038 52.199C16.2586 52.279 16.377 52.3203 16.5588 52.3228V52.4615H14.9781V52.3228C15.1999 52.3228 15.3418 52.2828 15.4041 52.2028C15.4665 52.1203 15.4976 51.9377 15.4976 51.6552V49.8326C15.4976 49.565 15.4839 49.4076 15.4565 49.3601C15.429 49.3101 15.3867 49.2663 15.3294 49.2288C15.2721 49.1888 15.155 49.1688 14.9781 49.1688V49.0263H16.6336V49.1688C16.4667 49.1688 16.3545 49.1863 16.2973 49.2213C16.24 49.2538 16.1951 49.295 16.1627 49.345C16.1303 49.395 16.1141 49.5576 16.1141 49.8326V51.404ZM20.2098 50.5601H21.6896V49.8326C21.6896 49.6151 21.6808 49.4738 21.6634 49.4088C21.6459 49.3413 21.6024 49.2851 21.5326 49.24C21.4653 49.1926 21.3445 49.1688 21.1701 49.1688V49.0263H22.8256V49.1688C22.6711 49.1688 22.5577 49.1863 22.4855 49.2213C22.4157 49.2563 22.3684 49.3075 22.3435 49.3751C22.3186 49.44 22.3061 49.5926 22.3061 49.8326V51.6552C22.3061 51.8727 22.3148 52.0165 22.3323 52.0865C22.3522 52.1565 22.3983 52.214 22.4706 52.259C22.5428 52.3015 22.6611 52.3228 22.8256 52.3228V52.4615H21.1701V52.3228C21.3769 52.3228 21.5151 52.2852 21.5849 52.2102C21.6546 52.1328 21.6896 51.9477 21.6896 51.6552V50.8039H20.2098V51.6552C20.2098 51.8727 20.2185 52.0165 20.2359 52.0865C20.2559 52.1565 20.3019 52.214 20.3741 52.259C20.4464 52.3015 20.5647 52.3228 20.7292 52.3228V52.4615H19.0738V52.3228C19.2954 52.3228 19.4375 52.2828 19.4998 52.2028C19.562 52.1203 19.5931 51.9377 19.5931 51.6552V49.8326C19.5931 49.6151 19.5832 49.4713 19.5633 49.4013C19.5458 49.3313 19.501 49.2751 19.4288 49.2325C19.3565 49.19 19.2381 49.1688 19.0738 49.1688V49.0263H20.7292V49.1688C20.5747 49.1688 20.4613 49.1863 20.3891 49.2213C20.3194 49.2563 20.2721 49.3075 20.2471 49.3751C20.2222 49.44 20.2098 49.5926 20.2098 49.8326V50.5601ZM24.9107 48.925C25.4289 48.925 25.8449 49.1226 26.1588 49.5176C26.4254 49.8551 26.5587 50.2426 26.5587 50.6801C26.5587 50.9877 26.4851 51.299 26.3382 51.614C26.1912 51.929 25.9882 52.1665 25.7291 52.3265C25.4725 52.4865 25.186 52.5665 24.8696 52.5665C24.3539 52.5665 23.9441 52.3603 23.6402 51.9477C23.3836 51.6002 23.2553 51.2102 23.2553 50.7777C23.2553 50.4626 23.3325 50.1501 23.487 49.8401C23.6439 49.5275 23.8494 49.2976 24.1035 49.15C24.3576 49 24.6267 48.925 24.9107 48.925ZM24.7948 49.1688C24.6628 49.1688 24.5295 49.2088 24.395 49.2888C24.263 49.3663 24.1559 49.5038 24.0737 49.7013C23.9915 49.8988 23.9503 50.1526 23.9503 50.4626C23.9503 50.9627 24.0488 51.394 24.2455 51.7565C24.4449 52.119 24.7064 52.3002 25.0303 52.3002C25.272 52.3002 25.4712 52.2003 25.6282 52.0003C25.7851 51.8003 25.8636 51.4565 25.8636 50.9689C25.8636 50.3589 25.7328 49.8788 25.4712 49.5288C25.2943 49.2888 25.0689 49.1688 24.7948 49.1688ZM29.9704 51.1564C29.8783 51.6089 29.6976 51.9578 29.4286 52.2028C29.1595 52.4453 28.8618 52.5665 28.5355 52.5665C28.1469 52.5665 27.808 52.4028 27.5191 52.0753C27.2301 51.7477 27.0856 51.3052 27.0856 50.7477C27.0856 50.2076 27.245 49.7689 27.5638 49.4313C27.8852 49.0938 28.2701 48.925 28.7186 48.925C29.0549 48.925 29.3314 49.015 29.5482 49.195C29.7649 49.3726 29.8732 49.5576 29.8732 49.7501C29.8732 49.8451 29.8421 49.9226 29.7798 49.9826C29.72 50.0401 29.6354 50.0689 29.5257 50.0689C29.3788 50.0689 29.2679 50.0214 29.1932 49.9264C29.1508 49.8738 29.1222 49.7738 29.1072 49.6263C29.0947 49.4788 29.0449 49.3663 28.9577 49.2888C28.8706 49.2138 28.7497 49.1763 28.5952 49.1763C28.3461 49.1763 28.1456 49.2688 27.9936 49.4538C27.7918 49.6988 27.6909 50.0226 27.6909 50.4251C27.6909 50.8352 27.7906 51.1977 27.9899 51.5127C28.1916 51.8253 28.4632 51.9815 28.8045 51.9815C29.0487 51.9815 29.2679 51.8977 29.4622 51.7302C29.5992 51.6152 29.7325 51.4065 29.8621 51.104L29.9704 51.1564ZM30.4114 49.0263H33.371L33.5204 49.9564H33.3522C33.3224 49.7689 33.2725 49.6238 33.2028 49.5213C33.133 49.4188 33.0533 49.3513 32.9636 49.3188C32.874 49.2863 32.7208 49.27 32.504 49.27H32.2051V51.6552C32.2051 51.9102 32.22 52.0727 32.2499 52.1427C32.2822 52.2102 32.3334 52.2552 32.4031 52.2778C32.4729 52.3002 32.6323 52.3153 32.8814 52.3228V52.4615H31.0205V52.3228C31.2596 52.3177 31.4128 52.279 31.4801 52.2065C31.5498 52.134 31.5848 51.9502 31.5848 51.6552V49.27H31.2783C31.0641 49.27 30.9183 49.2838 30.8411 49.3113C30.7639 49.3363 30.6891 49.3988 30.6169 49.4988C30.5471 49.5963 30.4873 49.7489 30.4375 49.9564H30.2693L30.4114 49.0263ZM33.5653 49.3676L34.6191 48.94H34.761V49.7426C34.9379 49.44 35.1148 49.2288 35.2917 49.1088C35.4711 48.9863 35.6592 48.925 35.8559 48.925C36.1997 48.925 36.4862 49.0601 36.7154 49.3301C36.9969 49.6601 37.1377 50.0901 37.1377 50.6201C37.1377 51.2127 36.9683 51.7027 36.6294 52.0902C36.3505 52.4078 35.9992 52.5665 35.5757 52.5665C35.3913 52.5665 35.2319 52.5403 35.0974 52.4877C34.9977 52.4502 34.8856 52.3752 34.761 52.2627V53.309C34.761 53.5441 34.7748 53.6929 34.8021 53.7554C34.832 53.8204 34.8819 53.8716 34.9516 53.9091C35.0239 53.9466 35.1534 53.9654 35.3402 53.9654V54.1041H33.5466V53.9654H33.64C33.777 53.9678 33.8941 53.9416 33.9913 53.8866C34.0386 53.8591 34.0747 53.8141 34.0996 53.7516C34.127 53.6916 34.1407 53.5366 34.1407 53.2866V50.0389C34.1407 49.8163 34.1308 49.6751 34.1108 49.6151C34.0909 49.5551 34.0585 49.5101 34.0137 49.4801C33.9713 49.4501 33.9128 49.4351 33.8381 49.4351C33.7782 49.4351 33.7023 49.4525 33.6101 49.4876L33.5653 49.3676ZM34.761 49.9639V51.2464C34.761 51.524 34.7723 51.7065 34.7947 51.794C34.8296 51.939 34.9142 52.0665 35.0488 52.1765C35.1858 52.2865 35.3577 52.3415 35.5645 52.3415C35.8136 52.3415 36.0154 52.244 36.1698 52.049C36.3716 51.794 36.4726 51.4352 36.4726 50.9727C36.4726 50.4476 36.358 50.0439 36.1287 49.7613C35.9693 49.5663 35.78 49.4688 35.5608 49.4688C35.4412 49.4688 35.3228 49.4989 35.2057 49.5588C35.116 49.6038 34.9678 49.7388 34.761 49.9639ZM39.3126 48.925C39.8307 48.925 40.2468 49.1226 40.5607 49.5176C40.8272 49.8551 40.9605 50.2426 40.9605 50.6801C40.9605 50.9877 40.887 51.299 40.74 51.614C40.5931 51.929 40.39 52.1665 40.1309 52.3265C39.8743 52.4865 39.5879 52.5665 39.2714 52.5665C38.7557 52.5665 38.3459 52.3603 38.042 51.9477C37.7854 51.6002 37.6571 51.2102 37.6571 50.7777C37.6571 50.4626 37.7344 50.1501 37.8888 49.8401C38.0457 49.5275 38.2513 49.2976 38.5054 49.15C38.7595 49 39.0285 48.925 39.3126 48.925ZM39.1967 49.1688C39.0647 49.1688 38.9314 49.2088 38.7969 49.2888C38.6648 49.3663 38.5577 49.5038 38.4755 49.7013C38.3933 49.8988 38.3521 50.1526 38.3521 50.4626C38.3521 50.9627 38.4506 51.394 38.6474 51.7565C38.8467 52.119 39.1082 52.3002 39.4321 52.3002C39.6738 52.3002 39.8731 52.2003 40.0301 52.0003C40.187 51.8003 40.2655 51.4565 40.2655 50.9689C40.2655 50.3589 40.1347 49.8788 39.8731 49.5288C39.6962 49.2888 39.4707 49.1688 39.1967 49.1688ZM42.5337 51.404L44.0135 49.6864C44.0085 49.4938 43.9724 49.3601 43.9051 49.2851C43.8379 49.2101 43.722 49.1713 43.5576 49.1688V49.0263H45.1495V49.1688C44.9826 49.1688 44.8705 49.1863 44.8132 49.2213C44.7559 49.2538 44.711 49.295 44.6787 49.345C44.6463 49.395 44.6301 49.5576 44.6301 49.8326V51.6552C44.6301 51.9202 44.6438 52.079 44.6712 52.1315C44.6986 52.1815 44.741 52.2265 44.7983 52.2665C44.858 52.304 44.9751 52.3228 45.1495 52.3228V52.4615H43.4941V52.3228C43.7009 52.3228 43.8391 52.2852 43.9089 52.2102C43.9786 52.1328 44.0135 51.9477 44.0135 51.6552V50.0389L42.5337 51.7602C42.5387 51.9727 42.5686 52.119 42.6234 52.199C42.6782 52.279 42.7965 52.3203 42.9784 52.3228V52.4615H41.3977V52.3228C41.6194 52.3228 41.7615 52.2828 41.8237 52.2028C41.886 52.1203 41.9171 51.9377 41.9171 51.6552V49.8326C41.9171 49.565 41.9034 49.4076 41.876 49.3601C41.8486 49.3101 41.8062 49.2663 41.749 49.2288C41.6917 49.1888 41.5746 49.1688 41.3977 49.1688V49.0263H43.0531V49.1688C42.8862 49.1688 42.7741 49.1863 42.7168 49.2213C42.6595 49.2538 42.6147 49.295 42.5823 49.345C42.5499 49.395 42.5337 49.5576 42.5337 49.8326V51.404ZM45.5082 49.0263H48.4679L48.6173 49.9564H48.4491C48.4193 49.7689 48.3694 49.6238 48.2997 49.5213C48.2299 49.4188 48.1502 49.3513 48.0605 49.3188C47.9708 49.2863 47.8176 49.27 47.6009 49.27H47.3019V51.6552C47.3019 51.9102 47.3169 52.0727 47.3468 52.1427C47.3792 52.2102 47.4303 52.2552 47.5 52.2778C47.5697 52.3002 47.7292 52.3153 47.9783 52.3228V52.4615H46.1174V52.3228C46.3565 52.3177 46.5097 52.279 46.577 52.2065C46.6468 52.134 46.6816 51.9502 46.6816 51.6552V49.27H46.3752C46.1609 49.27 46.0152 49.2838 45.938 49.3113C45.8608 49.3363 45.786 49.3988 45.7138 49.4988C45.644 49.5963 45.5842 49.7489 45.5344 49.9564H45.3662L45.5082 49.0263ZM49.4843 50.3202C49.4818 50.8302 49.6051 51.2302 49.8542 51.5202C50.1034 51.8102 50.396 51.9552 50.7324 51.9552C50.9566 51.9552 51.1509 51.894 51.3153 51.7715C51.4822 51.6464 51.6217 51.4339 51.7338 51.1339L51.8497 51.2089C51.7974 51.5515 51.6454 51.864 51.3938 52.1465C51.1422 52.4265 50.8271 52.5665 50.4484 52.5665C50.0373 52.5665 49.6848 52.4065 49.3908 52.0865C49.0994 51.764 48.9536 51.3314 48.9536 50.7889C48.9536 50.2014 49.1031 49.7439 49.4021 49.4163C49.7035 49.0863 50.0809 48.9213 50.5343 48.9213C50.918 48.9213 51.2331 49.0488 51.4798 49.3038C51.7264 49.5563 51.8497 49.8951 51.8497 50.3202H49.4843ZM49.4843 50.1026H51.0687C51.0562 49.8826 51.0301 49.7276 50.9902 49.6376C50.9279 49.4976 50.8345 49.3876 50.7099 49.3075C50.5879 49.2275 50.4596 49.1875 50.325 49.1875C50.1183 49.1875 49.9327 49.2688 49.7682 49.4313C49.6063 49.5913 49.5116 49.8151 49.4843 50.1026ZM52.6606 49.0263H55.7211V49.1688C55.5517 49.1688 55.4383 49.1863 55.381 49.2213C55.3262 49.2538 55.2826 49.295 55.2502 49.345C55.2178 49.395 55.2016 49.5576 55.2016 49.8326V51.6552C55.2016 51.9202 55.2154 52.079 55.2427 52.1315C55.2702 52.1815 55.3125 52.2265 55.3698 52.2665C55.4296 52.304 55.5467 52.3228 55.7211 52.3228V52.4615H53.9498V52.3228C54.1416 52.3228 54.2737 52.3127 54.3459 52.2927C54.4206 52.2727 54.4792 52.2252 54.5216 52.1502C54.5639 52.0727 54.5851 51.9077 54.5851 51.6552V49.27H53.4453V50.7176C53.4453 51.2652 53.4204 51.6502 53.3706 51.8727C53.3233 52.0927 53.2274 52.2565 53.0829 52.364C52.9408 52.469 52.7777 52.5215 52.5933 52.5215C52.2744 52.5215 52.115 52.389 52.115 52.124C52.115 52.034 52.1399 51.9602 52.1898 51.9027C52.2421 51.8452 52.3093 51.8164 52.3915 51.8164C52.4787 51.8164 52.5597 51.8527 52.6344 51.9252C52.7316 52.0203 52.8051 52.0677 52.8549 52.0677C52.967 52.0677 53.048 51.974 53.0978 51.7865C53.1501 51.5964 53.1763 51.2652 53.1763 50.7927V50.0351C53.1763 49.6451 53.1476 49.4076 53.0903 49.3226C53.0355 49.2376 52.8923 49.1863 52.6606 49.1688V49.0263ZM57.1971 50.5564L57.6231 50.5489C58.6395 50.5489 59.1477 50.8639 59.1477 51.494C59.1477 51.7865 59.0232 52.0215 58.7741 52.199C58.5274 52.374 58.1712 52.4615 57.7053 52.4615H56.0611V52.3228C56.2828 52.3228 56.4248 52.2828 56.4872 52.2028C56.5494 52.1203 56.5805 51.9377 56.5805 51.6552V49.8326C56.5805 49.565 56.5669 49.4076 56.5394 49.3601C56.5121 49.3101 56.4697 49.2663 56.4124 49.2288C56.3551 49.1888 56.238 49.1688 56.0611 49.1688V49.0263H57.8511V49.1688C57.6045 49.1688 57.4525 49.1838 57.3952 49.2138C57.3379 49.2413 57.2906 49.2788 57.2532 49.3263C57.2158 49.3713 57.1971 49.54 57.1971 49.8326V50.5564ZM57.1971 52.1653C57.3291 52.2002 57.4612 52.2177 57.5932 52.2177C57.8424 52.2177 58.0441 52.1515 58.1986 52.019C58.3556 51.8865 58.434 51.719 58.434 51.5164C58.434 51.0364 58.1014 50.7964 57.4363 50.7964C57.379 50.7964 57.2993 50.7977 57.1971 50.8001V52.1653ZM60.6873 50.5601H62.1671V49.8326C62.1671 49.6151 62.1584 49.4738 62.141 49.4088C62.1236 49.3413 62.0799 49.2851 62.0102 49.24C61.9429 49.1926 61.8221 49.1688 61.6478 49.1688V49.0263H63.3031V49.1688C63.1487 49.1688 63.0353 49.1863 62.9631 49.2213C62.8933 49.2563 62.846 49.3075 62.8211 49.3751C62.7962 49.44 62.7838 49.5926 62.7838 49.8326V51.6552C62.7838 51.8727 62.7925 52.0165 62.8099 52.0865C62.8298 52.1565 62.8759 52.214 62.9481 52.259C63.0204 52.3015 63.1387 52.3228 63.3031 52.3228V52.4615H61.6478V52.3228C61.8545 52.3228 61.9928 52.2852 62.0625 52.2102C62.1323 52.1328 62.1671 51.9477 62.1671 51.6552V50.8039H60.6873V51.6552C60.6873 51.8727 60.6961 52.0165 60.7135 52.0865C60.7334 52.1565 60.7795 52.214 60.8518 52.259C60.924 52.3015 61.0424 52.3228 61.2068 52.3228V52.4615H59.5513V52.3228C59.7731 52.3228 59.9151 52.2828 59.9773 52.2028C60.0396 52.1203 60.0708 51.9377 60.0708 51.6552V49.8326C60.0708 49.6151 60.0608 49.4713 60.0409 49.4013C60.0234 49.3313 59.9786 49.2751 59.9063 49.2325C59.8341 49.19 59.7158 49.1688 59.5513 49.1688V49.0263H61.2068V49.1688C61.0523 49.1688 60.939 49.1863 60.8668 49.2213C60.797 49.2563 60.7496 49.3075 60.7247 49.3751C60.6998 49.44 60.6873 49.5926 60.6873 49.8326V50.5601ZM66.7225 49.1688V49.0263H68.445V49.1688C68.2933 49.1688 68.1823 49.1851 68.1126 49.2176C68.0429 49.2501 67.9939 49.3001 67.9668 49.3676C67.9416 49.4351 67.9293 49.5901 67.9293 49.8326V51.6552C67.9293 51.8902 67.9403 52.0427 67.9629 52.1128C67.9855 52.1802 68.0326 52.2328 68.1049 52.2703C68.1797 52.3052 68.2933 52.3228 68.445 52.3228V52.4615H66.7225V52.3228C66.9168 52.3153 67.0426 52.3028 67.1001 52.2852C67.1594 52.2653 67.2091 52.2165 67.2491 52.139C67.2891 52.0615 67.3091 51.9002 67.3091 51.6552V49.8326C67.3091 49.5901 67.2956 49.4338 67.2678 49.3638C67.2407 49.2938 67.1917 49.245 67.122 49.2176C67.0549 49.1875 66.9219 49.1713 66.7225 49.1688ZM64.7792 50.5564L65.2053 50.5489C66.2217 50.5489 66.7296 50.8639 66.7296 51.494C66.7296 51.7865 66.6051 52.0215 66.356 52.199C66.1094 52.374 65.7532 52.4615 65.2873 52.4615H63.6432V52.3228C63.8649 52.3228 64.007 52.2828 64.0692 52.2028C64.1315 52.1203 64.1626 51.9377 64.1626 51.6552V49.8326C64.1626 49.565 64.1489 49.4076 64.1215 49.3601C64.0941 49.3101 64.0517 49.2663 63.9945 49.2288C63.9372 49.1888 63.8201 49.1688 63.6432 49.1688V49.0263H65.4331V49.1688C65.1866 49.1688 65.0345 49.1838 64.9772 49.2138C64.92 49.2413 64.8726 49.2788 64.8353 49.3263C64.7979 49.3713 64.7792 49.54 64.7792 49.8326V50.5564ZM64.7792 52.1653C64.9112 52.2002 65.0433 52.2177 65.1756 52.2177C65.4247 52.2177 65.6261 52.1515 65.781 52.019C65.9378 51.8865 66.0159 51.719 66.0159 51.5164C66.0159 51.0364 65.6835 50.7964 65.0183 50.7964C64.961 50.7964 64.8813 50.7977 64.7792 50.8001V52.1653ZM69.4388 47.65C69.4388 47.5625 69.4627 47.4925 69.5098 47.4399C69.5601 47.3849 69.6221 47.3574 69.6969 47.3574C69.8615 47.3574 70.0073 47.5124 70.1338 47.8224C70.2061 47.9974 70.2887 48.1075 70.381 48.1525C70.4752 48.195 70.5675 48.2162 70.6572 48.2162C70.814 48.2162 70.9328 48.1825 71.0122 48.115C71.0922 48.0475 71.167 47.9262 71.2367 47.7512C71.3413 47.4912 71.4697 47.3612 71.6214 47.3612C71.6962 47.3612 71.7595 47.3887 71.8117 47.4437C71.864 47.4962 71.8905 47.5625 71.8905 47.6425C71.8905 47.8349 71.7646 48.0137 71.5129 48.1787C71.2613 48.3437 70.9786 48.4263 70.665 48.4263C70.2539 48.4263 69.946 48.3513 69.7415 48.2013C69.5401 48.0512 69.4388 47.8675 69.4388 47.65ZM69.9247 51.404L71.4045 49.6864C71.3994 49.4938 71.3639 49.3601 71.2961 49.2851C71.229 49.2101 71.1135 49.1713 70.9489 49.1688V49.0263H72.5403V49.1688C72.3738 49.1688 72.2616 49.1863 72.2041 49.2213C72.1473 49.2538 72.1021 49.295 72.0699 49.345C72.0376 49.395 72.0215 49.5576 72.0215 49.8326V51.6552C72.0215 51.9202 72.035 52.079 72.0621 52.1315C72.0899 52.1815 72.1318 52.2265 72.1893 52.2665C72.2493 52.304 72.3661 52.3228 72.5403 52.3228V52.4615H70.885V52.3228C71.0922 52.3228 71.2303 52.2852 71.3 52.2102C71.3697 52.1328 71.4045 51.9477 71.4045 51.6552V50.0389L69.9247 51.7602C69.9299 51.9727 69.9596 52.119 70.0144 52.199C70.0693 52.279 70.1874 52.3203 70.3694 52.3228V52.4615H68.7889V52.3228C69.0103 52.3228 69.1523 52.2828 69.2149 52.2028C69.2775 52.1203 69.3084 51.9377 69.3084 51.6552V49.8326C69.3084 49.565 69.2949 49.4076 69.2671 49.3601C69.24 49.3101 69.1974 49.2663 69.14 49.2288C69.0826 49.1888 68.9658 49.1688 68.7889 49.1688V49.0263H70.4442V49.1688C70.2771 49.1688 70.1655 49.1863 70.108 49.2213C70.0506 49.2538 70.0061 49.295 69.9731 49.345C69.9409 49.395 69.9247 49.5576 69.9247 49.8326V51.404ZM28.1207 56.5792V55.5029H28.2776C28.3225 55.5429 28.3723 55.5629 28.4271 55.5629C28.4695 55.5629 28.5616 55.5429 28.7036 55.5029C28.9403 55.4354 29.1333 55.4016 29.2828 55.4016C29.6117 55.4016 29.8857 55.4779 30.1049 55.6304C30.3267 55.7829 30.4375 55.9854 30.4375 56.238C30.4375 56.6255 30.1448 56.9067 29.5593 57.0817C30.242 57.2243 30.5832 57.5455 30.5832 58.0456C30.5832 58.3081 30.4737 58.5406 30.2544 58.7431C30.0352 58.9431 29.7163 59.0431 29.2978 59.0431C29.0238 59.0431 28.7821 58.9944 28.5728 58.8969C28.3661 58.7969 28.1406 58.6294 27.8965 58.3944L27.9936 58.2968C28.4022 58.6144 28.7896 58.7731 29.1558 58.7731C29.365 58.7731 29.5369 58.7019 29.6715 58.5594C29.806 58.4168 29.8732 58.2319 29.8732 58.0043C29.8732 57.5068 29.5531 57.243 28.9129 57.213V56.9955C29.2143 56.9955 29.4323 56.9155 29.5668 56.7555C29.7038 56.5929 29.7724 56.4192 29.7724 56.2342C29.7724 56.0717 29.7138 55.9292 29.5967 55.8067C29.4821 55.6842 29.3289 55.6229 29.1371 55.6229C28.6937 55.6229 28.3997 55.9417 28.2552 56.5792H28.1207ZM33.0122 58.4431C32.6609 58.7156 32.4405 58.8731 32.3508 58.9157C32.2162 58.9782 32.073 59.0094 31.921 59.0094C31.6844 59.0094 31.4888 58.9282 31.3344 58.7656C31.1824 58.6031 31.1064 58.3894 31.1064 58.1243C31.1064 57.9568 31.1438 57.8118 31.2185 57.6893C31.3207 57.5193 31.4975 57.3593 31.7491 57.2093C32.0033 57.0593 32.4243 56.8768 33.0122 56.6617V56.5267C33.0122 56.1842 32.9574 55.9492 32.8478 55.8217C32.7406 55.6942 32.5837 55.6304 32.3769 55.6304C32.22 55.6304 32.0954 55.6729 32.0033 55.7579C31.9086 55.843 31.8613 55.9404 31.8613 56.0505L31.8687 56.268C31.8687 56.383 31.8388 56.4717 31.7791 56.5342C31.7218 56.5967 31.6457 56.628 31.5511 56.628C31.4589 56.628 31.383 56.5955 31.3231 56.5305C31.2658 56.4655 31.2372 56.3767 31.2372 56.2642C31.2372 56.0492 31.3468 55.8517 31.566 55.6716C31.7853 55.4917 32.093 55.4016 32.489 55.4016C32.793 55.4016 33.0421 55.4529 33.2364 55.5554C33.3834 55.6329 33.4918 55.7542 33.5615 55.9192C33.6064 56.0267 33.6288 56.2467 33.6288 56.5792V57.7455C33.6288 58.0731 33.635 58.2743 33.6475 58.3493C33.6599 58.4218 33.6799 58.4706 33.7072 58.4956C33.7372 58.5206 33.7708 58.5331 33.8082 58.5331C33.848 58.5331 33.8829 58.5243 33.9128 58.5069C33.9651 58.4743 34.066 58.3831 34.2155 58.2331V58.4431C33.9365 58.8181 33.6699 59.0056 33.4158 59.0056C33.2937 59.0056 33.1966 58.9631 33.1243 58.8782C33.0521 58.7931 33.0147 58.6481 33.0122 58.4431ZM33.0122 58.1993V56.8905C32.636 57.0405 32.3931 57.1468 32.2835 57.2093C32.0867 57.3193 31.946 57.4343 31.8613 57.5543C31.7766 57.6743 31.7342 57.8056 31.7342 57.9481C31.7342 58.1281 31.7878 58.2781 31.8949 58.3981C32.002 58.5156 32.1253 58.5743 32.2648 58.5743C32.4542 58.5743 32.7033 58.4493 33.0122 58.1993ZM36.6444 57.123C37.2697 57.253 37.5824 57.5468 37.5824 58.0043C37.5824 58.3168 37.4516 58.5506 37.19 58.7056C36.9309 58.8606 36.5685 58.9381 36.1026 58.9381H34.4135V58.7994C34.6353 58.7994 34.7748 58.7582 34.832 58.6756C34.8918 58.5906 34.9217 58.4093 34.9217 58.1319V56.3092C34.9217 56.0392 34.908 55.8805 34.8806 55.8329C34.8557 55.7854 34.8146 55.7429 34.7573 55.7054C34.7025 55.6654 34.5879 55.6454 34.4135 55.6454V55.5029H35.9905C36.2944 55.5029 36.5398 55.5266 36.7266 55.5742C36.916 55.6217 37.0704 55.7154 37.19 55.8555C37.3121 55.9954 37.3731 56.1654 37.3731 56.3655C37.3731 56.7555 37.1302 57.008 36.6444 57.123ZM35.542 57.0367C35.6517 57.0393 35.7177 57.0405 35.7401 57.0405C36.0814 57.0405 36.3281 56.9755 36.48 56.8455C36.632 56.713 36.708 56.553 36.708 56.3655C36.708 56.1479 36.6307 55.9904 36.4762 55.893C36.3218 55.7954 36.0752 55.7467 35.7364 55.7467H35.542V57.0367ZM35.542 58.6344C35.6666 58.6743 35.8148 58.6944 35.9867 58.6944C36.2832 58.6944 36.5037 58.6294 36.6482 58.4993C36.7927 58.3694 36.8649 58.2018 36.8649 57.9968C36.8649 57.7668 36.7715 57.5905 36.5847 57.468C36.3978 57.3455 36.1387 57.2843 35.8074 57.2843C35.7252 57.2843 35.6367 57.2868 35.542 57.2918V58.6344ZM39.7647 55.4016C40.2829 55.4016 40.6989 55.5992 41.0128 55.9942C41.2794 56.3317 41.4126 56.7192 41.4126 57.1567C41.4126 57.4643 41.3391 57.7756 41.1922 58.0906C41.0452 58.4056 40.8422 58.6431 40.583 58.8031C40.3265 58.9631 40.04 59.0431 39.7236 59.0431C39.2079 59.0431 38.7981 58.8369 38.4942 58.4243C38.2376 58.0768 38.1093 57.6868 38.1093 57.2543C38.1093 56.9393 38.1865 56.6268 38.341 56.3167C38.4979 56.0042 38.7034 55.7742 38.9575 55.6266C39.2116 55.4766 39.4807 55.4016 39.7647 55.4016ZM39.6488 55.6454C39.5168 55.6454 39.3835 55.6854 39.2491 55.7654C39.117 55.843 39.0099 55.9805 38.9277 56.1779C38.8454 56.3755 38.8043 56.6292 38.8043 56.9393C38.8043 57.4393 38.9028 57.8706 39.0995 58.2331C39.2989 58.5956 39.5604 58.7769 39.8843 58.7769C40.1259 58.7769 40.3252 58.6769 40.4822 58.4769C40.6391 58.2769 40.7176 57.9331 40.7176 57.4455C40.7176 56.8355 40.5868 56.3555 40.3252 56.0055C40.1483 55.7654 39.9229 55.6454 39.6488 55.6454ZM42.3842 55.5029H45.4036V55.6454C45.2342 55.6454 45.1209 55.6629 45.0636 55.6979C45.0088 55.7304 44.9652 55.7717 44.9328 55.8217C44.9004 55.8717 44.8842 56.0342 44.8842 56.3092V58.0081C44.8842 58.3656 44.9141 58.5856 44.9739 58.6681C45.0362 58.7481 45.1794 58.7919 45.4036 58.7994V59.8907H45.2616C45.2516 59.6857 45.2006 59.5069 45.1084 59.3544C45.0187 59.2019 44.8929 59.0944 44.731 59.0319C44.569 58.9694 44.3299 58.9381 44.0135 58.9381H43.1316C42.8576 58.9381 42.6433 58.9619 42.4889 59.0094C42.3344 59.0594 42.2049 59.1619 42.1003 59.3169C41.9981 59.4719 41.9358 59.6632 41.9134 59.8907H41.7751V58.7994C41.9794 58.7919 42.165 58.7106 42.3319 58.5556C42.4988 58.4006 42.6458 58.0968 42.7729 57.6443C42.8999 57.1918 42.9635 56.7468 42.9635 56.3092C42.9635 55.8792 42.7704 55.6579 42.3842 55.6454V55.5029ZM43.2101 55.7467V55.9529C43.2101 57.1805 42.9884 58.0944 42.5449 58.6944H43.8155C44.0446 58.6944 44.1767 58.6756 44.2116 58.6381C44.2464 58.5981 44.2639 58.4543 44.2639 58.2069V55.7467H43.2101Z" fill="#766E6C"/>
<path fill-rule="evenodd" clip-rule="evenodd" d="M35.5138 0.0165198C32.0099 0.254086 28.8451 1.32279 25.9743 3.23777C22.158 5.78347 19.3518 9.62289 18.0863 14.0298C17.3853 16.471 17.168 19.0321 17.4464 21.5678C17.8632 25.3626 19.3724 28.923 21.8094 31.861C24.6457 35.2802 28.5605 37.6249 32.8765 38.4895C34.1755 38.7497 35.3098 38.8598 36.69 38.8597C38.3675 38.8596 39.7631 38.6921 41.335 38.3023C44.3837 37.5463 47.1169 36.1073 49.5202 33.9931C49.9224 33.6393 50.7788 32.7828 51.1392 32.3739C53.4699 29.73 55.0068 26.6435 55.6828 23.2496C55.9218 22.0497 56.0254 21.0543 56.0465 19.7549C56.0707 18.2668 55.9624 17.0266 55.6862 15.6281C54.4435 9.33526 50.1555 4.04443 44.2545 1.52276C42.3845 0.723638 40.4818 0.252344 38.3056 0.049224C37.8218 0.0040676 36.0105 -0.0171388 35.5138 0.0165198ZM35.7395 2.83261C30.6265 3.14021 26.0165 5.73731 23.0834 9.96265C20.7618 13.307 19.7599 17.4378 20.2743 21.5439C20.4239 22.7381 20.7102 23.9346 21.1165 25.0632C21.3302 25.657 21.7049 26.5414 21.7428 26.5414C21.7508 26.5414 22.6958 23.5122 23.8429 19.8097C24.99 16.1072 25.932 13.0744 25.9362 13.0701C25.9405 13.0659 27.3327 13.7972 29.0301 14.6953L32.1162 16.3283L32.1435 16.2644C32.1586 16.2293 33.187 13.2325 34.429 9.60482C35.6709 5.97717 36.7033 2.96347 36.7231 2.9077L36.7591 2.80632L36.4097 2.80982C36.2176 2.81173 35.916 2.82199 35.7395 2.83261ZM36.8148 2.83614C36.821 2.85255 37.866 5.89308 39.137 9.5929C40.408 13.2927 41.4512 16.3237 41.4553 16.3283C41.4593 16.333 42.7811 15.6446 44.3926 14.7986C46.004 13.9526 47.3659 13.2384 47.4191 13.2115L47.5157 13.1626L49.6287 19.7595L51.7417 26.3564L51.8306 26.1624C51.8795 26.0556 51.999 25.7672 52.0961 25.5214C53.5382 21.8699 53.6273 17.7362 52.3444 14.0008C50.7767 9.43578 47.2586 5.74504 42.7786 3.96552C41.1366 3.3133 39.406 2.93518 37.5842 2.83067C36.9995 2.79711 36.8007 2.79852 36.8148 2.83614ZM36.1677 15.5625C35.837 16.5169 35.5099 17.4602 35.4408 17.6586L35.3152 18.0193L36.0497 18.4062L36.7842 18.7931L37.4795 18.4301C37.862 18.2304 38.1826 18.06 38.1921 18.0516C38.2059 18.0393 36.8037 13.8618 36.7768 13.8347C36.7726 13.8305 36.4985 14.608 36.1677 15.5625ZM27.1391 21.3621C26.6377 22.984 26.2181 24.3301 26.2067 24.3534C26.1948 24.3774 25.2355 24.8727 23.9774 25.5044C22.7627 26.1142 21.7688 26.6202 21.7688 26.6289C21.7688 26.6607 22.1792 27.4344 22.3775 27.7765C22.7893 28.4868 23.4317 29.4117 23.9304 30.0123C24.6265 30.8505 25.4489 31.6664 26.3069 32.3701L26.5564 32.5747L26.5833 32.5101C26.6091 32.4481 30.8921 19.9411 30.9004 19.9036C30.9026 19.8936 30.4767 19.6649 29.9541 19.3953C29.4313 19.1258 28.7893 18.7946 28.5272 18.6592L28.0507 18.4131L27.1391 21.3621ZM44.036 19.1324C42.8557 19.7545 42.6754 19.8566 42.6839 19.898C42.696 19.9573 46.9784 32.4181 46.9911 32.4308C46.9961 32.4359 47.1529 32.3111 47.3395 32.1535C49.0689 30.6933 50.4888 28.8879 51.4949 26.8701C51.6129 26.6335 51.7006 26.4324 51.6899 26.4232C51.6792 26.4141 50.6865 25.9743 49.484 25.446L47.2976 24.4853L46.42 21.6788C45.9374 20.1352 45.5099 18.7693 45.4702 18.6435L45.3979 18.4146L44.036 19.1324ZM34.088 21.5613C34.0818 21.578 33.3984 23.5496 32.569 25.9427C31.7397 28.3358 31.0527 30.3016 31.0422 30.3112C31.0318 30.3209 30.0342 30.8305 28.8255 31.4437C27.6167 32.0569 26.619 32.5666 26.6082 32.5764C26.5678 32.6134 27.5454 33.2999 28.1958 33.6912C30.3018 34.9583 32.6129 35.7187 35.1456 35.9778C35.6439 36.0288 37.1713 36.0502 37.7278 36.014C40.9717 35.8029 43.9797 34.6961 46.5799 32.7567C46.7857 32.6031 46.9542 32.4697 46.9542 32.4602C46.9542 32.4507 45.9321 31.9767 44.6829 31.4067C43.4337 30.8369 42.4024 30.3533 42.3912 30.3322C42.3799 30.3112 41.7061 28.3359 40.8938 25.9427C40.0815 23.5497 39.4133 21.5877 39.4089 21.5829C39.4045 21.5781 38.8257 21.8777 38.1227 22.2486C37.4196 22.6195 36.8337 22.9224 36.8206 22.9219C36.8075 22.9214 36.2729 22.6503 35.6326 22.3195C34.0187 21.4859 34.1008 21.5261 34.088 21.5613Z" fill="#766E6C"/>
<path d="M9.64348 43.7208H6.99658L6.5327 44.8036C6.41841 45.0701 6.3613 45.2692 6.3613 45.4007C6.3613 45.5052 6.41002 45.5981 6.50747 45.679C6.60834 45.7566 6.82343 45.8072 7.15282 45.8308V46.018H5V45.8308C5.2857 45.7802 5.47057 45.7144 5.5546 45.6334C5.72602 45.4715 5.91592 45.1426 6.12432 44.6468L8.52928 39H8.70572L11.0854 44.7075C11.2771 45.1663 11.4501 45.4648 11.6048 45.6031C11.7627 45.738 11.9812 45.8139 12.2602 45.8308V46.018H9.56281V45.8308C9.83508 45.8173 10.0182 45.7718 10.1124 45.6942C10.2098 45.6166 10.2586 45.5222 10.2586 45.4108C10.2586 45.2624 10.1914 45.028 10.0569 44.7075L9.64348 43.7208ZM9.50234 43.3464L8.34271 40.5736L7.15282 43.3464H9.50234ZM12.8874 41.8436L14.3092 41.2668H14.5008V42.3496C14.7394 41.9414 14.9781 41.6564 15.2167 41.4945C15.4587 41.3292 15.7125 41.2465 15.978 41.2465C16.4418 41.2465 16.8283 41.4287 17.1376 41.793C17.5174 42.2383 17.7073 42.8185 17.7073 43.5336C17.7073 44.333 17.4788 44.9942 17.0216 45.5171C16.6452 45.9455 16.1712 46.1597 15.5999 46.1597C15.3511 46.1597 15.136 46.1243 14.9545 46.0534C14.8201 46.0028 14.6688 45.9016 14.5008 45.7498V47.1615C14.5008 47.4786 14.5192 47.6793 14.5562 47.7636C14.5965 47.8513 14.6638 47.9205 14.7579 47.9711C14.8554 48.0217 15.0301 48.047 15.2822 48.047V48.2342H12.8622V48.047H12.9882C13.1731 48.0504 13.3311 48.0149 13.4621 47.9408C13.526 47.9037 13.5747 47.8429 13.6084 47.7586C13.6454 47.6776 13.6638 47.4685 13.6638 47.1312V42.7493C13.6638 42.4491 13.6504 42.2585 13.6235 42.1776C13.5966 42.0966 13.5529 42.0359 13.4924 41.9954C13.4352 41.955 13.3562 41.9347 13.2554 41.9347C13.1748 41.9347 13.0722 41.9583 12.9479 42.0055L12.8874 41.8436ZM14.5008 42.6481V44.3786C14.5008 44.7531 14.5159 44.9993 14.5461 45.1174C14.5932 45.313 14.7075 45.485 14.8889 45.6334C15.0738 45.7819 15.3058 45.8561 15.5848 45.8561C15.9208 45.8561 16.1931 45.7245 16.4015 45.4614C16.6738 45.1174 16.8099 44.6333 16.8099 44.0092C16.8099 43.3009 16.6553 42.7561 16.3461 42.3749C16.1309 42.1118 15.8755 41.9802 15.5797 41.9802C15.4184 41.9802 15.2587 42.0207 15.1007 42.1017C14.9797 42.1624 14.7797 42.3445 14.5008 42.6481ZM19.0001 42.8353V41.3832H19.2118C19.2723 41.4372 19.3395 41.4642 19.4135 41.4642C19.4706 41.4642 19.595 41.4372 19.7866 41.3832C20.1059 41.2921 20.3663 41.2465 20.568 41.2465C21.0117 41.2465 21.3815 41.3495 21.6772 41.5552C21.9764 41.761 22.1259 42.0342 22.1259 42.3749C22.1259 42.8978 21.731 43.2772 20.9411 43.5134C21.8621 43.7057 22.3226 44.1391 22.3226 44.8137C22.3226 45.1679 22.1747 45.4817 21.8789 45.7549C21.5831 46.0247 21.1529 46.1597 20.5882 46.1597C20.2185 46.1597 19.8925 46.0939 19.6101 45.9624C19.3311 45.8274 19.0269 45.6014 18.6975 45.2843L18.8286 45.1528C19.3799 45.5812 19.9025 45.7953 20.3966 45.7953C20.6789 45.7953 20.9109 45.6992 21.0924 45.5069C21.2739 45.3147 21.3646 45.065 21.3646 44.7581C21.3646 44.0868 20.9327 43.731 20.0689 43.6904V43.397C20.4756 43.397 20.7697 43.2891 20.9512 43.0731C21.136 42.8539 21.2285 42.6195 21.2285 42.3699C21.2285 42.1506 21.1495 41.9583 20.9916 41.793C20.8369 41.6278 20.6302 41.5451 20.3714 41.5451C19.7731 41.5451 19.3765 41.9752 19.1815 42.8353H19.0001ZM26.116 45.3501C25.6421 45.7178 25.3446 45.9303 25.2236 45.9876C25.0421 46.072 24.8489 46.1141 24.6438 46.1141C24.3245 46.1141 24.0606 46.0045 23.8523 45.7852C23.6472 45.566 23.5447 45.2776 23.5447 44.92C23.5447 44.694 23.5951 44.4983 23.6959 44.333C23.8338 44.1037 24.0724 43.8878 24.4119 43.6854C24.7547 43.483 25.3227 43.2367 26.116 42.9467V42.7645C26.116 42.3024 26.042 41.9853 25.8942 41.8132C25.7496 41.6412 25.5379 41.5552 25.2589 41.5552C25.0472 41.5552 24.8791 41.6125 24.7547 41.7272C24.627 41.8419 24.5632 41.9735 24.5632 42.1219L24.5732 42.4154C24.5732 42.5706 24.5329 42.6903 24.4522 42.7746C24.3749 42.859 24.2724 42.9011 24.1447 42.9011C24.0203 42.9011 23.9178 42.8573 23.8371 42.7696C23.7598 42.6819 23.7212 42.5621 23.7212 42.4103C23.7212 42.1202 23.869 41.8537 24.1649 41.6109C24.4606 41.368 24.8757 41.2465 25.4102 41.2465C25.8202 41.2465 26.1563 41.3157 26.4185 41.454C26.6169 41.5586 26.763 41.7222 26.8571 41.9448C26.9177 42.0899 26.9479 42.3867 26.9479 42.8353V44.4089C26.9479 44.8508 26.9563 45.1224 26.9731 45.2236C26.9899 45.3214 27.0168 45.3872 27.0538 45.4209C27.0941 45.4547 27.1395 45.4715 27.1899 45.4715C27.2437 45.4715 27.2907 45.4597 27.3311 45.4361C27.4017 45.3923 27.5378 45.2692 27.7394 45.0667V45.3501C27.363 45.8561 27.0034 46.1091 26.6606 46.1091C26.4959 46.1091 26.3647 46.0517 26.2673 45.937C26.1698 45.8223 26.1194 45.6267 26.116 45.3501ZM26.116 45.0212V43.2553C25.6085 43.4577 25.2807 43.6011 25.1329 43.6854C24.8673 43.8338 24.6774 43.989 24.5632 44.1509C24.4489 44.3128 24.3917 44.4899 24.3917 44.6822C24.3917 44.9251 24.464 45.1275 24.6085 45.2894C24.753 45.4479 24.9194 45.5272 25.1076 45.5272C25.3631 45.5272 25.6992 45.3586 26.116 45.0212ZM31.5884 44.8087L33.0303 41.3832H34.5882V41.5754C34.3597 41.5754 34.2067 41.5991 34.1294 41.6463C34.0555 41.6901 33.9967 41.7458 33.953 41.8132C33.9093 41.8807 33.8874 42.1 33.8874 42.471V44.9301C33.8874 45.2506 33.9025 45.458 33.9328 45.5525C33.9664 45.6436 34.032 45.7127 34.1294 45.76C34.2303 45.8072 34.3832 45.8308 34.5882 45.8308V46.018H32.3547V45.8308C32.6304 45.8308 32.8152 45.7802 32.9093 45.679C33.0034 45.5744 33.0505 45.3248 33.0505 44.9301V42.1421L31.417 46.018H31.2405L29.5767 42.1421V44.9301C29.5767 45.2506 29.5935 45.458 29.6271 45.5525C29.6607 45.6436 29.7263 45.7127 29.8237 45.76C29.9212 45.8072 30.0724 45.8308 30.2775 45.8308V46.018H28.5129V45.8308C28.812 45.8308 29.0036 45.7768 29.0876 45.6688C29.1717 45.5576 29.2137 45.3113 29.2137 44.9301V42.471C29.2137 42.1101 29.1952 41.8976 29.1582 41.8335C29.1213 41.766 29.0641 41.707 28.9868 41.6564C28.9095 41.6024 28.7515 41.5754 28.5129 41.5754V41.3832H30.1363L31.5884 44.8087ZM38.2708 45.3501C37.7968 45.7178 37.4994 45.9303 37.3784 45.9876C37.1968 46.072 37.0036 46.1141 36.7985 46.1141C36.4792 46.1141 36.2154 46.0045 36.007 45.7852C35.802 45.566 35.6994 45.2776 35.6994 44.92C35.6994 44.694 35.7498 44.4983 35.8507 44.333C35.9885 44.1037 36.2271 43.8878 36.5667 43.6854C36.9095 43.483 37.4775 43.2367 38.2708 42.9467V42.7645C38.2708 42.3024 38.1968 41.9853 38.0489 41.8132C37.9044 41.6412 37.6927 41.5552 37.4137 41.5552C37.2019 41.5552 37.0338 41.6125 36.9095 41.7272C36.7817 41.8419 36.7179 41.9735 36.7179 42.1219L36.728 42.4154C36.728 42.5706 36.6877 42.6903 36.607 42.7746C36.5297 42.859 36.4271 42.9011 36.2994 42.9011C36.1751 42.9011 36.0725 42.8573 35.9918 42.7696C35.9145 42.6819 35.8759 42.5621 35.8759 42.4103C35.8759 42.1202 36.0238 41.8537 36.3196 41.6109C36.6154 41.368 37.0305 41.2465 37.5649 41.2465C37.975 41.2465 38.3111 41.3157 38.5732 41.454C38.7716 41.5586 38.9178 41.7222 39.0119 41.9448C39.0724 42.0899 39.1027 42.3867 39.1027 42.8353V44.4089C39.1027 44.8508 39.1111 45.1224 39.1279 45.2236C39.1447 45.3214 39.1715 45.3872 39.2085 45.4209C39.2489 45.4547 39.2942 45.4715 39.3447 45.4715C39.3984 45.4715 39.4455 45.4597 39.4858 45.4361C39.5564 45.3923 39.6925 45.2692 39.8942 45.0667V45.3501C39.5178 45.8561 39.1581 46.1091 38.8152 46.1091C38.6506 46.1091 38.5195 46.0517 38.422 45.937C38.3245 45.8223 38.2741 45.6267 38.2708 45.3501ZM38.2708 45.0212V43.2553C37.7632 43.4577 37.4355 43.6011 37.2876 43.6854C37.0221 43.8338 36.8322 43.989 36.7179 44.1509C36.6036 44.3128 36.5465 44.4899 36.5465 44.6822C36.5465 44.9251 36.6187 45.1275 36.7633 45.2894C36.9078 45.4479 37.0742 45.5272 37.2624 45.5272C37.5178 45.5272 37.854 45.3586 38.2708 45.0212ZM44.6809 44.2571C44.5565 44.8678 44.3128 45.3383 43.9498 45.6688C43.5868 45.996 43.1852 46.1597 42.7448 46.1597C42.2205 46.1597 41.7634 45.9387 41.3735 45.4968C40.9836 45.0549 40.7886 44.4578 40.7886 43.7057C40.7886 42.977 41.0037 42.385 41.4339 41.9296C41.8675 41.4743 42.3869 41.2465 42.9919 41.2465C43.4456 41.2465 43.8188 41.368 44.1112 41.6109C44.4036 41.8504 44.5498 42.1 44.5498 42.3597C44.5498 42.4879 44.5078 42.5925 44.4238 42.6734C44.3431 42.751 44.2288 42.7898 44.0809 42.7898C43.8826 42.7898 43.733 42.7257 43.6322 42.5976C43.5751 42.5267 43.5364 42.3917 43.5162 42.1928C43.4994 41.9938 43.4322 41.8419 43.3146 41.7373C43.1969 41.6362 43.0339 41.5855 42.8255 41.5855C42.4894 41.5855 42.2188 41.7104 42.0138 41.96C41.7415 42.2906 41.6054 42.7274 41.6054 43.2705C41.6054 43.8237 41.7398 44.3128 42.0088 44.7378C42.281 45.1595 42.6474 45.3703 43.1078 45.3703C43.4372 45.3703 43.733 45.2573 43.9952 45.0314C44.1801 44.8762 44.3599 44.5945 44.5346 44.1863L44.6809 44.2571ZM49.7852 44.2571C49.6608 44.8678 49.4172 45.3383 49.0542 45.6688C48.6911 45.996 48.2895 46.1597 47.8492 46.1597C47.3248 46.1597 46.8676 45.9387 46.4778 45.4968C46.0879 45.0549 45.8929 44.4578 45.8929 43.7057C45.8929 42.977 46.1081 42.385 46.5383 41.9296C46.9719 41.4743 47.4912 41.2465 48.0962 41.2465C48.5499 41.2465 48.923 41.368 49.2155 41.6109C49.5079 41.8504 49.6541 42.1 49.6541 42.3597C49.6541 42.4879 49.6121 42.5925 49.528 42.6734C49.4474 42.751 49.3331 42.7898 49.1852 42.7898C48.9869 42.7898 48.8373 42.7257 48.7365 42.5976C48.6793 42.5267 48.6407 42.3917 48.6205 42.1928C48.6037 41.9938 48.5365 41.8419 48.4189 41.7373C48.3012 41.6362 48.1382 41.5855 47.9298 41.5855C47.5937 41.5855 47.3231 41.7104 47.1181 41.96C46.8458 42.2906 46.7097 42.7274 46.7097 43.2705C46.7097 43.8237 46.8442 44.3128 47.113 44.7378C47.3853 45.1595 47.7516 45.3703 48.2122 45.3703C48.5415 45.3703 48.8373 45.2573 49.0995 45.0314C49.2843 44.8762 49.4642 44.5945 49.639 44.1863L49.7852 44.2571ZM55.6004 46.018H54.2391C53.8156 45.4007 53.4324 44.7682 53.0896 44.1205C53.0089 43.9721 52.935 43.8625 52.8677 43.7917C52.8039 43.7174 52.7148 43.6803 52.6005 43.6803C52.5602 43.6803 52.4963 43.6837 52.4089 43.6904V44.9301C52.4089 45.2641 52.4274 45.4783 52.4644 45.5727C52.5047 45.6638 52.5753 45.7296 52.6762 45.7701C52.777 45.8106 52.9467 45.8308 53.1854 45.8308V46.018H50.8762V45.8308C51.1754 45.8308 51.367 45.7768 51.451 45.6688C51.535 45.5576 51.577 45.3113 51.577 44.9301V42.471C51.577 42.1101 51.5586 41.8976 51.5216 41.8335C51.4846 41.766 51.4275 41.707 51.3502 41.6564C51.2729 41.6024 51.1149 41.5754 50.8762 41.5754V41.3832H53.1854V41.5754C52.9064 41.5754 52.7333 41.5957 52.666 41.6362C52.6022 41.6767 52.5434 41.7272 52.4896 41.788C52.4358 41.8453 52.4089 42.073 52.4089 42.471V43.3818C52.4862 43.3886 52.5383 43.3919 52.5652 43.3919C52.7703 43.3919 52.9619 43.3346 53.14 43.2199C53.3215 43.1018 53.4829 42.8539 53.624 42.4761C53.7551 42.1186 53.8626 41.8774 53.9467 41.7526C54.034 41.6278 54.1534 41.5265 54.3046 41.4489C54.4593 41.368 54.6206 41.3275 54.7887 41.3275C54.9702 41.3275 55.1147 41.3713 55.2223 41.459C55.3298 41.5468 55.3836 41.6614 55.3836 41.8031C55.3836 41.9212 55.3449 42.0224 55.2676 42.1067C55.1903 42.1877 55.0827 42.2281 54.945 42.2281C54.871 42.2281 54.7786 42.2079 54.6677 42.1675C54.5265 42.1169 54.4189 42.0915 54.345 42.0915C54.1904 42.0915 54.0626 42.2248 53.9618 42.4913C53.8475 42.7982 53.7635 42.9972 53.7097 43.0884C53.6559 43.1761 53.5534 43.2941 53.4022 43.4425C53.5064 43.4729 53.619 43.5505 53.74 43.6753C53.8643 43.8001 54.0929 44.156 54.4257 44.7429C54.6912 45.2118 54.8895 45.5086 55.0206 45.6334C55.155 45.7583 55.3483 45.824 55.6004 45.8308V46.018ZM57.9468 44.5911L59.9434 42.2737C59.9367 42.014 59.8879 41.8335 59.7971 41.7323C59.7064 41.6311 59.5501 41.5788 59.3283 41.5754V41.3832H61.4761V41.5754C61.2509 41.5754 61.0997 41.5991 61.0223 41.6463C60.945 41.6901 60.8845 41.7458 60.8408 41.8132C60.7971 41.8807 60.7753 42.1 60.7753 42.471V44.9301C60.7753 45.2877 60.7938 45.5019 60.8307 45.5727C60.8677 45.6402 60.9248 45.7009 61.0021 45.7549C61.0828 45.8055 61.2408 45.8308 61.4761 45.8308V46.018H59.2426V45.8308C59.5216 45.8308 59.7081 45.7802 59.8022 45.679C59.8963 45.5744 59.9434 45.3248 59.9434 44.9301V42.7493L57.9468 45.0718C57.9536 45.3586 57.9939 45.5559 58.0678 45.6638C58.1418 45.7718 58.3014 45.8274 58.5468 45.8308V46.018H56.4141V45.8308C56.7133 45.8308 56.9049 45.7768 56.9889 45.6688C57.0729 45.5576 57.1149 45.3113 57.1149 44.9301V42.471C57.1149 42.1101 57.0964 41.8976 57.0594 41.8335C57.0225 41.766 56.9654 41.707 56.888 41.6564C56.8107 41.6024 56.6527 41.5754 56.4141 41.5754V41.3832H58.6477V41.5754C58.4224 41.5754 58.2712 41.5991 58.1939 41.6463C58.1166 41.6901 58.0561 41.7458 58.0124 41.8132C57.9687 41.8807 57.9468 42.1 57.9468 42.471V44.5911ZM63.3335 39.5262C63.3335 39.4082 63.3654 39.3137 63.4293 39.2429C63.4965 39.1687 63.5805 39.1315 63.6814 39.1315C63.9032 39.1315 64.0998 39.3407 64.2713 39.7589C64.3689 39.9951 64.4799 40.1435 64.6038 40.2042C64.7315 40.2616 64.8561 40.2902 64.9768 40.2902C65.1891 40.2902 65.3485 40.2447 65.4563 40.1536C65.5634 40.0626 65.6647 39.899 65.7583 39.6628C65.8996 39.312 66.0726 39.1366 66.2778 39.1366C66.3785 39.1366 66.4643 39.1737 66.5353 39.2479C66.6056 39.3187 66.6411 39.4082 66.6411 39.5161C66.6411 39.7758 66.4714 40.017 66.132 40.2396C65.7925 40.4623 65.4105 40.5736 64.9871 40.5736C64.4328 40.5736 64.0175 40.4724 63.7418 40.27C63.4696 40.0676 63.3335 39.8197 63.3335 39.5262ZM63.9889 44.5911L65.9855 42.2737C65.979 42.014 65.93 41.8335 65.839 41.7323C65.7486 41.6311 65.5924 41.5788 65.3704 41.5754V41.3832H67.5182V41.5754C67.2929 41.5754 67.1419 41.5991 67.0645 41.6463C66.987 41.6901 66.9264 41.7458 66.8831 41.8132C66.8393 41.8807 66.8173 42.1 66.8173 42.471V44.9301C66.8173 45.2877 66.836 45.5019 66.8728 45.5727C66.9096 45.6402 66.967 45.7009 67.0445 45.7549C67.1251 45.8055 67.2826 45.8308 67.5182 45.8308V46.018H65.2846V45.8308C65.5634 45.8308 65.7499 45.7802 65.8441 45.679C65.9384 45.5744 65.9855 45.3248 65.9855 44.9301V42.7493L63.9889 45.0718C63.9957 45.3586 64.036 45.5559 64.11 45.6638C64.1838 45.7718 64.3437 45.8274 64.5889 45.8308V46.018H62.4562V45.8308C62.7554 45.8308 62.947 45.7768 63.031 45.6688C63.115 45.5576 63.157 45.3113 63.157 44.9301V42.471C63.157 42.1101 63.1385 41.8976 63.1015 41.8335C63.0646 41.766 63.0074 41.707 62.9301 41.6564C62.8528 41.6024 62.6948 41.5754 62.4562 41.5754V41.3832H64.6896V41.5754C64.4644 41.5754 64.3134 41.5991 64.236 41.6463C64.1587 41.6901 64.0981 41.7458 64.0544 41.8132C64.0108 41.8807 63.9889 42.1 63.9889 42.471V44.5911Z" fill="#766E6C"/>
</svg>
