<svg width="110" height="22" viewBox="0 0 110 22" fill="none" xmlns="http://www.w3.org/2000/svg">
<path fill-rule="evenodd" clip-rule="evenodd" d="M6.46248 0.191014C6.42727 0.293203 5.96232 2.03933 5.42943 4.07124C4.89655 6.10316 3.88592 9.93 3.18376 12.5753C1.19812 20.055 0.961055 20.9875 0.959663 21.3234C0.95841 21.6251 1.00546 21.637 2.18454 21.637H3.41081L3.62574 20.7657C3.84889 19.8609 7.73358 5.16855 7.86652 4.72648C7.94893 4.45197 7.74903 4.29374 10.5636 6.86267C13.8144 9.82962 14.4003 10.3424 14.531 10.3346C14.6076 10.33 16.0797 9.01922 17.8024 7.42171C19.525 5.8242 20.9722 4.55807 21.0183 4.60784C21.0644 4.65775 22.086 8.43133 23.2886 12.9936C24.4912 17.5558 25.5009 21.367 25.5322 21.4628C25.6026 21.678 28.1036 21.7133 28.1036 21.4992C28.1036 21.3347 24.5328 7.76508 23.0805 2.40988C22.7807 1.30449 22.5354 0.316482 22.5354 0.214154C22.5354 0.111966 22.4974 0.0283203 22.451 0.0283203C22.3433 0.0283203 21.6813 0.578715 20.7953 1.40528C20.4125 1.76232 19.0343 3.02134 17.7328 4.20313C16.4312 5.38477 15.1662 6.53757 14.9218 6.76467L14.4771 7.1776L11.4416 4.40736C9.77197 2.88374 8.0415 1.29083 7.59618 0.867576C6.68883 0.00517868 6.5545 -0.0749823 6.46248 0.191014ZM35.858 6.07388C34.2589 6.52432 33.5137 8.18359 34.2155 9.7312C34.6529 10.6955 35.6124 11.1826 37.0684 11.1793C38.3876 11.1763 38.5441 11.1022 38.5441 10.4791V9.94896L38.0271 10.092C36.5874 10.49 35.4816 9.81972 35.4816 8.54899C35.4816 7.2724 36.4792 6.64101 37.8571 7.04544L38.5441 7.24717V6.71964C38.5441 6.35591 38.4721 6.1645 38.312 6.10302C37.8098 5.91008 36.4953 5.89446 35.858 6.07388ZM38.9617 6.50425V6.98563L39.8317 7.02704L40.7018 7.06858L40.7403 9.1249L40.7788 11.1812H41.4712H42.1635V9.09004V6.99888H43.0683H43.9731V6.51094V6.023H41.4674H38.9617V6.50425ZM45.009 7.03373C44.7996 7.5897 44.4427 8.51497 44.2156 9.09004C43.9887 9.66512 43.7188 10.371 43.6158 10.6584L43.4287 11.1812H44.1297C44.8195 11.1812 44.8343 11.1721 45.0516 10.6181L45.2725 10.055L46.3161 10.0953L47.3597 10.1356L47.5226 10.6236C47.6778 11.0881 47.7201 11.1136 48.4046 11.1536C48.9069 11.183 49.1238 11.1436 49.1238 11.0228C49.1238 10.9278 48.7009 9.76451 48.1841 8.43802L47.2445 6.02607L46.317 6.02453L45.3896 6.023L45.009 7.03373ZM50.5158 7.77484C50.5158 9.69091 50.4111 10.0659 49.876 10.0659C49.555 10.0659 49.5283 10.1112 49.5678 10.5887C49.6099 11.0978 49.6267 11.1126 50.214 11.1549C51.4427 11.2434 51.8869 10.5741 52.0067 8.45349L52.089 6.99888H52.6908H53.2926L53.331 9.05519L53.3696 11.1115L54.0308 11.154L54.692 11.1965V8.60977V6.023H52.6039H50.5158V7.77484ZM55.6665 8.61995V11.217L57.1629 11.1533C59.225 11.0658 59.8426 10.6871 59.8426 9.51079C59.8426 8.44736 59.1448 7.83674 57.9286 7.8359C57.1209 7.83534 57.1702 7.91383 57.1628 6.6155L57.1594 6.023H56.4129H55.6665V8.61995ZM6.68911 13.7255C5.67959 17.7319 4.81568 21.1508 4.76918 21.3234C4.68593 21.632 4.70515 21.637 5.95703 21.637C7.1503 21.637 7.23661 21.6175 7.3431 21.3234C7.40561 21.1508 8.00879 18.7826 8.68366 16.0606C9.35853 13.3386 9.94807 11.0693 9.99359 11.0177C10.0391 10.966 10.6715 11.463 11.3989 12.1218C12.1262 12.7808 13.0908 13.6544 13.5425 14.063C13.9941 14.4716 14.4326 14.8051 14.517 14.8042C14.6012 14.8033 14.9834 14.5044 15.3663 14.1401C15.7491 13.7757 16.7171 12.8866 17.5175 12.1645L18.9728 10.8512L20.1771 15.6517C20.8393 18.2919 21.4554 20.7187 21.546 21.0445L21.7109 21.637H22.9584C23.7295 21.637 24.2059 21.5817 24.2059 21.4921C24.2059 21.2573 20.4697 6.55653 20.3897 6.47636C20.3494 6.43621 19.7357 6.92945 19.0256 7.57241C18.3155 8.21538 17.0257 9.38462 16.1595 10.1705C15.2933 10.9563 14.5412 11.598 14.4881 11.5962C14.4352 11.5946 13.1076 10.4348 11.5381 9.01908C9.96853 7.6035 8.64844 6.4443 8.60445 6.44319C8.56046 6.44207 7.69864 9.71907 6.68911 13.7255ZM45.9386 7.99051C45.7764 8.47176 45.6436 8.91592 45.6436 8.97768C45.6436 9.03944 45.9255 9.09004 46.27 9.09004C46.6966 9.09004 46.8965 9.03121 46.8965 8.90574C46.8965 8.65884 46.4688 7.37738 46.3377 7.23155C46.2805 7.16784 46.1009 7.5094 45.9386 7.99051ZM57.1977 9.49991C57.1977 10.1507 57.2235 10.2053 57.5303 10.2053C57.7132 10.2053 58.0096 10.0864 58.1887 9.94115C58.4688 9.71391 58.4951 9.62092 58.3757 9.27895C58.2611 8.95077 58.1456 8.8734 57.7172 8.83771L57.1977 8.79435V9.49991ZM10.3078 13.5101C10.2259 13.9544 9.81165 15.9177 9.38693 17.8729C8.96235 19.8282 8.61489 21.4749 8.61475 21.5325C8.61475 21.5901 9.22921 21.637 9.98023 21.637H11.3457L12.7798 20.4544L14.214 19.2719L14.8597 19.8354C15.2149 20.1453 15.8277 20.6794 16.2217 21.0224L16.9379 21.6458L18.633 21.6067L20.3283 21.5673L18.23 19.7076C17.0761 18.6847 16.1352 17.8064 16.1394 17.7558C16.1436 17.7052 16.8029 17.1376 17.6044 16.4944C18.626 15.6749 19.041 15.2579 18.9924 15.1003C18.9544 14.9767 18.8259 14.4086 18.7071 13.8378C18.5882 13.2671 18.4633 12.7724 18.4295 12.7387C18.3957 12.7048 17.8806 13.1125 17.2848 13.6445C14.1113 16.4783 12.2343 18.0147 12.2377 17.7759C12.2397 17.6376 12.3633 16.9912 12.5125 16.3394C12.6618 15.6877 12.7837 15.029 12.7837 14.8756C12.7836 14.7019 12.3888 14.2554 11.7359 13.6906C11.1596 13.1922 10.636 12.7659 10.5723 12.7433C10.5085 12.7207 10.3895 13.0658 10.3078 13.5101ZM104.389 13.3567C103.358 13.5445 103.414 13.4821 103.414 14.4464V15.3362L104.063 15.1408C105.519 14.7018 106.894 15.0414 106.894 15.8401C106.894 16.367 106.402 16.6803 105.453 16.7577L104.597 16.8274L104.554 17.4409C104.5 18.193 104.623 18.2863 105.676 18.2891C106.854 18.2922 107.353 18.887 106.82 19.6503C106.393 20.2601 105.016 20.3573 103.64 19.8746C103.344 19.7705 103.077 19.6853 103.049 19.6853C103.02 19.6853 102.997 20.0907 102.997 20.586V21.4869L103.519 21.6206C105.122 22.0313 106.985 21.9111 108.144 21.3223C109.697 20.5328 109.81 18.3764 108.338 17.6198L107.82 17.3539L108.222 17.1603C109.06 16.7568 109.506 15.5438 109.104 14.7618C108.843 14.2529 108.382 13.8169 107.869 13.5929C107.387 13.3825 105.099 13.2272 104.389 13.3567ZM33.983 17.5593L34.0199 21.7068L35.1683 21.7472L36.3168 21.7877V18.7847C36.3168 17.1331 36.3637 15.7857 36.4212 15.7906C36.4787 15.7953 36.9641 16.3239 37.5 16.9654C38.036 17.6067 38.5417 18.136 38.6239 18.1416C38.7061 18.1472 39.2386 17.6044 39.8071 16.9357L40.841 15.7195L40.8786 18.748L40.916 21.7765H42.0966H43.2771V17.5941V13.4118H41.9183H40.5597L39.9694 14.1525C39.6448 14.56 39.1998 15.0655 38.9804 15.276L38.5815 15.6585L37.6459 14.5352L36.7103 13.4118H35.3283H33.9461L33.983 17.5593ZM44.6692 17.5997V21.7877L45.8176 21.7472L46.9661 21.7068L47.0357 18.7169L47.1053 15.7271L48.1493 16.939C48.7235 17.6057 49.2369 18.1512 49.2901 18.1514C49.3433 18.1516 49.8403 17.6343 50.3943 17.0016C50.9485 16.369 51.4531 15.8306 51.5156 15.8051C51.5783 15.7794 51.6295 17.1151 51.6295 18.7731V21.7877L52.7779 21.7472L53.9264 21.7068L53.9633 17.5593L54.0002 13.4118H52.618H51.2359L50.3009 14.5343L49.366 15.657L49.0631 15.3719C48.8966 15.2152 48.4506 14.7105 48.0719 14.2503L47.3837 13.4137L46.0264 13.4128L44.6692 13.4118V17.5997ZM55.388 17.5997V21.7877L56.5365 21.7472L57.6849 21.7068L57.7546 19.6567L57.8242 17.6067L59.2768 19.6916L60.7295 21.7765H62.1653C62.955 21.7765 63.6012 21.7441 63.6012 21.7047C63.6012 21.6651 62.8808 20.6716 62.0003 19.4968C61.1199 18.3221 60.3995 17.3145 60.3995 17.2577C60.3995 17.2008 61.0572 16.3485 61.8611 15.3635C62.6651 14.3786 63.3228 13.5366 63.3228 13.4922C63.3228 13.448 62.7106 13.4118 61.9622 13.4118H60.6017L59.1781 15.3195L57.7546 17.2272V15.3195V13.4118H56.5713H55.388V17.5997ZM67.7774 17.5941V21.7765H68.9607H70.1439L70.1471 18.7443L70.1503 15.7121L70.7394 16.3394C71.0634 16.6845 71.5843 17.262 71.8969 17.6228L72.4653 18.279L73.5667 16.9955L74.6681 15.7121L74.7057 18.7443L74.7431 21.7765H75.9238H77.1042V17.5941V13.4118H75.7401H74.3759L73.5696 14.3811C73.1263 14.9144 72.6832 15.4172 72.5852 15.4986C72.4499 15.6111 72.1774 15.3782 71.4509 14.5293L70.4948 13.4118H69.1362H67.7774V17.5941ZM78.4963 17.5969V21.782L81.4544 21.7444L84.4125 21.7068L84.4543 20.9051L84.4961 20.1035H82.6794H80.8628V19.1974V18.2912H82.4706H84.0784L84.0367 17.4896L83.9949 16.688L82.4289 16.6485L80.8628 16.609V15.8469V15.0847H82.6029H84.3429V14.2483V13.4118H81.4196H78.4963V17.5969ZM84.9279 14.2786L84.9694 15.1455L86.2918 15.1678C87.0192 15.1801 87.6612 15.1978 87.7187 15.2071C87.7762 15.2165 87.8231 16.7009 87.8231 18.5059V21.7877L88.9715 21.7472L90.12 21.7068L90.1573 18.4654C90.1779 16.6827 90.2406 15.2152 90.2965 15.2045C90.3526 15.1936 90.9622 15.1751 91.6513 15.1634L92.9041 15.142L92.9456 14.277L92.9869 13.4118H88.9367H84.8865L84.9279 14.2786ZM93.6698 17.5941V21.7765H95.0512H96.4327L98.0094 19.1752L99.586 16.5739L99.6556 19.1403L99.7252 21.7068H100.839H101.953L101.989 17.5543L102.026 13.4016L100.684 13.4416L99.3423 13.4815L97.7241 16.1431L96.1059 18.8046L96.0681 16.1083L96.0304 13.4118H94.8501H93.6698V17.5941ZM63.3228 18.57V19.4152L64.9585 19.3761L66.5941 19.3368V18.57V17.8032L64.9585 17.7639L63.3228 17.7248V18.57Z" fill="#766E6C"/>
</svg>
