<svg width="88" height="25" viewBox="0 0 88 25" fill="none" xmlns="http://www.w3.org/2000/svg">
<path fill-rule="evenodd" clip-rule="evenodd" d="M7.49675 1.3528C4.4955 2.39055 2.1505 4.48855 0.79625 7.3473C0.0387501 8.94605 0 9.17455 0 12.028C0 14.8848 0.03825 15.1088 0.80025 16.7178C1.901 19.041 3.76725 20.949 6.03675 22.0705C7.63225 22.859 8.15125 22.9868 10.1803 23.0898C11.4563 23.1546 12.8938 23.104 13.375 22.9781C14.2128 22.7583 14.2532 22.6953 14.324 21.4983L14.3978 20.2478L18.6647 18.267C22.4327 16.5175 23.013 16.1675 23.6297 15.2713C24.5782 13.8925 24.9425 12.4428 24.6585 11.1778C24.4188 10.1115 23.3772 8.15705 22.827 7.74105C22.647 7.6053 20.672 6.6638 18.4375 5.6488L14.375 3.80355V2.59705C14.375 1.53205 14.2997 1.36205 13.7337 1.1468C12.674 0.74405 8.89675 0.86855 7.49675 1.3528ZM67.9193 3.3138C68.107 4.26755 69.8785 4.40605 70.2282 3.49455C70.4632 2.8823 70.2062 2.7753 69.4587 3.17355C68.939 3.4503 68.7702 3.45955 68.6882 3.21555C68.5305 2.74555 67.825 2.83555 67.9193 3.3138ZM8.42625 4.3613C4.95025 5.60205 2.62175 9.12705 2.9425 12.6635C3.1995 15.4965 4.98425 18.0578 7.58925 19.3321C8.7805 19.9148 9.311 20.0205 11 20.0118C13.503 19.999 15.352 19.1988 16.8738 17.47C18.4525 15.6765 18.9535 14.3733 18.9662 12.028C18.9753 10.3485 18.8678 9.80205 18.2955 8.6173C17.496 6.9623 15.8115 5.31805 14.173 4.5933C12.5275 3.8653 10.091 3.76705 8.42625 4.3613ZM28.875 4.90305C28.4385 5.33955 28.375 5.7363 28.375 8.02805C28.375 11.1828 28.6505 11.653 30.5 11.653C31.9665 11.653 32.625 11.0333 32.625 9.65305C32.625 8.6768 32.6043 8.65305 31.75 8.65305C30.9167 8.65305 30.875 8.6948 30.875 9.52805C30.875 10.1483 30.7633 10.403 30.491 10.403C30.167 10.403 30.118 10.022 30.1785 7.96555C30.251 5.49455 30.6815 4.58155 30.8268 6.59055C30.9013 7.6198 30.9305 7.65305 31.7643 7.65305C32.6178 7.65305 32.625 7.64355 32.625 6.52805C32.625 5.7363 32.4767 5.2548 32.125 4.90305C31.7733 4.5513 31.2917 4.40305 30.5 4.40305C29.7083 4.40305 29.2267 4.5513 28.875 4.90305ZM33.375 8.0438V11.6848L34.1675 11.6063C34.8722 11.5368 35.0075 11.3895 35.3895 10.278L35.819 9.02805L35.9095 10.278C35.9965 11.48 36.0288 11.528 36.75 11.528H37.5V8.02805V4.52805L36.737 4.4533C36.0117 4.38255 35.9497 4.45055 35.487 5.8283L35 7.27805L34.925 5.84055C34.8515 4.4323 34.835 4.40305 34.1125 4.40305H33.375V8.0438ZM38.3672 4.52805C38.363 4.5968 38.3552 6.20005 38.35 8.09055L38.3408 11.528L39.233 11.6055L40.125 11.6833V10.168C40.125 9.3248 40.2357 8.65305 40.375 8.65305C40.514 8.65305 40.625 9.3198 40.625 10.153V11.653H41.5H42.375V8.02805V4.40305H41.5H40.625V5.65305C40.625 6.34055 40.5125 6.90305 40.375 6.90305C40.2375 6.90305 40.125 6.34055 40.125 5.65305V4.40305H39.25C38.7687 4.40305 38.3715 4.4593 38.3672 4.52805ZM43.7648 4.7023C43.6497 5.0598 42.875 10.8656 42.875 11.3698C42.875 11.5791 43.1862 11.6575 43.8125 11.6055C44.5655 11.5433 44.7658 11.4173 44.83 10.9655C44.9405 10.1858 45.625 10.2398 45.625 11.028C45.625 11.5755 45.7332 11.653 46.5 11.653C47.5495 11.653 47.5397 11.7518 46.915 7.52805L46.4715 4.52805L45.1705 4.4523C44.2675 4.3998 43.8372 4.4763 43.7648 4.7023ZM47.875 7.99905V11.653H48.75H49.625V10.153V8.65305H50.4912C51.5375 8.65305 51.875 8.15055 51.875 6.5923C51.875 4.93505 51.4803 4.5743 49.5303 4.4503L47.875 4.3448V7.99905ZM52.875 4.90305C52.4385 5.33955 52.375 5.7363 52.375 8.02805C52.375 11.1748 52.653 11.653 54.4818 11.653C55.3797 11.653 55.6865 11.5288 56.1068 10.9943C56.398 10.6243 56.625 9.9668 56.625 9.4943C56.625 8.70255 56.5745 8.65305 55.7658 8.65305C54.984 8.65305 54.8997 8.7243 54.8283 9.4463C54.7853 9.88255 54.6095 10.2858 54.4375 10.342C54.202 10.4193 54.125 9.85355 54.125 8.0488C54.125 6.0858 54.1927 5.65305 54.5 5.65305C54.7707 5.65305 54.875 5.9308 54.875 6.65305C54.875 7.6293 54.8957 7.65305 55.75 7.65305C56.6152 7.65305 56.625 7.6408 56.625 6.57155C56.625 5.76455 56.4783 5.3523 56.0465 4.94655C55.275 4.22205 53.5793 4.1988 52.875 4.90305ZM57.375 8.02805V11.653H58.25H59.125V10.153C59.125 7.86955 59.7475 8.25505 59.9325 10.653C59.9937 11.4483 60.077 11.5353 60.8438 11.6088L61.6878 11.6893L61.576 10.1435C61.494 9.0123 61.347 8.5323 61.027 8.3533C60.6113 8.12055 60.6112 8.0933 61.0267 7.78955C61.3342 7.56455 61.4963 7.01205 61.5755 5.91855L61.6878 4.3668L60.8438 4.4473C60.0238 4.5258 59.9935 4.5683 59.772 5.96555C59.6467 6.7563 59.4497 7.40305 59.3345 7.40305C59.2192 7.40305 59.125 6.72805 59.125 5.90305V4.40305H58.25H57.375V8.02805ZM62.125 8.0438V11.6848L62.93 11.6063C63.6688 11.5345 63.77 11.4145 64.157 10.153L64.5785 8.77805L64.6643 10.153C64.748 11.495 64.768 11.528 65.5 11.528H66.25V8.02805V4.52805L65.487 4.4533C64.7617 4.38255 64.6998 4.45055 64.237 5.8283L63.75 7.27805L63.675 5.84055C63.6015 4.4323 63.585 4.40305 62.8625 4.40305H62.125V8.0438ZM66.9908 4.71205C66.9185 4.9003 66.891 6.51105 66.9297 8.2913L67 11.528L67.798 11.6053C68.547 11.6778 68.6143 11.616 68.889 10.6053C69.3842 8.7848 69.4883 8.7253 69.5705 10.2155C69.6483 11.6228 69.6655 11.653 70.3875 11.653H71.125V8.0123V4.3713L70.3325 4.4498C69.6348 4.5188 69.4927 4.66805 69.145 5.6978C68.5887 7.34505 68.4238 7.3833 68.4645 5.8553C68.4985 4.58255 68.4717 4.5248 67.811 4.4488C67.3975 4.4013 67.0695 4.50655 66.9908 4.71205ZM49.625 6.52805C49.625 7.0093 49.7375 7.40305 49.875 7.40305C50.0125 7.40305 50.125 7.0093 50.125 6.52805C50.125 6.0468 50.0125 5.65305 49.875 5.65305C49.7375 5.65305 49.625 6.0468 49.625 6.52805ZM45.0625 7.23605C44.764 7.96505 44.8247 9.3033 45.142 8.98605C45.289 8.83905 45.3732 8.2823 45.3295 7.74855C45.2707 7.0318 45.201 6.8978 45.0625 7.23605ZM6.125 8.02805V8.90305H8.11925H10.1135L10.1818 13.3405L10.25 17.778L11.0625 17.8563L11.875 17.9348V13.4188V8.90305H13.875H15.875V8.02805V7.15305H11H6.125V8.02805ZM57.9375 15.7155C57.9948 15.8875 58.3605 16.028 58.75 16.028C59.1395 16.028 59.5052 15.8875 59.5625 15.7155C59.6333 15.5035 59.3722 15.403 58.75 15.403C58.1278 15.403 57.8667 15.5035 57.9375 15.7155ZM78.9425 16.3473C77.7905 16.5315 77.375 17.5075 77.375 20.028C77.375 21.984 77.454 22.436 77.8932 22.9943C78.5965 23.8885 80.2767 23.9308 81.0815 23.0745C81.5648 22.56 81.625 22.2185 81.625 19.9973C81.625 18.391 81.5135 17.3473 81.3125 17.0748C80.9518 16.5858 79.7527 16.2178 78.9425 16.3473ZM26.375 17.153C26.375 17.7363 26.486 17.903 26.875 17.903C27.346 17.903 27.375 18.0698 27.375 20.778V23.653H28.25H29.125V20.778V17.903H29.75C30.2778 17.903 30.375 17.7863 30.375 17.153V16.403H28.375H26.375V17.153ZM30.7342 16.7288C30.6655 16.9078 30.641 18.511 30.6797 20.2913L30.75 23.528H31.625H32.5L32.575 22.0905C32.6473 20.7073 32.6758 20.653 33.3375 20.653C34.3498 20.653 34.625 20.2178 34.625 18.6173C34.625 17.4168 34.5337 17.1175 34.0692 16.7923C33.372 16.3038 30.9152 16.257 30.7342 16.7288ZM34.875 16.6925C34.875 16.8518 35.11 18.2101 35.3973 19.7113C35.892 22.2976 35.8965 22.4573 35.484 22.7588C34.7455 23.299 35.2992 23.7265 36.5542 23.585C37.167 23.516 37.7832 23.3448 37.9235 23.2045C38.0638 23.0643 38.3317 21.7295 38.5187 20.2388C39.0047 16.3643 39.0085 16.403 38.1543 16.403C37.3135 16.403 37.1468 16.7995 37.1035 18.903C37.0815 19.9708 37.0305 20.1385 36.875 19.653C36.765 19.3093 36.6637 18.6153 36.65 18.111C36.6363 17.6066 36.5568 17.0161 36.4733 16.7985C36.2978 16.3408 34.875 16.2465 34.875 16.6925ZM39.375 20.028V23.653H41C43.1702 23.653 43.625 23.2265 43.625 21.1918C43.625 19.496 43.1828 18.903 41.9178 18.903C41.2388 18.903 41.125 18.8133 41.125 18.278C41.125 17.7305 41.2332 17.653 42 17.653C42.7668 17.653 42.875 17.5756 42.875 17.028C42.875 16.4208 42.825 16.403 41.125 16.403H39.375V20.028ZM44.2342 16.7288C44.1655 16.9078 44.141 18.511 44.1797 20.2913L44.25 23.528H45.125H46L46.075 22.0905C46.1743 20.1861 46.625 20.2373 46.625 22.153V23.653H47.5H48.375V20.028V16.403H47.5H46.625V17.653C46.625 18.3405 46.5125 18.903 46.375 18.903C46.2375 18.903 46.125 18.3405 46.125 17.653V16.403H45.2422C44.7475 16.403 44.3042 16.5463 44.2342 16.7288ZM49.2342 16.7288C49.1655 16.9078 49.141 18.511 49.1797 20.2913L49.25 23.528H51.0503C52.1295 23.528 52.972 23.4063 53.154 23.2243C53.3208 23.0573 53.509 22.2993 53.572 21.5398C53.7227 19.7203 53.2337 18.903 51.9943 18.903H51.125V17.653V16.403H50.2422C49.7475 16.403 49.3042 16.5463 49.2342 16.7288ZM54.125 20.028V23.6833L55.0625 23.6055L56 23.528V20.028V16.528L55.0625 16.4506L54.125 16.3728V20.028ZM56.6805 19.9493L56.75 23.528L57.5262 23.6038C58.2605 23.6753 58.3203 23.6143 58.6258 22.4788C59.1053 20.6966 59.375 20.6123 59.375 22.2445C59.375 23.6698 59.3828 23.6853 60.0625 23.607L60.75 23.528V20.028V16.528H60C59.327 16.528 59.2115 16.6481 58.875 17.6975C58.33 19.3973 58.0715 19.4711 58.156 17.903L58.23 16.528L57.4205 16.4493L56.611 16.3703L56.6805 19.9493ZM63.425 16.703C63.26 16.868 63.125 17.3743 63.125 17.828C63.125 18.6043 63.1768 18.653 64 18.653C64.7667 18.653 64.875 18.5756 64.875 18.028C64.875 17.6843 64.9875 17.403 65.125 17.403C65.2625 17.403 65.375 17.7968 65.375 18.278C65.375 18.9863 65.2797 19.153 64.875 19.153C64.5475 19.153 64.375 19.3198 64.375 19.6363C64.375 19.9021 64.6 20.1908 64.875 20.278C65.276 20.4053 65.375 20.6563 65.375 21.5448C65.375 22.8906 64.9362 23.0273 64.8275 21.7155C64.7568 20.8595 64.6793 20.7713 63.9375 20.6998C63.1295 20.6218 63.125 20.6275 63.125 21.748C63.125 23.083 63.7235 23.653 65.125 23.653C66.632 23.653 67.125 23.107 67.125 21.4388C67.125 20.649 67.0027 19.8808 66.8532 19.7313C66.6575 19.5356 66.6575 19.4125 66.8532 19.2915C67.3063 19.0115 67.1762 17.2771 66.6677 16.8168C66.125 16.3255 63.8813 16.2468 63.425 16.703ZM68.36 16.8405C68.3518 17.0813 68.1483 18.6588 67.9078 20.3465C67.6673 22.0343 67.524 23.4688 67.5895 23.534C67.6547 23.5996 68.0755 23.653 68.5242 23.653C69.1705 23.653 69.3568 23.5401 69.42 23.1101C69.5305 22.3605 70.0683 22.2463 70.1683 22.951C70.2345 23.4193 70.4268 23.5428 71.1875 23.6055C72.2978 23.6975 72.2663 23.9638 71.625 19.903C71.3535 18.1843 71.13 16.6935 71.1283 16.5905C71.1265 16.4875 70.5062 16.403 69.75 16.403C68.6127 16.403 68.3725 16.4788 68.36 16.8405ZM72.4955 16.6998C72.4205 16.8948 72.391 18.511 72.4297 20.2913L72.5 23.528H74.3002C75.3355 23.528 76.224 23.4045 76.391 23.2373C76.5508 23.0773 76.7383 22.4436 76.8075 21.8291C76.9103 20.9163 76.8355 20.6136 76.3985 20.1765C75.9495 19.7276 75.9247 19.6183 76.2442 19.4956C76.731 19.309 76.7545 17.6758 76.2803 17.0271C75.8268 16.4068 72.7113 16.1375 72.4955 16.6998ZM83.0545 18.6325C82.9727 19.897 82.7305 21.257 82.5013 21.74C82.2605 22.2475 82.1255 23.045 82.1718 23.6885C82.2373 24.5993 82.3422 24.791 82.8125 24.858C83.2705 24.923 83.375 24.8186 83.375 24.2955C83.375 23.6778 83.432 23.653 84.8575 23.653C86.2048 23.653 86.3475 23.7045 86.42 24.2155C86.4725 24.5848 86.6718 24.778 87 24.778C87.4202 24.778 87.5123 24.5858 87.577 23.571C87.6193 22.9073 87.5285 22.2128 87.3747 22.0278C87.2015 21.819 87.1143 20.7138 87.1442 19.1098L87.193 16.528L85.1965 16.456L83.2002 16.3841L83.0545 18.6325ZM32.625 18.528C32.625 19.0093 32.7375 19.403 32.875 19.403C33.0125 19.403 33.125 19.0093 33.125 18.528C33.125 18.0468 33.0125 17.653 32.875 17.653C32.7375 17.653 32.625 18.0468 32.625 18.528ZM74.375 18.403C74.375 18.8155 74.4875 19.153 74.625 19.153C74.7625 19.153 74.875 18.8155 74.875 18.403C74.875 17.9905 74.7625 17.653 74.625 17.653C74.4875 17.653 74.375 17.9905 74.375 18.403ZM79.2767 18.0485C79.1932 18.2661 79.125 19.1568 79.125 20.028C79.125 21.6965 79.2817 22.403 79.6517 22.403C79.7745 22.403 79.875 21.3343 79.875 20.028C79.875 17.8338 79.6478 17.0818 79.2767 18.0485ZM84.7835 19.6603C84.6937 20.6268 84.593 21.5483 84.56 21.708C84.527 21.8678 84.697 22.0413 84.9375 22.094C85.3275 22.1793 85.375 21.9575 85.375 20.0463C85.375 18.8675 85.2788 17.903 85.161 17.903C85.0433 17.903 84.8733 18.6938 84.7835 19.6603ZM69.6507 20.0155C69.6318 20.928 69.6985 21.1795 69.9047 20.9733C70.1037 20.7743 70.1112 20.4178 69.9305 19.7358L69.6768 18.778L69.6507 20.0155ZM41.125 21.153C41.125 21.703 41.2375 22.153 41.375 22.153C41.5125 22.153 41.625 21.703 41.625 21.153C41.625 20.6031 41.5125 20.153 41.375 20.153C41.2375 20.153 41.125 20.6031 41.125 21.153ZM51.125 21.2928C51.125 21.989 51.2223 22.3725 51.375 22.278C51.5125 22.1931 51.625 21.6803 51.625 21.1383C51.625 20.5963 51.5125 20.153 51.375 20.153C51.2375 20.153 51.125 20.666 51.125 21.2928ZM74.375 21.4178C74.375 22.0305 74.474 22.3713 74.625 22.278C74.7625 22.1931 74.875 21.7365 74.875 21.2633C74.875 20.7901 74.7625 20.403 74.625 20.403C74.4875 20.403 74.375 20.8598 74.375 21.4178Z" fill="#766E6C"/>
</svg>
