<svg width="98" height="16" viewBox="0 0 98 16" fill="none" xmlns="http://www.w3.org/2000/svg">
<g clip-path="url(#clip0_143_1427)">
<path d="M16.1102 0.390625H0.955078V3.39027H16.1102V0.390625Z" fill="#766E6C"/>
<path d="M16.1102 6.39014H0.955078V9.38984H16.1102V6.39014Z" fill="#766E6C"/>
<path d="M16.1102 12.3892H0.955078V15.3889H16.1102V12.3892Z" fill="#766E6C"/>
<path d="M75.0031 3.39289L77.3969 9.38634H72.6023L75.0031 3.39289ZM72.6806 0.39209L66.8627 15.3904H70.3373L71.4751 12.384L78.5312 12.387L79.6688 15.3904H83.1248L76.9687 0.39209H72.6806Z" fill="#766E6C"/>
<path d="M22.1708 0.39209V15.3904H34.6048V12.3926L25.2103 12.3874V9.38959H34.6048V6.38414H25.2103V3.39394L34.6048 3.38389V0.39209H22.1708Z" fill="#766E6C"/>
<mask id="mask0_143_1427" style="mask-type:luminance" maskUnits="userSpaceOnUse" x="0" y="0" width="98" height="16">
<path d="M97.9551 0.390137H0.955078V15.3901H97.9551V0.390137Z" fill="white"/>
</mask>
<g mask="url(#mask0_143_1427)">
<path d="M85.2256 15.3785H91.1018H93.434C95.8816 15.3785 97.9551 13.7318 97.9551 10.9267C97.9551 9.77059 97.5068 8.63619 96.1082 7.88534C97.7273 6.95294 97.9551 6.00004 97.9551 4.84394C97.9551 2.40384 95.8816 0.39209 93.4341 0.39209H91.1019H85.2256V3.44229H93.2929C94.1163 3.44229 94.7837 4.10284 94.7837 4.91769C94.7837 5.73254 94.1163 6.39314 93.2929 6.39314H91.6822H86.7369V9.37744H91.6822H93.2929C94.1163 9.37744 94.7837 10.038 94.7837 10.8528C94.7837 11.6677 94.1163 12.3283 93.2929 12.3283H85.2256L85.2256 15.3785Z" fill="#766E6C"/>
</g>
<mask id="mask1_143_1427" style="mask-type:luminance" maskUnits="userSpaceOnUse" x="0" y="0" width="98" height="16">
<path d="M97.9551 0.390137H0.955078V15.3901H97.9551V0.390137Z" fill="white"/>
</mask>
<g mask="url(#mask1_143_1427)">
<path d="M62.6713 0.39209H60.3391H54.3112V15.3904H57.3438V9.37744H60.9194H62.6713C65.1785 9.37744 67.211 7.36599 67.211 4.88474C67.211 2.40349 65.1785 0.39209 62.6713 0.39209ZM62.5301 6.39314H57.3397V3.44229H62.5301C63.3535 3.44229 64.0209 4.10284 64.0209 4.91769C64.0209 5.73254 63.3535 6.39314 62.5301 6.39314Z" fill="#766E6C"/>
</g>
<mask id="mask2_143_1427" style="mask-type:luminance" maskUnits="userSpaceOnUse" x="0" y="0" width="98" height="16">
<path d="M97.9551 0.500977H0.955078V15.501H97.9551V0.500977Z" fill="white"/>
</mask>
<g mask="url(#mask2_143_1427)">
<path d="M49.2127 7.88529C50.8316 6.95289 51.0595 6.00004 51.0595 4.84394C51.0595 2.40384 48.986 0.39209 46.5385 0.39209L46.5386 0.39214C46.5378 0.39214 46.5373 0.39209 46.5366 0.39209H38.2523V15.3785H46.6881C49.1357 15.3785 51.2092 13.7318 51.2092 10.9267C51.2093 9.77059 50.6112 8.63629 49.2127 7.88529ZM41.2807 3.44234H46.3954C47.2188 3.44234 47.8862 4.10289 47.8862 4.91774C47.8862 5.73259 47.2188 6.39319 46.3954 6.39319H44.8604H41.2807V3.44234ZM46.547 12.3283H41.2807V9.37744H46.5469C47.3703 9.37744 48.0378 10.038 48.0378 10.8529C48.0378 11.6677 47.3703 12.3283 46.547 12.3283Z" fill="#766E6C"/>
</g>
</g>
<defs>
<clipPath id="clip0_143_1427">
<rect width="97" height="15" fill="white" transform="translate(0.955078 0.390625)"/>
</clipPath>
</defs>
</svg>
