<svg width="44" height="71" viewBox="0 0 44 71" fill="none" xmlns="http://www.w3.org/2000/svg">
<path fill-rule="evenodd" clip-rule="evenodd" d="M0.934843 22.4136V43.9366L22.425 43.9201L43.9151 43.9038L43.9314 22.3972L43.9478 0.890625H22.4413H0.934843V22.4136ZM1.69404 1.6504C1.67016 1.67424 1.65064 2.477 1.65064 3.4343V5.17481L2.15495 5.46305C3.16448 6.03996 8.84263 9.37676 8.89657 9.42469C8.92709 9.45184 8.87666 9.58515 8.78445 9.72093C8.69225 9.85664 8.62626 9.97725 8.63784 9.98878C8.64936 10.0004 9.25623 10.1129 9.98634 10.2389C12.6425 10.6974 15.2561 11.3528 17.7761 12.1922C19.9012 12.9001 21.3718 13.4961 23.9568 14.6971L24.5614 14.978L25.1281 14.671C25.4398 14.5022 26.008 14.2118 26.3907 14.0256C26.9968 13.7308 27.0869 13.6661 27.0889 13.5243C27.092 13.2958 26.8716 12.3265 26.7156 11.8825L26.5849 11.5105L27.9944 10.9553C28.7697 10.6498 32.4933 9.18829 36.2691 7.70735L43.1342 5.01475L43.1516 3.31089L43.1689 1.60697H41.9945H40.8201L36.5762 4.07321C34.242 5.42964 30.9142 7.36377 29.181 8.37127C27.4479 9.37878 26.0232 10.2031 26.015 10.2031C26.0068 10.2031 25.9132 10.0492 25.807 9.8612C25.4934 9.3061 24.8429 8.46752 24.2913 7.90734L23.7766 7.38454L26.574 4.53603C28.1126 2.96932 29.3714 1.66897 29.3714 1.6463C29.3714 1.62364 28.4857 1.61283 27.403 1.62227L25.4346 1.63953L24.0048 4.0893L22.5751 6.53912L21.9876 6.22647C21.2441 5.83086 20.542 5.55324 19.8378 5.3765C19.5339 5.30024 19.2852 5.21005 19.2852 5.17618C19.2852 5.14226 19.4756 4.37459 19.7082 3.47031C19.9408 2.56596 20.1312 1.77616 20.1312 1.71507C20.1312 1.61387 20.0262 1.6056 18.9436 1.62175L17.756 1.63953L17.7387 3.34899L17.7214 5.05844L17.1205 5.05883C16.4407 5.05929 15.5308 5.18426 14.7632 5.38262C14.358 5.48734 14.2363 5.4988 14.2124 5.43426C14.1955 5.38874 13.9459 4.5163 13.6576 3.49551L13.1335 1.63953L11.6869 1.62201C10.8912 1.61237 10.2402 1.61641 10.2402 1.631C10.2402 1.64559 10.8112 2.65674 11.5091 3.87797C12.207 5.09921 12.778 6.11101 12.778 6.12638C12.778 6.14175 12.5901 6.25949 12.3605 6.38797C11.8086 6.69685 11.0352 7.27813 10.4469 7.82646L9.97026 8.27053L9.14541 7.45793C8.69172 7.011 7.15953 5.51169 5.74056 4.12615L3.16058 1.60697H2.44901C2.0576 1.60697 1.71786 1.6265 1.69404 1.6504ZM6.72628 3.88956C9.17905 6.30729 10.045 7.12737 10.045 7.03262C10.045 7.00051 9.01747 5.76665 7.76171 4.29059L5.47845 1.60697L4.94733 1.6097L4.41621 1.6125L6.72628 3.88956ZM6.70676 1.69417C6.83489 1.90887 10.7189 6.42601 10.7753 6.42601C10.8594 6.42601 10.839 6.39566 9.03635 3.82998L7.47461 1.60723L7.06466 1.6071C6.73968 1.60697 6.6655 1.62501 6.70676 1.69417ZM8.58845 1.68479C8.67851 1.83125 11.4265 5.73903 11.4844 5.80298C11.5147 5.83646 11.5553 5.84798 11.5746 5.82858C11.5939 5.80923 11.0747 4.85878 10.4207 3.71647L9.23156 1.63953L8.88388 1.61967C8.61103 1.60404 8.54739 1.61804 8.58845 1.68479ZM14.0795 1.7154C14.0795 1.82461 14.7928 4.41634 14.8367 4.46694C14.9358 4.58084 14.9015 4.25327 14.7 3.16085C14.3883 1.47099 14.4285 1.60697 14.2409 1.60697C14.1337 1.60697 14.0795 1.64337 14.0795 1.7154ZM15.3167 1.68837C15.3183 1.839 15.7705 4.23276 15.8036 4.2659C15.8905 4.35284 15.8894 4.15168 15.797 3.06916C15.6699 1.57903 15.676 1.60697 15.4773 1.60697C15.3884 1.60697 15.3162 1.64363 15.3167 1.68837ZM16.5542 1.81862C16.5552 1.93505 16.5983 2.45518 16.6498 2.97453C16.7013 3.49388 16.7444 3.98471 16.7455 4.06533C16.7466 4.14595 16.7767 4.21185 16.8125 4.21185C16.8537 4.21185 16.8776 3.73431 16.8776 2.90941V1.60697H16.7149C16.5743 1.60697 16.5525 1.63575 16.5542 1.81862ZM21.0853 1.65581C21.0689 1.68271 20.8897 2.34519 20.6871 3.12803C20.3675 4.36274 20.3035 4.71258 20.4185 4.59718C20.4673 4.54821 21.4326 1.78605 21.4326 1.6954C21.4326 1.60293 21.1378 1.56933 21.0853 1.65581ZM22.3162 1.88374C21.8138 3.22923 21.2534 4.90482 21.2925 4.94409C21.3335 4.98518 22.8642 1.77778 22.8642 1.65099C22.8642 1.62677 22.7641 1.60697 22.6419 1.60697C22.4398 1.60697 22.41 1.6323 22.3162 1.88374ZM22.9982 3.46699C22.5233 4.48993 22.1525 5.34465 22.1741 5.36634C22.1958 5.38803 22.2263 5.39297 22.2419 5.37728C22.2831 5.33612 24.4259 1.66095 24.4259 1.63158C24.4259 1.61804 24.299 1.60697 24.1438 1.60697H23.8616L22.9982 3.46699ZM28.6842 3.60947C25.293 7.08335 24.9275 7.46803 25.0194 7.4662C25.1096 7.46444 31.8578 1.77349 31.8984 1.66493C31.9104 1.63302 31.6319 1.60697 31.2796 1.60697H30.6391L28.6842 3.60947ZM33.1119 1.79413C33.0051 1.89709 31.7466 2.97245 30.315 4.18385C25.8499 7.96224 25.6623 8.12394 25.6623 8.19505C25.6623 8.23321 25.7428 8.21185 25.8413 8.14764C26.2903 7.85459 34.9459 1.78019 35.0304 1.69879C35.1126 1.6196 35.0005 1.60697 34.2158 1.60697H33.3058L33.1119 1.79413ZM31.4251 5.29907C28.5282 7.32912 26.1934 9.00185 26.2368 9.01631C26.3054 9.03916 38.8037 1.82278 38.9664 1.66642C39.0037 1.63048 38.5664 1.60723 37.8601 1.60755L36.6921 1.60814L31.4251 5.29907ZM41.1495 6.87841C40.0579 7.29819 37.4225 8.30986 35.293 9.12649C27.1926 12.2329 27.4874 12.1164 27.5549 12.1839C27.5698 12.1988 28.7972 11.805 30.2825 11.3087C34.5484 9.88341 39.8247 8.22377 42.1907 7.56304C42.6739 7.42811 43.0923 7.29754 43.1206 7.27292C43.1489 7.2483 43.1636 6.97772 43.1532 6.67158L43.1342 6.11505L41.1495 6.87841ZM1.65064 6.76744V7.31818L2.08988 7.50293C2.33143 7.60459 3.68356 8.18046 5.09453 8.78265C7.55719 9.83365 7.98556 9.9949 7.76509 9.78807C7.66169 9.6911 1.93683 6.32663 1.75892 6.25832C1.6632 6.22152 1.65064 6.28046 1.65064 6.76744ZM1.65064 8.85832V9.46721L3.13103 9.50361C3.94522 9.52367 4.61846 9.53325 4.62705 9.52491C4.64982 9.50283 1.78592 8.24943 1.71259 8.24943C1.67777 8.24943 1.65064 8.51617 1.65064 8.85832ZM42.2883 8.58233C40.3286 8.99905 36.7273 9.98578 33.9986 10.8537C31.1406 11.7628 27.8097 13.008 27.8097 13.1673C27.8097 13.2318 28.1256 13.1464 28.9322 12.8637C32.4134 11.6437 35.5136 10.8334 38.8574 10.2696C40.1551 10.0508 41.7828 9.8345 42.6125 9.77068L43.1668 9.72802V9.08638C43.1668 8.33799 43.24 8.38 42.2883 8.58233ZM2.31763 10.5681L1.65064 10.9304V11.3157C1.65064 11.5275 1.66112 11.7009 1.67393 11.7009C1.68675 11.7009 2.32069 11.3965 3.08268 11.0245C4.63726 10.2655 4.61169 10.3169 3.47266 10.2391L2.98462 10.2058L2.31763 10.5681ZM5.8478 10.5958C5.77622 10.6278 5.34889 10.815 4.8982 11.0118C4.44758 11.2086 3.53247 11.6344 2.86469 11.9581L1.65064 12.5468V13.0086V13.4705L2.71717 12.9143C4.40313 12.035 7.17137 10.7892 7.43927 10.7892C7.47656 10.7892 7.50715 10.7646 7.50715 10.7345C7.50715 10.6814 6.43072 10.5242 6.12813 10.5331C6.04556 10.5355 5.91938 10.5637 5.8478 10.5958ZM41.4424 10.8281C27.9045 12.1523 16.2816 19.3099 10.0979 30.1305C9.39125 31.367 8.30474 33.6204 8.37924 33.695C8.39356 33.7093 8.54934 33.6478 8.72543 33.5586C9.2082 33.3137 9.77166 33.1912 10.4148 33.1912C11.5394 33.1912 12.4484 33.5676 13.2324 34.358C13.508 34.6358 13.8128 35.0226 13.9293 35.2423C14.0601 35.489 14.1484 35.5969 14.1691 35.5353C14.401 34.8449 15.1498 32.9169 15.4473 32.2439C18.2714 25.8557 22.9468 20.5447 28.9159 16.9441C30.0106 16.2839 32.3748 15.1076 33.5035 14.6616C35.7335 13.7806 37.9398 13.1645 40.2385 12.7809C41.089 12.6389 42.8059 12.42 43.0854 12.4179C43.1463 12.4174 43.1668 12.2042 43.1668 11.5707V10.7241L42.7601 10.7315C42.5364 10.7356 41.9434 10.779 41.4424 10.8281ZM8.35309 11.1374C8.01308 11.2566 7.39815 11.4954 6.98657 11.6683C6.06599 12.0548 2.874 13.663 2.92488 13.7147C2.94519 13.7354 3.23697 13.7985 3.57326 13.855L4.18475 13.9578L5.01624 13.5036C6.3594 12.7701 8.39265 11.7994 9.19903 11.5068C9.61061 11.3574 10.0048 11.213 10.075 11.1859C10.1652 11.1509 10.0289 11.1046 9.61022 11.0279C9.28434 10.9683 9.00726 10.9198 8.9945 10.9201C8.98175 10.9205 8.69309 11.0182 8.35309 11.1374ZM10.3346 11.9843C8.05707 12.8435 5.42483 14.0141 5.42483 14.1678C5.42483 14.1932 5.67159 14.2741 5.9732 14.3477L6.52156 14.4813L7.35598 14.0738C8.36988 13.5785 10.639 12.6008 11.9582 12.0908C12.6076 11.8397 12.8869 11.7037 12.8041 11.6789C12.6829 11.6426 11.8057 11.4391 11.7816 11.4417C11.7749 11.4424 11.1237 11.6866 10.3346 11.9843ZM13.6565 12.2533C12.4834 12.5647 11.1867 13.0766 9.19304 14.0155C8.53503 14.3255 7.90845 14.6247 7.80069 14.6806L7.60476 14.7821L8.13158 14.9594L8.65841 15.1367L9.56317 14.6909C11.2342 13.8676 13.5753 12.9188 14.8603 12.5442C15.517 12.3527 15.517 12.3436 14.8603 12.1915C14.3297 12.0686 14.3575 12.0672 13.6565 12.2533ZM16.3211 12.7775C15.4493 12.9689 13.7581 13.5736 12.2249 14.2422C11.2798 14.6543 9.80921 15.3856 9.75761 15.4691C9.73711 15.5023 9.91261 15.6066 10.1477 15.7008L10.5751 15.872L11.8229 15.2558C13.6509 14.3532 15.6421 13.5972 17.163 13.2284C17.5168 13.1426 17.8173 13.0614 17.8306 13.0481C17.8439 13.0347 17.637 12.9604 17.3706 12.883C17.1043 12.8055 16.8478 12.7307 16.8006 12.7166C16.7535 12.7025 16.5377 12.73 16.3211 12.7775ZM42.4394 13.3207C42.0572 13.379 41.7272 13.4444 41.7059 13.466C41.6847 13.4877 41.7315 13.6734 41.8101 13.8788L41.9529 14.2521L42.2182 14.2172C42.3641 14.1981 42.6372 14.1634 42.8251 14.1403L43.1668 14.0982V13.6484C43.1668 13.4011 43.1595 13.2023 43.1505 13.2067C43.1415 13.2111 42.8216 13.2625 42.4394 13.3207ZM18.4718 13.6293C17.2988 13.8395 15.6361 14.3578 14.1771 14.9678C13.3466 15.315 12.0043 15.9882 11.7413 16.1894L11.5831 16.3104L11.9272 16.4849L12.2713 16.6594L13.1591 16.204C15.3456 15.0826 17.7638 14.3169 20.0986 14.0067L20.424 13.9635L19.7758 13.7439C19.4192 13.6231 19.0971 13.5269 19.06 13.5302C19.0228 13.5334 18.7582 13.578 18.4718 13.6293ZM39.9143 13.6976C39.6465 13.7503 39.4191 13.8016 39.409 13.8117C39.3952 13.8256 39.6954 14.5379 39.7465 14.6123C39.7516 14.6198 40.0181 14.5716 40.3388 14.5053C40.7521 14.4199 40.9164 14.3591 40.9031 14.2964C40.8928 14.2478 40.8358 14.0689 40.7764 13.8988C40.6534 13.5468 40.6662 13.5498 39.9143 13.6976ZM37.7007 14.1898C37.4323 14.2638 37.2034 14.3318 37.1922 14.341C37.1367 14.3862 37.5881 15.1598 37.6556 15.1354C37.6983 15.1199 37.9382 15.0542 38.1887 14.9893C38.4393 14.9244 38.6677 14.8509 38.6965 14.826C38.7252 14.8012 38.6755 14.6153 38.5862 14.413C38.4004 13.9927 38.4087 13.9948 37.7007 14.1898ZM1.65064 14.7291C1.65064 14.8903 1.67257 15.0224 1.69944 15.0227C1.79601 15.0237 2.75687 14.6067 2.75687 14.5637C2.75687 14.5213 2.11974 14.436 1.80375 14.436C1.66567 14.436 1.65064 14.4647 1.65064 14.7291ZM20.1637 14.5721C19.3358 14.7174 18.069 15.0182 17.27 15.2593C16.0904 15.6153 14.2177 16.4246 13.4039 16.9301L13.1515 17.087L13.528 17.2911L13.9045 17.4952L14.8542 17.0201C16.6788 16.1073 19.4928 15.3368 22.1753 15.0155L22.8204 14.9383L22.2078 14.6905C21.4884 14.3994 21.2327 14.3846 20.1637 14.5721ZM35.6835 14.7885C35.4508 14.8694 35.2605 14.9623 35.2605 14.9951C35.2605 15.0936 35.6467 15.7383 35.7058 15.7384C35.7359 15.7385 35.9762 15.6619 36.2398 15.5682L36.719 15.3979L36.5256 15.0147C36.3057 14.5788 36.2953 14.576 35.6835 14.7885ZM3.08223 15.1132C2.63486 15.3015 2.12977 15.5176 1.95973 15.5934L1.65064 15.7312V16.1256C1.65064 16.3425 1.66593 16.5199 1.68461 16.5199C1.70328 16.5199 1.9449 16.4061 2.22145 16.2669C2.49801 16.1278 3.22214 15.8188 3.83056 15.5803C5.45015 14.9453 5.35403 15.0215 4.70904 14.8848C4.40482 14.8203 4.09736 14.7683 4.02578 14.7692C3.9542 14.77 3.5296 14.9248 3.08223 15.1132ZM42.1907 15.093C32.8576 16.3163 24.6945 21.8527 19.8911 30.2172C19.2273 31.3731 18.179 33.5114 18.179 33.7094C18.179 33.7346 18.3473 33.6726 18.5532 33.5717C19.1762 33.2664 19.6754 33.172 20.4878 33.2059C21.0884 33.2309 21.2862 33.2677 21.7053 33.4329C22.6296 33.7972 23.3549 34.4362 23.8087 35.2862L24.0196 35.6813L24.2959 34.8432C25.4354 31.3878 27.2224 28.0802 29.489 25.2312C30.3238 24.1818 32.3948 22.0937 33.3734 21.3147C34.5934 20.3434 36.1124 19.3748 37.4659 18.7051C39.2047 17.8448 40.5956 17.3558 42.3196 16.9988L43.1668 16.8233V15.8902C43.1668 15.3769 43.1595 14.9598 43.1505 14.9632C43.1415 14.9666 42.7096 15.025 42.1907 15.093ZM33.781 15.4849L33.2776 15.6823L33.5498 16.0686C33.6995 16.281 33.8512 16.4548 33.8867 16.4548C33.9831 16.4548 34.8358 16.1022 34.8367 16.0621C34.8382 15.9956 34.3716 15.2826 34.3282 15.2851C34.3041 15.2865 34.0579 15.3764 33.781 15.4849ZM5.62005 15.6289C4.56477 15.993 3.36835 16.4926 2.43151 16.9604L1.68317 17.334L1.66404 17.808L1.64485 18.2821L2.48825 17.8591C4.06469 17.0685 5.74974 16.3453 6.9787 15.9318L7.71922 15.6827L7.17059 15.5152C6.86885 15.4231 6.57954 15.3479 6.52768 15.348C6.47588 15.3482 6.06742 15.4746 5.62005 15.6289ZM22.2135 15.6825C20.4524 15.8638 18.2566 16.4271 16.6173 17.1184C15.971 17.3909 14.8599 17.9593 14.8609 18.0169C14.8618 18.0697 15.6106 18.5387 15.694 18.5387C15.7351 18.5387 15.9295 18.4358 16.126 18.31C17.2128 17.6143 19.8188 16.7382 21.4652 16.5151C21.9857 16.4445 22.1286 16.3926 22.7503 16.0488C23.1351 15.836 23.4499 15.6499 23.4499 15.6351C23.4499 15.5948 22.8375 15.6183 22.2135 15.6825ZM8.67845 16.1287C8.58897 16.1586 8.16438 16.2908 7.7349 16.4224C6.58416 16.775 4.96106 17.4354 3.70321 18.0629C3.09329 18.3671 2.55456 18.6487 2.50614 18.6886C2.43756 18.7451 2.53588 18.8008 2.94942 18.9399L3.4808 19.1186L3.79477 18.9253C4.77899 18.3192 7.59474 17.1894 9.30236 16.7154C9.58556 16.6368 9.84096 16.55 9.86999 16.5227C9.913 16.4821 9.50526 16.3004 8.93874 16.1077C8.88505 16.0894 8.76792 16.0989 8.67845 16.1287ZM31.9255 16.3101C31.6661 16.4411 31.4547 16.564 31.4558 16.583C31.4569 16.6021 31.6006 16.7785 31.7749 16.9751L32.0919 17.3327L32.5537 17.1091C32.8077 16.9861 33.0155 16.8666 33.0155 16.8436C33.0155 16.7737 32.4911 16.0638 32.4425 16.0679C32.4177 16.0701 32.185 16.179 31.9255 16.3101ZM10.045 17.2097C8.41042 17.6646 6.92468 18.2233 5.37603 18.9653C4.83027 19.2269 4.38368 19.4573 4.38368 19.4773C4.38368 19.4973 4.56347 19.6045 4.78328 19.7155L5.18289 19.9174L6.13353 19.4632C7.79991 18.667 9.43928 18.0739 11.4058 17.5559L11.9532 17.4117L11.536 17.1969C11.3065 17.0788 11.0601 16.9824 10.9885 16.9828C10.9169 16.9831 10.4923 17.0853 10.045 17.2097ZM30.1967 17.1971C29.9885 17.3166 29.7908 17.4417 29.7575 17.4752C29.7199 17.5127 29.8233 17.6779 30.0284 17.9082L30.3601 18.2806L30.7279 18.0747C31.3116 17.7479 31.3062 17.7649 30.9606 17.345C30.7936 17.1419 30.6386 16.9767 30.6161 16.9777C30.5936 16.9789 30.4049 17.0775 30.1967 17.1971ZM19.7955 17.7263C19.0404 17.9337 18.2193 18.2561 17.4307 18.6548C16.4441 19.1535 16.4721 19.1078 16.9322 19.4694C17.1466 19.6381 17.35 19.776 17.3843 19.776C17.4184 19.776 17.6635 19.6027 17.9287 19.3907C18.194 19.1788 18.8914 18.6806 19.4783 18.2836C20.0653 17.8867 20.5035 17.564 20.4522 17.5666C20.4009 17.5693 20.1053 17.6411 19.7955 17.7263ZM42.4633 17.8127C42.2375 17.872 42.0476 17.9351 42.0414 17.9529C42.013 18.034 42.3621 18.732 42.4315 18.733C42.4745 18.7336 42.6575 18.7024 42.8382 18.6636L43.1668 18.593V18.1426C43.1668 17.621 43.176 17.6253 42.4633 17.8127ZM12.6479 17.9327C11.2677 18.1654 8.77417 19.018 6.89495 19.9C5.9266 20.3544 5.94125 20.3362 6.33168 20.5994C6.51011 20.7196 6.6821 20.818 6.71392 20.818C6.74574 20.818 7.19343 20.6166 7.70881 20.3705C9.45307 19.5376 11.2842 18.863 12.801 18.4944C13.2168 18.3934 13.5574 18.2935 13.5579 18.2723C13.5592 18.2218 12.9397 17.8849 12.8668 17.8964C12.8359 17.9012 12.7373 17.9176 12.6479 17.9327ZM28.3468 18.3168L27.8753 18.6139L28.2417 18.9508C28.4432 19.136 28.6344 19.2977 28.6666 19.3101C28.7521 19.3429 29.5667 18.7976 29.5667 18.7077C29.5667 18.6163 28.9708 18.0174 28.8812 18.0187C28.8466 18.0192 28.6061 18.1533 28.3468 18.3168ZM40.629 18.3249C40.4679 18.3807 40.3257 18.4352 40.3128 18.4461C40.2753 18.4781 40.7633 19.2551 40.8209 19.2551C40.8497 19.2551 40.9721 19.2154 41.0928 19.167C41.2135 19.1186 41.3642 19.0606 41.4277 19.0381C41.5334 19.0009 41.5264 18.9638 41.3455 18.6053C41.1284 18.175 41.0971 18.1626 40.629 18.3249ZM38.9718 18.9351C38.7224 19.043 38.5075 19.1423 38.4942 19.1556C38.4761 19.1737 38.8423 19.7135 39.0424 19.9634C39.077 20.0066 39.9132 19.619 39.9132 19.5597C39.9132 19.5128 39.4551 18.7288 39.4321 18.7364C39.4283 18.7377 39.2211 18.8271 38.9718 18.9351ZM13.9181 18.8718C12.9627 19.0111 11.2848 19.5329 9.83329 20.1423C8.93516 20.5194 7.44207 21.2627 7.44207 21.3328C7.44207 21.3551 7.60755 21.5026 7.8098 21.6607L8.17746 21.9481L8.47679 21.7719C10.154 20.7849 12.6199 19.7968 14.2747 19.4486C15.288 19.2354 15.2711 19.2484 14.8481 19.0062C14.6492 18.8923 14.4462 18.8028 14.3969 18.8072C14.3475 18.8115 14.1321 18.8406 13.9181 18.8718ZM26.7035 19.464C26.4708 19.6414 26.2805 19.8083 26.2805 19.8352C26.2805 19.9041 27.0122 20.4924 27.0979 20.4924C27.1369 20.4924 27.3448 20.3569 27.5598 20.1913L27.9507 19.8903L27.7012 19.6324C27.5641 19.4905 27.3786 19.322 27.2891 19.2581C27.1272 19.1422 27.1245 19.1432 26.7035 19.464ZM1.65064 19.7109C1.65064 20.0859 1.61817 20.0762 2.3339 19.9159L2.85448 19.7992L2.31971 19.5923C2.02565 19.4784 1.75476 19.3853 1.71779 19.3853C1.68057 19.3853 1.65064 19.5305 1.65064 19.7109ZM42.3534 19.6763C41.189 20.0018 40.196 20.3913 39.0347 20.978C37.1654 21.9223 35.636 23.0324 33.9929 24.6372C32.0213 26.563 30.4898 28.6571 29.1183 31.3027C28.742 32.0286 28.0049 33.6436 28.0049 33.7423C28.0049 33.7569 28.2173 33.6715 28.4767 33.5525C29.0681 33.2813 29.493 33.1909 30.1718 33.1922C31.6147 33.1948 32.8308 33.8891 33.6135 35.1572L33.8536 35.5462L33.927 35.2641C34.7687 32.0329 36.2231 28.7357 37.8128 26.455C39.2713 24.3623 41.1242 22.638 42.7926 21.8208L43.1668 21.6374V20.544C43.1668 19.9425 43.1595 19.4521 43.1505 19.4542C43.1415 19.4564 42.7828 19.5563 42.3534 19.6763ZM37.1648 19.8015L36.7915 20.0139L37.0899 20.3671C37.2541 20.5614 37.4121 20.7455 37.441 20.7763C37.47 20.8071 37.6719 20.7317 37.8896 20.6089L38.2856 20.3856L37.9868 19.9831C37.8224 19.7618 37.6542 19.5826 37.613 19.5849C37.5717 19.5873 37.3701 19.6847 37.1648 19.8015ZM14.9905 20.0074C13.3737 20.3487 11.7116 20.9246 10.2076 21.6644C9.63501 21.9461 9.08287 22.2457 8.98071 22.3301L8.79499 22.4837L9.15198 22.789L9.50903 23.0942L10.0511 22.7311C11.3964 21.83 13.6448 20.982 15.9056 20.5231C16.3865 20.4255 16.788 20.3388 16.798 20.3304C16.8079 20.3221 16.6612 20.2086 16.472 20.0782C16.0656 19.7981 15.9975 19.7948 14.9905 20.0074ZM3.08223 20.4276C2.77802 20.4944 2.33878 20.6048 2.10614 20.6729L1.68317 20.7968L1.66365 21.1656C1.65155 21.3945 1.67036 21.5343 1.71317 21.5343C1.75118 21.5343 2.11135 21.4348 2.51356 21.3131C2.91584 21.1913 3.63287 21.0228 4.10705 20.9386C4.58123 20.8543 4.96926 20.7697 4.96926 20.7506C4.96933 20.7314 4.7784 20.6215 4.54512 20.5064C4.05565 20.2648 3.86947 20.2548 3.08223 20.4276ZM25.0292 20.7923L24.6238 21.1536L25.1076 21.4807L25.5913 21.8077L25.9847 21.4612C26.2011 21.2706 26.3774 21.0992 26.3765 21.0803C26.374 21.0268 25.5617 20.4271 25.4944 20.429C25.4615 20.4301 25.2522 20.5935 25.0292 20.7923ZM35.603 20.7373C35.3977 20.8713 35.2293 20.9964 35.2288 21.0154C35.2283 21.0345 35.3999 21.2203 35.6102 21.4285L35.9924 21.8071L36.3585 21.5638C36.5599 21.43 36.7246 21.3067 36.7246 21.2897C36.7246 21.2379 36.0639 20.4923 36.0186 20.4931C35.9954 20.4936 35.8083 20.6034 35.603 20.7373ZM15.023 21.4674C13.2068 21.8955 11.4292 22.6374 10.5168 23.3483L10.1101 23.6651L10.3759 23.9673C10.5221 24.1335 10.6641 24.2695 10.6916 24.2695C10.719 24.2695 10.9581 24.1254 11.2229 23.9493C12.1158 23.3553 13.057 22.9326 14.0718 22.6698L14.6976 22.5078L15.3154 21.8908C15.6552 21.5515 15.9041 21.276 15.8686 21.2786C15.833 21.2812 15.4525 21.3662 15.023 21.4674ZM4.80665 21.5086C4.09248 21.618 2.90608 21.9171 2.20375 22.1648L1.68317 22.3484L1.66359 22.7637C1.64849 23.0835 1.66346 23.1715 1.72866 23.1466C3.14112 22.6079 5.3867 22.0745 6.65938 21.9753L6.88525 21.9576L6.45961 21.6809C5.97515 21.3659 5.83427 21.3512 4.80665 21.5086ZM34.0231 21.9017L33.6524 22.204L33.8708 22.3734C33.9909 22.4666 34.1908 22.6352 34.3149 22.7481L34.5406 22.9533L34.9195 22.6554L35.2984 22.3576L34.9235 21.9785C34.7174 21.77 34.5139 21.5995 34.4714 21.5995C34.4288 21.5995 34.2271 21.7355 34.0231 21.9017ZM23.5059 22.1693L23.1193 22.5437L23.634 22.8437L24.1487 23.1436L24.5151 22.822C24.7166 22.6451 24.8809 22.4662 24.8801 22.4244C24.8787 22.342 24.0829 21.7948 23.9646 21.7948C23.9249 21.7948 23.7185 21.9633 23.5059 22.1693ZM42.7667 22.7598C42.5751 22.8608 42.264 23.0545 42.0752 23.1904L41.732 23.4374L42.1045 23.8697C42.3095 24.1075 42.483 24.3113 42.4902 24.3228C42.4974 24.3342 42.6526 24.2362 42.835 24.105L43.1668 23.8665V23.2214C43.1668 22.8666 43.1551 22.5763 43.1409 22.5763C43.1266 22.5763 42.9582 22.6589 42.7667 22.7598ZM5.78032 22.7717C4.43769 22.9752 3.21921 23.2998 2.20928 23.7228L1.65064 23.9569V24.375V24.7931L1.89466 24.6688C2.99777 24.1071 5.82126 23.442 7.89615 23.2551L8.38282 23.2113L8.05883 22.9277L7.7349 22.6441L7.14925 22.6485C6.82714 22.651 6.2111 22.7064 5.78032 22.7717ZM32.6286 23.1055C32.4158 23.2965 32.2989 23.4459 32.3358 23.4797C32.3696 23.5107 32.5845 23.6705 32.8133 23.8349C33.2761 24.1674 33.2976 24.1662 33.6624 23.7867L33.8864 23.5537L33.706 23.3654C33.6069 23.2618 33.4037 23.0895 33.2544 22.9823L32.983 22.7876L32.6286 23.1055ZM22.0673 23.6474L21.6933 24.0581L22.2548 24.3277L22.8163 24.5973L23.1627 24.2217C23.3532 24.0152 23.5104 23.8294 23.512 23.8089C23.5158 23.7598 22.5823 23.2262 22.5029 23.2321C22.469 23.2347 22.273 23.4216 22.0673 23.6474ZM13.0536 23.827C12.5379 24.0858 11.4132 24.8814 11.3675 25.0197C11.3555 25.0562 11.4715 25.2294 11.6256 25.4046L11.9056 25.7231L12.3821 25.1185C12.6442 24.786 13.0638 24.2978 13.3146 24.0336C13.5654 23.7693 13.7303 23.554 13.681 23.5551C13.6318 23.5562 13.3494 23.6785 13.0536 23.827ZM7.40954 24.0509C6.38771 24.1726 4.9403 24.466 3.9404 24.7542C3.12361 24.9897 1.80681 25.4771 1.75326 25.5638C1.73699 25.5902 1.90488 25.7431 2.12638 25.9037L2.52911 26.1957L3.04969 25.9771C4.54362 25.3496 6.8179 24.8753 8.9064 24.7557C9.29995 24.7331 9.66091 24.7024 9.70841 24.6875C9.76594 24.6695 9.6924 24.5404 9.48905 24.3021L9.18322 23.9439L8.68684 23.9509C8.4138 23.9548 7.83902 23.9998 7.40954 24.0509ZM31.299 24.4384C31.1244 24.6348 30.9968 24.8108 31.0155 24.8295C31.1059 24.9198 31.999 25.4437 32.0353 25.4276C32.1662 25.3695 32.6402 24.7743 32.5854 24.7369C32.5497 24.7126 32.328 24.5535 32.0928 24.3834C31.8575 24.2133 31.654 24.0757 31.6407 24.0777C31.6274 24.0797 31.4736 24.242 31.299 24.4384ZM40.5812 24.5453L40.1119 25.0184L40.5558 25.4208L40.9997 25.8232L41.4106 25.4083L41.8215 24.9934L41.6497 24.7779C41.5553 24.6595 41.3818 24.4522 41.2642 24.3174L41.0504 24.0724L40.5812 24.5453ZM20.7226 25.2187C20.534 25.4542 20.3896 25.6529 20.4019 25.6603C20.5368 25.7413 21.5135 26.0979 21.5564 26.0818C21.6157 26.0595 22.2135 25.3413 22.2135 25.2923C22.2135 25.2574 21.1976 24.7905 21.1214 24.7905C21.0907 24.7905 20.9112 24.9831 20.7226 25.2187ZM42.3791 25.6849C41.9815 26.0694 41.4805 26.6024 41.2658 26.8695C40.3456 28.0142 39.4137 29.5866 38.7178 31.1686C38.332 32.0456 37.7007 33.6993 37.7007 33.8329C37.7007 33.8646 37.913 33.7796 38.1725 33.6439C38.7938 33.3191 39.3166 33.1912 40.0227 33.1912C41.063 33.1912 41.9761 33.5435 42.7318 34.2365L43.1668 34.6354V29.8107C43.1668 27.157 43.1523 24.9858 43.1344 24.9858C43.1167 24.9858 42.7768 25.3004 42.3791 25.6849ZM8.80859 25.443C7.3526 25.5151 6.26479 25.6863 5.03544 26.0367C4.38276 26.2227 3.27745 26.689 3.27745 26.7782C3.27745 26.8016 3.41651 26.9468 3.58654 27.101L3.89563 27.3813L4.15592 27.2306C4.81823 26.8473 6.34958 26.4382 7.70236 26.2834C8.36304 26.2078 10.4398 26.2373 11.0483 26.331L11.3031 26.3702L10.9898 25.9711C10.8175 25.7515 10.6442 25.5465 10.6048 25.5153C10.4855 25.4211 9.80485 25.3937 8.80859 25.443ZM30.2715 25.6208C30.2185 25.6834 30.0664 25.871 29.9335 26.0376L29.6917 26.3404L30.2702 26.6298L30.8487 26.9192L31.1571 26.5336C31.3267 26.3215 31.4555 26.1389 31.4433 26.1277C31.3923 26.0808 30.4261 25.5068 30.3982 25.5068C30.3814 25.5068 30.3244 25.5581 30.2715 25.6208ZM39.1368 26.185C38.9196 26.4511 38.7419 26.6845 38.7419 26.7039C38.7419 26.7838 39.7362 27.4676 39.7793 27.4174C39.9596 27.2075 40.4337 26.5654 40.4337 26.531C40.4337 26.4838 39.8388 25.9163 39.6522 25.7855C39.5439 25.7097 39.4922 25.7498 39.1368 26.185ZM19.5084 26.8448C19.3413 27.0792 19.2153 27.2781 19.2286 27.2866C19.2418 27.2952 19.5105 27.3841 19.8255 27.4842C20.268 27.6247 20.4189 27.649 20.4889 27.5908C20.5853 27.5109 20.9771 26.9219 20.9771 26.8571C20.9771 26.8154 19.9809 26.4185 19.8763 26.4185C19.8411 26.4185 19.6756 26.6104 19.5084 26.8448ZM1.65064 27.1744C1.65064 27.5813 1.66756 27.6633 1.74538 27.6334C1.79751 27.6134 2.01602 27.5606 2.23102 27.5162C2.55508 27.4492 2.60889 27.4198 2.5459 27.3438C2.45265 27.2313 1.73998 26.679 1.68812 26.679C1.66749 26.679 1.65064 26.9019 1.65064 27.1744ZM7.475 27.1446C6.72764 27.2403 5.66996 27.501 5.15042 27.7175C4.40892 28.0264 4.40899 28.0263 4.70201 28.3668L4.94955 28.6544L5.38585 28.4796C6.53796 28.018 8.06176 27.7682 9.54704 27.7974L10.5133 27.8164L10.7327 27.4919L10.9521 27.1674L10.6449 27.1243C10.2013 27.062 8.00983 27.076 7.475 27.1446ZM29.0242 27.2831C28.9383 27.3985 28.8204 27.5683 28.7621 27.6603L28.6561 27.8276L29.2209 28.0511C29.5316 28.1739 29.8077 28.2836 29.8345 28.2947C29.8613 28.3059 29.9875 28.1599 30.1151 27.9704L30.347 27.6258L30.1032 27.5002C29.9692 27.4312 29.7066 27.3068 29.5199 27.2239L29.1803 27.0732L29.0242 27.2831ZM37.9252 27.9507C37.7568 28.2211 37.63 28.4519 37.6436 28.4635C37.6571 28.4752 37.9127 28.6248 38.2116 28.7961C38.6503 29.0475 38.7665 29.09 38.8147 29.0166C38.8475 28.9666 38.9662 28.7675 39.0787 28.5742C39.2513 28.2772 39.2686 28.2115 39.1897 28.1509C38.9307 27.9517 38.3747 27.5442 38.3077 27.5044C38.2594 27.4756 38.1191 27.6394 37.9252 27.9507ZM18.3874 28.5106C18.2341 28.7658 18.1189 28.985 18.1316 28.9977C18.1443 29.0104 18.431 29.0926 18.7688 29.1804C19.2239 29.2987 19.3943 29.3202 19.4276 29.2631C19.4523 29.2208 19.5751 29.025 19.7006 28.828C19.826 28.631 19.9083 28.4497 19.8834 28.425C19.8507 28.3925 18.7468 28.0466 18.6757 28.0466C18.6706 28.0466 18.5409 28.2553 18.3874 28.5106ZM2.41055 28.2805C1.70497 28.4081 1.65064 28.4451 1.65064 28.7977C1.65064 28.9577 1.6697 29.0885 1.69294 29.0885C1.71623 29.0885 1.95778 29.0445 2.22978 28.9908C2.50178 28.937 2.99484 28.871 3.32547 28.8442L3.92667 28.7955L3.66209 28.4861C3.35937 28.1323 3.29176 28.1212 2.41055 28.2805ZM7.73789 28.6056C7.03511 28.715 6.59744 28.8343 5.92966 29.0987L5.42587 29.2981L5.52992 29.4744C5.58712 29.5713 5.68506 29.7184 5.74746 29.8012L5.86095 29.9518L6.27735 29.7859C7.13272 29.4451 8.42434 29.2326 9.14905 29.3136L9.52205 29.3552L9.75097 28.9971C9.87688 28.8001 9.97989 28.6082 9.97989 28.5707C9.97989 28.4715 8.44621 28.4955 7.73789 28.6056ZM27.9138 28.9923C27.7763 29.2275 27.6748 29.4311 27.6882 29.4445C27.7017 29.4579 27.9848 29.5565 28.3172 29.6635L28.9218 29.8581L29.0713 29.6198C29.2475 29.3389 29.3714 29.1099 29.3714 29.0649C29.3714 29.0473 29.1299 28.9394 28.8346 28.8251C28.5393 28.7108 28.2676 28.6054 28.2308 28.591C28.194 28.5765 28.0513 28.7571 27.9138 28.9923ZM36.964 29.6701C36.8323 29.9139 36.7246 30.1551 36.7246 30.2061C36.7246 30.2795 37.2246 30.5465 37.8971 30.8324C37.9326 30.8475 38.0207 30.6671 38.3376 29.9313C38.3479 29.9073 38.1576 29.7705 37.9147 29.6273C37.1419 29.1717 37.2352 29.1674 36.964 29.6701ZM3.04969 29.5883C2.70312 29.6316 1.88178 29.8178 1.76452 29.8796C1.6755 29.9266 1.65064 30.0245 1.65064 30.3281C1.65064 30.5418 1.66059 30.7166 1.67276 30.7166C1.68493 30.7166 1.91965 30.6591 2.19438 30.5887C2.83736 30.4242 4.01042 30.2607 4.54857 30.2607C4.77997 30.2607 4.96861 30.2388 4.9677 30.2119C4.96685 30.185 4.86404 30.0238 4.7393 29.8537L4.51258 29.5444L3.87871 29.5541C3.53012 29.5595 3.15706 29.5748 3.04969 29.5883ZM17.3507 30.3155L17.0758 30.8247L17.7236 30.9381C18.0799 31.0006 18.402 31.0327 18.4394 31.0096C18.5128 30.9642 18.8948 30.2363 18.8948 30.1417C18.8948 30.1101 18.6533 30.0338 18.358 29.9721C18.0627 29.9105 17.7771 29.8479 17.7233 29.8331C17.6563 29.8148 17.5388 29.9669 17.3507 30.3155ZM7.57222 30.2321C7.09452 30.3351 6.41562 30.5749 6.36369 30.659C6.33064 30.7126 6.62672 31.2737 6.71788 31.33C6.74222 31.3451 6.92735 31.3016 7.12927 31.2334C7.33119 31.1652 7.75722 31.0738 8.07601 31.0304L8.65561 30.9514L8.86228 30.5781C8.97589 30.3728 9.06888 30.1881 9.06888 30.1677C9.06888 30.0956 7.98985 30.142 7.57222 30.2321ZM26.9761 30.6885C26.8585 30.9273 26.771 31.1295 26.7816 31.138C26.8246 31.1718 28.0814 31.4431 28.0997 31.4225C28.1514 31.3644 28.4604 30.7138 28.4604 30.6631C28.4604 30.6313 28.2481 30.5435 27.9887 30.4681C27.1289 30.2179 27.2175 30.1986 26.9761 30.6885ZM4.02578 31.048C3.32254 31.1151 2.17688 31.3365 1.87123 31.4643C1.66177 31.5518 1.65064 31.5731 1.65064 31.8854C1.65064 32.0664 1.67849 32.2144 1.71252 32.2144C1.74655 32.2144 1.94171 32.1707 2.14623 32.1175C2.79793 31.9476 3.99064 31.8131 4.94486 31.802L5.87032 31.7911L5.66384 31.4003L5.45737 31.0096L5.0344 31.0008C4.80177 30.996 4.34789 31.0172 4.02578 31.048ZM36.1152 31.5387C36.0179 31.7759 35.9467 31.9762 35.9572 31.9838C35.9869 32.0053 37.2319 32.4097 37.2684 32.4097C37.3341 32.4097 37.5746 31.6715 37.5246 31.6229C37.459 31.5592 36.4307 31.1073 36.3514 31.1073C36.3189 31.1073 36.2126 31.3014 36.1152 31.5387ZM16.4481 32.1295C16.3443 32.3692 16.2496 32.589 16.2377 32.6179C16.2257 32.6467 16.3721 32.6724 16.5631 32.675C16.7539 32.6776 17.0659 32.7019 17.2563 32.729L17.6027 32.7783L17.7976 32.3919C17.9048 32.1793 17.9786 31.9693 17.9617 31.9251C17.9311 31.8452 17.187 31.6934 16.826 31.6934C16.6548 31.6934 16.6189 31.7348 16.4481 32.1295ZM7.377 31.9674C7.21595 32.0029 7.07585 32.0398 7.06576 32.0494C7.05561 32.0589 7.15777 32.3375 7.29273 32.6684L7.53825 33.2701L7.84806 32.6048C8.01842 32.2389 8.15787 31.928 8.15787 31.9141C8.15787 31.8684 7.6762 31.9013 7.377 31.9674ZM26.152 32.4323C26.0084 32.7467 25.963 32.9112 26.0123 32.9383C26.0524 32.9603 26.261 32.9966 26.4757 33.019C26.6905 33.0414 26.9686 33.0772 27.0939 33.0985C27.3211 33.1373 27.3221 33.1364 27.5006 32.7247C27.5991 32.4977 27.6796 32.2938 27.6796 32.2714C27.6796 32.2295 27.58 32.2046 26.8107 32.0538L26.3647 31.9665L26.152 32.4323ZM3.63534 32.6495C3.06381 32.6988 2.08988 32.8707 1.87663 32.9598C1.65636 33.0519 1.65064 33.0637 1.65064 33.4234C1.65064 33.7922 1.65077 33.7925 1.82959 33.7532C2.75348 33.5503 3.40811 33.4951 4.95286 33.4899C5.85652 33.4868 6.59587 33.4772 6.59594 33.4687C6.59607 33.4601 6.5198 33.2623 6.42655 33.0291L6.25691 32.6051L5.07631 32.6161C4.42695 32.6221 3.7785 32.6371 3.63534 32.6495ZM35.4869 33.2279C35.4087 33.463 35.3558 33.6665 35.3694 33.68C35.4004 33.7111 36.5923 33.9727 36.7027 33.9727C36.7983 33.9727 37.0089 33.3191 36.9364 33.2475C36.8991 33.2107 35.7118 32.8005 35.6426 32.8005C35.6351 32.8005 35.565 32.9928 35.4869 33.2279ZM15.7679 33.6862C15.5032 34.374 15.4507 34.5198 15.4638 34.5306C15.4719 34.5373 15.7917 34.5562 16.1745 34.5725L16.8703 34.6022L17.0691 34.1137C17.1785 33.8451 17.2567 33.6141 17.2431 33.6004C17.2293 33.5867 16.9082 33.5579 16.5294 33.5365L15.8406 33.4974L15.7679 33.6862ZM25.5261 33.9507C25.4285 34.2005 25.2719 34.6361 25.2719 34.658C25.2719 34.6753 25.8939 34.7363 26.4069 34.7691C26.6631 34.7856 26.6635 34.7852 26.8176 34.4017C26.9969 33.9552 26.9857 33.9393 26.4494 33.8794C26.2491 33.857 25.9757 33.8223 25.8418 33.8023C25.6202 33.7693 25.5918 33.7826 25.5261 33.9507ZM18.828 34.3797C17.5439 35.0418 16.8704 36.5645 17.2376 37.9754C17.5494 39.1732 18.5827 40.0945 19.8341 40.2904C21.1466 40.4958 22.5105 39.7734 23.0922 38.5645C23.2131 38.3134 23.3303 38.0054 23.3528 37.88L23.3936 37.6521L23.1777 37.8906C22.4713 38.6712 21.3793 38.9742 20.3867 38.665C19.6295 38.4291 19.0611 37.9247 18.7116 37.1784C18.5568 36.848 18.5369 36.7275 18.5369 36.1217C18.5369 35.5128 18.5564 35.3963 18.7148 35.0579C18.8127 34.8488 18.9835 34.5631 19.0944 34.4229C19.2054 34.2827 19.2832 34.168 19.2673 34.168C19.2515 34.168 19.0537 34.2632 18.828 34.3797ZM38.5565 34.374C37.5845 34.8756 36.9514 35.8535 36.8723 36.9755C36.7583 38.5939 37.9274 40.0411 39.551 40.2914C40.8701 40.4948 42.2238 39.7799 42.8048 38.5731C42.928 38.3172 43.0459 38.0054 43.0668 37.88L43.1048 37.6521L42.99 37.8103C42.7824 38.0962 42.125 38.5262 41.6896 38.6608C40.2627 39.1018 38.7251 38.2787 38.3107 36.852C38.083 36.0682 38.285 35.088 38.8114 34.4229C38.9223 34.2827 39.0001 34.168 38.9842 34.168C38.9684 34.168 38.7758 34.2607 38.5565 34.374ZM3.17984 34.2735C2.66733 34.3443 2.11558 34.4413 1.89466 34.4995L1.65064 34.5638V34.9195C1.65064 35.3341 1.59611 35.3177 2.48103 35.1676C3.30107 35.0285 5.35859 35.0227 6.12059 35.1574L6.65366 35.2516L6.78758 34.9291C6.86124 34.7517 6.9215 34.5705 6.9215 34.5265C6.9215 34.3691 6.18683 34.2787 4.77411 34.2625C4.00463 34.2537 3.28721 34.2586 3.17984 34.2735ZM8.93548 34.3936C7.40271 35.193 6.8222 37.2103 7.6889 38.7256C8.25489 39.7153 9.25623 40.2977 10.4029 40.3044C11.8647 40.3128 13.0321 39.4377 13.453 38.018L13.5569 37.6676L13.2005 38.0049C13.0045 38.1904 12.6463 38.436 12.4044 38.5507C12.0006 38.742 11.9112 38.7592 11.3139 38.759C10.7177 38.7588 10.6265 38.7414 10.2257 38.5516C9.37999 38.151 8.82916 37.431 8.66875 36.5168C8.5446 35.809 8.79694 34.8964 9.25076 34.4122C9.46049 34.1884 9.34232 34.1815 8.93548 34.3936ZM28.6556 34.3923C27.6537 34.916 27.01 36.002 27.013 37.1637C27.0175 38.9571 28.3919 40.3199 30.1848 40.3089C31.5928 40.3001 32.8235 39.3479 33.1834 37.9888L33.2667 37.6743L32.9139 38.0082C32.7199 38.1919 32.3632 38.436 32.1213 38.5507C31.7176 38.742 31.6282 38.7592 31.0308 38.759C30.4347 38.7588 30.3434 38.7414 29.9426 38.5516C28.3687 37.806 27.862 35.8698 28.8885 34.524C29.137 34.1982 29.0842 34.1683 28.6556 34.3923ZM11.2256 34.4947C11.0589 34.9736 11.2263 35.5178 11.6368 35.8313C11.9399 36.0626 12.4367 36.1194 12.8062 35.9649C13.0997 35.8422 13.0846 35.8072 12.7017 35.7215C12.0921 35.585 11.6451 35.1903 11.416 34.5864L11.3001 34.2809L11.2256 34.4947ZM21.1118 34.4492C20.9897 34.7704 21.0277 35.2064 21.204 35.5073C21.4952 36.0047 22.2195 36.2045 22.7341 35.9293L22.9618 35.8076L22.7666 35.7663C22.2317 35.6533 22.0634 35.574 21.7554 35.2895C21.5082 35.0613 21.3914 34.8898 21.3019 34.624C21.1818 34.2673 21.1811 34.2666 21.1118 34.4492ZM30.9421 34.5262C30.8406 34.8869 30.8514 35.0693 30.9926 35.3804C31.2509 35.9495 31.9445 36.2108 32.5294 35.9592C32.8168 35.8356 32.7995 35.8175 32.2536 35.6707C31.7306 35.5302 31.3293 35.1067 31.0761 34.4285C31.0171 34.2704 31.0132 34.2733 30.9421 34.5262ZM40.8287 34.4492C40.7066 34.7704 40.7447 35.2064 40.9209 35.5073C41.2121 36.0047 41.9365 36.2045 42.451 35.9293L42.6787 35.8076L42.4835 35.7663C41.9486 35.6533 41.7803 35.574 41.4724 35.2895C41.2252 35.0613 41.1083 34.8898 41.0188 34.624C40.8987 34.2673 40.898 34.2666 40.8287 34.4492ZM10.4383 34.6519C9.77264 35.7297 10.5563 37.1148 11.8318 37.1148C12.1575 37.1148 12.311 37.0775 12.5739 36.9343C12.9267 36.7421 13.2648 36.4368 13.0058 36.5443C12.9342 36.5741 12.6683 36.6113 12.4149 36.6271C12.0388 36.6505 11.8918 36.629 11.6153 36.5099C10.9588 36.2273 10.5304 35.5161 10.5759 34.7845C10.5881 34.5887 10.5931 34.4284 10.5871 34.4285C10.5811 34.4285 10.5141 34.529 10.4383 34.6519ZM30.1625 34.6402C29.5696 35.6015 30.127 36.885 31.2275 37.0922C31.6347 37.1688 32.0103 37.101 32.3799 36.8843C32.7039 36.6943 32.9545 36.445 32.7227 36.5432C32.6511 36.5736 32.3852 36.6113 32.1318 36.6271C31.7558 36.6505 31.6087 36.629 31.3322 36.5099C30.6713 36.2254 30.2369 35.4998 30.2966 34.7799C30.3126 34.5866 30.3184 34.4285 30.3094 34.4285C30.3004 34.4285 30.2343 34.5237 30.1625 34.6402ZM20.2931 34.6484C20.0614 35.0024 20.0004 35.6286 20.1553 36.0624C20.537 37.1311 22.0568 37.4861 22.7982 36.6799L22.9599 36.504L22.7777 36.5733C22.4824 36.6857 21.7603 36.6557 21.4586 36.5186C20.8408 36.2378 20.4427 35.6096 20.4361 34.9051C20.434 34.6788 20.4237 34.4937 20.4134 34.4937C20.403 34.4937 20.3488 34.5633 20.2931 34.6484ZM40.0196 34.6402C39.7563 35.06 39.7174 35.8101 39.9366 36.2345C40.0907 36.5326 40.4287 36.8431 40.7584 36.9894C41.3313 37.2437 42.1253 37.1037 42.5151 36.6799L42.6768 36.504L42.4946 36.5733C42.1993 36.6857 41.4772 36.6557 41.1755 36.5186C40.5577 36.2378 40.1597 35.6096 40.153 34.9051C40.1509 34.6788 40.1407 34.4937 40.1303 34.4937C40.1199 34.4937 40.07 34.5596 40.0196 34.6402ZM34.9437 34.9375C34.8853 35.1458 34.8375 35.3459 34.8375 35.3821C34.8375 35.4416 36.252 35.6433 36.2983 35.5904C36.3668 35.5123 36.5052 34.8771 36.4598 34.8491C36.3878 34.8045 35.2927 34.562 35.1552 34.5602C35.082 34.5592 35.0175 34.6742 34.9437 34.9375ZM9.53415 35.0232C9.35683 35.3073 9.25668 35.7111 9.25727 36.1392C9.25844 36.9495 9.74127 37.6905 10.489 38.0296C10.9606 38.2434 11.7212 38.228 12.1959 37.9951C12.3948 37.8975 12.6278 37.7428 12.7138 37.6512L12.8701 37.4846L12.6126 37.5969C12.4415 37.6716 12.1804 37.71 11.8345 37.7114C11.3997 37.7132 11.2495 37.6837 10.9234 37.5328C10.0291 37.1187 9.52185 36.2537 9.61133 35.2952C9.63241 35.0693 9.64315 34.8844 9.63521 34.8844C9.62727 34.8844 9.58178 34.9468 9.53415 35.0232ZM19.3605 35.096C19.0348 35.624 19.0138 36.4331 19.3105 37.019C19.8965 38.1762 21.2718 38.5334 22.3612 37.8113C22.7299 37.5668 22.7643 37.4542 22.425 37.6026C22.2678 37.6713 21.9958 37.71 21.6604 37.7114C21.0184 37.714 20.5404 37.5174 20.109 37.0732C19.641 36.5913 19.5166 36.266 19.5146 35.5194C19.5137 35.1702 19.508 34.8845 19.5021 34.8844C19.496 34.8844 19.4323 34.9796 19.3605 35.096ZM29.1664 35.1937C29.0553 35.4205 29.0086 35.6453 28.9914 36.0365C28.9712 36.4968 28.9901 36.6184 29.1297 36.9234C29.3498 37.4046 29.7012 37.7755 30.1418 37.9918C30.4512 38.1435 30.5936 38.1725 31.0308 38.1725C31.4656 38.1725 31.6109 38.1432 31.9128 37.9951C32.1117 37.8975 32.3447 37.7428 32.4307 37.6512L32.5871 37.4846L32.3295 37.5969C32.1578 37.6719 31.8985 37.7098 31.5514 37.7108C31.1181 37.7121 30.964 37.6819 30.6327 37.5307C30.1384 37.305 29.7586 36.9237 29.5212 36.4148C29.3651 36.0802 29.339 35.9422 29.3392 35.4542C29.3392 35.1408 29.3345 34.8844 29.3287 34.8844C29.3228 34.8844 29.2498 35.0236 29.1664 35.1937ZM39.1194 35.0309C38.9164 35.3509 38.8395 35.6513 38.8399 36.1217C38.8402 36.5115 38.8747 36.6836 39.0103 36.9739C39.6034 38.2425 41.2179 38.5799 42.2883 37.6589L42.4835 37.4909L42.1971 37.5884C41.4815 37.8318 40.7883 37.7539 40.1768 37.3612C39.8316 37.1394 39.6282 36.9043 39.3865 36.4473C39.2542 36.197 39.2315 36.0617 39.2307 35.5194C39.2303 35.1702 39.2259 34.8845 39.2211 34.8844C39.2163 34.8844 39.1705 34.9504 39.1194 35.0309ZM15.0055 35.8427C14.9257 36.0908 14.8603 36.3214 14.8603 36.3553C14.8603 36.4089 16.2867 36.4031 16.3449 36.3492C16.3949 36.3031 16.5512 35.5129 16.5172 35.4788C16.4963 35.458 16.1803 35.4298 15.8149 35.4163L15.1506 35.3917L15.0055 35.8427ZM24.9507 35.6585C24.92 35.7163 24.8609 35.8899 24.8194 36.0444C24.778 36.1988 24.7279 36.3673 24.7082 36.4189C24.6783 36.4969 24.7974 36.5124 25.4264 36.5124H26.1804L26.2169 36.3334C26.237 36.2348 26.2808 36.0524 26.3142 35.928C26.3476 35.8035 26.3536 35.6824 26.3277 35.6588C26.3017 35.6352 25.9939 35.6018 25.6436 35.5847C25.1032 35.5582 24.9981 35.5694 24.9507 35.6585ZM3.05679 35.8609C2.81016 35.892 2.39285 35.9653 2.12951 36.024L1.65064 36.1306V36.4409C1.65064 36.6116 1.66639 36.7669 1.68558 36.7862C1.70478 36.8054 1.90247 36.783 2.12482 36.7363C3.27074 36.496 4.8885 36.4716 5.80856 36.6808C6.03749 36.7329 6.23095 36.7676 6.23837 36.7579C6.30754 36.6682 6.44517 36.1165 6.40456 36.0914C6.06554 35.8817 4.01374 35.7405 3.05679 35.8609ZM34.5183 36.5613C34.4831 36.6956 34.4356 36.8829 34.4129 36.9775L34.3714 37.1497L35.1739 37.1768C35.6152 37.1918 35.9795 37.2023 35.9835 37.2001C35.9875 37.198 36.0093 37.0315 36.0319 36.8302L36.073 36.4642L35.4997 36.3907C34.6041 36.2757 34.5925 36.2777 34.5183 36.5613ZM15.0365 37.2758C14.5365 37.3032 14.5442 37.2944 14.3717 38.0344L14.2825 38.4171L14.5551 38.376C14.7051 38.3535 15.1859 38.3161 15.6237 38.2931C16.4187 38.2511 16.4196 38.2509 16.3811 38.0977C16.36 38.0133 16.3239 37.7907 16.301 37.6028L16.2594 37.2613L15.8689 37.2565C15.6542 37.2538 15.2796 37.2625 15.0365 37.2758ZM2.7894 37.3603C2.4673 37.392 2.08662 37.4426 1.94346 37.4726L1.68317 37.5271L1.66339 37.9077L1.64361 38.2882L2.08636 38.249C3.4916 38.1243 4.67872 38.1452 5.59305 38.3111C5.78976 38.3467 5.796 38.3398 5.90103 37.9704C5.9814 37.6876 5.98914 37.5814 5.93188 37.5461C5.6479 37.3704 3.79646 37.2609 2.7894 37.3603ZM24.7697 37.407C24.4406 37.4301 24.4282 37.4381 24.3624 37.6717C24.3251 37.8042 24.2758 38.0267 24.2529 38.1663C24.2127 38.41 24.2173 38.4185 24.3692 38.3803C24.4561 38.3585 24.9258 38.3206 25.4129 38.2961L26.2985 38.2517L26.2407 38.05C26.2089 37.9391 26.1829 37.7569 26.1829 37.6453C26.1829 37.449 26.1716 37.4409 25.8413 37.4012C25.5024 37.3605 25.4255 37.3609 24.7697 37.407ZM34.1878 38.1705C34.1543 38.2586 34.1067 38.4832 34.082 38.6697C34.0408 38.9798 34.0471 39.0047 34.1554 38.963C34.2206 38.938 34.7387 38.8993 35.3068 38.8769C36.0066 38.8493 36.3327 38.8133 36.3179 38.7651C36.3058 38.726 36.2582 38.559 36.2121 38.3939L36.1282 38.0939L35.5967 38.0524C35.3044 38.0297 34.8815 38.0108 34.6569 38.0106C34.2828 38.0103 34.2435 38.0237 34.1878 38.1705ZM6.58572 39.1817L6.48772 39.6383H6.83475C7.17411 39.6383 7.24478 39.5971 7.1199 39.4722C7.0858 39.438 6.97375 39.256 6.87081 39.0677L6.68365 38.7252L6.58572 39.1817ZM2.46957 38.9933C2.11467 39.0226 1.78527 39.0615 1.73751 39.0799C1.6781 39.1027 1.65064 39.24 1.65064 39.5144V39.9156L2.03073 39.8725C2.50784 39.8186 5.03603 39.8152 5.24751 39.8684C5.39438 39.9052 5.41117 39.881 5.50572 39.4963C5.56129 39.27 5.59682 39.0742 5.58459 39.0613C5.4685 38.9388 3.62038 38.8985 2.46957 38.9933ZM15.3809 39.1608C14.4732 39.251 14.0825 39.3311 14.0526 39.433C13.9978 39.6202 13.8752 40.3674 13.8964 40.385C13.9076 40.3942 14.2242 40.347 14.6 40.28C14.9758 40.2131 15.7712 40.1395 16.3676 40.1165L17.4519 40.0747L17.1322 39.6572C16.9564 39.4276 16.8125 39.2122 16.8125 39.1785C16.8125 39.121 15.8952 39.1097 15.3809 39.1608ZM25.1009 39.1795C24.7385 39.2073 24.3408 39.2491 24.2173 39.2723L23.9926 39.3144L23.8963 39.8671C23.7843 40.5104 23.724 40.4689 24.5561 40.3218C25.0031 40.2428 26.7436 40.0954 27.2411 40.0944C27.3293 40.0942 27.2895 40.0129 27.0679 39.7406C26.9096 39.5461 26.7549 39.3418 26.724 39.2866C26.6508 39.1557 25.9835 39.1117 25.1009 39.1795ZM42.8811 39.9483C42.7419 40.1009 42.4552 40.3412 42.244 40.4823L41.8601 40.7389L42.1393 40.8122C42.2928 40.8525 42.5744 40.9299 42.7649 40.9842C42.9554 41.0386 43.1249 41.0696 43.1413 41.053C43.1579 41.0365 43.163 40.7187 43.1528 40.347L43.1342 39.6709L42.8811 39.9483ZM34.6458 39.7734C34.2719 39.8063 33.945 39.8553 33.9193 39.8822C33.8477 39.9574 33.7737 40.6804 33.8377 40.679C33.8687 40.6782 34.1429 40.6338 34.4471 40.5802C34.7513 40.5265 35.5812 40.4642 36.2913 40.4416L37.5824 40.4006L37.2674 40.0888L36.9524 39.7769L36.139 39.7453C35.6916 39.7279 35.0197 39.7405 34.6458 39.7734ZM32.8201 40.1921C32.7754 40.246 32.5656 40.4033 32.354 40.5417L31.9691 40.7934L32.4028 40.9024C32.6413 40.9623 32.8445 41.0028 32.8545 40.9923C32.8894 40.9554 32.9651 40.0942 32.9334 40.0942C32.9157 40.0942 32.8647 40.1382 32.8201 40.1921ZM22.4922 40.5247L22.0877 40.7998L22.3899 40.9028C22.8306 41.0531 22.8442 41.046 22.8946 40.6422C22.9196 40.4422 22.9303 40.272 22.9184 40.2641C22.9065 40.2561 22.7147 40.3733 22.4922 40.5247ZM7.34447 40.3275C7.27289 40.3386 7.01858 40.366 6.77938 40.3884L6.34437 40.4292L6.27962 40.733C6.24403 40.9 6.22249 41.0444 6.23179 41.0537C6.2411 41.063 6.46619 41.043 6.73201 41.0093C6.99783 40.9755 7.56024 40.9273 7.98185 40.9021L8.74833 40.8562L8.48108 40.7043C8.33408 40.6207 8.1308 40.4932 8.02935 40.4209C7.85939 40.2998 7.68024 40.2753 7.34447 40.3275ZM12.8444 40.3855C12.7992 40.4401 12.5342 40.5989 12.2557 40.7385L11.7491 40.9922L12.2798 41.0893C12.5717 41.1427 12.8296 41.1751 12.853 41.1614C12.9044 41.131 12.9993 40.359 12.9568 40.3165C12.9402 40.2999 12.8897 40.331 12.8444 40.3855ZM2.7894 40.6554C2.61046 40.6682 2.28106 40.696 2.05734 40.7172L1.65064 40.7557V41.1678V41.5797L3.35879 41.5439C4.45018 41.521 5.08301 41.4832 5.11144 41.4392C5.17997 41.3331 5.24868 40.7427 5.19838 40.6924C5.15062 40.6446 3.33107 40.6167 2.7894 40.6554ZM26.0202 40.9431C25.4437 41.0015 24.3628 41.1993 23.8935 41.3324C23.6632 41.3976 23.6522 41.4141 23.6092 41.7596C23.5844 41.9572 23.5764 42.1311 23.5913 42.146C23.6062 42.1609 23.8953 42.1172 24.2337 42.0489C25.2522 41.8433 26.1412 41.7714 27.647 41.7729C29.4605 41.7747 31.0861 41.9624 32.5763 42.342L32.7552 42.3876V41.9952V41.6028L32.1563 41.4621C30.4187 41.0539 27.4257 40.8007 26.0202 40.9431ZM16.0231 41.0109C15.2649 41.0624 14.1079 41.234 13.8452 41.334C13.7337 41.3764 13.6958 41.4622 13.6592 41.7556C13.6339 41.9581 13.6249 42.1356 13.6392 42.1499C13.6534 42.1641 13.7644 42.1473 13.8858 42.1125C14.3153 41.9892 15.4521 41.8505 16.5477 41.7876C18.3609 41.6835 21.1221 41.8823 22.3199 42.2031L22.654 42.2925L22.6896 42.0266C22.7092 41.8803 22.7124 41.7399 22.6967 41.7145C22.6493 41.6376 21.3268 41.3468 20.3742 41.2037C19.5324 41.0772 17.618 40.9322 17.0402 40.9511C16.8971 40.9558 16.4394 40.9827 16.0231 41.0109ZM35.9437 41.1159C35.4923 41.15 34.2516 41.3313 33.9428 41.4083C33.7259 41.4623 33.6661 41.5071 33.6655 41.616C33.6651 41.6923 33.6469 41.8629 33.6251 41.9951L33.5853 42.2356L33.9349 42.1424C34.9047 41.8839 35.6699 41.8198 37.7658 41.8218C39.3582 41.8232 39.9952 41.849 40.6204 41.9374C41.3343 42.0383 42.6088 42.2897 43.0241 42.4117C43.1693 42.4542 43.1735 42.4442 43.1542 42.1055L43.1342 41.7552L42.4416 41.5829C41.6571 41.3877 40.6346 41.2335 39.4902 41.1377C38.7693 41.0774 36.6281 41.0642 35.9437 41.1159ZM8.38562 41.4627C7.09823 41.5268 6.25685 41.6437 6.1569 41.7725C6.11219 41.8302 6.07556 41.9637 6.07556 42.0693V42.2614L6.41719 42.2205C8.20505 42.0064 11.1245 42.0014 12.0622 42.2108C12.3306 42.2708 12.5782 42.3246 12.6125 42.3303C12.6467 42.3361 12.6926 42.216 12.7146 42.0634C12.7541 41.7882 12.7525 41.7854 12.5163 41.7218C11.9951 41.5813 11.5281 41.521 10.5005 41.4611C9.90994 41.4266 9.3975 41.4027 9.36171 41.4079C9.32592 41.4131 8.88668 41.4378 8.38562 41.4627ZM2.7406 42.357L1.65064 42.3766V42.7657V43.1549H3.27231H4.89391L4.92937 42.9758C4.94889 42.8773 4.98377 42.6869 5.00687 42.5525L5.04891 42.3083L4.4397 42.3229C4.10471 42.3309 3.34005 42.3463 2.7406 42.357ZM26.6059 42.5097C25.672 42.5723 24.1834 42.7537 23.7764 42.8545C23.5861 42.9017 23.4763 42.9669 23.462 43.0414C23.4413 43.1498 23.6829 43.1549 28.0488 43.1391C31.0772 43.1281 32.6534 43.1 32.6452 43.0572C32.6274 42.9634 32.0928 42.857 30.8681 42.7037C29.8621 42.5777 27.9132 42.4277 27.5494 42.4482C27.4599 42.4533 27.0353 42.4809 26.6059 42.5097ZM16.2919 42.544C15.6016 42.6062 14.2771 42.7779 13.9172 42.8519C13.6411 42.9087 13.5208 42.9648 13.5056 43.044C13.4854 43.1489 13.7631 43.1548 18.0223 43.1391C21.343 43.1268 22.5672 43.1025 22.5852 43.0482C22.6144 42.9606 21.8655 42.8165 20.5867 42.6637C19.7539 42.5642 16.9393 42.4858 16.2919 42.544ZM36.9198 42.5421C34.8874 42.7168 33.5361 42.9365 33.5361 43.0923C33.5361 43.1318 35.3179 43.1549 38.3644 43.1549C41.1838 43.1549 43.1671 43.1308 43.131 43.097C43.0661 43.0362 41.7476 42.829 40.3687 42.6628C39.5653 42.566 37.4879 42.4933 36.9198 42.5421ZM8.25548 42.7375C7.33061 42.7936 6.24806 42.9063 6.10269 42.9616C5.65519 43.1318 6.03144 43.1549 9.26026 43.1549C12.4205 43.1549 12.7805 43.1357 12.6211 42.9761C12.4643 42.8192 9.54228 42.6595 8.25548 42.7375ZM0.934843 51.9819V54.6874L1.37408 54.6682L1.81332 54.649L1.83043 52.386L1.84755 50.123H2.85532H3.8631V49.6997V49.2764H2.39897H0.934843V51.9819ZM8.67845 51.9722V54.6815H9.13396H9.58946V53.6396V52.5976L10.1263 52.5972C10.828 52.5968 11.1045 52.5131 11.446 52.1981C11.7823 51.8878 11.9322 51.5002 11.9317 50.9417C11.9312 50.4111 11.8363 50.1015 11.5869 49.8173C11.2178 49.3966 10.9383 49.3167 9.73587 49.2881L8.67845 49.263V51.9722ZM16.4871 49.3321C16.4871 49.366 16.7952 50.2832 17.1718 51.3702L17.8563 53.3465L17.7457 53.5947C17.6163 53.885 17.4928 53.9652 17.1747 53.9652H16.9426V54.3233V54.6815H17.3395C17.5658 54.6815 17.8292 54.6374 17.9522 54.579C18.3788 54.3764 18.4436 54.2177 19.6317 50.4604C19.8952 49.6269 19.9667 49.3242 19.9056 49.3007C19.8601 49.2833 19.6658 49.2779 19.474 49.2889L19.1252 49.3089L18.7265 50.7268C18.5072 51.5067 18.3119 52.1607 18.2925 52.1802C18.273 52.1996 18.1932 52.0011 18.115 51.739C18.0368 51.477 17.8357 50.823 17.6681 50.2858L17.3633 49.3089L16.9252 49.2897C16.6792 49.2789 16.4871 49.2975 16.4871 49.3321ZM24.5208 49.3579C24.5036 49.4027 24.4971 50.6116 24.5065 52.0442L24.5236 54.649L24.9628 54.6682L25.402 54.6874V52.4052V50.123H26.1178H26.8336V52.4022V54.6815H27.2891H27.7446V51.9789V49.2764H26.1483C24.9302 49.2764 24.5446 49.2957 24.5208 49.3579ZM32.4298 51.9789V54.6815H32.8528H33.2758V52.4022V50.123H34.0241H34.7724V52.4022V54.6815H35.1954H35.6184V51.9789V49.2764H34.0241H32.4298V51.9789ZM41.5176 49.3252C41.4842 49.3794 39.9782 54.5821 39.9782 54.6432C39.9782 54.6643 40.1797 54.6815 40.4259 54.6815H40.8736L41.0292 54.1117L41.1849 53.5419L41.9354 53.5236L42.6859 53.5054L42.8374 54.0935L42.9889 54.6815H43.4357C43.6815 54.6815 43.8838 54.6595 43.8853 54.6327C43.8869 54.6058 43.5436 53.3896 43.1226 51.9301L42.3571 49.2764H41.9524C41.7298 49.2764 41.5341 49.2984 41.5176 49.3252ZM9.58946 50.937V51.751H10.1013C10.519 51.751 10.6443 51.7265 10.783 51.6173C11.1454 51.332 11.1678 50.6506 10.826 50.3086C10.6528 50.1351 10.6061 50.123 10.1151 50.123H9.58946V50.937ZM41.91 50.6131C41.8652 50.7632 41.4098 52.6655 41.4098 52.7027C41.4098 52.7165 41.6477 52.7279 41.9385 52.7279H42.4673L42.4292 52.5488C42.1992 51.466 41.9418 50.5067 41.91 50.6131ZM40.0108 60.0241C39.6366 60.1008 39.2101 60.2622 38.8991 60.4446C38.3449 60.7697 37.6833 61.6776 37.624 62.1947C37.6036 62.3719 37.6237 62.3842 38.3819 62.6609C38.8103 62.8173 39.1652 62.9394 39.1706 62.9324C39.1761 62.9253 39.2382 62.7876 39.3088 62.6264C39.6033 61.9536 40.062 61.6496 40.7823 61.6496C41.6471 61.6496 42.1261 62.1192 42.1252 62.9662C42.1247 63.4714 42.0112 63.7982 41.7429 64.0668C41.4506 64.3593 41.1474 64.449 40.45 64.4494L39.9132 64.4498V65.1987V65.9476L40.45 65.948C41.1688 65.9485 41.451 66.0367 41.7753 66.3621C41.98 66.5677 42.061 66.7132 42.1172 66.9765C42.3253 67.9531 42.0343 68.7839 41.38 69.0813C41.0271 69.2417 40.3597 69.2412 40.0055 69.0802C39.6364 68.9124 39.2874 68.5311 39.1648 68.1615L39.0612 67.8496L38.245 68.1197L37.4288 68.3897L37.4642 68.6081C37.5274 68.9993 37.8797 69.6496 38.2044 69.9745C39.1755 70.9464 41.0042 71.1781 42.4307 70.51C43.4917 70.0131 44.0744 68.8576 43.9923 67.4129C43.938 66.4556 43.5838 65.7259 43.0021 65.3728C42.8444 65.2771 42.716 65.1841 42.7169 65.1662C42.7177 65.1483 42.8559 65.0457 43.0239 64.9383C43.8619 64.4024 44.176 62.5855 43.6318 61.4216C43.2914 60.6936 42.6857 60.2499 41.7666 60.055C41.2799 59.9518 40.4355 59.9369 40.0108 60.0241ZM0.949874 62.2174C0.975057 64.2866 0.985469 64.4444 1.12433 64.8731C1.45431 65.8917 2.01498 66.4068 3.00642 66.6019C3.59415 66.7177 4.56275 66.6511 5.14743 66.4549L5.61836 66.2968L5.63547 68.548L5.65259 70.7992L6.51479 70.8174L7.377 70.8356V65.4267V60.0178L6.51479 60.0359L5.65259 60.0541L5.63554 62.4071L5.61842 64.7601L5.30842 64.8936C4.50887 65.2378 3.61341 65.2128 3.18264 64.8343C2.75765 64.4608 2.7326 64.3195 2.69401 62.0729L2.65926 60.0541L1.79113 60.0359L0.923065 60.0177L0.949874 62.2174ZM13.1034 60.835V61.6496H14.2742H15.4451L15.4618 66.2244L15.4785 70.7992L16.3407 70.8174L17.2029 70.8356V66.2426V61.6496H18.4088H19.6146L19.5963 60.8518L19.5781 60.0541L16.3407 60.0372L13.1034 60.0203V60.835ZM25.337 65.428V70.8356L26.1992 70.8174L27.0614 70.7992L27.0781 66.2244L27.0948 61.6496H28.5255H29.9562L29.9729 66.2244L29.9896 70.7992H30.8681H31.7466V65.4267V60.0541L28.5418 60.0372L25.337 60.0203V65.428Z" fill="#766E6C"/>
</svg>
