<svg width="96" height="33" viewBox="0 0 96 33" fill="none" xmlns="http://www.w3.org/2000/svg">
<path d="M27.4766 32.7231H25.2636L20.7165 21.8521H23.8906L26.4509 28.7737H26.4993L29.0112 21.8521H31.9995L27.4766 32.7231Z" fill="#766E6C"/>
<path d="M48.8635 24.6636C48.4472 24.4174 47.974 24.2838 47.4904 24.2759C46.7518 24.2938 46.0452 24.581 45.5036 25.0836V32.619H42.4264V21.8529H45.027L45.3663 22.9755C46.1385 22.1457 47.206 21.6526 48.3385 21.6025C48.9142 21.6081 49.4758 21.7822 49.9538 22.1033L48.8635 24.6636Z" fill="#766E6C"/>
<path d="M53.4025 32.8859C51.9056 32.9376 50.4244 32.5652 49.1299 31.8117L50.0911 29.5745C50.9712 30.2048 52.0214 30.5539 53.1037 30.576C54.1536 30.576 54.8159 30.2368 54.8159 29.5907C54.8159 27.8784 49.8165 28.5649 49.8165 24.9062C49.8165 22.9194 51.4318 21.5949 54.0405 21.5949C55.1773 21.5627 56.3097 21.7492 57.3762 22.1441V24.7043C56.3566 24.2549 55.2594 24.008 54.1455 23.9775C53.2571 23.9775 52.7725 24.2278 52.7725 24.7851C52.7725 26.2712 57.8688 25.722 57.8688 29.4937C57.9011 31.949 55.7124 32.8859 53.4025 32.8859Z" fill="#766E6C"/>
<path d="M62.7067 32.8854C60.6957 32.8854 59.9445 31.7466 59.9445 30.2848V24.5584H57.9577V22.1355H59.9526V19.3087L63.0379 18.396V22.1032H66.4139L65.8082 24.5262H63.0217V29.0813C63.0217 29.889 63.3367 30.2686 64.0475 30.2686C64.6718 30.24 65.2783 30.0508 65.8082 29.7194L66.6158 31.6416C65.4651 32.4349 64.1043 32.8679 62.7067 32.8854Z" fill="#766E6C"/>
<path d="M73.8121 32.6507L73.3356 31.7137C72.5046 32.4835 71.4071 32.9005 70.2745 32.8768C69.8009 32.9053 69.3266 32.8344 68.882 32.6686C68.4375 32.5028 68.0326 32.2458 67.6933 31.9141C67.354 31.5825 67.0879 31.1834 66.9121 30.7428C66.7363 30.3021 66.6546 29.8295 66.6724 29.3554C66.6724 27.0697 68.5219 25.8825 71.2599 25.7936L73.0852 25.729V25.5432C73.0852 24.4044 72.1725 23.9279 71.0983 23.9279C70.1306 23.9298 69.1795 24.1801 68.3361 24.6548L67.3992 22.781C68.6979 21.9497 70.2198 21.5355 71.7606 21.5938C74.6359 21.5938 76.235 22.7568 76.235 25.6321V32.6829L73.8121 32.6507ZM73.0609 27.7643L71.7122 27.8128C70.3876 27.8612 69.7495 28.3135 69.7495 29.1373C69.7495 29.9611 70.3391 30.4861 71.3649 30.4861C71.9594 30.5067 72.5442 30.3306 73.0286 29.9853V27.7724L73.0609 27.7643Z" fill="#766E6C"/>
<path d="M80.6933 32.6679V24.4217V15.3032L77.5919 16.2482V24.4217V32.6679H80.6933Z" fill="#766E6C"/>
<path d="M5.03175 32.8858C3.24328 32.8827 1.49459 32.3578 1.52588e-05 31.3755L1.37305 28.7991C2.41493 29.5017 3.89294 30.3013 4.85406 30.3013C5.81518 30.3013 7.13167 29.9782 7.13167 28.8314C7.13167 26.8445 3.56989 26.4892 1.7365 24.4135C1.09359 23.6736 0.750738 22.72 0.775387 21.7401C0.775387 19.4545 2.57646 17.4434 5.88786 17.4434C7.21049 17.4174 8.51762 17.7317 9.68388 18.356L9.63542 21.2394C8.51304 20.5174 7.233 20.0768 5.90401 19.9552C4.78136 19.9552 4.0464 20.4559 4.0464 21.3201C4.0464 23.9208 10.5077 23.7027 10.5077 28.4275C10.5158 31.1736 8.10085 32.8858 5.03175 32.8858Z" fill="#766E6C"/>
<path d="M34.4952 28.0964C34.5598 29.5502 35.9247 30.4144 37.3624 30.4144C38.4308 30.3995 39.4793 30.1221 40.4153 29.6067L41.118 31.5612C39.8449 32.37 38.3698 32.8039 36.8616 32.8131C32.9929 32.8131 31.4018 30.0832 31.4018 27.2645C31.4018 24.2196 33.2191 21.6108 36.4497 21.6108C39.4057 21.6108 41.4572 23.8157 41.4572 27.1595V28.0964H34.4952ZM36.3609 23.8642C35.8245 23.8915 35.3205 24.1288 34.9577 24.5248C34.595 24.9208 34.4027 25.4436 34.4225 25.9803H38.3154C38.3284 25.7125 38.2879 25.4447 38.1963 25.1927C38.1047 24.9406 37.9638 24.7094 37.7819 24.5124C37.5999 24.3154 37.3806 24.1566 37.1366 24.0454C36.8926 23.9341 36.6289 23.8725 36.3609 23.8642Z" fill="#766E6C"/>
<path d="M14.3521 28.0964C14.4248 29.5502 15.7898 30.4144 17.2193 30.4144C18.2878 30.3991 19.3361 30.1218 20.2723 29.6067L20.9749 31.5612C19.7008 32.3677 18.2264 32.8013 16.7186 32.8131C12.8499 32.8131 11.2588 30.0832 11.2588 27.2645C11.2588 24.2196 13.076 21.6108 16.3067 21.6108C19.2627 21.6108 21.3142 23.8157 21.3142 27.1595V28.0964H14.3521ZM16.2178 23.8642C15.6822 23.8915 15.1789 24.129 14.8174 24.5252C14.456 24.9215 14.2655 25.4444 14.2875 25.9803H18.1804C18.1934 25.7118 18.1527 25.4434 18.0606 25.1908C17.9685 24.9383 17.8269 24.7067 17.6441 24.5096C17.4613 24.3125 17.241 24.1539 16.996 24.043C16.7511 23.9322 16.4866 23.8715 16.2178 23.8642Z" fill="#766E6C"/>
<path d="M93.6562 12.5326C93.8645 12.464 94.0608 12.3632 94.2378 12.2337C94.555 11.4236 94.8247 10.5957 95.0454 9.75424C95.3317 8.67339 95.5315 7.57149 95.6431 6.45897C95.729 5.57532 95.729 4.68541 95.6431 3.80176C95.6774 3.41135 95.6249 3.0182 95.4894 2.65046C95.3539 2.28272 95.1387 1.94951 94.8592 1.6747C94.5798 1.3999 94.243 1.1903 93.8731 1.06095C93.5031 0.931597 93.1091 0.885681 92.7194 0.926495C91.8338 0.864167 90.9443 0.883097 90.0622 0.983037C90.2617 1.07051 90.4468 1.18758 90.6114 1.33033C91.0923 1.87277 91.3767 2.5612 91.419 3.28487C91.4954 3.87929 91.5224 4.47901 91.4998 5.07788C91.4481 6.30086 91.2612 7.51434 90.9425 8.69618C90.7034 9.63853 90.3873 10.5597 89.9975 11.4503C90.4974 11.7609 91.0214 12.031 91.5644 12.258C92.2113 12.581 92.9479 12.6777 93.6562 12.5326Z" fill="#766E6C"/>
<path d="M82.1471 10.2706C82.1133 10.4873 82.1133 10.708 82.1471 10.9248C82.6809 11.5975 83.2525 12.2393 83.8593 12.847C84.6557 13.6365 85.5147 14.3604 86.4277 15.0115C87.1467 15.5256 87.9118 15.9717 88.7134 16.3442C89.3925 16.718 90.177 16.8545 90.9425 16.7319C91.6617 16.4398 92.2658 15.9208 92.6628 15.2539C93.1663 14.5226 93.5965 13.7435 93.947 12.9278C93.7683 13.0611 93.5691 13.1647 93.3574 13.2347C92.6465 13.3817 91.9067 13.285 91.2575 12.9601C90.6977 12.736 90.1574 12.4658 89.6422 12.1525C88.6115 11.4965 87.6555 10.7301 86.7911 9.86676C86.094 9.18812 85.4538 8.45337 84.877 7.66992C84.3597 7.94467 83.8655 8.26069 83.399 8.61489C82.8109 9.01407 82.3709 9.59601 82.1471 10.2706Z" fill="#766E6C"/>
<path d="M89.836 1.41931C89.6793 1.28018 89.5023 1.16578 89.311 1.08008C88.4473 1.21129 87.5923 1.39469 86.7508 1.62928C85.6753 1.92281 84.6248 2.30092 83.609 2.76002C82.804 3.12434 82.0359 3.5652 81.3152 4.07651C80.951 4.24185 80.6284 4.48683 80.3714 4.7934C80.1144 5.09996 79.9295 5.46029 79.8303 5.84783C79.7311 6.23537 79.7201 6.64026 79.7982 7.0326C79.8763 7.42495 80.0414 7.79478 80.2814 8.11481C80.6652 8.91107 81.125 9.66839 81.6544 10.3763C81.6197 10.1569 81.6197 9.93336 81.6544 9.71397C81.8838 9.00909 82.3487 8.40454 82.9709 8.00173C83.4475 7.64097 83.9526 7.31954 84.4812 7.04061C85.5679 6.47496 86.7136 6.03077 87.8976 5.71606C88.8312 5.4528 89.7847 5.26641 90.7487 5.15878C90.7697 4.56797 90.7427 3.97643 90.668 3.39C90.6225 2.65769 90.3291 1.96268 89.836 1.41931Z" fill="#766E6C"/>
</svg>
