<svg width="22" height="18" viewBox="0 0 22 18" fill="none" xmlns="http://www.w3.org/2000/svg">
<path d="M4.3114 0.0153294C3.75877 0.0873337 3.22266 0.418856 2.91331 0.883886C2.87877 0.937889 2.34867 1.85745 1.73597 2.92702C1.07222 4.08809 0.593174 4.91015 0.548123 4.96715C0.29884 5.27467 0.124642 5.6422 0.0345392 6.04872L0 6.20173V11.002V15.8024L0.0345392 15.9599C0.279317 17.0714 1.14881 17.8605 2.26758 17.985C2.35167 17.994 3.26771 18 4.72287 18C7.19918 18 7.19317 18 7.483 17.9265C8.06266 17.778 8.55522 17.433 8.89461 16.9364C8.95017 16.8554 9.20846 16.3604 9.58539 15.6073C10.147 14.4853 10.1921 14.4013 10.2777 14.3068C10.3948 14.1808 10.5074 14.1057 10.6696 14.0502C10.9204 13.9617 11.2238 13.9992 11.4505 14.1462C11.5661 14.2213 11.6818 14.3398 11.7448 14.4463C11.8289 14.5918 12.8711 16.5194 12.9447 16.6649C13.3141 17.4015 14.0289 17.8965 14.8534 17.985C14.9735 17.997 15.6493 18 17.3973 17.997C20.0238 17.9895 19.836 17.997 20.1859 17.895C21.09 17.631 21.7567 16.9064 21.9655 15.9599L22 15.8024V11.002V6.20173L21.958 6.02322C21.9054 5.80271 21.8423 5.62419 21.7642 5.46818C21.7312 5.40368 21.7027 5.33617 21.6997 5.32117C21.6922 5.28667 19.2203 1.0744 19.0957 0.883886C18.9921 0.726376 18.7218 0.453358 18.5686 0.351351C18.3133 0.181839 18.0145 0.0648327 17.7261 0.0228291C17.582 0.00182724 16.9062 -0.00117302 10.991 0.000328064C7.29679 0.00182724 4.36997 0.00782776 4.3114 0.0153294ZM18.0085 2.97352C18.3238 3.51056 18.5866 3.96359 18.5926 3.97709C18.6016 4.00259 18.2337 4.00409 11.0165 4.00409H3.4299L3.45543 3.95459C3.46894 3.92908 3.72724 3.47605 4.02758 2.94952L4.5742 1.99396H11.0045H17.4348L18.0085 2.97352ZM6.43481 9.05042C6.82826 9.14192 7.14812 9.32193 7.43044 9.61295C7.70225 9.89347 7.86744 10.204 7.95304 10.591C7.98157 10.717 7.98758 10.792 7.98908 10.987C7.98908 11.2541 7.97106 11.3816 7.90348 11.5931C7.84041 11.7926 7.76983 11.9381 7.6557 12.1121C7.53857 12.2861 7.32082 12.5126 7.15563 12.6281C6.92287 12.7917 6.62102 12.9177 6.34171 12.9687C6.15549 13.0032 5.82512 13.0032 5.64642 12.9687C4.81297 12.8127 4.17925 12.1796 4.02307 11.3471C3.99003 11.1701 3.98853 10.8385 4.02157 10.6555C4.17324 9.81097 4.84 9.15842 5.69147 9.02192C5.89119 8.99041 6.23208 9.00241 6.43481 9.05042ZM16.241 9.01441C16.9122 9.09692 17.4904 9.50195 17.7937 10.1035C18.037 10.5835 18.0715 11.1536 17.8913 11.6651C17.7216 12.1451 17.3597 12.5576 16.9092 12.7842C16.4407 13.0182 15.879 13.0617 15.3835 12.8997C15.0846 12.8022 14.8294 12.6432 14.5951 12.4121C14.3068 12.1256 14.1175 11.7746 14.038 11.3726C13.9974 11.1686 14.0019 10.792 14.047 10.591C14.1326 10.204 14.2992 9.89197 14.5666 9.61595C14.8579 9.31593 15.1958 9.12692 15.5877 9.04592C15.6703 9.02942 15.7619 9.01291 15.7904 9.00991C15.9061 8.99791 16.1208 9.00091 16.241 9.01441Z" />
</svg>
