<?xml version="1.0" encoding="utf-8"?>
<!-- Generator: Adobe Illustrator 26.0.3, SVG Export Plug-In . SVG Version: 6.00 Build 0)  -->
<svg version="1.1" id="Слой_1" xmlns="http://www.w3.org/2000/svg" xmlns:xlink="http://www.w3.org/1999/xlink" x="0px" y="0px"
	 viewBox="0 0 21 21" style="enable-background:new 0 0 21 21;" xml:space="preserve">
<style type="text/css">
	.st0{fill:#CC0035;}
</style>
<path class="st0" d="M20.5,6L11,0.3c-0.1-0.1-0.3-0.1-0.5-0.1s-0.3,0-0.5,0.1L0.5,6C0.2,6.1,0,6.5,0,6.8v13.4c0,0.3,0.3,0.6,0.6,0.6
	h1.1c0.3,0,0.6-0.3,0.6-0.6V7.3c0-0.1,0.1-0.2,0.2-0.2l8-4.6l8,4.6c0.1,0,0.2,0.1,0.2,0.2V9H10l-6.6,2l9.7,9.8h1.8V19h-1.8v-2h-2v-2
	H8.9v-2H7.1v-2h2.8H10h8.7v9.1c0,0.3,0.3,0.6,0.6,0.6h1.1c0.3,0,0.6-0.3,0.6-0.6V6.8C21,6.5,20.8,6.1,20.5,6z"/>
</svg>
