<svg width="19" height="18" viewBox="0 0 19 18" fill="none" xmlns="http://www.w3.org/2000/svg">
<g clip-path="url(#clip0_394_9226)">
<!-- <path d="M18.1745 8.5655L18.3581 8.74447L18.1746 8.92347L9.63045 17.2571L9.45592 17.4273L9.28137 17.2571L8.15128 16.1553L7.96769 15.9763L8.15128 15.7973L14.3289 9.77418L-1.99445e-06 9.77418L-0.250002 9.77418L-0.250002 9.52418L-0.250002 7.96794L-0.250002 7.71794L-2.01897e-06 7.71794L14.3289 7.71794L8.15128 1.6948L7.96769 1.5158L8.15128 1.3368L9.28136 0.234966L9.45589 0.0648042L9.63041 0.234968L18.1745 8.5655Z" fill="white" stroke="white" stroke-width="0.5"/> -->
<path d="M18.1745 8.5655L18.3581 8.74447L18.1746 8.92347L9.63045 17.2571L9.45592 17.4273L9.28137 17.2571L8.15128 16.1553L7.96769 15.9763L8.15128 15.7973L14.3289 9.77418L-1.99445e-06 9.77418L-0.250002 9.77418L-0.250002 9.52418L-0.250002 7.96794L-0.250002 7.71794L-2.01897e-06 7.71794L14.3289 7.71794L8.15128 1.6948L7.96769 1.5158L8.15128 1.3368L9.28136 0.234966L9.45589 0.0648042L9.63041 0.234968L18.1745 8.5655Z"  stroke-width="0.5"/>
</g>
<defs>
<clipPath id="clip0_394_9226">
<rect width="18" height="19" fill="white" transform="matrix(-1.10076e-08 -1 -1 1.29186e-08 19 18)"/>
</clipPath>
</defs>
</svg>
