<svg width="20" height="20" viewBox="0 0 20 20" fill="none" xmlns="http://www.w3.org/2000/svg">
<g clip-path="url(#clip0_690_15211)">
<path fill-rule="evenodd" clip-rule="evenodd" d="M1.25 1.25H18.75V18.75H1.25V1.25ZM13.1131 16.25H15.3661L3.75 4.63388V6.8869C3.75 7.22551 3.46008 7.5 3.125 7.5C2.77982 7.5 2.5 7.23118 2.5 6.8869V3.1131C2.5 2.94579 2.57079 2.79414 2.68127 2.67918C2.79122 2.56836 2.94294 2.5 3.1131 2.5H6.8869C7.22551 2.5 7.5 2.78992 7.5 3.125C7.5 3.47018 7.23118 3.75 6.8869 3.75H4.63387L16.25 15.3661V13.1131C16.25 12.7745 16.5399 12.5 16.875 12.5C17.2202 12.5 17.5 12.7688 17.5 13.1131V16.8869C17.5 17.0542 17.4292 17.2059 17.3187 17.3208C17.2088 17.4316 17.0571 17.5 16.8869 17.5H13.1131C12.7745 17.5 12.5 17.2101 12.5 16.875C12.5 16.5298 12.7688 16.25 13.1131 16.25Z" />
<path fill-rule="evenodd" clip-rule="evenodd" d="M1.25111 0C0.555805 0 0 0.56013 0 1.25109V18.7489C0 19.4442 0.560149 20 1.25111 20H18.7489C19.4442 20 20 19.4399 20 18.7489V1.25109C20 0.555786 19.4399 0 18.7489 0H1.25111ZM18.75 1.25H1.25V18.75H18.75V1.25Z" />
</g>
<defs>
<clipPath id="clip0_690_15211">
<rect width="20" height="20" fill="white"/>
</clipPath>
</defs>
</svg>
