<svg width="23" height="23" viewBox="0 0 23 23" fill="none" xmlns="http://www.w3.org/2000/svg">
<g clip-path="url(#clip0_1100_7456)">
<path d="M9.37679 4.91602H8.11462V6.17818H9.37679V4.91602Z" fill="#CC0035"/>
<path d="M14.4245 4.91602H13.1624V6.17818H14.4245V4.91602Z" fill="#CC0035"/>
<path d="M3.02466 10.6807V22.0402H4.28683V20.778H10.6397V10.6807H3.02466ZM9.37757 13.205H8.1154V11.9428H9.37757V13.205Z" fill="#CC0035"/>
<path d="M19.517 7.44092H3.02466V9.41831H19.517V7.44092Z" fill="#CC0035"/>
<path d="M11.9008 10.6807V20.778H18.2537V22.0402H19.5158V10.6807H11.9008ZM14.4251 13.205H13.1629V11.9428H14.4251V13.205Z" fill="#CC0035"/>
<path d="M12.5319 0.499023C11.488 0.499023 10.6387 1.34834 10.6387 2.39227V6.80986H11.9008V2.39227C11.9008 2.04429 12.1839 1.76119 12.5319 1.76119C12.8799 1.76119 13.163 2.04429 13.163 2.39227V3.65444H14.4252V2.39227C14.4252 1.34834 13.5759 0.499023 12.5319 0.499023Z" fill="#CC0035"/>
</g>
<defs>
<clipPath id="clip0_1100_7456">
<rect width="21.541" height="21.541" fill="white" transform="translate(0.499268 0.499023)"/>
</clipPath>
</defs>
</svg>
