<svg width="23" height="23" viewBox="0 0 23 23" fill="none" xmlns="http://www.w3.org/2000/svg">
<g clip-path="url(#clip0_555_3944)">
<path d="M9.37642 4.91602H8.11426V6.17818H9.37642V4.91602Z" />
<path d="M14.4243 4.91602H13.1621V6.17818H14.4243V4.91602Z" />
<path d="M3.02441 10.6807V22.0402H4.28658V20.778H10.6395V10.6807H3.02441ZM9.37732 13.205H8.11515V11.9428H9.37732V13.205Z" />
<path d="M19.5167 7.44092H3.02441V9.41831H19.5167V7.44092Z" />
<path d="M11.9004 10.6807V20.778H18.2533V22.0402H19.5155V10.6807H11.9004ZM14.4247 13.205H13.1626V11.9428H14.4247V13.205Z"/>
<path d="M12.5319 0.499023C11.488 0.499023 10.6387 1.34834 10.6387 2.39227V6.80986H11.9008V2.39227C11.9008 2.04429 12.1839 1.76119 12.5319 1.76119C12.8799 1.76119 13.163 2.04429 13.163 2.39227V3.65444H14.4252V2.39227C14.4252 1.34834 13.5759 0.499023 12.5319 0.499023Z" />
</g>
<defs>
<clipPath id="clip0_555_3944">
<rect width="21.541" height="21.541" fill="white" transform="translate(0.499023 0.499023)"/>
</clipPath>
</defs>
</svg>
