<svg width="22" height="22" viewBox="0 0 22 22" fill="none" xmlns="http://www.w3.org/2000/svg">
<g clip-path="url(#clip0_555_3982)">
<path d="M19.7584 12.2484H2.24389C1.52202 12.2484 0.936846 11.6632 0.936846 10.9413C0.936846 10.2194 1.52202 9.63428 2.24389 9.63428H19.7584C20.4803 9.63428 21.0654 10.2194 21.0654 10.9413C21.0655 11.6632 20.4803 12.2484 19.7584 12.2484Z" fill="#CC0035"/>
<path d="M9.69393 6.81445C10.0754 6.81445 10.3857 7.12478 10.3857 7.50626V8.40315H5.0316V7.50626C5.0316 7.12478 5.34193 6.81445 5.72341 6.81445H9.69393Z" fill="#CC0035"/>
<path d="M18.2003 7.50678C18.2003 6.44681 17.338 5.5845 16.278 5.5845H12.3075C11.8031 5.5845 11.3437 5.78006 11.0005 6.099C10.6572 5.78006 10.1978 5.5845 9.69341 5.5845H5.72289C4.66292 5.5845 3.80061 6.44681 3.80061 7.50678V8.40367H1.8036V4.16593C1.8036 3.44406 2.38881 2.85889 3.11065 2.85889H18.8902C19.6121 2.85889 20.1973 3.44406 20.1973 4.16593V8.40367H18.2003V7.50678Z" fill="#CC0035"/>
<path d="M16.2789 6.81445C16.6604 6.81445 16.9707 7.12478 16.9707 7.50626V8.40315H11.6166V7.50626C11.6166 7.12478 11.9269 6.81445 12.3084 6.81445H16.2789Z" fill="#CC0035"/>
<path d="M21.501 13.478V19.1389H20.2705V16.8954H1.73145V19.1389H0.500978V13.478H21.501Z" fill="#CC0035"/>
</g>
<defs>
<clipPath id="clip0_555_3982">
<rect width="21" height="21" fill="white" transform="matrix(-1 0 0 1 21.501 0.499023)"/>
</clipPath>
</defs>
</svg>
