<svg width="40" height="40" viewBox="0 0 40 40" fill="none" xmlns="http://www.w3.org/2000/svg">
<path fill-rule="evenodd" clip-rule="evenodd" d="M18.6642 15.078V2.9917H20.6642V15.578L26.9571 9.28508L28.3714 10.6993L22.5785 16.4922H35.1642V18.4922H34.6642L35.2123 19.3286L21.989 27.9922L35.2123 36.6557L34.1162 38.3287L20.1642 29.1877L6.21227 38.3287L5.11622 36.6557L18.3395 27.9922L5.11622 19.3286L5.66425 18.4922H5.16425V16.4922H17.25L11.4571 10.6993L12.8714 9.28508L18.6642 15.078ZM7.48898 18.4922L20.1642 26.7967L32.8395 18.4922H7.48898Z" fill="#CC0035"/>
<path fill-rule="evenodd" clip-rule="evenodd" d="M5.69441 17.242L19.9441 2.99219L34.4944 17.5425V37.5785H5.69441V17.242ZM3.69441 19.242L1.87117 21.0653C1.48065 21.4558 0.847486 21.4558 0.45696 21.0653C0.0664333 20.6748 0.0664296 20.0416 0.456952 19.6511L18.5299 1.57798C19.3109 0.796927 20.5772 0.796922 21.3583 1.57797L39.4312 19.6509C39.8217 20.0414 39.8217 20.6746 39.4312 21.0651C39.0407 21.4556 38.4075 21.4556 38.017 21.0651L36.4944 19.5425V38.0785C36.4944 38.9069 35.8228 39.5785 34.9944 39.5785H5.19441C4.36599 39.5785 3.69441 38.9069 3.69441 38.0785V19.242Z" fill="#343434"/>
</svg>
