<svg width="335" height="332" viewBox="0 0 335 332" fill="none" xmlns="http://www.w3.org/2000/svg">
<path d="M329.439 173.745L329.68 166.803L318.137 166.401L318.09 167.77L328.33 168.126L328.136 173.7L329.439 173.745Z" fill="white"/>
<path d="M316.665 186.486L316.492 187.928L328.511 184.717L328.721 182.964L317.804 177.001L317.631 178.442L320.908 180.215L320.269 185.539L316.665 186.486ZM322.139 180.895L327.321 183.694L321.624 185.187L322.139 180.895Z" fill="white"/>
<path d="M326.054 199.666L327.044 195.136L315.76 192.67L315.468 194.008L319.466 194.881L318.768 198.073C318.222 200.572 319.511 202.323 321.591 202.777C323.67 203.232 325.508 202.164 326.054 199.666ZM320.052 198.303L320.739 195.16L325.478 196.196L324.791 199.339C324.4 201.128 323.16 201.702 321.87 201.42C320.581 201.138 319.661 200.092 320.052 198.303Z" fill="white"/>
<path d="M310.228 213.9L309.791 215.284L322.196 214.362L322.728 212.678L313.109 204.791L312.671 206.175L315.562 208.526L313.945 213.639L310.228 213.9ZM316.646 209.422L321.217 213.135L315.342 213.544L316.646 209.422Z" fill="white"/>
<path d="M315.752 231.51L311.216 229.571L313.848 223.411L318.385 225.35L318.923 224.091L308.302 219.552L307.764 220.811L312.65 222.899L310.017 229.059L305.132 226.971L304.593 228.23L315.214 232.769L315.752 231.51Z" fill="white"/>
<path d="M308.88 245.27L313.058 237.494L311.91 236.877L310.153 240.147L301.127 235.298L300.471 236.519L309.497 241.368L307.732 244.653L308.88 245.27Z" fill="white"/>
<path d="M301.924 256.533L297.38 245.749L301.399 248.528L305.439 251.182L306.191 250.038L296.538 243.695L295.614 245.102L300.157 255.886L296.139 253.107L292.099 250.452L291.347 251.597L300.999 257.939L301.924 256.533Z" fill="white"/>
<path d="M295.285 265.69C296.879 263.69 296.56 261.706 294.934 260.411C293.463 259.239 291.703 259.25 290.206 260.652L288.965 255.086L287.906 256.416L289.18 261.861L287.69 263.732L284.257 260.997L283.403 262.068L292.437 269.265L295.285 265.69ZM290.57 262.102C291.711 260.67 293.025 260.662 294.045 261.474C295.064 262.286 295.325 263.549 294.183 264.981L292.271 267.382L288.658 264.503L290.57 262.102Z" fill="white"/>
<path d="M277.332 285.248L273.933 281.671L278.789 277.057L282.188 280.633L283.181 279.689L275.224 271.317L274.231 272.261L277.891 276.112L273.035 280.727L269.375 276.875L268.383 277.819L276.339 286.191L277.332 285.248Z" fill="white"/>
<path d="M257.826 286.548L256.684 287.444L267.449 293.678L268.837 292.589L265.341 280.65L264.199 281.547L265.261 285.118L261.042 288.428L257.826 286.548ZM265.65 286.469L267.332 292.113L262.25 289.138L265.65 286.469Z" fill="white"/>
<path d="M239.678 299.818L244.759 308.716L250.748 305.296L247.945 297.758C247.482 296.482 247.348 295.78 247.558 295.318L248.991 294.5L247.142 291.262L245.953 291.941L247.156 294.047L238.802 298.817L237.599 296.711L236.396 297.398L238.245 300.636L239.678 299.818ZM246.729 298.357L249.099 304.737L245.302 306.905L240.867 299.139L246.212 296.087C246.175 296.621 246.354 297.336 246.729 298.357Z" fill="white"/>
<path d="M232.916 314.759C236.002 313.414 237.368 310.027 236.009 306.912C234.65 303.796 231.238 302.494 228.168 303.834C225.083 305.179 223.731 308.559 225.09 311.675C226.449 314.79 229.846 316.099 232.916 314.759ZM232.41 313.558C230.051 314.587 227.429 313.571 226.361 311.121C225.292 308.671 226.33 306.058 228.689 305.028C231.049 303.999 233.677 305.031 234.739 307.466C235.801 309.901 234.77 312.529 232.41 313.558Z" fill="white"/>
<path d="M213.049 321.916L214.904 315.564L220.042 319.733L221.649 319.232L218.208 308.206L216.901 308.614L219.816 317.954L214.323 313.481L214.197 313.52L212.224 320.324L209.309 310.983L208.002 311.391L211.442 322.417L213.049 321.916Z" fill="white"/>
<path d="M193.875 314.649L192.452 314.937L199.274 325.339L201.004 324.989L203.238 312.751L201.815 313.04L201.161 316.707L195.905 317.772L193.875 314.649ZM200.902 318.09L199.872 323.888L196.665 318.948L200.902 318.09Z" fill="white"/>
<path d="M174.429 328.444L180.373 318.365L180.541 323.247L180.82 328.074L182.187 327.995L181.519 316.464L179.839 316.561L173.895 326.641L173.727 321.758L173.448 316.932L172.081 317.011L172.749 328.542L174.429 328.444Z" fill="white"/>
<path d="M160.013 323.033C158.929 323.395 158.29 324.317 158.256 325.405C158.197 327.318 159.856 328.674 162.181 328.745C164.391 328.814 166.103 327.909 166.605 325.547L165.219 325.505C164.777 327.01 163.788 327.491 162.254 327.444C160.621 327.393 159.607 326.569 159.647 325.283C159.681 324.162 160.543 323.528 162.34 323.583L163.742 323.627L163.779 322.423L161.965 322.367C160.036 322.307 159.353 321.411 159.389 320.257C159.431 318.904 160.513 318.079 162.36 318.136C164.042 318.188 165.26 318.837 165.558 320.414L166.944 320.457C166.67 318.088 164.792 316.907 162.384 316.833C159.811 316.754 158.072 318.02 158.007 320.115C157.964 321.517 158.723 322.597 160.013 323.033Z" fill="white"/>
<path d="M138.633 314.54L143.27 321.264L136.969 325.971L138.695 326.252L144.745 321.756L143.874 327.097L145.226 327.317L147.085 315.918L145.733 315.698L144.83 321.234L140.376 314.824L138.633 314.54Z" fill="white"/>
<path d="M128.255 324.127L131.533 316.782C132.356 314.951 132.877 314.525 133.771 314.76C133.914 314.798 134.245 314.902 134.385 314.956L134.703 313.743C134.488 313.652 134.062 313.523 133.838 313.464C132.434 313.095 131.377 313.807 130.246 316.359L127.469 322.572L123.192 321.448L125.797 311.538L124.473 311.19L121.537 322.361L128.255 324.127Z" fill="white"/>
<path d="M108.487 316.595L108.039 317.819L114.917 320.341L118.893 309.497L112.015 306.975L111.566 308.199L117.158 310.249L115.79 313.983L110.569 312.069L110.12 313.292L115.341 315.207L114.08 318.646L108.487 316.595Z" fill="white"/>
<path d="M96.2257 311.283L95.678 312.466L102.326 315.545L107.179 305.064L100.532 301.985L99.9838 303.168L105.389 305.671L103.718 309.28L98.6721 306.943L98.1243 308.126L103.17 310.462L101.631 313.786L96.2257 311.283Z" fill="white"/>
<path d="M83.1382 305.707L85.6004 301.431L91.4055 304.775L88.9433 309.05L90.13 309.733L95.8944 299.725L94.7076 299.041L92.056 303.645L86.251 300.302L88.9026 295.698L87.7158 295.014L81.9515 305.023L83.1382 305.707Z" fill="white"/>
<path d="M72.1301 298.728C74.8593 300.698 78.47 300.15 80.4595 297.394C82.4489 294.638 81.8319 291.038 79.1161 289.078C76.3868 287.108 72.7895 287.665 70.8001 290.421C68.8107 293.177 69.4143 296.767 72.1301 298.728ZM72.9064 297.68C70.8194 296.174 70.3594 293.4 71.9239 291.233C73.4884 289.065 76.2661 288.628 78.3531 290.135C80.4402 291.641 80.8905 294.429 79.3357 296.583C77.7808 298.737 74.9935 299.187 72.9064 297.68Z" fill="white"/>
<path d="M57.4342 286.741L62.6733 291.303L70.2574 282.592L69.2245 281.692L62.4963 289.42L58.2901 285.758L57.4342 286.741Z" fill="white"/>
<path d="M49.2565 279.078C51.5754 281.517 55.2251 281.645 57.6889 279.304C60.1527 276.962 60.2106 273.311 57.9032 270.883C55.5843 268.443 51.9459 268.327 49.4821 270.668C47.0183 273.01 46.9491 276.65 49.2565 279.078ZM50.2128 278.192C48.4395 276.326 48.4994 273.515 50.4369 271.673C52.3745 269.832 55.1851 269.915 56.9583 271.781C58.7315 273.646 58.6597 276.469 56.7341 278.299C54.8085 280.129 51.986 280.057 50.2128 278.192Z" fill="white"/>
<path d="M37.6923 257.734L39.6997 260.558L36.9965 262.48L33.2493 257.208L32.1868 257.963L35.9341 263.235L36.7275 264.351L46.1417 257.66L43.3886 253.786C41.9069 251.702 39.9895 251.425 38.2949 252.63C36.6004 253.834 36.2011 255.636 37.6923 257.734ZM42.3548 254.582L44.2858 257.299L40.7353 259.822L38.7565 257.038C37.7337 255.599 38.0489 254.505 39.0844 253.769C40.12 253.033 41.332 253.143 42.3548 254.582Z" fill="white"/>
<path d="M26.1508 248.49L28.4943 252.491L38.4603 246.653L37.7681 245.471L34.2373 247.539L32.586 244.72C31.2933 242.514 29.1583 242.101 27.3217 243.177C25.4851 244.252 24.8581 246.283 26.1508 248.49ZM31.4863 245.422L33.1126 248.198L28.9269 250.65L27.3006 247.874C26.3748 246.294 26.8975 245.031 28.0365 244.364C29.1754 243.697 30.5606 243.842 31.4863 245.422Z" fill="white"/>
<path d="M17.2321 231.216L17.8821 232.606L24.6578 233.19L20.7687 238.779L21.4257 240.184L26.3096 233.255L31.1195 233.647L30.4625 232.242L17.2321 231.216Z" fill="white"/>
<path d="M24.0344 216.504C23.1738 214.043 21.039 212.587 18.5815 212.608L19.0663 213.994C20.7591 214.136 22.1994 215.206 22.8094 216.95C23.67 219.411 22.4227 221.892 19.9151 222.769C17.4075 223.646 14.8857 222.483 14.0251 220.022C13.415 218.278 13.8749 216.544 15.1102 215.377L14.6254 213.991C12.6908 215.507 11.9286 217.976 12.7892 220.437C13.9113 223.645 17.1486 225.205 20.3727 224.077C23.5967 222.95 25.1564 219.713 24.0344 216.504Z" fill="white"/>
<path d="M18.705 198.812L18.3626 197.401L8.22775 204.615L8.64407 206.33L20.9578 208.096L20.6154 206.685L16.9252 206.172L15.6607 200.96L18.705 198.812ZM15.5339 205.966L9.70071 205.157L14.5145 201.765L15.5339 205.966Z" fill="white"/>
<path d="M8.97692 178.586L6.49824 180.023L8.17489 182.964L4.81953 183.328L5.12204 186.12L8.47739 185.756L7.46976 188.988L10.1957 189.834L11.3143 186.372L14.4366 188.369L15.9936 185.946L12.785 183.904L15.4788 181.195L13.436 179.135L10.8169 181.782L8.97692 178.586Z" fill="#CC0035"/>
<path d="M3.57938 160.614L3.47213 167.56L15.0208 167.738L15.0419 166.369L4.79661 166.21L4.88272 160.634L3.57938 160.614Z" fill="white"/>
<path d="M16.0967 147.67L16.2421 146.225L4.28768 149.666L4.11099 151.423L15.1406 157.175L15.286 155.731L11.9754 154.021L12.5121 148.686L16.0967 147.67ZM10.7313 153.366L5.49712 150.667L11.1639 149.064L10.7313 153.366Z" fill="white"/>
<path d="M6.33649 135.239L5.4504 139.79L16.7875 141.997L17.0492 140.653L13.0327 139.871L13.657 136.664C14.1458 134.154 12.8167 132.433 10.7275 132.026C8.63821 131.619 6.82526 132.729 6.33649 135.239ZM12.3681 136.464L11.7532 139.622L6.9916 138.695L7.60651 135.537C7.95653 133.739 9.18312 133.137 10.4788 133.39C11.7745 133.642 12.7181 134.666 12.3681 136.464Z" fill="white"/>
<path d="M21.9855 120.117L22.3971 118.724L10.0113 119.881L9.51086 121.574L19.2778 129.279L19.6893 127.886L16.7546 125.591L18.2745 120.448L21.9855 120.117ZM15.6542 124.715L11.0134 121.089L16.8794 120.569L15.6542 124.715Z" fill="white"/>
<path d="M16.1695 102.472L20.7415 104.325L18.2244 110.534L13.6524 108.68L13.1378 109.949L23.8415 114.289L24.3561 113.02L19.4324 111.023L21.9495 104.815L26.8732 106.811L27.3877 105.542L16.6841 101.203L16.1695 102.472Z" fill="white"/>
<path d="M22.7576 88.6242L18.7242 96.4764L19.8837 97.0719L21.58 93.7696L30.6944 98.4513L31.3276 97.2185L22.2132 92.5368L23.917 89.2198L22.7576 88.6242Z" fill="white"/>
<path d="M29.4145 77.3582L34.1545 88.0567L30.0859 85.3524L25.9976 82.7721L25.2667 83.9302L35.0341 90.0947L35.9323 88.6714L31.1923 77.9729L35.2608 80.6772L39.3492 83.2575L40.0801 82.0994L30.3127 75.9349L29.4145 77.3582Z" fill="white"/>
<path d="M35.7591 68.1982C34.2023 70.2273 34.5569 72.2047 36.2064 73.4702C37.6987 74.6152 39.4582 74.5717 40.9292 73.1423L42.2712 78.6848L43.3057 77.3365L41.9327 71.9157L43.3891 70.0175L46.8713 72.6892L47.7049 71.6026L38.5412 64.572L35.7591 68.1982ZM40.5391 71.6992C39.4243 73.1522 38.1104 73.1841 37.0762 72.3906C36.0421 71.5972 35.7588 70.34 36.8737 68.8869L38.7418 66.452L42.4073 69.2642L40.5391 71.6992Z" fill="white"/>
<path d="M52.8624 48.7031L56.3382 52.2042L51.5841 56.9239L48.1083 53.4227L47.1364 54.3876L55.2738 62.5843L56.2457 61.6194L52.5025 57.8489L57.2566 53.1293L60.9998 56.8998L61.9717 55.9349L53.8343 47.7382L52.8624 48.7031Z" fill="white"/>
<path d="M72.9618 46.4164L74.0876 45.4993L63.2109 39.4624L61.8421 40.5775L65.5549 52.4502L66.6807 51.5332L65.554 47.9818L69.7116 44.5949L72.9618 46.4164ZM65.1401 46.6377L63.3562 41.0254L68.4918 43.9073L65.1401 46.6377Z" fill="white"/>
<path d="M90.8735 32.7762L85.6295 23.9733L79.7042 27.5031L82.6462 34.9886C83.1317 36.255 83.2795 36.9544 83.0771 37.4207L81.6596 38.2651L83.568 41.4688L84.7446 40.7679L83.5032 38.6841L91.7675 33.7609L93.0088 35.8447L94.1995 35.1354L92.2911 31.9318L90.8735 32.7762ZM83.8508 34.367L81.3636 28.0319L85.1201 25.7941L89.697 33.4771L84.4096 36.6269C84.4367 36.0922 84.2437 35.3813 83.8508 34.367Z" fill="white"/>
<path d="M97.0031 17.8559C93.9435 19.259 92.6399 22.6704 94.0567 25.76C95.4736 28.8497 98.9094 30.0877 101.954 28.6915C105.014 27.2884 106.302 23.8838 104.885 20.7942C103.469 17.7046 100.048 16.4597 97.0031 17.8559ZM97.5315 19.0476C99.8712 17.9747 102.511 18.9422 103.626 21.3719C104.74 23.8016 103.75 26.4336 101.411 27.5066C99.0709 28.5796 96.4239 27.597 95.3166 25.1823C94.2092 22.7676 95.1918 20.1206 97.5315 19.0476Z" fill="white"/>
<path d="M116.574 10.3228L114.839 16.7087L109.623 12.6368L108.026 13.1684L111.674 24.1271L112.974 23.6945L109.883 14.4109L115.459 18.7804L115.585 18.7387L117.429 11.8989L120.52 21.1825L121.819 20.75L118.171 9.79126L116.574 10.3228Z" fill="white"/>
<path d="M135.75 17.1893L137.167 16.8738L130.148 6.60346L128.424 6.98703L126.424 19.2649L127.842 18.9494L128.426 15.2697L133.66 14.1046L135.75 17.1893ZM128.658 13.8826L129.577 8.06582L132.877 12.9434L128.658 13.8826Z" fill="white"/>
<path d="M155.402 2.89056L149.653 13.0825L149.392 8.20408L149.019 3.38396L147.654 3.48951L148.544 15.0052L150.222 14.8754L155.971 4.68355L156.232 9.56193L156.605 14.382L157.97 14.2765L157.08 2.76085L155.402 2.89056Z" fill="white"/>
<path d="M168.955 7.99867C170.032 7.61512 170.653 6.68175 170.666 5.59282C170.688 3.67895 169.004 2.35586 166.678 2.32892C164.467 2.30331 162.773 3.24076 162.316 5.61163L163.702 5.62768C164.116 4.11437 165.095 3.61418 166.629 3.63195C168.263 3.65086 169.293 4.45485 169.278 5.74176C169.265 6.86369 168.416 7.5139 166.618 7.49307L165.215 7.47683L165.201 8.68125L167.016 8.70227C168.947 8.72462 169.646 9.60728 169.633 10.7622C169.617 12.1151 168.551 12.9608 166.703 12.9394C165.02 12.9199 163.79 12.2951 163.462 10.7237L162.076 10.7077C162.395 13.071 164.296 14.2151 166.705 14.243C169.278 14.2728 170.993 12.9726 171.017 10.8772C171.034 9.47484 170.254 8.40974 168.955 7.99867Z" fill="white"/>
<path d="M190.944 15.9954L186.179 9.36082L192.389 4.53441L190.657 4.286L184.695 8.89788L185.463 3.54075L184.108 3.34624L182.467 14.7791L183.823 14.9737L184.62 9.42053L189.196 15.7447L190.944 15.9954Z" fill="white"/>
<path d="M201.036 6.11432L197.898 13.5196C197.11 15.366 196.597 15.8018 195.699 15.5839C195.555 15.5489 195.222 15.4511 195.082 15.4001L194.786 16.6187C195.003 16.7052 195.432 16.8263 195.656 16.8808C197.067 17.2232 198.111 16.4916 199.193 13.9189L201.851 7.65341L206.149 8.69614L203.732 18.6537L205.063 18.9766L207.787 7.75234L201.036 6.11432Z" fill="white"/>
<path d="M221.419 13.3469L221.845 12.1148L214.92 9.72246L211.149 20.6393L218.073 23.0316L218.499 21.7996L212.869 19.8544L214.167 16.0959L219.423 17.9118L219.849 16.6797L214.593 14.8639L215.789 11.4017L221.419 13.3469Z" fill="white"/>
<path d="M233.557 18.2905L234.083 17.0976L227.379 14.1434L222.721 24.7127L229.425 27.6669L229.951 26.4741L224.5 24.0721L226.104 20.4333L231.192 22.6756L231.718 21.4827L226.629 19.2404L228.106 15.8885L233.557 18.2905Z" fill="white"/>
<path d="M246.687 23.5182L244.304 27.838L238.438 24.6023L240.821 20.2825L239.622 19.621L234.043 29.7343L235.242 30.3958L237.808 25.7437L243.674 28.9794L241.108 33.6315L242.307 34.293L247.886 24.1797L246.687 23.5182Z" fill="white"/>
<path d="M258.12 30.3975C255.355 28.4777 251.755 29.0914 249.816 31.8833C247.878 34.6752 248.56 38.2628 251.312 40.1733C254.076 42.0932 257.663 41.47 259.602 38.6782C261.54 35.8863 260.871 32.308 258.12 30.3975ZM257.363 31.4588C259.477 32.927 259.988 35.6921 258.463 37.8876C256.939 40.0832 254.169 40.5708 252.055 39.1026C249.941 37.6345 249.44 34.8558 250.955 32.6738C252.47 30.4918 255.249 29.9907 257.363 31.4588Z" fill="white"/>
<path d="M272.946 41.977L267.625 37.5118L260.2 46.3594L261.25 47.2398L267.836 39.3906L272.108 42.9755L272.946 41.977Z" fill="white"/>
<path d="M281.057 49.2023C278.686 46.8135 275.034 46.7653 272.622 49.16C270.21 51.5547 270.231 55.2066 272.591 57.5837C274.963 59.9724 278.603 60.009 281.015 57.6143C283.427 55.2196 283.417 51.5793 281.057 49.2023ZM280.121 50.1089C281.934 51.9356 281.935 54.7475 280.038 56.6307C278.142 58.5139 275.33 58.492 273.516 56.6653C271.703 54.8386 271.713 52.0152 273.598 50.1436C275.484 48.272 278.307 48.2822 280.121 50.1089Z" fill="white"/>
<path d="M293.654 70.9462L291.595 68.159L294.263 66.1886L298.106 71.3912L299.155 70.6167L295.312 65.4141L294.498 64.3125L285.208 71.1749L288.031 74.9972C289.55 77.0543 291.473 77.2961 293.145 76.0609C294.817 74.8257 295.183 73.0166 293.654 70.9462ZM289.05 74.1829L287.07 71.502L290.574 68.9139L292.603 71.6612C293.652 73.0813 293.357 74.1814 292.335 74.9362C291.313 75.6911 290.099 75.603 289.05 74.1829Z" fill="white"/>
<path d="M305.287 79.829L302.871 75.8721L293.014 81.8924L293.727 83.0612L297.22 80.9283L298.923 83.7164C300.256 85.899 302.398 86.2726 304.214 85.1632C306.031 84.0537 306.62 82.0116 305.287 79.829ZM300.009 82.9947L298.332 80.2488L302.472 77.7203L304.149 80.4662C305.104 82.0292 304.604 83.3009 303.478 83.9889C302.351 84.677 300.964 84.5577 300.009 82.9947Z" fill="white"/>
<path d="M314.55 96.9283L313.875 95.5506L307.089 95.0927L310.874 89.4324L310.191 88.0398L305.436 95.0579L300.62 94.7554L301.303 96.1479L314.55 96.9283Z" fill="white"/>
<path d="M308.117 111.939C309.024 114.383 311.186 115.799 313.643 115.732L313.132 114.355C311.437 114.245 309.977 113.203 309.334 111.47C308.427 109.026 309.628 106.521 312.118 105.598C314.609 104.674 317.152 105.789 318.059 108.233C318.702 109.966 318.274 111.708 317.061 112.898L317.572 114.274C319.478 112.723 320.193 110.24 319.287 107.796C318.105 104.609 314.838 103.11 311.636 104.298C308.434 105.486 306.935 108.752 308.117 111.939Z" fill="white"/>
<path d="M313.756 129.419L314.125 130.823L324.121 123.418L323.672 121.711L311.327 120.179L311.696 121.583L315.396 122.027L316.759 127.213L313.756 129.419ZM316.791 122.206L322.638 122.904L317.89 126.387L316.791 122.206Z" fill="white"/>
<path d="M325.804 151.366L328.254 149.882L326.521 146.973L329.869 146.545L329.513 143.76L326.165 144.188L327.111 140.937L324.369 140.144L323.317 143.627L320.157 141.69L318.647 144.142L321.894 146.122L319.253 148.883L321.335 150.903L323.903 148.207L325.804 151.366Z" fill="#CC0035"/>
</svg>
