<svg width="356" height="351" viewBox="0 0 356 351" fill="none" xmlns="http://www.w3.org/2000/svg">
<path d="M351.853 183.856L350.551 183.8L350.787 178.228L340.55 177.794L340.608 176.425L352.148 176.916L351.853 183.856Z" fill="white"/>
<path d="M338.76 199.264L342.384 198.401L343.146 193.092L339.911 191.245L340.117 189.807L350.894 196.021L350.643 197.769L338.554 200.701L338.76 199.264ZM344.361 193.8L343.747 198.079L349.477 196.718L344.361 193.8Z" fill="white"/>
<path d="M347.147 216.572C346.506 219.048 344.629 220.045 342.568 219.512C340.507 218.978 339.286 217.179 339.926 214.703L340.745 211.541L336.784 210.515L337.127 209.189L348.308 212.083L347.147 216.572ZM341.201 214.982C340.742 216.755 341.621 217.835 342.899 218.166C344.177 218.496 345.438 217.971 345.897 216.197L346.703 213.083L342.007 211.867L341.201 214.982Z" fill="white"/>
<path d="M329.844 233.23L333.569 233.179L335.472 228.166L332.718 225.656L333.233 224.298L342.393 232.716L341.766 234.367L329.328 234.588L329.844 233.23ZM336.503 229.122L334.969 233.164L340.858 233.086L336.503 229.122Z" fill="white"/>
<path d="M332.778 254.819L332.147 256.035L321.893 250.719L322.523 249.504L327.24 251.949L330.323 246.001L325.606 243.556L326.236 242.34L336.491 247.656L335.86 248.871L331.48 246.601L328.397 252.549L332.778 254.819Z" fill="white"/>
<path d="M322.939 271.454L321.85 270.738L323.898 267.621L315.334 261.995L316.096 260.836L324.659 266.463L326.698 263.36L327.787 264.076L322.939 271.454Z" fill="white"/>
<path d="M313.113 284.692L312.045 285.993L303.117 278.666L303.986 277.607L307.723 280.674L311.425 283.862L308.047 272.659L309.115 271.358L318.043 278.685L317.174 279.744L313.437 276.677L309.735 273.489L313.113 284.692Z" fill="white"/>
<path d="M302.916 296.132L299.661 299.34L291.553 291.114L292.529 290.153L295.609 293.279L297.313 291.599L296.7 286.041L297.911 284.848L298.476 290.523C300.13 289.31 301.879 289.509 303.199 290.849C304.659 292.33 304.737 294.337 302.916 296.132ZM298.664 292.006L296.478 294.16L299.721 297.451L301.907 295.296C303.211 294.011 303.104 292.727 302.189 291.798C301.274 290.87 299.968 290.72 298.664 292.006Z" fill="white"/>
<path d="M277.102 317.812L275.974 318.589L269.421 309.078L270.549 308.301L273.564 312.676L279.08 308.875L276.066 304.5L277.193 303.723L283.746 313.234L282.619 314.011L279.819 309.948L274.303 313.749L277.102 317.812Z" fill="white"/>
<path d="M254.311 318.104L257.149 320.518L261.882 317.998L261.462 314.296L262.744 313.613L264.095 325.979L262.536 326.809L253.03 318.786L254.311 318.104ZM262.029 319.396L258.213 321.428L262.696 325.248L262.029 319.396Z" fill="white"/>
<path d="M226.836 330.802L225.263 331.3L224.138 327.744L225.46 327.326L226.191 329.639L235.363 326.739L234.632 324.426L235.938 324.013L237.062 327.569L235.489 328.066C235.185 328.474 235.169 329.188 235.351 330.532L236.501 338.492L229.925 340.572L226.836 330.802ZM234.036 330.862C233.886 329.784 233.861 329.048 234.01 328.534L228.142 330.389L230.838 338.916L235.007 337.598L234.036 330.862Z" fill="white"/>
<path d="M214.074 344.791C210.781 345.406 207.765 343.367 207.141 340.026C206.517 336.685 208.594 333.695 211.903 333.077C215.196 332.462 218.228 334.498 218.852 337.839C219.476 341.18 217.383 344.173 214.074 344.791ZM213.851 343.506C216.381 343.034 217.977 340.705 217.489 338.093C217.002 335.482 214.673 333.886 212.142 334.358C209.612 334.831 208.013 337.144 208.504 339.772C208.995 342.399 211.321 343.979 213.851 343.506Z" fill="white"/>
<path d="M190.087 347.732L188.407 347.842L187.65 336.317L189.017 336.227L189.658 345.99L193.173 339.84L193.305 339.831L197.594 345.469L196.953 335.706L198.319 335.616L199.076 347.141L197.397 347.251L193.381 341.992L190.087 347.732Z" fill="white"/>
<path d="M169.606 336.204L170.787 339.738L176.141 340.027L177.696 336.641L179.146 336.72L173.909 348.003L172.146 347.908L168.156 336.125L169.606 336.204ZM175.544 341.3L171.227 341.067L173.09 346.654L175.544 341.3Z" fill="white"/>
<path d="M139.241 343.326L137.604 342.935L140.285 331.701L141.617 332.019L140.495 336.721L139.249 341.445L147.844 333.505L149.481 333.895L146.8 345.13L145.468 344.812L146.59 340.11L147.836 335.386L139.241 343.326Z" fill="white"/>
<path d="M123.743 333.06C122.649 332.247 122.26 330.986 122.733 329.666C123.439 327.693 125.484 327.023 127.908 327.891C130.176 328.704 131.599 330.405 131.13 332.744L129.825 332.276C130.027 330.684 129.068 329.692 127.484 329.124C125.744 328.501 124.46 328.953 124.004 330.226C123.615 331.314 123.988 332.376 125.805 333.027L127.514 333.639L127.108 334.773L125.787 334.3C124.094 333.694 123.079 334.031 122.701 335.088C122.267 336.299 122.979 337.395 124.516 337.946C125.961 338.464 127.05 338.31 127.935 337.015L129.24 337.482C128.034 339.574 126.127 339.908 124.046 339.162C121.856 338.378 120.695 336.578 121.341 334.776C121.708 333.75 122.6 333.071 123.743 333.06Z" fill="white"/>
<path d="M99.0689 315.015L100.609 315.879L102.596 323.428L105.342 318.536L106.537 319.207L100.883 329.279L99.689 328.608L102.338 323.889L95.1135 326.04L93.5883 325.184L101.121 322.922L99.0689 315.015Z" fill="white"/>
<path d="M79.2787 315.976L77.9105 314.996L84.6363 305.607L85.7497 306.404L82.9344 310.335L79.9964 314.238L90.9542 310.132L92.3224 311.112L85.5966 320.502L84.4832 319.705L87.2985 315.774L90.2364 311.871L79.2787 315.976Z" fill="white"/>
<path d="M66.3317 305.773C64.4212 304.073 64.391 301.947 65.806 300.357C67.2211 298.767 69.3794 298.501 71.2899 300.202L73.7303 302.374L76.4508 299.317L77.4738 300.227L69.7951 308.855L66.3317 305.773ZM70.4603 301.208C69.0921 299.991 67.7299 300.28 66.8524 301.266C65.9748 302.252 65.8671 303.614 67.2352 304.832L69.6387 306.971L72.8637 303.347L70.4603 301.208Z" fill="white"/>
<path d="M50.3524 289.944L58.9243 282.202L59.8422 283.219L52.2377 290.086L56.7276 295.058L64.332 288.19L65.2499 289.207L56.6781 296.948L55.7602 295.932L50.3524 289.944Z" fill="white"/>
<path d="M39.2127 275.985L38.2326 274.617L47.6222 267.891L48.4197 269.005L44.4895 271.82L40.4518 274.57L52.1478 274.209L53.1278 275.578L43.7382 282.303L42.9407 281.19L46.8709 278.375L50.9087 275.625L39.2127 275.985Z" fill="white"/>
<path d="M29.1678 260.259L28.4974 259.065L38.5693 253.411L39.2396 254.606L35.3835 256.77C35.988 257.207 36.7253 257.947 37.4118 259.17C38.5586 261.213 38.3429 263.188 36.0119 264.497L32.6163 266.403L31.9379 265.194L35.204 263.361C36.9163 262.4 36.9939 261.089 36.1539 259.592C35.5321 258.484 34.8236 257.728 34.2469 257.408L29.1678 260.259Z" fill="white"/>
<path d="M31.1136 238.084L28.4656 240.705L30.573 245.636L34.2974 245.533L34.868 246.868L22.4317 247.159L21.7378 245.536L30.543 236.748L31.1136 238.084ZM29.1668 245.662L27.4679 241.687L23.2801 245.828L29.1668 245.662Z" fill="white"/>
<path d="M11.6898 209.85L13.827 212.854L16.181 209.969L18.4115 211.824L15.9891 214.779L19.3785 216.505L18.0603 219.065L14.7613 217.376L13.979 220.929L11.1847 220.348L11.8785 217.034L8.57329 217.717L8.00511 214.967L11.3103 214.284L9.35994 211.517L11.6898 209.85Z" fill="#CC0035"/>
<path d="M7.03829 169.858L8.34132 169.893L8.19066 175.468L18.4334 175.745L18.3964 177.114L6.85064 176.802L7.03829 169.858Z" fill="white"/>
<path d="M19.8816 154.298L16.2709 155.217L15.5908 160.537L18.8542 162.335L18.67 163.775L7.79917 157.727L8.02306 155.976L20.0657 152.858L19.8816 154.298ZM14.3648 159.848L14.913 155.56L9.20513 157.009L14.3648 159.848Z" fill="white"/>
<path d="M11.0697 137.769C11.6633 135.282 13.5212 134.249 15.5916 134.743C17.6619 135.237 18.9176 137.013 18.324 139.501L17.5657 142.678L21.546 143.628L21.2281 144.96L9.99355 142.279L11.0697 137.769ZM17.0446 139.246C17.4697 137.465 16.5699 136.402 15.2859 136.095C14.002 135.789 12.7512 136.339 12.3261 138.12L11.5793 141.25L16.2978 142.376L17.0446 139.246Z" fill="white"/>
<path d="M28.0467 120.748L24.3229 120.869L22.5146 125.917L25.3149 128.375L24.8253 129.742L15.5096 121.498L16.1049 119.836L28.5364 119.381L28.0467 120.748ZM21.4655 124.981L22.9232 120.911L17.0372 121.099L21.4655 124.981Z" fill="white"/>
<path d="M24.7351 99.1181L25.3427 97.8907L35.6937 103.015L35.0861 104.242L30.3246 101.885L27.3524 107.889L32.1139 110.246L31.5063 111.473L21.1553 106.349L21.7629 105.122L26.1843 107.31L29.1564 101.307L24.7351 99.1181Z" fill="white"/>
<path d="M34.0573 82.6108L35.1596 83.3065L33.1694 86.46L41.8345 91.9287L41.0947 93.1008L32.4296 87.6321L30.4482 90.7716L29.3459 90.0759L34.0573 82.6108Z" fill="white"/>
<path d="M43.7094 69.0229L44.7533 67.7027L53.8134 74.8662L52.964 75.9405L49.1717 72.942L45.4122 69.8223L48.9934 80.9624L47.9496 82.2826L38.8894 75.1191L39.7388 74.0448L43.5311 77.0432L47.2906 80.163L43.7094 69.0229Z" fill="white"/>
<path d="M54.0382 56.9833L57.2465 53.7281L65.4727 61.8356L64.5114 62.811L61.3854 59.7302L59.706 61.4342L60.3997 66.9829L59.2068 68.1933L58.5589 62.5276C56.9227 63.7646 55.1713 63.5906 53.8316 62.2702C52.3509 60.8109 52.243 58.8048 54.0382 56.9833ZM58.3498 61.0473L60.5041 58.8615L57.2136 55.6185L55.0593 57.8043C53.7737 59.1087 53.8997 60.3913 54.828 61.3063C55.7564 62.2212 57.0641 62.3518 58.3498 61.0473Z" fill="white"/>
<path d="M78.8373 35.3386L79.9507 34.5411L86.6765 43.9307L85.5632 44.7282L82.4693 40.409L77.0233 44.31L80.1172 48.6292L79.0039 49.4267L72.278 40.0371L73.3913 39.2396L76.2643 43.2503L81.7102 39.3493L78.8373 35.3386Z" fill="white"/>
<path d="M101.487 34.6279L98.605 32.266L93.9191 34.8735L94.4072 38.5672L93.1384 39.2732L91.5594 26.9341L93.1021 26.0756L102.755 33.9219L101.487 34.6279ZM93.7467 33.4777L97.5242 31.3757L92.9718 27.6399L93.7467 33.4777Z" fill="white"/>
<path d="M129.303 21.102L130.869 20.5808L132.047 24.1189L130.732 24.5567L129.966 22.2554L120.839 25.2938L121.605 27.5951L120.305 28.0277L119.127 24.4895L120.693 23.9684C120.991 23.5563 120.996 22.8415 120.793 21.5004L119.523 13.5585L126.067 11.38L129.303 21.102ZM122.103 21.1514C122.269 22.2263 122.306 22.962 122.165 23.4785L128.004 21.5346L125.179 13.0494L121.031 14.4305L122.103 21.1514Z" fill="white"/>
<path d="M141.952 6.83305C145.235 6.16782 148.282 8.15989 148.957 11.4912C149.632 14.8225 147.601 17.8435 144.302 18.512C141.019 19.1772 137.956 17.1884 137.281 13.8572C136.606 10.5259 138.653 7.50155 141.952 6.83305ZM142.195 8.11386C139.672 8.62507 138.112 10.9783 138.64 13.5819C139.167 16.1855 141.521 17.7457 144.043 17.2345C146.566 16.7233 148.13 14.3862 147.599 11.7664C147.068 9.14669 144.718 7.60265 142.195 8.11386Z" fill="white"/>
<path d="M165.472 3.51172L167.15 3.37554L168.084 14.8877L166.719 14.9985L165.928 5.24606L162.508 11.4501L162.376 11.4608L158.001 5.88954L158.792 15.642L157.427 15.7528L156.493 4.24063L158.17 4.10446L162.267 9.30102L165.472 3.51172Z" fill="white"/>
<path d="M186.232 14.6372L184.997 11.122L179.639 10.9151L178.136 14.3246L176.685 14.2686L181.748 2.90546L183.512 2.97358L187.683 14.6932L186.232 14.6372ZM180.216 9.63289L184.536 9.79969L182.588 4.24237L180.216 9.63289Z" fill="white"/>
<path d="M216.681 6.96638L218.324 7.33203L215.815 18.6061L214.478 18.3086L215.528 13.5896L216.702 8.84734L208.229 16.9177L206.586 16.552L209.096 5.27793L210.432 5.57547L209.382 10.2945L208.208 15.0367L216.681 6.96638Z" fill="white"/>
<path d="M231.5 16.6537C232.609 17.4453 233.022 18.699 232.574 20.028C231.905 22.0137 229.873 22.7217 227.433 21.8995C225.151 21.13 223.695 19.4554 224.121 17.1088L225.434 17.5516C225.262 19.1476 226.239 20.1214 227.834 20.659C229.585 21.2493 230.86 20.7736 231.292 19.4915C231.661 18.397 231.268 17.3417 229.439 16.725L227.719 16.1453L228.104 15.0039L229.433 15.4519C231.137 16.0264 232.145 15.6697 232.504 14.6065C232.915 13.3869 232.183 12.3044 230.635 11.7826C229.181 11.2924 228.095 11.4662 227.235 12.7782L225.921 12.3354C227.087 10.2209 228.987 9.85167 231.082 10.5579C233.287 11.3011 234.481 13.0792 233.87 14.8929C233.522 15.9248 232.643 16.621 231.5 16.6537Z" fill="white"/>
<path d="M257.304 34.5054L255.751 33.6641L253.652 26.1452L250.979 31.0773L249.775 30.4246L255.279 20.2704L256.483 20.923L253.904 25.681L261.096 23.4234L262.634 24.2568L255.135 26.6298L257.304 34.5054Z" fill="white"/>
<path d="M276.7 32.9099L278.086 33.8648L271.533 43.3758L270.405 42.5988L273.148 38.6177L276.014 34.6615L265.133 38.9665L263.747 38.0116L270.3 28.5006L271.428 29.2776L268.685 33.2587L265.819 37.2149L276.7 32.9099Z" fill="white"/>
<path d="M290.372 43.2549C292.307 44.9272 292.368 47.0518 290.976 48.6622C289.584 50.2727 287.43 50.5699 285.495 48.8976L283.023 46.7614L280.348 49.8574L279.311 48.9619L286.864 40.2232L290.372 43.2549ZM286.31 47.879C287.696 49.0766 289.053 48.7672 289.917 47.7685C290.78 46.7697 290.868 45.4064 289.482 44.2088L287.048 42.1049L283.876 45.7751L286.31 47.879Z" fill="white"/>
<path d="M306.185 58.3415L297.755 66.2372L296.819 65.2376L304.297 58.233L299.718 53.3438L292.239 60.3484L291.303 59.3489L299.733 51.4532L300.669 52.4527L306.185 58.3415Z" fill="white"/>
<path d="M317.577 72.0004L318.582 73.3504L309.317 80.2466L308.499 79.148L312.378 76.2615L316.364 73.438L304.677 74.0124L303.672 72.6623L312.937 65.7661L313.755 66.8647L309.877 69.7513L305.89 72.5747L317.577 72.0004Z" fill="white"/>
<path d="M328.17 87.8631L328.862 89.0447L318.896 94.8827L318.204 93.701L322.02 91.4659C321.407 91.0406 320.656 90.3139 319.948 89.1038C318.763 87.0821 318.943 85.1031 321.249 83.752L324.609 81.7838L325.31 82.9797L322.078 84.8729C320.383 85.8653 320.33 87.1778 321.197 88.6585C321.84 89.7548 322.562 90.4981 323.144 90.807L328.17 87.8631Z" fill="white"/>
<path d="M326.597 109.947L329.195 107.277L326.996 102.386L323.274 102.558L322.679 101.234L335.108 100.711L335.832 102.321L327.192 111.271L326.597 109.947ZM328.402 102.333L330.174 106.276L334.284 102.058L328.402 102.333Z" fill="white"/>
<path d="M346.732 138.426L344.549 135.454L342.239 138.375L339.981 136.554L342.358 133.563L338.943 131.889L340.221 129.308L343.546 130.947L344.274 127.383L347.077 127.921L346.434 131.245L349.728 130.512L350.338 133.253L347.044 133.986L349.036 136.724L346.732 138.426Z" fill="#CC0035"/>
</svg>
