<svg width="358" height="351" viewBox="0 0 358 351" fill="none" xmlns="http://www.w3.org/2000/svg">
<path d="M352.851 183.856L351.549 183.8L351.785 178.228L341.548 177.794L341.606 176.425L353.146 176.916L352.851 183.856Z" fill="white"/>
<path d="M339.758 199.264L343.382 198.401L344.144 193.092L340.909 191.245L341.115 189.807L351.892 196.021L351.641 197.769L339.552 200.701L339.758 199.264ZM345.359 193.8L344.745 198.079L350.475 196.718L345.359 193.8Z" fill="white"/>
<path d="M348.145 216.572C347.504 219.048 345.627 220.045 343.566 219.512C341.505 218.978 340.284 217.179 340.925 214.703L341.743 211.541L337.782 210.515L338.125 209.189L349.306 212.083L348.145 216.572ZM342.199 214.982C341.74 216.755 342.619 217.835 343.897 218.166C345.175 218.496 346.436 217.97 346.895 216.197L347.701 213.083L343.005 211.867L342.199 214.982Z" fill="white"/>
<path d="M330.842 233.23L334.567 233.179L336.47 228.166L333.716 225.656L334.231 224.298L343.391 232.716L342.764 234.367L330.326 234.588L330.842 233.23ZM337.501 229.122L335.967 233.164L341.856 233.086L337.501 229.122Z" fill="white"/>
<path d="M333.776 254.819L333.145 256.035L322.891 250.72L323.521 249.504L328.238 251.949L331.321 246.001L326.604 243.556L327.234 242.34L337.489 247.656L336.858 248.871L332.478 246.601L329.396 252.549L333.776 254.819Z" fill="white"/>
<path d="M323.938 271.454L322.848 270.738L324.896 267.621L316.333 261.995L317.094 260.836L325.657 266.463L327.696 263.36L328.785 264.076L323.938 271.454Z" fill="white"/>
<path d="M314.111 284.692L313.043 285.993L304.115 278.666L304.984 277.607L308.721 280.674L312.423 283.862L309.045 272.659L310.113 271.358L319.041 278.685L318.172 279.744L314.435 276.677L310.733 273.489L314.111 284.692Z" fill="white"/>
<path d="M303.914 296.132L300.659 299.34L292.551 291.114L293.527 290.153L296.607 293.279L298.311 291.599L297.698 286.041L298.909 284.848L299.474 290.523C301.128 289.31 302.877 289.509 304.197 290.849C305.657 292.33 305.735 294.337 303.914 296.132ZM299.662 292.006L297.476 294.16L300.719 297.451L302.905 295.296C304.209 294.011 304.102 292.727 303.187 291.798C302.272 290.87 300.966 290.72 299.662 292.006Z" fill="white"/>
<path d="M278.1 317.812L276.972 318.589L270.419 309.078L271.547 308.301L274.562 312.676L280.078 308.875L277.064 304.5L278.191 303.723L284.744 313.234L283.617 314.011L280.818 309.948L275.301 313.749L278.1 317.812Z" fill="white"/>
<path d="M255.309 318.104L258.147 320.518L262.88 317.998L262.46 314.296L263.742 313.613L265.093 325.979L263.534 326.809L254.028 318.786L255.309 318.104ZM263.027 319.396L259.211 321.428L263.694 325.248L263.027 319.396Z" fill="white"/>
<path d="M227.834 330.802L226.261 331.3L225.136 327.744L226.458 327.326L227.189 329.639L236.361 326.739L235.63 324.426L236.936 324.013L238.06 327.569L236.487 328.066C236.183 328.474 236.167 329.188 236.349 330.532L237.499 338.492L230.923 340.572L227.834 330.802ZM235.034 330.862C234.884 329.784 234.859 329.048 235.008 328.534L229.14 330.389L231.836 338.916L236.005 337.598L235.034 330.862Z" fill="white"/>
<path d="M215.072 344.791C211.78 345.406 208.763 343.367 208.139 340.026C207.515 336.685 209.592 333.695 212.901 333.077C216.194 332.462 219.226 334.498 219.85 337.839C220.474 341.18 218.381 344.173 215.072 344.791ZM214.849 343.506C217.379 343.034 218.975 340.705 218.487 338.093C218 335.482 215.671 333.886 213.14 334.358C210.61 334.831 209.011 337.144 209.502 339.772C209.993 342.399 212.319 343.979 214.849 343.506Z" fill="white"/>
<path d="M191.085 347.732L189.405 347.842L188.648 336.317L190.015 336.227L190.656 345.99L194.171 339.84L194.303 339.831L198.592 345.469L197.951 335.706L199.317 335.616L200.074 347.141L198.395 347.251L194.379 341.992L191.085 347.732Z" fill="white"/>
<path d="M170.604 336.204L171.785 339.738L177.14 340.027L178.694 336.641L180.144 336.72L174.907 348.003L173.144 347.908L169.155 336.125L170.604 336.204ZM176.542 341.3L172.225 341.067L174.088 346.654L176.542 341.3Z" fill="white"/>
<path d="M140.239 343.326L138.602 342.935L141.283 331.701L142.615 332.019L141.493 336.721L140.247 341.445L148.842 333.505L150.479 333.895L147.798 345.13L146.466 344.812L147.588 340.11L148.834 335.386L140.239 343.326Z" fill="white"/>
<path d="M124.741 333.06C123.647 332.247 123.258 330.986 123.731 329.666C124.437 327.693 126.482 327.023 128.906 327.891C131.174 328.704 132.597 330.405 132.128 332.744L130.823 332.276C131.025 330.684 130.066 329.692 128.482 329.124C126.742 328.501 125.458 328.953 125.002 330.226C124.613 331.314 124.986 332.376 126.803 333.027L128.512 333.639L128.106 334.773L126.785 334.3C125.092 333.694 124.077 334.031 123.699 335.088C123.265 336.299 123.977 337.395 125.515 337.946C126.959 338.464 128.048 338.31 128.933 337.015L130.238 337.482C129.033 339.574 127.125 339.908 125.044 339.162C122.854 338.378 121.693 336.578 122.339 334.776C122.706 333.75 123.598 333.071 124.741 333.06Z" fill="white"/>
<path d="M100.067 315.015L101.607 315.879L103.594 323.428L106.34 318.536L107.535 319.207L101.881 329.278L100.687 328.608L103.336 323.889L96.1115 326.04L94.5863 325.184L102.119 322.922L100.067 315.015Z" fill="white"/>
<path d="M86.2112 306.02L85.3067 309.634L89.6662 312.757L92.7973 310.738L93.9777 311.583L83.496 318.282L82.0607 317.254L85.0307 305.174L86.2112 306.02ZM88.4779 313.509L84.9635 310.992L83.5307 316.704L88.4779 313.509Z" fill="white"/>
<path d="M67.3297 305.773C65.4192 304.073 65.389 301.947 66.8041 300.357C68.2192 298.767 70.3775 298.501 72.2879 300.202L74.7284 302.374L77.4488 299.317L78.4718 300.227L70.7932 308.855L67.3297 305.773ZM71.4583 301.208C70.0902 299.991 68.728 300.28 67.8504 301.266C66.9728 302.252 66.8651 303.614 68.2333 304.832L70.6368 306.971L73.8618 303.347L71.4583 301.208Z" fill="white"/>
<path d="M60.5208 282.879L61.7136 284.181L61.2452 291.973L65.3812 288.183L66.3064 289.193L57.7911 296.996L56.8659 295.986L60.8559 292.33L53.3209 292.118L52.1393 290.828L60.0017 291.031L60.5208 282.879Z" fill="white"/>
<path d="M50.1222 269.985L48.1373 273.138L51.3076 277.463L54.9118 276.519L55.7702 277.69L43.7235 280.793L42.6798 279.369L49.2638 268.814L50.1222 269.985ZM49.9441 277.808L47.3884 274.321L44.2481 279.303L49.9441 277.808Z" fill="white"/>
<path d="M41.9286 257.222C43.6032 260.18 42.6439 263.643 39.6717 265.325C36.6995 267.008 33.2364 266.049 31.5618 263.091C30.2774 260.822 30.5884 258.257 32.2228 256.422L32.9463 257.7C31.938 259.067 31.7938 260.855 32.7042 262.463C33.9886 264.732 36.6771 265.428 38.9888 264.119C41.3006 262.811 42.0868 260.147 40.8024 257.878C39.892 256.27 38.2845 255.474 36.5933 255.635L35.8698 254.357C38.2846 253.9 40.6442 254.953 41.9286 257.222Z" fill="white"/>
<path d="M31.8221 237.396L29.1643 240.007L31.2533 244.946L34.9781 244.858L35.5437 246.195L23.1064 246.439L22.4186 244.813L31.2565 236.059L31.8221 237.396ZM29.8471 244.968L28.163 240.986L23.9598 245.111L29.8471 244.968Z" fill="white"/>
<path d="M12.4447 208.629L14.5589 211.65L16.9348 208.783L19.1511 210.655L16.7063 213.591L20.0823 215.342L18.7447 217.893L15.4586 216.178L14.6492 219.725L11.8594 219.123L12.5785 215.815L9.2682 216.472L8.72103 213.718L12.0313 213.06L10.1022 210.278L12.4447 208.629Z" fill="#CC0035"/>
<path d="M8.05869 169.193L9.36157 169.233L9.1894 174.808L19.431 175.124L19.3887 176.493L7.84424 176.136L8.05869 169.193Z" fill="white"/>
<path d="M21.051 153.038L17.4333 153.929L16.7124 159.243L19.9619 161.066L19.7667 162.505L8.9426 156.374L9.17994 154.624L21.2462 151.599L21.051 153.038ZM15.4918 158.545L16.0729 154.261L10.354 155.666L15.4918 158.545Z" fill="white"/>
<path d="M12.3701 136.442C12.9826 133.958 14.8483 132.94 16.9148 133.45C18.9814 133.96 20.2236 135.745 19.611 138.228L18.8286 141.4L22.8015 142.38L22.4735 143.709L11.2597 140.943L12.3701 136.442ZM18.3336 137.964C18.7723 136.185 17.8805 135.116 16.5989 134.8C15.3173 134.483 14.0624 135.024 13.6238 136.802L12.8532 139.926L17.563 141.087L18.3336 137.964Z" fill="white"/>
<path d="M29.4847 119.545L25.76 119.638L23.9139 124.673L26.6956 127.151L26.1957 128.515L16.9423 120.201L17.5501 118.543L29.9846 118.182L29.4847 119.545ZM22.8718 123.728L24.3601 119.67L18.4728 119.813L22.8718 123.728Z" fill="white"/>
<path d="M26.3487 97.8864L26.9654 96.6636L37.2781 101.865L36.6614 103.087L31.9176 100.695L28.901 106.676L33.6448 109.069L33.0281 110.292L22.7154 105.091L23.3321 103.868L27.7371 106.089L30.7537 100.108L26.3487 97.8864Z" fill="white"/>
<path d="M35.806 81.4474L36.9032 82.1512L34.8898 85.29L43.5145 90.8222L42.7662 91.9888L34.1415 86.4566L32.1371 89.5815L31.0399 88.8777L35.806 81.4474Z" fill="white"/>
<path d="M45.5756 67.9273L46.629 66.6147L55.6367 73.844L54.7795 74.9121L51.0092 71.8861L47.2725 68.7391L50.7724 79.905L49.719 81.2175L40.7113 73.9882L41.5685 72.9201L45.3389 75.9461L49.0755 79.0932L45.5756 67.9273Z" fill="white"/>
<path d="M55.2751 56.721L58.4952 53.4775L66.6919 61.6149L65.7271 62.5867L62.6123 59.4946L60.9267 61.1924L61.6003 66.7436L60.4029 67.9497L59.7756 62.2817C58.135 63.5127 56.3842 63.3324 55.0493 62.0072C53.5739 60.5425 53.4733 58.536 55.2751 56.721ZM59.5719 60.8007L61.7341 58.6227L58.4554 55.3678L56.2932 57.5457C55.0029 58.8455 55.1242 60.1285 56.0492 61.0468C56.9743 61.9652 58.2815 62.1004 59.5719 60.8007Z" fill="white"/>
<path d="M81.0105 34.5011L82.1297 33.7117L88.7867 43.1503L87.6676 43.9396L84.6053 39.5979L79.131 43.459L82.1932 47.8007L81.0741 48.59L74.417 39.1515L75.5362 38.3621L78.3797 42.3938L83.854 38.5327L81.0105 34.5011Z" fill="white"/>
<path d="M103.697 33.9617L100.833 31.5786L96.1277 34.1514L96.5886 37.8486L95.3146 38.5453L93.8267 26.1948L95.3757 25.3478L104.971 33.2651L103.697 33.9617ZM95.9656 32.7544L99.7585 30.6803L95.2338 26.911L95.9656 32.7544Z" fill="white"/>
<path d="M130.538 21.0269L132.105 20.5116L133.27 24.0541L131.953 24.4869L131.196 22.1827L122.057 25.1867L122.815 27.4909L121.514 27.9185L120.349 24.376L121.917 23.8608C122.216 23.4498 122.224 22.735 122.026 21.3932L120.786 13.4465L127.338 11.2928L130.538 21.0269ZM123.337 21.0491C123.5 22.1246 123.533 22.8605 123.39 23.3764L129.237 21.4545L126.444 12.9588L122.29 14.3242L123.337 21.0491Z" fill="white"/>
<path d="M143.238 6.76177C146.524 6.10909 149.563 8.11278 150.225 11.4466C150.887 14.7805 148.845 17.7937 145.543 18.4496C142.258 19.1023 139.203 17.1018 138.54 13.768C137.878 10.4342 139.937 7.41767 143.238 6.76177ZM143.476 8.0435C140.951 8.54507 139.382 10.8923 139.9 13.4979C140.417 16.1035 142.765 17.6727 145.289 17.1711C147.814 16.6695 149.386 14.3385 148.866 11.7167C148.345 9.09494 146.001 7.54193 143.476 8.0435Z" fill="white"/>
<path d="M166.785 3.48587L168.463 3.35616L169.354 14.8718L167.988 14.9774L167.234 5.22196L163.79 11.4128L163.659 11.4229L159.305 5.83489L160.059 15.5903L158.693 15.6958L157.803 4.18019L159.481 4.05048L163.558 9.26278L166.785 3.48587Z" fill="white"/>
<path d="M187.511 14.6488L186.29 11.1288L180.932 10.9012L179.417 14.305L177.966 14.2434L183.072 2.89985L184.836 2.97478L188.962 14.7104L187.511 14.6488ZM181.515 9.62132L185.834 9.80478L183.907 4.23999L181.515 9.62132Z" fill="white"/>
<path d="M217.965 7.0275L219.607 7.39941L217.054 18.6639L215.719 18.3612L216.787 13.6463L217.979 8.90853L209.475 16.9465L207.834 16.5746L210.386 5.31016L211.722 5.61279L210.653 10.3278L209.461 15.0655L217.965 7.0275Z" fill="white"/>
<path d="M233.903 17.1227C235.006 17.9227 235.409 19.1794 234.951 20.505C234.267 22.4857 232.23 23.1783 229.797 22.3378C227.52 21.5511 226.077 19.8656 226.52 17.5223L227.83 17.9749C227.646 19.5696 228.616 20.5507 230.207 21.1003C231.954 21.7038 233.232 21.2377 233.674 19.9589C234.051 18.8672 233.666 17.8089 231.841 17.1785L230.126 16.5858L230.519 15.4473L231.845 15.9053C233.544 16.4927 234.555 16.1436 234.922 15.0831C235.342 13.8667 234.618 12.7787 233.074 12.2452C231.624 11.7441 230.537 11.9097 229.667 13.2152L228.357 12.7625C229.538 10.6569 231.441 10.302 233.531 11.024C235.73 11.7837 236.911 13.5707 236.286 15.3798C235.93 16.4091 235.046 17.0987 233.903 17.1227Z" fill="white"/>
<path d="M258.524 34.6305L256.975 33.7835L254.903 26.2568L252.212 31.179L251.01 30.5219L256.552 20.3881L257.753 21.0451L255.157 25.7936L262.357 23.5625L263.891 24.4017L256.384 26.7469L258.524 34.6305Z" fill="white"/>
<path d="M273.065 43.7535L273.93 40.1295L269.536 37.0547L266.428 39.1083L265.238 38.2758L275.646 31.462L277.092 32.4743L274.255 44.5861L273.065 43.7535ZM270.716 36.2895L274.258 38.7682L275.628 33.0408L270.716 36.2895Z" fill="white"/>
<path d="M291.63 43.4677C293.559 45.147 293.612 47.2718 292.214 48.8772C290.817 50.4825 288.662 50.7719 286.733 49.0926L284.269 46.9474L281.582 50.0336L280.549 49.1343L288.133 40.4232L291.63 43.4677ZM287.551 48.077C288.933 49.2796 290.291 48.9751 291.158 47.9795C292.025 46.9839 292.118 45.6209 290.737 44.4183L288.31 42.3056L285.125 45.9642L287.551 48.077Z" fill="white"/>
<path d="M298.839 66.3288L297.632 65.0402L298.015 57.2432L293.921 61.0782L292.985 60.0787L301.414 52.183L302.351 53.1826L298.401 56.8823L305.938 57.0121L307.133 58.2886L299.269 58.1714L298.839 66.3288Z" fill="white"/>
<path d="M309.678 79.3905L311.628 76.2159L308.411 71.9259L304.817 72.9092L303.946 71.7476L315.958 68.5137L317.017 69.9261L310.549 80.5521L309.678 79.3905ZM309.771 71.5662L312.364 75.0246L315.45 70.0086L309.771 71.5662Z" fill="white"/>
<path d="M318.082 92.1279C316.375 89.1888 317.296 85.7153 320.249 83.9998C323.203 82.2843 326.676 83.2052 328.383 86.1444C329.693 88.3987 329.41 90.9672 327.796 92.8205L327.059 91.5507C328.052 90.1724 328.176 88.3828 327.248 86.7848C325.939 84.5305 323.243 83.864 320.945 85.1983C318.648 86.5325 317.892 89.2046 319.201 91.4589C320.129 93.0569 321.745 93.8355 323.435 93.6557L324.172 94.9255C321.763 95.4092 319.391 94.3822 318.082 92.1279Z" fill="white"/>
<path d="M328.293 111.535L330.921 108.894L328.777 103.979L325.054 104.109L324.473 102.778L336.907 102.395L337.613 104.013L328.874 112.866L328.293 111.535ZM330.183 103.942L331.912 107.904L336.068 103.733L330.183 103.942Z" fill="white"/>
<path d="M348.134 140.312L345.986 137.315L343.643 140.209L341.405 138.363L343.816 135.399L340.421 133.686L341.729 131.121L345.034 132.797L345.803 129.242L348.6 129.812L347.918 133.128L351.221 132.433L351.8 135.18L348.497 135.876L350.458 138.636L348.134 140.312Z" fill="#CC0035"/>
</svg>
