<svg width="361" height="351" viewBox="0 0 361 351" fill="none" xmlns="http://www.w3.org/2000/svg">
<path d="M352.855 183.856L351.553 183.8L351.789 178.228L341.552 177.794L341.61 176.425L353.15 176.915L352.855 183.856Z" fill="white"/>
<path d="M339.701 199.689L343.326 198.825L344.087 193.517L340.852 191.669L341.058 190.232L351.835 196.446L351.584 198.193L339.495 201.126L339.701 199.689ZM345.303 194.225L344.689 198.504L350.418 197.142L345.303 194.225Z" fill="white"/>
<path d="M348.438 215.365C347.816 217.845 345.946 218.857 343.882 218.339C341.817 217.821 340.582 216.032 341.204 213.551L341.998 210.382L338.029 209.387L338.362 208.058L349.565 210.867L348.438 215.365ZM342.48 213.82C342.035 215.596 342.922 216.669 344.203 216.991C345.483 217.312 346.74 216.776 347.185 215L347.968 211.879L343.263 210.699L342.48 213.82Z" fill="white"/>
<path d="M331.266 232.132L334.991 232.039L336.837 227.004L334.055 224.526L334.555 223.162L343.809 231.476L343.201 233.134L330.766 233.495L331.266 232.132ZM337.879 227.949L336.391 232.008L342.278 231.864L337.879 227.949Z" fill="white"/>
<path d="M334.844 252.731L334.232 253.956L323.9 248.793L324.512 247.568L329.265 249.943L332.259 243.951L327.506 241.576L328.118 240.351L338.45 245.514L337.838 246.739L333.425 244.533L330.431 250.526L334.844 252.731Z" fill="white"/>
<path d="M325.041 269.791L323.944 269.087L325.957 265.948L317.332 260.416L318.08 259.25L326.705 264.782L328.71 261.657L329.807 262.361L325.041 269.791Z" fill="white"/>
<path d="M315.414 283.085L314.365 284.402L305.331 277.205L306.184 276.134L309.966 279.146L313.714 282.28L310.173 271.127L311.222 269.81L320.256 277.007L319.402 278.078L315.621 275.066L311.873 271.932L315.414 283.085Z" fill="white"/>
<path d="M306.085 293.874L302.889 297.141L294.633 289.063L295.591 288.084L298.728 291.154L300.402 289.444L299.688 283.898L300.876 282.683L301.545 288.346C303.176 287.103 304.928 287.271 306.273 288.586C307.759 290.04 307.874 292.046 306.085 293.874ZM301.759 289.826L299.613 292.019L302.915 295.25L305.061 293.057C306.342 291.748 306.212 290.466 305.28 289.554C304.348 288.642 303.04 288.517 301.759 289.826Z" fill="white"/>
<path d="M281.545 315.385L280.438 316.191L273.644 306.85L274.751 306.045L277.876 310.341L283.294 306.401L280.168 302.104L281.276 301.299L288.07 310.639L286.963 311.444L284.061 307.455L278.643 311.395L281.545 315.385Z" fill="white"/>
<path d="M258.686 316.281L261.585 318.621L266.252 315.979L265.737 312.289L267 311.574L268.67 323.901L267.134 324.771L257.423 316.996L258.686 316.281ZM266.435 317.374L262.673 319.504L267.253 323.206L266.435 317.374Z" fill="white"/>
<path d="M233.392 328.998L231.837 329.548L230.592 326.033L231.899 325.571L232.708 327.857L241.776 324.647L240.967 322.361L242.258 321.904L243.502 325.419L241.947 325.97C241.657 326.387 241.665 327.102 241.893 328.439L243.313 336.356L236.811 338.657L233.392 328.998ZM240.59 328.813C240.404 327.741 240.354 327.006 240.485 326.487L234.683 328.541L237.667 336.971L241.789 335.512L240.59 328.813Z" fill="white"/>
<path d="M221.139 343.45C217.87 344.178 214.785 342.244 214.047 338.926C213.308 335.609 215.281 332.549 218.567 331.818C221.837 331.09 224.937 333.02 225.675 336.338C226.414 339.656 224.425 342.719 221.139 343.45ZM220.872 342.174C223.385 341.615 224.9 339.232 224.322 336.639C223.745 334.046 221.363 332.531 218.85 333.09C216.338 333.65 214.819 336.016 215.4 338.625C215.981 341.234 218.36 342.733 220.872 342.174Z" fill="white"/>
<path d="M197.28 347.245L195.605 347.413L194.45 335.921L195.812 335.784L196.791 345.52L200.091 339.251L200.222 339.238L204.704 344.724L203.725 334.988L205.088 334.851L206.244 346.343L204.569 346.512L200.373 341.395L197.28 347.245Z" fill="white"/>
<path d="M176.39 336.455L177.706 339.941L183.068 340.024L184.491 336.58L185.942 336.603L181.145 348.08L179.379 348.053L174.938 336.433L176.39 336.455ZM182.52 341.319L178.197 341.252L180.274 346.763L182.52 341.319Z" fill="white"/>
<path d="M148.35 345.059L146.696 344.75L148.816 333.396L150.162 333.647L149.275 338.4L148.265 343.179L156.456 334.823L158.11 335.132L155.989 346.485L154.643 346.234L155.531 341.482L156.541 336.702L148.35 345.059Z" fill="white"/>
<path d="M133.319 335.836C132.184 335.083 131.729 333.844 132.131 332.5C132.733 330.493 134.74 329.716 137.205 330.455C139.513 331.147 141.024 332.771 140.679 335.131L139.351 334.733C139.469 333.132 138.459 332.192 136.847 331.709C135.077 331.178 133.819 331.697 133.43 332.993C133.099 334.099 133.527 335.141 135.377 335.695L137.115 336.216L136.77 337.37L135.426 336.967C133.703 336.451 132.708 336.841 132.386 337.916C132.016 339.149 132.785 340.206 134.349 340.675C135.819 341.116 136.899 340.905 137.714 339.565L139.041 339.962C137.948 342.115 136.062 342.549 133.944 341.914C131.715 341.246 130.461 339.51 131.011 337.676C131.323 336.633 132.178 335.908 133.319 335.836Z" fill="white"/>
<path d="M103.1 329.757L101.595 329.005L106.757 318.673L107.983 319.285L103.609 328.037L109.747 324.501L109.866 324.56L110.723 331.592L115.097 322.84L116.322 323.452L111.159 333.784L109.654 333.032L108.84 326.464L103.1 329.757Z" fill="white"/>
<path d="M88.0342 321.447C85.2349 319.607 84.4743 316.047 86.3408 313.207C88.2074 310.366 91.7767 309.651 94.5898 311.5C97.3891 313.339 98.1634 316.908 96.2969 319.748C94.4304 322.589 90.8472 323.295 88.0342 321.447ZM88.7638 320.366C90.9149 321.78 93.6798 321.208 95.1386 318.987C96.5974 316.767 96.0252 314.002 93.874 312.589C91.7228 311.175 88.967 311.734 87.4992 313.968C86.0313 316.202 86.6126 318.953 88.7638 320.366Z" fill="white"/>
<path d="M69.3951 307.523L68.3461 306.642L75.7704 297.795L76.8195 298.675L73.4043 302.745L78.536 307.051L81.9512 302.981L83.0003 303.861L75.5759 312.709L74.5268 311.829L77.6981 308.049L72.5664 303.743L69.3951 307.523Z" fill="white"/>
<path d="M56.7497 296.037C54.4511 293.601 54.5336 289.961 57.0059 287.629C59.4782 285.296 63.1161 285.425 65.4261 287.873C67.7247 290.31 67.6535 293.961 65.1812 296.294C62.709 298.626 59.0597 298.485 56.7497 296.037ZM57.7092 295.154C59.4756 297.027 62.2979 297.109 64.2301 295.286C66.1623 293.462 66.2444 290.64 64.478 288.768C62.7115 286.896 59.9012 286.802 57.957 288.637C56.0128 290.471 55.9427 293.282 57.7092 295.154Z" fill="white"/>
<path d="M45.0355 282.505L40.8879 276.933L50.1532 270.037L50.9709 271.135L42.7513 277.253L45.3915 280.801L51.4387 277.678C53.9151 276.39 55.1852 276.494 56.0522 277.658C56.1901 277.844 56.4428 278.211 56.5543 278.416L55.5484 279.165C55.4729 279.036 55.2793 278.748 55.1906 278.629C54.6389 277.887 53.9657 277.895 52.1803 278.812L45.0355 282.505Z" fill="white"/>
<path d="M31.2906 262.212L30.4399 260.76L40.4059 254.922L41.0981 256.103L36.9266 258.547L32.654 260.916L44.334 261.627L45.1846 263.079L35.2187 268.917L34.5264 267.736L38.6979 265.292L42.9705 262.923L31.2906 262.212Z" fill="white"/>
<path d="M22.6723 245.356L23.8592 244.817L25.4009 248.213L34.7306 243.976L35.3037 245.238L25.974 249.475L27.5089 252.855L26.3221 253.394L22.6723 245.356Z" fill="white"/>
<path d="M27.3523 225.318L24.4972 227.712L26.191 232.8L29.9112 233.005L30.3698 234.383L17.9518 233.647L17.3942 231.972L26.8936 223.941L27.3523 225.318ZM24.7874 232.711L23.422 228.609L18.9071 232.39L24.7874 232.711Z" fill="white"/>
<path d="M10.6088 197.219L12.522 200.371L15.0794 197.665L17.1691 199.677L14.5385 202.448L17.7934 204.415L16.2926 206.873L13.1251 204.949L12.0866 208.435L9.3419 207.653L10.2747 204.398L6.92866 204.839L6.56186 202.055L9.90795 201.614L8.16393 198.712L10.6088 197.219Z" fill="#CC0035"/>
<path d="M8.78014 158.469L10.0781 158.59L9.56264 164.143L19.7653 165.09L19.6387 166.453L8.13816 165.386L8.78014 158.469Z" fill="white"/>
<path d="M22.5456 144.163L18.8853 144.859L17.8806 150.126L21.0277 152.121L20.7556 153.547L10.2758 146.845L10.6065 145.111L22.8176 142.736L22.5456 144.163ZM16.6991 149.363L17.5091 145.117L11.7231 146.214L16.6991 149.363Z" fill="white"/>
<path d="M14.6345 127.718C15.3779 125.271 17.295 124.353 19.3316 124.971C21.3682 125.59 22.5139 127.438 21.7705 129.885L20.8208 133.011L24.7362 134.201L24.3381 135.511L13.2868 132.154L14.6345 127.718ZM20.5089 129.554C21.0412 127.802 20.2075 126.686 18.9445 126.302C17.6815 125.919 16.3997 126.391 15.8673 128.144L14.9321 131.222L19.5736 132.633L20.5089 129.554Z" fill="white"/>
<path d="M32.4943 112.023L28.7696 111.934L26.6806 116.873L29.3384 119.484L28.7728 120.822L19.9349 112.067L20.6226 110.441L33.06 110.686L32.4943 112.023ZM25.6858 115.879L27.3698 111.898L21.4825 111.755L25.6858 115.879Z" fill="white"/>
<path d="M30.2493 90.6019L30.924 89.4101L40.975 95.1005L40.3003 96.2923L35.6768 93.6747L32.3764 99.5042L36.9998 102.122L36.3251 103.314L26.2741 97.6232L26.9489 96.4314L31.2421 98.862L34.5425 93.0325L30.2493 90.6019Z" fill="white"/>
<path d="M40.4352 74.6999L41.4976 75.4551L39.3373 78.4945L47.689 84.4308L46.886 85.5605L38.5343 79.6242L36.3834 82.6502L35.321 81.895L40.4352 74.6999Z" fill="white"/>
<path d="M50.6769 61.8346L51.7866 60.5693L60.4701 68.185L59.5671 69.2147L55.9324 66.0269L52.3367 62.7197L55.3458 74.0278L54.2361 75.2931L45.5526 67.6774L46.4556 66.6478L50.0903 69.8355L53.686 73.1427L50.6769 61.8346Z" fill="white"/>
<path d="M60.7621 51.2025L64.1205 48.1024L71.9547 56.5893L70.9484 57.5182L67.9714 54.2932L66.2134 55.916L66.6443 61.4913L65.3955 62.644L65.0159 56.954C63.3232 58.1124 61.582 57.8559 60.3061 56.4737C58.8959 54.9461 58.8829 52.9372 60.7621 51.2025ZM64.8769 55.4655L67.132 53.3839L63.9983 49.9891L61.7432 52.0708C60.3975 53.313 60.4628 54.6001 61.3469 55.5579C62.2311 56.5157 63.5311 56.7078 64.8769 55.4655Z" fill="white"/>
<path d="M86.3214 30.8963L87.4687 30.1484L93.7758 39.8243L92.6285 40.5722L89.7272 36.1213L84.1152 39.7794L87.0165 44.2303L85.8692 44.9781L79.5621 35.3022L80.7094 34.5544L83.4034 38.6874L89.0154 35.0293L86.3214 30.8963Z" fill="white"/>
<path d="M108.903 31.2525L106.12 28.7754L101.331 31.1902L101.669 34.9007L100.373 35.5545L99.2966 23.1614L100.873 22.3664L110.199 30.5987L108.903 31.2525ZM101.216 29.7886L105.076 27.8419L100.679 23.9241L101.216 29.7886Z" fill="white"/>
<path d="M134.941 19.6727L136.522 19.1991L137.592 22.7711L136.264 23.169L135.568 20.8456L126.353 23.6069L127.05 25.9303L125.738 26.3234L124.667 22.7514L126.248 22.2777C126.558 21.8748 126.585 21.1605 126.423 19.8139L125.393 11.8373L132 9.85745L134.941 19.6727ZM127.742 19.5046C127.876 20.584 127.89 21.3205 127.734 21.8325L133.629 20.0658L131.062 11.4992L126.873 12.7544L127.742 19.5046Z" fill="white"/>
<path d="M146.914 5.99201C150.213 5.41486 153.205 7.48774 153.791 10.8359C154.377 14.1841 152.266 17.1497 148.95 17.7297C145.651 18.3068 142.642 16.2368 142.056 12.8886C141.471 9.54046 143.598 6.572 146.914 5.99201ZM147.122 7.27885C144.586 7.72238 142.964 10.033 143.421 12.6498C143.879 15.2666 146.19 16.8892 148.725 16.4457C151.261 16.0021 152.886 13.7077 152.426 11.0747C151.965 8.4417 149.657 6.83533 147.122 7.27885Z" fill="white"/>
<path d="M172.009 3.15508L173.69 3.07069L174.269 14.6062L172.901 14.6748L172.41 4.90264L168.801 10.9983L168.669 11.0049L164.467 5.30143L164.958 15.0736L163.59 15.1423L163.011 3.60682L164.692 3.52243L168.627 8.84282L172.009 3.15508Z" fill="white"/>
<path d="M192.168 14.9128L191.029 11.3655L185.678 11.014L184.084 14.3818L182.635 14.2867L188.002 3.06429L189.764 3.18L193.617 15.008L192.168 14.9128ZM186.29 9.74794L190.604 10.0313L188.806 4.42338L186.29 9.74794Z" fill="white"/>
<path d="M220.735 7.66673L222.372 8.05736L219.691 19.2919L218.359 18.9741L219.481 14.2716L220.727 9.54778L212.132 17.4881L210.495 17.0975L213.176 5.86292L214.508 6.18079L213.386 10.8833L212.14 15.6071L220.735 7.66673Z" fill="white"/>
<path d="M235.304 17.6029C236.401 18.4111 236.795 19.6709 236.327 20.993C235.628 22.9684 233.586 23.6457 231.159 22.7869C228.888 21.9831 227.458 20.2868 227.919 17.9469L229.226 18.4093C229.029 20.0026 229.992 20.991 231.579 21.5526C233.321 22.1692 234.602 21.7127 235.054 20.4372C235.439 19.3484 235.062 18.2873 233.242 17.6432L231.531 17.0376L231.933 15.9021L233.255 16.37C234.951 16.9701 235.964 16.6287 236.339 15.571C236.768 14.3578 236.052 13.2643 234.513 12.7193C233.066 12.2073 231.978 12.3647 231.098 13.6635L229.791 13.2011C230.988 11.1044 232.894 10.7638 234.979 11.5015C237.172 12.2778 238.339 14.0736 237.7 15.8779C237.337 16.9045 236.448 17.5874 235.304 17.6029Z" fill="white"/>
<path d="M265.001 25.0214L266.468 25.8451L260.815 35.917L259.621 35.2467L264.41 26.7144L258.108 29.9514L257.993 29.8867L257.475 22.8216L252.685 31.354L251.491 30.6836L257.144 20.6118L258.612 21.4355L259.109 28.0342L265.001 25.0214Z" fill="white"/>
<path d="M280.013 34.2622C282.714 36.2425 283.292 39.8367 281.282 42.578C279.273 45.3194 275.671 45.8506 272.956 43.8606C270.255 41.8804 269.664 38.2765 271.674 35.5351C273.683 32.7937 277.298 32.2723 280.013 34.2622ZM279.229 35.3038C277.153 33.782 274.362 34.2119 272.792 36.3545C271.221 38.497 271.651 41.2876 273.727 42.8093C275.803 44.3311 278.584 43.9145 280.164 41.7586C281.744 39.6028 281.305 36.8255 279.229 35.3038Z" fill="white"/>
<path d="M297.963 49.1008L298.966 50.0334L291.101 58.4918L290.098 57.5592L293.716 53.6683L288.81 49.1066L285.192 52.9975L284.189 52.0649L292.054 43.6066L293.057 44.5391L289.698 48.1521L294.603 52.7138L297.963 49.1008Z" fill="white"/>
<path d="M310.044 61.1966C312.216 63.7467 311.949 67.3771 309.361 69.5809C306.773 71.7847 303.146 71.4706 300.964 68.908C298.792 66.3579 299.049 62.7149 301.637 60.5111C304.225 58.3074 307.862 58.634 310.044 61.1966ZM309.041 62.0292C307.372 60.0695 304.558 59.844 302.535 61.5663C300.513 63.2887 300.287 66.1032 301.956 68.0628C303.625 70.0225 306.427 70.2588 308.462 68.5257C310.497 66.7926 310.71 63.9889 309.041 62.0292Z" fill="white"/>
<path d="M321.128 75.3442L324.985 81.1215L315.379 87.5346L314.618 86.3956L323.14 80.7063L320.685 77.0286L314.486 79.8379C311.947 80.9974 310.683 80.8289 309.877 79.6213C309.749 79.4292 309.515 79.0495 309.415 78.839L310.457 78.1428C310.526 78.2754 310.705 78.5728 310.787 78.6963C311.3 79.4648 311.973 79.4918 313.803 78.6668L321.128 75.3442Z" fill="white"/>
<path d="M333.818 96.254L334.592 97.7482L324.338 103.063L323.708 101.848L328 99.6228L332.389 97.4777L320.761 96.1638L319.987 94.6696L330.241 89.3543L330.871 90.5702L326.579 92.795L322.19 94.9401L333.818 96.254Z" fill="white"/>
<path d="M341.389 113.005L340.178 113.485L338.802 110.019L329.278 113.798L328.767 112.51L338.291 108.731L336.922 105.28L338.134 104.799L341.389 113.005Z" fill="white"/>
<path d="M335.882 133.162L338.852 130.911L337.41 125.746L333.704 125.359L333.314 123.96L345.681 125.305L346.155 127.005L336.273 134.56L335.882 133.162ZM338.807 125.904L339.97 130.068L344.665 126.513L338.807 125.904Z" fill="white"/>
<path d="M351.205 161.619L349.44 158.382L346.76 160.967L344.765 158.861L347.521 156.215L344.36 154.099L345.973 151.713L349.048 153.781L350.247 150.347L352.952 151.255L351.87 154.463L355.233 154.177L355.471 156.975L352.108 157.261L353.716 160.24L351.205 161.619Z" fill="#CC0035"/>
</svg>
