<svg width="357" height="351" viewBox="0 0 357 351" fill="none" xmlns="http://www.w3.org/2000/svg">
<path d="M351.863 183.687L350.56 183.636L350.775 178.063L340.536 177.668L340.589 176.3L352.131 176.745L351.863 183.687Z" fill="white"/>
<path d="M338.891 198.404L342.505 197.498L343.205 192.182L339.949 190.371L340.138 188.932L350.986 195.021L350.755 196.771L338.701 199.843L338.891 198.404ZM344.429 192.876L343.864 197.162L349.577 195.734L344.429 192.876Z" fill="white"/>
<path d="M347.902 213.306C347.318 215.796 345.464 216.835 343.392 216.349C341.319 215.863 340.057 214.092 340.641 211.602L341.387 208.422L337.403 207.487L337.716 206.154L348.961 208.792L347.902 213.306ZM341.921 211.852C341.503 213.635 342.407 214.694 343.692 214.996C344.977 215.297 346.226 214.743 346.644 212.96L347.379 209.827L342.656 208.719L341.921 211.852Z" fill="white"/>
<path d="M331.175 229.654L334.897 229.491L336.648 224.423L333.82 221.997L334.294 220.624L343.702 228.763L343.126 230.432L330.7 231.027L331.175 229.654ZM337.708 225.347L336.296 229.433L342.179 229.179L337.708 225.347Z" fill="white"/>
<path d="M335.658 249.002L335.082 250.245L324.602 245.391L325.177 244.149L329.998 246.381L332.813 240.302L327.992 238.07L328.568 236.827L339.048 241.681L338.473 242.923L333.996 240.85L331.181 246.929L335.658 249.002Z" fill="white"/>
<path d="M327.426 264.403L326.301 263.744L328.186 260.526L319.345 255.347L320.045 254.151L328.886 259.33L330.763 256.127L331.888 256.786L327.426 264.403Z" fill="white"/>
<path d="M318.944 277.152L317.959 278.517L308.594 271.757L309.395 270.646L313.315 273.476L317.207 276.428L313.142 265.456L314.127 264.091L323.492 270.851L322.691 271.962L318.771 269.132L314.878 266.18L318.944 277.152Z" fill="white"/>
<path d="M310.647 287.668L307.621 291.093L298.965 283.446L299.872 282.419L303.161 285.325L304.745 283.532L303.75 278.03L304.875 276.756L305.831 282.378C307.397 281.054 309.155 281.132 310.565 282.377C312.123 283.754 312.34 285.751 310.647 287.668ZM306.12 283.845L304.088 286.145L307.55 289.203L309.582 286.903C310.795 285.531 310.599 284.257 309.622 283.394C308.646 282.531 307.333 282.472 306.12 283.845Z" fill="white"/>
<path d="M288.792 309.036L287.739 309.913L280.347 301.038L281.399 300.161L284.8 304.244L289.947 299.956L286.547 295.874L287.599 294.997L294.991 303.872L293.939 304.749L290.781 300.958L285.634 305.245L288.792 309.036Z" fill="white"/>
<path d="M267.642 310.264L270.713 312.374L275.162 309.38L274.363 305.741L275.568 304.93L278.183 317.092L276.719 318.078L266.437 311.075L267.642 310.264ZM275.451 310.757L271.865 313.17L276.716 316.508L275.451 310.757Z" fill="white"/>
<path d="M245.101 324.015L243.601 324.703L242.047 321.313L243.307 320.735L244.318 322.94L253.062 318.93L252.051 316.726L253.296 316.155L254.85 319.544L253.35 320.232C253.099 320.674 253.171 321.385 253.518 322.696L255.642 330.454L249.372 333.329L245.101 324.015ZM252.254 323.185C251.972 322.135 251.856 321.407 251.94 320.879L246.346 323.444L250.074 331.573L254.048 329.75L252.254 323.185Z" fill="white"/>
<path d="M235.112 339.098C231.927 340.132 228.673 338.499 227.624 335.266C226.575 332.033 228.249 328.801 231.451 327.762C234.637 326.728 237.906 328.356 238.955 331.589C240.004 334.822 238.314 338.059 235.112 339.098ZM234.726 337.853C237.174 337.059 238.457 334.543 237.637 332.017C236.817 329.49 234.301 328.207 231.853 329.002C229.405 329.796 228.117 332.296 228.942 334.838C229.767 337.381 232.277 338.648 234.726 337.853Z" fill="white"/>
<path d="M212.707 344.86L211.057 345.194L208.764 333.874L210.106 333.602L212.049 343.192L214.708 336.626L214.838 336.6L219.844 341.612L217.9 332.023L219.243 331.751L221.536 343.071L219.887 343.405L215.202 338.731L212.707 344.86Z" fill="white"/>
<path d="M192.439 336.001L194.123 339.325L199.462 338.829L200.505 335.252L201.951 335.118L198.418 347.046L196.661 347.209L190.993 336.135L192.439 336.001ZM199.057 340.176L194.752 340.575L197.411 345.83L199.057 340.176Z" fill="white"/>
<path d="M166.89 347.599L165.21 347.489L165.967 335.963L167.334 336.053L167.017 340.877L166.582 345.743L173.722 336.473L175.402 336.583L174.645 348.108L173.278 348.018L173.595 343.194L174.03 338.328L166.89 347.599Z" fill="white"/>
<path d="M151.874 340.315C150.653 339.71 150.046 338.538 150.277 337.154C150.622 335.087 152.516 334.065 155.055 334.49C157.431 334.886 159.134 336.308 159.087 338.693L157.72 338.464C157.636 336.861 156.516 336.055 154.856 335.778C153.034 335.473 151.851 336.146 151.628 337.48C151.437 338.619 151.993 339.599 153.897 339.917L155.687 340.216L155.489 341.404L154.106 341.173C152.332 340.877 151.393 341.389 151.208 342.496C150.996 343.765 151.891 344.718 153.502 344.987C155.016 345.24 156.06 344.895 156.701 343.463L158.068 343.692C157.253 345.965 155.436 346.631 153.255 346.267C150.96 345.884 149.499 344.318 149.814 342.43C149.993 341.356 150.75 340.529 151.874 340.315Z" fill="white"/>
<path d="M125.095 339.306L125.493 338.065L130.804 339.766L133.93 330.008L135.234 330.426L131.71 341.425L125.095 339.306Z" fill="white"/>
<path d="M114.457 322.836L114.355 326.56L119.286 328.667L121.907 326.019L123.242 326.59L114.455 335.395L112.831 334.701L113.122 322.265L114.457 322.836ZM118.288 329.659L114.313 327.96L114.147 333.846L118.288 329.659Z" fill="white"/>
<path d="M99.063 321.989C98.1129 321.013 97.9295 319.705 98.6069 318.477C99.6191 316.642 101.745 316.308 103.999 317.551C106.108 318.714 107.242 320.621 106.406 322.855L105.192 322.185C105.646 320.645 104.857 319.513 103.383 318.7C101.765 317.808 100.426 318.049 99.7727 319.233C99.2148 320.245 99.4136 321.353 101.104 322.286L102.693 323.162L102.111 324.217L100.883 323.54C99.3086 322.671 98.253 322.842 97.7111 323.825C97.0894 324.952 97.6171 326.147 99.0474 326.936C100.391 327.677 101.49 327.7 102.57 326.562L103.784 327.231C102.261 329.105 100.325 329.13 98.3889 328.062C96.3518 326.938 95.4933 324.976 96.4178 323.3C96.9438 322.346 97.9326 321.818 99.063 321.989Z" fill="white"/>
<path d="M82.6464 318.566C79.9022 316.646 79.2462 313.065 81.1951 310.281C83.144 307.496 86.7328 306.886 89.4906 308.816C92.2348 310.736 92.9043 314.326 90.9554 317.111C89.0065 319.896 85.4042 320.496 82.6464 318.566ZM83.4073 317.508C85.5162 318.984 88.2967 318.493 89.8198 316.316C91.343 314.14 90.852 311.36 88.7432 309.884C86.6343 308.408 83.8633 308.885 82.3307 311.075C80.7981 313.265 81.2985 316.032 83.4073 317.508Z" fill="white"/>
<path d="M70.7719 303.491C68.8244 301.808 68.7836 299.963 70.143 298.39C71.5025 296.817 73.4307 296.63 75.3657 298.302L78.9611 301.409L71.4087 310.148L70.3726 309.253L65.4789 305.023L66.3312 304.037L71.2249 308.266L73.3935 305.757L70.7719 303.491ZM74.5508 299.321C73.2151 298.166 72.0117 298.348 71.1809 299.309C70.3501 300.27 70.3043 301.408 71.6401 302.563L74.2243 304.796L77.0726 301.5L74.5508 299.321Z" fill="white"/>
<path d="M54.8296 292.91L58.9487 297.213L61.5947 294.68L57.7494 290.663L58.691 289.762L62.5363 293.779L65.4087 291.029L61.2896 286.726L62.2312 285.825L67.2973 291.117L58.9541 299.104L53.888 293.812L54.8296 292.91Z" fill="white"/>
<path d="M43.4699 281.694L44.4864 280.878L46.8205 283.786L54.8116 277.373L55.6791 278.454L47.688 284.867L50.0117 287.762L48.9951 288.578L43.4699 281.694Z" fill="white"/>
<path d="M35.6137 271.129C33.7949 268.316 34.5359 264.752 37.3902 262.907C40.2444 261.061 43.7987 261.848 45.6264 264.674C47.4452 267.487 46.7131 271.065 43.8589 272.911C41.0046 274.756 37.4414 273.956 35.6137 271.129ZM36.7172 270.435C38.1149 272.597 40.8755 273.189 43.1063 271.747C45.337 270.304 45.9295 267.544 44.5318 265.382C43.1342 263.221 40.3874 262.619 38.1428 264.071C35.8982 265.522 35.3196 268.274 36.7172 270.435Z" fill="white"/>
<path d="M24.5893 251.597L23.9772 250.372L34.3091 245.209L34.9213 246.434L30.1686 248.809L33.163 254.802L37.9157 252.427L38.5278 253.652L28.1959 258.814L27.5837 257.589L31.9969 255.384L29.0025 249.392L24.5893 251.597Z" fill="white"/>
<path d="M28.3001 230.978L25.5465 233.487L27.4492 238.501L31.1747 238.552L31.6899 239.91L19.2521 239.688L18.6257 238.038L27.7849 229.62L28.3001 230.978ZM26.0432 238.47L24.5093 234.428L20.1546 238.393L26.0432 238.47Z" fill="white"/>
<path d="M10.9113 205.836L13.0023 208.873L15.4 206.024L17.6019 207.913L15.1348 210.83L18.4973 212.607L17.1402 215.148L13.8674 213.408L13.0309 216.948L10.2458 216.325L10.9901 213.022L7.67489 213.655L7.14878 210.896L10.464 210.264L8.55618 207.467L10.9113 205.836Z" fill="#CC0035"/>
<path d="M6.99051 171.394L8.29385 171.414L8.20775 176.991L18.453 177.149L18.4319 178.518L6.88326 178.34L6.99051 171.394Z" fill="white"/>
<path d="M19.6117 156.398L16.0193 157.386L15.4416 162.717L18.7389 164.452L18.5825 165.896L7.59741 160.058L7.78761 158.303L19.7681 154.954L19.6117 156.398ZM14.2026 162.052L14.6683 157.754L8.98931 159.313L14.2026 162.052Z" fill="white"/>
<path d="M10.241 141.727C10.7681 139.225 12.5977 138.143 14.6805 138.582C16.7634 139.021 18.066 140.762 17.5389 143.264L16.8656 146.461L20.8698 147.305L20.5876 148.645L9.28551 146.264L10.241 141.727ZM16.2532 143.044C16.6306 141.252 15.7027 140.214 14.4111 139.942C13.1194 139.669 11.8838 140.252 11.5063 142.045L10.8433 145.193L15.5901 146.193L16.2532 143.044Z" fill="white"/>
<path d="M26.3912 125.541L22.6746 125.802L21.0578 130.915L23.9486 133.265L23.5108 134.65L13.8912 126.762L14.4235 125.079L26.829 124.156L26.3912 125.541ZM19.9741 130.018L21.2775 125.897L15.4027 126.306L19.9741 130.018Z" fill="white"/>
<path d="M21.6363 105.725L22.1839 104.47L32.7704 109.088L32.2228 110.344L27.353 108.219L24.6745 114.359L29.5443 116.484L28.9967 117.739L18.4102 113.121L18.9578 111.866L23.4797 113.838L26.1583 107.698L21.6363 105.725Z" fill="white"/>
<path d="M29.4775 90.1739L30.6165 90.8077L28.8033 94.0662L37.7569 99.0485L37.083 100.26L28.1293 95.2773L26.3242 98.5214L25.1851 97.8876L29.4775 90.1739Z" fill="white"/>
<path d="M37.5641 77.3479L38.519 75.9621L48.03 82.5151L47.253 83.6429L43.272 80.8999L39.3157 78.0338L43.6208 88.9147L42.6659 90.3006L33.1549 83.7475L33.9319 82.6198L37.9129 85.3627L41.8692 88.2288L37.5641 77.3479Z" fill="white"/>
<path d="M45.518 66.7075L48.4687 63.2171L57.2893 70.6736L56.4051 71.7195L53.0533 68.886L51.5088 70.7131L52.6236 76.1928L51.5264 77.4906L50.4483 71.8908C48.9113 73.249 47.1517 73.2091 45.7153 71.9948C44.1275 70.6526 43.867 68.6606 45.518 66.7075ZM50.127 70.4308L52.1083 68.0871L48.58 65.1045L46.5987 67.4482C45.4163 68.8469 45.6398 70.1161 46.6352 70.9576C47.6307 71.7991 48.9446 71.8295 50.127 70.4308Z" fill="white"/>
<path d="M66.84 44.7962L67.8729 43.8969L75.457 52.6081L74.4241 53.5074L70.9354 49.5002L65.8829 53.899L69.3716 57.9061L68.3387 58.8054L60.7546 50.0942L61.7875 49.195L65.027 52.9159L70.0795 48.5171L66.84 44.7962Z" fill="white"/>
<path d="M87.9704 43.0209L84.8541 40.9787L80.4719 44.0694L81.3499 47.6903L80.1633 48.5272L77.2817 36.4258L78.7245 35.4083L89.1569 42.184L87.9704 43.0209ZM80.1521 42.6999L83.6848 40.2083L78.7611 36.9775L80.1521 42.6999Z" fill="white"/>
<path d="M110.038 28.7592L111.522 28.0382L113.151 31.3922L111.905 31.9979L110.845 29.8163L102.192 34.0201L103.252 36.2017L102.021 36.8002L100.391 33.4462L101.875 32.7251C102.116 32.2777 102.028 31.5683 101.652 30.2652L99.3563 22.557L105.56 19.5429L110.038 28.7592ZM102.905 29.7481C103.211 30.7921 103.343 31.5168 103.27 32.0473L108.806 29.3577L104.898 21.3139L100.965 23.2247L102.905 29.7481Z" fill="white"/>
<path d="M119.929 13.2945C123.091 12.1888 126.38 13.7477 127.502 16.9562C128.624 20.1647 127.023 23.4339 123.846 24.5451C120.684 25.6508 117.379 24.0973 116.257 20.8888C115.135 17.6804 116.752 14.4056 119.929 13.2945ZM120.344 14.5303C117.914 15.3801 116.689 17.9237 117.565 20.4313C118.442 22.9389 120.986 24.1644 123.416 23.3147C125.845 22.465 127.076 19.9369 126.194 17.4137C125.312 14.8906 122.773 13.6806 120.344 14.5303Z" fill="white"/>
<path d="M141.739 7.09355L143.381 6.72164L145.933 17.9861L144.598 18.2887L142.435 8.74612L139.927 15.3712L139.798 15.4004L134.679 10.5036L136.841 20.0462L135.506 20.3488L132.953 9.08435L134.595 8.71244L139.385 13.2778L141.739 7.09355Z" fill="white"/>
<path d="M161.774 15.4593L160.014 12.1754L154.688 12.7941L153.727 16.394L152.285 16.5615L155.541 4.55561L157.295 4.35192L163.217 15.2918L161.774 15.4593ZM155.062 11.4384L159.356 10.9397L156.577 5.74761L155.062 11.4384Z" fill="white"/>
<path d="M187.028 3.11034L188.709 3.18177L188.219 14.7214L186.851 14.6632L187.056 9.8331L187.379 4.9584L180.455 14.3916L178.773 14.3201L179.263 2.78054L180.632 2.83866L180.426 7.6688L180.104 12.5435L187.028 3.11034Z" fill="white"/>
<path d="M202.715 10.0094C203.949 10.5866 204.583 11.7443 204.384 13.1326C204.086 15.2069 202.216 16.2721 199.668 15.9065C197.284 15.5644 195.549 14.1819 195.541 11.7971L196.913 11.9939C197.033 13.5948 198.171 14.3748 199.837 14.6139C201.666 14.8764 202.834 14.177 203.026 12.8378C203.19 11.6945 202.612 10.7281 200.701 10.4539L198.904 10.1961L199.075 9.00379L200.464 9.20299C202.244 9.45844 203.171 8.92465 203.33 7.81403C203.513 6.54007 202.596 5.60846 200.979 5.37645C199.46 5.1585 198.424 5.52655 197.816 6.97291L196.445 6.77606C197.207 4.48508 199.008 3.77682 201.197 4.09085C203.5 4.42129 204.997 5.95296 204.725 7.84756C204.571 8.92552 203.833 9.76977 202.715 10.0094Z" fill="white"/>
<path d="M229.528 10.3117L229.158 11.5618L223.81 9.98109L220.906 19.8074L219.592 19.4193L222.866 8.34289L229.528 10.3117Z" fill="white"/>
<path d="M240.66 26.5158L240.679 22.79L235.702 20.7937L233.141 23.4998L231.793 22.9593L240.381 13.9593L242.02 14.6166L242.008 27.0563L240.66 26.5158ZM236.677 19.7804L240.689 21.3898L240.723 15.5008L236.677 19.7804Z" fill="white"/>
<path d="M256.35 27.094C257.321 28.0491 257.534 29.3519 256.884 30.5947C255.912 32.4515 253.795 32.8335 251.514 31.6405C249.379 30.5239 248.203 28.6426 248.99 26.3913L250.218 27.0336C249.798 28.5832 250.612 29.6977 252.103 30.4778C253.741 31.3343 255.074 31.0635 255.701 29.8645C256.237 28.8411 256.013 27.7374 254.303 26.8426L252.694 26.0014L253.253 24.9341L254.495 25.5841C256.089 26.4177 257.141 26.2229 257.661 25.2287C258.257 24.0882 257.703 22.9046 256.256 22.1476C254.896 21.4363 253.796 21.4384 252.742 22.6L251.514 21.9576C252.995 20.051 254.93 19.983 256.889 21.0078C258.951 22.0861 259.852 24.0288 258.965 25.7248C258.461 26.6898 257.484 27.2402 256.35 27.094Z" fill="white"/>
<path d="M272.284 29.7492C275.076 31.5988 275.824 35.1615 273.947 37.9953C272.07 40.8291 268.498 41.5308 265.692 39.6721C262.899 37.8225 262.138 34.2507 264.015 31.417C265.892 28.5832 269.477 27.8905 272.284 29.7492ZM271.55 30.8268C269.404 29.4055 266.637 29.9675 265.17 32.1823C263.703 34.3971 264.266 37.164 266.411 38.5854C268.557 40.0067 271.315 39.4584 272.791 37.2299C274.267 35.0014 273.696 32.2482 271.55 30.8268Z" fill="white"/>
<path d="M284.942 44.7801C286.926 46.4203 287.007 48.2643 285.682 49.8666C284.358 51.4688 282.434 51.6981 280.463 50.0684L276.801 47.0404L284.16 38.1389L285.216 39.0116L290.201 43.1331L289.37 44.1376L284.385 40.0162L282.272 42.5722L284.942 44.7801ZM281.255 49.0323C282.616 50.1573 283.815 49.9498 284.625 48.9707C285.434 47.9915 285.455 46.8527 284.095 45.7277L281.462 43.5513L278.687 46.9085L281.255 49.0323Z" fill="white"/>
<path d="M300.765 54.5841L296.538 50.3875L293.957 52.987L297.903 56.9046L296.985 57.8296L293.038 53.9121L290.237 56.7341L294.464 60.9306L293.546 61.8557L288.347 56.6943L296.484 48.4976L301.683 53.659L300.765 54.5841Z" fill="white"/>
<path d="M312.806 65.9234L311.807 66.7613L309.41 63.9048L301.561 70.4913L300.67 69.4295L308.519 62.8431L306.133 59.9992L307.131 59.1613L312.806 65.9234Z" fill="white"/>
<path d="M321.02 76.4047C322.901 79.1767 322.238 82.7562 319.425 84.6641C316.612 86.5721 313.041 85.8637 311.152 83.0781C309.272 80.306 309.925 76.7129 312.738 74.805C315.551 72.897 319.131 73.619 321.02 76.4047ZM319.932 77.1227C318.487 74.9925 315.715 74.4608 313.516 75.952C311.317 77.4432 310.786 80.2161 312.231 82.3464C313.676 84.4766 316.435 85.0175 318.647 83.5171C320.859 82.0167 321.377 79.2529 319.932 77.1227Z" fill="white"/>
<path d="M332.263 95.1957L332.906 96.4045L322.712 101.833L322.068 100.624L326.757 98.1272L323.609 92.2143L318.919 94.7116L318.276 93.5028L328.47 88.074L329.114 89.2828L324.759 91.6017L327.908 97.5146L332.263 95.1957Z" fill="white"/>
<path d="M329.333 116.448L332.03 113.876L330.015 108.907L326.289 108.94L325.743 107.594L338.183 107.536L338.846 109.172L329.879 117.793L329.333 116.448ZM331.421 108.906L333.045 112.913L337.31 108.851L331.421 108.906Z" fill="white"/>
<path d="M347.309 141.114L345.149 138.126L342.818 141.029L340.573 139.191L342.973 136.218L339.57 134.518L340.869 131.948L344.181 133.612L344.936 130.053L347.734 130.612L347.066 133.932L350.366 133.223L350.955 135.969L347.655 136.677L349.627 139.43L347.309 141.114Z" fill="#CC0035"/>
</svg>
