<svg width="355" height="351" viewBox="0 0 355 351" fill="none" xmlns="http://www.w3.org/2000/svg">
<path d="M351.845 184.023L350.543 183.963L350.802 178.392L340.566 177.918L340.629 176.55L352.167 177.084L351.845 184.023Z" fill="white"/>
<path d="M338.567 200.542L342.201 199.72L343.024 194.421L339.81 192.536L340.033 191.101L350.737 197.439L350.466 199.183L338.344 201.977L338.567 200.542ZM344.231 195.143L343.568 199.415L349.313 198.119L344.231 195.143Z" fill="white"/>
<path d="M346.626 218.727C345.939 221.19 344.043 222.152 341.993 221.579C339.943 221.007 338.755 219.185 339.443 216.722L340.321 213.575L336.38 212.475L336.748 211.156L347.873 214.261L346.626 218.727ZM340.712 217.025C340.219 218.789 341.078 219.885 342.35 220.24C343.621 220.595 344.892 220.093 345.384 218.329L346.249 215.23L341.577 213.926L340.712 217.025Z" fill="white"/>
<path d="M328.455 236.72L332.181 236.767L334.214 231.805L331.527 229.224L332.078 227.88L341.013 236.535L340.344 238.169L327.905 238.064L328.455 236.72ZM335.22 232.788L333.581 236.788L339.469 236.865L335.22 232.788Z" fill="white"/>
<path d="M330.473 259.115L329.807 260.312L319.714 254.696L320.38 253.499L325.023 256.083L328.28 250.229L323.638 247.645L324.304 246.449L334.396 252.065L333.73 253.261L329.419 250.863L326.162 256.716L330.473 259.115Z" fill="white"/>
<path d="M319.309 276.657L318.249 275.898L320.42 272.866L312.091 266.899L312.898 265.773L321.228 271.739L323.389 268.721L324.449 269.48L319.309 276.657Z" fill="white"/>
<path d="M308.437 290.173L307.314 291.427L298.714 283.717L299.628 282.697L303.228 285.924L306.787 289.27L303.901 277.93L305.025 276.677L313.625 284.387L312.711 285.407L309.111 282.179L305.552 278.833L308.437 290.173Z" fill="white"/>
<path d="M296.96 301.956L293.546 304.994L285.867 296.367L286.89 295.456L289.808 298.735L291.595 297.144L291.266 291.562L292.535 290.432L292.811 296.128C294.525 295.001 296.261 295.289 297.512 296.694C298.894 298.247 298.87 300.256 296.96 301.956ZM292.923 297.619L290.631 299.659L293.702 303.11L295.995 301.07C297.363 299.852 297.321 298.564 296.454 297.591C295.588 296.617 294.291 296.401 292.923 297.619Z" fill="white"/>
<path d="M268.386 323.424L267.212 324.13L261.264 314.229L262.438 313.523L265.174 318.078L270.917 314.628L268.181 310.074L269.355 309.369L275.302 319.269L274.128 319.975L271.588 315.746L265.845 319.195L268.386 323.424Z" fill="white"/>
<path d="M244.739 322.736L247.399 325.345L252.298 323.164L252.141 319.441L253.467 318.851L253.943 331.282L252.33 332L243.413 323.327L244.739 322.736ZM252.346 324.57L248.397 326.328L252.599 330.453L252.346 324.57Z" fill="white"/>
<path d="M214.586 334.005L212.977 334.37L212.153 330.733L213.504 330.427L214.04 332.792L223.422 330.667L222.886 328.301L224.222 327.998L225.046 331.635L223.436 332C223.1 332.381 223.024 333.091 223.094 334.446L223.577 342.474L216.85 343.998L214.586 334.005ZM221.756 334.664C221.696 333.578 221.733 332.843 221.924 332.343L215.921 333.703L217.898 342.425L222.162 341.458L221.756 334.664Z" fill="white"/>
<path d="M199.706 347.095C196.372 347.417 193.548 345.121 193.22 341.738C192.893 338.355 195.226 335.56 198.576 335.236C201.91 334.913 204.751 337.208 205.078 340.591C205.405 343.975 203.056 346.771 199.706 347.095ZM199.597 345.796C202.159 345.548 203.954 343.369 203.698 340.725C203.443 338.081 201.263 336.285 198.701 336.533C196.139 336.781 194.343 338.944 194.6 341.605C194.857 344.265 197.035 346.044 199.597 345.796Z" fill="white"/>
<path d="M173.855 347.959L172.173 347.907L172.53 336.362L173.899 336.405L173.597 346.184L177.688 340.401L177.819 340.405L181.546 346.43L181.848 336.65L183.217 336.692L182.86 348.237L181.178 348.185L177.687 342.563L173.855 347.959Z" fill="white"/>
<path d="M154.257 334.533L155.079 338.167L160.378 338.99L162.263 335.776L163.698 335.999L157.361 346.703L155.616 346.432L152.823 334.31L154.257 334.533ZM159.657 340.197L155.385 339.534L156.68 345.278L159.657 340.197Z" fill="white"/>
<path d="M121.34 338.001L119.758 337.428L123.694 326.569L124.981 327.036L123.334 331.581L121.561 336.133L131 329.217L132.582 329.791L128.647 340.649L127.359 340.183L129.007 335.638L130.779 331.085L121.34 338.001Z" fill="white"/>
<path d="M106.156 325.678C105.167 324.741 104.931 323.443 105.558 322.188C106.494 320.314 108.605 319.892 110.907 321.043C113.062 322.12 114.273 323.979 113.528 326.245L112.288 325.625C112.679 324.068 111.845 322.969 110.339 322.216C108.686 321.39 107.358 321.686 106.753 322.896C106.237 323.929 106.481 325.029 108.208 325.892L109.831 326.703L109.293 327.78L108.038 327.154C106.429 326.35 105.382 326.564 104.88 327.568C104.305 328.719 104.881 329.892 106.342 330.622C107.714 331.308 108.814 331.286 109.847 330.105L111.087 330.724C109.641 332.658 107.707 332.762 105.73 331.773C103.649 330.733 102.711 328.808 103.566 327.096C104.053 326.121 105.02 325.553 106.156 325.678Z" fill="white"/>
<path d="M80.9793 311.533C78.9201 309.989 78.7518 308.15 79.9992 306.487C81.2466 304.824 83.1573 304.504 85.2033 306.038L89.0049 308.89L82.075 318.13L80.9794 317.308L75.805 313.427L76.5871 312.384L81.7615 316.265L83.7514 313.612L80.9793 311.533ZM84.4608 307.111C83.0484 306.052 81.8604 306.316 81.0981 307.332C80.3358 308.348 80.3688 309.487 81.7812 310.546L84.5137 312.596L87.1272 309.111L84.4608 307.111Z" fill="white"/>
<path d="M63.9138 303.654C62.0472 301.906 62.0711 299.78 63.5261 298.227C64.9812 296.673 67.1456 296.462 69.0121 298.211L71.3966 300.444L74.1939 297.458L75.1934 298.394L67.2977 306.824L63.9138 303.654ZM68.1572 299.196C66.8205 297.944 65.4513 298.199 64.549 299.162C63.6466 300.126 63.5043 301.484 64.841 302.737L67.1893 304.936L70.5055 301.396L68.1572 299.196Z" fill="white"/>
<path d="M46.9251 285.959L59.9549 283.445L60.9605 284.626L56.2185 285.522L53.3439 293.496L52.3383 292.316L54.6084 285.896L47.92 287.127L46.9251 285.959Z" fill="white"/>
<path d="M47.2134 267.035C49.0903 269.869 48.375 273.391 45.5274 275.277C42.6799 277.163 39.1583 276.448 37.2814 273.614C35.8418 271.44 35.9731 268.86 37.4754 266.915L38.2863 268.139C37.3759 269.573 37.3568 271.367 38.3772 272.908C39.8168 275.081 42.5473 275.588 44.7621 274.121C46.9768 272.654 47.5753 269.942 46.1358 267.769C45.1153 266.228 43.4562 265.546 41.7804 265.825L40.9695 264.6C43.3465 263.976 45.7738 264.862 47.2134 267.035Z" fill="white"/>
<path d="M35.2309 247.044L32.7435 249.818L35.1405 254.615L38.8522 254.292L39.5013 255.59L27.1043 256.62L26.3151 255.041L34.5819 245.746L35.2309 247.044ZM33.7385 254.726L31.8061 250.859L27.872 255.241L33.7385 254.726Z" fill="white"/>
<path d="M13.41 217.4L15.6712 220.313L17.9022 217.332L20.2084 219.092L17.912 222.145L21.3706 223.727L20.1609 226.341L16.794 224.791L16.1612 228.374L13.345 227.911L13.8994 224.57L10.6257 225.391L9.94285 222.668L13.2165 221.847L11.152 219.163L13.41 217.4Z" fill="#CC0035"/>
<path d="M6.95195 175.101H8.25545V180.678H18.502V182.048H6.95195V175.101Z" fill="white"/>
<path d="M19.3863 158.52L15.7978 159.522L15.2406 164.855L18.5445 166.577L18.3936 168.021L7.38621 162.226L7.56965 160.47L19.5372 157.075L19.3863 158.52ZM13.999 164.194L14.4482 159.895L8.77523 161.475L13.999 164.194Z" fill="white"/>
<path d="M10.4419 140.629C11.0071 138.135 12.853 137.081 14.9289 137.552C17.0048 138.022 18.2807 139.783 17.7155 142.277L16.9936 145.464L20.9844 146.368L20.6818 147.704L9.41733 145.151L10.4419 140.629ZM16.4333 142.038C16.838 140.251 15.9261 139.199 14.6387 138.907C13.3513 138.615 12.107 139.179 11.7022 140.966L10.9912 144.104L15.7223 145.176L16.4333 142.038Z" fill="white"/>
<path d="M27.6653 121.821L23.9419 121.956L22.1527 127.012L24.9621 129.459L24.4777 130.827L15.1311 122.618L15.7201 120.954L28.1498 120.453L27.6653 121.821ZM21.1 126.079L22.5424 122.004L16.6572 122.213L21.1 126.079Z" fill="white"/>
<path d="M24.8203 98.9491L25.4324 97.724L35.7643 102.887L35.1522 104.112L30.3995 101.737L27.4051 107.73L32.1578 110.104L31.5456 111.329L21.2137 106.167L21.8259 104.942L26.2391 107.147L29.2335 101.154L24.8203 98.9491Z" fill="white"/>
<path d="M34.917 81.2872L36.0116 81.995L33.9867 85.1264L42.5911 90.6901L41.8385 91.854L33.2342 86.2902L31.2183 89.4078L30.1237 88.7L34.917 81.2872Z" fill="white"/>
<path d="M44.9423 67.4691L46.0053 66.1642L54.9601 73.459L54.0952 74.5208L50.3469 71.4674L46.6333 68.2932L50.0518 79.4843L48.9888 80.7891L40.034 73.4944L40.8989 72.4326L44.6472 75.486L48.3608 78.6602L44.9423 67.4691Z" fill="white"/>
<path d="M55.6352 55.2888L58.9021 52.0924L66.9796 60.348L66.0008 61.3057L62.9313 58.1686L61.2212 59.8418L61.814 65.4022L60.5992 66.5908L60.0544 60.9142C58.396 62.1213 56.6481 61.9155 55.3326 60.5711C53.8786 59.085 53.8072 57.0774 55.6352 55.2888ZM59.8722 59.4304L62.0658 57.2841L58.8348 53.9818L56.6411 56.1282C55.332 57.409 55.4347 58.6936 56.3463 59.6253C57.2579 60.557 58.5631 60.7113 59.8722 59.4304Z" fill="white"/>
<path d="M83.0899 32.374L84.2289 31.6136L90.642 41.2196L89.503 41.98L86.553 37.5613L80.9816 41.2809L83.9316 45.6996L82.7926 46.46L76.3795 36.854L77.5185 36.0936L80.2578 40.1968L85.8293 36.4772L83.0899 32.374Z" fill="white"/>
<path d="M107.01 31.7029L104.227 29.2258L99.4389 31.6406L99.7764 35.3511L98.48 36.0049L97.404 23.6118L98.9804 22.8168L108.307 31.0491L107.01 31.7029ZM99.3234 30.2389L103.183 28.2923L98.7866 24.3744L99.3234 30.2389Z" fill="white"/>
<path d="M136.047 19.077L137.636 18.6334L138.639 22.2251L137.304 22.5977L136.652 20.2616L127.386 22.848L128.038 25.1842L126.719 25.5524L125.717 21.9607L127.306 21.5171C127.623 21.1201 127.664 20.4064 127.527 19.057L126.649 11.0623L133.292 9.20786L136.047 19.077ZM128.853 18.7727C128.966 19.8545 128.966 20.5911 128.8 21.1L134.728 19.4453L132.323 10.8316L128.112 12.0072L128.853 18.7727Z" fill="white"/>
<path d="M151.197 5.0393C154.512 4.56356 157.44 6.72719 157.922 10.0917C158.405 13.4563 156.204 16.3558 152.872 16.8339C149.557 17.3096 146.613 15.1483 146.13 11.7838C145.647 8.41923 147.865 5.51738 151.197 5.0393ZM151.365 6.33192C148.817 6.69752 147.125 8.95734 147.502 11.5869C147.879 14.2165 150.139 15.9092 152.687 15.5436C155.235 15.178 156.93 12.9345 156.55 10.2886C156.171 7.64269 153.913 5.96633 151.365 6.33192Z" fill="white"/>
<path d="M175.62 2.99145L177.303 2.95897L177.526 14.5068L176.156 14.5332L175.968 4.75057L172.172 10.7319L172.04 10.7345L168.016 4.90405L168.205 14.6867L166.836 14.7132L166.613 3.16531L168.296 3.13283L172.064 8.57211L175.62 2.99145Z" fill="white"/>
<path d="M197.096 15.4497L196.108 11.8573L190.777 11.2796L189.042 14.5769L187.598 14.4205L193.436 3.43541L195.191 3.62561L198.54 15.6061L197.096 15.4497ZM191.442 10.0406L195.74 10.5063L194.181 4.82732L191.442 10.0406Z" fill="white"/>
<path d="M229.116 10.1849L230.724 10.6802L227.325 21.7187L226.016 21.3157L227.439 16.6953L228.987 12.0616L219.898 19.4316L218.289 18.9363L221.688 7.89783L222.997 8.30086L221.575 12.9213L220.027 17.555L229.116 10.1849Z" fill="white"/>
<path d="M245.331 21.8701C246.364 22.7581 246.663 24.0438 246.097 25.3272C245.252 27.2448 243.165 27.7674 240.809 26.7294C238.605 25.758 237.306 23.9594 237.94 21.6605L239.209 22.2194C238.894 23.7936 239.78 24.8512 241.32 25.5299C243.011 26.2751 244.323 25.9158 244.869 24.6777C245.335 23.6208 245.038 22.5344 243.272 21.756L241.611 21.024L242.096 19.9218L243.38 20.4874C245.026 21.2126 246.062 20.948 246.514 19.9213C247.033 18.7436 246.401 17.5996 244.907 16.9409C243.502 16.3221 242.405 16.3976 241.431 17.627L240.162 17.0681C241.513 15.0669 243.439 14.8698 245.462 15.7614C247.591 16.6996 248.621 18.5777 247.849 20.3292C247.41 21.3257 246.472 21.9402 245.331 21.8701Z" fill="white"/>
<path d="M271.302 34.8305C273.432 36.2753 273.687 38.1033 272.52 39.8239C271.353 41.5445 269.46 41.955 267.343 40.5194L263.411 37.852L269.894 28.2933L271.027 29.062L276.38 32.6926L275.648 33.7714L270.296 30.1408L268.434 32.8855L271.302 34.8305ZM268.034 39.4128C269.495 40.4039 270.669 40.0837 271.382 39.0323C272.096 37.9808 272.009 36.8452 270.547 35.8541L267.721 33.9369L265.276 37.542L268.034 39.4128Z" fill="white"/>
<path d="M288.516 41.6903C290.463 43.3485 290.539 45.4726 289.159 47.0931C287.779 48.7136 285.627 49.0265 283.68 47.3683L281.193 45.2501L278.54 48.3655L277.497 47.4776L284.986 38.6842L288.516 41.6903ZM284.488 46.3438C285.882 47.5313 287.238 47.212 288.093 46.207C288.949 45.2021 289.027 43.8381 287.633 42.6506L285.183 40.5645L282.038 44.2577L284.488 46.3438Z" fill="white"/>
<path d="M306.277 58.4378L293.38 61.5647L292.32 60.4327L297.014 59.3139L299.509 51.2123L300.569 52.3443L298.605 58.8639L305.228 57.3179L306.277 58.4378Z" fill="white"/>
<path d="M307.054 77.4679C305.044 74.7265 305.591 71.1749 308.346 69.1556C311.101 67.1364 314.652 67.6835 316.662 70.4249C318.203 72.5275 318.195 75.1115 316.787 77.1257L315.918 75.9413C316.76 74.4654 316.693 72.6727 315.601 71.1822C314.06 69.0796 311.308 68.703 309.166 70.2735C307.023 71.844 306.554 74.5813 308.095 76.6839C309.188 78.1744 310.878 78.777 312.538 78.419L313.406 79.6034C311.062 80.3401 308.595 79.5705 307.054 77.4679Z" fill="white"/>
<path d="M320.323 97.3968L322.685 94.5152L320.078 89.8294L316.384 90.3175L315.678 89.0487L328.017 87.4697L328.875 89.0124L321.029 98.6656L320.323 97.3968ZM321.473 89.6569L323.575 93.4345L327.311 88.8821L321.473 89.6569Z" fill="white"/>
<path d="M343.32 125.424L340.918 122.627L338.837 125.714L336.447 124.07L338.59 120.907L335.058 119.497L336.137 116.827L339.576 118.209L340.032 114.6L342.867 114.924L342.478 118.287L345.707 117.306L346.524 119.993L343.294 120.974L345.489 123.552L343.32 125.424Z" fill="#CC0035"/>
</svg>
