<svg width="35" height="35" viewBox="0 0 35 35" fill="none" xmlns="http://www.w3.org/2000/svg">
<path opacity="0.4" fill-rule="evenodd" clip-rule="evenodd" d="M17.5 35C27.165 35 35 27.165 35 17.5C35 7.83502 27.165 0 17.5 0C7.83502 0 0 7.83502 0 17.5C0 27.165 7.83502 35 17.5 35ZM14.2435 22.5877C14.9414 23.2688 16.0743 23.2688 16.7725 22.5877L24.6779 14.8761C25.0132 14.549 25.2015 14.1052 25.2015 13.6427C25.2015 13.1802 25.0132 12.7364 24.6779 12.4094C23.9797 11.7283 22.8468 11.7283 22.1489 12.4094L15.8276 18.5758C15.651 18.7473 15.365 18.7473 15.1887 18.5758L12.8542 16.2987C12.156 15.6176 11.0231 15.6176 10.3252 16.2987C9.62698 16.9795 9.62698 18.0847 10.3252 18.7654L14.2435 22.5877Z" />
</svg>
