<svg width="21" height="24" viewBox="0 0 21 24" fill="none" xmlns="http://www.w3.org/2000/svg">
<path fill-rule="evenodd" clip-rule="evenodd" d="M4.79668 1.67505C6.30881 0.693124 8.08122 0.11092 9.87223 0.00664523C10.1077 -0.00700986 11.1117 0.00167974 11.31 0.0178176C12.4441 0.115886 13.4332 0.349264 14.4396 0.755192C15.2539 1.08291 16.0831 1.55215 16.7822 2.07725C18.6971 3.51724 20.0345 5.49847 20.6592 7.81487C20.8042 8.35363 20.9257 9.06493 20.9777 9.69555C21 9.96493 21.0075 10.7309 20.9913 11.0673C20.8984 12.9455 20.2911 14.7752 19.2363 16.3555C17.7031 18.6533 15.3246 20.2609 12.6387 20.8182C12.4057 20.8666 12.0425 20.9275 11.8739 20.9473C11.8132 20.9548 11.6905 20.9697 11.6013 20.9796C11.3608 21.0082 10.8192 21.0355 10.5043 21.0355C9.68259 21.0355 8.96867 20.9498 8.06015 20.7438L7.9139 20.7102L7.76888 20.8058C7.68832 20.858 7.33011 21.0938 6.97191 21.3309C4.08771 23.2389 2.92882 24.0036 2.92387 23.9999C2.92139 23.9974 2.93254 23.7801 2.94989 23.517C2.97716 23.075 3.01682 22.4171 3.06144 21.6624C3.07603 21.4119 3.09104 21.1652 3.10825 20.8825C3.12029 20.6847 3.13341 20.4692 3.14821 20.2224C3.16556 19.9418 3.18539 19.6104 3.19159 19.4838C3.19902 19.3571 3.21514 19.0865 3.22877 18.8817C3.2424 18.6769 3.25604 18.4274 3.261 18.3256L3.26967 18.1418L3.01558 17.8849C1.36959 16.2152 0.33837 14.0739 0.063212 11.7562C0.00743671 11.287 0 11.1529 0 10.5149C0 9.87679 0.00743671 9.74272 0.063212 9.27348C0.290032 7.36177 1.01635 5.58661 2.19879 4.05972C2.90527 3.14732 3.81751 2.31063 4.79668 1.67505ZM10.4646 12.0004C11.2738 12.0004 11.9297 11.3445 11.9297 10.5353C11.9297 9.72615 11.2738 9.0702 10.4646 9.0702C9.65543 9.0702 8.99947 9.72615 8.99947 10.5353C8.99947 11.3445 9.65543 12.0004 10.4646 12.0004ZM6.13926 12.0005C6.94842 12.0005 7.60437 11.3446 7.60437 10.5354C7.60437 9.72627 6.94842 9.07031 6.13926 9.07031C5.3301 9.07031 4.67414 9.72627 4.67414 10.5354C4.67414 11.3446 5.3301 12.0005 6.13926 12.0005ZM16.2552 10.5353C16.2552 11.3445 15.5993 12.0004 14.7901 12.0004C13.9809 12.0004 13.325 11.3445 13.325 10.5353C13.325 9.72615 13.9809 9.0702 14.7901 9.0702C15.5993 9.0702 16.2552 9.72615 16.2552 10.5353Z" />
</svg>
