<svg width="22" height="22" viewBox="0 0 22 22" fill="none" xmlns="http://www.w3.org/2000/svg">
<g clip-path="url(#clip0_1100_7507)">
<path d="M18.6465 7.94141C17.9464 7.94141 17.3789 8.50894 17.3789 9.20899V15.3195H4.6183V9.20899C4.6183 8.50894 4.05077 7.94141 3.35072 7.94141C2.65062 7.94141 2.08313 8.50894 2.08313 9.20899V18.5222C2.08313 18.999 2.34645 19.4141 2.73548 19.6305V21.4992H3.96595V19.7899H18.0313V21.4992H19.2617V19.6305C19.6508 19.4141 19.9141 18.999 19.9141 18.5222V9.20899C19.9141 8.50894 19.3465 7.94141 18.6465 7.94141Z" fill="#CC0035"/>
<path d="M5.84973 12.1689H16.1494V14.0889H5.84973V12.1689Z" fill="#CC0035"/>
<path d="M5.84868 9.20885V10.9384H16.1483V9.20885C16.1483 7.83143 17.2689 6.7108 18.6464 6.7108V1.76661C18.6464 1.06656 18.0788 0.499023 17.3787 0.499023H4.61821C3.91812 0.499023 3.35059 1.06656 3.35059 1.76661V6.71076C4.72805 6.7108 5.84868 7.83143 5.84868 9.20885Z" fill="#CC0035"/>
</g>
<defs>
<clipPath id="clip0_1100_7507">
<rect width="21" height="21" fill="white" transform="translate(0.499268 0.499023)"/>
</clipPath>
</defs>
</svg>
