<svg width="22" height="22" viewBox="0 0 22 22" fill="none" xmlns="http://www.w3.org/2000/svg">
<g clip-path="url(#clip0_555_3995)">
<path d="M18.6463 7.94141C17.9462 7.94141 17.3788 8.50894 17.3788 9.20899V15.3195H4.61818V9.20899C4.61818 8.50894 4.05065 7.94141 3.3506 7.94141C2.6505 7.94141 2.08301 8.50894 2.08301 9.20899V18.5222C2.08301 18.999 2.34633 19.4141 2.73536 19.6305V21.4992H3.96583V19.7899H18.0311V21.4992H19.2616V19.6305C19.6507 19.4141 19.914 18.999 19.914 18.5222V9.20899C19.9139 8.50894 19.3464 7.94141 18.6463 7.94141Z" />
<path d="M5.84961 12.1689H16.1492V14.0889H5.84961V12.1689Z" />
<path d="M5.84868 9.20885V10.9384H16.1483V9.20885C16.1483 7.83143 17.2689 6.7108 18.6464 6.7108V1.76661C18.6464 1.06656 18.0788 0.499023 17.3787 0.499023H4.61821C3.91812 0.499023 3.35059 1.06656 3.35059 1.76661V6.71076C4.72805 6.7108 5.84868 7.83143 5.84868 9.20885Z" />
</g>
<defs>
<clipPath id="clip0_555_3995">
<rect width="21" height="21" fill="white" transform="translate(0.499023 0.499023)"/>
</clipPath>
</defs>
</svg>
