<svg width="25" height="25" viewBox="0 0 25 25" fill="none" xmlns="http://www.w3.org/2000/svg">
<path d="M0.317347 0.0400944C0.26352 0.0645828 0.175765 0.132952 0.121939 0.19137C0.0242347 0.298769 0.0242347 0.376827 0.00969387 12.4804L0.000186896 24.4271C6.7239e-05 24.5775 0.0597468 24.7217 0.166071 24.8281C0.272405 24.9344 0.416624 24.9941 0.567003 24.9941H10.1556H19.7442C19.8946 24.9941 20.0388 24.9344 20.1451 24.8281C20.2515 24.7217 20.3112 24.5775 20.3112 24.4271V20.6388V17.0349C20.3112 16.7697 20.4165 16.5153 20.6041 16.3278L22.6056 14.326C23.8653 13.0664 24.9247 11.9727 24.9541 11.8995C25.0811 11.5919 25.0273 11.5186 23.6944 10.1906C23.001 9.50207 22.3859 8.91636 22.3224 8.88217C22.0783 8.76023 21.9367 8.85768 21.1066 9.67809C20.8113 9.96972 20.3107 9.76052 20.3107 9.34548V8.29136V6.34956C20.3107 6.19591 20.2648 6.04576 20.1788 5.9184C19.9395 5.57172 15.477 0.147493 15.3648 0.0691757C15.2719 0.00565529 14.4127 -0.00403976 7.83596 0.000806808C3.75459 0.00106239 0.371173 0.0204506 0.317347 0.0400944ZM14.5985 3.76534L14.6212 6.29986C14.6223 6.42138 14.6722 6.53735 14.7597 6.62172C14.844 6.70916 14.96 6.75891 15.0815 6.75971L17.0888 6.77299L18.2927 6.7811C18.8423 6.7848 19.2859 7.23142 19.2859 7.78108V9.1411V11.0805C19.2859 11.3454 19.1808 11.5995 18.9937 11.7869L16.6296 14.1551L14.1218 16.6629C14.0208 16.7639 13.9427 16.8852 13.8925 17.0189L13.2362 18.7691C12.8309 19.8482 12.499 20.7758 12.499 20.8296C12.499 21.1079 12.7334 21.3324 13.0166 21.3324C13.0898 21.3324 14.0176 21.0102 15.0819 20.6148L16.815 19.967C16.947 19.9176 17.0671 19.8409 17.1674 19.7419L18.1528 18.7691C18.572 18.3553 19.2823 18.6535 19.2805 19.2426L19.2757 20.7952L19.2658 22.949C19.2633 23.4995 18.8163 23.9444 18.2658 23.9444H10.1553H2.04847C1.49668 23.9444 1.04917 23.4975 1.04847 22.9457L1.0352 12.5439C1.03036 6.27478 1.0352 1.11407 1.04974 1.07989C1.06428 1.03116 2.44617 1.02122 7.82167 1.03116L13.5851 1.04358C14.133 1.04476 14.5779 1.48666 14.5829 2.03457L14.5985 3.76534ZM17.1372 3.82887C17.9232 4.7957 18.5921 5.61585 18.6166 5.64519C18.6507 5.69391 18.353 5.70871 17.1421 5.70871H16.6237C16.0714 5.70871 15.6237 5.26099 15.6237 4.70871V3.84366C15.6237 2.81841 15.6433 1.998 15.6627 2.02249C15.6872 2.05157 16.3513 2.86203 17.1372 3.82887ZM20.2523 15.1658L17.4783 17.9398C17.0877 18.3304 16.4546 18.3304 16.064 17.9398L15.9801 17.8559L15.8913 17.7671C15.5008 17.3766 15.5008 16.7434 15.8914 16.3529L18.6607 13.584L21.4347 10.8099C21.8252 10.4194 22.4584 10.4194 22.8489 10.8099L22.9329 10.8939L23.0216 10.9827C23.4122 11.3732 23.4122 12.0064 23.0216 12.3969L20.2523 15.1658ZM15.8191 19.1888C15.8191 19.2181 13.9589 19.9309 13.9393 19.9064C13.9296 19.8919 14.4911 18.3635 14.6033 18.1146C14.652 17.9975 14.6668 18.012 15.238 18.5783C15.5553 18.8959 15.8191 19.1694 15.8191 19.1888Z" />
<path d="M3.43265 8.90634C3.27143 8.97471 3.125 9.19435 3.125 9.37011C3.125 9.55073 3.27143 9.76552 3.44235 9.83874C3.69133 9.94129 15.0576 9.94129 15.3066 9.83874C15.4775 9.76552 15.624 9.55073 15.624 9.37011C15.624 9.1895 15.4775 8.97471 15.3066 8.90149C15.0625 8.79894 3.66684 8.80379 3.43265 8.90634Z" />
<path d="M3.43265 12.0311C3.27143 12.0995 3.125 12.3191 3.125 12.4949C3.125 12.6755 3.27143 12.8903 3.44235 12.9637C3.69133 13.0663 15.0576 13.0663 15.3066 12.9637C15.4775 12.8905 15.624 12.6757 15.624 12.4949C15.624 12.3142 15.4775 12.0995 15.3066 12.0262C15.0625 11.9237 3.66684 11.9285 3.43265 12.0311Z" />
<path d="M3.43265 15.1559C3.27143 15.2243 3.125 15.4439 3.125 15.6197C3.125 15.8003 3.27143 16.0151 3.44235 16.0886C3.67194 16.1812 9.37933 16.1911 9.56479 16.0934C9.89693 15.9225 9.97499 15.5123 9.72117 15.2585C9.62427 15.1616 9.49298 15.107 9.35595 15.1065L6.57678 15.0975C4.10638 15.0878 3.55944 15.0975 3.43265 15.1559Z" />
<path d="M3.43265 18.2807C3.27143 18.3491 3.125 18.5687 3.125 18.7445C3.125 18.9251 3.27143 19.1399 3.44235 19.2133C3.67194 19.3059 9.37933 19.3159 9.56479 19.2182C9.89693 19.0473 9.97499 18.6371 9.72117 18.3832C9.62427 18.2863 9.49298 18.2317 9.35595 18.2313L6.57704 18.2223C4.10638 18.2126 3.55944 18.2223 3.43265 18.2807Z" />
</svg>
