<svg width="19" height="18" viewBox="0 0 19 18" fill="none" xmlns="http://www.w3.org/2000/svg">
<path d="M18.551 8.6014C18.5526 8.6014 18.5538 8.6014 18.5553 8.6014C18.665 8.6014 18.7696 8.55542 18.8439 8.47486C18.9194 8.39313 18.9567 8.2835 18.9469 8.17269C18.5522 3.83333 15.1153 0.396575 10.7739 0.00126633C10.6638 -0.0073786 10.553 0.02838 10.4712 0.10422C10.3894 0.179666 10.3438 0.286156 10.345 0.397361C10.4134 6.16431 11.1744 8.52084 18.551 8.6014ZM18.551 9.3983C11.1744 9.47886 10.4138 11.8354 10.3454 17.6023C10.3442 17.7135 10.3898 17.82 10.4716 17.8955C10.5447 17.9627 10.6402 18 10.7385 18C10.7503 18 10.7625 17.9996 10.7743 17.9984C15.1157 17.6031 18.5526 14.1668 18.9469 9.82701C18.9567 9.7162 18.9198 9.60656 18.8439 9.52483C18.768 9.4431 18.6623 9.40262 18.551 9.3983ZM9.08864 0.00323113C4.76097 0.409936 1.33508 3.8459 0.942369 8.17347C0.932541 8.28428 0.969493 8.39392 1.04536 8.47565C1.11966 8.55621 1.22462 8.60179 1.3339 8.60179C1.33547 8.60179 1.33704 8.60179 1.33862 8.60179C8.69082 8.5173 9.4499 6.16195 9.51909 0.398933C9.52027 0.287728 9.47428 0.180845 9.39251 0.105398C9.30996 0.0299518 9.1995 -0.0069856 9.08864 0.00323113ZM1.33822 9.39791C1.21597 9.38415 1.12005 9.44231 1.04497 9.52404C0.969493 9.60578 0.932148 9.71541 0.941976 9.82622C1.33469 14.1538 4.76097 17.5898 9.08864 17.9965C9.10083 17.9976 9.11341 17.998 9.12559 17.998C9.22387 17.998 9.319 17.9611 9.39212 17.8939C9.47388 17.8185 9.51988 17.7116 9.5187 17.6004C9.44951 11.8377 8.69082 9.48239 1.33822 9.39791Z" />
</svg>
