<svg width="22" height="16" viewBox="0 0 22 16" fill="none" xmlns="http://www.w3.org/2000/svg">
<path d="M18.9457 0H3.05435C1.36757 0 0 1.3538 0 3.0236V12.9764C0 14.6462 1.36757 16 3.05435 16H18.9457C20.6324 16 22 14.6462 22 12.9764V3.0236C22 1.3538 20.6324 0 18.9457 0ZM7.65557 10.7955L3.37846 14.4077C3.07678 14.6625 2.62324 14.6271 2.36582 14.3282C2.10835 14.0295 2.14414 13.5805 2.44617 13.3257L6.72328 9.71353C7.02492 9.45865 7.47841 9.49408 7.73588 9.79307C7.99335 10.0917 7.95755 10.5406 7.65557 10.7955ZM11 9.42224C10.4279 9.42084 9.87336 9.23266 9.43981 8.86148L9.44015 8.86182L9.43877 8.8608C9.43912 8.86115 9.4395 8.86114 9.43981 8.86148L2.87727 3.22293C2.57735 2.96524 2.54543 2.51631 2.80534 2.21979C3.06561 1.92289 3.51914 1.89129 3.81863 2.14859L10.383 7.78855C10.5233 7.91216 10.7545 8.0014 11 8C11.2452 8.00072 11.4724 7.91391 11.6205 7.78613L11.6236 7.78336L18.1813 2.14863C18.4809 1.89133 18.9344 1.92293 19.1947 2.21984C19.4545 2.51631 19.4226 2.96529 19.1227 3.22297L12.5584 8.86323C12.1263 9.23053 11.5724 9.42152 11 9.42224ZM19.6345 14.3282C19.377 14.6271 18.9235 14.6625 18.6219 14.4077L14.3448 10.7955C14.0428 10.5406 14.007 10.0917 14.2645 9.79307C14.5219 9.49408 14.9754 9.45869 15.2771 9.71353L19.5542 13.3257C19.8562 13.5805 19.892 14.0295 19.6345 14.3282Z" />
</svg>
