<svg width="24" height="24" viewBox="0 0 24 24" fill="none" xmlns="http://www.w3.org/2000/svg">
<g clip-path="url(#clip0_455_3013)">
<path d="M23.9803 11.8228C23.9614 11.7405 23.9425 11.6945 23.9255 11.6518C23.8914 11.5721 23.8587 11.512 23.8205 11.4438C23.6796 11.1988 23.4534 10.8669 23.1435 10.4493C22.6807 9.82717 22.0433 9.03887 21.3214 8.26093C20.5987 7.48299 19.7971 6.71696 18.9809 6.13848C17.8267 5.32163 16.7042 4.68648 15.5548 4.25485C14.4061 3.8229 13.2303 3.5986 12 3.59931C10.7697 3.5986 9.59391 3.8229 8.44519 4.2549C7.29534 4.68648 6.17334 5.32168 5.01909 6.13815C3.80508 7.00098 2.60967 8.2817 1.68638 9.39404C1.22583 9.95026 0.837656 10.4627 0.557719 10.8624C0.417141 11.0626 0.304453 11.2339 0.217688 11.3785C0.173953 11.452 0.13725 11.5176 0.102 11.591C0.0841875 11.6285 0.067125 11.6671 0.0482344 11.7212C0.0389531 11.7486 0.0289219 11.7805 0.0196875 11.8228C0.0107812 11.8654 0.000375 11.9181 0 12C0.000375 12.0816 0.0107344 12.1346 0.0196875 12.1772C0.0382031 12.2596 0.0575156 12.3052 0.0745312 12.3482C0.108656 12.4279 0.141281 12.488 0.179484 12.5558C0.320391 12.8009 0.546563 13.1331 0.856547 13.5506C1.31892 14.1729 1.95666 14.9615 2.67863 15.7395C3.4013 16.5174 4.20295 17.2831 5.01909 17.8615C6.17334 18.6783 7.29539 19.3132 8.44519 19.7451C9.59391 20.1767 10.7697 20.4014 12 20.4007C13.2303 20.4014 14.4061 20.1767 15.5548 19.7451C16.7043 19.3131 17.8267 18.6783 18.981 17.8619C20.1949 16.999 21.3904 15.7183 22.3137 14.6059C22.7742 14.0498 23.1624 13.5373 23.4423 13.1376C23.5829 12.937 23.6955 12.766 23.7824 12.6211C23.8261 12.5476 23.8628 12.482 23.898 12.4089C23.9155 12.3715 23.9329 12.3329 23.9518 12.2784C23.9611 12.251 23.9711 12.2195 23.9804 12.1772C23.9893 12.1345 23.9997 12.0816 24 12C23.9996 11.9181 23.9893 11.8654 23.9803 11.8228ZM12 17.6947C8.85455 17.6947 6.30534 15.1451 6.30534 12.0001C6.30534 8.85573 8.85455 6.3054 12 6.3054C15.1455 6.3054 17.6947 8.85573 17.6947 12.0001C17.6947 15.1451 15.1455 17.6947 12 17.6947Z" />
<path d="M13.4256 11.7367C13.1267 11.7916 12.8208 11.6855 12.6209 11.4571C12.4207 11.228 12.3562 10.9113 12.4507 10.6221L12.8215 9.48818C12.5627 9.40362 12.2872 9.35693 11.9998 9.35693C10.5397 9.35693 9.35645 10.5397 9.35645 11.9999C9.35645 13.4601 10.5397 14.6437 11.9998 14.6437C13.46 14.6437 14.6432 13.4601 14.6432 11.9999C14.6432 11.8361 14.6261 11.6758 14.5976 11.5202L13.4256 11.7367Z" />
</g>
<defs>
<clipPath id="clip0_455_3013">
<rect width="24" height="24" fill="white"/>
</clipPath>
</defs>
</svg>
