<svg width="38" height="33" viewBox="0 0 38 33" fill="none" xmlns="http://www.w3.org/2000/svg">
<path d="M15.9456 30.0351C15.945 30.741 16.1226 31.4356 16.462 32.0545H3.60012C2.82251 32.0527 2.07728 31.7429 1.52742 31.1931C0.977567 30.6432 0.66785 29.898 0.666016 29.1204V24.7204C0.671515 22.7769 1.44598 20.9147 2.8202 19.5405C4.19442 18.1662 6.05669 17.3918 8.00012 17.3863H20.686C20.9546 18.2846 21.3924 19.1233 21.9759 19.8572C20.2898 20.147 18.7603 21.0229 17.657 22.3304C16.5537 23.6379 15.9476 25.293 15.9456 27.0038V30.0351ZM14.6001 15.1863C13.118 15.1863 11.6691 14.7468 10.4367 13.9233C9.20437 13.0999 8.24386 11.9295 7.67666 10.5602C7.10947 9.19084 6.96107 7.68407 7.25022 6.2304C7.53937 4.77672 8.2531 3.44144 9.30114 2.3934C10.3492 1.34536 11.6845 0.631636 13.1381 0.342483C14.5918 0.0533291 16.0986 0.201734 17.4679 0.768929C18.8372 1.33612 20.0076 2.29663 20.8311 3.529C21.6545 4.76136 22.094 6.21023 22.094 7.69238C22.094 9.67989 21.3045 11.586 19.8991 12.9914C18.4937 14.3967 16.5876 15.1863 14.6001 15.1863ZM37.3342 30.0351C37.3324 30.5701 37.119 31.0827 36.7407 31.461C36.3624 31.8393 35.8499 32.0527 35.3149 32.0545H20.165C19.63 32.0527 19.1174 31.8393 18.7391 31.461C18.3608 31.0827 18.1474 30.5701 18.1456 30.0351V27.0038C18.1499 25.6661 18.6831 24.3845 19.629 23.4387C20.5748 22.4929 21.8564 21.9596 23.194 21.9553H32.2835C33.6211 21.9596 34.9027 22.4929 35.8485 23.4387C36.7944 24.3845 37.3276 25.6661 37.3319 27.0038L37.3342 30.0351ZM32.8995 15.2789C32.8995 16.2994 32.5969 17.2969 32.0299 18.1454C31.463 18.9939 30.6572 19.6552 29.7144 20.0457C28.7716 20.4363 27.7342 20.5384 26.7333 20.3393C25.7325 20.1403 24.8131 19.6489 24.0915 18.9273C23.37 18.2057 22.8786 17.2864 22.6795 16.2855C22.4804 15.2846 22.5826 14.2472 22.9731 13.3044C23.3636 12.3616 24.0249 11.5558 24.8734 10.9889C25.7219 10.4219 26.7194 10.1193 27.7399 10.1193C29.1083 10.1193 30.4207 10.6629 31.3883 11.6305C32.3559 12.5981 32.8995 13.9105 32.8995 15.2789Z" fill="#CC0035"/>
</svg>
