<svg width="40" height="32" viewBox="0 0 40 32" fill="none" xmlns="http://www.w3.org/2000/svg">
<path fill-rule="evenodd" clip-rule="evenodd" d="M6.646 29.7302V9.69775H33.1574V29.7302H24.6964V18.2818C24.6964 18.0057 24.4725 17.7818 24.1964 17.7818H15.6071C15.3309 17.7818 15.1071 18.0057 15.1071 18.2818V29.7302H6.646ZM4.646 8.19775C4.646 7.92161 4.86985 7.69775 5.146 7.69775H34.6574C34.9335 7.69775 35.1574 7.92161 35.1574 8.19775V31.2302C35.1574 31.5063 34.9335 31.7302 34.6574 31.7302H5.146C4.86985 31.7302 4.646 31.5063 4.646 31.2302V8.19775ZM17.1071 29.7299V19.7818H22.6964V29.7299H17.1071Z" fill="#343434"/>
<mask id="path-2-inside-1_1801_7367" fill="white">
<rect x="0.433594" y="0.269653" width="39.133" height="9.1713" rx="0.5"/>
</mask>
<rect x="0.433594" y="0.269653" width="39.133" height="9.1713" rx="0.5" stroke="#CC0035" stroke-width="4" mask="url(#path-2-inside-1_1801_7367)"/>
</svg>
