<svg width="22" height="22" viewBox="0 0 22 22" fill="none" xmlns="http://www.w3.org/2000/svg">
<path fill-rule="evenodd" clip-rule="evenodd" d="M13.8286 0L21.0571 4.34482e-05C21.5779 4.65414e-05 22 0.422176 22 0.942899V8.17144H20.1143V1.88575L13.8286 1.88571L13.8286 0ZM5.79071e-05 0.942853C6.20793e-05 0.422132 0.422192 5.6828e-06 0.942915 5.6828e-06H8.17146V1.88572H1.88576L1.88571 8.17145L0 8.17144L5.79071e-05 0.942853ZM1.88572 13.8286V20.1143H8.17146V22H0.942864C0.422139 22 7.5531e-06 21.5779 7.5531e-06 21.0571V13.8286H1.88572ZM22 13.8286V21.0571C22 21.5779 21.5779 22 21.0571 22H13.8286V20.1143H20.1143V13.8286H22Z" />
</svg>
