<svg width="42" height="28" viewBox="0 0 42 28" fill="none" xmlns="http://www.w3.org/2000/svg">
<rect x="1.20898" y="1.84814" width="39.5823" height="24.2882" stroke="#343434" stroke-width="2"/>
<circle cx="7.32117" cy="7.49207" r="1.32117" fill="#CC0035"/>
<circle cx="11.9637" cy="7.49207" r="1.32117" fill="#CC0035"/>
<circle cx="16.6058" cy="7.49207" r="1.32117" fill="#CC0035"/>
<circle cx="21.2484" cy="7.49207" r="1.32117" fill="#CC0035"/>
<circle cx="25.8905" cy="7.49207" r="1.32117" fill="#CC0035"/>
<circle cx="30.5331" cy="7.49207" r="1.32117" fill="#CC0035"/>
<circle cx="35.1752" cy="7.49207" r="1.32117" fill="#CC0035"/>
<circle cx="7.32117" cy="11.4921" r="1.32117" fill="#CC0035"/>
<circle cx="11.9637" cy="11.4921" r="1.32117" fill="#CC0035"/>
<circle cx="16.6058" cy="11.4921" r="1.32117" fill="#CC0035"/>
<circle cx="21.2484" cy="11.4921" r="1.32117" fill="#CC0035"/>
<circle cx="25.8905" cy="11.4921" r="1.32117" fill="#CC0035"/>
<circle cx="30.5331" cy="11.4921" r="1.32117" fill="#CC0035"/>
<circle cx="35.1752" cy="11.4921" r="1.32117" fill="#CC0035"/>
<circle cx="7.32117" cy="15.9921" r="1.32117" fill="#CC0035"/>
<circle cx="11.9637" cy="15.9921" r="1.32117" fill="#CC0035"/>
<circle cx="16.6058" cy="15.9921" r="1.32117" fill="#CC0035"/>
<circle cx="21.2484" cy="15.9921" r="1.32117" fill="#CC0035"/>
<circle cx="25.8905" cy="15.9921" r="1.32117" fill="#CC0035"/>
<circle cx="30.5331" cy="15.9921" r="1.32117" fill="#CC0035"/>
<circle cx="35.1752" cy="15.9921" r="1.32117" fill="#CC0035"/>
<circle cx="7.32117" cy="20.4921" r="1.32117" fill="#CC0035"/>
<circle cx="11.9637" cy="20.4921" r="1.32117" fill="#CC0035"/>
<circle cx="16.6058" cy="20.4921" r="1.32117" fill="#CC0035"/>
<circle cx="21.2484" cy="20.4921" r="1.32117" fill="#CC0035"/>
<circle cx="25.8905" cy="20.4921" r="1.32117" fill="#CC0035"/>
<circle cx="30.5331" cy="20.4921" r="1.32117" fill="#CC0035"/>
<circle cx="35.1752" cy="20.4921" r="1.32117" fill="#CC0035"/>
</svg>
