<svg width="37" height="37" viewBox="0 0 37 37" fill="none" xmlns="http://www.w3.org/2000/svg">
<path d="M26.8223 3.29102V34.943" stroke="#CC0035" stroke-width="2"/>
<path d="M18.5 3.29102V34.943" stroke="#CC0035" stroke-width="2"/>
<path d="M9.9126 3.29102V34.943" stroke="#CC0035" stroke-width="2"/>
<mask id="path-4-outside-1_540_3889" maskUnits="userSpaceOnUse" x="0.70752" y="0.0415039" width="36" height="37" fill="black">
<rect fill="white" x="0.70752" y="0.0415039" width="36" height="37"/>
<path fill-rule="evenodd" clip-rule="evenodd" d="M8.36062 2.0415L9.16814 3.84255H27.7125L28.4467 2.0415H31.0625L34.2928 5.42841V33.1417L32.4982 34.9429H31.7201L30.4687 32.902H28.1955L26.7878 34.9429H9.58195L8.33059 32.902H6.05741L4.64963 34.9429H4.62178L2.70752 33.1417V5.54937L5.93784 2.0415H8.36062Z"/>
</mask>
<path d="M9.16814 3.84255L7.34318 4.66079L7.87304 5.84255H9.16814V3.84255ZM8.36062 2.0415L10.1856 1.22326L9.65572 0.0415039H8.36062V2.0415ZM27.7125 3.84255V5.84255H29.0571L29.5646 4.59745L27.7125 3.84255ZM28.4467 2.0415V0.0415039H27.1021L26.5946 1.2866L28.4467 2.0415ZM31.0625 2.0415L32.5098 0.661143L31.9188 0.0415039H31.0625V2.0415ZM34.2928 5.42841H36.2928V4.62757L35.7401 4.04805L34.2928 5.42841ZM34.2928 33.1417L35.7096 34.5533L36.2928 33.968V33.1417H34.2928ZM32.4982 34.9429V36.9429H33.3288L33.915 36.3545L32.4982 34.9429ZM31.7201 34.9429L30.0151 35.9883L30.6004 36.9429H31.7201V34.9429ZM30.4687 32.902L32.1738 31.8566L31.5885 30.902H30.4687V32.902ZM28.1955 32.902V30.902H27.1455L26.5492 31.7664L28.1955 32.902ZM26.7878 34.9429V36.9429H27.8378L28.4341 36.0785L26.7878 34.9429ZM9.58195 34.9429L7.87693 35.9883L8.46223 36.9429H9.58195V34.9429ZM8.33059 32.902L10.0356 31.8566L9.45032 30.902H8.33059V32.902ZM6.05741 32.902V30.902H5.00733L4.41109 31.7664L6.05741 32.902ZM4.64963 34.9429V36.9429H5.69971L6.29595 36.0785L4.64963 34.9429ZM4.62178 34.9429L3.25125 36.3995L3.82878 36.9429H4.62178V34.9429ZM2.70752 33.1417H0.70752V34.006L1.33699 34.5983L2.70752 33.1417ZM2.70752 5.54937L1.2363 4.19456L0.70752 4.76877V5.54937H2.70752ZM5.93784 2.0415V0.0415039H5.06076L4.46662 0.686692L5.93784 2.0415ZM10.9931 3.0243L10.1856 1.22326L6.53566 2.85975L7.34318 4.66079L10.9931 3.0243ZM27.7125 1.84255H9.16814V5.84255H27.7125V1.84255ZM26.5946 1.2866L25.8605 3.08764L29.5646 4.59745L30.2987 2.79641L26.5946 1.2866ZM28.4467 4.0415H31.0625V0.0415039H28.4467V4.0415ZM29.6152 3.42187L32.8456 6.80877L35.7401 4.04805L32.5098 0.661143L29.6152 3.42187ZM32.2928 5.42841V33.1417H36.2928V5.42841H32.2928ZM32.876 31.7301L31.0814 33.5312L33.915 36.3545L35.7096 34.5533L32.876 31.7301ZM32.4982 32.9429H31.7201V36.9429H32.4982V32.9429ZM33.4251 33.8974L32.1738 31.8566L28.7637 33.9474L30.0151 35.9883L33.4251 33.8974ZM30.4687 30.902H28.1955V34.902H30.4687V30.902ZM26.5492 31.7664L25.1414 33.8073L28.4341 36.0785L29.8419 34.0376L26.5492 31.7664ZM26.7878 32.9429H9.58195V36.9429H26.7878V32.9429ZM11.287 33.8974L10.0356 31.8566L6.62557 33.9474L7.87693 35.9883L11.287 33.8974ZM8.33059 30.902H6.05741V34.902H8.33059V30.902ZM4.41109 31.7664L3.00331 33.8073L6.29595 36.0785L7.70373 34.0376L4.41109 31.7664ZM4.64963 32.9429H4.62178V36.9429H4.64963V32.9429ZM5.99231 33.4863L4.07805 31.6851L1.33699 34.5983L3.25125 36.3995L5.99231 33.4863ZM4.70752 33.1417V5.54937H0.70752V33.1417H4.70752ZM4.17874 6.90418L7.40905 3.39632L4.46662 0.686692L1.2363 4.19456L4.17874 6.90418ZM5.93784 4.0415H8.36062V0.0415039H5.93784V4.0415Z" fill="#343434" mask="url(#path-4-outside-1_540_3889)"/>
</svg>
