<svg width="23" height="28" viewBox="0 0 23 28" fill="none" xmlns="http://www.w3.org/2000/svg">
<path d="M9.06141 0.0813408C8.32155 0.2864 7.77604 0.767036 7.48467 1.48009C7.37128 1.75539 7.37128 1.79882 7.34421 9.00244L7.31713 16.2495L5.53505 15.2721C4.5577 14.7323 3.60179 14.2353 3.41817 14.1707C2.61908 13.8737 1.80363 13.8844 1.15545 14.2031C0.0269177 14.7594 -0.356688 16.2337 0.372445 17.2271C0.637021 17.5837 8.81291 25.3003 9.37986 25.7271C11.1456 27.0503 13.3327 27.7306 15.5305 27.6333C19.2619 27.4657 22.3455 24.8468 22.9181 21.3582C22.999 20.8776 23.0097 20.2133 22.9936 15.3099L22.9776 9.80181L22.8535 9.53187C22.4484 8.64619 21.6818 8.15484 20.7041 8.15484C20.272 8.15484 19.7536 8.29531 19.489 8.48429C19.4081 8.53817 19.3215 8.58696 19.2947 8.58696C19.2729 8.58696 19.192 8.4465 19.1164 8.27387C18.6087 7.08582 16.9078 6.59447 15.8061 7.32332C15.6874 7.39891 15.59 7.45279 15.59 7.44207C15.1796 6.6049 14.9204 6.31353 14.321 6.0326C13.9809 5.87069 13.927 5.85969 13.3383 5.85969C12.7497 5.85969 12.6958 5.87041 12.3556 6.0326L11.9884 6.2055V4.25052C11.9884 3.17586 11.9613 2.12827 11.9342 1.92857C11.7399 0.605415 10.3682 -0.280266 9.06141 0.0813408ZM10.2602 1.05361C10.4977 1.17236 10.784 1.43694 10.8974 1.64764C10.9837 1.79347 10.989 2.33898 11.0161 7.68492L11.0432 13.5657L11.1944 13.6951C11.4319 13.9005 11.7452 13.8517 11.8911 13.5925C11.9449 13.5008 11.9667 12.7717 11.9884 10.5197L12.0155 7.57125L12.1774 7.33911C12.4312 6.97723 12.7875 6.78288 13.2413 6.76117C13.8514 6.72337 14.332 6.97723 14.5966 7.47394C14.7154 7.69 14.7154 7.73852 14.7424 10.6548L14.7695 13.6195L14.8993 13.7222C15.0883 13.8734 15.315 13.8517 15.504 13.6681L15.6606 13.5115V11.2003C15.6606 8.97001 15.6659 8.88369 15.774 8.65691C16.1034 7.97658 16.9834 7.701 17.6965 8.06289C18.0149 8.22479 18.1608 8.37598 18.3012 8.69471C18.4093 8.92685 18.4146 9.04024 18.4146 11.222V13.5118L18.5712 13.6683C18.7387 13.8359 18.8682 13.8627 19.0789 13.7656C19.3164 13.6576 19.3327 13.5389 19.3327 11.8163C19.3327 10.0235 19.3488 9.89912 19.6515 9.55359C20.2833 8.81374 21.5362 8.94885 21.952 9.79673L22.0925 10.0777L22.0707 15.64C22.0547 21.1912 22.0547 21.1966 21.9356 21.6504C21.3309 23.9185 19.6568 25.6628 17.4048 26.3756C16.5623 26.6401 16.1305 26.6997 15.1475 26.6997C13.1657 26.6997 11.4485 26.1327 9.92029 24.9878C9.49889 24.6632 1.37687 17.0057 1.11766 16.6763C0.793566 16.2659 0.874518 15.5909 1.29592 15.2076C1.69025 14.851 2.25719 14.7808 2.98069 14.9969C3.12651 15.04 4.24433 15.618 5.45946 16.2876C6.89601 17.0759 7.72217 17.4971 7.82484 17.4971C7.91115 17.4971 8.03554 17.4485 8.10578 17.3944L8.23524 17.2917L8.26232 9.60183L8.2894 1.91193L8.42451 1.64736C8.57033 1.36642 8.92658 1.07505 9.25603 0.97238C9.49325 0.896786 10.0441 0.939941 10.2602 1.05361Z" />
</svg>
