<svg width="28" height="27" viewBox="0 0 28 27" fill="none" xmlns="http://www.w3.org/2000/svg">
<path d="M27.9952 7.48785C27.8495 3.21342 24.2579 -0.143829 19.9949 0.0047474C17.8834 0.0790356 15.9377 0.987637 14.5176 2.56483L13.9405 3.14485L13.6347 2.81627C12.1718 1.09336 10.0175 0.0904645 7.74026 0.0904645C3.47154 0.0904645 0 3.57058 0 7.84501C0 9.96222 0.840028 11.9423 2.36579 13.4166C2.36579 13.4166 3.04296 14.1424 3.9887 15.1567L3.66584 15.4995C2.86581 16.3167 2.88295 17.6425 3.70584 18.4511C4.10871 18.8482 4.6373 19.0625 5.19731 19.0597C5.23446 19.0597 5.2716 19.0511 5.30875 19.0482C5.27732 19.6454 5.49161 20.2654 5.9602 20.7283C6.43164 21.194 7.05738 21.3969 7.65454 21.354C7.61739 21.9512 7.82026 22.5626 8.28027 23.0141C8.81458 23.5398 9.55174 23.7255 10.2289 23.577C10.2118 24.1684 10.4318 24.7741 10.8946 25.2313C11.3261 25.657 11.889 25.8885 12.4804 25.8827C12.9233 25.8799 13.3347 25.737 13.6805 25.4856L13.7176 25.5227C14.2662 26.0999 14.9834 26.397 15.6691 26.397C16.2062 26.397 16.7206 26.2142 17.1149 25.8399C17.6663 25.3142 17.8063 24.5341 17.6434 23.7712C17.7834 23.797 17.9206 23.8598 18.0606 23.8598C18.6178 23.8598 19.1578 23.6627 19.5806 23.2627C20.1521 22.7169 20.315 21.934 20.1635 21.1654C20.3121 21.1912 20.4578 21.2512 20.6064 21.2512C21.1607 21.2512 21.6893 21.0597 22.0979 20.6711C22.6693 20.1254 22.8179 19.3168 22.6465 18.5311C22.795 18.5596 22.9408 18.6225 23.0893 18.6225C23.6579 18.6225 24.2065 18.4225 24.6351 18.0168C25.058 17.6139 25.3008 17.051 25.318 16.4396C25.3351 15.7396 25.0551 15.031 24.5465 14.4938L24.5122 14.4595L25.4866 13.4823C27.1495 11.9566 28.0752 9.76793 27.9952 7.48785ZM5.24303 17.9225C4.94873 17.9253 4.67158 17.811 4.46015 17.6053C4.0287 17.1825 4.01728 16.4939 4.43157 16.0681L7.05738 13.3709C7.2631 13.1595 7.54025 13.0537 7.8174 13.0537C8.09455 13.0537 8.37456 13.1595 8.58885 13.3738C9.0203 13.7966 9.03173 14.4852 8.61743 14.9081L5.99163 17.6053C5.79448 17.8082 5.52875 17.9196 5.24303 17.9225ZM8.24313 20.0626C7.82597 20.4854 7.11738 20.4626 6.66022 20.0111C6.26592 19.6254 6.18878 19.0454 6.43736 18.6196C6.50879 18.5625 6.58307 18.5082 6.64879 18.4425L8.83172 16.1339L9.54031 15.411C9.72889 15.2167 9.9889 15.111 10.2718 15.1081C10.5861 15.1052 10.8889 15.231 11.1232 15.4624C11.5804 15.9138 11.6147 16.6224 11.2004 17.0453L8.24313 20.0626ZM10.5603 22.3026C10.1318 22.7369 9.42317 22.7369 8.9803 22.2998C8.586 21.9112 8.53457 21.3055 8.83172 20.8683C8.87172 20.834 8.91744 20.8054 8.95744 20.7654L11.9147 17.7539C11.9718 17.6968 12.0147 17.6282 12.0633 17.5653C12.2547 17.4082 12.4918 17.3167 12.7461 17.3139C13.049 17.311 13.3347 17.4282 13.5519 17.6425C13.769 17.8568 13.8919 18.1425 13.8947 18.4454C13.8976 18.7396 13.7862 19.0168 13.5804 19.2254L10.5603 22.3026ZM13.3776 24.3998C13.1804 24.5998 12.9147 24.7084 12.6233 24.7113C12.3004 24.7141 11.9861 24.5856 11.7461 24.3484C11.2747 23.8827 11.2404 23.1512 11.669 22.7169L14.1205 20.1854C14.3148 19.9854 14.5833 19.8768 14.8719 19.874C15.1976 19.8711 15.5091 19.9997 15.7491 20.2368C15.992 20.474 16.1234 20.7826 16.1262 21.1083C16.1291 21.3997 16.0234 21.6683 15.8262 21.8683L13.3776 24.3998ZM16.4263 25.1141C16.2234 25.3084 15.9548 25.3999 15.6691 25.3999C15.2548 25.3999 14.8005 25.2027 14.4462 24.8313C14.4462 24.8313 14.4319 24.8141 14.4062 24.7884L16.1434 22.9884C16.152 22.9998 16.1577 23.0169 16.1691 23.0284L16.252 23.1169C16.8434 23.7455 16.9234 24.6398 16.4263 25.1141ZM23.9436 17.2939C23.4151 17.7968 22.4893 17.7025 21.8807 17.0853C21.8779 17.0825 21.8722 17.0796 21.8693 17.0796L18.5463 13.7081C18.352 13.5109 18.0349 13.508 17.8377 13.7023C17.6406 13.8966 17.6406 14.2138 17.8349 14.4109L21.2464 17.871C21.8579 18.5168 21.9293 19.4454 21.4064 19.9454C20.9264 20.3997 20.1035 20.3368 19.4864 19.7997C19.4664 19.7825 19.4435 19.7768 19.4235 19.7625L16.1062 16.3996C15.912 16.2024 15.5948 16.1996 15.4005 16.3967C15.2034 16.591 15.2005 16.9082 15.3948 17.1053L18.812 20.574C18.8235 20.5854 18.8378 20.5883 18.8492 20.5997C19.3549 21.2197 19.3806 22.0683 18.8892 22.5369C18.3777 23.0255 17.4749 22.9341 16.8834 22.3341C16.8548 22.3055 16.8206 22.2912 16.7891 22.2683C17.0148 21.9283 17.1349 21.5255 17.1291 21.1026C17.1234 20.5111 16.8834 19.9511 16.452 19.5254C16.0262 19.1054 15.4691 18.8739 14.8833 18.8739C14.8776 18.8739 14.8719 18.8739 14.8662 18.8739C14.8605 18.8739 14.8576 18.8768 14.8519 18.8768C14.8805 18.7339 14.8976 18.5882 14.8948 18.4396C14.8891 17.8682 14.6605 17.331 14.2548 16.931C13.8462 16.5281 13.309 16.3081 12.7376 16.3139C12.6518 16.3139 12.569 16.331 12.4833 16.3396C12.4861 15.771 12.269 15.1938 11.8261 14.7538C11.4061 14.3395 10.8575 14.1138 10.2832 14.1138C10.2775 14.1138 10.2718 14.1138 10.2661 14.1138C10.1489 14.1138 10.0346 14.1309 9.92318 14.1509C9.92033 13.6109 9.70889 13.0738 9.29459 12.6623C8.47171 11.8509 7.14881 11.8537 6.34878 12.6709L4.68015 14.4338L3.0801 12.7195C1.73149 11.4108 1.00003 9.68792 1.00003 7.84501C1.00003 4.12203 4.02299 1.09335 7.74026 1.09335C9.72032 1.09335 11.5975 1.96481 12.8833 3.48772L13.1919 3.81916L8.68886 8.19359C8.49742 8.38217 8.47457 8.67075 8.65743 8.87075L9.05173 9.3022C10.166 10.4051 11.6404 11.008 13.209 10.9994C14.7748 10.9908 16.2463 10.3708 17.3491 9.25362L17.8463 8.79647L23.8179 15.1852C24.1465 15.531 24.3265 15.9767 24.3151 16.4139C24.3037 16.7624 24.1751 17.0739 23.9436 17.2939ZM17.8377 7.44499C17.3663 7.92215 16.612 8.67646 16.612 8.67646C15.6977 9.60221 14.4805 10.0508 13.1804 10.0594C13.169 10.0594 13.1604 10.0594 13.1519 10.0594C11.8632 10.0594 10.6518 9.55935 9.73461 8.6536C9.73461 8.6536 9.71746 8.6336 9.71461 8.63075C10.2861 8.06216 13.2462 5.22778 13.8519 4.6249C13.9947 4.5049 14.0405 4.43061 14.149 4.34489L14.4033 4.10774L14.6091 3.91059C15.0005 3.51915 15.2234 3.31914 15.2234 3.31914C16.4777 1.92767 18.172 1.13336 20.0092 1.0705C20.0892 1.06764 20.1664 1.06764 20.2464 1.06764C23.8551 1.06764 26.8523 3.94488 26.978 7.58785C27.0466 9.57364 26.2409 11.4794 24.7694 12.8195C24.7694 12.8195 24.3951 13.1966 23.7979 13.7966L23.2293 13.1938" />
</svg>
