<svg width="41" height="39" viewBox="0 0 41 39" fill="none" xmlns="http://www.w3.org/2000/svg">
<path fill-rule="evenodd" clip-rule="evenodd" d="M6.2447 16.3276L20.4944 2.07776L35.0447 16.6281V36.664H6.2447V16.3276ZM4.2447 18.3276L2.42147 20.1509C2.03094 20.5414 1.39778 20.5414 1.00725 20.1509C0.616726 19.7604 0.616723 19.1272 1.00724 18.7367L19.0801 0.663553C19.8612 -0.117502 21.1275 -0.117507 21.9086 0.663545L39.9815 18.7364C40.372 19.127 40.372 19.7601 39.9815 20.1507C39.591 20.5412 38.9578 20.5412 38.5673 20.1507L37.0447 18.6281V37.164C37.0447 37.9925 36.3731 38.664 35.5447 38.664H5.7447C4.91628 38.664 4.2447 37.9925 4.2447 37.164V18.3276Z" fill="#343434"/>
<path d="M20.3763 31.2597C21.0062 31.2597 21.5168 31.7703 21.5168 32.4002C21.5168 33.03 21.0062 33.5406 20.3763 33.5406C19.7464 33.5406 19.2358 33.03 19.2358 32.4002C19.2358 31.7703 19.7464 31.2597 20.3763 31.2597Z" fill="#CC0035"/>
<path d="M29.7182 23.5779C28.686 22.1036 27.3194 20.8946 25.7302 20.0497C24.1412 19.2047 22.3747 18.7479 20.5753 18.7165C18.7757 18.6851 16.9943 19.08 15.3767 19.8689C13.7591 20.6579 12.3512 21.8185 11.2681 23.2559M26.9156 26.6808C26.193 25.6488 25.2364 24.8025 24.124 24.211C23.0117 23.6196 21.7751 23.2997 20.5155 23.2778C19.2559 23.2558 18.0089 23.5322 16.8766 24.0845C15.7442 24.6368 14.7587 25.4492 14.0005 26.4554M23.1788 29.2974C22.8691 28.8551 22.4592 28.4923 21.9824 28.2389C21.5056 27.9854 20.9757 27.8483 20.4359 27.839C19.896 27.8295 19.3616 27.948 18.8763 28.1846C18.3911 28.4214 17.9687 28.7696 17.6437 29.2008" stroke="#CC0035" stroke-width="2" stroke-linecap="round" stroke-linejoin="round"/>
</svg>
