<svg width="27" height="26" viewBox="0 0 27 26" fill="none" xmlns="http://www.w3.org/2000/svg">
<path d="M1 25.3374H26" stroke-width="1.3" stroke-miterlimit="10" stroke-linecap="round" stroke-linejoin="round"/>
<path d="M2.1875 25.3375L2.25 10.2999C2.25 9.53745 2.6125 8.81251 3.2125 8.33751L11.9626 1.525C12.8626 0.825 14.1249 0.825 15.0374 1.525L23.7876 8.325C24.4001 8.8 24.7501 9.52495 24.7501 10.2999V25.3375" stroke-width="1.3" stroke-miterlimit="10" stroke-linejoin="round"/>
<path d="M14.75 19.0875H12.25C11.2125 19.0875 10.375 19.925 10.375 20.9625V25.3375H16.625V20.9625C16.625 19.925 15.7875 19.0875 14.75 19.0875Z" stroke-width="1.3" stroke-miterlimit="10" stroke-linejoin="round"/>
<path d="M10.375 15.025H7.875C7.1875 15.025 6.625 14.4625 6.625 13.775V11.9C6.625 11.2125 7.1875 10.65 7.875 10.65H10.375C11.0625 10.65 11.625 11.2125 11.625 11.9V13.775C11.625 14.4625 11.0625 15.025 10.375 15.025Z" stroke-width="1.3" stroke-miterlimit="10" stroke-linejoin="round"/>
<path d="M19.125 15.025H16.625C15.9375 15.025 15.375 14.4625 15.375 13.775V11.9C15.375 11.2125 15.9375 10.65 16.625 10.65H19.125C19.8125 10.65 20.375 11.2125 20.375 11.9V13.775C20.375 14.4625 19.8125 15.025 19.125 15.025Z"  stroke-width="1.3" stroke-miterlimit="10" stroke-linejoin="round"/>
<path d="M22.2504 6.58752L22.2129 2.83752H16.7129" stroke-width="1.3" stroke-miterlimit="10" stroke-linecap="round" stroke-linejoin="round"/>
</svg>
