<svg width="42" height="42" viewBox="0 0 42 42" fill="none" xmlns="http://www.w3.org/2000/svg">
<g clip-path="url(#clip0_376_1070)">
<path d="M10.5783 20.2394L10.3035 20.4227H10.6338H13.4487V28.4517V28.5517H13.5487H28.452H28.552V28.4517V20.4227H31.3669H31.6972L31.4224 20.2394L21.0558 13.3284L21.0003 13.2914L20.9449 13.3284L10.5783 20.2394ZM19.0681 26.9968V25.0646C19.0681 23.9994 19.9351 23.1323 21.0003 23.1323C22.0656 23.1323 22.9326 23.9994 22.9326 25.0646V26.9968H19.0681ZM26.9971 26.9968H24.4874V25.0646C24.4874 23.1417 22.9232 21.5775 21.0003 21.5775C19.0775 21.5775 17.5132 23.1417 17.5132 25.0646V26.9968H15.0036V20.4227H26.9971V26.9968ZM21.0003 15.1603L26.5616 18.8678H15.4391L21.0003 15.1603Z" fill="#CC0035" stroke="#CC0035" stroke-width="0.2"/>
<mask id="path-2-outside-1_376_1070" maskUnits="userSpaceOnUse" x="-1" y="-1" width="44" height="44" fill="black">
<rect fill="white" x="-1" y="-1" width="44" height="44"/>
<path d="M38.138 16.9456C37.7045 15.1051 36.9817 13.3628 35.9838 11.7505C36.664 11.0013 37.0399 10.0434 37.0399 9.02458C37.0399 7.93868 36.6172 6.91848 35.849 6.15029C35.0815 5.38277 34.0606 4.96006 32.9754 4.96006C31.9566 4.96006 30.998 5.33603 30.2495 6.01616C28.6365 5.01764 26.8935 4.29484 25.0544 3.86197C24.948 1.71523 23.1732 0 21 0C18.8268 0 17.052 1.71523 16.9456 3.86197C15.1065 4.29484 13.3635 5.01764 11.7505 6.01616C11.002 5.33603 10.0434 4.96006 9.02458 4.96006C7.93868 4.96006 6.91848 5.38277 6.15097 6.15029C5.38277 6.91781 4.96006 7.93868 4.96006 9.02458C4.96006 10.0427 5.33603 11.0013 6.01616 11.7505C5.01832 13.3628 4.29552 15.1051 3.86197 16.9456C1.71523 17.052 0 18.8268 0 21C0 23.1732 1.71523 24.948 3.86197 25.0544C4.29552 26.8949 5.01832 28.6372 6.01616 30.2495C5.33603 30.9987 4.96006 31.9566 4.96006 32.9754C4.96006 34.0613 5.38277 35.0815 6.15097 35.8497C6.91848 36.6172 7.93935 37.0399 9.02458 37.0399C10.0434 37.0399 11.002 36.664 11.7505 35.9838C13.3635 36.9824 15.1065 37.7052 16.9456 38.138C17.052 40.2848 18.8268 42 21 42C23.1732 42 24.948 40.2848 25.0544 38.138C26.8935 37.7052 28.6365 36.9824 30.2495 35.9838C30.998 36.664 31.9566 37.0399 32.9754 37.0399C34.0613 37.0399 35.0815 36.6172 35.849 35.8497C36.6172 35.0822 37.0399 34.0613 37.0399 32.9754C37.0399 31.9573 36.664 30.9987 35.9838 30.2495C36.9817 28.6372 37.7045 26.8949 38.138 25.0544C40.2848 24.948 42 23.1732 42 21C42 18.8268 40.2848 17.052 38.138 16.9456ZM31.0597 7.10816C31.5711 6.59671 32.2513 6.3149 32.9754 6.3149C33.6989 6.3149 34.379 6.59671 34.8912 7.10816C35.4033 7.62029 35.6851 8.30042 35.6851 9.02458C35.6851 9.74874 35.4033 10.4289 34.8912 10.941C33.8669 11.9646 32.0833 11.9646 31.0597 10.941C30.5475 10.4289 30.2657 9.74874 30.2657 9.02458C30.2657 8.30042 30.5475 7.62029 31.0597 7.10816ZM21 1.35484C22.4944 1.35484 23.7097 2.57013 23.7097 4.06452C23.7097 5.5589 22.4944 6.77419 21 6.77419C19.5056 6.77419 18.2903 5.5589 18.2903 4.06452C18.2903 2.57013 19.5056 1.35484 21 1.35484ZM7.10884 7.10884C7.62097 6.59739 8.3011 6.31558 9.02458 6.31558C9.74806 6.31558 10.4282 6.59739 10.9403 7.10884C11.4525 7.62097 11.7343 8.3011 11.7343 9.02526C11.7343 9.74942 11.4525 10.4295 10.9403 10.9417C9.91606 11.9653 8.13242 11.9653 7.10884 10.9417C6.59671 10.4295 6.3149 9.74942 6.3149 9.02526C6.3149 8.3011 6.59671 7.62097 7.10884 7.10884ZM1.35484 21C1.35484 19.5056 2.57013 18.2903 4.06452 18.2903C5.5589 18.2903 6.77419 19.5056 6.77419 21C6.77419 22.4944 5.5589 23.7097 4.06452 23.7097C2.57013 23.7097 1.35484 22.4944 1.35484 21ZM10.9403 34.8912C9.91674 35.9147 8.1331 35.9147 7.10884 34.8912C6.59671 34.379 6.3149 33.6989 6.3149 32.9747C6.3149 32.2506 6.59671 31.5705 7.10884 31.0583C7.62097 30.5469 8.3011 30.2651 9.02458 30.2651C9.74806 30.2651 10.4282 30.5469 10.9403 31.0583C11.4525 31.5705 11.7343 32.2506 11.7343 32.9747C11.7343 33.6989 11.4525 34.379 10.9403 34.8912ZM21 40.6452C19.5056 40.6452 18.2903 39.4299 18.2903 37.9355C18.2903 36.4411 19.5056 35.2258 21 35.2258C22.4944 35.2258 23.7097 36.4411 23.7097 37.9355C23.7097 39.4299 22.4944 40.6452 21 40.6452ZM34.8912 34.8912C33.8669 35.9147 32.0833 35.9147 31.0597 34.8912C30.5475 34.379 30.2657 33.6989 30.2657 32.9747C30.2657 32.2506 30.5475 31.5705 31.0597 31.0583C31.5718 30.5469 32.2519 30.2651 32.9754 30.2651C33.6989 30.2651 34.379 30.5469 34.8912 31.0583C35.4033 31.5705 35.6851 32.2506 35.6851 32.9747C35.6851 33.6989 35.4033 34.379 34.8912 34.8912ZM34.9013 29.3946C34.316 29.0789 33.6589 28.9109 32.9754 28.9109C31.8895 28.9109 30.8693 29.3336 30.1018 30.1011C29.3336 30.8686 28.9109 31.8895 28.9109 32.9754C28.9109 33.6589 29.0789 34.3167 29.3953 34.902C27.9896 35.7535 26.4817 36.3788 24.8925 36.769C24.3891 35.0944 22.8358 33.871 21 33.871C19.1642 33.871 17.6109 35.0944 17.1082 36.7683C15.519 36.3781 14.0104 35.7522 12.6054 34.9013C12.9211 34.316 13.0898 33.6583 13.0898 32.9747C13.0898 31.8888 12.6671 30.8686 11.8989 30.1005C11.1314 29.3329 10.1105 28.9102 9.02526 28.9102C8.34174 28.9102 7.68465 29.0782 7.09935 29.3939C6.24784 27.9896 5.62258 26.481 5.23171 24.8911C6.90561 24.3891 8.12903 22.8358 8.12903 21C8.12903 19.1642 6.90561 17.6109 5.23103 17.1082C5.6219 15.5183 6.24716 14.0097 7.09868 12.6054C7.68397 12.9211 8.34106 13.0891 9.02458 13.0891C10.1105 13.0891 11.1307 12.6664 11.8982 11.8989C12.6664 11.1314 13.0891 10.1105 13.0891 9.02458C13.0891 8.34106 12.9211 7.68329 12.6047 7.098C14.0104 6.24648 15.5183 5.62123 17.1075 5.23103C17.6109 6.90561 19.1642 8.12903 21 8.12903C22.8358 8.12903 24.3891 6.90561 24.8918 5.23171C26.481 5.6219 27.9896 6.24784 29.3946 7.09868C29.0789 7.68397 28.9102 8.34174 28.9102 9.02526C28.9102 10.1112 29.3329 11.1314 30.1011 11.8995C30.8686 12.6671 31.8895 13.0898 32.9747 13.0898C33.6583 13.0898 34.3154 12.9218 34.9006 12.6061C35.7522 14.0104 36.3774 15.519 36.7683 17.1089C35.0944 17.6109 33.871 19.1642 33.871 21C33.871 22.8358 35.0944 24.3891 36.769 24.8918C36.3781 26.4817 35.7528 27.9903 34.9013 29.3946ZM37.9355 23.7097C36.4411 23.7097 35.2258 22.4944 35.2258 21C35.2258 19.5056 36.4411 18.2903 37.9355 18.2903C39.4299 18.2903 40.6452 19.5056 40.6452 21C40.6452 22.4944 39.4299 23.7097 37.9355 23.7097Z"/>
</mask>
<path d="M38.138 16.9456C37.7045 15.1051 36.9817 13.3628 35.9838 11.7505C36.664 11.0013 37.0399 10.0434 37.0399 9.02458C37.0399 7.93868 36.6172 6.91848 35.849 6.15029C35.0815 5.38277 34.0606 4.96006 32.9754 4.96006C31.9566 4.96006 30.998 5.33603 30.2495 6.01616C28.6365 5.01764 26.8935 4.29484 25.0544 3.86197C24.948 1.71523 23.1732 0 21 0C18.8268 0 17.052 1.71523 16.9456 3.86197C15.1065 4.29484 13.3635 5.01764 11.7505 6.01616C11.002 5.33603 10.0434 4.96006 9.02458 4.96006C7.93868 4.96006 6.91848 5.38277 6.15097 6.15029C5.38277 6.91781 4.96006 7.93868 4.96006 9.02458C4.96006 10.0427 5.33603 11.0013 6.01616 11.7505C5.01832 13.3628 4.29552 15.1051 3.86197 16.9456C1.71523 17.052 0 18.8268 0 21C0 23.1732 1.71523 24.948 3.86197 25.0544C4.29552 26.8949 5.01832 28.6372 6.01616 30.2495C5.33603 30.9987 4.96006 31.9566 4.96006 32.9754C4.96006 34.0613 5.38277 35.0815 6.15097 35.8497C6.91848 36.6172 7.93935 37.0399 9.02458 37.0399C10.0434 37.0399 11.002 36.664 11.7505 35.9838C13.3635 36.9824 15.1065 37.7052 16.9456 38.138C17.052 40.2848 18.8268 42 21 42C23.1732 42 24.948 40.2848 25.0544 38.138C26.8935 37.7052 28.6365 36.9824 30.2495 35.9838C30.998 36.664 31.9566 37.0399 32.9754 37.0399C34.0613 37.0399 35.0815 36.6172 35.849 35.8497C36.6172 35.0822 37.0399 34.0613 37.0399 32.9754C37.0399 31.9573 36.664 30.9987 35.9838 30.2495C36.9817 28.6372 37.7045 26.8949 38.138 25.0544C40.2848 24.948 42 23.1732 42 21C42 18.8268 40.2848 17.052 38.138 16.9456ZM31.0597 7.10816C31.5711 6.59671 32.2513 6.3149 32.9754 6.3149C33.6989 6.3149 34.379 6.59671 34.8912 7.10816C35.4033 7.62029 35.6851 8.30042 35.6851 9.02458C35.6851 9.74874 35.4033 10.4289 34.8912 10.941C33.8669 11.9646 32.0833 11.9646 31.0597 10.941C30.5475 10.4289 30.2657 9.74874 30.2657 9.02458C30.2657 8.30042 30.5475 7.62029 31.0597 7.10816ZM21 1.35484C22.4944 1.35484 23.7097 2.57013 23.7097 4.06452C23.7097 5.5589 22.4944 6.77419 21 6.77419C19.5056 6.77419 18.2903 5.5589 18.2903 4.06452C18.2903 2.57013 19.5056 1.35484 21 1.35484ZM7.10884 7.10884C7.62097 6.59739 8.3011 6.31558 9.02458 6.31558C9.74806 6.31558 10.4282 6.59739 10.9403 7.10884C11.4525 7.62097 11.7343 8.3011 11.7343 9.02526C11.7343 9.74942 11.4525 10.4295 10.9403 10.9417C9.91606 11.9653 8.13242 11.9653 7.10884 10.9417C6.59671 10.4295 6.3149 9.74942 6.3149 9.02526C6.3149 8.3011 6.59671 7.62097 7.10884 7.10884ZM1.35484 21C1.35484 19.5056 2.57013 18.2903 4.06452 18.2903C5.5589 18.2903 6.77419 19.5056 6.77419 21C6.77419 22.4944 5.5589 23.7097 4.06452 23.7097C2.57013 23.7097 1.35484 22.4944 1.35484 21ZM10.9403 34.8912C9.91674 35.9147 8.1331 35.9147 7.10884 34.8912C6.59671 34.379 6.3149 33.6989 6.3149 32.9747C6.3149 32.2506 6.59671 31.5705 7.10884 31.0583C7.62097 30.5469 8.3011 30.2651 9.02458 30.2651C9.74806 30.2651 10.4282 30.5469 10.9403 31.0583C11.4525 31.5705 11.7343 32.2506 11.7343 32.9747C11.7343 33.6989 11.4525 34.379 10.9403 34.8912ZM21 40.6452C19.5056 40.6452 18.2903 39.4299 18.2903 37.9355C18.2903 36.4411 19.5056 35.2258 21 35.2258C22.4944 35.2258 23.7097 36.4411 23.7097 37.9355C23.7097 39.4299 22.4944 40.6452 21 40.6452ZM34.8912 34.8912C33.8669 35.9147 32.0833 35.9147 31.0597 34.8912C30.5475 34.379 30.2657 33.6989 30.2657 32.9747C30.2657 32.2506 30.5475 31.5705 31.0597 31.0583C31.5718 30.5469 32.2519 30.2651 32.9754 30.2651C33.6989 30.2651 34.379 30.5469 34.8912 31.0583C35.4033 31.5705 35.6851 32.2506 35.6851 32.9747C35.6851 33.6989 35.4033 34.379 34.8912 34.8912ZM34.9013 29.3946C34.316 29.0789 33.6589 28.9109 32.9754 28.9109C31.8895 28.9109 30.8693 29.3336 30.1018 30.1011C29.3336 30.8686 28.9109 31.8895 28.9109 32.9754C28.9109 33.6589 29.0789 34.3167 29.3953 34.902C27.9896 35.7535 26.4817 36.3788 24.8925 36.769C24.3891 35.0944 22.8358 33.871 21 33.871C19.1642 33.871 17.6109 35.0944 17.1082 36.7683C15.519 36.3781 14.0104 35.7522 12.6054 34.9013C12.9211 34.316 13.0898 33.6583 13.0898 32.9747C13.0898 31.8888 12.6671 30.8686 11.8989 30.1005C11.1314 29.3329 10.1105 28.9102 9.02526 28.9102C8.34174 28.9102 7.68465 29.0782 7.09935 29.3939C6.24784 27.9896 5.62258 26.481 5.23171 24.8911C6.90561 24.3891 8.12903 22.8358 8.12903 21C8.12903 19.1642 6.90561 17.6109 5.23103 17.1082C5.6219 15.5183 6.24716 14.0097 7.09868 12.6054C7.68397 12.9211 8.34106 13.0891 9.02458 13.0891C10.1105 13.0891 11.1307 12.6664 11.8982 11.8989C12.6664 11.1314 13.0891 10.1105 13.0891 9.02458C13.0891 8.34106 12.9211 7.68329 12.6047 7.098C14.0104 6.24648 15.5183 5.62123 17.1075 5.23103C17.6109 6.90561 19.1642 8.12903 21 8.12903C22.8358 8.12903 24.3891 6.90561 24.8918 5.23171C26.481 5.6219 27.9896 6.24784 29.3946 7.09868C29.0789 7.68397 28.9102 8.34174 28.9102 9.02526C28.9102 10.1112 29.3329 11.1314 30.1011 11.8995C30.8686 12.6671 31.8895 13.0898 32.9747 13.0898C33.6583 13.0898 34.3154 12.9218 34.9006 12.6061C35.7522 14.0104 36.3774 15.519 36.7683 17.1089C35.0944 17.6109 33.871 19.1642 33.871 21C33.871 22.8358 35.0944 24.3891 36.769 24.8918C36.3781 26.4817 35.7528 27.9903 34.9013 29.3946ZM37.9355 23.7097C36.4411 23.7097 35.2258 22.4944 35.2258 21C35.2258 19.5056 36.4411 18.2903 37.9355 18.2903C39.4299 18.2903 40.6452 19.5056 40.6452 21C40.6452 22.4944 39.4299 23.7097 37.9355 23.7097Z" fill="#CC0035"/>
<path d="M38.138 16.9456C37.7045 15.1051 36.9817 13.3628 35.9838 11.7505C36.664 11.0013 37.0399 10.0434 37.0399 9.02458C37.0399 7.93868 36.6172 6.91848 35.849 6.15029C35.0815 5.38277 34.0606 4.96006 32.9754 4.96006C31.9566 4.96006 30.998 5.33603 30.2495 6.01616C28.6365 5.01764 26.8935 4.29484 25.0544 3.86197C24.948 1.71523 23.1732 0 21 0C18.8268 0 17.052 1.71523 16.9456 3.86197C15.1065 4.29484 13.3635 5.01764 11.7505 6.01616C11.002 5.33603 10.0434 4.96006 9.02458 4.96006C7.93868 4.96006 6.91848 5.38277 6.15097 6.15029C5.38277 6.91781 4.96006 7.93868 4.96006 9.02458C4.96006 10.0427 5.33603 11.0013 6.01616 11.7505C5.01832 13.3628 4.29552 15.1051 3.86197 16.9456C1.71523 17.052 0 18.8268 0 21C0 23.1732 1.71523 24.948 3.86197 25.0544C4.29552 26.8949 5.01832 28.6372 6.01616 30.2495C5.33603 30.9987 4.96006 31.9566 4.96006 32.9754C4.96006 34.0613 5.38277 35.0815 6.15097 35.8497C6.91848 36.6172 7.93935 37.0399 9.02458 37.0399C10.0434 37.0399 11.002 36.664 11.7505 35.9838C13.3635 36.9824 15.1065 37.7052 16.9456 38.138C17.052 40.2848 18.8268 42 21 42C23.1732 42 24.948 40.2848 25.0544 38.138C26.8935 37.7052 28.6365 36.9824 30.2495 35.9838C30.998 36.664 31.9566 37.0399 32.9754 37.0399C34.0613 37.0399 35.0815 36.6172 35.849 35.8497C36.6172 35.0822 37.0399 34.0613 37.0399 32.9754C37.0399 31.9573 36.664 30.9987 35.9838 30.2495C36.9817 28.6372 37.7045 26.8949 38.138 25.0544C40.2848 24.948 42 23.1732 42 21C42 18.8268 40.2848 17.052 38.138 16.9456ZM31.0597 7.10816C31.5711 6.59671 32.2513 6.3149 32.9754 6.3149C33.6989 6.3149 34.379 6.59671 34.8912 7.10816C35.4033 7.62029 35.6851 8.30042 35.6851 9.02458C35.6851 9.74874 35.4033 10.4289 34.8912 10.941C33.8669 11.9646 32.0833 11.9646 31.0597 10.941C30.5475 10.4289 30.2657 9.74874 30.2657 9.02458C30.2657 8.30042 30.5475 7.62029 31.0597 7.10816ZM21 1.35484C22.4944 1.35484 23.7097 2.57013 23.7097 4.06452C23.7097 5.5589 22.4944 6.77419 21 6.77419C19.5056 6.77419 18.2903 5.5589 18.2903 4.06452C18.2903 2.57013 19.5056 1.35484 21 1.35484ZM7.10884 7.10884C7.62097 6.59739 8.3011 6.31558 9.02458 6.31558C9.74806 6.31558 10.4282 6.59739 10.9403 7.10884C11.4525 7.62097 11.7343 8.3011 11.7343 9.02526C11.7343 9.74942 11.4525 10.4295 10.9403 10.9417C9.91606 11.9653 8.13242 11.9653 7.10884 10.9417C6.59671 10.4295 6.3149 9.74942 6.3149 9.02526C6.3149 8.3011 6.59671 7.62097 7.10884 7.10884ZM1.35484 21C1.35484 19.5056 2.57013 18.2903 4.06452 18.2903C5.5589 18.2903 6.77419 19.5056 6.77419 21C6.77419 22.4944 5.5589 23.7097 4.06452 23.7097C2.57013 23.7097 1.35484 22.4944 1.35484 21ZM10.9403 34.8912C9.91674 35.9147 8.1331 35.9147 7.10884 34.8912C6.59671 34.379 6.3149 33.6989 6.3149 32.9747C6.3149 32.2506 6.59671 31.5705 7.10884 31.0583C7.62097 30.5469 8.3011 30.2651 9.02458 30.2651C9.74806 30.2651 10.4282 30.5469 10.9403 31.0583C11.4525 31.5705 11.7343 32.2506 11.7343 32.9747C11.7343 33.6989 11.4525 34.379 10.9403 34.8912ZM21 40.6452C19.5056 40.6452 18.2903 39.4299 18.2903 37.9355C18.2903 36.4411 19.5056 35.2258 21 35.2258C22.4944 35.2258 23.7097 36.4411 23.7097 37.9355C23.7097 39.4299 22.4944 40.6452 21 40.6452ZM34.8912 34.8912C33.8669 35.9147 32.0833 35.9147 31.0597 34.8912C30.5475 34.379 30.2657 33.6989 30.2657 32.9747C30.2657 32.2506 30.5475 31.5705 31.0597 31.0583C31.5718 30.5469 32.2519 30.2651 32.9754 30.2651C33.6989 30.2651 34.379 30.5469 34.8912 31.0583C35.4033 31.5705 35.6851 32.2506 35.6851 32.9747C35.6851 33.6989 35.4033 34.379 34.8912 34.8912ZM34.9013 29.3946C34.316 29.0789 33.6589 28.9109 32.9754 28.9109C31.8895 28.9109 30.8693 29.3336 30.1018 30.1011C29.3336 30.8686 28.9109 31.8895 28.9109 32.9754C28.9109 33.6589 29.0789 34.3167 29.3953 34.902C27.9896 35.7535 26.4817 36.3788 24.8925 36.769C24.3891 35.0944 22.8358 33.871 21 33.871C19.1642 33.871 17.6109 35.0944 17.1082 36.7683C15.519 36.3781 14.0104 35.7522 12.6054 34.9013C12.9211 34.316 13.0898 33.6583 13.0898 32.9747C13.0898 31.8888 12.6671 30.8686 11.8989 30.1005C11.1314 29.3329 10.1105 28.9102 9.02526 28.9102C8.34174 28.9102 7.68465 29.0782 7.09935 29.3939C6.24784 27.9896 5.62258 26.481 5.23171 24.8911C6.90561 24.3891 8.12903 22.8358 8.12903 21C8.12903 19.1642 6.90561 17.6109 5.23103 17.1082C5.6219 15.5183 6.24716 14.0097 7.09868 12.6054C7.68397 12.9211 8.34106 13.0891 9.02458 13.0891C10.1105 13.0891 11.1307 12.6664 11.8982 11.8989C12.6664 11.1314 13.0891 10.1105 13.0891 9.02458C13.0891 8.34106 12.9211 7.68329 12.6047 7.098C14.0104 6.24648 15.5183 5.62123 17.1075 5.23103C17.6109 6.90561 19.1642 8.12903 21 8.12903C22.8358 8.12903 24.3891 6.90561 24.8918 5.23171C26.481 5.6219 27.9896 6.24784 29.3946 7.09868C29.0789 7.68397 28.9102 8.34174 28.9102 9.02526C28.9102 10.1112 29.3329 11.1314 30.1011 11.8995C30.8686 12.6671 31.8895 13.0898 32.9747 13.0898C33.6583 13.0898 34.3154 12.9218 34.9006 12.6061C35.7522 14.0104 36.3774 15.519 36.7683 17.1089C35.0944 17.6109 33.871 19.1642 33.871 21C33.871 22.8358 35.0944 24.3891 36.769 24.8918C36.3781 26.4817 35.7528 27.9903 34.9013 29.3946ZM37.9355 23.7097C36.4411 23.7097 35.2258 22.4944 35.2258 21C35.2258 19.5056 36.4411 18.2903 37.9355 18.2903C39.4299 18.2903 40.6452 19.5056 40.6452 21C40.6452 22.4944 39.4299 23.7097 37.9355 23.7097Z" stroke="#CC0035" stroke-width="0.4" mask="url(#path-2-outside-1_376_1070)"/>
</g>
<defs>
<clipPath id="clip0_376_1070">
<rect width="42" height="42" fill="white"/>
</clipPath>
</defs>
</svg>
