<svg width="20" height="20" viewBox="0 0 20 20" fill="none" xmlns="http://www.w3.org/2000/svg">
<path fill-rule="evenodd" clip-rule="evenodd" d="M0 10C0 5.28595 0 2.92893 1.46447 1.46447C2.92893 0 5.28595 0 10 0C14.714 0 17.0711 0 18.5355 1.46447C20 2.92893 20 5.28595 20 10C20 14.714 20 17.0711 18.5355 18.5355C17.0711 20 14.714 20 10 20C5.28595 20 2.92893 20 1.46447 18.5355C0 17.0711 0 14.714 0 10ZM14.9206 4C14.3365 4 13.7524 4.48672 13.7524 5.16812C13.7524 5.84953 14.2392 6.33624 14.9206 6.33624C15.602 6.33624 16.0887 5.84953 16.0887 5.16812C15.9913 4.48672 15.5046 4 14.9206 4ZM4.99111 10.2302C4.99111 7.60189 7.13267 5.46033 9.76094 5.46033C12.4866 5.46033 14.6281 7.60189 14.5308 10.2302C14.5308 12.8584 12.3892 15 9.76094 15C7.13267 15 4.99111 12.8584 4.99111 10.2302ZM6.64595 10.2302C6.64595 11.9823 8.1061 13.3452 9.76094 13.3452C11.5131 13.3452 12.8759 11.9823 12.8759 10.2302C12.8759 8.47798 11.4158 7.11517 9.76094 7.11517C8.00876 7.11517 6.64595 8.57533 6.64595 10.2302Z" />
</svg>
