<svg width="74" height="62" viewBox="0 0 74 62" fill="none" xmlns="http://www.w3.org/2000/svg">
<path d="M44.2972 39.5582C45.0066 40.2954 45.4056 41.2949 45.4068 42.3374V61.214H42.8841V42.3374C42.8837 41.9898 42.7507 41.6567 42.5143 41.411C42.2778 41.1652 41.9572 41.027 41.6227 41.0267H31.5321C31.1976 41.027 30.877 41.1652 30.6406 41.411C30.4041 41.6567 30.2711 41.9898 30.2707 42.3374V60.7946H27.748V42.3374C27.7492 41.2949 28.1482 40.2954 28.8576 39.5582C29.567 38.8211 30.5288 38.4064 31.5321 38.4053H41.6227C42.626 38.4064 43.5878 38.8211 44.2972 39.5582Z" fill="#CC0035"/>
<path fill-rule="evenodd" clip-rule="evenodd" d="M65.5895 59.3786H71.8962C72.2307 59.3786 72.5515 59.5167 72.7881 59.7625C73.0246 60.0083 73.1575 60.3417 73.1575 60.6893C73.1575 61.0369 73.0246 61.3703 72.7881 61.6161C72.5515 61.8619 72.2307 62 71.8962 62H1.26134C0.926809 62 0.605984 61.8619 0.369437 61.6161C0.132891 61.3703 0 61.0369 0 60.6893C0 60.3417 0.132891 60.0083 0.369437 59.7625C0.605984 59.5167 0.926809 59.3786 1.26134 59.3786H7.56802V27.7708C7.56848 27.223 7.67886 26.6813 7.89212 26.1804C8.10537 25.6795 8.41682 25.2302 8.80657 24.8614L34.0311 1.02829C34.7261 0.36691 35.6343 4.42805e-05 36.5767 4.00814e-09C37.5191 -4.42724e-05 38.4273 0.366737 39.1224 1.02805L64.3509 24.8614C64.7406 25.2303 65.052 25.6796 65.2653 26.1805C65.4785 26.6815 65.589 27.2231 65.5895 27.7709V59.3786ZM10.1988 27.2406C10.1277 27.4076 10.0909 27.5882 10.0907 27.7708V59.3786H27.7476H30.2702H42.8836H45.4063H63.0668V27.7709C63.0666 27.5882 63.0298 27.4076 62.9587 27.2406C62.8876 27.0736 62.7838 26.9238 62.6539 26.8008L37.4256 2.96769C37.1939 2.74723 36.8911 2.62497 36.5769 2.625C36.2627 2.62503 35.9599 2.74735 35.7282 2.96785L10.5036 26.801C10.3737 26.9239 10.2699 27.0737 10.1988 27.2406Z" fill="#AFAFAF"/>
</svg>
