<svg width="68" height="68" viewBox="0 0 68 68" fill="none" xmlns="http://www.w3.org/2000/svg">
<path d="M8.35715 32.3615H34.5V36.6339H8.35715V32.3615ZM4 21.6808H25.7857V25.9531H4V21.6808Z" fill="white"/>
<path d="M64.8234 33.6561L58.2877 18.703C58.12 18.3186 57.8408 17.9911 57.4849 17.7609C57.129 17.5308 56.712 17.4082 56.2856 17.4085H49.7499V13.1362C49.7499 12.5696 49.5204 12.0263 49.1118 11.6257C48.7032 11.2251 48.1491 11 47.5713 11H12.7141V15.2723H45.3927V42.0939C44.4 42.6591 43.5313 43.4114 42.8365 44.3075C42.1418 45.2035 41.6349 46.2256 41.345 47.3147H27.6548C27.1245 45.301 25.8635 43.5461 24.1081 42.3789C22.3526 41.2116 20.2233 40.7122 18.1192 40.9743C16.0151 41.2364 14.0807 42.2419 12.6786 43.8023C11.2765 45.3628 10.5029 47.3711 10.5029 49.4508C10.5029 51.5305 11.2765 53.5388 12.6786 55.0993C14.0807 56.6598 16.0151 57.6653 18.1192 57.9274C20.2233 58.1894 22.3526 57.69 24.1081 56.5228C25.8635 55.3556 27.1245 53.6007 27.6548 51.587H41.345C41.8189 53.4203 42.9027 55.0464 44.425 56.2079C45.9472 57.3694 47.821 58 49.7499 58C51.6788 58 53.5525 57.3694 55.0748 56.2079C56.5971 55.0464 57.6809 53.4203 58.1548 51.587H62.8213C63.3991 51.587 63.9533 51.3619 64.3618 50.9613C64.7704 50.5607 64.9999 50.0174 64.9999 49.4508V34.4977C65 34.2083 64.94 33.922 64.8234 33.6561ZM19.2499 53.7231C18.3881 53.7231 17.5457 53.4726 16.8292 53.0031C16.1126 52.5337 15.5542 51.8664 15.2244 51.0858C14.8946 50.3051 14.8083 49.4461 14.9764 48.6173C15.1446 47.7886 15.5595 47.0273 16.1689 46.4298C16.7783 45.8324 17.5546 45.4255 18.3998 45.2606C19.245 45.0958 20.1211 45.1804 20.9173 45.5037C21.7134 45.8271 22.3939 46.3747 22.8727 47.0773C23.3515 47.7798 23.607 48.6058 23.607 49.4508C23.6059 50.5836 23.1464 51.6696 22.3296 52.4706C21.5127 53.2715 20.4051 53.722 19.2499 53.7231ZM49.7499 21.6808H54.8478L59.5186 32.3616H49.7499V21.6808ZM49.7499 53.7231C48.8881 53.7231 48.0457 53.4726 47.3292 53.0031C46.6127 52.5337 46.0542 51.8664 45.7244 51.0858C45.3946 50.3051 45.3083 49.4461 45.4765 48.6173C45.6446 47.7886 46.0596 47.0273 46.6689 46.4298C47.2783 45.8324 48.0546 45.4255 48.8999 45.2606C49.7451 45.0958 50.6211 45.1804 51.4173 45.5037C52.2135 45.8271 52.894 46.3747 53.3727 47.0773C53.8515 47.7798 54.107 48.6058 54.107 49.4508C54.1059 50.5836 53.6465 51.6696 52.8296 52.4706C52.0127 53.2715 50.9051 53.722 49.7499 53.7231ZM60.6428 47.3147H58.1548C57.6749 45.4849 56.5894 43.863 55.0683 42.7033C53.5472 41.5435 51.6767 40.9115 49.7499 40.9062V36.6339H60.6428V47.3147Z" fill="white"/>
</svg>
