<svg width="68" height="68" viewBox="0 0 68 68" fill="none" xmlns="http://www.w3.org/2000/svg">
<path d="M34.1859 8.83962C33.7456 8.66234 33.2544 8.66234 32.8141 8.83962L10.8071 17.6842L19.6719 21.245L42.3647 12.1262L34.1859 8.83962ZM47.3281 14.1234L24.6353 23.2421L33.5 26.8029L56.1929 17.6842L47.3281 14.1234ZM59.3125 20.4224L35.3438 30.0562V59.4096L59.3125 49.7758V20.4224ZM31.6562 59.4133V30.0525L7.6875 20.4224V49.7795L31.6562 59.4133ZM31.4461 5.3974C32.7646 4.86753 34.2354 4.86753 35.5539 5.3974L61.8421 15.9649C62.1839 16.1025 62.4769 16.3399 62.6832 16.6463C62.8896 16.9527 62.9999 17.3142 63 17.6842V49.7795C62.9995 50.5199 62.7783 51.2432 62.3649 51.8561C61.9515 52.4689 61.3648 52.9433 60.6806 53.218L34.1859 63.867C33.7456 64.0443 33.2544 64.0443 32.8141 63.867L6.32312 53.218C5.63818 52.9439 5.05073 52.4698 4.63662 51.8568C4.22251 51.2439 4.00076 50.5203 4 49.7795V17.6842C4.00009 17.3142 4.11042 16.9527 4.31678 16.6463C4.52315 16.3399 4.81609 16.1025 5.15788 15.9649L31.4461 5.3974Z" fill="white"/>
</svg>
