<svg width="68" height="68" viewBox="0 0 68 68" fill="none" xmlns="http://www.w3.org/2000/svg">
<path d="M23.9964 26.9963H27.9962M39.9958 42.9957H43.9956M43.9956 24.9964L23.9964 44.9956M31.2001 8.15699L26.6843 12.6648C25.9442 13.4062 24.94 13.8235 23.8924 13.8248H16.7806C15.7325 13.8248 14.7274 14.2411 13.9862 14.9822C13.2451 15.7234 12.8288 16.7285 12.8288 17.7766V24.8884C12.8275 25.936 12.4102 26.9402 11.6688 27.6803L7.15699 32.2041C6.41617 32.9452 6 33.9501 6 34.998C6 36.0459 6.41617 37.0508 7.15699 37.7919L11.6768 42.3077C12.0434 42.6744 12.3341 43.1097 12.5325 43.5887C12.7308 44.0677 12.8329 44.5812 12.8328 45.0996V52.2114C12.8328 54.3953 14.6007 56.1632 16.7846 56.1632H23.8964C24.9443 56.1632 25.9483 56.5792 26.6883 57.3232L31.2081 61.839C31.9492 62.5798 32.9541 62.996 34.002 62.996C35.0499 62.996 36.0548 62.5798 36.7959 61.839L41.3117 57.3192C42.0525 56.5792 43.0566 56.1635 44.1036 56.1632H51.2154C52.2635 56.1632 53.2686 55.7469 54.0097 55.0058C54.7509 54.2646 55.1672 53.2595 55.1672 52.2114V45.0996C55.1672 44.0517 55.5832 43.0477 56.3272 42.3077L60.843 37.7879C61.5838 37.0468 62 36.0419 62 34.994C62 33.9461 61.5838 32.9412 60.843 32.2001L56.3232 27.6843C55.5832 26.9435 55.1675 25.9394 55.1672 24.8924V17.7806C55.1672 16.7325 54.7509 15.7274 54.0097 14.9862C53.2686 14.2451 52.2635 13.8288 51.2154 13.8288H44.1036C43.056 13.8275 42.0518 13.4102 41.3117 12.6688L36.7879 8.15699C36.0468 7.41617 35.0419 7 33.994 7C32.9461 7 31.9412 7.41617 31.2001 8.15699Z" stroke="white" stroke-width="3.99989"/>
</svg>
