<svg width="68" height="68" viewBox="0 0 68 68" fill="none" xmlns="http://www.w3.org/2000/svg">
<path d="M46.5 59L45.65 54.75C45.0833 54.5139 44.5516 54.2655 44.0548 54.0048C43.5581 53.7442 43.0509 53.4259 42.5333 53.05L38.425 54.325L35.5917 49.5083L38.85 46.675C38.7556 46.1083 38.7083 45.4944 38.7083 44.8333C38.7083 44.1722 38.7556 43.5583 38.85 42.9917L35.5917 40.1583L38.425 35.3417L42.5333 36.6167C43.0528 36.2389 43.5609 35.9206 44.0577 35.6618C44.5544 35.4031 45.0852 35.1547 45.65 34.9167L46.5 30.6667H52.1667L53.0167 34.9167C53.5833 35.1528 54.1151 35.4012 54.6118 35.6618C55.1086 35.9225 55.6158 36.2408 56.1333 36.6167L60.2417 35.3417L63.075 40.1583L59.8167 42.9917C59.9111 43.5583 59.9583 44.1722 59.9583 44.8333C59.9583 45.4944 59.9111 46.1083 59.8167 46.675L63.075 49.5083L60.2417 54.325L56.1333 53.05C55.6139 53.4278 55.1067 53.747 54.6118 54.0077C54.1169 54.2683 53.5852 54.5158 53.0167 54.75L52.1667 59H46.5ZM49.3333 50.5C50.8917 50.5 52.2262 49.9447 53.3368 48.834C54.4475 47.7233 55.0019 46.3898 55 44.8333C55 43.275 54.4447 41.9405 53.334 40.8298C52.2233 39.7192 50.8898 39.1648 49.3333 39.1667C47.775 39.1667 46.4405 39.722 45.3298 40.8327C44.2192 41.9433 43.6648 43.2769 43.6667 44.8333C43.6667 46.3917 44.222 47.7262 45.3327 48.8368C46.4433 49.9475 47.7769 50.5019 49.3333 50.5ZM4 53.3333V8H26.6667L32.3333 13.6667H60.6667V28.5417C59.8167 27.9278 58.9194 27.4083 57.975 26.9833C57.0306 26.5583 56.0389 26.1806 55 25.85V19.3333H9.66667V47.6667H29.7125C29.8542 48.6583 30.0667 49.6264 30.35 50.5708C30.6333 51.5153 30.9875 52.4361 31.4125 53.3333H4Z" fill="white"/>
</svg>
