<svg width="60" height="60" viewBox="0 0 60 60" fill="none" xmlns="http://www.w3.org/2000/svg">
<path fill-rule="evenodd" clip-rule="evenodd" d="M30 58C45.464 58 58 45.464 58 30C58 14.536 45.464 2 30 2C14.536 2 2 14.536 2 30C2 45.464 14.536 58 30 58ZM30 60C46.5685 60 60 46.5685 60 30C60 13.4315 46.5685 0 30 0C13.4315 0 0 13.4315 0 30C0 46.5685 13.4315 60 30 60Z" fill="#AFAFAF"/>
<g clip-path="url(#clip0_319_1173)">
<path d="M45.9477 38.899C46.1445 37.7409 46.3414 36.3898 46.3414 35.2317C46.3414 33.8806 46.1445 32.7225 45.9477 31.5644C43.9789 31.7574 42.0102 30.9854 41.0258 29.0552C40.0414 27.3181 40.2383 25.1949 41.4195 23.6508C39.6477 21.9137 37.2852 20.5626 34.7258 19.7905C33.9383 21.5277 32.1664 22.8788 30.0008 22.8788C27.8352 22.8788 26.0633 21.5277 25.2758 19.7905C22.7164 20.5626 20.5508 21.9137 18.582 23.6508C19.7633 25.1949 19.9602 27.3181 18.9758 29.0552C17.9914 30.7924 16.0227 31.7574 14.0539 31.5644C13.6602 32.7225 13.6602 33.8806 13.6602 35.2317C13.6602 36.5828 13.857 37.7409 14.0539 38.899" stroke="#CC0035" stroke-width="2" stroke-miterlimit="10" stroke-linecap="round" stroke-linejoin="round"/>
<path d="M34.3313 39.0921C35.3156 38.1271 35.9062 36.776 35.9062 35.2318C35.9062 31.9506 33.3469 29.4414 30 29.4414C26.6531 29.4414 24.0938 31.9506 24.0938 35.2318C24.0938 36.776 24.6844 38.1271 25.6688 39.0921" stroke="#CC0035" stroke-width="2" stroke-miterlimit="10" stroke-linecap="round" stroke-linejoin="round"/>
</g>
<defs>
<clipPath id="clip0_319_1173">
<rect width="36" height="25" fill="white" transform="translate(12 14)"/>
</clipPath>
</defs>
</svg>
