<svg width="16" height="20" viewBox="0 0 16 20" fill="none" xmlns="http://www.w3.org/2000/svg">
<path d="M16 18V2C16 1.46957 15.7893 0.960859 15.4142 0.585786C15.0391 0.210714 14.5304 0 14 0H2C1.46957 0 0.960859 0.210714 0.585786 0.585786C0.210714 0.960859 0 1.46957 0 2V18C0 18.5304 0.210714 19.0391 0.585786 19.4142C0.960859 19.7893 1.46957 20 2 20H14C14.5304 20 15.0391 19.7893 15.4142 19.4142C15.7893 19.0391 16 18.5304 16 18ZM4 13C3.80222 13 3.60888 12.9413 3.44443 12.8315C3.27998 12.7216 3.15181 12.5654 3.07612 12.3827C3.00043 12.2 2.98063 11.9989 3.01921 11.8049C3.0578 11.6109 3.15304 11.4327 3.29289 11.2929C3.43275 11.153 3.61093 11.0578 3.80491 11.0192C3.99889 10.9806 4.19996 11.0004 4.38268 11.0761C4.56541 11.1518 4.72159 11.28 4.83147 11.4444C4.94135 11.6089 5 11.8022 5 12C5 12.2652 4.89464 12.5196 4.70711 12.7071C4.51957 12.8946 4.26522 13 4 13ZM4 9C3.80222 9 3.60888 8.94135 3.44443 8.83147C3.27998 8.72159 3.15181 8.56541 3.07612 8.38268C3.00043 8.19996 2.98063 7.99889 3.01921 7.80491C3.0578 7.61093 3.15304 7.43274 3.29289 7.29289C3.43275 7.15304 3.61093 7.0578 3.80491 7.01921C3.99889 6.98063 4.19996 7.00043 4.38268 7.07612C4.56541 7.15181 4.72159 7.27998 4.83147 7.44443C4.94135 7.60888 5 7.80222 5 8C5 8.26522 4.89464 8.51957 4.70711 8.70711C4.51957 8.89464 4.26522 9 4 9ZM8 17C7.80222 17 7.60888 16.9413 7.44443 16.8315C7.27998 16.7216 7.15181 16.5654 7.07612 16.3827C7.00043 16.2 6.98063 15.9989 7.01921 15.8049C7.0578 15.6109 7.15304 15.4327 7.29289 15.2929C7.43275 15.153 7.61093 15.0578 7.80491 15.0192C7.99889 14.9806 8.19996 15.0004 8.38268 15.0761C8.56541 15.1518 8.72159 15.28 8.83147 15.4444C8.94135 15.6089 9 15.8022 9 16C9 16.2652 8.89464 16.5196 8.70711 16.7071C8.51957 16.8946 8.26522 17 8 17ZM8 13C7.80222 13 7.60888 12.9413 7.44443 12.8315C7.27998 12.7216 7.15181 12.5654 7.07612 12.3827C7.00043 12.2 6.98063 11.9989 7.01921 11.8049C7.0578 11.6109 7.15304 11.4327 7.29289 11.2929C7.43275 11.153 7.61093 11.0578 7.80491 11.0192C7.99889 10.9806 8.19996 11.0004 8.38268 11.0761C8.56541 11.1518 8.72159 11.28 8.83147 11.4444C8.94135 11.6089 9 11.8022 9 12C9 12.2652 8.89464 12.5196 8.70711 12.7071C8.51957 12.8946 8.26522 13 8 13ZM8 9C7.80222 9 7.60888 8.94135 7.44443 8.83147C7.27998 8.72159 7.15181 8.56541 7.07612 8.38268C7.00043 8.19996 6.98063 7.99889 7.01921 7.80491C7.0578 7.61093 7.15304 7.43274 7.29289 7.29289C7.43275 7.15304 7.61093 7.0578 7.80491 7.01921C7.99889 6.98063 8.19996 7.00043 8.38268 7.07612C8.56541 7.15181 8.72159 7.27998 8.83147 7.44443C8.94135 7.60888 9 7.80222 9 8C9 8.26522 8.89464 8.51957 8.70711 8.70711C8.51957 8.89464 8.26522 9 8 9ZM12 13C11.8022 13 11.6089 12.9413 11.4444 12.8315C11.28 12.7216 11.1518 12.5654 11.0761 12.3827C11.0004 12.2 10.9806 11.9989 11.0192 11.8049C11.0578 11.6109 11.153 11.4327 11.2929 11.2929C11.4327 11.153 11.6109 11.0578 11.8049 11.0192C11.9989 10.9806 12.2 11.0004 12.3827 11.0761C12.5654 11.1518 12.7216 11.28 12.8315 11.4444C12.9414 11.6089 13 11.8022 13 12C13 12.2652 12.8946 12.5196 12.7071 12.7071C12.5196 12.8946 12.2652 13 12 13ZM12 9C11.8022 9 11.6089 8.94135 11.4444 8.83147C11.28 8.72159 11.1518 8.56541 11.0761 8.38268C11.0004 8.19996 10.9806 7.99889 11.0192 7.80491C11.0578 7.61093 11.153 7.43274 11.2929 7.29289C11.4327 7.15304 11.6109 7.0578 11.8049 7.01921C11.9989 6.98063 12.2 7.00043 12.3827 7.07612C12.5654 7.15181 12.7216 7.27998 12.8315 7.44443C12.9414 7.60888 13 7.80222 13 8C13 8.26522 12.8946 8.51957 12.7071 8.70711C12.5196 8.89464 12.2652 9 12 9ZM12 5H4C3.73478 5 3.48043 4.89464 3.29289 4.70711C3.10536 4.51957 3 4.26522 3 4C3 3.73478 3.10536 3.48043 3.29289 3.29289C3.48043 3.10536 3.73478 3 4 3H12C12.2652 3 12.5196 3.10536 12.7071 3.29289C12.8946 3.48043 13 3.73478 13 4C13 4.26522 12.8946 4.51957 12.7071 4.70711C12.5196 4.89464 12.2652 5 12 5Z" fill="#343434"/>
</svg>
