<svg width="21" height="24" viewBox="0 0 21 24" fill="none" xmlns="http://www.w3.org/2000/svg">
<path d="M10.5 24C9.39474 24 10.7023 22.2374 5.25332 19.4958C4.95479 19.3453 4.6651 19.1776 4.38568 18.9935C1.67447 17.2119 0 13.9535 0 10.4461C0 4.67721 4.70068 0 10.5 0C16.2993 0 21 4.67721 21 10.445C21 14.3096 18.9619 17.8761 15.7555 19.4914C10.3011 22.2363 11.6053 24 10.5 24ZM10.5 14.6344C12.8332 14.6344 14.7 12.768 14.7 10.4986C14.7 8.22921 12.8332 6.36279 10.5 6.36279C8.16679 6.36279 6.3 8.22921 6.3 10.4986C6.3 12.768 8.16679 14.6344 10.5 14.6344Z" fill="white"/>
</svg>
