<svg width="37" height="19" viewBox="0 0 37 19" fill="none" xmlns="http://www.w3.org/2000/svg">
<path d="M18.2751 0.620461C18.0443 0.822706 17.4762 1.31387 16.3813 2.24998C15.973 2.59668 15.4403 3.05318 15.1977 3.26698C14.1324 4.19731 13.5998 4.6538 13.1737 5.01207C12.6292 5.47434 12.4931 5.58991 11.7356 6.24865C11.4101 6.53757 10.8242 7.04029 10.4336 7.36967C10.043 7.69904 9.71161 7.98218 9.69385 7.99951C9.65834 8.04574 8.27351 9.24188 7.6817 9.73882C7.31477 10.0509 6.3738 10.8656 5.33221 11.767C5.22568 11.8595 4.94753 12.0964 4.71081 12.2929C4.47409 12.4894 4.02431 12.8765 3.71657 13.1481C3.15435 13.645 1.47953 15.0896 0.911388 15.5693C0.745681 15.7079 0.473448 15.9449 0.301823 16.0951L0 16.3667L0.680582 17.1121C1.05934 17.5224 1.49728 17.9962 1.65115 18.1638C1.97073 18.5163 1.94706 18.5163 2.43234 18.0829C2.56846 17.9557 3.01231 17.5686 3.42066 17.2219C3.82901 16.8752 4.19002 16.5574 4.21961 16.5227C4.25512 16.488 4.46225 16.3089 4.69306 16.1182C5.0659 15.8062 6.52175 14.558 7.03071 14.1073C7.14315 14.0091 7.43905 13.7548 7.6817 13.5526C7.92434 13.3446 8.13739 13.1654 8.15514 13.1481C8.1729 13.1308 8.51615 12.8303 8.9245 12.4836C9.33285 12.1369 9.70569 11.8133 9.75895 11.767C9.81221 11.715 10.0253 11.5301 10.2324 11.3568C10.4336 11.1834 10.8597 10.8194 11.1734 10.5478C11.487 10.2762 11.925 9.90062 12.1499 9.70993C12.3688 9.51924 12.5937 9.32277 12.647 9.27655C12.7002 9.22454 12.9429 9.01652 13.1855 8.81427C13.4282 8.60625 14.1088 8.02263 14.6946 7.51413C15.2865 7.00562 16.3103 6.12152 16.979 5.54946C17.6419 4.9774 18.2514 4.45156 18.3343 4.38222C18.4171 4.3071 18.4941 4.24931 18.5118 4.24931C18.5296 4.24931 18.6361 4.33021 18.7485 4.42845C20.015 5.51479 21.3288 6.64736 21.5892 6.8785C21.7668 7.04029 22.2343 7.44478 22.6249 7.77415C23.0155 8.10353 23.3469 8.39245 23.3647 8.40978C23.3824 8.42712 23.5955 8.60625 23.8381 8.80849C24.0808 9.01652 24.3116 9.21298 24.3412 9.24765C24.3944 9.30544 25.9509 10.646 26.5545 11.1545C26.7025 11.2817 27.4126 11.8942 28.1347 12.5125C28.8507 13.1308 29.7385 13.8993 30.1113 14.2171C30.4841 14.5349 31.0404 15.0145 31.3541 15.2861C31.6618 15.5577 32.1057 15.9333 32.3306 16.124C32.5614 16.3147 32.7567 16.4822 32.7745 16.4996C32.7922 16.5169 33.165 16.8405 33.603 17.2219C34.0409 17.6033 34.5025 18.002 34.6209 18.1118C35.0588 18.4989 35.0825 18.5047 35.2541 18.3082C35.337 18.2158 35.7631 17.7477 36.201 17.2681C36.6331 16.7885 36.9941 16.384 37 16.3725C37.0059 16.3436 35.8815 15.3612 34.106 13.8415C33.4905 13.3157 32.9342 12.8361 32.8691 12.7725C32.7981 12.7089 32.5614 12.5009 32.3306 12.3102C32.1057 12.1195 31.4488 11.559 30.8807 11.0621C30.3125 10.5709 29.6201 9.97574 29.342 9.7446C29.0638 9.51346 28.7206 9.21298 28.5726 9.08008C28.4246 8.95295 28.0932 8.66403 27.8328 8.43867C27.5724 8.21909 27.3476 8.02263 27.3298 8.00529C27.312 7.98796 26.9806 7.69904 26.59 7.36967C25.9627 6.83805 25.6668 6.5838 24.5483 5.61302C24.4003 5.4859 24.0808 5.21431 23.8381 5.00629C23.4298 4.6538 21.8319 3.27276 21.7668 3.2092C21.749 3.19186 21.536 3.01273 21.2933 2.80471C21.0507 2.59668 20.4234 2.05929 19.9026 1.61435C18.5296 0.423994 18.5414 0.435551 18.5118 0.435551C18.4941 0.435551 18.3875 0.516449 18.2751 0.620461Z" />
<path d="M5.49219 5.32478V8.71094L5.71116 8.52603C5.82952 8.42202 6.02482 8.25444 6.14318 8.15043C6.33848 7.97708 6.5752 7.76905 8.32696 6.24933C8.6998 5.93151 9.26202 5.44035 9.57568 5.16298L10.1497 4.66026L10.1912 3.35433C10.2089 2.63203 10.2148 2.01952 10.1971 1.99062C10.1734 1.96173 9.20876 1.93862 7.82392 1.93862H5.49219V5.32478Z" />
</svg>
