<svg width="20" height="16" viewBox="0 0 20 16" fill="none" xmlns="http://www.w3.org/2000/svg">
<path fill-rule="evenodd" clip-rule="evenodd" d="M4.18446 0.0473919C4.09661 0.0793953 3.74519 0.33142 3.4612 0.565444C3.36517 0.643452 3.13021 0.859473 2.9402 1.04749C1.42013 2.53164 0.423087 4.47584 0.100275 6.58805C0.0144642 7.1501 -0.00188073 7.39613 0.000162382 8.0582C0.000162382 8.57825 0.00833484 8.75226 0.047154 9.0563C0.135008 9.78237 0.271897 10.3744 0.508898 11.0685C1.12592 12.8827 2.25576 14.4868 3.73089 15.649C4.19263 16.011 4.40308 16.071 4.72589 15.929C4.97106 15.821 5.21419 15.4949 5.26527 15.2109C5.30409 14.9849 5.20193 14.7229 5.01601 14.5748C4.82396 14.4228 4.33974 14.0028 4.16812 13.8408C3.09344 12.8187 2.18834 11.2305 1.85735 9.78237C1.70208 9.0983 1.65304 8.60025 1.66939 7.85017C1.6939 6.69806 1.92273 5.69996 2.40695 4.64585C2.92999 3.51174 3.67981 2.54164 4.68707 1.69756C5.12838 1.32952 5.23258 1.19351 5.25301 0.959483C5.27957 0.639451 5.03848 0.209408 4.75858 0.0773945C4.62782 0.0173883 4.31726 0.00138664 4.18446 0.0473919ZM15.3991 0.0332651C15.1989 0.103271 15.0293 0.253286 14.8842 0.48731C14.7494 0.703332 14.7208 0.955358 14.8107 1.12937C14.874 1.25339 14.9619 1.3454 15.5196 1.85345C16.1551 2.43751 16.4779 2.78154 16.8068 3.22758C18.3882 5.3858 18.7948 8.11808 17.9121 10.6483C17.6179 11.4924 17.1174 12.3925 16.578 13.0506C16.3328 13.3506 15.8772 13.8206 15.5544 14.1087C15.0763 14.5327 14.8761 14.7347 14.8209 14.8488C14.7555 14.9808 14.7433 15.1788 14.7903 15.3168C14.8679 15.5468 15.0967 15.8208 15.301 15.9249C15.4114 15.9829 15.442 15.9889 15.5973 15.9869C15.7444 15.9869 15.7893 15.9789 15.8874 15.9309C16.2266 15.7728 17.2011 14.8948 17.6833 14.3187C18.8213 12.9566 19.5364 11.4744 19.8858 9.74824C19.9859 9.25419 20.0002 9.04217 20.0002 7.99806C20.0002 6.77194 19.9716 6.50391 19.753 5.64783C19.2647 3.71964 18.1777 1.95346 16.6903 0.665328C15.9957 0.0652676 15.7097 -0.0747471 15.3991 0.0332651ZM4.92619 2.87564C5.32868 2.4896 5.52278 2.33158 5.64128 2.29158C5.78634 2.24157 6.01517 2.25757 6.17044 2.32958C6.41766 2.44359 6.63627 2.73162 6.69961 3.03165C6.7609 3.31768 6.7037 3.41169 6.09485 4.03175C5.74139 4.38979 5.49622 4.67782 5.2919 4.97785C4.82607 5.65991 4.55638 6.35998 4.42767 7.20807C4.37659 7.5501 4.37659 8.4722 4.42767 8.79823C4.56047 9.64631 4.89554 10.4784 5.36137 11.1185C5.55955 11.3905 5.71279 11.5645 6.14388 12.0086C6.65875 12.5406 6.7466 12.6786 6.72413 12.9166C6.70165 13.1627 6.40336 13.5807 6.18679 13.6687C6.14388 13.6867 6.04377 13.7087 5.96613 13.7207C5.67192 13.7607 5.53299 13.6927 5.09577 13.2927C4.40724 12.6666 3.86377 11.9645 3.47149 11.1985C2.46015 9.22427 2.43767 6.90204 3.40815 4.92784C3.78817 4.15776 4.2683 3.5057 4.92619 2.87564ZM13.9627 2.27552C13.6868 2.36353 13.3886 2.71957 13.3313 3.0276C13.313 3.12161 13.3273 3.27762 13.362 3.36763C13.4008 3.46764 13.5254 3.61366 13.8605 3.94769C14.2671 4.35573 14.3876 4.48775 14.5899 4.75777C15.162 5.51985 15.5379 6.48795 15.638 7.46605C15.6728 7.79808 15.6544 8.51215 15.6012 8.84818C15.4766 9.63426 15.1967 10.3383 14.7472 11.0024C14.5123 11.3484 14.263 11.6425 13.8483 12.0625C13.4682 12.4445 13.3804 12.5526 13.3354 12.6966C13.2619 12.9346 13.3988 13.2926 13.6582 13.5407C13.883 13.7547 14.2671 13.7927 14.5347 13.6287C14.7431 13.5007 15.2662 13.0146 15.5686 12.6686C16.3163 11.8125 16.8659 10.7484 17.1499 9.60826L17.1521 9.5994C17.1983 9.41398 17.2281 9.29404 17.2474 9.17242C17.2828 8.94966 17.2827 8.72129 17.2827 8.07464V8.07459V8.07454V8.0281C17.2827 6.95599 17.2725 6.83398 17.1377 6.31793C16.8639 5.26783 16.3735 4.31373 15.6605 3.43764C15.256 2.94359 14.7534 2.48755 14.4428 2.33153C14.3447 2.28352 14.2896 2.26952 14.167 2.26552C14.0832 2.26152 13.9913 2.26552 13.9627 2.27552ZM11.9621 5.07787C12.1011 4.79584 12.3013 4.60982 12.5322 4.54982C12.6772 4.51181 12.7038 4.51181 12.8489 4.54782C13.1512 4.62382 13.5537 5.01986 13.9317 5.60792C14.2239 6.06397 14.4752 6.70603 14.5671 7.21808C14.6121 7.48411 14.5998 8.61222 14.5446 8.89825C14.5017 9.13028 14.3649 9.54232 14.2484 9.79834C13.9542 10.4344 13.3556 11.2125 13.0287 11.3845C12.7487 11.5305 12.4035 11.4725 12.1665 11.2365C12.1031 11.1745 12.0296 11.0645 11.9662 10.9465C11.8723 10.7604 11.8682 10.7484 11.8682 10.5804C11.8682 10.4244 11.8743 10.3984 11.9356 10.2864C11.9724 10.2204 12.0684 10.0884 12.1481 9.99636C12.5608 9.51431 12.8529 8.92625 12.9326 8.4142C12.9755 8.14618 12.9612 7.70813 12.8999 7.4281C12.7835 6.89605 12.5199 6.412 12.0847 5.92995C11.9192 5.74594 11.8723 5.62592 11.8825 5.3979C11.8886 5.25189 11.8988 5.20788 11.9621 5.07787ZM7.09169 4.56585C6.97319 4.60785 6.87103 4.68586 6.68102 4.87788C6.48284 5.0779 6.21315 5.42593 6.04357 5.69996C5.71667 6.22401 5.48989 6.89208 5.42042 7.53414C5.38773 7.85218 5.40612 8.42423 5.46128 8.72826C5.59613 9.47834 5.89646 10.1444 6.38273 10.7745C6.78113 11.2945 7.12642 11.5165 7.4431 11.4585C7.67397 11.4165 7.81904 11.3165 7.97227 11.0885C8.11529 10.8825 8.16432 10.7425 8.16432 10.5624C8.16432 10.3684 8.0969 10.2324 7.86603 9.96239C7.64333 9.70436 7.5187 9.52234 7.37977 9.24832C7.15094 8.80227 7.08964 8.53624 7.09169 7.99819C7.09373 7.24411 7.29804 6.69806 7.80882 6.096C8.13163 5.71596 8.17045 5.63795 8.15615 5.39793C8.14798 5.27392 8.13368 5.21391 8.07443 5.0959C7.98044 4.90188 7.83334 4.71186 7.73118 4.64785C7.56773 4.54584 7.26127 4.50784 7.09169 4.56585ZM8.63908 6.6601C8.86995 6.42207 9.34395 6.17205 9.65859 6.12004C10.0754 6.05204 10.6475 6.15405 11.0009 6.35807C11.2563 6.50608 11.6282 6.89012 11.7548 7.13614C11.8978 7.41217 11.9755 7.78221 11.9551 8.09624C11.8978 8.98633 11.2338 9.7204 10.3594 9.85842C10.1387 9.89442 9.68515 9.87442 9.48697 9.82041C8.83113 9.6444 8.29584 9.11034 8.14056 8.47628C7.97915 7.81421 8.16099 7.15415 8.63908 6.6601Z" />
</svg>
