<svg width="26" height="4" viewBox="0 0 26 4" fill="none" xmlns="http://www.w3.org/2000/svg">
<path d="M2.39 0.52C1.48 0.52 0.76 1.24 0.76 2.14C0.76 3.04 1.48 3.76 2.39 3.76C3.29 3.76 4.02 3.04 4.02 2.14C4.02 1.24 3.29 0.52 2.39 0.52ZM7.66539 0.52C6.75539 0.52 6.03539 1.24 6.03539 2.14C6.03539 3.04 6.75539 3.76 7.66539 3.76C8.56539 3.76 9.29539 3.04 9.29539 2.14C9.29539 1.24 8.56539 0.52 7.66539 0.52ZM12.9408 0.52C12.0308 0.52 11.3108 1.24 11.3108 2.14C11.3108 3.04 12.0308 3.76 12.9408 3.76C13.8408 3.76 14.5708 3.04 14.5708 2.14C14.5708 1.24 13.8408 0.52 12.9408 0.52ZM18.2162 0.52C17.3062 0.52 16.5862 1.24 16.5862 2.14C16.5862 3.04 17.3062 3.76 18.2162 3.76C19.1162 3.76 19.8462 3.04 19.8462 2.14C19.8462 1.24 19.1162 0.52 18.2162 0.52ZM23.4916 0.52C22.5816 0.52 21.8616 1.24 21.8616 2.14C21.8616 3.04 22.5816 3.76 23.4916 3.76C24.3916 3.76 25.1216 3.04 25.1216 2.14C25.1216 1.24 24.3916 0.52 23.4916 0.52Z" fill="#343434"/>
</svg>
