<svg width="30" height="31" viewBox="0 0 30 31" fill="none" xmlns="http://www.w3.org/2000/svg">
<path d="M2.50502 27.5021L4.19502 21.2917C3.08144 19.3826 2.49639 17.2114 2.50002 15.0012C2.50002 8.09692 8.09627 2.50024 15 2.50024C21.9038 2.50024 27.5 8.09692 27.5 15.0012C27.5 21.9055 21.9038 27.5021 15 27.5021C12.791 27.5057 10.6208 26.9211 8.71252 25.8083L2.50502 27.5021ZM10.4888 9.13575C10.3273 9.14577 10.1696 9.18829 10.025 9.26076C9.88942 9.33755 9.76564 9.43355 9.65752 9.54578C9.50752 9.68704 9.42252 9.80955 9.33127 9.92831C8.86928 10.5296 8.62078 11.2677 8.62502 12.026C8.62752 12.6385 8.78752 13.2348 9.03752 13.7924C9.54877 14.9199 10.39 16.1138 11.5013 17.2201C11.7688 17.4864 12.03 17.7539 12.3113 18.0027C13.6905 19.2171 15.3341 20.0929 17.1113 20.5604L17.8225 20.6691C18.0538 20.6816 18.285 20.6641 18.5175 20.6529C18.8816 20.6341 19.237 20.5355 19.5588 20.3641C19.7663 20.2541 19.8638 20.1991 20.0375 20.0891C20.0375 20.0891 20.0913 20.0541 20.1938 19.9766C20.3625 19.8516 20.4663 19.7628 20.6063 19.6165C20.71 19.509 20.8 19.3828 20.8688 19.239C20.9663 19.0353 21.0638 18.6465 21.1038 18.3227C21.1338 18.0752 21.125 17.9402 21.1213 17.8564C21.1163 17.7227 21.005 17.5839 20.8838 17.5251L20.1563 17.1989C20.1563 17.1989 19.0688 16.7251 18.405 16.4226C18.335 16.392 18.26 16.3747 18.1838 16.3713C18.0982 16.3625 18.0118 16.3721 17.9303 16.3995C17.8488 16.4269 17.7741 16.4714 17.7113 16.5301V16.5276C17.705 16.5276 17.6213 16.5988 16.7175 17.6939C16.6656 17.7636 16.5942 17.8163 16.5123 17.8452C16.4303 17.8742 16.3417 17.8781 16.2575 17.8564C16.1761 17.8346 16.0963 17.8071 16.0188 17.7739C15.8638 17.7089 15.81 17.6839 15.7038 17.6376L15.6975 17.6351C14.9824 17.3229 14.3203 16.9011 13.735 16.385C13.5775 16.2475 13.4313 16.0975 13.2813 15.9525C12.7895 15.4815 12.3609 14.9487 12.0063 14.3674L11.9325 14.2486C11.8795 14.1688 11.8367 14.0828 11.805 13.9924C11.7575 13.8086 11.8813 13.6611 11.8813 13.6611C11.8813 13.6611 12.185 13.3286 12.3263 13.1486C12.4439 12.9989 12.5536 12.8433 12.655 12.6823C12.8025 12.4447 12.8488 12.201 12.7713 12.0122C12.4213 11.1572 12.0588 10.3058 11.6863 9.46077C11.6125 9.29326 11.3938 9.17325 11.195 9.1495C11.1275 9.142 11.06 9.1345 10.9925 9.1295C10.8246 9.12116 10.6564 9.12408 10.4888 9.13575Z" fill=""/>
</svg>
