<svg width="40" height="40" viewBox="0 0 40 40" fill="none" xmlns="http://www.w3.org/2000/svg">
<path d="M17.9169 37.5H22.1169C23.7169 37.5 24.7502 36.3666 24.4502 34.9833L23.7669 31.9668H16.2669L15.5835 34.9833C15.2835 36.2833 16.4169 37.5 17.9169 37.5Z" stroke="#CC0035" stroke-width="2" stroke-linecap="round" stroke-linejoin="round"/>
<path d="M23.7663 31.9503L26.6496 29.3834C28.2663 27.9501 28.3329 26.9501 27.0496 25.3334L21.9663 18.8836C20.8996 17.5336 19.1496 17.5336 18.0829 18.8836L12.9996 25.3334C11.7163 26.9501 11.7163 28.0001 13.3996 29.3834L16.2829 31.9503" stroke="#CC0035" stroke-width="2" stroke-linecap="round" stroke-linejoin="round"/>
<path d="M20.0186 18.5332V22.7499" stroke="#CC0035" stroke-width="2" stroke-linecap="round" stroke-linejoin="round"/>
<path d="M18.5828 8.64976L17.2828 7.34971C16.4995 6.56637 16.4995 5.29979 17.2828 4.51646L18.5828 3.21641C19.3661 2.43307 20.6328 2.43307 21.4161 3.21641L22.7161 4.51646C23.4995 5.29979 23.4995 6.56637 22.7161 7.34971L21.4161 8.64976C20.6328 9.43309 19.3661 9.43309 18.5828 8.64976Z" stroke="#CC0035" stroke-width="2" stroke-linecap="round" stroke-linejoin="round"/>
<path d="M32.417 16.3496H34.2503C35.3503 16.3496 36.2503 17.2497 36.2503 18.3497V20.1828C36.2503 21.2828 35.3503 22.183 34.2503 22.183H32.417C31.317 22.183 30.417 21.2828 30.417 20.1828V18.3497C30.417 17.2497 31.317 16.3496 32.417 16.3496Z" stroke="#CC0035" stroke-width="2" stroke-linecap="round" stroke-linejoin="round"/>
<path d="M7.58333 16.3501H5.75C4.65 16.3501 3.75 17.2502 3.75 18.3502V20.1833C3.75 21.2833 4.65 22.1835 5.75 22.1835H7.58333C8.68333 22.1835 9.58333 21.2833 9.58333 20.1833V18.3502C9.58333 17.2502 8.68333 16.3501 7.58333 16.3501Z" stroke="#CC0035" stroke-width="2" stroke-linecap="round" stroke-linejoin="round"/>
<path d="M30.8997 16.8333L22.0664 8" stroke="#CC0035" stroke-width="2" stroke-linecap="round" stroke-linejoin="round"/>
<path d="M9.09863 16.8333L17.932 8" stroke="#CC0035" stroke-width="2" stroke-linecap="round" stroke-linejoin="round"/>
</svg>
