<svg width="22" height="22" viewBox="0 0 22 22" fill="none" xmlns="http://www.w3.org/2000/svg">
<g clip-path="url(#clip0_555_4022)">
<path d="M16.9079 12.727C16.817 12.727 16.7235 12.7401 16.6298 12.7659L16.2776 12.8629L15.7587 11.599C15.4678 10.8904 14.608 10.314 13.8419 10.314H8.14691C7.38094 10.314 6.52101 10.8905 6.23021 11.5991L5.71223 12.8607L5.36844 12.766C5.27481 12.7401 5.18126 12.7271 5.09038 12.7271C4.63347 12.7271 4.30176 13.0549 4.30176 13.5064C4.30176 13.9523 4.62714 14.3276 5.06814 14.4403C4.82631 15.1082 4.63838 16.1092 4.63838 16.7669V19.4565C4.63838 20.0307 5.10546 20.4977 5.67966 20.4977H6.06143C6.63564 20.4977 7.10271 20.0307 7.10271 19.4565V18.9533H14.8861V19.4565C14.8861 20.0307 15.3531 20.4977 15.9273 20.4977H16.3093C16.8835 20.4977 17.3506 20.0307 17.3506 19.4565V16.7669C17.3506 16.1099 17.163 15.1102 16.9215 14.4423C17.3669 14.3324 17.6965 13.955 17.6965 13.5064C17.6964 13.0548 17.3648 12.727 16.9079 12.727ZM6.35957 13.7765L7.20601 11.7144C7.38003 11.2906 7.89725 10.9438 8.35541 10.9438H13.6337C14.0919 10.9438 14.6091 11.2906 14.7831 11.7144L15.6295 13.7765C15.8035 14.2003 15.5711 14.5471 15.1129 14.5471H6.87621C6.41805 14.5471 6.18555 14.2003 6.35957 13.7765ZM8.60374 17.1295C8.60374 17.3586 8.41631 17.546 8.18722 17.546H6.4597C6.23062 17.546 6.04319 17.3586 6.04319 17.1295V16.4405C6.04319 16.2114 6.23062 16.024 6.4597 16.024H8.18722C8.41631 16.024 8.60374 16.2114 8.60374 16.4405V17.1295ZM15.9269 17.1295C15.9269 17.3586 15.7395 17.546 15.5104 17.546H13.7831C13.554 17.546 13.3665 17.3586 13.3665 17.1295V16.4405C13.3665 16.2114 13.554 16.024 13.7831 16.024H15.5104C15.7395 16.024 15.9269 16.2114 15.9269 16.4405V17.1295Z" />
<path d="M21.0368 6.45839L11.4637 0.846902C11.3366 0.77243 11.1716 0.731445 10.999 0.731445C10.8264 0.731445 10.6614 0.77243 10.5344 0.846902L0.961268 6.45839C0.697783 6.61283 0.499023 6.9597 0.499023 7.26517V20.642C0.499023 20.9865 0.779252 21.2668 1.12379 21.2668H2.19939C2.54393 21.2668 2.82416 20.9865 2.82416 20.642V9.32224C2.82416 9.20745 2.91754 9.11398 3.03241 9.11398H18.9655C19.0803 9.11398 19.1737 9.20745 19.1737 9.32224V20.642C19.1737 20.9865 19.454 21.2668 19.7985 21.2668H20.8742C21.2187 21.2668 21.4989 20.9865 21.4989 20.642V7.26517C21.499 6.9597 21.3003 6.61283 21.0368 6.45839Z" />
</g>
<defs>
<clipPath id="clip0_555_4022">
<rect width="21" height="21" fill="white" transform="translate(0.499023 0.499023)"/>
</clipPath>
</defs>
</svg>
