<svg width="36" height="38" viewBox="0 0 36 38" fill="none" xmlns="http://www.w3.org/2000/svg">
<mask id="mask0_540_4083" style="mask-type:alpha" maskUnits="userSpaceOnUse" x="0" y="0" width="36" height="38">
<mask id="path-1-outside-1_540_4083" maskUnits="userSpaceOnUse" x="0.78418" y="0.978027" width="35" height="37" fill="black">
<rect fill="white" x="0.78418" y="0.978027" width="35" height="37"/>
<path fill-rule="evenodd" clip-rule="evenodd" d="M8.28965 2.97803L9.07628 4.73247H27.1373L27.8524 2.97803H30.4L33.5461 6.27665V33.2675L31.7983 35.0217H31.0407L29.8219 33.0338H27.6079L26.2367 35.0217H9.47972L8.26084 33.0338H6.04691L4.67566 35.0217H4.64854L2.78418 33.2675V6.39445L5.93029 2.97803H8.28965Z"/>
</mask>
<path fill-rule="evenodd" clip-rule="evenodd" d="M8.28965 2.97803L9.07628 4.73247H27.1373L27.8524 2.97803H30.4L33.5461 6.27665V33.2675L31.7983 35.0217H31.0407L29.8219 33.0338H27.6079L26.2367 35.0217H9.47972L8.26084 33.0338H6.04691L4.67566 35.0217H4.64854L2.78418 33.2675V6.39445L5.93029 2.97803H8.28965Z" fill="#D9D9D9"/>
<path d="M9.07628 4.73247L7.25132 5.55071L7.78118 6.73247H9.07628V4.73247ZM8.28965 2.97803L10.1146 2.15978L9.58476 0.978027H8.28965V2.97803ZM27.1373 4.73247V6.73247H28.4818L28.9893 5.48737L27.1373 4.73247ZM27.8524 2.97803V0.978027H26.5078L26.0003 2.22312L27.8524 2.97803ZM30.4 2.97803L31.8473 1.59767L31.2563 0.978027H30.4V2.97803ZM33.5461 6.27665H35.5461V5.4758L34.9934 4.89628L33.5461 6.27665ZM33.5461 33.2675L34.9629 34.6792L35.5461 34.0938V33.2675H33.5461ZM31.7983 35.0217V37.0217H32.6289L33.2151 36.4334L31.7983 35.0217ZM31.0407 35.0217L29.3357 36.0672L29.921 37.0217H31.0407V35.0217ZM29.8219 33.0338L31.5269 31.9884L30.9416 31.0338H29.8219V33.0338ZM27.6079 33.0338V31.0338H26.5578L25.9616 31.8982L27.6079 33.0338ZM26.2367 35.0217V37.0217H27.2868L27.883 36.1574L26.2367 35.0217ZM9.47972 35.0217L7.77471 36.0672L8.36 37.0217H9.47972V35.0217ZM8.26084 33.0338L9.96585 31.9884L9.38056 31.0338H8.26084V33.0338ZM6.04691 33.0338V31.0338H4.99683L4.40059 31.8982L6.04691 33.0338ZM4.67566 35.0217V37.0217H5.72574L6.32198 36.1574L4.67566 35.0217ZM4.64854 35.0217L3.27801 36.4783L3.85554 37.0217H4.64854V35.0217ZM2.78418 33.2675H0.78418V34.1318L1.41365 34.7241L2.78418 33.2675ZM2.78418 6.39445L1.31296 5.03964L0.78418 5.61386V6.39445H2.78418ZM5.93029 2.97803V0.978027H5.05321L4.45907 1.62322L5.93029 2.97803ZM10.9012 3.91422L10.1146 2.15978L6.46469 3.79627L7.25132 5.55071L10.9012 3.91422ZM27.1373 2.73247H9.07628V6.73247H27.1373V2.73247ZM26.0003 2.22312L25.2852 3.97756L28.9893 5.48737L29.7045 3.73293L26.0003 2.22312ZM27.8524 4.97803H30.4V0.978027H27.8524V4.97803ZM28.9528 4.35839L32.0989 7.65701L34.9934 4.89628L31.8473 1.59767L28.9528 4.35839ZM31.5461 6.27665V33.2675H35.5461V6.27665H31.5461ZM32.1294 31.8559L30.3815 33.6101L33.2151 36.4334L34.9629 34.6792L32.1294 31.8559ZM31.7983 33.0217H31.0407V37.0217H31.7983V33.0217ZM32.7458 33.9763L31.5269 31.9884L28.1168 34.0792L29.3357 36.0672L32.7458 33.9763ZM29.8219 31.0338H27.6079V35.0338H29.8219V31.0338ZM25.9616 31.8982L24.5904 33.8861L27.883 36.1574L29.2542 34.1694L25.9616 31.8982ZM26.2367 33.0217H9.47972V37.0217H26.2367V33.0217ZM11.1847 33.9763L9.96585 31.9884L6.55582 34.0792L7.77471 36.0672L11.1847 33.9763ZM8.26084 31.0338H6.04691V35.0338H8.26084V31.0338ZM4.40059 31.8982L3.02934 33.8861L6.32198 36.1574L7.69323 34.1694L4.40059 31.8982ZM4.67566 33.0217H4.64854V37.0217H4.67566V33.0217ZM6.01907 33.5652L4.15471 31.8109L1.41365 34.7241L3.27801 36.4783L6.01907 33.5652ZM4.78418 33.2675V6.39445H0.78418V33.2675H4.78418ZM4.2554 7.74927L7.40151 4.33284L4.45907 1.62322L1.31296 5.03964L4.2554 7.74927ZM5.93029 4.97803H8.28965V0.978027H5.93029V4.97803Z" fill="#CC0035" mask="url(#path-1-outside-1_540_4083)"/>
</mask>
<g mask="url(#mask0_540_4083)">
<path fill-rule="evenodd" clip-rule="evenodd" d="M8.51145 14.5051C3.24403 19.6381 -2.73171 22.9385 -6.23916 24.1989L-6.91553 22.3168C-3.68054 21.1542 2.05062 18.0085 7.11563 13.0727C12.1744 8.14304 16.4853 1.51175 17.0837 -6.62158L19.0783 -6.47481C18.4322 2.30566 13.7852 9.36591 8.51145 14.5051ZM-0.776269 29.7956C2.73118 28.5352 8.70692 25.2348 13.9743 20.1018C19.2481 14.9626 23.8951 7.90234 24.5412 -0.878132L22.5466 -1.0249C21.9481 7.10843 17.6372 13.7397 12.5785 18.6694C7.51351 23.6052 1.78235 26.7509 -1.45264 27.9134L-0.776269 29.7956ZM3.46055 35.022C7.27554 33.6511 13.7853 30.0567 19.524 24.4644C25.269 18.8659 30.3247 11.1812 31.0275 1.62919L29.0329 1.48242C28.3777 10.3872 23.6582 17.6431 18.1282 23.032C12.5919 28.4271 6.32672 31.8668 2.78418 33.1399L3.46055 35.022ZM11.1621 38.4268C14.6696 37.1664 20.6453 33.866 25.9127 28.733C31.1864 23.5938 35.8335 16.5336 36.4796 7.75309L34.485 7.60632C33.8865 15.7396 29.5756 22.3709 24.5169 27.3006C19.4519 32.2364 13.7207 35.3821 10.4857 36.5447L11.1621 38.4268Z" fill="#343434"/>
</g>
<mask id="path-4-outside-2_540_4083" maskUnits="userSpaceOnUse" x="0.78418" y="0.978027" width="35" height="37" fill="black">
<rect fill="white" x="0.78418" y="0.978027" width="35" height="37"/>
<path fill-rule="evenodd" clip-rule="evenodd" d="M8.28965 2.97803L9.07628 4.73247H27.1373L27.8524 2.97803H30.4L33.5461 6.27665V33.2675L31.7983 35.0217H31.0407L29.8219 33.0338H27.6079L26.2367 35.0217H9.47972L8.26084 33.0338H6.04691L4.67566 35.0217H4.64854L2.78418 33.2675V6.39445L5.93029 2.97803H8.28965Z"/>
</mask>
<path d="M9.07628 4.73247L7.25132 5.55071L7.78118 6.73247H9.07628V4.73247ZM8.28965 2.97803L10.1146 2.15978L9.58476 0.978027H8.28965V2.97803ZM27.1373 4.73247V6.73247H28.4818L28.9893 5.48737L27.1373 4.73247ZM27.8524 2.97803V0.978027H26.5078L26.0003 2.22312L27.8524 2.97803ZM30.4 2.97803L31.8473 1.59767L31.2563 0.978027H30.4V2.97803ZM33.5461 6.27665H35.5461V5.4758L34.9934 4.89628L33.5461 6.27665ZM33.5461 33.2675L34.9629 34.6792L35.5461 34.0938V33.2675H33.5461ZM31.7983 35.0217V37.0217H32.6289L33.2151 36.4334L31.7983 35.0217ZM31.0407 35.0217L29.3357 36.0672L29.921 37.0217H31.0407V35.0217ZM29.8219 33.0338L31.5269 31.9884L30.9416 31.0338H29.8219V33.0338ZM27.6079 33.0338V31.0338H26.5578L25.9616 31.8982L27.6079 33.0338ZM26.2367 35.0217V37.0217H27.2868L27.883 36.1574L26.2367 35.0217ZM9.47972 35.0217L7.77471 36.0672L8.36 37.0217H9.47972V35.0217ZM8.26084 33.0338L9.96585 31.9884L9.38056 31.0338H8.26084V33.0338ZM6.04691 33.0338V31.0338H4.99683L4.40059 31.8982L6.04691 33.0338ZM4.67566 35.0217V37.0217H5.72574L6.32198 36.1574L4.67566 35.0217ZM4.64854 35.0217L3.27801 36.4783L3.85554 37.0217H4.64854V35.0217ZM2.78418 33.2675H0.78418V34.1318L1.41365 34.7241L2.78418 33.2675ZM2.78418 6.39445L1.31296 5.03964L0.78418 5.61386V6.39445H2.78418ZM5.93029 2.97803V0.978027H5.05321L4.45907 1.62322L5.93029 2.97803ZM10.9012 3.91422L10.1146 2.15978L6.46469 3.79627L7.25132 5.55071L10.9012 3.91422ZM27.1373 2.73247H9.07628V6.73247H27.1373V2.73247ZM26.0003 2.22312L25.2852 3.97756L28.9893 5.48737L29.7045 3.73293L26.0003 2.22312ZM27.8524 4.97803H30.4V0.978027H27.8524V4.97803ZM28.9528 4.35839L32.0989 7.65701L34.9934 4.89628L31.8473 1.59767L28.9528 4.35839ZM31.5461 6.27665V33.2675H35.5461V6.27665H31.5461ZM32.1294 31.8559L30.3815 33.6101L33.2151 36.4334L34.9629 34.6792L32.1294 31.8559ZM31.7983 33.0217H31.0407V37.0217H31.7983V33.0217ZM32.7458 33.9763L31.5269 31.9884L28.1168 34.0792L29.3357 36.0672L32.7458 33.9763ZM29.8219 31.0338H27.6079V35.0338H29.8219V31.0338ZM25.9616 31.8982L24.5904 33.8861L27.883 36.1574L29.2542 34.1694L25.9616 31.8982ZM26.2367 33.0217H9.47972V37.0217H26.2367V33.0217ZM11.1847 33.9763L9.96585 31.9884L6.55582 34.0792L7.77471 36.0672L11.1847 33.9763ZM8.26084 31.0338H6.04691V35.0338H8.26084V31.0338ZM4.40059 31.8982L3.02934 33.8861L6.32198 36.1574L7.69323 34.1694L4.40059 31.8982ZM4.67566 33.0217H4.64854V37.0217H4.67566V33.0217ZM6.01907 33.5652L4.15471 31.8109L1.41365 34.7241L3.27801 36.4783L6.01907 33.5652ZM4.78418 33.2675V6.39445H0.78418V33.2675H4.78418ZM4.2554 7.74927L7.40151 4.33284L4.45907 1.62322L1.31296 5.03964L4.2554 7.74927ZM5.93029 4.97803H8.28965V0.978027H5.93029V4.97803Z" fill="#CC0035" mask="url(#path-4-outside-2_540_4083)"/>
</svg>
