<svg width="22" height="22" viewBox="0 0 22 22" fill="none" xmlns="http://www.w3.org/2000/svg">
<g clip-path="url(#clip0_555_3969)">
<path d="M6.20508 17.8491V4.15347H15.7921V17.8491H6.20508ZM13.5094 9.63177C12.7542 9.63177 12.1399 10.2461 12.1399 11.0013C12.1399 11.7565 12.7542 12.3709 13.5094 12.3709C14.2646 12.3709 14.879 11.7565 14.879 11.0013C14.879 10.2461 14.2646 9.63177 13.5094 9.63177Z" />
<path d="M18.7602 21.501H3.23851C2.86034 21.501 2.55371 21.1944 2.55371 20.8162V1.18573C2.55371 0.807568 2.8603 0.500935 3.23851 0.500935H18.7603C19.1384 0.500935 19.445 0.807526 19.445 1.18573V20.8162C19.445 21.1944 19.1384 21.501 18.7602 21.501ZM17.1624 3.46837C17.1624 3.09021 16.8558 2.78358 16.4776 2.78358H5.52111C5.14294 2.78358 4.83631 3.09017 4.83631 3.46837V18.5336C4.83631 18.9117 5.1429 19.2184 5.52111 19.2184H16.4776C16.8558 19.2184 17.1624 18.9118 17.1624 18.5336V3.46837Z" />
</g>
<defs>
<clipPath id="clip0_555_3969">
<rect width="21" height="21" fill="white" transform="matrix(1 0 0 -1 0.499023 21.501)"/>
</clipPath>
</defs>
</svg>
