<svg width="22" height="22" viewBox="0 0 22 22" fill="none" xmlns="http://www.w3.org/2000/svg">
<g clip-path="url(#clip0_1100_7481)">
<path d="M6.20557 17.8491V4.15347H15.7926V17.8491H6.20557ZM13.5099 9.63177C12.7547 9.63177 12.1404 10.2461 12.1404 11.0013C12.1404 11.7565 12.7547 12.3709 13.5099 12.3709C14.2651 12.3709 14.8795 11.7565 14.8795 11.0013C14.8795 10.2461 14.2651 9.63177 13.5099 9.63177Z" fill="#CC0035"/>
<path d="M18.7605 21.501H3.23875C2.86059 21.501 2.55396 21.1944 2.55396 20.8162V1.18573C2.55396 0.807568 2.86055 0.500935 3.23875 0.500935H18.7605C19.1387 0.500935 19.4453 0.807526 19.4453 1.18573V20.8162C19.4453 21.1944 19.1387 21.501 18.7605 21.501ZM17.1627 3.46837C17.1627 3.09021 16.8561 2.78358 16.4779 2.78358H5.52135C5.14319 2.78358 4.83656 3.09017 4.83656 3.46837V18.5336C4.83656 18.9117 5.14315 19.2184 5.52135 19.2184H16.4779C16.856 19.2184 17.1627 18.9118 17.1627 18.5336V3.46837Z" fill="#CC0035"/>
</g>
<defs>
<clipPath id="clip0_1100_7481">
<rect width="21" height="21" fill="white" transform="matrix(1 0 0 -1 0.499268 21.501)"/>
</clipPath>
</defs>
</svg>
