<svg width="23" height="27" viewBox="0 0 23 27" fill="none" xmlns="http://www.w3.org/2000/svg">
<path d="M14.7807 7.26252L14.7806 7.26254L14.7847 7.26616C15.3205 7.74547 15.6193 8.43034 15.6193 9.41164C15.6193 10.4022 15.3162 11.0985 14.769 11.5892C14.2287 12.0725 13.3923 12.3639 12.157 12.3639H10.117V6.47536H12.188C13.4091 6.47536 14.2394 6.77017 14.7807 7.26252ZM15.5118 22.5738H16.1618V21.9238V18.9591V18.3091H15.5118H10.117V17.3298H13.332C15.7408 17.3298 17.7561 16.5966 19.3176 15.0917C20.8781 13.5878 21.65 11.6603 21.65 9.36383C21.65 7.04646 20.9113 5.10481 19.4043 3.59738C17.9037 2.08587 15.9403 1.35 13.5793 1.35H4.79821H4.14821V2V12.4276H2H1.35V13.0776V16.6001V17.2501H2H4.14821V18.3091H2H1.35V18.9591V21.9238V22.5738H2H4.14821V25V25.65H4.79821H9.46705H10.117V25V22.5738H15.5118Z" stroke-width="1.3"/>
</svg>
