<svg width="26" height="26" viewBox="0 0 26 26" fill="none" xmlns="http://www.w3.org/2000/svg">
<path d="M6.12972 5.96641C6.30229 6.24436 6.60095 6.39726 6.9067 6.39726C7.07042 6.39726 7.23625 6.35335 7.3857 6.26135C7.81436 5.99742 7.94699 5.43754 7.68192 5.01074C7.48294 4.69039 7.5794 4.24076 7.7619 3.53839C7.95804 2.7837 8.20209 1.84443 7.69072 0.985469C7.43381 0.553848 6.87428 0.411321 6.4405 0.66712C6.00701 0.922968 5.86386 1.48027 6.12082 1.91194C6.24514 2.12087 6.11803 2.61007 5.99513 3.08326C5.77748 3.92085 5.50659 4.96318 6.12972 5.96641Z" />
<path d="M9.05244 5.96628C9.22506 6.24423 9.52372 6.39717 9.82947 6.39717C9.9932 6.39717 10.1589 6.35331 10.3085 6.26126C10.7371 5.99743 10.8698 5.4375 10.6047 5.01075C10.4058 4.6903 10.5022 4.24077 10.6847 3.53836C10.8808 2.78367 11.1248 1.84444 10.6135 0.98548C10.3566 0.55381 9.79671 0.411332 9.36332 0.667131C8.92978 0.922979 8.78663 1.48028 9.04354 1.91191C9.16796 2.12083 9.0408 2.61008 8.91785 3.08323C8.70035 3.92072 8.42951 4.96304 9.05244 5.96628Z" />
<path d="M1.46387 16.0762L2.29081 21.4809C2.29546 21.5111 2.29775 21.5416 2.29775 21.5722C2.29775 22.6074 3.05836 23.4687 4.0523 23.6322L3.41808 16.0762H1.46387Z" />
<path d="M5.27822 23.6606H7.76302V23.2454C7.50958 22.8126 7.29848 22.3485 7.13837 21.8565C6.92923 21.2134 7.04275 20.5031 7.44197 19.9566C7.53618 19.8276 7.64437 19.7114 7.76297 19.6083V16.0762H4.6416L5.27822 23.6606Z" />
<path d="M9.16282 19.0835H11.8476L12.1 16.0762H8.97852V19.0924C9.03958 19.0871 9.10098 19.0835 9.16282 19.0835Z" />
<path d="M13.0674 19.0835H14.8138L15.274 16.0762H13.3198L13.0674 19.0835Z" />
<path d="M15.9933 11.3795L16.192 10.0814C16.2426 9.7504 16.1459 9.41482 15.9268 9.16087C15.7076 8.90692 15.389 8.76123 15.0527 8.76123H13.9346L13.7178 11.3447H15.69C15.7929 11.3447 15.8946 11.3568 15.9933 11.3795Z" />
<path d="M1.03775 11.3447H3.02256L2.80569 8.76123H1.68757C1.35127 8.76123 1.03266 8.90692 0.813495 9.16087C0.594378 9.41482 0.497726 9.7504 0.548325 10.0814L0.746518 11.3768C0.841557 11.3558 0.939089 11.3447 1.03775 11.3447Z" />
<path d="M7.75972 11.3447V8.76123H4.02441L4.24128 11.3447H7.75972Z" />
<path d="M8.97852 11.3447H12.4971L12.7139 8.76123H8.97852V11.3447Z" />
<path d="M25.2903 8.11584C24.999 7.70637 24.4295 7.60964 24.0183 7.89966C23.829 8.03328 19.4805 11.1941 17.8947 20.2343H9.24358C8.95162 20.2343 8.67731 20.3734 8.50562 20.6086C8.33387 20.8436 8.28552 21.1463 8.37543 21.4229C9.16165 23.8398 11.4047 25.4637 13.957 25.4637C16.5016 25.4637 18.7389 23.8495 19.5314 21.4447C19.5517 21.3873 19.5664 21.3273 19.5747 21.2654C19.7936 19.8309 20.0863 18.5533 20.4189 17.4225C21.1526 14.9276 22.0807 13.1483 22.8391 11.9803C22.9873 11.752 23.1332 11.5404 23.2751 11.3447C24.2715 9.97015 25.0678 9.38632 25.0732 9.38247C25.4845 9.09235 25.5816 8.52526 25.2903 8.11584Z" />
<path d="M15.2068 15.367C15.5342 15.367 15.8104 15.1247 15.8518 14.8014L16.1121 12.7647C16.1616 12.3779 15.8589 12.0356 15.4673 12.0356H1.27324C0.881644 12.0356 0.578879 12.3778 0.628354 12.7647L0.888733 14.8014C0.930043 15.1247 1.20636 15.367 1.53362 15.367H15.2068Z" />
</svg>
