<svg width="59" height="58" viewBox="0 0 59 58" fill="none" xmlns="http://www.w3.org/2000/svg">
<path d="M58.0619 14.4802C58.0619 16.9082 57.1715 19.5769 56.0404 22.4087C54.9092 25.2405 53.452 27.9092 52.3183 29.9308C49.2433 35.2708 45.2805 40.528 40.7509 44.8948C36.2213 49.2615 30.8815 52.9035 24.8972 55.0882C21.4184 56.4627 17.9397 58.0002 14.0571 58.0002C12.1159 58.0002 9.36444 57.2729 6.8589 56.2194C4.43102 55.1684 2.24903 53.5507 1.43888 51.6093C1.11533 50.8819 0.711548 49.9113 0.468239 48.7775C0.224934 47.7266 0.0644531 46.6731 0.0644531 45.9457C0.0644531 45.5419 0.0644569 45.1355 0.144695 45.0553C0.388 44.5686 0.954853 44.1648 1.60194 43.761C3.05919 43.0337 3.29991 42.7904 5.48448 41.4961C7.7493 40.2019 10.0944 38.7446 12.1185 37.6936C13.0891 37.1268 13.7362 36.8834 13.9795 36.8834C15.2737 36.8834 16.8914 38.6643 18.2658 40.6057C19.7231 42.547 21.3408 44.3279 22.4719 44.3279C23.0387 44.3279 23.6056 44.0846 24.2527 43.6808C24.8998 43.277 25.5469 42.9534 25.9507 42.7101C33.0686 38.6643 37.8416 33.8938 41.8846 26.8557C42.3712 26.0455 43.5023 24.3475 43.5023 23.457C43.5023 22.4061 42.0451 21.1921 40.5904 19.8979C39.216 18.6839 37.7588 17.2291 37.7588 15.4483C37.7588 15.205 37.9218 14.4776 38.2454 13.4267C38.9727 11.3222 39.9433 8.89684 40.7535 6.55168C41.1573 5.41792 41.4808 4.61032 41.5637 4.20652C41.7267 3.9632 41.807 3.63964 41.8872 3.23584C41.9674 2.83204 42.1305 2.50848 42.2107 2.18492C42.454 1.45756 42.8578 0.89068 43.2616 0.56712C43.6654 0.404046 44.636 0.163317 45.6067 0.080486C46.5773 0.080486 47.711 0.000244141 48.195 0.000244141C48.4383 0.000244141 48.7619 0.000243264 49.0854 0.080486H50.1363C52.7247 1.21424 54.5857 3.47916 55.9601 6.14788C57.2543 8.8166 58.0645 11.8115 58.0645 14.4802H58.0619Z" fill="#CC0035"/>
</svg>
