<svg width="253" height="252" viewBox="0 0 253 252" fill="none" xmlns="http://www.w3.org/2000/svg">
<path d="M246.05 135.894C246.525 131.342 243.435 127.455 238.838 126.974C234.241 126.494 230.414 129.659 229.941 134.189C229.465 138.741 232.558 142.606 237.155 143.086C241.752 143.566 245.577 140.424 246.05 135.894ZM244.289 135.688C243.926 139.169 240.966 141.589 237.351 141.211C233.736 140.834 231.34 137.854 231.703 134.373C232.067 130.892 235.049 128.473 238.642 128.849C242.235 129.224 244.653 132.206 244.289 135.688Z" fill="#343434"/>
<path d="M225.782 156.117C224.688 159.488 225.8 162.822 228.477 164.822L229.093 162.923C227.378 161.376 226.7 159.033 227.475 156.642C228.57 153.271 231.962 151.612 235.398 152.727C238.834 153.842 240.606 157.177 239.512 160.549C238.736 162.939 236.811 164.437 234.514 164.682L233.897 166.582C237.239 166.534 240.096 164.489 241.191 161.117C242.617 156.721 240.397 152.368 235.98 150.934C231.562 149.501 227.209 151.72 225.782 156.117Z" fill="#343434"/>
<path d="M229.701 186.682L235.499 176.172L233.947 175.316L231.508 179.736L219.308 173.006L218.398 174.656L230.598 181.386L228.149 185.826L229.701 186.682Z" fill="#343434"/>
<path d="M205.031 194.199L203.779 195.726L219.905 200.833L221.428 198.977L213.273 184.157L212.02 185.684L214.481 190.112L209.855 195.749L205.031 194.199ZM215.396 191.792L219.289 198.789L211.666 196.336L215.396 191.792Z" fill="#343434"/>
<path d="M197.609 213.001C196.844 214.463 197.033 215.769 198.071 217.007C199.672 218.914 201.824 219.071 204.282 217.008L209.249 212.84L199.153 200.809L194.1 205.049C191.488 207.242 191.246 209.641 192.963 211.686C194.246 213.216 195.868 213.788 197.609 213.001ZM199.342 215.589C198.376 214.437 198.34 213.208 200.162 211.679L203.496 208.881L206.683 212.679L203.315 215.506C201.544 216.992 200.351 216.792 199.342 215.589ZM195.257 206.393L198.866 203.364L202.4 207.575L198.825 210.575C196.934 212.161 195.586 211.916 194.476 210.592C193.437 209.355 193.366 207.979 195.257 206.393Z" fill="#343434"/>
<path d="M183.317 231.475L184.577 215.613L187.69 221.481L190.908 227.214L192.532 226.302L184.845 212.607L182.849 213.727L181.589 229.589L178.475 223.72L175.258 217.988L173.634 218.899L181.321 232.595L183.317 231.475Z" fill="#343434"/>
<path d="M161.387 240.748L172.747 236.871L172.174 235.193L167.397 236.824L162.896 223.637L161.113 224.246L165.613 237.432L160.814 239.07L161.387 240.748Z" fill="#343434"/>
<path d="M144.762 238.201L149.265 237.52L150.201 243.709L152.043 243.431L149.693 227.902L143.415 228.852C139.976 229.372 138.465 231.53 138.888 234.325C139.311 237.12 141.301 238.725 144.762 238.201ZM143.747 230.594L148.117 229.933L149.003 235.789L144.566 236.461C142.193 236.82 141.013 235.773 140.754 234.065C140.496 232.357 141.373 230.953 143.747 230.594Z" fill="#343434"/>
<path d="M110.913 245.32C115.444 245.97 119.447 243.031 120.103 238.456C120.76 233.881 117.745 229.935 113.236 229.288C108.706 228.638 104.725 231.58 104.068 236.155C103.412 240.731 106.405 244.673 110.913 245.32ZM111.187 243.569C107.723 243.072 105.418 240.021 105.934 236.423C106.45 232.825 109.52 230.546 112.985 231.043C116.449 231.54 118.751 234.613 118.238 238.189C117.725 241.764 114.652 244.066 111.187 243.569Z" fill="#343434"/>
<path d="M82.9445 238.106L94.2752 242.069L94.8603 240.396L90.0951 238.729L94.6946 225.577L92.9155 224.955L88.3161 238.107L83.5296 236.433L82.9445 238.106Z" fill="#343434"/>
<path d="M70.3832 223.925C68.8479 223.68 67.498 224.389 66.7732 225.681C65.4993 227.95 66.6469 230.627 69.4056 232.175C72.0274 233.647 74.66 233.632 76.7501 231.101L75.1066 230.178C73.6267 231.715 72.1319 231.673 70.3123 230.652C68.3754 229.565 67.6699 227.934 68.5265 226.408C69.2733 225.077 70.7104 224.855 72.843 226.052L74.506 226.985L75.3077 225.557L73.1555 224.349C70.8664 223.064 70.6071 221.555 71.3759 220.185C72.2764 218.581 74.0996 218.266 76.2909 219.496C78.2866 220.616 79.3476 222.164 78.7152 224.253L80.3587 225.176C81.5182 222.147 79.9955 219.543 77.1389 217.94C74.0867 216.226 71.193 216.66 69.7983 219.145C68.8648 220.808 69.1011 222.588 70.3832 223.925Z" fill="#343434"/>
<path d="M54.5112 214.614L57.9572 217.593L53.864 222.329L55.273 223.547L65.5426 211.664L60.7386 207.512C58.1074 205.238 55.4854 205.492 53.6368 207.631C51.7883 209.77 51.863 212.326 54.5112 214.614ZM44.8331 214.524L55.1027 202.641L53.6938 201.423L43.4241 213.306L44.8331 214.524ZM59.6305 208.897L62.9747 211.787L59.1016 216.269L55.7065 213.334C53.8901 211.765 53.9184 210.188 55.0481 208.881C56.1777 207.574 57.8141 207.327 59.6305 208.897Z" fill="#343434"/>
<path d="M35.9839 193.871C34.5538 193.048 33.2408 193.184 31.9627 194.172C29.9924 195.695 29.7499 197.84 31.7122 200.378L35.6779 205.508L48.1037 195.902L44.0693 190.684C41.9835 187.985 39.5956 187.648 37.4832 189.281C35.9034 190.502 35.267 192.1 35.9839 193.871ZM33.3284 195.499C34.5178 194.579 35.7476 194.593 37.2022 196.474L39.8643 199.918L35.9413 202.951L33.2517 199.471C31.8383 197.643 32.0859 196.459 33.3284 195.499ZM42.6807 191.785L45.5624 195.513L41.2134 198.875L38.3591 195.183C36.8497 193.23 37.1488 191.893 38.5156 190.836C39.7937 189.848 41.1712 189.833 42.6807 191.785Z" fill="#343434"/>
<path d="M6.23524 112.483C5.63736 117.021 8.62218 120.99 13.2045 121.594C17.7869 122.198 21.6978 119.137 22.2928 114.622C22.8906 110.084 19.9029 106.137 15.3205 105.533C10.7382 104.93 6.83019 107.968 6.23524 112.483ZM7.98962 112.737C8.44682 109.267 11.4708 106.927 15.0744 107.402C18.6779 107.877 20.9926 110.92 20.5354 114.39C20.0782 117.86 17.0321 120.197 13.4507 119.725C9.86936 119.254 7.53241 116.207 7.98962 112.737Z" fill="#343434"/>
<path d="M26.947 93.063C28.1298 89.7212 27.106 86.36 24.4831 84.2892L23.8168 86.1716C25.4906 87.7636 26.107 90.1239 25.2686 92.4928C24.0858 95.8346 20.6506 97.4034 17.2453 96.1981C13.84 94.9929 12.1567 91.6124 13.3395 88.2705C14.178 85.9016 16.1419 84.4547 18.4445 84.2701L19.1108 82.3877C15.7692 82.3474 12.8589 84.3161 11.6761 87.658C10.1339 92.0151 12.2383 96.4252 16.6165 97.9748C20.9947 99.5244 25.4048 97.4201 26.947 93.063Z" fill="#343434"/>
<path d="M23.7944 62.3853L17.7272 72.7427L19.2566 73.6386L21.8082 69.2827L33.8305 76.3252L34.7831 74.699L22.7608 67.6565L25.3238 63.2812L23.7944 62.3853Z" fill="#343434"/>
<path d="M48.6107 55.4989L49.9017 54.0051L33.911 48.4886L32.3412 50.3049L40.1162 65.3277L41.4072 63.8339L39.0601 59.344L43.8281 53.827L48.6107 55.4989ZM38.1885 57.6418L34.4745 50.5473L42.0323 53.1942L38.1885 57.6418Z" fill="#343434"/>
<path d="M56.3252 36.9971C57.1271 35.5551 56.9722 34.2443 55.9656 32.9808C54.4139 31.0328 52.2664 30.8216 49.7568 32.8207L44.6851 36.8608L54.4709 49.1452L59.6303 45.0352C62.2978 42.9103 62.6006 40.5177 60.937 38.4293C59.6928 36.8675 58.0858 36.2544 56.3252 36.9971ZM54.6592 34.3656C55.5959 35.5414 55.6003 36.7714 53.7401 38.2532L50.3356 40.9652L47.2461 37.0869L50.6857 34.3469C52.4933 32.907 53.6807 33.1372 54.6592 34.3656ZM58.5084 43.6628L54.8231 46.5985L51.3981 42.299L55.0483 39.3912C56.9787 37.8535 58.3201 38.1331 59.3966 39.4843C60.4031 40.7479 60.4388 42.125 58.5084 43.6628Z" fill="#343434"/>
<path d="M70.9661 18.8771L69.2965 34.701L66.3356 28.7543L63.2671 22.9404L61.6202 23.8096L68.9509 37.6995L70.9748 36.6313L72.6444 20.8074L75.6054 26.7541L78.6738 32.568L80.3207 31.6988L72.99 17.8089L70.9661 18.8771Z" fill="#343434"/>
<path d="M93.674 9.92713L82.2019 13.4597L82.7236 15.1537L87.5483 13.668L91.6486 26.9842L93.4499 26.4295L89.3495 13.1134L94.1956 11.6211L93.674 9.92713Z" fill="#343434"/>
<path d="M109.403 13.0176L104.885 13.5952L104.091 7.38592L102.244 7.62208L104.236 23.2009L110.534 22.3957C113.984 21.9547 115.545 19.8325 115.186 17.0283C114.828 14.2241 112.875 12.5737 109.403 13.0176ZM110.243 20.646L105.858 21.2066L105.107 15.3311L109.558 14.7621C111.94 14.4576 113.095 15.5314 113.314 17.245C113.533 18.9587 112.624 20.3416 110.243 20.646Z" fill="#343434"/>
<path d="M143.533 6.56355C139.021 5.79214 134.941 8.62261 134.162 13.1784C133.383 17.7343 136.291 21.7597 140.78 22.5273C145.292 23.2987 149.35 20.4644 150.129 15.9086C150.908 11.3528 148.022 7.33117 143.533 6.56355ZM143.212 8.3069C146.662 8.8968 148.884 12.0082 148.271 15.591C147.659 19.1737 144.529 21.37 141.079 20.7801C137.629 20.1902 135.411 17.0567 136.019 13.4961C136.628 9.93545 139.762 7.717 143.212 8.3069Z" fill="#343434"/>
<path d="M171.377 14.4047L160.155 10.1456L159.526 11.8028L164.246 13.594L159.302 26.6206L161.064 27.2893L166.008 14.2627L170.749 16.0619L171.377 14.4047Z" fill="#343434"/>
<path d="M183.598 28.8072C185.127 29.0909 186.494 28.4171 187.252 27.1449C188.584 24.9089 187.506 22.2034 184.788 20.5844C182.205 19.0457 179.573 18.9924 177.418 21.4696L179.038 22.4341C180.557 20.9363 182.05 21.0163 183.842 22.0842C185.751 23.221 186.414 24.8696 185.518 26.3731C184.737 27.6839 183.295 27.8693 181.194 26.6176L179.556 25.6416L178.717 27.0487L180.838 28.3118C183.093 29.6553 183.313 31.1707 182.509 32.52C181.568 34.1006 179.737 34.368 177.578 33.0819C175.612 31.9107 174.591 30.3363 175.277 28.2639L173.658 27.2994C172.421 30.2969 173.876 32.9397 176.69 34.6162C179.697 36.4075 182.601 36.0482 184.06 33.6002C185.036 31.9617 184.845 30.1769 183.598 28.8072Z" fill="#343434"/>
<path d="M199.434 38.5545L196.065 35.4896L200.277 30.8592L198.9 29.606L188.331 41.2236L193.028 45.4964C195.6 47.8366 198.228 47.6489 200.13 45.5577C202.033 43.4665 202.023 40.9099 199.434 38.5545ZM209.107 38.8914L198.538 50.509L199.915 51.7622L210.484 40.1446L209.107 38.8914ZM194.171 44.14L190.901 41.1656L194.887 36.7841L198.206 39.8038C199.982 41.4193 199.914 42.9949 198.751 44.2729C197.589 45.5508 195.947 45.7555 194.171 44.14Z" fill="#343434"/>
<path d="M217.554 59.8072C218.962 60.6663 220.278 60.564 221.581 59.609C223.59 58.1366 223.887 55.9993 221.99 53.4116L218.157 48.1819L205.49 57.4671L209.389 62.7872C211.406 65.5378 213.784 65.9363 215.938 64.3578C217.548 63.1773 218.225 61.5961 217.554 59.8072ZM220.25 58.2481C219.037 59.1368 217.808 59.0919 216.402 57.1738L213.829 53.6632L217.828 50.7318L220.428 54.2785C221.794 56.1424 221.516 57.3196 220.25 58.2481ZM210.806 61.7212L208.02 57.9211L212.454 54.6713L215.213 58.4352C216.672 60.4258 216.339 61.7549 214.945 62.7763C213.642 63.7313 212.265 63.7117 210.806 61.7212Z" fill="#343434"/>
</svg>
