<svg width="92" height="92" viewBox="0 0 92 92" fill="none" xmlns="http://www.w3.org/2000/svg">
<g clip-path="url(#clip0_559_6991)">
<path d="M12.2673 72.8333H16.484C22.6173 72.0667 31.8173 68.2333 72.834 26.0667V36.0333L55.9673 52.5167L58.6506 55.2L76.6673 37.5667V22.2333L79.3506 19.1667C80.884 17.6333 80.884 15.3333 79.3506 13.8L78.9673 13.4167L80.5006 11.8833L74.3673 5.75L72.834 7.28333L72.4506 6.9C71.684 6.13333 70.534 5.75 69.7673 5.75C68.6173 5.75 67.8506 6.13333 67.084 6.9L56.3506 17.6333C38.334 36.0333 15.7173 58.65 13.034 65.9333C12.6506 67.4667 12.2673 68.6167 12.2673 70.15V72.8333ZM69.7673 9.58333L76.6673 16.4833C63.634 29.9 53.6673 39.8667 46.0006 47.15L39.484 40.6333C46.0006 33.7333 66.7006 12.65 69.7673 9.58333ZM16.484 67.4667C18.0173 63.6333 26.4506 54.05 36.8006 43.3167L43.3173 49.8333C25.684 66.3167 19.934 68.6167 16.484 69H16.1006C16.1006 68.2333 16.484 67.85 16.484 67.4667ZM86.634 87.7833C79.3506 90.85 71.3006 92 63.2506 91.6167C50.2173 91.6167 44.8506 88.1667 42.5506 86.25C41.4006 85.4833 41.4006 83.5667 42.5506 82.8C42.934 82.4167 43.7006 82.0333 44.4673 82.0333C57.1173 82.0333 61.7173 79.35 61.7173 76.6667C61.7173 74.75 57.1173 72.8333 51.7506 72.8333C45.6173 73.2167 39.8673 75.5167 35.6506 80.1167C30.6673 85.1 24.1506 88.1667 17.2506 88.1667C14.5673 88.1667 11.884 88.1667 9.20062 87.4C6.13396 86.6333 3.83396 83.5667 4.21729 80.1167C4.21729 76.6667 7.28396 74.3667 8.81729 73.6L11.5006 76.2833L11.1173 76.6667C8.81729 78.2 7.66729 79.35 7.66729 80.1167C7.66729 81.65 8.43396 83.1833 10.3506 83.5667C12.2673 84.3333 14.5673 84.3333 16.8673 84.3333C23.0006 83.95 28.7506 81.65 32.9673 77.05C37.9506 72.0667 44.4673 69 51.3673 69C57.5006 69 65.1673 70.9167 65.1673 76.6667C65.1673 79.7333 62.8673 84.7167 48.684 85.8667C53.284 87.4 58.2673 88.1667 63.2506 88.1667C70.9173 88.55 78.2006 87.4 85.484 84.7167L86.634 87.7833Z" fill="#CC0035"/>
<path d="M86.6338 87.7833C79.3504 90.85 71.3004 92 63.2504 91.6167C50.2171 91.6167 44.8504 88.1667 42.5504 86.25C41.4004 85.4833 41.4004 83.5667 42.5504 82.8C42.9338 82.4167 43.7004 82.0333 44.4671 82.0333C57.1171 82.0333 61.7171 79.35 61.7171 76.6667C61.7171 74.75 57.1171 72.8333 51.7504 72.8333C45.6171 73.2167 39.8671 75.5167 35.6504 80.1167C30.6671 85.1 24.1504 88.1667 17.2504 88.1667C14.5671 88.1667 11.8838 88.1667 9.20042 87.4C6.13376 86.6333 3.83376 83.5667 4.21709 80.1167C4.21709 76.6667 7.28376 74.3667 8.81709 73.6L11.5004 76.2833L11.1171 76.6667C8.81709 78.2 7.66709 79.35 7.66709 80.1167C7.66709 81.65 8.43376 83.1833 10.3504 83.5667C12.2671 84.3333 14.5671 84.3333 16.8671 84.3333C23.0004 83.95 28.7504 81.65 32.9671 77.05C37.9504 72.0667 44.4671 69 51.3671 69C57.5004 69 65.1671 70.9167 65.1671 76.6667C65.1671 79.7333 62.8671 84.7167 48.6838 85.8667C53.2838 87.4 58.2671 88.1667 63.2504 88.1667C70.9171 88.55 78.2004 87.4 85.4838 84.7167L86.6338 87.7833Z" fill="#CC0035"/>
</g>
<defs>
<clipPath id="clip0_559_6991">
<rect width="92" height="92" fill="white"/>
</clipPath>
</defs>
</svg>
