<svg width="207" height="207" viewBox="0 0 207 207" fill="none" xmlns="http://www.w3.org/2000/svg">
<path d="M199.038 110.904C199.374 111.968 200.09 112.5 201.178 112.593C202.855 112.735 203.956 111.779 204.14 109.618L204.511 105.251L193.934 104.351L193.556 108.794C193.36 111.091 194.395 112.351 196.193 112.504C197.538 112.618 198.585 112.114 199.038 110.904ZM201.104 111.308C200.092 111.222 199.486 110.653 199.622 109.051L199.871 106.12L203.211 106.404L202.959 109.365C202.827 110.922 202.162 111.398 201.104 111.308ZM194.751 108.88L195.021 105.707L198.723 106.022L198.456 109.165C198.314 110.827 197.554 111.356 196.39 111.257C195.302 111.165 194.609 110.543 194.751 108.88Z" fill="#343434"/>
<path d="M197.544 125.934L198.383 122.972L202.454 124.125L202.797 122.914L192.582 120.021L191.413 124.151C190.772 126.412 191.678 127.945 193.516 128.466C195.355 128.987 196.899 128.211 197.544 125.934ZM200.255 131.888L190.041 128.995L189.698 130.206L199.912 133.099L200.255 131.888ZM192.578 124.433L193.392 121.559L197.244 122.65L196.418 125.568C195.976 127.129 195.002 127.563 193.878 127.245C192.754 126.926 192.136 125.995 192.578 124.433Z" fill="#343434"/>
<path d="M187.251 159.647L184.908 154.035L190.99 154.047L191.849 152.76L183.019 146.866L182.321 147.913L189.8 152.906L183.289 152.881L183.222 152.982L185.741 158.986L178.262 153.992L177.563 155.039L186.392 160.934L187.251 159.647Z" fill="#343434"/>
<path d="M176.816 173.041C179.02 170.869 179.076 167.513 176.883 165.288C174.69 163.063 171.334 163.07 169.141 165.231C166.937 167.403 166.892 170.749 169.085 172.974C171.278 175.199 174.624 175.202 176.816 173.041ZM175.986 172.177C174.301 173.837 171.717 173.829 169.992 172.08C168.267 170.33 168.297 167.745 169.982 166.085C171.667 164.424 174.262 164.443 175.976 166.182C177.69 167.921 177.671 170.516 175.986 172.177Z" fill="#343434"/>
<path d="M148.417 181.844L155.501 183.776L154.237 190.724L155.571 189.882L156.81 183.236L159.457 187.43L160.521 186.758L157.875 182.564L164.407 184.305L165.741 183.464L158.925 181.614L160.229 174.389L158.883 175.239L157.599 182.128L154.855 177.78L153.791 178.452L156.535 182.8L149.764 180.994L148.417 181.844Z" fill="#343434"/>
<path d="M138.598 196.771L139.023 197.892L145.318 195.502L141.552 185.577L135.256 187.966L135.681 189.087L140.8 187.144L142.097 190.561L137.319 192.374L137.744 193.495L142.522 191.681L143.717 194.829L138.598 196.771Z" fill="#343434"/>
<path d="M122.331 202.573L130.289 200.992L130.056 199.817L126.709 200.482L124.874 191.244L123.624 191.493L125.46 200.73L122.098 201.398L122.331 202.573Z" fill="#343434"/>
<path d="M106.158 203.087L106.191 204.285L112.922 204.103L112.635 193.491L105.904 193.673L105.936 194.87L111.409 194.722L111.508 198.376L106.399 198.514L106.431 199.712L111.54 199.574L111.631 202.939L106.158 203.087Z" fill="#343434"/>
<path d="M79.9561 196.422C78.8508 196.57 78.2033 197.184 77.9257 198.24C77.4977 199.868 78.2515 201.117 80.3489 201.669L84.5878 202.783L87.2867 192.516L82.9745 191.382C80.745 190.796 79.3264 191.599 78.8676 193.345C78.5245 194.65 78.8421 195.768 79.9561 196.422ZM79.204 198.388C79.4624 197.405 80.1268 196.906 81.6816 197.315L84.5271 198.063L83.675 201.304L80.8002 200.548C79.2894 200.151 78.9342 199.415 79.204 198.388ZM82.6845 192.545L85.7647 193.354L84.8201 196.948L81.7693 196.146C80.1558 195.722 79.765 194.882 80.0619 193.753C80.3395 192.697 81.0711 192.121 82.6845 192.545Z" fill="#343434"/>
<path d="M65.4435 192.372L68.2176 193.707L66.3826 197.519L67.5169 198.065L72.1207 188.5L68.2533 186.638C66.1352 185.619 64.4693 186.248 63.6406 187.97C62.8119 189.691 63.3117 191.346 65.4435 192.372ZM59.1126 194.021L63.7164 184.455L62.5822 183.909L57.9784 193.475L59.1126 194.021ZM67.7748 187.738L70.4669 189.033L68.7306 192.641L65.9975 191.326C64.5353 190.622 64.2755 189.588 64.7819 188.536C65.2883 187.483 66.3126 187.034 67.7748 187.738Z" fill="#343434"/>
<path d="M48.0327 182.559L50.5875 184.46L48.7674 186.906L43.9984 183.356L43.2831 184.317L48.0521 187.867L49.0618 188.618L55.4003 180.102L51.8966 177.495C50.0109 176.091 48.2558 176.392 47.1149 177.924C45.9739 179.457 46.1348 181.146 48.0327 182.559ZM51.2177 178.483L53.6752 180.312L51.2847 183.524L48.7664 181.649C47.4647 180.68 47.4305 179.634 48.1277 178.697C48.825 177.761 49.916 177.514 51.2177 178.483Z" fill="#343434"/>
<path d="M32.2723 174.823L35.2081 177.912L42.9032 170.599L42.0361 169.687L39.3098 172.278L37.2412 170.101C35.6218 168.397 33.6245 168.475 32.2064 169.823C30.7883 171.171 30.653 173.12 32.2723 174.823ZM36.4041 170.959L38.4413 173.103L35.2094 176.175L33.1721 174.031C32.0124 172.811 32.2156 171.572 33.095 170.736C33.9745 169.9 35.2444 169.739 36.4041 170.959Z" fill="#343434"/>
<path d="M27.8101 152.46L27.0814 151.342L20.5067 160.696L21.3929 162.056L32.6051 159.816L31.8764 158.698L28.521 159.382L25.8295 155.253L27.8101 152.46ZM27.2523 159.63L21.9494 160.715L25.0825 156.301L27.2523 159.63Z" fill="#343434"/>
<path d="M10.3155 141.83L13.4483 149.314L14.5535 148.852L13.236 145.704L21.9235 142.068L21.4317 140.892L12.7441 144.529L11.4207 141.367L10.3155 141.83Z" fill="#343434"/>
<path d="M10.0867 127.905L10.7784 130.905L6.65538 131.855L6.93821 133.082L17.2828 130.696L16.3184 126.514C15.7902 124.224 14.2581 123.316 12.3961 123.746C10.534 124.175 9.55508 125.599 10.0867 127.905ZM15.1612 126.828L15.8325 129.739L11.9311 130.639L11.2496 127.683C10.885 126.102 11.5296 125.253 12.6675 124.991C13.8054 124.728 14.7965 125.247 15.1612 126.828Z" fill="#343434"/>
<path d="M3.07615 96.0506L7.88135 99.7793L2.58306 102.766L2.46978 104.309L13.0573 105.086L13.1494 103.831L4.18033 103.172L9.85828 99.9853L9.86716 99.8643L4.71562 95.8821L13.6847 96.5406L13.7769 95.2852L3.18942 94.5079L3.07615 96.0506Z" fill="#343434"/>
<path d="M16.6759 79.4618L17.0298 78.1751L5.66777 79.4538L5.23739 81.0184L14.347 87.9283L14.7009 86.6415L11.964 84.5832L13.2713 79.8309L16.6759 79.4618ZM10.9376 83.7975L6.60978 80.5466L11.9914 79.9664L10.9376 83.7975Z" fill="#343434"/>
<path d="M12.9832 59.3848L9.46455 66.6958L10.5441 67.2154L12.0239 64.1407L20.5101 68.2249L21.0626 67.077L12.5764 62.9928L14.0627 59.9044L12.9832 59.3848Z" fill="#343434"/>
<path d="M22.1283 46.2829L21.1492 45.5924L17.2682 51.095L25.9435 57.2137L29.8245 51.7111L28.8454 51.0205L25.6899 55.4945L22.7031 53.3879L25.6488 49.2114L24.6698 48.5208L21.7241 52.6974L18.9728 50.7569L22.1283 46.2829Z" fill="#343434"/>
<path d="M30.3186 34.3278L27.3052 37.3412L34.8119 44.8478L35.7019 43.9577L33.0424 41.2982L35.1657 39.1749C36.8279 37.5128 36.6992 35.5181 35.3159 34.1348C33.9325 32.7514 31.9808 32.6656 30.3186 34.3278ZM34.2864 38.3599L32.1953 40.4511L29.0425 37.2983L31.1336 35.2071C32.3239 34.0168 33.5679 34.1884 34.4258 35.0463C35.2837 35.9042 35.4767 37.1696 34.2864 38.3599Z" fill="#343434"/>
<path d="M45.8405 20.9817L45.9757 31.7361L43.5161 27.9793L40.995 24.3202L39.9585 25.0344L45.9816 33.7763L47.2555 32.8986L47.1203 22.1442L49.5798 25.901L52.101 29.5601L53.1375 28.8459L47.1144 20.104L45.8405 20.9817Z" fill="#343434"/>
<path d="M67.1675 21.0887L68.3887 20.5505L60.2219 12.5483L58.737 13.2027L59.1321 24.6296L60.3534 24.0914L60.221 20.6695L64.7313 18.6819L67.1675 21.0887ZM60.1819 19.3774L59.9696 13.9688L63.818 17.7751L60.1819 19.3774Z" fill="#343434"/>
<path d="M75.7961 6.5445L76.2396 13.9236C76.3459 15.7655 76.1016 16.3341 75.2733 16.5217C75.1402 16.5519 74.8262 16.6075 74.6897 16.6229L74.9444 17.747C75.1582 17.7296 75.5609 17.6539 75.768 17.607C77.0696 17.3121 77.6295 16.2833 77.4692 13.7228L77.0962 7.47838L81.0601 6.58023L83.1413 15.7653L84.3689 15.4871L82.023 5.1336L75.7961 6.5445Z" fill="#343434"/>
<path d="M112.046 12.6387L112.844 3.25467L106.527 2.71743L104.715 9.88436C104.4 11.0904 104.136 11.6919 103.735 11.9318L102.224 11.8033L101.933 15.2184L103.187 15.3251L103.376 13.1037L112.186 13.853L111.997 16.0744L113.266 16.1823L113.557 12.7672L112.046 12.6387ZM105.948 10.0653L107.484 4.00118L111.488 4.34177L110.792 12.532L105.155 12.0526C105.462 11.6677 105.698 11.0334 105.948 10.0653Z" fill="#343434"/>
<path d="M126.114 5.21635L122.948 11.8965C122.154 13.5619 121.666 13.9423 120.85 13.7078C120.719 13.6701 120.417 13.5676 120.29 13.5153L119.972 14.6231C120.167 14.7109 120.557 14.8385 120.761 14.8972C122.043 15.2657 123.03 14.6339 124.123 12.3128L126.804 6.66102L130.71 7.78346L128.109 16.8351L129.319 17.1827L132.251 6.97958L126.114 5.21635Z" fill="#343434"/>
<path d="M144.888 11.5925C142.785 10.5418 141.063 11.2069 140.209 12.9162C139.436 14.4628 139.782 16.043 141.329 17.121L136.561 19.2993L137.959 19.9975L142.611 17.8125L144.578 18.7954L142.775 22.4041L143.901 22.9667L148.646 13.4703L144.888 11.5925ZM142.563 16.5171C141.057 15.7646 140.799 14.5845 141.335 13.5128C141.87 12.4411 142.955 11.966 144.461 12.7185L146.985 13.9794L145.086 17.7779L142.563 16.5171Z" fill="#343434"/>
<path d="M163.092 36.0644C164.829 37.7151 167.186 38.0092 169.187 36.9607L168.208 36.0308C166.765 36.6254 165.138 36.3557 163.907 35.1855C162.17 33.5348 162.148 30.9823 163.83 29.2124C165.512 27.4425 168.062 27.3347 169.799 28.9855C171.03 30.1556 171.382 31.7664 170.862 33.2386L171.841 34.1684C172.786 32.1169 172.372 29.7782 170.636 28.1275C168.371 25.9753 165.069 26.0593 162.906 28.3348C160.744 30.6104 160.828 33.9122 163.092 36.0644Z" fill="#343434"/>
<path d="M185.363 44.787L180.59 38.2256L179.621 38.9304L181.629 41.6898L174.013 47.2299L174.762 48.2601L182.378 42.72L184.394 45.4917L185.363 44.787Z" fill="#343434"/>
<path d="M192.847 59.5513L193.921 59.0198L190.933 52.9852L181.419 57.6952L184.407 63.7298L185.48 63.1982L183.051 58.2917L186.327 56.6702L188.594 61.2504L189.668 60.7189L187.401 56.1386L190.418 54.6448L192.847 59.5513Z" fill="#343434"/>
<path d="M200.281 75.3645L195.922 76.6167L194.222 70.6989L198.58 69.4466L198.233 68.2368L188.029 71.1686L188.377 72.3784L193.07 71.0298L194.771 76.9476L190.077 78.2962L190.425 79.506L200.628 76.5743L200.281 75.3645Z" fill="#343434"/>
</svg>
