<svg width="71" height="34" viewBox="0 0 71 34" fill="none" xmlns="http://www.w3.org/2000/svg">
<path d="M9.70102 1L69.2231 0.999997L69.8715 1.39367L69.2231 1L63.7593 10L2.14522 10L9.70102 1Z" stroke="#343434" stroke-width="2"/>
<path d="M24.6463 5.5C24.6463 5.52511 24.6327 5.66151 24.3502 5.88988C24.0742 6.11305 23.629 6.34724 23.0123 6.55811C21.7864 6.97733 20.0444 7.25 18.0854 7.25C16.1263 7.25 14.3844 6.97733 13.1584 6.55811C12.5418 6.34724 12.0965 6.11305 11.8205 5.88988C11.538 5.66151 11.5244 5.52511 11.5244 5.5C11.5244 5.47489 11.538 5.33849 11.8205 5.11012C12.0965 4.88695 12.5418 4.65276 13.1584 4.44189C14.3844 4.02267 16.1263 3.75 18.0854 3.75C20.0444 3.75 21.7864 4.02267 23.0123 4.44189C23.629 4.65276 24.0742 4.88695 24.3502 5.11012C24.6327 5.33849 24.6463 5.47489 24.6463 5.5Z" stroke="#CC0035" stroke-width="1.5"/>
<path d="M41.577 5.5C41.577 5.52511 41.5634 5.66151 41.2809 5.88988C41.0049 6.11305 40.5596 6.34724 39.943 6.55811C38.717 6.97733 36.9751 7.25 35.016 7.25C33.057 7.25 31.315 6.97733 30.0891 6.55811C29.4724 6.34724 29.0272 6.11305 28.7511 5.88988C28.4687 5.66151 28.4551 5.52511 28.4551 5.5C28.4551 5.47489 28.4687 5.33849 28.7511 5.11012C29.0272 4.88695 29.4724 4.65276 30.0891 4.44189C31.315 4.02267 33.057 3.75 35.016 3.75C36.9751 3.75 38.717 4.02267 39.943 4.44189C40.5596 4.65276 41.0049 4.88695 41.2809 5.11012C41.5634 5.33849 41.577 5.47489 41.577 5.5Z" stroke="#CC0035" stroke-width="1.5"/>
<path d="M58.5066 5.5C58.5066 5.52511 58.4931 5.66151 58.2106 5.88988C57.9345 6.11305 57.4893 6.34724 56.8727 6.55811C55.6467 6.97733 53.9048 7.25 51.9457 7.25C49.9867 7.25 48.2447 6.97733 47.0188 6.55811C46.4021 6.34724 45.9569 6.11305 45.6808 5.88988C45.3984 5.66151 45.3848 5.52511 45.3848 5.5C45.3848 5.47489 45.3984 5.33849 45.6808 5.11012C45.9569 4.88695 46.4021 4.65276 47.0188 4.44189C48.2447 4.02267 49.9867 3.75 51.9457 3.75C53.9048 3.75 55.6467 4.02267 56.8727 4.44189C57.4893 4.65276 57.9345 4.88695 58.2106 5.11012C58.4931 5.33849 58.5066 5.47489 58.5066 5.5Z" stroke="#CC0035" stroke-width="1.5"/>
<path d="M2.1543 10L63.644 10V33H2.1543L2.1543 10Z" stroke="#343434" stroke-width="2"/>
<path d="M63.875 32.9998L69.5014 23.7393C69.5965 23.5828 69.6468 23.4032 69.6468 23.22V1" stroke="#343434" stroke-width="2" stroke-linecap="round"/>
</svg>
