<?xml version="1.0" encoding="UTF-8"?><svg id="_лой_2" xmlns="http://www.w3.org/2000/svg" viewBox="0 0 193.61 192.12"><defs><style>.cls-1{fill:#343434;}</style></defs><g id="_лой_1-2"><path class="cls-1" d="M30.05,27.13l1.61,8.86-2.27-2.61-2.81-2.99-1.15,1.08,6.72,7.14,1.36-1.28-1.61-8.88,2.27,2.63,2.81,2.99,1.15-1.08-6.72-7.14-1.36,1.28Z"/><path class="cls-1" d="M44.52,15.64l2.15,3.38-4.24,2.7-2.15-3.38-1.33,.85,5.27,8.26,1.33-.85-2.3-3.61,4.24-2.7,2.3,3.61,1.33-.85-5.27-8.26-1.33,.85Z"/><path class="cls-1" d="M60.32,7.36l1.5,3.71-4.66,1.88-1.5-3.71-1.47,.59,3.67,9.09,1.47-.59-1.61-3.97,4.66-1.88,1.61,3.97,1.47-.59-3.67-9.09-1.47,.59Z"/><path class="cls-1" d="M75.75,2.22c-2.82,.53-4.59,3.09-4.06,5.92,.53,2.83,3.11,4.57,5.93,4.04,2.82-.53,4.58-3.08,4.06-5.92-.55-2.83-3.11-4.57-5.93-4.04Zm.28,1.49c1.94-.36,3.69,.84,4.07,2.85,.38,2.01-.81,3.77-2.75,4.14-1.95,.37-3.71-.84-4.08-2.85-.38-2.01,.82-3.77,2.77-4.14Z"/><path class="cls-1" d="M96.79,4.58c.88-.4,1.3-1.05,1.31-2.04,0-1.61-1.07-2.52-2.97-2.53h-4.17l-.03,9.79h4.23c2.06,.02,3.25-1.03,3.26-2.75,0-1.19-.51-2.13-1.61-2.47Zm-.29-1.79c0,.8-.42,1.26-1.57,1.25h-2.41V1.52h2.4c1.13,.01,1.58,.42,1.58,1.27Zm-1.39,5.51h-2.6v-2.81h2.6c1.29,.01,1.71,.53,1.7,1.43,0,.84-.41,1.38-1.7,1.38Z"/><path class="cls-1" d="M113.21,11.24l1.65,.3-1.99-10.32-1.98-.36-5.48,8.97,1.65,.3,1.45-2.41,4.19,.76,.51,2.77Zm-3.87-4.89l2.26-3.76,.8,4.31-3.06-.55Z"/><path class="cls-1" d="M129.84,14.39l3.01-7.72-1.47-.57-3.01,7.72-4.31-1.68,3.01-7.72-1.47-.57-3.01,7.72-.55,1.41,7.25,2.83-.73,1.87,1.47,.57,1.28-3.27-1.47-.57Z"/><path class="cls-1" d="M148.49,14.47l-8.17,3.79,1.96-2.85,2.18-3.47-1.34-.84-5.22,8.3,1.58,.99,8.19-3.8-1.98,2.86-2.18,3.47,1.34,.84,5.22-8.3-1.58-.99Z"/><path class="cls-1" d="M163.12,25.53l-8.74,2.19,2.46-2.43,2.8-3-1.16-1.08-6.68,7.17,1.36,1.27,8.76-2.19-2.48,2.44-2.8,3,1.16,1.08,6.68-7.17-1.36-1.27Z"/><path class="cls-1" d="M183.56,112.16c-.46,2.22,.52,4.27,2.38,5.28l.34-1.66c-1.02-.74-1.52-1.97-1.24-3.33,.41-1.96,2.18-3.07,4.18-2.65,2,.42,3.19,2.13,2.78,4.09-.28,1.36-1.23,2.29-2.46,2.56l-.34,1.66c2.11-.19,3.82-1.68,4.28-3.9,.59-2.85-1.1-5.39-3.94-5.98-2.84-.59-5.4,1.07-5.99,3.92Z"/><path class="cls-1" d="M186.15,133.53l1.4,.57,2.41-5.93-9.08-3.7-2.41,5.93,1.4,.57,1.82-4.46,2.53,1.03-1.68,4.14,1.4,.57,1.68-4.14,2.35,.96-1.82,4.46Z"/><path class="cls-1" d="M181.42,146.73l2.11-3.42-8.34-5.15-.83,1.35,2.82,1.74-1.28,2.07c-1.13,1.82-.67,3.64,.96,4.64,1.64,1.02,3.42,.59,4.55-1.24Zm-4.2-2.66l1.25-2.03,2.94,1.82-1.25,2.02c-.68,1.1-1.61,1.23-2.46,.7-.85-.52-1.16-1.42-.48-2.52Z"/><path class="cls-1" d="M167.16,158.48c-.29,.93-.09,1.67,.65,2.33,1.2,1.08,2.6,.88,3.87-.54l2.79-3.11-7.3-6.54-2.82,3.15c-1.37,1.53-1.39,3.12-.1,4.27,.89,.79,1.93,1.04,2.92,.43Zm1.53,.98c-.59-.53-.66-1.15,.11-2.01l1.61-1.79,1.88,1.68-1.6,1.78c-.76,.85-1.36,.91-1.99,.34Zm-3.19-4.7l1.74-1.94,2.09,1.87-1.73,1.93c-.86,.96-1.52,.93-2.19,.33-.62-.56-.76-1.23,.1-2.19Z"/><path class="cls-1" d="M157.83,173.64l-.76-8.98,2.01,2.82,2.51,3.24,1.25-.97-6-7.75-1.47,1.14,.75,9-2-2.84-2.51-3.24-1.25,.97,6,7.75,1.47-1.14Z"/><path class="cls-1" d="M139.94,173.72c-2.02,1.03-3.01,3.07-2.64,5.16l1.51-.77c-.06-1.26,.59-2.42,1.83-3.05,1.78-.91,3.75-.21,4.68,1.61,.93,1.82,.32,3.82-1.46,4.73-1.24,.63-2.56,.47-3.54-.32l-1.51,.77c1.47,1.53,3.7,1.94,5.72,.91,2.6-1.32,3.52-4.22,2.21-6.81-1.31-2.58-4.2-3.55-6.8-2.23Z"/><path class="cls-1" d="M69.94,180.42l2.67,6.14-5.49,3.25,1.89,.61,5.15-3.05-1.38,4.26,1.51,.49,3.01-9.33-1.5-.49-1.44,4.45-2.51-5.72-1.91-.61Z"/><path class="cls-1" d="M56.46,174.66l-1.48-.79-1.29,10.43,1.78,.95,7.98-6.84-1.48-.79-2.12,1.85-3.75-2.01,.37-2.79Zm2.17,5.85l-3.31,2.88,.57-4.35,2.74,1.47Z"/><path class="cls-1" d="M38.17,174.51l2.94-3.69c.51,.06,1.18,.4,1.86,.95,1.03,.82,1.35,1.72,.43,2.87l-1.97,2.48,1.25,.99,2.09-2.62c1.44-1.81,.98-3.45-.61-4.71-.82-.65-1.55-.97-2.13-1.1l2.25-2.82-1.24-.99-6.11,7.66,1.24,.99Z"/><path class="cls-1" d="M25.99,161.14l-1.13,1.01,4.26,4.77,7.31-6.52-4.26-4.77-1.13,1.01,3.21,3.59-2.04,1.82-2.97-3.33-1.13,1.01,2.97,3.33-1.89,1.69-3.21-3.59Z"/><path class="cls-1" d="M24.72,145.85c-1.18-1.94-3.3-2.76-5.35-2.23l.88,1.44c1.25-.16,2.46,.4,3.18,1.58,1.04,1.71,.51,3.73-1.24,4.79-1.74,1.07-3.79,.63-4.83-1.08-.72-1.18-.67-2.51,.04-3.55l-.88-1.44c-1.41,1.58-1.64,3.84-.45,5.78,1.52,2.48,4.49,3.18,6.96,1.67,2.47-1.51,3.21-4.47,1.69-6.96Z"/><path class="cls-1" d="M6.42,131.78l2.7,7.06,1.41-.54-1.07-2.79,7.74-2.96-.57-1.48-7.74,2.96-1.07-2.8-1.41,.54Z"/><path class="cls-1" d="M6.7,116.51c-.57-.79-1.28-1.07-2.26-.88-1.58,.31-2.26,1.55-1.89,3.42l.82,4.09,9.61-1.92-.83-4.15c-.4-2.02-1.66-2.98-3.35-2.64-1.17,.23-1.99,.92-2.1,2.07Zm-1.7,.64c.78-.16,1.32,.16,1.54,1.29l.47,2.36-2.47,.49-.47-2.35c-.22-1.11,.09-1.63,.93-1.8Zm5.68,.27l.51,2.55-2.75,.55-.51-2.54c-.25-1.26,.17-1.78,1.05-1.95,.82-.16,1.44,.13,1.69,1.39Z"/><path class="cls-1" d="M0,101.74c.02,2.87,2.22,5.07,5.11,5.04s5.05-2.25,5.03-5.12c-.02-2.87-2.22-5.05-5.11-5.04C2.15,96.65-.02,98.87,0,101.74Zm1.51-.01c-.02-1.97,1.49-3.48,3.53-3.5,2.04-.01,3.57,1.47,3.58,3.45,.02,1.99-1.49,3.5-3.53,3.51-2.04,.02-3.57-1.47-3.58-3.46Z"/></g></svg>