<svg width="245" height="246" viewBox="0 0 245 246" fill="none" xmlns="http://www.w3.org/2000/svg">
<path d="M244.336 111.973L242.818 101.107L242.56 99.2629L227.006 101.436L227.264 103.28L241.063 101.352L242.323 110.374L228.524 112.302L228.781 114.146L244.336 111.973Z" fill="#343434"/>
<path d="M244.927 125.767C245.046 121.191 241.66 117.557 237.04 117.438C232.419 117.318 228.852 120.772 228.734 125.325C228.615 129.9 232.001 133.512 236.621 133.631C241.241 133.751 244.809 130.32 244.927 125.767ZM243.156 125.698C243.065 129.197 240.302 131.842 236.669 131.747C233.035 131.653 230.414 128.87 230.505 125.371C230.595 121.872 233.381 119.228 236.992 119.322C240.603 119.415 243.246 122.199 243.156 125.698Z" fill="#343434"/>
<path d="M243.035 143.456L232.792 139.621C230.238 138.659 229.616 137.987 229.86 136.754C229.9 136.556 230.013 136.098 230.074 135.904L228.402 135.573C228.297 135.873 228.157 136.463 228.096 136.771C227.713 138.708 228.767 140.083 232.325 141.404L240.991 144.652L239.824 150.551L226.156 147.845L225.794 149.672L241.201 152.722L243.035 143.456Z" fill="#343434"/>
<path d="M235.166 170.779L235.875 168.816L229.915 161.746L239.027 160.102L239.744 158.119L228.388 160.096L224.136 155.098L223.418 157.082L235.166 170.779Z" fill="#343434"/>
<path d="M228.723 183.462L221.747 179.713C221.693 178.818 222.044 177.453 222.862 175.931C223.967 173.876 225.528 173.008 227.88 174.272L232.366 176.683L233.258 175.023L228.594 172.517C225.393 170.796 222.968 171.989 221.46 174.796C220.557 176.476 220.245 177.862 220.185 178.874L214.889 176.027L214.007 177.668L227.842 185.102L228.723 183.462Z" fill="#343434"/>
<path d="M204.837 190.703L203.655 192.284L219.995 196.66L221.433 194.737L212.618 180.3L211.435 181.881L214.093 186.194L209.726 192.034L204.837 190.703ZM215.083 187.831L219.288 194.646L211.562 192.538L215.083 187.831Z" fill="#343434"/>
<path d="M204.986 213.345L213.467 204.849L212.212 203.597L208.646 207.17L198.785 197.326L197.453 198.66L207.314 208.504L203.732 212.092L204.986 213.345Z" fill="#343434"/>
<path d="M192.057 215.786L195.684 213.031L199.47 218.015L200.953 216.889L191.453 204.382L186.397 208.223C183.627 210.327 183.334 212.945 185.044 215.196C186.754 217.447 189.27 217.903 192.057 215.786ZM187.523 209.594L191.042 206.92L194.625 211.637L191.052 214.351C189.14 215.804 187.603 215.449 186.558 214.074C185.513 212.698 185.611 211.046 187.523 209.594Z" fill="#343434"/>
<path d="M168.751 236.333L170.637 235.44L171.383 226.222L179.01 231.471L180.916 230.568L171.46 223.976L171.96 217.432L170.054 218.336L168.751 236.333Z" fill="#343434"/>
<path d="M153.089 233.743C151.814 234.79 151.477 236.066 151.95 237.611C152.678 239.992 154.599 240.977 157.667 240.038L163.867 238.141L159.272 223.123L152.964 225.053C149.703 226.05 148.543 228.165 149.324 230.718C149.909 232.628 151.179 233.788 153.089 233.743ZM153.673 236.802C153.233 235.365 153.68 234.219 155.955 233.523L160.117 232.249L161.568 236.991L157.363 238.277C155.153 238.954 154.133 238.304 153.673 236.802ZM153.504 226.741L158.009 225.362L159.618 230.619L155.155 231.984C152.795 232.706 151.65 231.954 151.144 230.302C150.672 228.757 151.144 227.463 153.504 226.741Z" fill="#343434"/>
<path d="M136.83 242.689L137.116 244.438L146.947 242.832L144.415 227.332L134.583 228.938L134.869 230.687L142.863 229.382L143.735 234.718L136.272 235.937L136.558 237.686L144.02 236.467L144.823 241.383L136.83 242.689Z" fill="#343434"/>
<path d="M118.292 231.399L118.568 245.329L127.945 245.143L129.503 234.318C129.781 232.495 130.077 231.569 130.63 231.154L132.873 231.11L132.772 226.04L130.91 226.077L130.976 229.375L117.898 229.634L117.832 226.336L115.948 226.374L116.049 231.443L118.292 231.399ZM127.661 234.243L126.339 243.402L120.395 243.52L120.154 231.362L128.521 231.196C128.129 231.81 127.879 232.78 127.661 234.243Z" fill="#343434"/>
<path d="M104.098 244.098C108.621 244.801 112.658 241.909 113.369 237.342C114.079 232.775 111.11 228.794 106.61 228.094C102.087 227.391 98.0715 230.286 97.3615 234.853C96.6515 239.42 99.5975 243.398 104.098 244.098ZM104.393 242.35C100.934 241.812 98.6655 238.734 99.2235 235.143C99.7825 231.551 102.879 229.308 106.337 229.846C109.796 230.384 112.061 233.483 111.506 237.053C110.951 240.622 107.851 242.888 104.393 242.35Z" fill="#343434"/>
<path d="M78.9524 237.309L86.0654 231.798L88.3934 240.49L90.5614 241.221L95.5764 226.337L93.8124 225.743L89.5634 238.351L87.0894 229.042L86.9194 228.984L79.3154 234.898L83.5634 222.29L81.7994 221.695L76.7844 236.579L78.9524 237.309Z" fill="#343434"/>
<path d="M68.1555 232.516L74.7624 223.8C76.4164 221.629 77.2384 221.225 78.3494 221.812C78.5274 221.906 78.9344 222.146 79.1024 222.26L79.8984 220.753C79.6414 220.566 79.1164 220.264 78.8384 220.117C77.0924 219.195 75.4734 219.811 73.1874 222.842L67.5943 230.215L62.2771 227.407L68.7833 215.086L67.1366 214.217L59.8027 228.105L68.1555 232.516Z" fill="#343434"/>
<path d="M47.657 217.51L46.6162 218.944L54.6797 224.794L63.9021 212.081L55.8386 206.232L54.7977 207.666L61.3539 212.422L58.1788 216.799L52.0585 212.359L51.0177 213.794L57.138 218.234L54.2131 222.266L47.657 217.51Z" fill="#343434"/>
<path d="M34.7057 208.152L39.3574 203.318L45.9211 209.635L41.2694 214.469L42.6113 215.76L53.5015 204.443L52.1596 203.152L47.1501 208.358L40.5864 202.041L45.5959 196.835L44.254 195.544L33.3638 206.861L34.7057 208.152Z" fill="#343434"/>
<path d="M22.7086 193.711L38.5961 192.833L33.1983 196.705L27.9486 200.662L29.0696 202.15L41.6113 192.696L40.2338 190.868L24.3462 191.746L29.7441 187.874L34.9937 183.917L33.8728 182.43L21.3311 191.883L22.7086 193.711Z" fill="#343434"/>
<path d="M15.5816 182.299C17.2358 185.358 19.8872 186.016 22.3739 184.671C24.6238 183.454 25.5467 181.246 24.5892 178.626L32.2141 180.038L31.1148 178.005L23.6238 176.7L22.0763 173.838L27.3259 170.999L26.4401 169.361L12.6252 176.832L15.5816 182.299ZM22.5812 178.309C23.7659 180.5 23.076 182.149 21.5168 182.992C19.9577 183.835 18.24 183.488 17.0553 181.298L15.0701 177.627L20.5961 174.639L22.5812 178.309Z" fill="#343434"/>
<path d="M0.861816 136.4L2.58892 147.235L2.88202 149.074L18.3919 146.601L18.0987 144.762L4.33932 146.956L2.90542 137.96L16.6648 135.767L16.3717 133.928L0.861816 136.4Z" fill="#343434"/>
<path d="M0.000212423 122.676C-0.0311876 127.253 3.42201 130.822 8.04381 130.854C12.6657 130.885 16.1676 127.364 16.1989 122.81C16.2304 118.233 12.777 114.686 8.15521 114.655C3.53331 114.623 0.0315124 118.121 0.000212423 122.676ZM1.77251 122.711C1.79661 119.211 4.50761 116.514 8.14221 116.539C11.7769 116.564 14.4505 119.298 14.4265 122.798C14.4024 126.298 11.669 128.994 8.05681 128.969C4.44461 128.944 1.74851 126.211 1.77251 122.711Z" fill="#343434"/>
<path d="M1.45703 105.449L11.7828 109.053C14.3578 109.958 14.9945 110.616 14.7782 111.854C14.7434 112.053 14.6402 112.513 14.5834 112.708L16.2631 113.002C16.3614 112.7 16.4878 112.107 16.5418 111.798C16.8817 109.853 15.7967 108.501 12.21 107.26L3.47343 104.207L4.50843 98.284L18.2335 100.682L18.5541 98.8481L3.08293 96.144L1.45703 105.449Z" fill="#343434"/>
<path d="M8.82074 77.6179L8.14724 79.5929L14.2364 86.5529L5.15614 88.3629L4.47534 90.3589L15.7932 88.1739L20.1369 93.0929L20.8177 91.0969L8.82074 77.6179Z" fill="#343434"/>
<path d="M14.7502 65.2401L21.8069 68.8361C21.8804 69.7297 21.5588 71.102 20.7744 72.641C19.715 74.72 18.1729 75.622 15.794 74.409L11.2561 72.097L10.4004 73.776L15.1182 76.18C18.3567 77.831 20.7544 76.585 22.2009 73.746C23.0668 72.047 23.3484 70.654 23.3862 69.6408L28.7437 72.371L29.5892 70.712L15.5957 63.5808L14.7502 65.2401Z" fill="#343434"/>
<path d="M38.4635 57.3904L39.6113 55.7838L23.1799 51.7659L21.7844 53.7194L30.912 67.9609L32.0597 66.3543L29.3084 62.1001L33.5472 56.1668L38.4635 57.3904ZM28.2835 60.4856L23.9309 53.7639L31.7006 55.7024L28.2835 60.4856Z" fill="#343434"/>
<path d="M38.0651 34.4607L29.7419 43.1099L31.019 44.339L34.5195 40.7014L44.5591 50.3626L45.8659 49.0046L35.8263 39.3434L39.3423 35.6897L38.0651 34.4607Z" fill="#343434"/>
<path d="M50.9277 31.7314L47.3528 34.5534L43.4743 29.6399L42.0125 30.7937L51.7435 43.1215L56.7275 39.1874C59.4572 37.0327 59.7021 34.4097 57.9505 32.1907C56.1989 29.9717 53.6751 29.5628 50.9277 31.7314ZM55.5764 37.8378L52.1071 40.5764L48.437 35.9271L51.9593 33.1468C53.8437 31.6593 55.3869 31.9847 56.4573 33.3408C57.5277 34.6969 57.4608 36.3504 55.5764 37.8378Z" fill="#343434"/>
<path d="M73.5927 10.7976L71.7247 11.727L71.1536 20.9571L63.4278 15.854L61.5396 16.7933L71.1187 23.2046L70.7447 29.756L72.6327 28.8167L73.5927 10.7976Z" fill="#343434"/>
<path d="M89.3114 13.0059C90.5654 11.9344 90.8784 10.6519 90.3754 9.11661C89.6014 6.74961 87.6624 5.80221 84.6134 6.79991L78.4504 8.81621L83.3344 23.7432L89.6034 21.6921C92.8444 20.6316 93.9634 18.4951 93.1334 15.9575C92.5124 14.0596 91.2204 12.9243 89.3114 13.0059ZM88.6684 9.95851C89.1354 11.3872 88.7104 12.5414 86.4504 13.2809L82.3134 14.6344L80.7714 9.92171L84.9514 8.55431C87.1474 7.83571 88.1794 8.46581 88.6684 9.95851ZM89.0314 20.0144L84.5524 21.4795L82.8434 16.255L87.2794 14.8039C89.6244 14.0365 90.7844 14.7666 91.3214 16.4086C91.8234 17.9439 91.3764 19.247 89.0314 20.0144Z" fill="#343434"/>
<path d="M105.671 3.64159L105.351 1.89819L95.5515 3.69349L98.3825 19.142L108.182 17.3466L107.862 15.6032L99.8945 17.0629L98.9205 11.7442L106.358 10.3815L106.039 8.63809L98.6005 10.0007L97.7035 5.10139L105.671 3.64159Z" fill="#343434"/>
<path d="M123.991 14.5675L123.448 0.64502L114.077 1.01012L112.726 11.863C112.483 13.6912 112.205 14.6226 111.66 15.048L109.418 15.1354L109.615 20.2022L111.476 20.1297L111.348 16.834L124.418 16.3247L124.547 19.6204L126.43 19.547L126.233 14.4802L123.991 14.5675ZM114.569 11.9034L115.715 2.72012L121.656 2.48862L122.13 14.64L113.767 14.9659C114.147 14.3448 114.379 13.3703 114.569 11.9034Z" fill="#343434"/>
<path d="M137.595 1.44921C133.058 0.847909 129.087 3.82971 128.479 8.41161C127.872 12.9935 130.929 16.9068 135.445 17.5051C139.982 18.1064 143.931 15.1217 144.538 10.5398C145.145 5.95791 142.11 2.04761 137.595 1.44921ZM137.34 3.20341C140.81 3.66321 143.147 6.68901 142.67 10.2922C142.192 13.8954 139.147 16.2078 135.678 15.748C132.208 15.2882 129.873 12.2402 130.348 8.65921C130.822 5.07821 133.87 2.74361 137.34 3.20341Z" fill="#343434"/>
<path d="M163.591 7.81278L156.581 13.4539L154.094 4.80618L151.912 4.11548L147.172 19.0887L148.947 19.6508L152.963 6.96628L155.608 16.2289L155.779 16.2831L163.273 10.2302L159.257 22.9147L161.033 23.4767L165.773 8.50348L163.591 7.81278Z" fill="#343434"/>
<path d="M174.392 12.3088L167.945 21.143C166.331 23.3441 165.517 23.7623 164.395 23.1959C164.215 23.1048 163.803 22.8724 163.633 22.7614L162.865 24.2835C163.126 24.4651 163.656 24.7582 163.937 24.8998C165.699 25.7899 167.306 25.1441 169.536 22.0725L174.995 14.5989L180.363 17.3095L174.082 29.7467L175.743 30.5861L182.824 16.5668L174.392 12.3088Z" fill="#343434"/>
<path d="M194.941 26.6896L195.95 25.2325L187.761 19.5601L178.818 32.471L187.007 38.1434L188.016 36.6863L181.358 32.0743L184.437 27.6292L190.653 31.9346L191.662 30.4775L185.446 26.1722L188.283 22.0776L194.941 26.6896Z" fill="#343434"/>
<path d="M208.534 36.1264L203.971 41.0446L197.293 34.8495L201.856 29.9313L200.49 28.6648L189.809 40.179L191.174 41.4455L196.088 36.1489L202.766 42.3441L197.853 47.6406L199.218 48.9071L209.899 37.3929L208.534 36.1264Z" fill="#343434"/>
<path d="M220.86 50.3789L204.991 51.5516L210.316 47.5798L215.491 43.5258L214.343 42.0598L201.979 51.745L203.39 53.5466L219.259 52.3739L213.934 56.3457L208.759 60.3997L209.907 61.8657L222.271 52.1805L220.86 50.3789Z" fill="#343434"/>
<path d="M228.205 61.6401C226.493 58.6129 223.83 58.0054 221.369 59.3969C219.143 60.656 218.262 62.8812 219.269 65.4822L211.618 64.215L212.756 66.2266L220.27 67.3902L221.872 70.2221L216.677 73.1601L217.593 74.7811L231.265 67.0499L228.205 61.6401ZM221.282 65.7612C220.056 63.5933 220.715 61.9321 222.258 61.0596C223.801 60.1871 225.525 60.5009 226.751 62.6688L228.805 66.3014L223.337 69.3938L221.282 65.7612Z" fill="#343434"/>
</svg>
