<svg width="258" height="258" viewBox="0 0 258 258" fill="none" xmlns="http://www.w3.org/2000/svg">
<path d="M252.583 143.662V132.69V130.828H236.877V132.69H250.81V141.799H236.877V143.662H252.583Z" fill="#343434"/>
<path d="M247.169 160.833L248.917 161.125L250.558 151.3L235.067 148.712L233.426 158.538L235.174 158.83L236.509 150.841L241.842 151.732L240.596 159.19L242.344 159.482L243.59 152.024L248.503 152.844L247.169 160.833Z" fill="#343434"/>
<path d="M244.34 174.025L246.241 168.014L231.266 163.278L230.704 165.054L236.01 166.732L234.67 170.967C233.622 174.283 235.151 176.814 237.911 177.687C240.67 178.559 243.291 177.341 244.34 174.025ZM236.38 171.437L237.7 167.266L243.989 169.255L242.67 173.426C241.919 175.801 240.169 176.424 238.457 175.883C236.746 175.342 235.63 173.812 236.38 171.437Z" fill="#343434"/>
<path d="M232.963 193.354L234.551 194.14L238.971 185.212L224.896 178.244L220.476 187.172L222.065 187.958L225.658 180.7L230.504 183.099L227.149 189.875L228.738 190.661L232.092 183.885L236.556 186.095L232.963 193.354Z" fill="#343434"/>
<path d="M219.19 202.613C218.812 204.121 219.399 205.528 220.622 206.363C222.77 207.832 225.538 206.925 227.323 204.313C229.02 201.831 229.237 199.207 226.899 196.902L225.835 198.458C227.236 200.068 227.063 201.553 225.885 203.276C224.632 205.109 222.945 205.668 221.5 204.681C220.241 203.82 220.145 202.369 221.526 200.35L222.602 198.775L221.25 197.851L219.857 199.889C218.375 202.056 216.849 202.181 215.553 201.295C214.034 200.256 213.881 198.412 215.299 196.338C216.591 194.449 218.226 193.528 220.251 194.342L221.315 192.786C218.4 191.364 215.672 192.652 213.823 195.356C211.848 198.246 212.026 201.166 214.378 202.775C215.952 203.851 217.746 203.772 219.19 202.613Z" fill="#343434"/>
<path d="M206.716 215.759C206.137 217.304 206.485 218.577 207.668 219.677C209.492 221.373 211.647 221.263 213.832 218.913L218.247 214.165L206.745 203.47L202.254 208.301C199.931 210.798 199.987 213.209 201.942 215.028C203.405 216.387 205.085 216.755 206.716 215.759ZM208.754 218.114C207.653 217.09 207.466 215.875 209.086 214.133L212.05 210.945L215.681 214.322L212.686 217.542C211.113 219.235 209.904 219.183 208.754 218.114ZM203.567 209.491L206.775 206.041L210.801 209.784L207.623 213.202C205.942 215.009 204.574 214.932 203.309 213.755C202.126 212.655 201.886 211.299 203.567 209.491Z" fill="#343434"/>
<path d="M198.824 231.319C202.404 228.467 203.01 223.538 200.13 219.923C197.251 216.308 192.311 215.797 188.748 218.634C185.168 221.486 184.58 226.401 187.46 230.016C190.34 233.631 195.262 234.157 198.824 231.319ZM197.737 229.919C195 232.099 191.199 231.685 188.934 228.842C186.669 225.999 187.115 222.202 189.853 220.021C192.591 217.84 196.406 218.272 198.656 221.097C200.907 223.923 200.475 227.738 197.737 229.919Z" fill="#343434"/>
<path d="M176.141 243.551L172.966 237.641L180.99 233.33L184.165 239.24L185.806 238.358L178.373 224.523L176.732 225.405L180.151 231.769L172.127 236.08L168.708 229.716L167.067 230.597L174.5 244.432L176.141 243.551Z" fill="#343434"/>
<path d="M156.542 249.617L160.777 234.279L162.725 240.63L164.802 246.867L166.569 246.279L161.608 231.377L159.437 232.1L155.202 247.438L153.253 241.087L151.177 234.85L149.41 235.438L154.371 250.339L156.542 249.617Z" fill="#343434"/>
<path d="M136.628 252.428L148.475 250.495L148.19 248.746L143.207 249.558L140.964 235.807L139.104 236.11L141.347 249.862L136.343 250.678L136.628 252.428Z" fill="#343434"/>
<path d="M118.888 250.306L118.908 252.079L128.87 251.963L128.688 236.259L118.727 236.374L118.747 238.146L126.846 238.053L126.909 243.459L119.348 243.547L119.369 245.319L126.929 245.232L126.987 250.212L118.888 250.306Z" fill="#343434"/>
<path d="M87.3339 245.427L93.8948 239.269L97.0324 247.702L99.2605 248.225L102.848 232.934L101.035 232.509L97.9958 245.462L94.6535 236.428L94.4787 236.387L87.4672 242.992L90.5061 230.039L88.6931 229.614L85.1059 244.904L87.3339 245.427Z" fill="#343434"/>
<path d="M68.2391 236.464L70.9215 230.315L79.2709 233.957L76.5885 240.106L78.2954 240.851L84.5752 226.455L82.8683 225.711L79.9796 232.333L71.6302 228.691L74.5189 222.069L72.812 221.324L66.5322 235.72L68.2391 236.464Z" fill="#343434"/>
<path d="M52.7704 223.627L51.797 225.108L60.1225 230.579L68.747 217.453L60.4216 211.983L59.4482 213.464L66.2173 217.912L63.248 222.431L56.9289 218.279L55.9556 219.76L62.2747 223.912L59.5395 228.075L52.7704 223.627Z" fill="#343434"/>
<path d="M5.56308 132.724L7.20466 143.572L7.4833 145.413L23.0121 143.063L22.7335 141.222L8.9572 143.307L7.59426 134.3L21.3706 132.215L21.0919 130.374L5.56308 132.724Z" fill="#343434"/>
<path d="M8.47809 114.062L6.70607 114.021L6.47539 123.98L22.1768 124.343L22.4075 114.384L20.6355 114.343L20.4479 122.441L15.0421 122.315L15.2172 114.756L13.4452 114.715L13.2701 122.274L8.29053 122.159L8.47809 114.062Z" fill="#343434"/>
<path d="M9.33056 100.772L8.31562 106.994L23.8164 109.523L24.1162 107.685L18.6245 106.789L19.3396 102.405C19.8995 98.9722 18.0215 96.6881 15.1649 96.2222C12.3083 95.7563 9.8904 97.3397 9.33056 100.772ZM17.5794 102.186L16.8751 106.504L10.3648 105.442L11.0691 101.124C11.47 98.6658 13.1121 97.797 14.8836 98.0859C16.6552 98.3749 17.9803 99.7277 17.5794 102.186Z" fill="#343434"/>
<path d="M17.7325 80.0808L16.0466 79.5337L12.9715 89.009L27.9101 93.8572L30.9852 84.3818L29.2993 83.8347L26.799 91.5387L21.6558 89.8696L23.9899 82.6777L22.304 82.1306L19.9699 89.3224L15.2322 87.7849L17.7325 80.0808Z" fill="#343434"/>
<path d="M30.0967 68.7721C30.2554 67.2256 29.4727 65.9171 28.1432 65.2651C25.8065 64.119 23.1974 65.4133 21.8044 68.2537C20.4805 70.953 20.6411 73.5808 23.285 75.5272L24.1149 73.8351C22.4988 72.4427 22.4572 70.9479 23.376 69.0745C24.3541 67.0802 25.9435 66.2853 27.5147 67.056C28.8845 67.7278 29.1864 69.1504 28.1095 71.3461L27.2697 73.0583L28.7403 73.7796L29.8271 71.5637C30.983 69.2068 32.4755 68.8643 33.8856 69.5558C35.5374 70.366 35.9526 72.169 34.8461 74.4251C33.8383 76.4798 32.352 77.6251 30.2308 77.1095L29.4009 78.8017C32.489 79.7915 35.0049 78.1265 36.4473 75.1855C37.9886 72.043 37.3947 69.1777 34.8363 67.923C33.1241 67.0832 31.3606 67.4178 30.0967 68.7721Z" fill="#343434"/>
<path d="M40.2169 54.4161C40.5653 52.8033 40.0361 51.5941 38.7058 50.6775C36.655 49.2645 34.5388 49.6865 32.7184 52.3285L29.0395 57.668L41.9726 66.5788L45.7151 61.147C47.6501 58.3386 47.2446 55.9613 45.0459 54.4464C43.4016 53.3135 41.6857 53.1939 40.2169 54.4161ZM37.8582 52.3823C39.0961 53.2352 39.4578 54.4107 38.1084 56.3691L35.6388 59.9534L31.5557 57.1402L34.0507 53.5189C35.3619 51.6159 36.5649 51.4912 37.8582 52.3823ZM44.2428 60.1598L41.5696 64.0397L37.043 60.9209L39.6908 57.0779C41.0911 55.0456 42.4559 54.9234 43.8785 55.9035C45.2088 56.8201 45.6431 58.1275 44.2428 60.1598Z" fill="#343434"/>
<path d="M45.704 37.8796C42.5751 41.2201 42.6899 46.1848 46.0632 49.3444C49.4365 52.504 54.398 52.2941 57.5116 48.9699C60.6406 45.6293 60.5104 40.681 57.1371 37.5214C53.7638 34.3618 48.8176 34.5554 45.704 37.8796ZM46.9823 39.1076C49.375 36.5531 53.1959 36.4122 55.8487 38.897C58.5015 41.3817 58.6107 45.2037 56.218 47.7582C53.8253 50.3128 49.988 50.4383 47.3516 47.9689C44.7151 45.4995 44.5896 41.6622 46.9823 39.1076Z" fill="#343434"/>
<path d="M66.8156 22.106L70.8015 27.5021L63.4743 32.9142L59.4885 27.5181L57.9906 28.6246L67.3219 41.2576L68.8198 40.1512L64.5274 34.34L71.8546 28.9278L76.147 34.739L77.6449 33.6325L68.3136 20.9995L66.8156 22.106Z" fill="#343434"/>
<path d="M85.1094 13.3428L83.1472 29.1332L80.2968 23.1326L77.3365 17.2629L75.6738 18.1015L82.7461 32.1247L84.7895 31.0941L86.7517 15.3038L89.602 21.3044L92.5623 27.174L94.2251 26.3355L87.1527 12.3123L85.1094 13.3428Z" fill="#343434"/>
<path d="M104.347 7.66763L92.9017 11.2867L93.4361 12.9768L98.2495 11.4547L102.45 24.7395L104.247 24.1712L100.046 10.8865L104.881 9.35764L104.347 7.66763Z" fill="#343434"/>
<path d="M122.505 7.14642L122.233 5.39491L112.389 6.92318L114.799 22.4429L124.643 20.9146L124.371 19.1631L116.367 20.4057L115.537 15.0625L123.009 13.9025L122.737 12.151L115.265 13.311L114.501 8.389L122.505 7.14642Z" fill="#343434"/>
<path d="M153.777 7.37465L148.179 14.4194L143.851 6.53041L141.571 6.33646L140.24 21.9856L142.095 22.1434L143.223 8.88636L147.841 17.3404L148.019 17.3556L153.999 9.80286L152.871 23.0599L154.727 23.2177L156.058 7.5686L153.777 7.37465Z" fill="#343434"/>
<path d="M175.687 13.4663L173.354 19.756L164.813 16.588L167.146 10.2982L165.4 9.65054L159.938 24.3757L161.684 25.0234L164.197 18.2498L172.738 21.4179L170.225 28.1915L171.971 28.8391L177.433 14.1139L175.687 13.4663Z" fill="#343434"/>
<path d="M191.43 23.8561L192.181 22.2505L183.157 18.0307L176.504 32.2577L185.528 36.4775L186.279 34.8719L178.942 31.4409L181.233 26.5428L188.082 29.7456L188.833 28.14L181.983 24.9371L184.093 20.4252L191.43 23.8561Z" fill="#343434"/>
</svg>
