<svg width="22" height="25" viewBox="0 0 22 25" fill="none" xmlns="http://www.w3.org/2000/svg">
<path fill-rule="evenodd" clip-rule="evenodd" d="M0 2.5C0 1.11929 1.1365 0 2.53846 0H16.4274L22 5.48815V22.5C22 23.8807 20.8634 25 19.4615 25H2.53846C1.1365 25 0 23.8807 0 22.5V2.5ZM10.1538 6.66667H5.07692V8.33333H10.1538V6.66667ZM16.9231 11.6667H5.07692V13.3333H16.9231V11.6667ZM8.97719 18.1797C8.29375 18.3605 7.76001 18.8745 7.57193 19.4302L5.96645 18.9032C6.34248 17.7922 7.33182 16.8893 8.53812 16.5702C9.73478 16.2535 11.0991 16.5187 12.2805 17.589C12.6353 17.4862 12.9869 17.4283 13.3345 17.41C14.2461 17.3618 15.0654 17.5883 15.7677 17.8765C16.2836 18.0882 16.7836 18.3558 17.2042 18.5808C17.3384 18.6527 17.4648 18.7203 17.5807 18.7803C18.1278 19.0632 18.4289 19.1667 18.6154 19.1667V20.8333C17.9556 20.8333 17.3047 20.52 16.7941 20.256C16.6366 20.1745 16.4841 20.093 16.3336 20.0125C15.9321 19.7977 15.5449 19.5907 15.1168 19.415C14.5499 19.1823 13.9942 19.0442 13.425 19.0743C13.3423 19.0787 13.2578 19.0867 13.1716 19.0988L13.1736 19.121C13.2189 19.6623 12.992 20.1075 12.6998 20.4272C12.1607 21.0172 11.2824 21.3267 10.6225 21.4448C10.2787 21.5063 9.90897 21.5322 9.58342 21.4853C9.42406 21.4623 9.21858 21.4142 9.02499 21.3007C8.81916 21.18 8.57521 20.9492 8.51268 20.5797C8.45452 20.236 8.58586 19.9527 8.70063 19.7785C8.81902 19.5988 8.97844 19.4435 9.14315 19.3093C9.46371 19.0478 9.9307 18.7652 10.5547 18.4543L10.6002 18.4218C10.0108 18.0827 9.44474 18.056 8.97719 18.1797Z" />
</svg>
