<svg width="46" height="36" viewBox="0 0 46 36" fill="none" xmlns="http://www.w3.org/2000/svg">
<rect x="9.55908" y="13.4034" width="26.1711" height="2" fill="#CC0035"/>
<circle cx="16.3206" cy="11.2927" r="1.32056" fill="#CC0035"/>
<circle cx="19.4617" cy="11.2927" r="1.32056" fill="#CC0035"/>
<circle cx="19.4617" cy="8.30688" r="1.32056" fill="#CC0035"/>
<circle cx="22.6028" cy="5.32056" r="1.32056" fill="#CC0035"/>
<circle cx="22.6028" cy="8.30688" r="1.32056" fill="#CC0035"/>
<circle cx="25.7439" cy="8.30688" r="1.32056" fill="#CC0035"/>
<circle cx="28.885" cy="11.2927" r="1.32056" fill="#CC0035"/>
<circle cx="22.6028" cy="11.2927" r="1.32056" fill="#CC0035"/>
<circle cx="25.7439" cy="11.2927" r="1.32056" fill="#CC0035"/>
<path fill-rule="evenodd" clip-rule="evenodd" d="M22.645 2.4552L9.87434 15.226V33.013H18.3166V22.9454C18.3166 22.6692 18.5404 22.4454 18.8166 22.4454H26.4722C26.7484 22.4454 26.9722 22.6692 26.9722 22.9454V33.013H35.415V15.2252L22.645 2.4552ZM26.6207 35.013H35.915C36.7435 35.013 37.415 34.3414 37.415 33.513V17.2252L43.3421 23.1524C43.7327 23.5429 44.3658 23.5429 44.7564 23.1524C45.1469 22.7618 45.1469 22.1287 44.7564 21.7381L24.0592 1.04099C23.2782 0.259936 22.0118 0.259937 21.2308 1.04099L0.533612 21.7384C0.14309 22.1289 0.143093 22.7621 0.53362 23.1526C0.924147 23.5431 1.55731 23.5431 1.94783 23.1526L7.87434 17.226V33.513C7.87434 34.3414 8.54591 35.013 9.37434 35.013H18.6682C18.7151 35.0276 18.7649 35.0354 18.8166 35.0354H26.4722C26.5239 35.0354 26.5738 35.0276 26.6207 35.013ZM24.9722 33.013V24.4454H20.3166V33.013H24.9722Z" fill="#343434"/>
</svg>
