<svg width="22" height="20" viewBox="0 0 22 20" fill="none" xmlns="http://www.w3.org/2000/svg">
<path d="M8.05882 9.66182H8.30882V9.41182V8.23535V7.98535H8.05882H3.4267C4.32567 4.60803 7.42924 2.16179 11 2.16065C14.4878 2.16065 17.5885 4.51069 18.537 7.8738L18.6049 8.11428L18.8454 8.04659L19.9783 7.72777L20.2191 7.66001L20.1512 7.41925C18.9997 3.33641 15.2368 0.485352 11 0.485352C7.27334 0.485352 3.97032 2.6788 2.42647 5.88266V2.353V2.103H2.17647H1H0.75V2.353V9.41182V9.66182H1H8.05882ZM13.9412 10.3383H13.6912V10.5883V11.7648V12.0148H13.9412H18.5732C17.6734 15.3933 14.5741 17.8383 11 17.8383C7.50984 17.8383 4.41034 15.4882 3.46299 12.1252L3.39522 11.8846L3.15463 11.9523L2.02169 12.2712L1.78096 12.3389L1.84878 12.5796C2.99911 16.6625 6.76202 19.5136 11 19.5136C14.7248 19.5136 18.0229 17.3265 19.5735 14.1133V17.6471V17.8971H19.8235H21H21.25V17.6471V10.5883V10.3383H21H13.9412Z" fill="#113CA4" stroke="#113CA4" stroke-width="0.5"/>
</svg>
