<svg width="20" height="20" viewBox="0 0 20 20" fill="none" xmlns="http://www.w3.org/2000/svg">
<path fill-rule="evenodd" clip-rule="evenodd" d="M13.6061 11.5667C13.3096 11.7832 13.1861 12.1632 13.299 12.5149L15.0296 17.842L10.4978 14.5491C10.199 14.3326 9.799 14.3326 9.50136 14.5491L4.96959 17.842L6.70136 12.5126C6.81429 12.1632 6.69076 11.7832 6.39312 11.5667L1.86018 8.27376H7.46252C7.83076 8.27376 8.15547 8.03729 8.26841 7.68788L10.0002 2.35965L11.7308 7.6867C11.7855 7.85734 11.8931 8.00617 12.0379 8.11169C12.1828 8.21721 12.3574 8.27396 12.5366 8.27376H18.1402L13.6061 11.5667ZM19.9578 7.68317C19.8437 7.33258 19.5202 7.09729 19.1519 7.09729H12.7755L10.8061 1.03375C10.6919 0.683178 10.3684 0.447876 10.0002 0.447876C9.63194 0.447876 9.30723 0.683168 9.19429 1.03376L7.2237 7.09729H0.847242C0.479002 7.09729 0.155471 7.33258 0.0413462 7.68317C-0.0715913 8.03376 0.0519399 8.41376 0.349586 8.63023L5.50841 12.3773L3.53664 18.442C3.4237 18.7926 3.54723 19.1726 3.84605 19.3891C3.99428 19.4973 4.16959 19.5514 4.34252 19.5514C4.51783 19.5514 4.69312 19.4973 4.84135 19.3879L10.0002 15.6408L15.1566 19.3879C15.4543 19.6055 15.8555 19.6055 16.1543 19.3891C16.4519 19.1726 16.5755 18.7926 16.4625 18.4408L14.4908 12.3773L19.6496 8.63023C19.9484 8.41376 20.0719 8.03376 19.9578 7.68317H19.9578Z" />
</svg>
