<svg width="32" height="33" viewBox="0 0 32 33" fill="none" xmlns="http://www.w3.org/2000/svg">
<path d="M14.675 0.0572128C7.79 0.727013 2.275 6.30867 1.475 13.4272C1.435 13.7959 1.4 14.1801 1.4 14.2788C1.4 14.4501 1.375 14.4813 1.075 14.689C0.565 15.0316 0.165 15.6651 0.05 16.3037C0.02 16.4647 0 17.6797 0 19.2841C0 22.2748 0.00999999 22.3787 0.315 22.9706C1.09 24.4815 3.215 24.7359 4.33 23.4535C4.59 23.1523 4.75 22.846 4.87 22.4358C4.94 22.1917 4.95 21.7712 4.95 19.2633C4.95 16.1428 4.95 16.1428 4.675 15.5768C4.52 15.2601 4.15 14.8395 3.87 14.6578L3.64 14.5124L3.67 14.0192C3.745 12.6328 4.195 10.9661 4.88 9.52267C5.84 7.4977 7.38 5.6856 9.2 4.43947C10.6 3.48409 12.195 2.82468 13.9 2.50795C14.56 2.38334 14.75 2.36776 15.95 2.36776C17.335 2.36257 17.76 2.40411 18.8 2.65334C20.19 2.98564 21.6 3.61909 22.8 4.43947C24.755 5.77906 26.39 7.77288 27.33 9.9744C27.81 11.1011 28.175 12.4667 28.3 13.6297C28.33 13.9153 28.36 14.2268 28.375 14.3203C28.39 14.4761 28.375 14.502 28.135 14.663C27.66 14.9745 27.305 15.4782 27.13 16.0909C27.01 16.5114 27.01 22.01 27.13 22.4306C27.195 22.659 27.195 22.711 27.14 22.7525C25.795 23.6819 24.135 24.3102 22.315 24.5854C21.47 24.71 21.5 24.7152 21.255 24.4607C20.845 24.035 20.76 24.0142 19.275 24.0142H17.975L17.69 24.1596C16.605 24.7152 16.585 26.2832 17.655 26.8388L17.965 26.9998H19.27C20.53 26.9998 20.585 26.9946 20.825 26.8751C20.97 26.8076 21.175 26.6415 21.31 26.4857L21.545 26.2157L22.295 26.1119C23.955 25.8938 25.31 25.4888 26.625 24.819C27.01 24.6269 27.51 24.3361 27.74 24.1804L28.155 23.8948L28.465 24.0454C29.635 24.6113 31.095 24.1233 31.685 22.9706C31.99 22.3787 32 22.2748 32 19.2841C32 17.6797 31.98 16.4647 31.95 16.3037C31.835 15.6651 31.435 15.0316 30.925 14.689C30.615 14.4709 30.6 14.4553 30.6 14.2528C30.6 13.6038 30.335 12.0046 30.075 11.0544C28.735 6.2204 25.245 2.41449 20.675 0.794512C18.835 0.145481 16.605 -0.129707 14.675 0.0572128Z" />
<path d="M14.8542 4.05818C12.7815 4.27068 10.6375 5.17767 8.98241 6.54592C8.10139 7.2767 7.14398 8.39618 6.5125 9.43792C5.84537 10.5419 5.31574 11.9982 5.07639 13.3717L5 13.807L5.21898 14.0454C5.67222 14.5378 6.02361 15.196 6.20185 15.8905C6.29352 16.2274 6.29861 16.4917 6.29861 19.3111C6.29861 22.654 6.29861 22.6489 5.98796 23.3744C5.92176 23.5247 5.86574 23.6854 5.86574 23.7217C5.86574 23.9549 6.86898 25.9658 7.50046 26.9972C8.43241 28.5261 9.99583 30.3038 11.1824 31.1953C14.5995 33.7556 18.144 33.5897 21.5 30.7081C22.0551 30.2313 22.8495 29.3968 23.3435 28.7697C23.7662 28.2307 24.3111 27.4688 24.2907 27.4481C24.2806 27.4378 24.0819 27.474 23.8426 27.5259C23.6032 27.5777 23.1907 27.6554 22.9259 27.6969C22.4727 27.7643 22.4218 27.785 22.106 28.0286C21.3931 28.578 20.8787 28.6868 19.081 28.6557C17.9556 28.635 17.7671 28.6194 17.4769 28.521C16.2292 28.1012 15.4194 27.0283 15.3481 25.7119C15.2769 24.2452 16.2139 22.9598 17.6245 22.597C18.0014 22.4986 18.1593 22.4934 19.4731 22.5089C20.8278 22.5245 20.9347 22.5348 21.2454 22.6489C21.4287 22.711 21.7037 22.8458 21.8565 22.9391L22.1366 23.1101L22.6458 23.0168C23.5574 22.851 24.3722 22.6022 25.1921 22.2394L25.6708 22.0217L25.6912 19.1142C25.7116 15.8957 25.7116 15.9216 26.0528 15.1649C26.2565 14.7192 26.4806 14.3771 26.781 14.0454L27 13.807L26.9236 13.3717C26.5264 11.0809 25.4722 8.98702 23.8935 7.36999C21.5153 4.92371 18.2051 3.71094 14.8542 4.05818Z" />
</svg>
