<svg width="26" height="26" viewBox="0 0 26 26" fill="none" xmlns="http://www.w3.org/2000/svg">
<g clip-path="url(#clip0_555_4063)">
<path d="M0.540039 18.106C1.98212 17.5503 3.19704 17.9133 4.88454 18.4204C5.32467 18.5522 5.80334 18.6962 6.23535 18.8098C6.62072 18.9112 7.21297 18.6922 7.83361 18.463C8.6084 18.177 9.41564 17.8809 10.3831 17.9052C11.1133 17.9235 11.7278 18.2581 12.3485 18.5969C12.7379 18.8098 13.1334 19.0248 13.3525 19.0329C13.604 19.041 13.9772 18.822 14.3504 18.6029C14.9588 18.2439 15.5673 17.8849 16.4131 17.8565C17.3217 17.8261 18.0255 18.1385 18.7233 18.4488C19.1208 18.6253 19.5163 18.8017 19.8469 18.826C20.1593 18.8504 20.5771 18.5827 20.9827 18.3251C21.5466 17.964 22.1003 17.6111 22.8284 17.53C23.6945 17.4347 24.6396 17.8423 25.4428 18.1872L25.4631 18.1973C25.4631 19.0187 25.4631 19.8422 25.4631 20.6636C25.2907 20.6129 25.1122 20.544 24.9277 20.4689C24.7999 20.4162 24.668 20.3594 24.5342 20.3026C23.9845 20.0673 23.3375 19.7874 23.0799 19.8158C22.873 19.8381 22.5465 20.0471 22.2139 20.26C22.0922 20.3371 21.9684 20.4162 21.8447 20.4933C21.2281 20.8685 20.5588 21.189 19.6765 21.122C18.9585 21.0673 18.3744 20.8076 17.7882 20.546L17.7375 20.5237C17.2994 20.329 16.8593 20.1404 16.4861 20.1525C16.2569 20.1606 15.9283 20.3452 15.5957 20.5399L15.5186 20.5845C14.8594 20.974 14.1982 21.3634 13.2713 21.3289C12.5148 21.3005 11.8779 20.9557 11.2512 20.6129L11.1721 20.5703C10.8232 20.3797 10.4886 20.2053 10.3284 20.2012C9.83751 20.189 9.27164 20.3858 8.72198 20.5886L8.62665 20.6231C7.66526 20.978 6.7485 21.3147 5.66136 21.0308C5.07722 20.8786 4.63507 20.7448 4.22942 20.6231L4.21725 20.619C2.74677 20.1769 1.78741 19.8929 0.637395 20.6454C0.606971 20.6657 0.574519 20.6859 0.542067 20.7083V20.6454V18.106H0.540039ZM18.3703 8.13111L21.2423 7.69504C23.0292 7.42731 22.4917 4.21051 20.2018 4.72569L13.6892 5.80066C12.9833 5.91627 11.7725 6.00551 11.2451 6.47606C10.9429 6.74582 10.8172 7.12105 10.8861 7.58957C10.9835 8.25281 11.5372 9.08439 11.8698 9.68678L12.675 11.1349C13.2612 12.1876 13.5756 12.289 12.4905 12.8711L5.09345 16.8384L5.63499 16.9986L7.25962 17.0229C7.44419 16.9621 7.63687 16.8911 7.83361 16.8181C8.6084 16.5321 9.41564 16.236 10.3831 16.2603C11.1133 16.2786 11.7278 16.6132 12.3485 16.952L12.6284 17.102L14.0603 17.1244C14.1557 17.0716 14.253 17.0148 14.3483 16.958C14.9568 16.599 15.5653 16.24 16.4111 16.2116C17.3197 16.1812 18.0235 16.4936 18.7212 16.8039C19.1188 16.9803 19.5143 17.1568 19.8449 17.1811C19.9199 17.1872 20.0011 17.1751 20.0862 17.1527L16.3178 10.4514C15.9973 9.88149 15.4213 9.16146 15.5044 8.72742C15.5328 8.58138 15.7275 8.52256 15.9648 8.48606C16.768 8.37045 17.5672 8.25281 18.3703 8.13111ZM21.4736 9.6239C23.0495 9.6239 24.3273 10.9017 24.3273 12.4776C24.3273 14.0536 23.0495 15.3314 21.4736 15.3314C19.8976 15.3314 18.6198 14.0536 18.6198 12.4776C18.6218 10.8997 19.8976 9.6239 21.4736 9.6239Z" />
</g>
<defs>
<clipPath id="clip0_555_4063">
<rect width="24.9231" height="24.9231" fill="white" transform="translate(0.540039 0.537598)"/>
</clipPath>
</defs>
</svg>
