<svg width="22" height="22" viewBox="0 0 22 22" fill="none" xmlns="http://www.w3.org/2000/svg">
<path d="M21.1635 16.7904L16.3081 11.9352C15.3502 10.9774 13.9197 10.7908 12.767 11.3589L8.34696 6.93898V4.36417L3.03956 0.383789L0.385862 3.03738L4.36641 8.34455H6.94133L11.3614 12.7644C10.7975 13.9171 10.9799 15.3475 11.9377 16.3053L16.7932 21.1605C17.3986 21.7659 18.3771 21.7659 18.9783 21.1605L21.1635 18.9755C21.7647 18.3701 21.7647 17.3916 21.1635 16.7904ZM14.1395 9.71281C15.3129 9.71281 16.4159 10.1689 17.2451 10.9981L18.0495 11.8025C18.7047 11.5164 19.3266 11.1184 19.8657 10.5794C21.404 9.04112 21.9264 6.87679 21.4372 4.91147C21.3459 4.53831 20.8774 4.40978 20.6037 4.68343L17.5188 7.76823L14.7034 7.2997L14.2349 4.48441L17.3198 1.39962C17.5934 1.12596 17.4608 0.65744 17.0834 0.562077C15.118 0.076968 12.9536 0.599393 11.4194 2.1335C10.2377 3.31517 9.6821 4.87416 9.71113 6.42899L13.1153 9.83305C13.4512 9.75427 13.7995 9.71281 14.1395 9.71281ZM9.83137 13.1127L7.48036 10.7618L1.16124 17.0848C0.124639 18.1214 0.124639 19.8006 1.16124 20.8371C2.19784 21.8737 3.87713 21.8737 4.91374 20.8371L10.0387 15.7124C9.72356 14.8873 9.6282 13.9876 9.83137 13.1127ZM3.03956 19.954C2.49224 19.954 2.04442 19.5062 2.04442 18.9589C2.04442 18.4075 2.48809 17.9638 3.03956 17.9638C3.59103 17.9638 4.0347 18.4075 4.0347 18.9589C4.0347 19.5062 3.59103 19.954 3.03956 19.954Z" />
</svg>
