<svg width="24" height="14" viewBox="0 0 24 14" fill="none" xmlns="http://www.w3.org/2000/svg">
<path d="M21.3628 9.75789C21.3628 9.75789 23.3031 11.6743 23.7831 12.5611C23.7924 12.5739 23.7997 12.5881 23.8047 12.6031C24.0002 12.9307 24.0482 13.1875 23.9522 13.3771C23.7903 13.6903 23.2419 13.8475 23.0559 13.8607H19.6266C19.3878 13.8607 18.891 13.7983 18.2863 13.3807C17.8243 13.0579 17.3647 12.5263 16.9196 12.0067C16.2548 11.2351 15.6801 10.5655 15.0981 10.5655C15.0246 10.5653 14.9516 10.5775 14.8821 10.6015C14.4418 10.7407 13.8826 11.3683 13.8826 13.0399C13.8826 13.5631 13.4698 13.8607 13.1807 13.8607H11.61C11.0748 13.8607 8.28863 13.6735 5.81802 11.0683C2.79065 7.87869 0.0716559 1.48029 0.0452579 1.42389C-0.123929 1.00989 0.231244 0.784293 0.615215 0.784293H4.07815C4.54252 0.784293 4.69371 1.06509 4.7993 1.31709C4.92169 1.60629 5.37525 2.76309 6.1192 4.06269C7.32391 6.17709 8.06425 7.03749 8.6558 7.03749C8.76694 7.03782 8.8762 7.00885 8.97258 6.95349C9.74532 6.52869 9.60133 3.76869 9.56534 3.19989C9.56534 3.08949 9.56414 1.96749 9.16817 1.42509C8.88499 1.03629 8.40262 0.885092 8.11105 0.829892C8.18904 0.717092 8.35463 0.544292 8.56701 0.442292C9.09617 0.178292 10.0525 0.139893 11.0016 0.139893H11.5284C12.5579 0.154293 12.8243 0.220292 13.1987 0.315092C13.9522 0.495092 13.9666 0.983493 13.9006 2.64669C13.8814 3.12189 13.861 3.65709 13.861 4.28709C13.861 4.42149 13.855 4.57149 13.855 4.72389C13.8322 5.57709 13.8022 6.53829 14.4046 6.93309C14.4827 6.98176 14.5729 7.00754 14.6649 7.00749C14.8737 7.00749 15.4989 7.00749 17.1944 4.09749C17.9383 2.81229 18.5143 1.29669 18.5539 1.18269C18.5875 1.11909 18.6882 0.940292 18.8106 0.868292C18.8977 0.821967 18.9952 0.798825 19.0938 0.801093H23.1675C23.6115 0.801093 23.9126 0.868293 23.9714 1.03629C24.0698 1.30869 23.9522 2.14029 22.0924 4.65549C21.7792 5.07429 21.5044 5.43669 21.2632 5.75349C19.5774 7.96629 19.5774 8.07789 21.3628 9.75789Z" />
</svg>
