<svg width="20" height="20" viewBox="0 0 20 20" fill="none" xmlns="http://www.w3.org/2000/svg">
<path d="M0.00498964 20L1.35689 15.032C0.466093 13.5049 -0.00191385 11.768 0.000989994 10C0.000989994 4.477 4.47765 0 10.0002 0C15.5228 0 19.9995 4.477 19.9995 10C19.9995 15.523 15.5228 20 10.0002 20C8.23314 20.0029 6.49715 19.5352 4.97061 18.645L0.00498964 20ZM6.39151 5.308C6.26238 5.31602 6.1362 5.35003 6.02053 5.408C5.91206 5.46943 5.81305 5.54622 5.72656 5.636C5.60656 5.749 5.53857 5.847 5.46558 5.942C5.09601 6.423 4.89723 7.01342 4.90062 7.62C4.90262 8.11 5.03061 8.587 5.23059 9.033C5.63956 9.935 6.31251 10.89 7.20144 11.775C7.41543 11.988 7.62441 12.202 7.84939 12.401C8.9527 13.3725 10.2675 14.073 11.6891 14.447L12.2581 14.534C12.443 14.544 12.628 14.53 12.814 14.521C13.1052 14.506 13.3896 14.4271 13.647 14.29C13.8129 14.202 13.8909 14.158 14.0299 14.07C14.0299 14.07 14.0729 14.042 14.1549 13.98C14.2899 13.88 14.3729 13.809 14.4849 13.692C14.5679 13.606 14.6399 13.505 14.6949 13.39C14.7729 13.227 14.8509 12.916 14.8829 12.657C14.9069 12.459 14.8999 12.351 14.8969 12.284C14.8929 12.177 14.8039 12.066 14.7069 12.019L14.1249 11.758C14.1249 11.758 13.255 11.379 12.724 11.137C12.668 11.1126 12.608 11.0987 12.547 11.096C12.4786 11.089 12.4095 11.0967 12.3443 11.1186C12.2791 11.1405 12.2194 11.1761 12.1691 11.223V11.221C12.1641 11.221 12.0971 11.278 11.3741 12.154C11.3326 12.2098 11.2755 12.2519 11.2099 12.2751C11.1444 12.2982 11.0735 12.3013 11.0062 12.284C10.941 12.2666 10.8772 12.2445 10.8152 12.218C10.6912 12.166 10.6482 12.146 10.5632 12.109L10.5582 12.107C9.98614 11.8572 9.4565 11.5198 8.98831 11.107C8.86232 10.997 8.74533 10.877 8.62534 10.761C8.23194 10.3842 7.88911 9.95801 7.60541 9.493L7.54642 9.398C7.50404 9.33416 7.46978 9.2653 7.44443 9.193C7.40643 9.046 7.50542 8.928 7.50542 8.928C7.50542 8.928 7.7484 8.662 7.86139 8.518C7.95548 8.39832 8.04325 8.27382 8.12437 8.145C8.24236 7.955 8.27936 7.76 8.21737 7.609C7.93739 6.925 7.64741 6.244 7.34943 5.568C7.29044 5.434 7.11545 5.338 6.95646 5.319C6.90247 5.313 6.84847 5.307 6.79447 5.303C6.66019 5.29633 6.52563 5.29866 6.39151 5.308Z" />
</svg>
