<svg width="19" height="19" viewBox="0 0 19 19" fill="none" xmlns="http://www.w3.org/2000/svg">
<path fill-rule="evenodd" clip-rule="evenodd" d="M13.0404 0.967033C14.1555 1.42657 15.1673 2.10475 16.0161 2.96159C17.3035 4.23954 18.1811 5.87195 18.537 7.65067C18.8928 9.42938 18.7109 11.2738 18.0143 12.9487C17.3178 14.6236 16.1382 16.0531 14.6259 17.0549C13.1137 18.0567 11.3373 18.5854 9.52341 18.5735H9.5896C8.07862 18.5709 6.59199 18.1913 5.26449 17.4689L0.428711 18.6963L1.65607 13.971C0.859353 12.5861 0.439926 11.0165 0.439676 9.41878C0.439425 7.8211 0.85836 6.25132 1.65464 4.86622C2.45092 3.48111 3.59667 2.32917 4.97746 1.52544C6.35825 0.721707 7.92575 0.294318 9.52341 0.285957C10.7294 0.275921 11.9253 0.507499 13.0404 0.967033ZM5.65724 15.9347C6.82535 16.6345 8.16172 17.0036 9.52341 17.0025C11.5341 16.9993 13.4615 16.1991 14.8833 14.7773C16.305 13.3556 17.1052 11.4282 17.1085 9.41747C17.1125 8.42078 16.9182 7.43325 16.5368 6.51241C16.1554 5.59157 15.5946 4.75585 14.8869 4.05393C13.567 2.74606 11.8129 1.96819 9.95747 1.86792C8.10202 1.76764 6.27431 2.35194 4.82112 3.50995C3.36794 4.66796 2.39037 6.31911 2.07392 8.15013C1.75746 9.98114 2.12412 11.8646 3.10434 13.4432L3.27617 13.7255L2.51521 16.5239L5.38722 15.7752L5.65724 15.9347ZM13.2954 11.1131C13.4875 11.2068 13.6479 11.2851 13.7212 11.3198C13.749 11.333 13.7756 11.3454 13.8009 11.3573C13.9883 11.4452 14.109 11.5019 14.163 11.5775C14.2162 11.9431 14.1695 12.3163 14.028 12.6576C13.858 12.934 13.6329 13.1724 13.3669 13.3582C13.1009 13.544 12.7995 13.6732 12.4815 13.7377C12.0027 13.8218 11.5109 13.7924 11.0455 13.6518C11.0238 13.6445 11.0017 13.6372 10.9793 13.6297C10.6589 13.5232 10.2615 13.391 9.75681 13.1731C8.17656 12.3853 6.82757 11.2013 5.84155 9.7365C5.30422 9.04762 4.98381 8.21456 4.92103 7.34316C4.91584 6.98822 4.98402 6.63603 5.1213 6.30867C5.25858 5.9813 5.462 5.68583 5.71882 5.44076C5.87792 5.26911 6.09862 5.16759 6.33249 5.15847H6.82343C6.83742 5.15847 6.85179 5.15781 6.86655 5.15714C6.9943 5.15129 7.15061 5.14413 7.32665 5.55122C7.3779 5.66974 7.45089 5.83341 7.53078 6.01255C7.75699 6.51978 8.03851 7.15107 8.03851 7.2327C8.06896 7.29587 8.08477 7.36509 8.08477 7.43521C8.08477 7.50534 8.06896 7.57456 8.03851 7.63773C7.9816 7.77356 7.90735 7.90145 7.81759 8.01821C7.69486 8.15321 7.57212 8.28822 7.47393 8.41096C7.46462 8.4226 7.45497 8.43424 7.44526 8.44597C7.35256 8.55786 7.25354 8.67739 7.37574 8.87735C7.69982 9.46587 8.11394 10.0001 8.6031 10.4606C9.14346 10.9391 9.76206 11.321 10.4319 11.5898C10.6651 11.7616 10.7878 11.7494 10.9228 11.5898C10.9327 11.5781 10.9442 11.5646 10.957 11.5494C11.1194 11.3579 11.4991 10.9099 11.6469 10.6938C11.8065 10.4606 11.9538 10.4852 12.1624 10.5711C12.3055 10.63 12.876 10.9084 13.2954 11.1131Z" />
</svg>
