<svg width="24" height="24" viewBox="0 0 24 24" fill="none" xmlns="http://www.w3.org/2000/svg">
<path d="M22.0694 6.94954C21.9492 6.5063 21.7152 6.10223 21.3905 5.7775C21.0658 5.45277 20.6617 5.21869 20.2185 5.09854C18.5746 4.66504 12.0021 4.66504 12.0021 4.66504C12.0021 4.66504 5.42963 4.66504 3.78576 5.09854C2.88583 5.34004 2.17788 6.04954 1.9349 6.94954C1.50293 8.59204 1.50293 12 1.50293 12C1.50293 12 1.50293 15.4245 1.9349 17.0505C2.17788 17.9505 2.88732 18.66 3.78576 18.9015C5.42963 19.335 12.0021 19.335 12.0021 19.335C12.0021 19.335 18.5746 19.335 20.2185 18.9015C20.6617 18.7814 21.0658 18.5473 21.3905 18.2226C21.7152 17.8979 21.9492 17.4938 22.0694 17.0505C22.5013 15.408 22.5013 12 22.5013 12C22.5013 12 22.5013 8.59204 22.0694 6.94954Z" fill="#ff0000" />
<path d="M9.89258 15.1645L15.3582 12.0175L9.89258 8.85254V15.1645Z" fill="#fff"/>
</svg>
