<svg width="40" height="40" viewBox="0 0 40 40" fill="none" xmlns="http://www.w3.org/2000/svg">
<path fill-rule="evenodd" clip-rule="evenodd" d="M16.6133 30.8532C8.75994 30.8532 2.37332 24.4666 2.37332 16.6133C2.37332 8.75994 8.75994 2.37332 16.6133 2.37332C24.4666 2.37332 30.8532 8.75994 30.8532 16.6133C30.8532 24.4666 24.4666 30.8532 16.6133 30.8532ZM29.1539 27.476C31.6839 24.5615 33.2265 20.7666 33.2265 16.6133C33.2265 7.4546 25.7719 0 16.6133 0C7.4546 0 0 7.4546 0 16.6133C0 25.7719 7.4546 33.2265 16.6133 33.2265C20.7666 33.2265 24.5615 31.6839 27.476 29.1539L38.3197 40L40 38.3197L29.1539 27.476Z" />
</svg>
