<svg fill="none" height="44" viewBox="0 0 141 44" width="141" xmlns="http://www.w3.org/2000/svg"><g fill="#343434"><path d="m19.8496.0838356c-6.3115.7039984-11.76683 3.8133344-15.51004 8.8251444-4.104109 5.49792-5.37982 12.63852-3.449466 19.25102 1.393216 4.7855 4.481786 9.0598 8.602676 11.9177 5.04413 3.4949 11.17093 4.7101 17.28093 3.4027 3.1473-.6621 6.8066-2.464 9.316-4.576.9233-.771 2.434-2.3048 3.1222-3.168 1.3177-1.6259 2.7444-4.1486 3.4662-6.1013 2.6354-7.1574 1.3932-15.1109-3.2984-21.17031-.7637-.98058-2.4842-2.72381-3.4998-3.54515-3.0718-2.48076-6.7311-4.08152-10.7848-4.710091-1.0323-.159237-4.23-.2346688-5.2455-.1257134zm3.3571 7.2914244c4.0286.36039 7.3689 2.38858 9.3748 5.68234 1.1163 1.8438 1.6618 3.8636 1.6618 6.2019 0 2.3718-.4028 4.4083-1.2337 6.2354l-.2938.6369-.6462.0503c-1.922.1509-3.1558.4023-4.2888.88-.8057.3436-1.4603.7794-2.1318 1.4248-1.4687 1.4164-2.2073 3.2266-2.5766 6.336-.0923.7794-.1846 1.5421-.2098 1.6929l-.042.2682-.7553.0252c-.4197.0167-.7806 0-.7973-.0336-.0168-.0251-.0924-.5699-.1595-1.2152-.3189-2.9249-.7722-4.4922-1.6786-5.9002-.5371-.8297-1.133-1.4331-1.9387-1.9695-1.3765-.9135-2.7781-1.3158-5.2456-1.5086l-.6462-.0503-.3441-.7459c-.4616-1.0057-.9652-2.531-1.2002-3.5954-.15947-.7543-.18465-1.1398-.19304-2.6819 0-1.693.01678-1.8606.22664-2.6987 1.4939-5.8499 6.9241-9.59616 13.118-9.03464z"/><path d="m127.672 6.96459c-3.382.32686-5.925 1.53372-7.587 3.59541-1.779 2.221-2.232 5.9002-1.066 8.7414.663 1.5923 2.09 3.0171 3.928 3.8887 1.41.6621 2.635.9806 6.597 1.7014 3.122.5615 4.389 1.2655 4.792 2.6567.193.6705.134 1.6092-.151 2.221-.629 1.3493-2.367 2.0868-4.633 1.9695-2.769-.1425-4.574-1.4164-5.346-3.7547l-.269-.8297h-3.181-3.172v.3939c0 .2263.092.8465.21 1.3913 1.074 5.171 5.237 8.054 11.624 8.054 5.749-.0083 9.719-2.1958 11.045-6.1013.638-1.8689.604-4.4754-.076-6.1516-.654-1.6175-1.913-2.9082-3.726-3.8133-1.175-.5951-3.651-1.2739-5.523-1.5254-3.147-.419-4.582-.88-5.438-1.7348-.604-.6035-.839-1.1985-.839-2.1204.008-.8884.235-1.4834.797-2.1036.789-.8549 1.872-1.232 3.508-1.2237 2.568.0168 4.457 1.2404 5.179 3.3692l.184.5448 3.231.0251 3.24.0168v-.2012c0-.3436-.478-2.0617-.755-2.7238-.907-2.2042-2.585-3.98094-4.709-5.0118-2.182-1.056-5.136-1.5421-7.864-1.27391z"/><path d="m59.9255 7.34164c-3.3068.41904-5.7743 1.55885-7.6626 3.56186-1.2674 1.3326-2.0983 2.8496-2.5683 4.7185-.2182.8297-.428 2.397-.428 3.1345v.2682h3.1893 3.1893v-.4526c0-.9889.4112-2.3299.9819-3.2267.6883-1.0727 1.9724-1.9862 3.2145-2.2796.5959-.1425 2.0143-.1425 2.6018 0 1.3596.3269 2.543 1.2488 3.1305 2.4137.3861.7878.5036 1.3829.4616 2.3635-.0335.7123-.0755.88-.3441 1.4583-.5623 1.2068-1.7289 2.1622-3.9614 3.2434-2.7025 1.3158-8.6027 3.7379-11.515 4.7352l-.6966.2347v4.3078 4.2994h11.8339 11.8339v-2.8914-2.8914l-7.99-.0084h-7.9983l1.3848-.4861c2.3416-.8213 5.6484-2.221 7.3857-3.1177 2.0646-1.0812 3.8691-2.5059 4.8595-3.8301 1.3512-1.8271 1.9303-4.1234 1.6953-6.7215-.3609-3.9726-2.7277-6.89756-6.6387-8.21337-1.259-.42743-2.3836-.59505-4.0706-.62857-.8728-.01677-1.7289-.00839-1.8884.00838z"/><path d="m88.2932 7.37526c-5.9253.72914-10.2896 4.13184-12.0269 9.38664-.6211 1.8606-.7638 2.8663-.7722 5.2381 0 1.7265.0252 2.1539.1847 3.0172.898 4.8274 3.8691 8.5402 8.3257 10.4091 4.0873 1.7097 9.1818 1.5756 13.0257-.3436 3.8018-1.9025 6.1938-5.2297 6.7478-9.4118.076-.528.126-1.6092.126-2.6065v-1.693h-7.2179-7.2179v2.4305 2.4305h3.9447c2.8368 0 3.9446.0251 3.9446.0922 0 .1676-.5035 1.0308-.94 1.6175-.5875.7794-1.368 1.408-2.3751 1.9025-1.2422.6034-1.922.7627-3.5167.8129-1.5191.0419-2.2241-.0419-3.2816-.4022-2.2828-.7711-3.8942-2.3719-4.7923-4.7688-.47-1.2404-.5791-1.9528-.5707-3.6541.0084-1.408.0252-1.5756.2686-2.5059.6714-2.5394 2.115-4.4084 4.1712-5.3806 1.0659-.5028 1.9388-.704 3.3488-.7626 3.483-.1425 6.0512 1.1817 7.2934 3.763l.3525.7291 3.2984.0084c2.736 0 3.29-.0167 3.29-.1173 0-.2514-.42-1.7432-.671-2.3634-.638-1.6092-1.461-2.8244-2.762-4.0732-1.0404-1.0057-1.8461-1.58397-3.0967-2.20416-1.4436-.72077-2.5178-1.07277-4.2803-1.39124-1.0408-.19277-3.7936-.27657-4.8008-.15924z"/><path d="m107.907 7.93679c-.033.02514-.058 6.38631-.058 14.12191v14.0632h3.105 3.105v-14.1219-14.12188h-3.046c-1.679 0-3.08.02514-3.106.05867z"/></g></svg>