<svg width="118" height="118" viewBox="0 0 118 118" fill="none" xmlns="http://www.w3.org/2000/svg">
<rect width="118" height="118" fill="#0A3878"/>
<path d="M99.1468 69.4391L90.8976 76.2293L97.6873 41.9611H90.8976L87.9787 55.6684H67.3557L71.4168 34.8536L79.7929 28L75.6049 48.8147H82.6484L85.3135 34.8536H106L99.1468 69.4391Z" fill="white"/>
<path fill-rule="evenodd" clip-rule="evenodd" d="M78.3334 69.4391L74.2088 90L82.6484 83.2733L86.6461 62.6489H65.9596L63.2311 76.2293H56.4413L59.1065 62.6489H34.803C32.4679 62.3443 32.0533 60.449 32.1379 59.5394C32.5948 57.0518 34.655 55.9222 35.6279 55.6684H60.5659L63.4075 41.9611L64.8809 34.8536H39.9429C19.3326 36.4782 12.1071 53.0877 11.0707 61.1894C9.90312 78.6534 23.4868 83.1887 30.4246 83.2733H68.5613L71.4168 69.4391H78.3334ZM63.4075 41.9611H39.9429C33.7877 40.9458 19.0661 47.5455 18.1777 61.1894C17.467 72.1044 26.0462 75.7639 30.4246 76.2293H49.4612L50.7938 69.4391H32.1379C25.437 68.3222 24.6502 62.3739 25.0944 59.5394C26.8203 52.1273 32.8359 49.3013 35.6279 48.8147H54.9184L63.4075 41.9611Z" fill="white"/>
<path d="M63.4075 41.9611L64.8809 34.8536H39.9429C19.3326 36.4782 12.1071 53.0877 11.0707 61.1894C9.90312 78.6534 23.4868 83.1887 30.4246 83.2733H68.5613L71.4168 69.4391H78.3334L74.2088 90L82.6484 83.2733L86.6461 62.6489H65.9596L63.2311 76.2293H56.4413L59.1065 62.6489H34.803C32.4679 62.3443 32.0533 60.449 32.1379 59.5394C32.5948 57.0518 34.655 55.9222 35.6279 55.6684H60.5659L63.4075 41.9611ZM63.4075 41.9611H39.9429C33.7877 40.9458 19.0661 47.5455 18.1777 61.1894C17.467 72.1044 26.0462 75.7639 30.4246 76.2293H49.4612L50.7938 69.4391H32.1379C25.437 68.3222 24.6502 62.3739 25.0944 59.5394C26.8203 52.1273 32.8359 49.3013 35.6279 48.8147H54.9184L63.4075 41.9611ZM90.8976 76.2293L99.1468 69.4391L106 34.8536H85.3135L82.6484 48.8147H75.6049L79.7929 28L71.4168 34.8536L67.3557 55.6684H87.9787L90.8976 41.9611H97.6873L90.8976 76.2293Z" stroke="white" stroke-width="0.65609"/>
</svg>
