<svg fill="none" height="46" viewBox="0 0 145 46" width="145" xmlns="http://www.w3.org/2000/svg"><g fill="#343434"><path d="m40.8195 3.63688c.0873 1.58455.1528 9.41802.1528 17.40772v14.5734h3.8204 3.8204v-17.4077-17.407756h-3.9732-3.9514z"/><path d="m8.72792 5.02057c-3.99507 1.18283-6.76761 3.79399-7.793663 7.36483-.21831.7365-.349296 2.0532-.349296 3.2807 0 3.5708 1.091549 5.9811 3.536619 7.8781 1.48451 1.1159 3.86408 2.3656 4.10423 2.1201.2838-.3124 3.05629-5.2223 3.05629-5.4231 0-.1116-.2183-.2678-.4802-.3348-.89511-.2455-2.55426-1.6738-3.01271-2.5888-.56761-1.1382-.54578-2.3434.06549-3.5709.37113-.7811.74225-1.1381 1.65915-1.6291 1.04787-.5357 1.44087-.6026 3.23097-.6026h2.0303v12.0515 12.0515h3.9296 3.9296v-5.1331-5.133h6.8767 6.8768v-3.5708-3.5708h-6.8768-6.8767v-3.2361-3.236h7.095 7.0951v-3.57085-3.57082l-13.3606.02232c-12.0943 0-13.51335.04464-14.73588.40172z"/><path d="m61.1004 10.6446c-4.1916.7142-7.2916 3.2807-7.881 6.5614l-.1747 1.0043h3.8423l3.8422-.0223.4367-.6919c.7422-1.2051 1.5281-1.6292 2.9253-1.6292 2.2049 0 3.0564.8258 3.2528 3.1245l.0874 1.3837-3.4275.1562c-5.5451.2455-8.0993.982-10.1296 2.9236-1.3972 1.3391-1.9866 2.8343-1.9866 5.0884 0 3.0575 1.2444 5.1331 3.8859 6.4498 1.3972.7142 1.5718.7365 3.9733.7365 2.2704 0 2.6197-.067 3.7767-.6026.7859-.3794 1.7683-1.1382 2.5761-1.9639.6986-.7365 1.3317-1.3391 1.3972-1.3391.0654 0 .1091.8481.1091 1.897v1.897l3.6676-.0446 3.6458-.067.0655-7.6996c.0436-4.4635-.0437-8.436-.1747-9.4626-.4148-3.2807-1.8338-5.3786-4.4971-6.6507-2.2705-1.0935-6.2874-1.5399-9.2127-1.0489zm6.2436 15.3545c-.0655 1.2498-.1964 1.6738-.6986 2.3657-.7859 1.0489-2.0957 1.6515-3.5802 1.6738-2.2923 0-3.6676-1.1382-3.4712-2.879.2183-1.9416 1.7247-2.6558 5.5888-2.6781l2.2486-.0223z"/><path d="m91.1839 10.6892c-2.0303.5802-3.5803 1.9862-4.4972 4.0394l-.5021 1.1382v-2.2987l-.0218-2.2764h-3.7113-3.7113v12.1631 12.1631h3.8205 3.8204v-7.097c0-5.7133.0655-7.3201.3274-8.2129.5895-1.9416 1.5937-2.7673 3.4057-2.7673 1.4627 0 2.2267.491 2.838 1.8746.3711.8258.4148 1.6069.4148 8.5477v7.6549h3.9077 3.9293l.066-7.7665c.065-7.6549.065-7.7442.567-8.6592.677-1.2052 1.463-1.6515 2.926-1.6515 1.375 0 2.379.5356 2.947 1.6068.349.6696.393 1.5399.458 8.5923l.066 7.8781h3.929 3.93l-.065-9.3287c-.088-8.1683-.131-9.4627-.481-10.5339-1.048-3.3254-3.078-4.9545-6.593-5.2893-3.471-.3348-6.833 1.3167-8.274 4.0395-.24.4463-.48.8034-.545.8034-.066 0-.3497-.5133-.6117-1.1382-.6767-1.4506-1.9648-2.7451-3.2746-3.2137-1.3972-.491-3.8423-.6249-5.0648-.2678z"/><path d="m133.099 10.6223c-2.248.5803-3.951 1.7854-5.065 3.5485l-.611 1.0043v-1.9416-1.9417h-3.82-3.821v17.073 17.0729h3.821 3.82v-6.8068c0-3.7494.087-6.8069.175-6.8069.109 0 .327.2678.502.5803.567 1.0935 2.248 2.4103 3.777 2.9682 2.052.7365 4.868.6249 6.833-.2901 2.619-1.2052 4.693-4.1511 5.414-7.6326.415-1.964.415-6.4498.022-8.3468-.895-4.218-3.057-7.1193-6.113-8.1459-1.332-.4464-3.864-.6249-4.934-.3348zm1.07 6.8738c1.812.915 2.794 3.4592 2.554 6.6283-.262 3.5262-1.725 5.2447-4.453 5.2447-1.572 0-2.336-.2678-3.166-1.0713-1.091-1.0489-1.528-2.2094-1.637-4.2626-.24-4.4635 1.462-6.9408 4.759-6.9185.677 0 1.528.1562 1.943.3794z"/></g></svg>