<svg fill="none" height="115" viewBox="0 0 80 115" width="80" xmlns="http://www.w3.org/2000/svg" xmlns:xlink="http://www.w3.org/1999/xlink"><mask id="a" fill="#000" height="56" maskUnits="userSpaceOnUse" width="55" x="13.1934" y="11.9033"><path d="m13.1934 11.9033h55v56h-55z" fill="#fff"/><path clip-rule="evenodd" d="m14.2246 26.3344c-.0417 7.387-.0417 19.475 0 26.8621l.0758 13.431h.7768c.773 0 .7876-.023 2.9611-4.598 1.2014-2.5289 2.2532-4.598 2.3376-4.598.0842 0 .9573.7756 1.9402 1.7233 3.3325 3.214 7.2628 5.4138 11.9562 6.6915 1.9987.544 2.7705.6229 6.215.635 3.3088.0117 4.2673-.0718 6.0399-.5256 4.0127-1.0273 7.2747-2.624 10.5211-5.1502l1.5476-1.2045 3.3718 3.5131c3.0229 3.1499 3.4548 3.5134 4.1744 3.5134.4416 0 .8056-.1089.8094-.242.0036-.1331.0067-12.1121.0067-26.6201 0-14.5079-.0031-26.487-.0067-26.6201-.0045-.1597-8.9441-.242-26.3289-.242h-26.3222zm14.8215-10.7008c-2.9699 1.5059-4.8727 2.8965-7.1602 5.2332-2.2012 2.249-4.0378 4.8902-5.1366 7.3876-.3816.8668-.7739 1.5788-.8724 1.5824-.0984.0037-.1787-3.4238-.1787-7.6164v-7.6231l7.687.0046 7.687.0046zm9.9986-.7338c-.0067.1665-2.6615 5.6386-5.8993 12.1606l-5.8869 11.858-5.585.0651c-3.0717.0358-5.6776-.029-5.7908-.144-.3025-.3071.4078-4.7006 1.1126-6.882 2.645-8.1866 9.4053-14.6173 17.4808-16.6288 2.9952-.7459 4.5877-.8955 4.5686-.4289zm7.692.4305c1.0119.2512 2.6377.7941 3.6128 1.2062 1.9283.815 5.6367 3.1927 6.5746 4.2156l.5861.6392-4.0816 4.1442-4.0819 4.1443-3.5956-7.2975c-1.9774-4.0139-3.5953-7.42-3.5953-7.5694 0-.3443 2.0353-.1144 4.5809.5174zm14.7393 2.0365-2.7201 2.7694-1.0898-.9229c-1.514-1.2824-4.2981-3.0771-6.0521-3.9013l-1.4733-.6924 7.0277-.0111 7.0275-.0112zm4.0387 5.5796c0 3.7933-.0806 6.89-.1788 6.8815s-.6466-1.0014-1.2182-2.2063c-.5718-1.2052-1.7362-3.118-2.5874-4.2508l-1.5479-2.0596 2.5834-2.6308c1.4208-1.4472 2.6655-2.6311 2.7661-2.6311s.1828 3.1037.1828 6.8971zm-25.7425 5.324v10.769h-5.1106c-2.811 0-5.154-.0818-5.2069-.1815-.0851-.16 10.0922-21.3566 10.2538-21.3566.0351 0 .0637 4.8461.0637 10.7691zm5.0255 6.0275-3.357 3.4083.0129-10.1628.0128-10.1631 3.3442 6.7545 3.3443 6.7547zm16.2728-8.8306c1.4016 2.1301 2.4108 4.211 3.1461 6.4878.7055 2.1833 1.4161 6.5773 1.1136 6.8844-.1132.115-2.7192.1798-5.7909.144l-5.5849-.0651-1.9068-3.8091-1.9069-3.8091 4.2828-4.3531 4.2828-4.3533.6581.6403c.3618.3519 1.1298 1.3569 1.7061 2.2332zm-10.5742 10.1805c.7878 1.595 1.4321 3.0107 1.4321 3.146 0 .1575-1.6228.2456-4.5288.2456-2.4908 0-4.5288-.0801-4.5288-.1781 0-.236 5.7809-6.1139 6.013-6.1139.0994 0 .825 1.3051 1.6125 2.9004zm-24.0721 4.9634c0 .4363-6.361 12.9347-6.5529 12.8757-.3938-.1213-2.1898-3.7782-2.8565-5.8158-.6488-1.9834-1.4315-6.5531-1.1903-6.9495.1413-.2321 10.5997-.341 10.5997-.1104zm13.348 12.1347v12.2544l-1.7467-.1607c-2.1888-.2013-5.62-1.1234-7.6388-2.0529-2.9433-1.355-6.2004-3.7774-8.236-6.1255l-.9732-1.1222 3.3279-6.8583c1.8306-3.772 3.4889-7.1579 3.685-7.5238l.3569-.6655h5.6123 5.6126zm16.6842-4.9959c1.967 3.992 3.573 7.3953 3.5692 7.5625s-.3275.6616-.7194 1.0989l-.7122.7953-6.7407-6.9663c-7.2008-7.4415-8.9825-9.3441-8.9825-9.5927 0-.0859 2.2523-.1563 5.0048-.1563h5.0048zm8.932-7.0284c.2362.3881-.5308 4.8596-1.1859 6.9125-.6435 2.0173-2.4507 5.7066-2.8636 5.8462-.1897.0642-6.5502-12.4323-6.5502-12.8691 0-.2306 10.4583-.1217 10.5997.1104zm-8.5392 18.1241c-.8766.9729-4.5068 3.3065-6.3638 4.0908-2.3238.9813-5.0615 1.6974-7.2678 1.9002l-1.7769.1636.0045-11.5889.0045-11.589 7.9554 8.228 7.9552 8.2281zm-40.2207-7.8069c.3151.7388.9999 2.0621 1.5221 2.941l.9492 1.5977-1.5148 3.1051c-.8331 1.7076-1.5984 3.1049-1.7007 3.1049-.1025 0-.1861-2.7225-.1861-6.05s.0803-6.0481.1787-6.0459c.0985.0021.4365.6086.7516 1.3472zm48.8862 4.6987c0 3.3275-.0837 6.05-.1862 6.05-.1022 0-.8676-1.3973-1.7006-3.1049l-1.5148-3.1051.9491-1.5977c.5223-.8789 1.2071-2.2022 1.5222-2.941.3151-.7386.6533-1.3451.7515-1.3472.0982-.0022.1788 2.7184.1788 6.0459zm-3.2595 3.7791c.6261 1.2797 1.1005 2.3655 1.054 2.4127-.0465.0474-.8779-.7248-1.8473-1.7155l-1.7626-1.8017.5656-.6113c.3113-.3362.6302-.6113.7089-.6113.0786 0 .6552 1.0471 1.2814 2.3271z" fill="#000" fill-rule="evenodd"/></mask><path d="m0 0h80v80l-40 35-40-35z" fill="#fff"/><g clip-rule="evenodd" fill-rule="evenodd"><path d="m14.2246 26.3344c-.0417 7.387-.0417 19.475 0 26.8621l.0758 13.431h.7768c.773 0 .7876-.023 2.9611-4.598 1.2014-2.5289 2.2532-4.598 2.3376-4.598.0842 0 .9573.7756 1.9402 1.7233 3.3325 3.214 7.2628 5.4138 11.9562 6.6915 1.9987.544 2.7705.6229 6.215.635 3.3088.0117 4.2673-.0718 6.0399-.5256 4.0127-1.0273 7.2747-2.624 10.5211-5.1502l1.5476-1.2045 3.3718 3.5131c3.0229 3.1499 3.4548 3.5134 4.1744 3.5134.4416 0 .8056-.1089.8094-.242.0036-.1331.0067-12.1121.0067-26.6201 0-14.5079-.0031-26.487-.0067-26.6201-.0045-.1597-8.9441-.242-26.3289-.242h-26.3222zm14.8215-10.7008c-2.9699 1.5059-4.8727 2.8965-7.1602 5.2332-2.2012 2.249-4.0378 4.8902-5.1366 7.3876-.3816.8668-.7739 1.5788-.8724 1.5824-.0984.0037-.1787-3.4238-.1787-7.6164v-7.6231l7.687.0046 7.687.0046zm9.9986-.7338c-.0067.1665-2.6615 5.6386-5.8993 12.1606l-5.8869 11.858-5.585.0651c-3.0717.0358-5.6776-.029-5.7908-.144-.3025-.3071.4078-4.7006 1.1126-6.882 2.645-8.1866 9.4053-14.6173 17.4808-16.6288 2.9952-.7459 4.5877-.8955 4.5686-.4289zm7.692.4305c1.0119.2512 2.6377.7941 3.6128 1.2062 1.9283.815 5.6367 3.1927 6.5746 4.2156l.5861.6392-4.0816 4.1442-4.0819 4.1443-3.5956-7.2975c-1.9774-4.0139-3.5953-7.42-3.5953-7.5694 0-.3443 2.0353-.1144 4.5809.5174zm14.7393 2.0365-2.7201 2.7694-1.0898-.9229c-1.514-1.2824-4.2981-3.0771-6.0521-3.9013l-1.4733-.6924 7.0277-.0111 7.0275-.0112zm4.0387 5.5796c0 3.7933-.0806 6.89-.1788 6.8815s-.6466-1.0014-1.2182-2.2063c-.5718-1.2052-1.7362-3.118-2.5874-4.2508l-1.5479-2.0596 2.5834-2.6308c1.4208-1.4472 2.6655-2.6311 2.7661-2.6311s.1828 3.1037.1828 6.8971zm-25.7425 5.324v10.769h-5.1106c-2.811 0-5.154-.0818-5.2069-.1815-.0851-.16 10.0922-21.3566 10.2538-21.3566.0351 0 .0637 4.8461.0637 10.7691zm5.0255 6.0275-3.357 3.4083.0129-10.1628.0128-10.1631 3.3442 6.7545 3.3443 6.7547zm16.2728-8.8306c1.4016 2.1301 2.4108 4.211 3.1461 6.4878.7055 2.1833 1.4161 6.5773 1.1136 6.8844-.1132.115-2.7192.1798-5.7909.144l-5.5849-.0651-1.9068-3.8091-1.9069-3.8091 4.2828-4.3531 4.2828-4.3533.6581.6403c.3618.3519 1.1298 1.3569 1.7061 2.2332zm-10.5742 10.1805c.7878 1.595 1.4321 3.0107 1.4321 3.146 0 .1575-1.6228.2456-4.5288.2456-2.4908 0-4.5288-.0801-4.5288-.1781 0-.236 5.7809-6.1139 6.013-6.1139.0994 0 .825 1.3051 1.6125 2.9004zm-24.0721 4.9634c0 .4363-6.361 12.9347-6.5529 12.8757-.3938-.1213-2.1898-3.7782-2.8565-5.8158-.6488-1.9834-1.4315-6.5531-1.1903-6.9495.1413-.2321 10.5997-.341 10.5997-.1104zm13.348 12.1347v12.2544l-1.7467-.1607c-2.1888-.2013-5.62-1.1234-7.6388-2.0529-2.9433-1.355-6.2004-3.7774-8.236-6.1255l-.9732-1.1222 3.3279-6.8583c1.8306-3.772 3.4889-7.1579 3.685-7.5238l.3569-.6655h5.6123 5.6126zm16.6842-4.9959c1.967 3.992 3.573 7.3953 3.5692 7.5625s-.3275.6616-.7194 1.0989l-.7122.7953-6.7407-6.9663c-7.2008-7.4415-8.9825-9.3441-8.9825-9.5927 0-.0859 2.2523-.1563 5.0048-.1563h5.0048zm8.932-7.0284c.2362.3881-.5308 4.8596-1.1859 6.9125-.6435 2.0173-2.4507 5.7066-2.8636 5.8462-.1897.0642-6.5502-12.4323-6.5502-12.8691 0-.2306 10.4583-.1217 10.5997.1104zm-8.5392 18.1241c-.8766.9729-4.5068 3.3065-6.3638 4.0908-2.3238.9813-5.0615 1.6974-7.2678 1.9002l-1.7769.1636.0045-11.5889.0045-11.589 7.9554 8.228 7.9552 8.2281zm-40.2207-7.8069c.3151.7388.9999 2.0621 1.5221 2.941l.9492 1.5977-1.5148 3.1051c-.8331 1.7076-1.5984 3.1049-1.7007 3.1049-.1025 0-.1861-2.7225-.1861-6.05s.0803-6.0481.1787-6.0459c.0985.0021.4365.6086.7516 1.3472zm48.8862 4.6987c0 3.3275-.0837 6.05-.1862 6.05-.1022 0-.8676-1.3973-1.7006-3.1049l-1.5148-3.1051.9491-1.5977c.5223-.8789 1.2071-2.2022 1.5222-2.941.3151-.7386.6533-1.3451.7515-1.3472.0982-.0022.1788 2.7184.1788 6.0459zm-3.2595 3.7791c.6261 1.2797 1.1005 2.3655 1.054 2.4127-.0465.0474-.8779-.7248-1.8473-1.7155l-1.7626-1.8017.5656-.6113c.3113-.3362.6302-.6113.7089-.6113.0786 0 .6552 1.0471 1.2814 2.3271z" fill="#cc0035"/><path d="m14.2246 26.3344c-.0417 7.387-.0417 19.475 0 26.8621l.0758 13.431h.7768c.773 0 .7876-.023 2.9611-4.598 1.2014-2.5289 2.2532-4.598 2.3376-4.598.0842 0 .9573.7756 1.9402 1.7233 3.3325 3.214 7.2628 5.4138 11.9562 6.6915 1.9987.544 2.7705.6229 6.215.635 3.3088.0117 4.2673-.0718 6.0399-.5256 4.0127-1.0273 7.2747-2.624 10.5211-5.1502l1.5476-1.2045 3.3718 3.5131c3.0229 3.1499 3.4548 3.5134 4.1744 3.5134.4416 0 .8056-.1089.8094-.242.0036-.1331.0067-12.1121.0067-26.6201 0-14.5079-.0031-26.487-.0067-26.6201-.0045-.1597-8.9441-.242-26.3289-.242h-26.3222zm14.8215-10.7008c-2.9699 1.5059-4.8727 2.8965-7.1602 5.2332-2.2012 2.249-4.0378 4.8902-5.1366 7.3876-.3816.8668-.7739 1.5788-.8724 1.5824-.0984.0037-.1787-3.4238-.1787-7.6164v-7.6231l7.687.0046 7.687.0046zm9.9986-.7338c-.0067.1665-2.6615 5.6386-5.8993 12.1606l-5.8869 11.858-5.585.0651c-3.0717.0358-5.6776-.029-5.7908-.144-.3025-.3071.4078-4.7006 1.1126-6.882 2.645-8.1866 9.4053-14.6173 17.4808-16.6288 2.9952-.7459 4.5877-.8955 4.5686-.4289zm7.692.4305c1.0119.2512 2.6377.7941 3.6128 1.2062 1.9283.815 5.6367 3.1927 6.5746 4.2156l.5861.6392-4.0816 4.1442-4.0819 4.1443-3.5956-7.2975c-1.9774-4.0139-3.5953-7.42-3.5953-7.5694 0-.3443 2.0353-.1144 4.5809.5174zm14.7393 2.0365-2.7201 2.7694-1.0898-.9229c-1.514-1.2824-4.2981-3.0771-6.0521-3.9013l-1.4733-.6924 7.0277-.0111 7.0275-.0112zm4.0387 5.5796c0 3.7933-.0806 6.89-.1788 6.8815s-.6466-1.0014-1.2182-2.2063c-.5718-1.2052-1.7362-3.118-2.5874-4.2508l-1.5479-2.0596 2.5834-2.6308c1.4208-1.4472 2.6655-2.6311 2.7661-2.6311s.1828 3.1037.1828 6.8971zm-25.7425 5.324v10.769h-5.1106c-2.811 0-5.154-.0818-5.2069-.1815-.0851-.16 10.0922-21.3566 10.2538-21.3566.0351 0 .0637 4.8461.0637 10.7691zm5.0255 6.0275-3.357 3.4083.0129-10.1628.0128-10.1631 3.3442 6.7545 3.3443 6.7547zm16.2728-8.8306c1.4016 2.1301 2.4108 4.211 3.1461 6.4878.7055 2.1833 1.4161 6.5773 1.1136 6.8844-.1132.115-2.7192.1798-5.7909.144l-5.5849-.0651-1.9068-3.8091-1.9069-3.8091 4.2828-4.3531 4.2828-4.3533.6581.6403c.3618.3519 1.1298 1.3569 1.7061 2.2332zm-10.5742 10.1805c.7878 1.595 1.4321 3.0107 1.4321 3.146 0 .1575-1.6228.2456-4.5288.2456-2.4908 0-4.5288-.0801-4.5288-.1781 0-.236 5.7809-6.1139 6.013-6.1139.0994 0 .825 1.3051 1.6125 2.9004zm-24.0721 4.9634c0 .4363-6.361 12.9347-6.5529 12.8757-.3938-.1213-2.1898-3.7782-2.8565-5.8158-.6488-1.9834-1.4315-6.5531-1.1903-6.9495.1413-.2321 10.5997-.341 10.5997-.1104zm13.348 12.1347v12.2544l-1.7467-.1607c-2.1888-.2013-5.62-1.1234-7.6388-2.0529-2.9433-1.355-6.2004-3.7774-8.236-6.1255l-.9732-1.1222 3.3279-6.8583c1.8306-3.772 3.4889-7.1579 3.685-7.5238l.3569-.6655h5.6123 5.6126zm16.6842-4.9959c1.967 3.992 3.573 7.3953 3.5692 7.5625s-.3275.6616-.7194 1.0989l-.7122.7953-6.7407-6.9663c-7.2008-7.4415-8.9825-9.3441-8.9825-9.5927 0-.0859 2.2523-.1563 5.0048-.1563h5.0048zm8.932-7.0284c.2362.3881-.5308 4.8596-1.1859 6.9125-.6435 2.0173-2.4507 5.7066-2.8636 5.8462-.1897.0642-6.5502-12.4323-6.5502-12.8691 0-.2306 10.4583-.1217 10.5997.1104zm-8.5392 18.1241c-.8766.9729-4.5068 3.3065-6.3638 4.0908-2.3238.9813-5.0615 1.6974-7.2678 1.9002l-1.7769.1636.0045-11.5889.0045-11.589 7.9554 8.228 7.9552 8.2281zm-40.2207-7.8069c.3151.7388.9999 2.0621 1.5221 2.941l.9492 1.5977-1.5148 3.1051c-.8331 1.7076-1.5984 3.1049-1.7007 3.1049-.1025 0-.1861-2.7225-.1861-6.05s.0803-6.0481.1787-6.0459c.0985.0021.4365.6086.7516 1.3472zm48.8862 4.6987c0 3.3275-.0837 6.05-.1862 6.05-.1022 0-.8676-1.3973-1.7006-3.1049l-1.5148-3.1051.9491-1.5977c.5223-.8789 1.2071-2.2022 1.5222-2.941.3151-.7386.6533-1.3451.7515-1.3472.0982-.0022.1788 2.7184.1788 6.0459zm-3.2595 3.7791c.6261 1.2797 1.1005 2.3655 1.054 2.4127-.0465.0474-.8779-.7248-1.8473-1.7155l-1.7626-1.8017.5656-.6113c.3113-.3362.6302-.6113.7089-.6113.0786 0 .6552 1.0471 1.2814 2.3271z" mask="url(#a)" stroke="#cc0035"/></g></svg>