<svg width="72" height="47" viewBox="0 0 72 47" fill="none" xmlns="http://www.w3.org/2000/svg">
<path d="M65.9503 31.0768L59.8719 36.0051L64.8749 11.1331H59.8719L57.7211 21.0819H42.5252L45.5176 5.97441L51.6895 1L48.6036 16.1075H53.7936L55.7573 5.97441H71L65.9503 31.0768Z" fill="#03316B"/>
<path fill-rule="evenodd" clip-rule="evenodd" d="M50.6141 31.0768L47.5749 46L53.7936 41.1177L56.7392 26.1484H41.4966L39.486 36.0051H34.4831L36.4469 26.1484H18.5391C16.8184 25.9273 16.513 24.5517 16.5753 23.8915C16.9119 22.086 18.43 21.2661 19.1469 21.0819H37.5223L39.616 11.1331L40.7017 5.97441H22.3264C7.13981 7.15353 1.81579 19.2088 1.05209 25.089C0.191772 37.7646 10.2008 41.0563 15.3129 41.1177H43.4136L45.5176 31.0768H50.6141ZM39.616 11.1331H22.3264C17.791 10.3961 6.94343 15.1863 6.28884 25.089C5.76517 33.0113 12.0867 35.6674 15.3129 36.0051H29.3399L30.3217 31.0768H16.5753C11.6378 30.2661 11.058 25.9488 11.3853 23.8915C12.6571 18.5118 17.0896 16.4606 19.1469 16.1075H33.3609L39.616 11.1331Z" fill="#03316B"/>
<path d="M39.616 11.1331L40.7017 5.97441H22.3264C7.13981 7.15353 1.81579 19.2088 1.05209 25.089C0.191772 37.7646 10.2008 41.0563 15.3129 41.1177H43.4136L45.5176 31.0768H50.6141L47.5749 46L53.7936 41.1177L56.7392 26.1484H41.4966L39.486 36.0051H34.4831L36.4469 26.1484H18.5391C16.8184 25.9273 16.513 24.5517 16.5753 23.8915C16.9119 22.086 18.43 21.2661 19.1469 21.0819H37.5223L39.616 11.1331ZM39.616 11.1331H22.3264C17.791 10.3961 6.94343 15.1863 6.28884 25.089C5.76517 33.0113 12.0867 35.6673 15.3129 36.0051H29.3399L30.3217 31.0768H16.5753C11.6378 30.2661 11.058 25.9488 11.3853 23.8915C12.6571 18.5118 17.0896 16.4606 19.1469 16.1075H33.3609L39.616 11.1331ZM59.8719 36.0051L65.9503 31.0768L71 5.97441H55.7573L53.7936 16.1075H48.6036L51.6895 1L45.5176 5.97441L42.5252 21.0819H57.7211L59.8719 11.1331H64.8749L59.8719 36.0051Z" stroke="#03316B" stroke-width="0.65609"/>
</svg>
