<svg width="170" height="50" viewBox="0 0 170 50" fill="none" xmlns="http://www.w3.org/2000/svg">
<mask id="mask0_230_1677" style="mask-type:alpha" maskUnits="userSpaceOnUse" x="0" y="18" width="18" height="30">
<path d="M0.801841 37.963L0.801835 37.78C0.803091 37.781 0.804447 37.782 0.805891 37.7827C0.810153 37.7849 0.813318 37.7846 0.815234 37.784C0.818454 37.7828 0.819825 37.78 0.820159 37.7794L0.820171 37.7793C0.820714 37.7782 0.821044 37.7771 0.821235 37.7764C0.822397 37.7721 0.823141 37.7632 0.823811 37.7523C0.824538 37.7406 0.82528 37.7242 0.826035 37.7031C0.832068 37.5343 0.83206 37.2528 0.826015 37.077C0.825259 37.055 0.824515 37.0377 0.823788 37.0251C0.823117 37.0135 0.822373 37.0037 0.821211 36.998C0.821019 36.9971 0.820689 36.9956 0.820146 36.9939L0.820135 36.9939C0.819801 36.9928 0.818429 36.9884 0.815209 36.9835C0.813409 36.9808 0.810506 36.9772 0.806627 36.9744C0.808203 36.9373 0.810273 36.9061 0.812978 36.8793C0.822337 36.7868 0.839182 36.7488 0.87017 36.7027C0.888639 36.6752 0.917132 36.6501 0.948281 36.6321C0.979562 36.6141 1.01241 36.6039 1.03912 36.6046C1.07991 36.6058 1.1736 36.6253 1.31013 36.6604C1.44609 36.6953 1.62321 36.7454 1.82978 36.8071C2.24289 36.9306 2.77346 37.1005 3.32756 37.2888C4.98355 37.8515 5.91245 38.1545 6.48675 38.2767C6.77408 38.3378 6.97343 38.3538 7.13101 38.3341C7.28878 38.3145 7.40405 38.2591 7.52359 38.1787C7.76632 38.0153 7.97579 37.6796 8.03146 37.3631C8.03498 37.3431 8.03794 37.3004 8.04051 37.2348C8.0431 37.1686 8.04533 37.0779 8.04722 36.9607C8.05099 36.7264 8.05339 36.3858 8.05444 35.9233C8.05654 34.9984 8.05327 33.5857 8.04492 31.5601C8.03412 28.9385 8.02743 27.536 8.01656 26.7591C8.00571 25.9836 7.99076 25.8294 7.96235 25.7067C7.88022 25.3519 7.75926 25.0552 7.57449 24.7565C7.32532 24.3536 7.0726 24.0971 6.30979 23.4667C5.81177 23.0552 5.53305 22.8231 5.37135 22.68C5.20875 22.5361 5.16831 22.4852 5.14217 22.4364C5.12492 22.4042 5.11072 22.3549 5.09915 22.2601C5.08768 22.1661 5.07916 22.0314 5.07066 21.8305C5.05553 21.4725 5.05817 20.9723 5.07254 20.5213C5.08693 20.0697 5.11302 19.6693 5.14445 19.5097C5.19202 19.2681 5.26514 19.0973 5.37009 18.989C5.47493 18.8809 5.61211 18.8344 5.78908 18.8431C5.94582 18.8508 6.26902 18.9428 6.66846 19.0873C7.06728 19.2316 7.54038 19.4276 7.99575 19.6419C8.52339 19.8903 9.98541 20.7296 10.4827 21.0695C11.35 21.6626 12.2115 22.3303 12.6435 22.7438C12.8526 22.944 13.0189 23.1698 13.1463 23.4281C13.2739 23.6866 13.3631 23.9789 13.4166 24.3123C13.4658 24.6187 13.4934 25.309 13.4967 25.9432C13.4984 26.2599 13.494 26.5619 13.4833 26.794C13.4779 26.9101 13.471 27.0085 13.4624 27.0824C13.4582 27.1194 13.4535 27.15 13.4486 27.1735C13.4435 27.1974 13.4384 27.2128 13.4335 27.2205C13.4236 27.2363 13.4148 27.2463 13.3942 27.2495C13.3725 27.2529 13.3371 27.2488 13.2727 27.2323C13.1442 27.1995 12.907 27.1194 12.4501 26.9635C12.0565 26.8292 11.6415 26.7009 11.5282 26.6787C11.1011 26.5952 10.7699 26.7602 10.6226 27.1315C10.6049 27.1761 10.5913 27.2132 10.5808 27.2864C10.5703 27.359 10.5629 27.467 10.5571 27.6532C10.5454 28.0257 10.54 28.7147 10.5298 30.068C10.5184 31.5813 10.5073 34.1308 10.505 35.7335L10.5049 35.8541C10.5028 37.3478 10.5017 38.0957 10.5223 38.5358C10.5329 38.7619 10.5492 38.9078 10.5744 39.0326C10.5982 39.1509 10.6299 39.2495 10.6709 39.3772L10.6777 39.3986C10.7538 39.6357 10.8873 39.9258 11.0438 40.2076C11.2004 40.4895 11.3809 40.7648 11.5515 40.972C11.716 41.1719 11.9855 41.4374 12.4382 41.8387C12.8912 42.2403 13.5291 42.779 14.4313 43.5254C15.7542 44.6198 16.517 45.2561 16.9668 45.6509C17.1917 45.8483 17.3377 45.9848 17.4361 46.0876C17.5344 46.1904 17.584 46.2583 17.6171 46.3186C17.6228 46.3289 17.6282 46.3388 17.6335 46.3484C17.7166 46.4993 17.7545 46.5681 17.7728 46.6685C17.7828 46.7228 17.787 46.7869 17.788 46.8776C17.7889 46.9565 17.7874 47.0545 17.7854 47.1827C17.7851 47.2018 17.7848 47.2216 17.7845 47.2422L17.7758 47.8155L9.28867 42.8891L0.801841 37.963Z" fill="white" stroke="black" stroke-width="0.0375873"/>
</mask>
<g mask="url(#mask0_230_1677)">
<rect x="0.0162761" y="0.028191" width="42.883" height="42.244" transform="matrix(0.86601 0.500028 3.18769e-05 1 -10.6049 3.34928)" stroke="#1E110E" stroke-width="0.0375873"/>
<path d="M-4.25938 22.8061L9.41019 14.914" stroke="#1E110E" stroke-width="0.811112"/>
<path d="M-10.6061 26.4702L3.06351 18.5781" stroke="#1E110E" stroke-width="0.811112"/>
<path d="M-3.2506 24.5156L10.419 16.6235" stroke="#1E110E" stroke-width="0.811112"/>
<path d="M-9.59734 28.1807L4.07224 20.2885" stroke="#1E110E" stroke-width="0.811112"/>
<path d="M-2.24187 26.2256L11.4277 18.3334" stroke="#1E110E" stroke-width="0.811112"/>
<path d="M-8.58794 29.8911L5.08164 21.999" stroke="#1E110E" stroke-width="0.811112"/>
<path d="M-1.23271 27.937L12.4369 20.0449" stroke="#1E110E" stroke-width="0.811112"/>
<path d="M-7.57909 31.6011L6.09049 23.7089" stroke="#1E110E" stroke-width="0.811112"/>
<path d="M-0.223313 29.6465L13.4463 21.7543" stroke="#1E110E" stroke-width="0.811112"/>
<path d="M-6.56993 33.3105L7.09965 25.4184" stroke="#1E110E" stroke-width="0.811112"/>
<path d="M0.785476 31.3564L14.4551 23.4643" stroke="#1E110E" stroke-width="0.811112"/>
<path d="M-5.56126 35.022L8.10831 27.1298" stroke="#1E110E" stroke-width="0.811112"/>
<path d="M1.79469 33.0669L15.4643 25.1747" stroke="#1E110E" stroke-width="0.811112"/>
<path d="M-4.55235 36.7314L9.11723 28.8393" stroke="#1E110E" stroke-width="0.811112"/>
<path d="M2.80342 34.7768L16.473 26.8847" stroke="#1E110E" stroke-width="0.811112"/>
<path d="M-3.54363 38.4414L10.126 30.5493" stroke="#1E110E" stroke-width="0.811112"/>
<path d="M3.81282 36.4863L17.4824 28.5942" stroke="#1E110E" stroke-width="0.811112"/>
<path d="M-2.53423 40.1509L11.1354 32.2587" stroke="#1E110E" stroke-width="0.811112"/>
<path d="M4.821 38.1973L18.4906 30.3051" stroke="#1E110E" stroke-width="0.811112"/>
<path d="M-1.52501 41.8613L12.1446 33.9692" stroke="#1E110E" stroke-width="0.811112"/>
<path d="M5.8304 39.9072L19.5 32.0151" stroke="#1E110E" stroke-width="0.811112"/>
<path d="M-0.51561 43.5713L13.154 35.6791" stroke="#1E110E" stroke-width="0.811112"/>
<path d="M6.83955 41.6167L20.5091 33.7245" stroke="#1E110E" stroke-width="0.811112"/>
<path d="M0.492569 45.2812L14.1621 37.3891" stroke="#1E110E" stroke-width="0.811112"/>
<path d="M7.8484 43.3271L21.518 35.435" stroke="#1E110E" stroke-width="0.811112"/>
<path d="M1.5024 46.9912L15.172 39.0991" stroke="#1E110E" stroke-width="0.811112"/>
<path d="M8.85774 45.0376L22.5273 37.1454" stroke="#1E110E" stroke-width="0.811112"/>
<path d="M2.51076 48.7007L16.1803 40.8085" stroke="#1E110E" stroke-width="0.811112"/>
<path d="M9.86702 46.7475L23.5366 38.8554" stroke="#1E110E" stroke-width="0.811112"/>
<path d="M3.51991 50.4121L17.1895 42.52" stroke="#1E110E" stroke-width="0.811112"/>
<path d="M10.8753 48.457L24.5448 40.5649" stroke="#1E110E" stroke-width="0.811112"/>
<path d="M4.5287 52.1225L18.1983 44.2304" stroke="#1E110E" stroke-width="0.811112"/>
<path d="M11.8851 50.167L25.5547 42.2748" stroke="#1E110E" stroke-width="0.811112"/>
<path d="M5.53816 53.831L19.2077 45.9389" stroke="#1E110E" stroke-width="0.811112"/>
<path d="M12.8933 51.8774L26.5629 43.9853" stroke="#1E110E" stroke-width="0.811112"/>
<path d="M6.54683 55.542L20.2164 47.6498" stroke="#1E110E" stroke-width="0.811112"/>
</g>
<path d="M43.5228 10.0466C43.6179 9.89531 43.6066 7.74427 43.5075 7.12673C43.3998 6.45555 43.1471 5.94335 42.7235 5.53781C42.2897 5.12254 41.4267 4.45383 40.559 3.86059C40.0607 3.51991 38.5977 2.68006 38.0691 2.43126C37.1574 2.0021 36.0943 1.6789 35.7784 1.91996L5.70154 18.991M43.5228 10.0466C43.5104 10.0664 43.4983 10.0795 43.4648 10.0805M43.5228 10.0466L43.4648 10.0805M1.03253 36.7526C1.20168 36.7576 2.21615 37.0607 3.32466 37.4374C6.63729 38.5632 7.03641 38.6481 7.51205 38.328C7.75306 38.1657 7.96086 37.8322 8.01589 37.5194C8.03973 37.3838 8.04492 36.0527 8.03317 32.7753M1.03253 36.7526C0.974403 36.7509 0.895119 36.7966 0.85639 36.8542C0.792535 36.9492 0.785963 37.0142 0.78598 37.5502L0.785987 37.7651C0.785993 37.9728 0.931662 38.2259 1.11123 38.3301L9.28911 43.0769L17.7922 48.0126M1.03253 36.7526L8.03317 32.7753M17.7922 48.0126L17.8012 47.421C17.8107 46.7898 17.8167 46.8223 17.6294 46.4817C17.4879 46.2241 17.0806 45.8667 14.4351 43.678C12.6307 42.1852 11.8851 41.5242 11.5597 41.1291C11.2222 40.7191 10.8431 40.0366 10.693 39.5684C10.5151 39.0137 10.5173 39.0615 10.5217 35.9119C10.524 34.3093 10.5351 31.7599 10.5465 30.2466C10.5668 27.5396 10.5683 27.4923 10.6383 27.3159C10.7837 26.9493 11.1109 26.7858 11.5338 26.8685C11.646 26.8904 12.06 27.0184 12.4538 27.1528C13.367 27.4644 13.4058 27.4743 13.4483 27.4067M17.7922 48.0126L47.7741 30.706C47.8336 30.6717 47.8676 30.5986 47.869 30.5022L47.8757 30.0609C47.8852 29.4298 47.8912 29.4623 47.704 29.1216C47.5624 28.8641 47.1552 28.5066 44.5096 26.3179C42.7052 24.8252 41.9596 24.1641 41.6342 23.769C41.2967 23.359 40.9176 22.6766 40.7675 22.2083C40.5896 21.6536 40.5918 21.7014 40.5962 18.5519C40.5985 16.9492 40.6096 14.3998 40.621 12.8866C40.6242 12.4636 40.6269 12.1056 40.6295 11.8018M13.4483 27.4067C13.5433 27.2553 13.5321 25.1043 13.433 24.4867C13.3253 23.8156 13.0726 23.3034 12.649 22.8978C12.2152 22.4826 11.3522 21.8138 10.4845 21.2206C9.98622 20.8799 8.5232 20.0401 7.99463 19.7913C7.0829 19.3621 6.10026 19.0066 5.78269 18.991C5.75468 18.9896 5.72764 18.9896 5.70154 18.991M13.4483 27.4067L38.0987 13.2089L40.6301 11.7331M5.70154 18.991C5.39366 19.0073 5.21719 19.2173 5.12894 19.6656C5.06545 19.9881 5.02451 21.2733 5.05484 21.991C5.07184 22.3926 5.08903 22.5335 5.13049 22.6109C5.19012 22.7222 5.31114 22.8293 6.30685 23.6521C7.06971 24.2825 7.31844 24.5359 7.56406 24.9331C7.74636 25.2279 7.86585 25.5207 7.94723 25.8722C8.00234 26.1101 8.00747 26.4765 8.02908 31.7197C8.03061 32.092 8.03198 32.4436 8.03317 32.7753M40.6295 11.8018C40.6297 11.7786 40.6299 11.7557 40.6301 11.7331M40.6295 11.8018L40.6301 11.7331M40.6301 11.7331L43.4648 10.0805M0.799226 37.5432C0.799237 37.8867 0.804189 38.0302 0.810205 37.8619C0.816221 37.6936 0.816212 37.4125 0.810185 37.2373C0.804158 37.062 0.799215 37.1996 0.799226 37.5432Z" stroke="#1E110E" stroke-width="1.62222"/>
<path d="M16.3492 34.8172L17.1706 34.5363C16.9478 35.5405 16.2974 36.3693 15.3747 36.8972C14.2282 37.553 13.5048 37.2581 13.5104 35.8899C13.5159 34.5218 14.2404 33.3985 15.3915 32.74C16.3416 32.1965 17.0019 32.3018 17.1991 33.1235L16.3671 33.7622C16.2412 33.3512 15.9042 33.2867 15.3881 33.582C14.7212 33.9635 14.3631 34.6199 14.3599 35.4039C14.3568 36.188 14.7112 36.4367 15.3781 36.0552C15.8714 35.773 16.2058 35.3402 16.3492 34.8172ZM18.7097 34.8843L18.7222 31.7797L17.6123 32.4146L17.6157 31.5727L20.676 29.822L20.6726 30.6639L19.5627 31.2989L19.5501 34.4036L18.7097 34.8843ZM20.342 33.9505L21.6004 29.2932L22.8884 28.5563L24.1149 31.7922L23.2196 32.3044L23.0124 31.7036L21.4457 32.5999L21.2373 33.4384L20.342 33.9505ZM21.6727 31.6983L22.7918 31.0581L22.3413 29.7513L22.1358 29.8689L21.6727 31.6983ZM24.3973 31.7146L24.4007 30.8727C24.7753 30.6532 25.1325 30.2178 25.1347 29.6653L25.1444 27.2657L27.9307 25.6718L27.9147 29.6185L27.0743 30.0992L27.0868 26.9946L25.9815 27.6269L25.9755 29.1003C25.971 30.2264 25.3885 31.1424 24.3973 31.7146ZM28.5812 29.2372L28.5971 25.2906L29.4376 24.8098L29.4315 26.3148L30.8155 25.523C31.4413 25.165 31.9146 25.3195 31.9114 26.1036C31.9082 26.8982 31.4405 27.6015 30.8056 27.9647L28.5812 29.2372ZM30.698 26.3935L29.4282 27.1199L29.425 27.9145L30.6948 27.1881C30.9141 27.0626 31.0562 26.8606 31.0573 26.587C31.0584 26.3133 30.9173 26.268 30.698 26.3935ZM32.455 25.4304L32.458 24.6726L34.4084 23.5569L34.4053 24.3147L32.455 25.4304ZM37.5792 24.0898L37.5854 22.5374L35.9046 23.499L35.8983 25.0513L35.0578 25.5321L35.0738 21.5855L35.9142 21.1047L35.908 22.6571L37.5888 21.6955L37.5951 20.1431L38.4356 19.6623L38.4196 23.609L37.5792 24.0898Z" fill="#1E110E"/>
<path d="M73.9929 27.244L77.4969 27.9448C76.5625 31.1957 73.7983 32.8893 69.866 32.8893C64.9798 32.8893 61.8846 30.2613 61.8846 25.2C61.8846 20.1386 64.9604 17.5106 69.866 17.5106C73.9151 17.5106 76.7377 19.3016 77.5943 22.7667L74.0513 23.3701C73.5063 21.5792 72.0657 20.6253 69.866 20.6253C67.0238 20.6253 65.5054 22.2994 65.5054 25.2C65.5054 28.1005 67.0238 29.7747 69.866 29.7747C71.9684 29.7747 73.3895 28.8792 73.9929 27.244ZM84.0774 32.5V21.0146H79.347V17.9H92.3897V21.0146H87.6593V32.5H84.0774ZM91.0343 32.5L96.3293 17.9H101.819L107.114 32.5H103.298L102.403 29.8331H95.7258L94.8498 32.5H91.0343ZM96.6797 26.9715H101.449L99.5024 21.1704H98.6264L96.6797 26.9715ZM108.319 32.8115V29.6968C109.915 29.6773 111.434 28.8208 111.434 26.7768V17.9H123.308V32.5H119.726V21.0146H115.015V26.4653C115.015 30.6312 112.543 32.792 108.319 32.8115ZM126.149 32.5V17.9H129.73V23.4675H135.629C138.296 23.4675 140.32 25.0443 140.32 27.9448C140.32 30.8843 138.335 32.5 135.629 32.5H126.149ZM135.142 26.4459H129.73V29.3853H135.142C136.077 29.3853 136.68 28.9376 136.68 27.9253C136.68 26.9131 136.077 26.4459 135.142 26.4459ZM142.631 26.6016V23.7984H150.943V26.6016H142.631ZM164.497 32.5V26.7573H157.333V32.5H153.751V17.9H157.333V23.6427H164.497V17.9H168.079V32.5H164.497Z" fill="#1E110E"/>
</svg>
