<svg fill="none" height="73" viewBox="0 0 182 73" width="182" xmlns="http://www.w3.org/2000/svg"><path d="m20.5139 44.2197c.5398-.2997.8966-.3178 1.0705-.0543.1707.2513.2738.4433.3094.5759-.4149.5245-.6889.9725-.8219 1.344-.1329.3715-.0781.4795.1644.3241.6202-.9154 1.2576-1.5254 1.9123-1.83.6239-.5159 1.2226-.9089 1.7962-1.1788.3254-.0872.668-.2307 1.0279-.4304l.4748-.1079c.5536-.2 1.0837-.1741 1.5903.0777.3457.0365.6288.2255.8495.5668.1524.4242.2111.7637.176 1.0185-.0262.2396-.0681.5414-.1255.9056-.0945.3224-.1777.5901-.2498.8032-.0559.2734-.2155.5938-.4787.9615-.1353.4109-.339.8077-.611 1.1906-.2632.3677-.7403.9735-1.4313 1.8174-.5625.745-.9883 1.253-1.2773 1.5242l-1.0608 1.1756c-.3861.4393-.783.8621-1.1908 1.2685-.399.3911-.9354.7996-1.6093 1.2256l1.6051-.6626c.433-.1677.9971-.2801 1.6923-.3372.7072-.0603 1.2169.0098 1.529.2104.3392.0125.6488.1556.9288.4293s.5017.7634.6649 1.4688c.0411.8287-.1432 1.5627-.5532 2.2022l-.5016.9482c-.2414.4005-.4376.705-.5884.9133-.1309.1384-.4471.5009-.9488 1.0874-.3458.4931-.6873.8818-1.0246 1.1659-.357.5478-1.1567 1.2271-2.3991 2.0379l-.8096.4495c-.7044.4083-1.6576.78-2.8596 1.115l-1.0728.1906-.4665.0668-.3219.0281-.4616.085c-.6999.1358-1.1064-.0071-1.2194-.429l-.0868-.0348c.0092-.3513.2548-.5915.7369-.7207l.2351-.0629.9691-.1435.3303-.0691.0903-.0242.5353-.0272.3748-.1198.4881-.1307.6015-.1418c.8025-.3313 1.6648-.8013 2.5867-1.4101l.2518-.145c-.037-.0417.1798-.1967.6505-.4649.0553-.1311.468-.5194 1.238-1.1649l.7741-.9437c.589-.7908 1.0108-1.5303 1.2656-2.2187.1797-.2935.3224-.6289.428-1.0059l.0522-.6728-.0646-.6028c-.1956-.2963-.5061-.4909-.9314-.5836l-.3726-.0164-.4087-.0068-.0723.0194c-.1326.0355-.5372.0923-1.2138.1703l-.6112.1056-.5507.1863c-.3222.0992-.6908.3143-1.106.6451l-.5397.2997c-.1823.1392-.4815.3486-.8975.628-.2825.2953-.5363.5053-.7612.6302-.2128.1216-.7614.4365-1.6457.9448l-.504-.0006c-.2363-.0142-.3883-.1479-.4562-.401-.0445-.311.4339-.8396 1.4352-1.5859l.4049-.2247c.1605-.1722.5014-.4185 1.0226-.7391l2.2775-1.9859c.3419-.3629.6225-.69.8415-.9812.1967-.1819.3705-.377.5214-.5853.4495-.4434.8388-.8707 1.1679-1.2818.2417-.2068.5226-.5082.8428-.904.3017-.4167.5923-.7787.8716-1.0861.1717-.2269.327-.4429.4658-.648.1356-.2172.2755-.442.4199-.6744.3829-.4514.5959-.741.6392-.8688.0432-.1279.1619-.3599.356-.6961l.214-.503.2934-.6405c.2292-.5911.0716-.9622-.4727-1.1135-.361-.0453-.668-.0341-.9211.0337-.241.0646-.5134.1569-.817.2771-.2917.1169-.6988.381-1.2216.7923-.5107.4081-.86.6955-1.0478.8621-.1791.1513-.4228.3264-.7312.5253-.232.243-.5628.5512-.9923.9247l-.2876.4452-.2738-.0817.0194.0724.1498.2698c-.3414.2207-.6107.4931-.808.8172-.2944.4922-.5366.9382-.7266 1.3379l-.5726 1.0448-.4535.8384c-.365.6145-.5456 1.1215-.542 1.5209l-.5413 1.017-.5881 1.2039-.2453.5308c-.445.8943-.8362 1.7483-1.1736 2.5621-.3406.8018-.8212 1.8283-1.4418 3.0797-.5586 1.3381-1.0774 2.4394-1.5562 3.304-.454.7159-.8474 1.4413-1.1801 2.1764-.2943.4922-.6935 1.0513-1.19753 1.6772l-.58846.9134c-.22939.3973-.4307.7548-.60393 1.0725-.22317.2277-.40738.4321-.55265.6131-.14998.2598-.42266.4233-.81802.4904-.27744-.1194-.45727-.2843-.5395-.4948-.08224-.2105-.12552-.4443-.12984-.7015-.00756-.2693.06922-.9228.23033-1.9606.15789-1.0499.2889-1.718.39305-2.0042.11619-.2895.33858-.8335.66716-1.632l.68784-1.4826 1.06359-1.8157c.25476-.6883.58146-1.4217.97996-2.2002.3367-.6715.5729-1.1159.7085-1.3331.1444-.2324.257-.4628.3379-.6912.0898-.2436.2236-.5637.4016-.9601.1747-.4085.7539-1.3323 1.7376-2.7714l1.0616-1.3889.7596-.998.4945-.83c.3749-.3847.6434-.7085.8054-.9715.162-.2631.3004-.4939.4151-.6926.1115-.2107.4858-.7179 1.123-1.5216.5888-.9845.9576-1.7292 1.1065-2.2341zm-11.24672 21.518-.53967 1.3847-.94084 2.6354c-.12392.5499-.06547.6957.17534.4374s.52594-.7609.85539-1.508c2.2614-4.2875 5.0591-9.8037 8.393-16.5487l-4.3597 6.9423-1.0009 1.7602-1.7082 3.1704zm17.11602-1.0597c.1154-.3409.3779-.5663.7877-.6761s.7496.1221 1.0196.6956c.282.5703.2885.9561.0194 1.1574-.2601.186-.6593.1185-1.1974-.2023-.5381-.3209-.7478-.6457-.6293-.9746zm35.5661-32.9366c.2614-.4705.5557-.6979.8829-.6822.3271.0156.4609.3221.4013.9194-.0475.594.8334.6034 2.6428.0282l3.688-.9882c5.773-1.5469 10.1236-2.2799 13.0517-2.199.9309.8227-1.9952 1.7617-8.7783 2.8171l-6.5179 1.7078c-3.2565.9113-5.1822 1.944-5.7772 3.0981-.583 1.1508-.6071 1.7838-.0725 1.8989 3.0207.1853 4.8744 1.0772 5.5611 2.6758.6835 1.5866.9958 2.9691.9369 4.1474-.1768 2.0884-.9054 4.0211-2.1861 5.7981-1.2686 1.7737-3.4389 3.6535-6.5108 5.6392-2.9332 1.0572-5.9713.7345-9.1144-.9681-3.0455 3.9163-4.8814 5.7904-5.5078 5.6224-.5664.1518-1.046-.2881-1.4386-1.3197-.1744-.6508.9427-3.4238 3.3513-8.3191-1.9657-3.1419-3.0969-6.4234-3.3936-9.8446-.3154-1.6594 5.5434-4.4047 17.5765-8.2361.5505-.7417.952-1.3402 1.2047-1.7954zm-12.7317 7.7324-2.1303 1.0165c-1.5158.7549-2.1499 1.8355-1.9022 3.2417l.735 2.6708c.562 1.5674 1.0601 2.6547 1.494 3.2618 5.4607-5.3643 8.742-8.6656 9.8441-9.9039 1.1141-1.2415 1.9584-2.598 2.5329-4.0695l-4.9557 1.4635zm1.5411 14.4294 1.5575.8227c1.9405.9268 3.9637 1.1016 6.0697.5244 5.1231-3.2974 7.7355-6.7812 7.8372-10.4512l-.2232-1.1221c-.6691-2.3526-2.1144-3.5284-4.336-3.5273-2.6609.868-5.448 4.1337-8.3612 9.7972-.6411.9339-1.4891 2.2527-2.544 3.9563zm-2.3372-2.6484 1.4681 1.7187 3.6178-6.2398c.7908-1.3874.3653-1.3122-1.2765.2258-2.1637 2.0007-3.4335 3.4324-3.8094 4.2953zm-3.2921 6.4431c-.4312.994-.5073 1.5052-.2284 1.5338.2789.0287.7021-.2721 1.2696-.9021s1.4992-1.8291 2.7952-3.5973l-1.3244-1.544c-.7533.5636-1.5906 2.0668-2.512 4.5096zm27.594-13.226c.905-.7205 1.8742-1.1287 2.9077-1.2248 1.0303-.1081 1.708.4207 2.0333 1.5866.4425 1.6511-2.4606 3.6885-8.7092 6.112-1.2466.7474-1.7835 1.395-1.6108 1.943.1847.5447.5222.8159 1.0125.8138.4991-.0175 1.0142-.0716 1.5454-.1622.54-.106 2.437-.9566 5.691-2.5519 3.2509-1.6074 4.8812-2.2961 4.8912-2.0663.0187.2146-1.4695 1.1688-4.4646 2.8627-2.9863 1.6786-5.5249 2.714-7.6158 3.1063-1.4773-.0175-2.234-.6479-2.27-1.8913l-.0734-.8523-1.2112.3246c-.174-.2634-.0401-.5835.4015-.9602.4504-.3919 2.9412-2.7386 7.4724-7.04zm-1.4854 2.9169c-3.3188 2.6073-3.0282 2.9686.8717 1.084 3.0948-1.7076 4.5631-2.8567 4.4048-3.4473-.1582-.5905-.9395-.6137-2.3438-.0695zm15.0607-6.9226c2.094-1.1036 3.5662-1.6596 4.4165-1.6678.8592-.0235 1.3759.1933 1.55.6504.171.445.0377 1.2493-.3997 2.4129-1.4933 2.0923-2.9171 3.0939-4.2716 3.0047l-.82-.1678c-.6098-.4438-.6732-1.4279-.1904-2.9524-.7532.5636-1.5293 1.2107-2.3281 1.9415-2.0176 1.8711-2.9917 3.2495-2.9223 4.1351-.3188 1.558.2609 2.1067 1.7393 1.646 7.9315-3.8562 11.9443-5.4159 12.0385-4.6789-6.9936 3.8374-11.1871 5.904-12.5805 6.1998-1.3933.2959-2.1816.126-2.3648-.5095-.8625-1.4353-.5817-3.1834.8425-5.2443 1.433-2.0761 3.1965-3.666 5.2906-4.7697zm.2861 1.3572c.916-.2454 1.6327-.1016 2.1501.4315-2.2706 1.9389-2.1355 2.3225.4053 1.1508.977-.9335 1.5749-1.7395 1.7935-2.4182.2154-.6906-.096-.9366-.9341-.7379-.8292.1834-1.9675.708-3.4148 1.5738zm14.9002-5.4262c2.094-1.1037 3.566-1.6596 4.416-1.6679.859-.0235 1.376.1933 1.55.6504.171.4451.038 1.2494-.4 2.4129-1.493 2.0924-2.917 3.0939-4.271 3.0047l-.82-.1678c-.61-.4437-.673-1.4278-.191-2.9523-.753.5635-1.529 1.2107-2.3277 1.9414-2.0176 1.8711-2.9917 3.2495-2.9223 4.1352-.3189 1.558.2609 2.1067 1.7392 1.646 7.9318-3.8563 11.9448-5.4159 12.0388-4.679-6.994 3.8374-11.1873 5.904-12.5807 6.1999-1.3933.2958-2.1816.126-2.3648-.5096-.8625-1.4352-.5817-3.1833.8425-5.2442 1.433-2.0762 3.1965-3.6661 5.291-4.7697zm.286 1.3572c.916-.2455 1.632-.1017 2.15.4314-2.271 1.9389-2.136 2.3226.405 1.1509.977-.9335 1.575-1.7396 1.794-2.4182.215-.6907-.096-.9367-.934-.7379-.83.1834-1.968.708-3.415 1.5738zm17.789-6.3556c2.563-1.1388 4.099-1.0209 4.61.3537.688 1.1204-.833 3.2783-4.563 6.4736-3.729 3.1953-6.024 4.9016-6.883 5.1188-.859.2173-1.453.2152-1.784-.0063-.322-.2367-.521-.7645-.599-1.5834-.077-.8189.8-2.462 2.632-4.9293 1.829-2.4793 4.025-4.2884 6.587-5.4271zm-7.339 8.7675c-.709 1.5465-.281 1.9615 1.284 1.2451 1.576-.7196 4.491-3.2702 8.742-7.6516l.288-.4453c.287-.9037-.231-1.2688-1.553-1.0952-1.323.1736-2.94 1.1557-4.849 2.9463-1.902 1.7753-3.205 3.4422-3.912 5.0007zm24.377-13.1583c.628-.4524 1.067-.4992 1.318-.1402.248.3469-1.249 3.196-4.491 8.5471-.033.5515.28.6355.939.2521 2.742-1.8197 4.433-2.8863 5.072-3.1997.636-.3255.998-.3255 1.085-.0001-.017.6116-1.17 1.6828-3.46 3.2135-2.292 1.5186-3.793 2.2112-4.5 2.0778-.711-.1454-.971-.7797-.781-1.9027l.706-2.2819-4.805.7255c-.974.8941-1.695 1.843-2.163 2.8466-.467 1.0037-.88 1.5857-1.237 1.746-.346.1572-.57-.1251-.673-.8467.698-1.7369 1.863-3.7284 3.496-5.9744 1.641-2.2613 2.871-3.5789 3.688-3.9528.829-.3771.959.0595.389 1.31-.37.4996-.813 1.0382-1.33 1.6159l-1.007 1.3744 2.03.0567c1.969-.2692 3.877-2.0916 5.724-5.4671zm13.262-3.728c2.562-1.1387 4.099-1.0208 4.609.3538.688 1.1204-.833 3.2783-4.562 6.4736-3.73 3.1953-6.024 4.9016-6.883 5.1188-.859.2173-1.454.2152-1.784-.0063-.322-.2367-.522-.7645-.599-1.5834-.078-.819.8-2.4621 2.632-4.9293 1.829-2.4794 4.024-4.2884 6.587-5.4272zm-7.339 8.7676c-.71 1.5465-.282 1.9615 1.283 1.2451 1.577-.7196 4.491-3.2702 8.742-7.6517l.288-.4452c.287-.9037-.23-1.2688-1.553-1.0952s-2.939 1.1557-4.849 2.9463c-1.901 1.7753-3.205 3.4422-3.911 5.0007zm30.82-29.53345c1.094-.97786 1.902-.80683 2.424.5131l.286 1.06663c-.592 3.67221-4.909 8.67822-12.95 15.01822l.097.3615c2.217-.5942 3.551-.0537 4 1.6216-.088 1.651-3.43 4.9881-10.029 10.0114-1.431.59-2.279.8237-2.544.7011-.265-.1227-.43-.4725-.494-1.0495.939-2.8094 1.673-4.3623 2.2-4.6587l-.009-.5401-1.846 2.8004-.422-.2744-.097-.3615c-.182-1.3075 2.539-4.6009 8.165-9.8802 5.016-7.648 8.756-12.75784 11.219-15.32955zm-8.28 12.99195.325-.0872c6.694-5.82387 9.807-9.60961 9.338-11.35719.072-.98789-.45-.8868-1.565.30328-1.107 1.17479-3.806 4.8885-8.098 11.14111zm-9.293 14.0578c-.388.7238-.048.762 1.019.1145 4.248-2.9468 7.25-5.5533 9.007-7.8196.275-1.2879-.494-1.7214-2.306-1.3005-2.555.6847-5.128 3.6865-7.72 9.0056z" fill="#a2c1ff"/></svg>