<svg fill="none" height="40" viewBox="0 0 50 40" width="50" xmlns="http://www.w3.org/2000/svg" xmlns:xlink="http://www.w3.org/1999/xlink"><clipPath id="a"><path d="m.287109 0h48.9541v40h-48.9541z"/></clipPath><g clip-path="url(#a)" fill="#fcfcfc" opacity=".5"><path d="m20.1953 6.66699c-1.0879 0-1.6318.70109-1.6318 2.10326v22.46015c0 1.4022.5439 2.1033 1.6318 2.1033 1.0878 0 1.6318-.7011 1.6318-2.1033v-22.46015c0-1.40217-.544-2.10326-1.6318-2.10326z"/><path d="m47.8458.00000227h-46.16325c-.18335-.00033628-.36495.03667303-.5344.10890573-.169447.072232-.323408.178266-.453051.312021-.129644.133755-.232418.292599-.30243.467423-.070012.174828-.105883.362188-.105557.551348v37.1232c-.000001.1889.036111.376.106269.5505.070157.1746.172983.3331.302594.4666s.283462.2393.452745.3113c.16929.0721.35069.109.53383.1087h46.16325c.1831.0003.3645-.0366.5338-.1087.1693-.072.3231-.1778.4527-.3113s.2325-.292.3026-.4666c.0702-.1745.1063-.3616.1063-.5505v-37.1232c.0003-.18916-.0355-.37652-.1056-.551348-.07-.174824-.1728-.333668-.3024-.467423s-.2836-.239789-.453-.312021c-.1695-.0722327-.3511-.10924201-.5344-.10890573zm-34.0719 30.93299773c0 1.7562-.4372 3.1032-1.3114 4.0408-.8742.9377-2.1451 1.4074-3.81267 1.4091-1.64945 0-2.89479-.4646-3.73601-1.3937-.84122-.9292-1.26265-2.2608-1.2643-3.9949v-7.4487h3.21643v7.6937c0 1.3887.58638 2.0821 1.75914 2.0804.24164.0169.48398-.02.71063-.1081.22665-.088.43233-.2253.60316-.4024.29692-.337.44782-.8832.44782-1.6388 0-.8985.2103-7.1781-.2004-7.8622-.41072-.6841-1.5909-1.409-2.7018-2.3688-1.40039-1.2253-2.91459-2.2387-3.46385-3.2291-.54927-.9904-.24742-7.6044-.24742-8.85005 0-1.70177.43215-3.01383 1.29647-3.93619.86431-.92235 2.11954-1.38609 3.76569-1.39119 1.62471 0 2.85441.46373 3.68901 1.39119s1.2462 2.2642 1.2346 4.01021v7.45373h-3.2164v-7.65794c0-.73516-.1443-1.27122-.433-1.60817-.16139-.17577-.35837-.31265-.57691-.4009-.21853-.08824-.45324-.12567-.6874-.10963-1.13317 0-1.69976.68071-1.69976 2.04212 0 .7658-.37112 6.99682.05196 7.67072s1.73192 1.3988 2.83541 2.3586c1.4251 1.2279 2.8206 2.2489 3.3674 3.2393.5467.9905.3736 7.6631.3736 9.0109zm12.0096.1378c0 1.7154-.4429 3.0428-1.3286 3.9822-.8858.9394-2.1616 1.409-3.8276 1.409-1.6676 0-2.9434-.4696-3.8275-1.409s-1.327-2.2668-1.3287-3.9822v-22.13653c0-1.71538.4429-3.0419 1.3287-3.97958.8857-.93767 2.1616-1.40736 3.8275-1.40906 1.6676 0 2.9435.46969 3.8276 1.40906.8841.93938 1.327 2.2659 1.3286 3.97958zm11.2674 5.3606h-8.9837v-32.89087h3.3946v29.83027h5.5866zm8.8279-29.83025h-3.548v29.82265h-3.397v-29.82265h-3.5505v-3.06318h10.4955z"/></g></svg>