<svg fill="none" height="33" viewBox="0 0 120 33" width="120" xmlns="http://www.w3.org/2000/svg"><g fill="#343434"><path d="m5.55082.148151c-2.27313.390614-4.42731 2.289799-5.19383 4.606529-.2775333.82163-.2907492 1.03715-.3303968 10.93712-.02643168 6.6674.0132159 10.4927.1057268 11.247.343612 2.8016 2.10132 4.8894 4.82379 5.7514.7533.229 1.54625.2424 13.74449.2424h12.9515l.9252-.2963c2.2334-.7139 3.9383-2.4918 4.5066-4.6873.1321-.458.185-1.5759.185-3.5425v-2.8555h-5.0881-5.0881v.5657c-.0132 1.0372-.6476 2.0608-1.4934 2.3841-.2511.0943-2.6168.1482-6.9516.1482h-6.5815l-.5682-.3098c-.3965-.2155-.674-.4984-.8855-.9025l-.304-.5792v-6.4114c0-5.9669.0265-6.45182.2511-6.96366.1322-.3098.4494-.70041.6873-.87551l.4493-.32327 6.8458-.0404c6.7269-.02694 6.859-.02694 7.3348.24244.7533.43103 1.0969 1.05062 1.1894 2.0878l.0661.8755h5.0617 5.0749v-2.88248c0-2.47837-.0397-3.00367-.2643-3.73102-.6344-2.10123-2.2203-3.73102-4.3481-4.471837l-.8722-.2963298-12.7533-.0134697c-7.2423-.0134659-13.07049.0269394-13.48018.0942875z"/><path d="m41.1016 16.5v16.5h5.1541 5.1542v-12.3918-12.39188h8.3921 8.3921v12.39188 12.3918h5.0881 5.0881v-16.5-16.50000763h-18.6344-18.6343z"/><path d="m82.7314 16.5v16.5h5.0882 5.0881l.0264-4.2159.0396-4.2025 10.9693-.0673c10.877-.0674 10.969-.0674 11.67-.3637 2.365-.9833 3.898-2.9498 4.255-5.4686.106-.7542.132-3.0171.106-7.1657-.053-5.76488-.066-6.10161-.331-6.81549-.436-1.17184-.687-1.60285-1.414-2.38408-.819-.90245-1.757-1.522041-2.868-1.93959l-.845-.3097991-15.8859-.0404053-15.8987-.0404091zm26.0086-7.90653c.833.60612.952 1.07755.952 3.67713 0 2.7478-.146 3.2461-1.11 3.8253l-.569.3368h-7.546-7.5593v-4.1082-4.10818l7.7053.02694 7.691.04041z"/></g></svg>