<svg fill="none" height="47" viewBox="0 0 160 47" width="160" xmlns="http://www.w3.org/2000/svg"><g fill="#343434"><path d="m152.962 40.1353c3.147 0 5.377-.5652 7.038-1.7828v-5.5224c-1.705 1.1741-3.76 1.9133-6.645 1.9133-4.852 0-6.863-3.7396-6.863-9.6533 0-6.2182 2.448-9.3925 6.907-9.3925 2.623 0 5.202.9132 6.557 1.7828v-5.7398c-1.442-.7827-3.934-1.348-7.344-1.348-8.7 0-13.202 6.2182-13.202 14.9149.043 9.5229 4.459 14.8278 13.552 14.8278zm-42.536-2.522v-5.5224c-2.098 1.435-5.683 2.696-8.962 2.696-4.9833 0-6.8631-2.3481-7.1691-7.1313h16.4371v-3.5657c0-9.9577-4.415-13.6973-11.1912-13.6973-8.306 0-12.2405 6.3051-12.2405 14.9584 0 9.9577 4.9399 14.7843 13.5957 14.7843 4.328 0 7.519-1.174 9.53-2.522zm-62.3825-26.6989v11.3057h-9.093v-11.3057h-6.8196v28.6557h6.8196v-11.958h9.093v11.958h6.8196v-28.6557zm37.5519 23.2637h-3.0164v-23.2637h-19.847v2.4351c0 7.0008-.4372 16.0454-2.8415 20.8286h-2.1858v11.9145h6.2951v-6.5225h15.2568v6.5225h6.2951v-11.9145zm46.5576 5.392h7.738l-10.929-15.4367 9.617-13.219h-6.863l-9.618 13.219v-13.219h-6.819v28.6557h6.819v-14.0887zm-32.7871-23.8725c3.3661 0 4.4151 2.783 4.4151 6.3921v.5653h-9.4861c.1749-4.5658 1.8361-6.9574 5.071-6.9574zm-23.6066 18.4805h-9.6175c1.8798-4.3049 2.4044-12.1319 2.4044-17.089v-.8697h7.2131z"/><path d="m26.4481 39.57h-6.9508v-34.22153h-3.1038c-5.6831 0-8.65578 2.82643-8.65578 7.04433 0 4.7832 2.05465 7.0008 6.29508 9.8273l3.4973 2.3481-10.05468 15.0018h-7.47542l9.0492-13.3929c-5.2022-3.6961-8.131166-7.3053-8.131166-13.3929 0-7.60966 5.333346-12.7842 15.431766-12.7842h10.0546z"/></g></svg>