<svg fill="none" height="39" viewBox="0 0 154 39" width="154" xmlns="http://www.w3.org/2000/svg" xmlns:xlink="http://www.w3.org/1999/xlink"><clipPath id="a"><path d="m0 0h154v39h-154z"/></clipPath><g clip-path="url(#a)"><path d="m1.35233 2.4292h32.06957c.7468 0 1.3523.59415 1.3523 1.32708v6.18872c0 .8243-.3645 1.6049-.9991 2.145l-17.9335 14.7225h17.5803c.7468 0 1.3523.5833 1.3523 1.3162v7.1049c0 .7329-.6055 1.3271-1.3523 1.3271h-32.06957c-.746871 0-1.35233-.5942-1.35233-1.3271v-6.1786c0-.8244.36452-1.6049.999109-2.145l17.933491-14.7225h-17.58027c-.746871 0-1.35233-.6077-1.35233-1.3406v-7.09062c0-.73293.605459-1.32708 1.35233-1.32708zm55.77667-1.21045c3.7081 0 7.0141.81829 9.7739 2.31367 2.7599 1.49538 4.9737 3.66784 6.4975 6.37617 1.5238 2.70831 2.3577 5.95251 2.3577 9.59141s-.8339 6.8831-2.3577 9.5914-3.7376 4.8808-6.4975 6.3762c-2.7598 1.4954-6.0658 2.3136-9.7739 2.3136s-7.014-.8182-9.7738-2.3136c-2.7599-1.4954-4.9737-3.6679-6.4975-6.3762s-2.3577-5.9525-2.3577-9.5914.8339-6.8831 2.3577-9.59141c1.5238-2.70833 3.7376-4.88079 6.4975-6.37617 2.7598-1.49538 6.0657-2.31367 9.7738-2.31367zm0 9.75005c-1.7737 0-3.331.3676-4.6189 1.0513s-2.3066 1.6833-3.0033 2.9472c-.6966 1.2639-1.0713 2.792-1.0713 4.5327s.3747 3.2688 1.0713 4.5327c.6967 1.2639 1.7154 2.2635 3.0033 2.9472s2.8452 1.0513 4.6189 1.0513c1.7738 0 3.331-.3676 4.619-1.0513 1.2879-.6837 2.3065-1.6833 3.0032-2.9472s1.0714-2.792 1.0714-4.5327-.3747-3.2688-1.0714-4.5327-1.7153-2.2635-3.0032-2.9472c-1.288-.6837-2.8452-1.0513-4.619-1.0513zm39.742-9.75005c3.708 0 7.014.81829 9.774 2.31367s4.973 3.66784 6.497 6.37617c1.524 2.70831 2.358 5.95251 2.358 9.59141s-.834 6.8831-2.358 9.5914-3.737 4.8808-6.497 6.3762-6.066 2.3136-9.774 2.3136c-3.7081 0-7.0141-.8182-9.7739-2.3136-2.7599-1.4954-4.9736-3.6679-6.4975-6.3762-1.5238-2.7083-2.3577-5.9525-2.3577-9.5914s.8339-6.8831 2.3577-9.59141c1.5239-2.70833 3.7376-4.88079 6.4975-6.37617 2.7598-1.49538 6.0658-2.31367 9.7739-2.31367zm0 9.75005c-1.7738 0-3.331.3676-4.619 1.0513-1.2879.6837-2.3065 1.6833-3.0032 2.9472s-1.0714 2.792-1.0714 4.5327.3747 3.2688 1.0714 4.5327 1.7153 2.2635 3.0032 2.9472c1.288.6837 2.8452 1.0513 4.619 1.0513 1.7737 0 3.331-.3676 4.619-1.0513s2.306-1.6833 3.003-2.9472 1.072-2.792 1.072-4.5327-.375-3.2688-1.072-4.5327-1.715-2.2635-3.003-2.9472-2.8453-1.0513-4.619-1.0513zm57.133-7.2083v31.4725c0 .733-.605 1.3272-1.352 1.3272h-6.302c-.84 0-1.636-.3577-2.186-.9803l-15.003-17.5966v17.2497c0 .733-.619 1.3272-1.366 1.3272h-7.221c-.747 0-1.352-.5942-1.352-1.3272v-31.4725c0-.73296.605-1.32715 1.352-1.32715h6.302c.84 0 1.635.35781 2.186.98069l15.003 17.60276v-17.2563c0-.73296.594-1.32715 1.341-1.32715h7.246c.747 0 1.352.59419 1.352 1.32715z" fill="#343434"/></g></svg>