<svg width="10" height="10" viewBox="0 0 10 10" fill="none" xmlns="http://www.w3.org/2000/svg">
<g clip-path="url(#clip0_88_43)">
<path d="M8.57144 0H1.42858C1.12561 0 0.879128 0.246484 0.879128 0.549451V9.45055C0.879128 9.75352 1.12561 10 1.42858 10H8.57144C8.8744 10 9.12089 9.75352 9.12089 9.45055V0.549451C9.12089 0.246484 8.8744 0 8.57144 0ZM3.37913 8.92857C3.37913 9.06489 3.26822 9.17582 3.13187 9.17582H2.25275C2.11641 9.17582 2.0055 9.06489 2.0055 8.92857V8.02198C2.0055 7.88566 2.11641 7.77473 2.25275 7.77473H3.13187C3.26822 7.77473 3.37913 7.88566 3.37913 8.02198V8.92857ZM3.37913 6.84066C3.37913 6.97698 3.26822 7.08791 3.13187 7.08791H2.25275C2.11641 7.08791 2.0055 6.97698 2.0055 6.84066V5.93407C2.0055 5.79775 2.11641 5.68681 2.25275 5.68681H3.13187C3.26822 5.68681 3.37913 5.79775 3.37913 5.93407V6.84066ZM3.37913 4.75275C3.37913 4.88907 3.26822 5 3.13187 5H2.25275C2.11641 5 2.0055 4.88907 2.0055 4.75275V3.84615C2.0055 3.70984 2.11641 3.5989 2.25275 3.5989H3.13187C3.26822 3.5989 3.37913 3.70984 3.37913 3.84615V4.75275ZM5.74177 8.92857C5.74177 9.06489 5.63086 9.17582 5.49451 9.17582H4.61539C4.47905 9.17582 4.36814 9.06489 4.36814 8.92857V8.02198C4.36814 7.88566 4.47905 7.77473 4.61539 7.77473H5.49451C5.63086 7.77473 5.74177 7.88566 5.74177 8.02198V8.92857ZM5.74177 6.84066C5.74177 6.97698 5.63086 7.08791 5.49451 7.08791H4.61539C4.47905 7.08791 4.36814 6.97698 4.36814 6.84066V5.93407C4.36814 5.79775 4.47905 5.68681 4.61539 5.68681H5.49451C5.63086 5.68681 5.74177 5.79775 5.74177 5.93407V6.84066ZM5.74177 4.75275C5.74177 4.88907 5.63086 5 5.49451 5H4.61539C4.47905 5 4.36814 4.88907 4.36814 4.75275V3.84615C4.36814 3.70984 4.47905 3.5989 4.61539 3.5989H5.49451C5.63086 3.5989 5.74177 3.70984 5.74177 3.84615V4.75275ZM8.07693 8.92857C8.07693 9.06489 7.96602 9.17582 7.82968 9.17582H6.95056C6.81421 9.17582 6.7033 9.06489 6.7033 8.92857V5.93407C6.7033 5.79775 6.81421 5.68681 6.95056 5.68681H7.82968C7.96602 5.68681 8.07693 5.79775 8.07693 5.93407V8.92857ZM8.07693 4.75275C8.07693 4.88907 7.96602 5 7.82968 5H6.95056C6.81421 5 6.7033 4.88907 6.7033 4.75275V3.84615C6.7033 3.70984 6.81421 3.5989 6.95056 3.5989H7.82968C7.96602 3.5989 8.07693 3.70984 8.07693 3.84615V4.75275ZM8.18682 2.44506C8.18682 2.59679 8.06383 2.71978 7.91209 2.71978H2.11539C1.96366 2.71978 1.84067 2.59679 1.84067 2.44506V1.26374C1.84067 1.11201 1.96366 0.989011 2.11539 0.989011H7.91209C8.06383 0.989011 8.18682 1.11201 8.18682 1.26374V2.44506Z" fill="#FF3000"/>
</g>
<defs>
<clipPath id="clip0_88_43">
<rect width="10" height="10" fill="white"/>
</clipPath>
</defs>
</svg>
