<svg width="14" height="9" viewBox="0 0 14 9" fill="none" xmlns="http://www.w3.org/2000/svg">
<path d="M10.063 5.59082C9.22895 5.59082 8.55042 6.24331 8.55042 7.04536C8.55042 7.8474 9.22895 8.49989 10.063 8.49989C10.8972 8.49989 11.5756 7.8474 11.5756 7.04536C11.5756 6.24331 10.8971 5.59082 10.063 5.59082ZM10.063 7.77262C9.64593 7.77262 9.30672 7.44644 9.30672 7.04536C9.30672 6.64428 9.64593 6.31809 10.063 6.31809C10.4801 6.31809 10.8193 6.64428 10.8193 7.04536C10.8193 7.44646 10.4801 7.77262 10.063 7.77262Z" fill="#FF3000" stroke="#FF3000" stroke-width="0.5"/>
<path d="M4.89493 5.59082C4.06086 5.59082 3.38232 6.24331 3.38232 7.04536C3.38232 7.8474 4.06086 8.49989 4.89493 8.49989C5.729 8.49989 6.40754 7.8474 6.40754 7.04536C6.40754 6.24331 5.729 5.59082 4.89493 5.59082ZM4.89493 7.77262C4.47784 7.77262 4.13863 7.44644 4.13863 7.04536C4.13863 6.64428 4.47784 6.31809 4.89493 6.31809C5.31191 6.31809 5.65124 6.64428 5.65124 7.04536C5.65124 7.44646 5.31203 7.77262 4.89493 7.77262Z" fill="#FF3000" stroke="#FF3000" stroke-width="0.5"/>
<path d="M11.0816 1.42754C11.0173 1.30476 10.8866 1.22729 10.7437 1.22729H8.75208V1.95456H10.5105L11.5402 3.92399L12.2161 3.5972L11.0816 1.42754Z" fill="#FF3000" stroke="#FF3000" stroke-width="0.5"/>
<path d="M8.9286 6.69385H6.06726V7.42112H8.9286V6.69385Z" fill="#FF3000" stroke="#FF3000" stroke-width="0.5"/>
<path d="M3.76046 6.69385H2.44955C2.24068 6.69385 2.07141 6.85664 2.07141 7.05747C2.07141 7.25833 2.2407 7.42109 2.44955 7.42109H3.76048C3.96936 7.42109 4.13862 7.2583 4.13862 7.05747C4.13862 6.85661 3.96933 6.69385 3.76046 6.69385Z" fill="#FF3000" stroke="#FF3000" stroke-width="0.5"/>
<path d="M12.9206 4.47087L12.1767 3.54966C12.1053 3.46093 11.995 3.40905 11.8781 3.40905H9.13022V0.863622C9.13022 0.662767 8.96093 0.5 8.75208 0.5H2.44955C2.24068 0.5 2.07141 0.662789 2.07141 0.863622C2.07141 1.06446 2.2407 1.22725 2.44955 1.22725H8.37392V3.77267C8.37392 3.97353 8.54321 4.13629 8.75206 4.13629H11.693L12.2437 4.81846V6.69384H11.1974C10.9886 6.69384 10.8193 6.85663 10.8193 7.05747C10.8193 7.25832 10.9886 7.42109 11.1974 7.42109H12.6218C12.8307 7.42109 12.9999 7.2583 13 7.05747V4.6939C13 4.61317 12.972 4.53462 12.9206 4.47087Z" fill="#FF3000" stroke="#FF3000" stroke-width="0.5"/>
<path d="M3.73532 4.85132H1.99582C1.78694 4.85132 1.61768 5.01411 1.61768 5.21494C1.61768 5.4158 1.78696 5.57856 1.99582 5.57856H3.7353C3.94418 5.57856 4.11344 5.41577 4.11344 5.21494C4.11347 5.01411 3.94418 4.85132 3.73532 4.85132Z" fill="#FF3000" stroke="#FF3000" stroke-width="0.5"/>
<path d="M4.60504 3.42114H1.37814C1.16929 3.42114 1 3.58393 1 3.78479C1 3.98564 1.16929 4.14841 1.37814 4.14841H4.60504C4.81391 4.14841 4.98318 3.98562 4.98318 3.78479C4.98318 3.58395 4.81391 3.42114 4.60504 3.42114Z" fill="#FF3000" stroke="#FF3000" stroke-width="0.5"/>
<path d="M5.22271 1.99097H1.99582C1.78694 1.99097 1.61768 2.15376 1.61768 2.35459C1.61768 2.55545 1.78696 2.71821 1.99582 2.71821H5.22271C5.43159 2.71821 5.60086 2.55542 5.60086 2.35459C5.60088 2.15376 5.43159 1.99097 5.22271 1.99097Z" fill="#FF3000" stroke="#FF3000" stroke-width="0.5"/>
</svg>
