<svg width="15" height="15" viewBox="0 0 15 15" fill="none" xmlns="http://www.w3.org/2000/svg">
<g clip-path="url(#clip0_76_2851)">
<path d="M7.5293 0C3.41016 0 0 3.35127 0 7.4707C0 11.5901 3.41016 15 7.5293 15C11.6481 15 15 11.5901 15 7.4707C15 3.35127 11.6481 0 7.5293 0ZM7.53516 13.248C4.38516 13.248 1.75195 10.6207 1.75195 7.4707C1.75195 4.3207 4.38516 1.75195 7.53516 1.75195C10.6852 1.75195 13.248 4.3207 13.248 7.4707C13.248 10.6207 10.6852 13.248 7.53516 13.248Z" fill="#FF3000"/>
<path d="M7.5293 2.63672C4.86416 2.63672 2.63672 4.80527 2.63672 7.4707C2.63672 10.1361 4.86416 12.3633 7.5293 12.3633C10.1941 12.3633 12.3633 10.1361 12.3633 7.4707C12.3633 4.80527 10.1941 2.63672 7.5293 2.63672ZM11.0449 7.91016H7.5293C7.28643 7.91016 7.08984 7.71357 7.08984 7.4707V3.95508C7.08984 3.71221 7.28643 3.51562 7.5293 3.51562C7.77217 3.51562 7.96875 3.71221 7.96875 3.95508V7.03125H11.0449C11.2878 7.03125 11.4844 7.22783 11.4844 7.4707C11.4844 7.71357 11.2878 7.91016 11.0449 7.91016Z" fill="#FF3000"/>
</g>
<defs>
<clipPath id="clip0_76_2851">
<rect width="15" height="15" fill="white"/>
</clipPath>
</defs>
</svg>
