<svg width="7" height="12" viewBox="0 0 7 12" fill="none" xmlns="http://www.w3.org/2000/svg">
<path d="M3.5 5C4.6028 5 5.5 4.1028 5.5 3C5.5 1.8972 4.6028 1 3.5 1C2.3972 1 1.5 1.8972 1.5 3C1.5 4.1028 2.3972 5 3.5 5ZM3.5 1.72727C4.20178 1.72727 4.77273 2.29822 4.77273 3C4.77273 3.70178 4.20178 4.27273 3.5 4.27273C2.79822 4.27273 2.22727 3.70178 2.22727 3C2.22727 2.29822 2.79822 1.72727 3.5 1.72727Z" fill="#FF3000" stroke="#FF3000" stroke-width="0.5"/>
<path d="M5.64286 6H1.35714C1.15989 6 1 6.16221 1 6.36232V7.81159C1 7.86274 1.01066 7.91328 1.0313 7.95993L2.2813 10.786C2.33889 10.9162 2.46646 11 2.60714 11H4.57143C4.7192 11 4.85171 10.9077 4.90477 10.7678L5.9762 7.94167C5.99193 7.90014 6 7.85607 6 7.81159V6.36232C6 6.16221 5.84011 6 5.64286 6ZM5.28571 7.74431L4.32614 10.2754H2.83834L1.71429 7.73404V6.72464H5.28571V7.74431Z" fill="#FF3000" stroke="#FF3000" stroke-width="0.5"/>
</svg>
