<svg width="14" height="14" viewBox="0 0 14 14" fill="none" xmlns="http://www.w3.org/2000/svg">
<path d="M13.8318 5.16446L7.24235 0.0787466C7.09816 -0.0262489 6.90184 -0.0262489 6.75765 0.0787466L0.168243 5.16457C-0.0186771 5.30161 -0.0534976 5.56116 0.0821527 5.7422L0.574766 6.39866C0.71031 6.57864 0.963559 6.61517 1.14439 6.48401L7 1.95286L12.856 6.48379C13.0371 6.61635 13.2907 6.57715 13.4252 6.39845L13.9178 5.74199C14.0535 5.56094 14.0186 5.30139 13.8318 5.16446Z" fill="#FF3000"/>
<path d="M3.28125 1.23047C3.28125 1.00392 3.09764 0.820312 2.87109 0.820312H2.05078C1.82423 0.820312 1.64062 1.00392 1.64062 1.23047V2.99232C2.16208 2.58676 2.72775 2.14616 3.27003 1.72351C3.27388 1.72052 3.2774 1.71774 3.28125 1.71475V1.23047Z" fill="#FF3000"/>
<path d="M6.58984 10.2475V9.19347L5.88969 8.49333C5.72948 8.33311 5.72948 8.07356 5.88969 7.91334C6.04991 7.75312 6.30946 7.75312 6.46968 7.91334L6.58984 8.0335V6.97287C6.58984 6.74611 6.77334 6.56271 7 6.56271C7.22676 6.56271 7.41015 6.74611 7.41015 6.97287V8.0335L7.53031 7.91334C7.69053 7.75312 7.95019 7.75312 8.1103 7.91334C8.27052 8.07356 8.27052 8.33311 8.1103 8.49333L7.41015 9.19347V10.2468C7.94987 9.77976 8.64062 9.02407 8.64062 8.20333C8.64062 7.22355 7.60401 6.26674 7.00203 5.82935C6.51208 6.18823 5.35938 7.14473 5.35938 8.20333C5.35938 8.98487 6.01733 9.74718 6.58984 10.2475Z" fill="#FF3000"/>
<path d="M13.5898 13.1796H12.3594V7.13662L7 2.98999L1.64064 7.13705V13.1796H0.410171C0.183517 13.1796 1.52588e-05 13.363 1.52588e-05 13.5897C1.52588e-05 13.8164 0.183517 13.9999 0.410171 13.9999H13.5898C13.8166 13.9999 14 13.8164 14 13.5897C14 13.363 13.8166 13.1796 13.5898 13.1796Z" fill="#FF3000"/>
</svg>
