<svg width="12" height="12" viewBox="0 0 12 12" fill="none" xmlns="http://www.w3.org/2000/svg">
<path d="M6.95117 0.962891C4.69396 0.962891 2.86523 2.79162 2.86523 5.04883C2.86523 5.94311 3.15215 6.76978 3.63908 7.44291L1.15721 9.92479C0.903327 10.1787 0.903327 10.5889 1.15721 10.8428C1.41109 11.0967 1.82133 11.0967 2.07521 10.8428L4.55709 8.36092C5.23022 8.84785 6.05689 9.13477 6.95117 9.13477C9.20838 9.13477 11.0371 7.30604 11.0371 5.04883C11.0371 2.79153 9.20635 0.962891 6.95117 0.962891ZM6.95117 7.83789C5.41151 7.83789 4.16211 6.58849 4.16211 5.04883C4.16211 3.50917 5.41151 2.25977 6.95117 2.25977C8.49084 2.25977 9.74023 3.50917 9.74023 5.04883C9.74023 6.58849 8.49084 7.83789 6.95117 7.83789Z" fill="#FF3000" stroke="#FF3000" stroke-width="0.5"/>
</svg>
