<svg width="16" height="11" viewBox="0 0 16 11" fill="none" xmlns="http://www.w3.org/2000/svg">
<path d="M15.8716 0.618656C15.856 0.588702 15.8386 0.559834 15.8195 0.532227L11.0084 4.72403L15.7786 10.5344C15.9219 10.3334 15.9996 10.0887 16 9.83708V1.16276C16.0001 0.973025 15.956 0.786168 15.8716 0.618656Z" fill="#FF3000"/>
<path d="M0.186046 0.532227C0.166954 0.559834 0.149554 0.588702 0.133953 0.618656C0.0476106 0.785639 0.00160123 0.972526 0 1.16276V9.83708C0.000402436 10.0887 0.0780876 10.3334 0.221395 10.5344L4.99163 4.72403L0.186046 0.532227Z" fill="#FF3000"/>
<path d="M8.00002 6.15418C8.31879 6.15334 8.62733 6.03527 8.87257 5.82025L15.4028 0.123799C15.2465 0.0407747 15.0736 -0.00165084 14.8986 4.91453e-05H1.10141C0.92581 0.000780407 0.752926 0.0459085 0.597229 0.131657L7.12746 5.82811C7.37388 6.04001 7.68221 6.15523 8.00002 6.15418Z" fill="#FF3000"/>
<path d="M9.22787 6.28575C8.88269 6.58794 8.44837 6.75333 7.99996 6.75333C7.55155 6.75333 7.11723 6.58794 6.77206 6.28575L5.42136 5.10718L0.658569 10.9018C0.798105 10.9667 0.948905 11.0001 1.10136 11.0001H14.8986C15.051 11.0001 15.2018 10.9667 15.3414 10.9018L10.5786 5.10718L9.22787 6.28575Z" fill="#FF3000"/>
</svg>
