<svg width="5" height="10" viewBox="0 0 5 10" fill="none" xmlns="http://www.w3.org/2000/svg">
<path d="M1.67514 9.24262C1.67921 10.2502 3.32029 10.2548 3.32485 9.24257V8.99149C5.87562 8.24635 5.41517 4.22007 2.61033 4.23342C2.15198 4.29483 1.66979 4.03997 1.67515 3.56959C1.67514 3.56962 1.67514 3.12006 1.67514 3.12006C1.67034 2.64675 2.15022 2.38905 2.61036 2.45105C3.00424 2.45101 3.32485 2.75122 3.32485 3.12006C3.32895 4.1311 4.97059 4.12927 4.97456 3.12002C4.97456 2.13425 4.27799 1.30647 3.32485 1.02084C3.52456 -0.151034 1.7847 -0.417647 1.67509 0.76971C1.67514 0.769702 1.67514 1.01966 1.67514 1.01966C-0.872978 1.76108 -0.416931 5.79127 2.38403 5.77815C2.84429 5.71676 3.3305 5.97203 3.32484 6.44273C3.32486 6.4427 3.32486 6.89151 3.32486 6.89151C3.33856 7.79347 1.66086 7.7988 1.67514 6.89149C1.67514 6.46458 1.30581 6.11912 0.850287 6.11912C-0.922577 6.35867 0.474772 8.81362 1.67516 8.99259C1.67514 8.99266 1.67514 9.24262 1.67514 9.24262Z" fill="#FF3000"/>
</svg>
