<svg width="13" height="12" viewBox="0 0 13 12" fill="none" xmlns="http://www.w3.org/2000/svg">
<path d="M11.9569 7.87663C11.1609 7.87663 10.3795 7.76172 9.6389 7.53581C9.27602 7.42156 8.82992 7.52638 8.60845 7.73634L7.14673 8.75491C5.45156 7.91963 4.40736 6.95606 3.51483 5.40303L4.58581 4.08891C4.86405 3.83241 4.96385 3.45772 4.84428 3.10616C4.5985 2.41897 4.47365 1.69794 4.47365 0.962937C4.47368 0.431969 4.00572 0 3.43054 0H1.04315C0.467965 0 0 0.431969 0 0.962906C0 7.04884 5.36377 12 11.9569 12C12.532 12 13 11.568 13 11.0371V8.8395C13 8.30859 12.532 7.87663 11.9569 7.87663Z" fill="#FF3000"/>
</svg>
