<svg fill="none" height="249" viewBox="0 0 259 249" width="259" xmlns="http://www.w3.org/2000/svg"><g fill="#343434"><path d="m241.48 131.353.292-3.769 3.607.279-.544 7.035 1.418.109.544-7.035.115-1.489-12.563-.971-.399 5.168c-.215 2.782 1.198 4.354 3.459 4.528 2.261.175 3.855-1.056 4.071-3.855zm-6.108-.617.28-3.625 4.738.366-.287 3.715c-.149 1.92-1.178 2.617-2.559 2.51-1.382-.107-2.321-1.046-2.172-2.966z"/><path d="m230.738 150.944-.374 1.54 13.433-1.927.455-1.872-11.057-7.869-.373 1.54 3.321 2.343-1.38 5.685zm6.651-5.35 5.251 3.701-6.363.882z"/><path d="m238.166 168.442 1.987-4.651-11.586-4.952-.587 1.374 4.105 1.754-1.401 3.277c-1.096 2.566-.073 4.706 2.062 5.619 2.135.912 4.323.144 5.42-2.421zm-6.153-2.688 1.38-3.228 4.866 2.08-1.38 3.227c-.785 1.838-2.231 2.198-3.555 1.632s-2.096-1.874-1.311-3.711z"/><path d="m227.878 188.078-4.53-2.905 3.945-6.152 4.531 2.906.806-1.257-10.606-6.803-.806 1.257 4.878 3.13-3.945 6.151-4.879-3.129-.806 1.257 10.605 6.803z"/><path d="m205.57 196.122 7.525 1.224 1.892 7.148 1.2-1.318-1.529-5.649 5.756 1.002 1.199-1.318-7.204-1.175-1.995-7.437-1.199 1.318 1.644 5.95-6.09-1.063z"/><path d="m193.176 207.261-1.239.987 11.793 6.715 1.507-1.2-3.909-12.995-1.239.987 1.187 3.887-4.576 3.645zm8.535-.148 1.879 6.144-5.568-3.205z"/><path d="m183.681 228.177 1.466-.808.143-7.418 6.366 3.827 1.482-.817-7.897-4.813.077-5.264-1.481.818z"/><path d="m165.696 222.132c-2.695.909-4.31 3.219-4.318 5.9l1.518-.511c.176-1.845 1.36-3.403 3.271-4.047 2.695-.909 5.386.483 6.312 3.229s-.374 5.483-3.069 6.391c-1.911.644-3.797.121-5.053-1.241l-1.519.512c1.63 2.129 4.314 2.991 7.009 2.082 3.514-1.184 5.255-4.696 4.065-8.227s-4.703-5.272-8.216-4.088z"/><path d="m138.492 235.837 3.773-.234.223 3.612-7.042.435.088 1.419 7.042-.435 1.491-.092-.777-12.576-5.174.319c-2.785.173-4.146 1.79-4.006 4.053.14 2.264 1.58 3.672 4.382 3.499zm-.235-6.136 3.629-.224.294 4.743-3.719.23c-1.923.119-2.755-.804-2.841-2.187-.085-1.383.715-2.443 2.637-2.562z"/><path d="m117.037 227.806-1.576-.165 3.704 13.056 1.915.2 6.322-12.008-1.575-.165-1.879 3.604-5.818-.608zm6.191 5.877-2.967 5.698-1.724-6.188z"/><path d="m100.871 237.535 4.877 1.342 3.341-12.149-1.44-.396-1.184 4.304-3.436-.946c-2.691-.739-4.6731.563-5.2889 2.802s.4405 4.303 3.1309 5.043zm1.832-6.459 3.385.931-1.404 5.102-3.384-.931c-1.9265-.53-2.4792-1.914-2.0973-3.302.3819-1.389 1.5743-2.33 3.5003-1.8z"/><path d="m79.9708 229.948 2.2798-4.875 6.62 3.095-2.2798 4.876 1.3533.632 5.3373-11.413-1.3533-.633-2.4552 5.25-6.62-3.095 2.4552-5.251-1.3534-.633-5.3372 11.414z"/><path d="m69.1237 208.97-.2015 7.621-6.8287 2.837 1.4674 1.011 5.3922-2.275-.2192 5.839 1.4674 1.011.1966-7.297 7.1005-2.977-1.4674-1.011-5.6742 2.43.2343-6.178z"/><path d="m56.4139 198.142-1.1402-1.099-5.1183 12.568 1.3864 1.337 12.3742-5.571-1.1402-1.1-3.6993 1.684-4.2111-4.061zm1.2609 8.443-5.8456 2.665 2.4508-5.939z"/><path d="m34.5219 191.674.9995 1.343 7.3688-.863-2.9302 6.826 1.0103 1.357 3.6994-8.475 5.2259-.636-1.0102-1.357z"/><path d="m38.1146 173.107c-1.2712-2.544-3.7824-3.824-6.439-3.463l.7161 1.433c1.8515-.08 3.5578.879 4.4589 2.682 1.2713 2.544.2644 5.401-2.328 6.697-2.5924 1.295-5.4821.385-6.7533-2.159-.9011-1.804-.6431-3.744.5326-5.176l-.7161-1.433c-1.8841 1.907-2.3678 4.684-1.0966 7.228 1.6575 3.317 5.3762 4.558 8.7092 2.892 3.3331-1.665 4.5737-5.384 2.9162-8.701z"/></g><path d="m19.4319 142.37-2.8702 1.814 2.1196 3.408-3.9573.583.4854 3.292 3.9572-.583-1.0463 3.874 3.2669.877 1.1672-4.151 3.7887 2.224 1.7337-2.941-3.893-2.272 3.0671-3.331-2.5131-2.347-2.9814 3.254z" fill="#cc0035"/><g fill="#343434"><path d="m18.414 119.788-.2186 3.773-3.612-.209.4082-7.044-1.4197-.082-.4081 7.044-.0864 1.491 12.5789.729.2998-5.175c.1614-2.786-1.2817-4.33-3.5459-4.461s-3.8338 1.13-3.9962 3.934zm6.1194.498-.2103 3.63-4.7441-.275.2156-3.719c.1114-1.923 1.1265-2.64 2.5102-2.559 1.3837.08 2.34 1.001 2.2286 2.923z"/><path d="m28.8626 99.6131.35-1.5449-13.4023 2.1308-.4256 1.879 11.1748 7.699.35-1.544-3.3564-2.293 1.2928-5.705zm-6.569 5.4509-5.3072-3.62 6.3493-.979z"/><path d="m20.9943 82.6427-1.9005 4.6874 11.6768 4.7343.5613-1.3846-4.1369-1.6773 1.3391-3.3028c1.0483-2.5856-.0147-4.7064-2.1665-5.5789-2.1519-.8724-4.325-.0637-5.3733 2.5219zm6.2017 2.5727-1.3188 3.2528-4.9042-1.9884 1.3188-3.2528c.7507-1.8516 2.1899-2.2393 3.5243-1.6982 1.3345.5411 2.1307 1.835 1.3799 3.6866z"/><path d="m30.7994 62.9635 4.5827 2.8222-3.8321 6.2227-4.5827-2.8222-.7834 1.2721 10.7288 6.6071.7834-1.2721-4.9353-3.0393 3.8321-6.2227 4.9353 3.0392.7834-1.2721-10.7288-6.607z"/><path d="m52.9667 54.4167-7.5457-1.0873-2.0221-7.1125-1.175 1.3397 1.6309 5.6203-5.7731-.8974-1.175 1.3398 7.2241 1.0446 2.1302 7.3988 1.175-1.3398-1.7526-5.9184 6.1084.9519z"/><path d="m65.3824 42.8224 1.2244-1.0049-11.8894-6.5425-1.4888 1.2218 4.0975 12.9373 1.2245-1.0049-1.2432-3.8698 4.5221-3.7112zm-8.5319.2724-1.9684-6.1154 5.6139 3.1236z"/><path d="m74.0414 22.0008-1.4506.8355-.0062 7.4191-6.4358-3.709-1.4662.8445 7.9841 4.6659.02 5.2645 1.4663-.8444z"/><path d="m92.2632 27.5838c2.6775-.959 4.2482-3.2997 4.2057-5.9804l-1.5081.5402c-.1412 1.8478-1.2961 3.4278-3.194 4.1076-2.6774.959-5.3945-.3813-6.3717-3.1096-.9772-2.7282.271-5.4888 2.9484-6.4478 1.8979-.6798 3.7933-.1924 5.0756 1.1456l1.5082-.5402c-1.6693-2.098-4.3689-2.9092-7.0463-1.9502-3.4909 1.2503-5.1658 4.7947-3.9094 8.3025s4.8008 5.1827 8.2916 3.9323z"/><path d="m119.316 13.2923-3.768.2913-.279-3.60721 7.035-.54381-.11-1.41777-7.035.54381-1.489.11514.971 12.56254 5.168-.3995c2.782-.2151 4.118-1.8529 3.943-4.1141-.175-2.2613-1.636-3.6468-4.436-3.4304zm.33 6.1308-3.625.2803-.367-4.7379 3.715-.2872c1.921-.1484 2.767.7611 2.874 2.1429.107 1.3819-.677 2.4535-2.597 2.6019z"/><path d="m140.364 20.8632 1.578.1342-3.954-12.98181-1.919-.16322-6.089 12.12753 1.578.1343 1.809-3.6398 5.829.4957zm-6.303-5.7569 2.856-5.75467 1.843 6.15437z"/><path d="m156.673 10.8038-4.901-1.2487-3.111 12.21 1.448.3688 1.102-4.3258 3.454.8799c2.703.6887 4.661-.6515 5.234-2.9016.573-2.2502-.522-4.2938-3.226-4.9826zm-1.71 6.4928-3.401-.8665 1.307-5.1282 3.401.8665c1.936.4933 2.515 1.8667 2.159 3.2621-.355 1.3955-1.529 2.3594-3.466 1.8661z"/><path d="m177.878 18.0045-2.189 4.9168-6.677-2.9718 2.189-4.9169-1.365-.6076-5.124 11.5111 1.365.6076 2.357-5.2951 6.677 2.9718-2.357 5.2952 1.365.6075 5.123-11.5111z"/><path d="m188.906 38.5983.062-7.6235 6.776-2.9608-1.486-.9841-5.35 2.3725.113-5.8413-1.486-.9841-.063 7.299-7.045 3.1064 1.486.9841 5.629-2.5331-.122 6.1809z"/><path d="m202.141 49.3875 1.16 1.0787 4.889-12.6594-1.411-1.3115-12.271 5.7954 1.16 1.0786 3.668-1.7509 4.285 3.9836zm-1.414-8.4182 5.796-2.7707-2.343 5.9821z"/><path d="m224.345 55.6975-1.019-1.3281-7.355.9697 2.83-6.8678-1.03-1.3424-3.575 8.5284-5.216.7123 1.029 1.3424z"/><path d="m221.066 74.3044c1.308 2.525 3.838 3.7682 6.489 3.3673l-.737-1.4223c-1.85.1075-3.57-.8255-4.498-2.6153-1.309-2.525-.345-5.397 2.228-6.7307s5.476-.4662 6.785 2.0587c.928 1.7899.698 3.7334-.456 5.1833l.737 1.4222c1.856-1.935 2.298-4.719.99-7.2439-1.707-3.292-5.444-4.4774-8.752-2.7627s-4.493 5.4514-2.786 8.7434z"/></g><path d="m239.52 106.982 2.835-1.869-2.185-3.366 3.946-.659-.549-3.2826-3.945.659.972-3.8933-3.283-.8142-1.087 4.1722-3.831-2.1503-1.677 2.973 3.936 2.1972-3.003 3.389 2.558 2.298 2.918-3.31z" fill="#cc0035"/></svg>