<svg fill="none" height="25" viewBox="0 0 25 25" width="25" xmlns="http://www.w3.org/2000/svg"><path d="m24.4483 11.9464h.006c.1522 0 .2974-.0639.4006-.1758.1047-.1135.1566-.2657.1429-.4196-.5479-6.02694-5.3192-10.800201-11.3463-11.34924121-.1528-.01200689-.3067.03765791-.4202.14299021-.1135.104787-.1768.25269-.1752.407141.095 8.00965 1.1515 11.28261 11.3922 11.39451zm0 1.1068c-10.2407.1119-11.2967 3.3848-11.3917 11.3945-.0016.1544.0617.3023.1752.4071.1015.0934.2341.1452.3706.1452.0163 0 .0333-.0005.0496-.0022 6.0271-.549 10.7985-5.3217 11.3458-11.3492.0137-.1539-.0376-.3061-.1429-.4197-.1054-.1135-.2522-.1697-.4066-.1757zm-13.1364-13.04871232c-6.00795.56486732-10.76402 5.33704232-11.30920813 11.34751232-.01364337.1539.03765563.3062.14298213.4197.103144.1119.248855.1752.400569.1752h.006548c10.206809-.1173 11.260709-3.38863 11.356709-11.392827.0016-.154451-.0622-.302899-.1757-.407686-.1146-.1047873-.268-.15608922-.4219-.14189932zm-10.759654 13.04811232c-.169723-.0191-.302882.0617-.407118.1752-.1047804.1136-.1566252.2658-.14298183.4197.54518783 6.0105 5.30180383 10.7827 11.30975383 11.3476.0169.0016.0344.0022.0513.0022.1365 0 .2685-.0513.37-.1447.1135-.1047.1774-.2532.1758-.4076-.0961-8.0037-1.1494-11.275-11.356754-11.3924z" fill="#343434"/></svg>