<svg fill="none" height="18" viewBox="0 0 30 18" width="30" xmlns="http://www.w3.org/2000/svg"><path d="m26.7029 12.4473s2.4255 2.3955 3.0255 3.504c.0117.016.0208.0337.027.0525.2445.4095.3045.7305.1845.9675-.2025.3915-.888.588-1.1205.6045h-4.287c-.2985 0-.9195-.078-1.6755-.6-.5775-.4035-1.152-1.068-1.7085-1.7175-.831-.9645-1.5495-1.8015-2.277-1.8015-.0919-.0002-.1832.015-.27.045-.5505.174-1.2495.9585-1.2495 3.048 0 .654-.516 1.026-.8775 1.026h-1.9635c-.669 0-4.152-.234-7.24051-3.4905-3.7845-3.987-7.1834991-11.985-7.2164991-12.0555-.2114999-.5175.2325001-.7995.7125001-.7995h4.328999c.5805 0 .7695.351.9015.666.153.3615.72 1.8075 1.65 3.432 1.506 2.643 2.43151 3.7185 3.17101 3.7185.1389.00041.2755-.0358.396-.105.966-.531.786-3.981.741-4.692 0-.138-.0015-1.5405-.4965-2.2185-.354-.486-.957-.675-1.3215-.744.0975-.141.3045-.356996.57-.484496.6615-.33 1.857-.377999 3.0435-.377999h.6585c1.287.018 1.62.1005 2.088.219.942.225.96.835495.8775 2.914495-.024.594-.0495 1.263-.0495 2.0505 0 .168-.0075.3555-.0075.546-.0285 1.0665-.066 2.268.687 2.7615.0977.06084.2104.09306.3255.093.261 0 1.0425 0 3.162-3.6375.93-1.6065 1.65-3.501 1.6995-3.6435.042-.0795.168-.303.321-.393.1088-.0579.2307-.08683.354-.084h5.0925c.555 0 .9315.084 1.005.294.123.3405-.024 1.38-2.349 4.524-.3915.5235-.735.9765-1.0365 1.3725-2.1075 2.766-2.1075 2.9055.1245 5.0055z" fill="#343434"/></svg>