<svg fill="none" height="26" viewBox="0 0 26 26" width="26" xmlns="http://www.w3.org/2000/svg"><path d="m.505017 25.5 1.690003-6.21c-1.11358-1.9089-1.698633-4.08-1.695003-6.29 0-6.90375 5.596253-12.5 12.499983-12.5 6.9038 0 12.5 5.59625 12.5 12.5 0 6.9037-5.5962 12.5-12.5 12.5-2.209.0036-4.37916-.581-6.28748-1.6937zm7.983753-18.365c-.16143.01002-.31916.05254-.46375.125-.1356.07679-.25938.17278-.3675.285-.15.14125-.235.26375-.32625.3825-.46199.60124-.71049 1.33927-.70625 2.0975.0025.6125.1625 1.2087.4125 1.7662.51125 1.1276 1.3525 2.3213 2.46375 3.4275.2675.2663.52873.5338.81003.7826 1.3792 1.2143 3.0228 2.09 4.8 2.5575l.7112.1087c.2313.0125.4625-.005.695-.0163.3641-.0187.7195-.1173 1.0413-.2887.2075-.11.305-.165.4787-.275 0 0 .0538-.035.1563-.1125.1687-.125.2725-.2137.4125-.36.1037-.1075.1937-.2337.2625-.3775.0975-.2037.195-.5925.235-.9163.03-.2475.0212-.3824.0175-.4662-.005-.1337-.1163-.2725-.2375-.3312l-.7275-.3263s-1.0875-.4737-1.7513-.7762c-.07-.0306-.145-.0479-.2212-.0513-.0856-.0088-.172.0008-.2535.0282s-.1562.0719-.219.1305v-.0025c-.0063 0-.09.0713-.9938 1.1663-.0519.0697-.1233.1224-.2052.1513-.082.029-.1706.0329-.2548.0112-.0814-.0218-.1612-.0493-.2387-.0825-.155-.065-.2088-.09-.315-.1362l-.0063-.0025c-.7151-.3123-1.3772-.734-1.9625-1.25-.1575-.1375-.3037-.2876-.4537-.4326-.4918-.4709-.9204-1.0037-1.275-1.5849l-.07378-.1188c-.05298-.0798-.0958-.1659-.1275-.2563-.0475-.1837.07625-.3312.07625-.3312s.30373-.3325.44503-.5125c.1176-.1496.2273-.3052.3287-.4662.1475-.2375.1938-.4813.1163-.67-.35-.85505-.7125-1.7063-1.08503-2.5513-.07375-.1675-.2925-.2875-.49125-.31125-.0675-.0075-.135-.015-.2025-.02-.16787-.00834-.33609-.00542-.50375.00625z" fill="#343434"/></svg>