<svg fill="none" height="24" viewBox="0 0 32 24" width="32" xmlns="http://www.w3.org/2000/svg"><path d="m31.102 4.42382c-.1802-.66486-.5313-1.27097-1.0184-1.75806-.4871-.4871-1.0932-.83821-1.7581-1.01844-2.466-.65025-12.3255-.65025-12.3255-.65025s-9.8595 0-12.3255.65025c-1.35.36225-2.412 1.4265-2.7765 2.7765-.648 2.46375-.648 7.57578-.648 7.57578s0 5.1367.648 7.5757c.3645 1.35 1.42875 2.4143 2.7765 2.7765 2.466.6503 12.3255.6503 12.3255.6503s9.8595 0 12.3255-.6503c.6649-.1802 1.271-.5313 1.7581-1.0184s.8382-1.0932 1.0184-1.7581c.648-2.4637.648-7.5757.648-7.5757s0-5.11203-.648-7.57578z" fill="#343434"/><path d="m12.834 16.7473 8.199-4.7205-8.199-4.7475z" fill="#fff"/></svg>