<svg fill="none" height="23" viewBox="0 0 31 23" width="31" xmlns="http://www.w3.org/2000/svg"><path d="m30.1825 4.1343c-.1752-.6464-.5166-1.23567-.9901-1.70923-.4736-.47357-1.0629-.81493-1.7093-.99015-2.3975-.632186-11.9831-.632186-11.9831-.632186s-9.58562 0-11.98312.632186c-1.3125.35219-2.34501 1.38688-2.69938 2.69938-.63 2.39531-.63 7.3653-.63 7.3653s0 4.9941.63 7.3653c.35437 1.3125 1.38906 2.3472 2.69938 2.6994 2.3975.6322 11.98312.6322 11.98312.6322s9.5856 0 11.9831-.6322c.6464-.1752 1.2357-.5166 1.7093-.9901.4735-.4736.8149-1.0629.9901-1.7093.63-2.3953.63-7.3653.63-7.3653s0-4.96999-.63-7.3653z" fill="#f00"/><path d="m12.4219 16.1152 7.9712-4.5894-7.9712-4.61564z" fill="#fff"/></svg>