<svg width="95" height="70" viewBox="0 0 95 70" fill="none" xmlns="http://www.w3.org/2000/svg">
<path d="M9.85132 0.958496C4.71162 0.958496 0.458008 5.20488 0.458008 10.3432V22.846V35.3182V60.3177C0.458008 65.456 4.71162 69.7085 9.85132 69.7085H84.8452C89.9849 69.7085 94.208 65.456 94.208 60.3177V35.3182V22.846V10.3432C94.208 5.20488 89.9849 0.958496 84.8452 0.958496H9.85132ZM9.85132 7.20683H84.8452C86.6305 7.20683 87.9824 8.55837 87.9824 10.3432V19.7035H6.70801V10.3432C6.70801 8.55837 8.06601 7.20683 9.85132 7.20683ZM6.70801 25.9579H87.9824V32.2063H6.70801V25.9579ZM6.70801 38.4546H87.9824V60.3177C87.9824 62.1025 86.6305 63.4541 84.8452 63.4541H9.85132C8.06601 63.4541 6.70801 62.1025 6.70801 60.3177V38.4546ZM53.2839 50.9574C52.4682 51.0148 51.7073 51.3892 51.1641 52.0004C50.621 52.6116 50.3387 53.4111 50.3778 54.2277C50.4169 55.0444 50.7742 55.8133 51.3733 56.3699C51.9723 56.9264 52.7655 57.2265 53.583 57.2057H59.8391C60.6559 57.1876 61.4331 56.8505 62.0044 56.2666C62.5756 55.6826 62.8955 54.8983 62.8955 54.0816C62.8955 53.2648 62.5756 52.4805 62.0044 51.8965C61.4331 51.3126 60.6559 50.9755 59.8391 50.9574H53.583C53.4834 50.9526 53.3836 50.9526 53.2839 50.9574ZM72.04 50.9574C71.2243 51.0148 70.4634 51.3892 69.9202 52.0004C69.3771 52.6116 69.0949 53.4111 69.1339 54.2277C69.173 55.0444 69.5303 55.8133 70.1294 56.3699C70.7284 56.9264 71.5216 57.2265 72.3391 57.2057H78.5891C79.4059 57.1876 80.1831 56.8505 80.7544 56.2666C81.3256 55.6826 81.6455 54.8983 81.6455 54.0816C81.6455 53.2648 81.3256 52.4805 80.7544 51.8965C80.1831 51.3126 79.4059 50.9755 78.5891 50.9574H72.3391C72.2395 50.9526 72.1397 50.9526 72.04 50.9574Z" fill="#F9F9F9"/>
</svg>
