<svg width="100" height="100" viewBox="0 0 100 100" fill="none" xmlns="http://www.w3.org/2000/svg">
<g clip-path="url(#clip0_232_6516)">
<path d="M76.1719 19.2943L56.8775 0H0V100H76.1719V88.2812H100V70.7031H76.1719V19.2943ZM58.5938 10.0025L66.1693 17.5781H58.5938V10.0025ZM70.3125 94.1406H5.85938V5.85938H52.7344V23.4375H70.3125V70.7031H38.0859C32.4824 70.7031 27.3094 74.7086 25.2154 76.5625H20.5078V82.4219H25.2154C27.3096 84.2758 32.4826 88.2812 38.0859 88.2812H70.3125V94.1406ZM35.1562 81.826C33.6363 81.2588 32.1572 80.365 30.9408 79.4924C32.1576 78.6191 33.6367 77.7254 35.1562 77.1584V81.826ZM41.0156 76.5625H82.4219V82.4219H41.0156V76.5625ZM94.1406 82.4219H88.2812V76.5625H94.1406V82.4219Z" fill="#F9F9F9"/>
<path d="M35.1562 29.4922H64.4531V35.3516H35.1562V29.4922Z" fill="#F9F9F9"/>
<path d="M35.1562 41.2109H64.4531V47.0703H35.1562V41.2109Z" fill="#F9F9F9"/>
<path d="M35.1562 52.9297H64.4531V58.7891H35.1562V52.9297Z" fill="#F9F9F9"/>
<path d="M8.39 41.999H11.9V28.7H20.87C24.536 28.7 27.201 29.454 28.865 30.962C30.555 32.47 31.4 34.576 31.4 37.28C31.4 39.958 30.555 42.064 28.865 43.598C27.175 45.132 24.51 45.899 20.87 45.899H16.58V48.239H25.55V51.671H16.58V56H11.9V51.671H8.39V48.239H11.9V45.899H8.39V41.999ZM16.58 32.834V41.999H20.87C22.82 41.999 24.237 41.583 25.121 40.751C26.031 39.919 26.486 38.801 26.486 37.397C26.486 35.993 26.031 34.888 25.121 34.082C24.237 33.25 22.82 32.834 20.87 32.834H16.58Z" fill="#F9F9F9"/>
</g>
<defs>
<clipPath id="clip0_232_6516">
<rect width="100" height="100" fill="white"/>
</clipPath>
</defs>
</svg>
