<svg width="100" height="100" viewBox="0 0 100 100" fill="none" xmlns="http://www.w3.org/2000/svg">
<g clip-path="url(#clip0_232_6523)">
<path d="M78.0143 24.1935H21.9871C16.651 24.1935 12.3097 28.5348 12.3097 33.8709V66.1289C12.3097 71.465 16.651 75.8064 21.9871 75.8064H78.0143C83.3506 75.8064 87.6917 71.465 87.6917 66.1289V33.8709C87.6917 28.5348 83.3506 24.1935 78.0143 24.1935ZM67.2782 69.3548H32.7234C31.4012 62.2939 25.8222 56.715 18.7613 55.3927V44.607C25.8222 43.2848 31.401 37.7058 32.7234 30.6449H67.2782C68.6004 37.7058 74.1794 43.2846 81.2401 44.607V55.3927C74.1792 56.715 68.6004 62.2941 67.2782 69.3548ZM81.2401 33.8709V37.9727C77.745 36.9021 74.9829 34.14 73.9125 30.6451H78.0143C79.7929 30.6451 81.2401 32.0922 81.2401 33.8709ZM21.9871 30.6451H26.0891C25.0187 34.1402 22.2564 36.9023 18.7613 37.9729V33.8709C18.7613 32.0922 20.2085 30.6451 21.9871 30.6451ZM18.7613 66.1289V62.0269C22.2564 63.0975 25.0185 65.8596 26.0891 69.3548H21.9871C20.2085 69.3548 18.7613 67.9078 18.7613 66.1289ZM78.0143 69.3548H73.9125C74.9829 65.8596 77.745 63.0975 81.2401 62.0271V66.1289C81.2401 67.9078 79.7929 69.3548 78.0143 69.3548ZM50.0008 36.0781C42.3242 36.0781 36.0788 42.3235 36.0788 50.0001C36.0788 57.6767 42.3242 63.9221 50.0008 63.9221C57.6774 63.9221 63.9228 57.6767 63.9228 50.0001C63.9228 42.3235 57.6774 36.0781 50.0008 36.0781ZM50.0008 57.4703C45.8816 57.4703 42.5304 54.1191 42.5304 49.9999C42.5304 45.8808 45.8816 42.5295 50.0008 42.5295C54.1199 42.5295 57.4712 45.8808 57.4712 49.9999C57.4712 54.1191 54.1197 57.4703 50.0008 57.4703ZM58.0653 9.67733C58.0653 7.89587 59.5095 6.45152 61.2911 6.45152H76.6889L75.7439 5.50656C74.4841 4.24688 74.4841 2.20434 75.7439 0.944665C77.0036 -0.315214 79.0462 -0.315214 80.3058 0.944665L86.7562 7.39507C87.6189 8.25696 87.9425 9.5612 87.5101 10.7654C87.1823 11.6806 87.3117 11.4039 80.3058 18.4098C79.676 19.0398 78.8504 19.3547 78.025 19.3547C75.1774 19.3547 73.7056 15.886 75.7441 13.8481L76.6889 12.9031H61.2911C59.5095 12.9031 58.0653 11.459 58.0653 9.67733ZM41.9363 90.3225C41.9363 92.1039 40.4919 93.5483 38.7105 93.5483H23.3127L24.2575 94.4933C25.5173 95.7529 25.5173 97.7955 24.2575 99.0552C22.998 100.315 20.9552 100.315 19.6956 99.0552C12.8141 92.1737 13.0978 92.4955 12.8423 92.1134C12.2617 91.2461 12.1226 90.1104 12.5447 89.0886C12.8768 88.288 12.7704 88.5154 19.6956 81.5902C20.9552 80.3304 22.9978 80.3304 24.2575 81.5902C25.5173 82.8499 25.5173 84.8924 24.2575 86.1521L23.3127 87.0967H38.7105C40.4919 87.0967 41.9363 88.541 41.9363 90.3225Z" fill="#F9F9F9"/>
</g>
<defs>
<clipPath id="clip0_232_6523">
<rect width="100" height="100" fill="white"/>
</clipPath>
</defs>
</svg>
