<svg width="90" height="90" viewBox="0 0 90 90" fill="none" xmlns="http://www.w3.org/2000/svg">
<g clip-path="url(#clip0_232_6526)">
<path d="M81.3867 3.31242C76.5315 1.17633 70.164 0 63.457 0C49.7317 0 37.0898 5.03982 37.0898 13.1836C37.0898 15.2211 37.0898 31.063 37.0898 32.9669C34.4899 32.2098 31.7744 31.8164 29.0039 31.8164C21.2745 31.8164 13.9911 34.8708 8.49551 40.417C3.01711 45.9459 0 53.2543 0 60.9961C0 76.9888 13.0112 90 29.0039 90C34.3408 90 39.4717 88.5658 43.9557 85.88C48.8598 88.511 55.848 90 63.457 90C70.164 90 76.5315 88.8237 81.3867 86.6876C86.9411 84.244 90 80.7383 90 76.8164C90 75.1743 90 14.8598 90 13.1836C90 9.26156 86.9411 5.75596 81.3867 3.31242ZM29.0039 84.7266C15.9189 84.7266 5.27344 74.0811 5.27344 60.9961C5.27344 47.8141 15.9189 37.0898 29.0039 37.0898C42.1857 37.0898 52.9102 47.8141 52.9102 60.9961C52.9102 74.0811 42.1857 84.7266 29.0039 84.7266ZM84.7266 76.8164C84.7266 80.0416 76.4408 84.7266 63.457 84.7266C57.9336 84.7266 52.7157 83.8413 48.7564 82.2902C49.0358 82.0336 49.3121 81.7729 49.5831 81.5045C51.9574 79.1518 53.8733 76.471 55.2902 73.5683C57.9099 73.9723 60.6465 74.1797 63.457 74.1797C70.3904 74.1797 78.9884 72.832 84.7266 69.0787V76.8164ZM84.7266 60.9961C84.7266 64.2213 76.4408 68.9062 63.457 68.9062C61.306 68.9062 59.2091 68.7718 57.1885 68.5114C57.8436 66.0885 58.1836 63.5672 58.1836 60.9961C58.1836 59.9609 58.1272 58.9337 58.0192 57.9169C59.7953 58.0927 61.6131 58.1836 63.457 58.1836C70.3909 58.1836 78.9882 56.8357 84.7266 53.0826V60.9961ZM84.7266 45C84.7266 48.2252 76.4408 52.9102 63.457 52.9102C61.2127 52.9102 59.0168 52.7634 56.905 52.4781C55.5365 48.0393 53.0951 43.9536 49.7125 40.5323C53.7891 41.7227 58.5243 42.3633 63.457 42.3633C70.3909 42.3633 78.9882 41.0154 84.7266 37.2623V45ZM84.7266 29.1797C84.7266 32.4049 76.4408 37.0898 63.457 37.0898C57.4792 37.0898 51.9003 36.0735 47.748 34.2279C44.4264 32.7519 42.3633 30.8174 42.3633 29.1797V21.3038C48.0716 25.0455 56.5966 26.3672 63.457 26.3672C70.3909 26.3672 78.9882 25.0193 84.7266 21.2662V29.1797ZM63.457 21.0938C50.5765 21.0938 42.3633 16.4786 42.3633 13.1836C42.3633 9.87838 50.5999 5.27344 63.457 5.27344C76.4408 5.27344 84.7266 9.95836 84.7266 13.1836C84.7266 16.4088 76.4408 21.0938 63.457 21.0938Z" fill="#F9F9F9"/>
<path d="M20.9 69.671H17.39V66.239H20.9V63.899H17.39V59.999H20.9V46.7H29.87C33.536 46.7 36.201 47.454 37.865 48.962C39.555 50.47 40.4 52.576 40.4 55.28C40.4 57.958 39.555 60.064 37.865 61.598C36.175 63.132 33.51 63.899 29.87 63.899H25.58V66.239H34.55V69.671H25.58V74H20.9V69.671ZM25.58 50.834V59.999H29.87C31.82 59.999 33.237 59.583 34.121 58.751C35.031 57.919 35.486 56.801 35.486 55.397C35.486 53.993 35.031 52.888 34.121 52.082C33.237 51.25 31.82 50.834 29.87 50.834H25.58Z" fill="#F9F9F9"/>
</g>
<defs>
<clipPath id="clip0_232_6526">
<rect width="90" height="90" fill="white"/>
</clipPath>
</defs>
</svg>
