<svg width="201" height="75" viewBox="0 0 201 75" fill="none" xmlns="http://www.w3.org/2000/svg">
<g clip-path="url(#clip0_1567_8609)">
<path d="M25.0877 66.1792H4.16593V57.3584H25.0415V66.1792H25.0877ZM29.2999 52.9249H0V75H4.16593V70.5665H29.2074V52.9249H29.2999ZM4.16593 13.2543L12.5439 4.43349V35.3294H4.16593V13.2543ZM0 39.7167H16.6634V0H10.461L0 11.0376V39.7167ZM25.0877 4.43349H33.4658V35.3294H25.0877V4.43349ZM20.922 39.7167H37.5854V0H20.922V39.7167ZM66.7928 39.7167H70.9586V0H64.6635V0.0461904L58.3684 6.65025V0H52.0734L41.7049 11.0376V39.7167H45.8708V13.2543L54.2488 4.43349V39.7167H58.4147V13.2543L66.7928 4.43349V39.7167ZM0 48.5376H71.0048V44.1041H0V48.5376ZM54.2952 57.3584H66.7928V66.1792H54.2952V57.3584ZM50.1292 66.1792H37.5854V57.3584H50.1292V66.1792ZM54.2952 70.5665H71.0048V52.9249H33.4658V70.5665H50.1292V75H54.2952V70.5665ZM133.122 38.9778H136.78C138.399 38.9778 139.371 40.1323 139.371 41.7026C139.371 43.3652 138.399 44.4274 136.78 44.4274H133.122V38.9778ZM133.122 35.5141V31.5426H141.824V28.0789H129.374V47.9372H136.919C140.667 47.9372 143.029 45.351 143.029 41.7487C143.029 38.1466 140.713 35.5603 136.919 35.5603C136.964 35.5141 133.122 35.5141 133.122 35.5141ZM156.59 41.1484H151.915L154.322 33.944L156.59 41.1484ZM158.72 47.9372H162.562L155.757 28.0789H152.887L146.083 47.9372H149.925L151.082 44.4274H157.702L158.72 47.9372ZM176.401 47.9372H180.058V28.0789H176.401V36.2069H170.059V28.0789H166.403V47.9372H170.059V39.6245H176.401V47.9372ZM193.527 37.3614L199.823 28.0789H195.472L189.455 37.5V28.0789H185.798V47.9372H189.455V37.5461L196.027 47.9372H200.516L193.527 37.3614Z" fill="#384249"/>
<path d="M103.453 8.45117H100.212V66.5485H103.453V8.45117Z" fill="#99C45A"/>
</g>
<defs>
<clipPath id="clip0_1567_8609">
<rect width="201" height="75" fill="white"/>
</clipPath>
</defs>
</svg>
