<svg width="238" height="65" viewBox="0 0 238 65" fill="none" xmlns="http://www.w3.org/2000/svg">
<path d="M188.573 19.9122L197.474 13.3531H167.959V52.239H197.474V45.6799H176.392V35.8413H194.195V29.2823H176.392V19.9122H188.573ZM151.795 19.9122L160.697 13.3531H126.965V52.239H144.534C154.372 52.239 159.994 47.7882 159.994 40.0579C159.994 32.5618 154.841 28.5795 145.471 28.5795H135.163V19.9122H151.795ZM144.299 34.9043C149.687 34.9043 152.03 36.7783 152.03 40.2921C152.03 43.8059 149.453 45.6799 144.299 45.6799H135.398V34.9043H144.299ZM221.134 13.3531H205.205V52.239H213.638V41.2291H221.368C231.675 41.2291 238 35.8413 238 27.174C238 18.5067 231.441 13.3531 221.134 13.3531ZM221.134 34.6701H213.638V19.6779H221.134C226.522 19.6779 229.567 22.2547 229.567 27.174C229.333 32.0933 226.522 34.6701 221.134 34.6701ZM112.675 43.8059C110.333 44.9772 107.99 45.6799 105.413 45.6799C97.9174 45.6799 92.2953 40.2921 92.2953 32.7961C92.2953 25.3 97.6831 19.9122 105.413 19.9122C108.224 19.9122 110.801 20.8492 113.144 22.2547L119.234 17.8039L118.766 17.3354C115.252 14.2902 110.567 12.6504 105.179 12.6504C99.3229 12.6504 94.1694 14.5244 90.1871 18.2724C86.439 22.0205 84.0965 27.174 84.3308 32.5618C84.3308 37.9496 86.439 43.1031 90.1871 47.0854C94.1694 50.8335 99.5572 52.9417 104.945 52.7075C111.035 52.7075 116.189 50.5992 119.937 46.8512L114.549 42.8689L112.675 43.8059Z" fill="#21A038"/>
<path d="M57.3473 12.606C58.868 14.5986 60.1555 16.7634 61.1835 19.0569L32.0217 40.843L19.8342 33.1003V23.7856L32.0217 31.5282L57.3473 12.606Z" fill="#21A038"/>
<path d="M7.39602 32.4424C7.39602 32.0244 7.40608 31.6092 7.42619 31.1964L0.0402252 30.8296C0.0150858 31.3646 8.92559e-06 31.9048 8.92559e-06 32.4499C-0.0031336 36.7095 0.823569 40.9276 2.43271 44.8624C4.04185 48.7974 6.40173 52.3715 9.37701 55.3799L14.6161 50.0729C12.3258 47.7612 10.5089 45.0135 9.26987 41.9879C8.0308 38.9622 7.394 35.7182 7.39602 32.4424Z" fill="url(#paint0_linear_587_6780)"/>
<path d="M32.0151 7.49438C32.4273 7.49438 32.837 7.50967 33.2442 7.53005L33.6138 0.0421453C33.0843 0.0166676 32.5513 0.00393031 32.0151 0.00393031C27.8101 -0.00126652 23.6458 0.835353 19.7609 2.46575C15.876 4.09615 12.3471 6.48821 9.37695 9.50459L14.616 14.8141C16.8971 12.4923 19.6086 10.6503 22.5946 9.39413C25.5805 8.13795 28.7819 7.49232 32.0151 7.49438Z" fill="url(#paint1_linear_587_6780)"/>
<path d="M32.0151 57.3933C31.6029 57.3933 31.193 57.3933 30.7834 57.3602L30.4138 64.8455C30.9451 64.8727 31.4789 64.8864 32.0151 64.8864C36.2183 64.8907 40.3807 64.0536 44.2635 62.4227C48.1463 60.7919 51.6729 58.3995 54.6408 55.3831L49.4118 50.0762C47.1302 52.3968 44.419 54.2377 41.4336 55.4934C38.4483 56.7492 35.2475 57.3949 32.0151 57.3933Z" fill="url(#paint2_linear_587_6780)"/>
<path d="M45.8923 11.8472L52.1168 7.1975C46.4275 2.52861 39.3258 -0.0129603 32.0051 4.97006e-05V7.49304C36.9624 7.48682 41.8045 9.00507 45.8923 11.8472Z" fill="url(#paint3_linear_587_6780)"/>
<path d="M64.028 32.4434C64.0319 30.4942 63.8637 28.5483 63.5251 26.6294L56.6345 31.7759C56.6345 31.9977 56.6345 32.2193 56.6345 32.4434C56.6362 35.9295 55.9151 39.3771 54.5182 42.5626C53.121 45.7481 51.0789 48.6006 48.5244 50.9351L53.4945 56.5021C56.8156 53.4636 59.4695 49.7518 61.284 45.6073C63.0988 41.4626 64.0335 36.9777 64.028 32.4434Z" fill="#21A038"/>
<path d="M32.0153 57.3949C28.5753 57.3961 25.1733 56.6651 22.0296 55.2493C18.8861 53.8335 16.071 51.7642 13.7666 49.1758L8.27612 54.2102C11.2739 57.5764 14.9363 60.2664 19.0259 62.106C23.1155 63.9453 27.5409 64.8932 32.0153 64.8878V57.3949Z" fill="url(#paint4_linear_587_6780)"/>
<path d="M15.506 13.9517L10.5385 8.38477C7.21647 11.4227 4.56163 15.1343 2.74613 19.2789C0.930649 23.4235 -0.00494964 27.9086 1.96921e-05 32.4433H7.39604C7.39451 28.9575 8.11567 25.5099 9.51274 22.3243C10.9098 19.1389 12.9517 16.2864 15.506 13.9517Z" fill="url(#paint5_linear_587_6780)"/>
<defs>
<linearGradient id="paint0_linear_587_6780" x1="10.8728" y1="54.445" x2="2.59802" y2="30.8419" gradientUnits="userSpaceOnUse">
<stop offset="0.14" stop-color="#F1E813"/>
<stop offset="0.3" stop-color="#E6E418"/>
<stop offset="0.58" stop-color="#C9DA26"/>
<stop offset="0.89" stop-color="#A2CC39"/>
</linearGradient>
<linearGradient id="paint1_linear_587_6780" x1="11.4887" y1="10.8294" x2="32.3714" y2="2.97698" gradientUnits="userSpaceOnUse">
<stop offset="0.06" stop-color="#0FA7DF"/>
<stop offset="0.54" stop-color="#0098F8"/>
<stop offset="0.92" stop-color="#0290EA"/>
</linearGradient>
<linearGradient id="paint2_linear_587_6780" x1="29.9262" y1="60.364" x2="53.4918" y2="55.111" gradientUnits="userSpaceOnUse">
<stop offset="0.12" stop-color="#A2CC39"/>
<stop offset="0.28" stop-color="#86C239"/>
<stop offset="0.87" stop-color="#219F38"/>
</linearGradient>
<linearGradient id="paint3_linear_587_6780" x1="30.4667" y1="2.5096" x2="50.6345" y2="8.65067" gradientUnits="userSpaceOnUse">
<stop offset="0.06" stop-color="#0290EA"/>
<stop offset="0.79" stop-color="#0C89CA"/>
</linearGradient>
<linearGradient id="paint4_linear_587_6780" x1="10.1314" y1="53.298" x2="32.104" y2="61.4009" gradientUnits="userSpaceOnUse">
<stop offset="0.13" stop-color="#F1E813"/>
<stop offset="0.3" stop-color="#EAE616"/>
<stop offset="0.53" stop-color="#D8DF1F"/>
<stop offset="0.8" stop-color="#BAD52D"/>
<stop offset="0.98" stop-color="#A2CC39"/>
</linearGradient>
<linearGradient id="paint5_linear_587_6780" x1="2.75529" y1="33.3503" x2="11.7534" y2="10.2539" gradientUnits="userSpaceOnUse">
<stop offset="0.07" stop-color="#A2CC39"/>
<stop offset="0.26" stop-color="#81C45E"/>
<stop offset="0.92" stop-color="#0FA7DF"/>
</linearGradient>
</defs>
</svg>
