<svg width="287" height="69" viewBox="0 0 287 69" fill="none" xmlns="http://www.w3.org/2000/svg">
<g clip-path="url(#clip0_1567_8612)">
<path fill-rule="evenodd" clip-rule="evenodd" d="M81.8726 33.338H87.135C89.2328 33.338 90.9387 31.6053 90.9387 29.4777C90.9387 27.3489 89.2328 25.6162 87.135 25.6162H81.8726V33.338ZM81.8726 23.1484H87.135V23.1548C90.6836 23.1548 93.5597 25.9881 93.5597 29.4828C93.5597 32.9775 90.6836 35.8109 87.135 35.8109H79.2504V15.0889H91.8034V17.5566H81.8726V23.1484ZM97.9986 28.3534C98.0141 31.3454 100.488 33.7573 103.525 33.7421L103.526 33.7434C103.566 33.7434 103.605 33.7434 103.645 33.7421C106.641 33.7015 109.036 31.2756 108.995 28.3255V28.2963C108.978 25.3055 106.504 22.8923 103.467 22.9089C100.431 22.9241 97.9819 25.3614 97.9986 28.3534ZM108.995 33.5847C107.637 35.226 105.636 36.1527 103.381 36.1527C101.309 36.1578 99.322 35.3441 97.8646 33.8944C94.7863 30.8021 94.7863 25.8514 97.8646 22.7578C99.3232 21.3081 101.31 20.4957 103.382 20.5008C105.636 20.5008 107.637 21.4262 108.996 23.0688V20.846H111.497V35.8113H108.995V33.5847ZM125.738 27.1222H117.898V20.8462H115.394V35.8063H117.898V29.5316H125.738V35.8063H128.241V20.8462H125.738V27.1222ZM141.54 35.8063L134.639 29.2523V35.8063H132.136V20.8462H134.639V26.8417L141.192 20.8462H144.669L136.815 28.0426L144.938 35.8063H141.54ZM79.3513 53.0396C79.3513 56.4023 78.841 58.4765 77.7922 59.3841C77.2162 59.8868 76.4534 60.0607 75.4097 59.9249L75.085 59.8843V62.2518L75.3491 62.2734C75.6378 62.2988 75.9251 62.3102 76.1944 62.3102C77.7097 62.3102 78.8501 61.9243 79.7391 61.1182C81.2416 59.7561 81.9722 57.1335 81.9722 53.0967V44.0216H90.5719V62.2708H93.1966V41.5589H79.3513V53.0396ZM109.398 53.6197C108.851 50.4969 106.431 49.3798 104.474 49.3798C101.752 49.3798 99.6597 51.0707 99.1726 53.6197H109.398ZM96.5569 54.7952C96.5569 50.2608 99.8878 46.9692 104.474 46.9692C106.583 46.9413 108.6 47.8223 109.994 49.3811C111.316 50.9031 112.032 52.8453 112.008 54.8472C112.008 55.1532 111.977 55.4845 111.948 55.7676L111.923 56.0227H99.1765C99.6726 58.5755 101.786 60.2067 104.646 60.2067C106.641 60.2067 108.265 59.3664 109.1 57.904L109.244 57.6526L111.446 58.9284L111.29 59.1759C109.918 61.3644 107.485 62.6212 104.618 62.6212C102.323 62.6212 100.242 61.8176 98.7977 60.3971C97.352 58.9779 96.5569 56.9887 96.5569 54.7952ZM122.325 59.8696H117.441V55.9471H122.325C123.833 55.9471 124.697 56.6415 124.697 57.8512C124.697 59.5167 123.407 59.8671 122.325 59.8671V59.8696ZM121.741 53.5365H117.441V49.7256H121.741C123.612 49.7256 123.996 50.7285 123.996 51.5689C123.997 52.8726 123.239 53.5365 121.741 53.5365ZM125.108 54.5393C126.022 53.8297 126.5 52.7723 126.5 51.4559C126.5 48.9412 124.629 47.3163 121.741 47.3163H114.939V62.2751H122.325C125.287 62.2751 127.202 60.583 127.202 57.9617C127.202 56.4308 126.444 55.2083 125.108 54.5393ZM131.555 54.8249C131.571 57.8156 134.045 60.2275 137.082 60.2123H137.2C140.196 60.1717 142.591 57.7471 142.551 54.7957C142.551 54.7868 142.55 54.7766 142.55 54.7677C142.535 51.7757 140.061 49.3638 137.024 49.3791C133.988 49.3955 131.538 51.8329 131.555 54.8249ZM129.109 54.7957C129.109 50.4073 132.612 46.9697 137.082 46.9697C141.558 46.9697 145.054 50.4073 145.054 54.7957C145.054 59.1841 141.552 62.6217 137.082 62.6217C132.612 62.6217 129.109 59.1841 129.109 54.7957ZM154.905 60.1534C152.036 60.1534 149.866 58.1224 149.866 55.4286C149.866 53.2605 151.803 51.0212 155.049 51.0212C157.917 51.0212 159.845 52.8644 159.845 55.6013C159.846 58.2391 157.768 60.1534 154.905 60.1534ZM155.313 48.6119C153.883 48.6119 152.032 49.0511 150.583 50.2164C151.227 49.0726 152.32 48.2907 154.29 47.4554C154.657 47.2972 155.032 47.1434 155.397 46.9939L155.398 46.9936L155.479 46.9604L155.486 46.9576C158.013 45.9266 160.401 44.9524 160.827 42.3181L160.859 42.1264L158.797 40.9547L158.739 41.3711C158.487 43.1305 156.985 43.7563 154.908 44.6208L154.808 44.6626C154.239 44.9008 153.65 45.1472 153.026 45.4434C148.087 47.7867 147.253 50.2646 147.253 54.9437C147.253 59.3956 150.471 62.625 154.905 62.625C156.973 62.625 158.863 61.9167 160.23 60.6396C161.611 59.3232 162.381 57.5029 162.352 55.6089C162.35 51.5505 159.391 48.6119 155.313 48.6119ZM177.097 53.6197C176.549 50.4969 174.129 49.3798 172.172 49.3798C169.448 49.3798 167.357 51.0707 166.87 53.6197H177.097ZM164.255 54.7952C164.255 50.2608 167.586 46.9692 172.172 46.9692C174.279 46.9413 176.294 47.8235 177.687 49.3811C179.01 50.9031 179.725 52.8453 179.702 54.8472C179.702 55.1532 179.673 55.4845 179.643 55.7675L179.617 56.0227H166.867C167.37 58.5755 169.484 60.2067 172.345 60.2067C174.338 60.2067 175.962 59.3664 176.798 57.904L176.941 57.6526L179.143 58.9284L178.99 59.1759C177.616 61.3644 175.185 62.6212 172.315 62.6212C170.021 62.6212 167.939 61.8176 166.495 60.3971C165.052 58.9779 164.255 56.9887 164.255 54.7952ZM189.967 49.3803C193.004 49.3651 195.478 51.777 195.495 54.769C195.51 57.7598 193.062 60.1983 190.025 60.2136C186.988 60.2288 184.514 57.8169 184.498 54.8261V54.7957C184.457 51.8443 186.854 49.4197 189.851 49.3803H189.964H189.967ZM190.111 46.9697C187.856 46.9697 185.855 47.8964 184.498 49.5378V47.3162H181.993V68.0319H184.498V60.0587C185.856 61.7013 187.858 62.6267 190.111 62.6267C192.184 62.6331 194.171 61.8194 195.631 60.3697C198.706 57.2761 198.706 52.3266 195.631 49.2331C194.171 47.7821 192.184 46.9672 190.111 46.9697ZM212.979 53.6198C212.43 50.497 210.012 49.3799 208.055 49.3799C205.328 49.3799 203.238 51.0708 202.751 53.6198H212.979ZM200.138 54.7952C200.138 50.2609 203.469 46.9693 208.055 46.9693C210.166 46.9401 212.184 47.821 213.58 49.3825C214.902 50.9044 215.617 52.8467 215.594 54.8486C215.594 55.1557 215.564 55.4858 215.534 55.7689L215.509 56.0241H202.759C203.253 58.5768 205.369 60.2081 208.228 60.2081C210.223 60.2081 211.844 59.3677 212.683 57.9053L212.825 57.6527L215.027 58.9285L214.872 59.176C213.499 61.3645 211.067 62.6212 208.198 62.6212C205.906 62.6212 203.822 61.8177 202.378 60.3972C200.934 58.978 200.138 56.9888 200.138 54.7952ZM235.34 47.3163H232.23L226.979 53.2343V47.3163H224.475V53.2343L219.226 47.3163H216.116L222.627 54.5114L215.837 62.2751H218.937L224.475 55.829V62.2751H226.979V55.829L232.52 62.2751H235.617L228.827 54.5114L235.34 47.3163ZM240.274 53.591H248.114V47.3163H250.617V62.2751H248.114V56.0017H240.274V62.2751H237.77V47.3163H240.274V53.591ZM267.425 62.2751H269.93V47.3163H267.425V62.2751ZM257.074 59.8671H260.789C262.62 59.8671 263.453 58.6573 263.453 57.5313C263.453 56.4054 262.62 55.1943 260.789 55.1943H257.074V59.8671ZM257.074 52.785H260.789C263.734 52.785 265.956 54.8275 265.956 57.5313C265.956 60.2352 263.734 62.2751 260.789 62.2751H254.569V47.3163H257.074V52.785ZM276.222 45.5797H284.394V43.3443H276.222V45.5797ZM276.388 57.8512L284.666 47.3163H286.725V62.2751H284.226V51.7402L275.95 62.2751H273.883V47.3163H276.388V57.8512Z" fill="#3F4C54"/>
<path d="M43.8147 40.7741H13.1564L46.2758 7.92278C46.6816 7.51911 46.9072 6.97074 46.9007 6.40203V1.82071C46.9007 0.492867 45.2836 -0.19261 44.3339 0.772137L0.853487 43.9172C-0.377087 45.1156 0.486276 47.1936 2.2116 47.1936H40.1036C40.6758 47.1885 41.2247 46.9664 41.6345 46.5716L44.8932 43.3397C45.4859 42.7443 45.4756 41.7897 44.8725 41.2057C44.5891 40.9328 44.2102 40.778 43.8147 40.7741Z" fill="#FFCA8C"/>
<path d="M58.8545 1.02849L21.8064 37.796H30.955L55.6834 13.2657V55.6732H12.9361L18.4601 50.1906H9.31145L1.00425 58.4342C-0.356435 59.7836 0.616397 62.0965 2.53633 62.0965H59.3725C60.9239 62.0939 62.1802 60.8525 62.1776 59.3241C62.1776 59.3203 62.1776 59.3165 62.1776 59.3127V2.3982C62.1557 0.664149 60.0619 -0.19271 58.8545 1.02849Z" fill="#1EAAA2"/>
</g>
<defs>
<clipPath id="clip0_1567_8612">
<rect width="287" height="69" fill="white"/>
</clipPath>
</defs>
</svg>
