<svg width="169" height="81" viewBox="0 0 169 81" fill="none" xmlns="http://www.w3.org/2000/svg">
<path d="M0 0H81.1863V81H0V0Z" fill="#15008F"/>
<path d="M86 0H168V81H86V0Z" fill="#DD002E"/>
<path d="M24.7202 26.168C25.7022 28.0358 27.1813 29.5973 28.9949 30.6809C29.3828 30.924 29.6689 31.2995 29.8 31.7374C29.931 32.1752 29.8981 32.6457 29.7073 33.0613C29.2434 34.235 28.3322 35.9376 28.7795 36.6484C29.3814 37.0802 30.0903 37.3392 30.8292 37.3974C31.5682 37.4558 32.309 37.311 32.9714 36.979C33.2476 37.5799 33.5574 38.165 33.8992 38.7313C33.7453 38.9042 33.5388 39.0222 33.3115 39.0669C33.084 39.1117 32.8483 39.0809 32.64 38.9792C32.8514 39.1637 32.9823 39.4233 33.0048 39.7026C33.0272 39.9818 32.9394 40.2589 32.76 40.4744C32.5805 40.6902 32.3239 40.8274 32.0445 40.8568C31.7652 40.8862 31.4855 40.8057 31.2648 40.6323C31.1099 40.5131 30.9951 40.3495 30.9359 40.1633C30.8766 39.9772 30.8758 39.7775 30.9334 39.5909C30.6317 40.0595 30.1918 40.4234 29.6742 40.6323C29.3977 40.425 29.1931 40.1367 29.0892 39.8078C28.9851 39.4786 28.9869 39.1254 29.0943 38.7974C28.8648 39.2014 28.5451 39.5471 28.1602 39.8079C27.7751 40.0688 27.3351 40.2377 26.8741 40.3017C26.5916 39.883 26.4622 39.3801 26.5075 38.8774C26.5527 38.3747 26.7699 37.9029 27.1226 37.5411C26.7782 37.7978 26.3737 37.9628 25.9478 38.0206C25.5216 38.0785 25.0879 38.0272 24.6871 37.8717C24.6871 37.8717 24.4385 37.0782 25.8634 35.9046C25.3949 35.8879 24.9379 35.7535 24.5353 35.5136C24.1327 35.2737 23.7973 34.9362 23.5604 34.5325C23.8957 34.2536 24.2851 34.0467 24.7041 33.9244C25.1231 33.802 25.5629 33.7671 25.996 33.8217C25.4968 33.6656 25.0496 33.377 24.7023 32.9869C24.355 32.5966 24.1206 32.1195 24.0243 31.6066C24.4975 31.3937 25.0229 31.3241 25.5354 31.4062C26.0478 31.4886 26.5248 31.7192 26.9072 32.0695C26.6047 31.6403 26.2544 31.2466 25.8634 30.8958C25.2966 30.2565 24.8971 29.4872 24.7006 28.6565C24.504 27.8259 24.5164 26.9597 24.7368 26.135L24.7202 26.168ZM31.2317 45.1121C30.9763 44.8468 30.7788 44.5315 30.6518 44.1864C30.9003 46.4841 30.9831 47.9884 32.3086 49.4927C32.7977 48.4591 32.8864 47.2814 32.5572 46.1866C32.328 46.0595 32.0899 45.9489 31.8447 45.856C32.014 46.4974 32.0591 47.165 31.9773 47.8231C31.603 46.9725 31.3627 46.0691 31.2648 45.1452L31.2317 45.1121ZM29.1772 44.8972C28.9218 44.6319 28.7243 44.3167 28.5973 43.9715C28.4647 45.3435 28.1333 48.815 29.3097 49.8729C29.3097 49.8729 30.105 49.2943 30.3535 44.1864C30.105 44.4343 30.0222 44.765 29.7736 44.9799C29.8924 45.9132 29.7786 46.8615 29.4422 47.7405C29.4422 47.7405 28.8624 47.4429 29.1937 44.8972H29.1772ZM26.3936 47.5752C27.4374 46.4015 27.6528 42.8474 27.6528 42.8474L28.1168 42.5168L28.2493 42.3846V42.7152C28.2475 44.5671 27.9338 46.4055 27.3215 48.1537C26.8493 48.8431 26.2187 49.4099 25.4823 49.8068C24.306 47.8397 25.7309 45.1617 26.8575 43.1946L27.3215 42.9466C26.8575 44.5997 26.0622 46.2527 26.3936 47.5917V47.5752ZM23.6267 41.4423C23.6093 41.6079 23.6568 41.7737 23.7592 41.9052V42.0374C22.6493 43.1889 21.6404 44.4332 20.7437 45.7568C20.3192 46.321 19.7788 46.7883 19.1588 47.1275C18.5388 47.4667 17.8533 47.6701 17.1483 47.7239C17.2978 46.1696 17.9423 44.704 18.9874 43.5417C20.1269 42.2979 21.4055 41.1886 22.7982 40.2356C23.1657 40.4055 23.5784 40.4518 23.9746 40.3678H24.1072C23.9526 40.5214 23.8634 40.7287 23.8586 40.9464C22.0916 41.7554 20.5794 43.0299 19.4845 44.6327C19.2691 44.798 20.8597 44.3352 23.5438 41.4588L23.6267 41.4423ZM21.7875 39.6239L21.9201 39.4917L22.0526 39.3595C21.1248 39.6901 17.8608 41.0125 16.817 41.4423C16.0043 41.8928 15.2916 42.5029 14.7222 43.236C14.1526 43.969 13.7378 44.8098 13.5032 45.7072C14.211 45.7677 14.924 45.6879 15.6007 45.4721C16.2775 45.2566 16.9048 44.9094 17.4466 44.4509C19.2857 42.9466 21.3899 40.8637 22.1852 40.186L21.9367 39.938C20.4104 41.1777 18.7417 42.232 16.9661 43.0788C17.3543 42.3596 17.9259 41.7552 18.6229 41.3266C19.6227 40.5873 20.7441 40.0279 21.9367 39.6735L21.7875 39.6239ZM19.8822 38.0205L20.0147 37.7725C18.9709 38.0205 16.2868 38.3511 15.0441 38.6982C14.052 38.9624 13.1258 39.4294 12.3244 40.0696C11.5228 40.71 10.8635 41.5096 10.3883 42.4176C10.3883 42.4176 12.2274 42.9962 15.8394 41.3762C17.543 40.482 19.3228 39.7408 21.1579 39.1611C20.7427 39.1611 20.3356 39.0467 19.9816 38.8305C18.3436 39.6266 16.5645 40.0927 14.7459 40.2025C15.3094 39.797 15.9216 39.4638 16.5684 39.2107C17.6106 38.6586 18.7265 38.2579 19.8822 38.0205ZM19.8822 36.3674C20.2135 36.5084 20.5664 36.5922 20.926 36.6154C20.6596 36.7698 20.4191 36.965 20.2135 37.1939C17.9332 37.7652 15.6026 38.114 13.2547 38.2354C11.4777 38.4855 9.66826 38.3731 7.93617 37.9048C9.34848 37.1002 10.873 36.5096 12.4594 36.1525C13.7186 35.9046 17.198 35.9046 18.8218 35.6897C18.9662 35.8135 19.1215 35.9241 19.2857 36.0203C17.4303 36.0315 15.5892 36.3441 13.8346 36.946C15.8689 37.1774 17.929 36.9804 19.8822 36.3674ZM19.6668 34.2846C19.8959 34.1574 20.134 34.0468 20.3792 33.9539C17.8354 33.0765 15.1914 32.5212 12.5091 32.3009C10.6085 32.0706 8.68275 32.1544 6.80951 32.5488C8.41418 33.6007 10.1837 34.3773 12.0452 34.8466C14.2748 35.2002 16.5389 35.2835 18.7886 35.0946C18.917 34.8821 19.0729 34.6876 19.2525 34.516C17.099 34.5036 14.9576 34.192 12.8902 33.5903C15.1758 33.4129 17.4751 33.6367 19.6833 34.2515L19.6668 34.2846ZM19.6833 32.2017C19.9164 32.9059 20.4077 33.4964 21.0585 33.8548C18.507 32.8133 13.6358 32.1025 10.9682 31.0941C7.37284 29.5899 6.77637 27.788 6.77637 27.788C9.33987 27.8079 11.8843 28.2319 14.3151 29.0443C16.6181 29.7552 20.0147 31.0115 21.2739 31.5901C20.7774 31.5912 20.2945 31.7537 19.8987 32.0529C18.6395 31.4743 17.2146 31.1272 15.9554 30.6809C15.0267 30.3648 14.0536 30.1974 13.0724 30.185C13.9443 30.7065 14.8725 31.128 15.8394 31.4413C17.1318 31.7719 18.391 32.0199 19.6999 32.2844L19.6833 32.2017ZM19.5673 29.6064C19.6999 29.8543 19.8987 30.185 20.0313 30.3999C16.3119 29.6118 12.947 27.6464 10.438 24.796C9.60811 23.398 9.28088 21.7595 9.51019 20.1509C11.3409 20.9792 12.9904 22.1587 14.3648 23.6223C15.7566 25.096 17.2696 26.4507 18.888 27.6723L19.352 29.0443C18.0927 28.0029 16.469 26.8292 15.5412 26.0358C14.6178 25.3217 13.6038 24.7325 12.5257 24.2835C13.0842 24.9881 13.6992 25.646 14.3648 26.2507C15.2229 26.9584 16.1499 27.5786 17.1318 28.1021C17.8681 28.7203 18.7023 29.212 19.6005 29.5568" fill="white"/>
<path d="M30.7514 40.4999L31.0828 40.1692C31.5467 40.7478 31.8781 41.3429 32.2592 41.9215C32.4941 42.6035 32.6878 43.2991 32.8391 44.0043C32.9632 44.6957 33.2041 45.3608 33.5515 45.9715C33.2405 45.9773 32.932 45.9169 32.6462 45.7944C32.3606 45.6718 32.1043 45.4899 31.8947 45.2607C31.3423 44.5541 30.9827 43.717 30.8509 42.8307C30.6244 42.0691 30.579 41.2654 30.7183 40.4833L30.7514 40.4999ZM29.0614 40.6156L29.3928 40.9462L29.5254 41.0784H29.6579L29.9893 40.9462C30.1409 41.2322 30.2259 41.5486 30.2378 41.8719C30.3629 42.4493 30.3629 43.0467 30.2378 43.6241C30.0812 44.1361 29.8092 44.6054 29.4425 44.9962C29.106 44.6269 28.8369 44.2017 28.6472 43.7399C28.3954 43.1082 28.3954 42.4043 28.6472 41.7727C28.8129 41.2768 28.9455 40.9296 29.0614 40.599V40.6156ZM26.9738 40.6817C27.5133 40.6032 28.0284 40.4056 28.4815 40.1031C28.5642 40.2408 28.6186 40.3937 28.6413 40.5526C28.6641 40.7116 28.6548 40.8734 28.6141 41.0288C28.4565 41.5064 28.1835 41.938 27.8188 42.2852C27.4859 42.5721 27.0992 42.79 26.681 42.9262C26.2628 43.0624 25.8216 43.1143 25.3832 43.0786C25.2175 43.1613 25.0021 42.4505 27.0401 40.6982L26.9738 40.6817ZM26.2448 39.4419C26.293 39.8271 26.4545 40.1894 26.7087 40.4833C26.4226 40.9477 26.0115 41.3224 25.5224 41.5651C25.0331 41.8076 24.4855 41.9083 23.9417 41.8554C23.8125 41.5279 23.8145 41.1634 23.947 40.8372C24.0797 40.5111 24.3329 40.2483 24.6542 40.1031C25.2009 39.8882 25.6649 39.6403 26.311 39.4419" fill="white"/>
<path d="M26.5096 38.285C25.9309 38.4098 25.3321 38.4098 24.7533 38.285H24.5048V38.0205C23.5769 38.7313 22.6657 38.8139 22.2846 39.5248C22.4693 39.783 22.7213 39.9858 23.0134 40.1111C23.3056 40.2364 23.6265 40.2795 23.9415 40.2356C24.4383 40.1941 24.9215 40.0509 25.3606 39.8149C25.7995 39.5786 26.185 39.255 26.493 38.8635C26.4436 38.7751 26.4178 38.6754 26.4178 38.5742C26.4178 38.4731 26.4436 38.3734 26.493 38.285H26.5096ZM24.5214 37.2435C24.6378 36.8933 24.8367 36.5759 25.1013 36.3178C24.3388 36.1927 23.5607 36.1927 22.7982 36.3178C22.1981 36.3132 21.6124 36.5021 21.1288 36.8567C20.6451 37.2111 20.2891 37.7122 20.1141 38.285C20.6672 38.6128 21.3203 38.7303 21.9532 38.6156C22.4509 38.5771 22.9351 38.4351 23.3745 38.1988C23.8139 37.9624 24.1989 37.6371 24.5048 37.2435H24.5214ZM24.0409 35.5905C23.7831 35.298 23.5451 34.9888 23.3284 34.6648L23.1959 34.4829C22.3351 34.0652 21.3506 33.9769 20.4289 34.235C19.8598 34.4057 19.3715 34.7753 19.0537 35.2764C19.7035 35.7672 20.4673 36.0857 21.2739 36.2021C22.2312 36.3276 23.2033 36.136 24.0409 35.6566V35.5905ZM24.2894 33.7721C24.422 33.6399 24.6208 33.6399 24.8693 33.6399C24.3877 33.1641 24.0639 32.5526 23.9415 31.8876C23.3292 32.0308 22.6877 31.9846 22.1023 31.7554C21.7776 31.637 21.4293 31.5978 21.0863 31.641C20.7434 31.6841 20.4158 31.8083 20.1307 32.0033C20.2513 32.3938 20.4803 32.7424 20.7911 33.0086C21.1018 33.2747 21.4818 33.4478 21.8869 33.5076C22.2375 33.7319 22.636 33.8711 23.0504 33.9143C23.4646 33.9572 23.8833 33.903 24.2728 33.7556L24.2894 33.7721ZM23.7592 31.4082L24.0077 31.276C24.2944 31.1247 24.6115 31.0399 24.9356 31.028C24.1749 30.3762 23.3601 29.7899 22.5 29.2758C21.5171 28.7071 20.4567 28.2839 19.3519 28.0195C19.6636 28.967 20.1781 29.8357 20.8597 30.5652C21.204 30.973 21.6609 31.2704 22.1737 31.4203C22.6865 31.5702 23.2323 31.5661 23.7426 31.4082H23.7592ZM25.2504 30.6148C24.8671 30.0611 24.5969 29.4376 24.4551 28.7799C24.2066 27.9864 23.9912 27.0276 23.6598 26.2341C23.082 25.1803 22.1214 24.3877 20.9757 24.019C20.72 25.1276 20.8365 26.2892 21.307 27.3252C22.3307 28.7324 23.6846 29.8676 25.2504 30.6313V30.6148ZM34.2968 38.8966C34.5033 39.094 34.7449 39.251 35.0093 39.3595C35.1637 39.713 35.2323 40.0979 35.2093 40.4829C35.1863 40.8679 35.0723 41.242 34.8768 41.5746C34.3139 42.5728 33.8531 43.625 33.5016 44.7154C33.5016 44.7154 33.1702 44.7154 32.7891 42.7482C32.673 42.0181 32.3512 41.3359 31.8613 40.7811C32.0765 40.9173 32.3202 41.0021 32.5737 41.029H32.8222L32.9548 40.7811C33.1602 40.426 33.2472 40.0151 33.2033 39.6074V39.2768C33.403 39.3181 33.6102 39.3046 33.8028 39.2376C33.9953 39.1707 34.1661 39.0528 34.2968 38.8966Z" fill="white"/>
<path d="M20.5286 24.7958V25.8372C19.6007 24.6636 18.4409 23.1593 17.2148 21.7872C16.6436 21.0275 15.9492 20.3682 15.1603 19.8366C15.6291 21.2928 16.4683 22.6027 17.5959 23.6387C18.4972 24.5521 19.4606 25.4028 20.4789 26.1844L20.6114 26.515C20.744 26.8456 20.8599 27.2258 20.9428 27.4407C21.1931 27.8998 21.5053 28.3224 21.8706 28.697C21.5393 28.5648 21.1582 28.3664 20.8268 28.2342H20.5286C17.6224 26.5902 15.2175 24.1908 13.5697 21.2913C12.7522 19.2767 12.6412 17.0456 13.2549 14.9601C14.7595 16.3216 16.1198 17.8338 17.3143 19.473C18.5364 21.1523 19.6117 22.933 20.5286 24.7958ZM61.4531 34.2844C61.2239 34.1573 60.9858 34.0467 60.7406 33.9538C63.2844 33.0763 65.9284 32.5211 68.6107 32.3007C70.5113 32.0704 72.4371 32.1542 74.3103 32.5487C72.7057 33.6005 70.9361 34.3771 69.0746 34.8464C66.845 35.2 64.5809 35.2833 62.3312 35.0944C62.2028 34.882 62.0469 34.6874 61.8673 34.5158C64.0209 34.5034 66.1622 34.1918 68.2296 33.5901C65.944 33.4127 63.6448 33.6365 61.4365 34.2513L61.4531 34.2844ZM61.4365 32.2015C61.2034 32.9057 60.7121 33.4962 60.0613 33.8546C62.6129 32.8132 67.484 32.1023 70.1516 31.094C73.747 29.5897 74.3435 27.7878 74.3435 27.7878C71.78 27.8077 69.2355 28.2317 66.8047 29.0442C64.5017 29.755 61.1051 31.0113 59.8459 31.5899C60.3425 31.591 60.8253 31.7535 61.2211 32.0527C62.4803 31.4742 63.9052 31.127 65.1645 30.6807C66.0997 30.3957 67.0697 30.24 68.0474 30.2179C67.1755 30.7394 66.2474 31.1609 65.2804 31.4742C63.9881 31.7717 62.7289 32.0197 61.4199 32.2676L61.4365 32.2015ZM61.6685 29.5897C61.5359 29.8376 61.3371 30.1683 61.2045 30.3832C64.9517 29.6163 68.3474 27.6554 70.8806 24.7958C71.7105 23.3978 72.0378 21.7593 71.8085 20.1507C69.9778 20.9791 68.3282 22.1585 66.9539 23.6221C65.5722 25.1061 64.0582 26.4616 62.4306 27.6721L61.9667 29.0442C63.2259 28.0027 64.8496 26.8291 65.7775 26.0356C66.7009 25.3215 67.7148 24.7323 68.793 24.2834C68.2344 24.9879 67.6194 25.6456 66.9539 26.2505C66.0905 26.959 65.158 27.5792 64.1703 28.1019C63.3953 28.6633 62.5686 29.1503 61.7016 29.5566L61.6685 29.5897ZM60.6578 24.7958V25.8372C61.5856 24.6636 62.7454 23.1593 63.9715 21.7872C64.5428 21.0275 65.2372 20.3682 66.026 19.8366C65.5573 21.2928 64.7181 22.6027 63.5904 23.6387C62.6891 24.5521 61.7258 25.4028 60.7075 26.1844L60.5749 26.515C60.4424 26.8456 60.3264 27.2258 60.2436 27.4407C59.9932 27.8998 59.6811 28.3224 59.3157 28.697C59.6471 28.5648 60.0282 28.3664 60.3595 28.2342L60.6909 28.1019C63.5971 26.458 66.002 24.0585 67.6497 21.1591C68.4449 19.1556 68.5441 16.9438 67.9314 14.8774C66.4268 16.2389 65.0665 17.7511 63.8721 19.3903C62.6218 21.0815 61.5134 22.873 60.5584 24.7462L60.6578 24.7958ZM24.1074 42.3348C22.931 43.5085 20.3794 46.2691 20.628 49.1454C21.9712 48.7225 23.1363 47.8682 23.9417 46.7154C24.5224 45.5697 25.1812 44.4651 25.9134 43.4093H24.8695C24.196 44.7769 23.2082 45.9664 21.9866 46.8807C21.9866 46.8807 21.7381 45.5087 24.8695 42.5001C24.8695 42.3678 25.0021 42.2521 25.1181 42.1695C24.7802 42.2723 24.4272 42.3171 24.0742 42.3017L24.1074 42.3348ZM56.4162 26.1348C55.4342 28.0026 53.9551 29.5641 52.1415 30.6476C51.7767 30.9187 51.522 31.3122 51.4246 31.7555C51.3273 32.199 51.3936 32.6626 51.6113 33.0611C52.0752 34.2348 52.9865 35.9374 52.5392 36.6483C52.0918 37.3591 49.855 37.6897 48.1485 36.9789C47.8723 37.5798 47.5624 38.1648 47.2206 38.7311C47.3745 38.904 47.581 39.0221 47.8083 39.0667C48.0358 39.1115 48.2716 39.0807 48.4798 38.9791C48.377 39.2639 48.3355 39.5674 48.3584 39.8694C48.3813 40.1713 48.4677 40.465 48.6124 40.7313C48.9562 40.6642 49.2818 40.5249 49.5674 40.3225C49.8532 40.12 50.0923 39.8593 50.2692 39.5576C50.571 40.0263 51.0109 40.3901 51.5285 40.5991C51.805 40.3918 52.0096 40.1035 52.1135 39.7745C52.2176 39.4454 52.2157 39.0921 52.1084 38.7642C52.3378 39.168 52.6576 39.5138 53.0425 39.7747C53.4276 40.0355 53.8676 40.2045 54.3286 40.2685C54.6111 39.8497 54.7405 39.3469 54.6952 38.8442C54.65 38.3415 54.4328 37.8697 54.08 37.5078C54.4245 37.7646 54.8289 37.9295 55.2549 37.9874C55.6811 38.0453 56.1148 37.994 56.5156 37.8385C56.5156 37.8385 56.7642 37.045 55.3393 35.8713C55.8078 35.8546 56.2648 35.7202 56.6674 35.4804C57.07 35.2405 57.4054 34.903 57.6423 34.4993C57.3069 34.2204 56.9176 34.0134 56.4986 33.8911C56.0795 33.7688 55.6398 33.7339 55.2067 33.7885C55.7013 33.6473 56.1417 33.3602 56.4699 32.9649C56.7981 32.5697 56.9988 32.0845 57.0458 31.5734C56.5726 31.3604 56.0472 31.2909 55.5348 31.373C55.0223 31.4553 54.5453 31.6859 54.1629 32.0362C54.4654 31.6071 54.8157 31.2133 55.2067 30.8625C55.8269 30.2529 56.2825 29.497 56.5317 28.6646C56.7807 27.8323 56.8152 26.9507 56.6316 26.1017L56.4162 26.1348ZM50.0042 45.0789C50.2416 44.8002 50.4371 44.4882 50.5841 44.1532C50.3355 46.4509 50.2527 47.9552 48.9272 49.4595C48.4381 48.4258 48.3494 47.2482 48.6787 46.1534C48.9078 46.0262 49.1459 45.9156 49.3911 45.8227C49.2218 46.4641 49.1767 47.1318 49.2586 47.7899C49.6329 46.9391 49.8731 46.0358 49.971 45.1119L50.0042 45.0789ZM52.0587 44.864C52.314 44.5987 52.5115 44.2834 52.6386 43.9383C52.7711 45.3103 53.1025 48.7817 51.9261 49.8397C51.9261 49.8397 51.1308 49.2611 50.8823 44.1532C51.1308 44.4011 51.2137 44.7317 51.4622 44.9466C51.3434 45.8799 51.4572 46.8283 51.7936 47.7072C51.7936 47.7072 52.3735 47.4097 52.0421 44.864H52.0587ZM54.8091 47.5419C53.7652 46.3683 53.5498 42.8142 53.5498 42.8142C53.4214 42.6713 53.263 42.5584 53.0859 42.4836L53.0196 42.3844V42.715C53.0215 44.5669 53.3351 46.4053 53.9475 48.1536C54.3874 48.8703 55.0263 49.4446 55.7866 49.8066C56.963 47.8395 55.5381 45.1615 54.4114 43.1944C54.2343 43.1631 54.0717 43.0762 53.9475 42.9464C54.4114 44.5995 55.2398 46.2525 54.8753 47.5915L54.8091 47.5419ZM57.6754 41.4421C57.6928 41.6078 57.6453 41.7736 57.5429 41.905V42.0372C58.6528 43.1888 59.6617 44.433 60.5584 45.7566C60.9829 46.3208 61.5233 46.7881 62.1433 47.1273C62.7633 47.4665 63.4488 47.6699 64.1538 47.7238C64.0043 46.1694 63.3598 44.7038 62.3146 43.5415C61.1752 42.2978 59.8966 41.1884 58.5039 40.2354C58.1364 40.4053 57.7236 40.4516 57.3275 40.3676H57.1949C57.3495 40.5212 57.4387 40.7285 57.4435 40.9462C59.1679 41.7726 60.6386 43.0456 61.7016 44.6325C61.917 44.7978 60.2767 44.335 57.6423 41.4587L57.6754 41.4421ZM59.2992 39.6238V39.3758L59.1666 39.2436C60.0944 39.5742 63.3585 40.8966 64.4023 41.3264C65.215 41.7769 65.9276 42.387 66.4971 43.1202C67.0667 43.8531 67.4814 44.6939 67.716 45.5913C67.0082 45.6518 66.2952 45.572 65.6184 45.3563C64.9418 45.1407 64.3145 44.7935 63.7727 44.335C62.0164 42.8307 59.8293 40.7478 59.0341 40.0701L59.2826 39.8221C60.8089 41.0618 62.4775 42.1161 64.2532 42.9629C63.865 42.2437 63.2934 41.6392 62.5963 41.2107C61.5747 40.5077 60.4593 39.9512 59.2826 39.5576L59.2992 39.6238ZM61.304 38.0203C61.304 37.8881 61.1714 37.8881 61.1714 37.7723C62.2152 38.0203 64.8993 38.3509 66.142 38.6981C67.1341 38.9622 68.0603 39.4292 68.8617 40.0694C69.6633 40.7098 70.3226 41.5094 70.7978 42.4174C70.7978 42.4174 68.9587 42.996 65.3467 41.376C63.6431 40.4819 61.8633 39.7406 60.0282 39.1609C60.4434 39.1609 60.8505 39.0465 61.2045 38.8303C62.8425 39.6264 64.6217 40.0926 66.4402 40.2023C65.8767 39.7968 65.2645 39.4636 64.6177 39.2105C63.5619 38.6895 62.4502 38.2902 61.304 38.0203ZM61.304 36.3672C60.9726 36.5082 60.6197 36.5921 60.2601 36.6152C60.5266 36.7696 60.767 36.9648 60.9726 37.1938C63.2529 37.7651 65.5835 38.1139 67.9314 38.2352C69.7084 38.4853 71.5178 38.3729 73.2499 37.9046C71.8376 37.1 70.3132 36.5094 68.7267 36.1523C67.4675 35.9044 63.9881 35.9044 62.3643 35.6895C62.2199 35.8133 62.0646 35.9239 61.9004 36.0201C63.7558 36.0313 65.5969 36.3439 67.3515 36.9458C65.3172 37.1734 63.2577 36.9764 61.304 36.3672Z" fill="white"/>
<path d="M50.4351 40.5001L50.1037 40.1695C49.6802 40.7053 49.3291 41.2944 49.0599 41.9218C48.8249 42.6038 48.6312 43.2994 48.48 44.0046C48.2987 44.6792 48.0603 45.3373 47.7675 45.9718C48.0928 45.9746 48.4153 45.9133 48.7167 45.7913C49.0181 45.6693 49.2925 45.4891 49.5238 45.261C50.0762 44.5544 50.4357 43.7173 50.5676 42.831C50.723 42.0499 50.6773 41.2424 50.4351 40.4836V40.5001ZM52.0919 40.6159L51.7605 40.9465L51.628 41.0787H51.4955L51.0315 40.9465C50.8799 41.2325 50.7949 41.5488 50.783 41.8722C50.6579 42.4496 50.6579 43.047 50.783 43.6244C50.9396 44.1364 51.2116 44.6057 51.5783 44.9965C51.9148 44.6272 52.1839 44.202 52.3736 43.7401C52.6254 43.1085 52.6254 42.4046 52.3736 41.773C52.3757 41.3629 52.2732 40.9589 52.0754 40.5993L52.0919 40.6159ZM54.163 40.682C53.6235 40.6035 53.1084 40.4059 52.6553 40.1034C52.5726 40.2411 52.5182 40.394 52.4954 40.5529C52.4727 40.7119 52.4819 40.8737 52.5227 41.0291C52.6803 41.5067 52.9535 41.9383 53.318 42.2854C53.6509 42.5724 54.0376 42.7903 54.4558 42.9265C54.874 43.0627 55.3152 43.1146 55.7536 43.0789C55.8861 43.1616 56.1347 42.4508 54.0967 40.6985L54.163 40.682ZM54.892 39.4422C54.8438 39.8273 54.6823 40.1897 54.4281 40.4836C54.7142 40.948 55.1253 41.3227 55.6144 41.5654C56.1037 41.8079 56.6513 41.9086 57.1951 41.8557C57.3241 41.5282 57.3223 41.1637 57.1898 40.8375C57.057 40.5114 56.8039 40.2485 56.4826 40.1034C55.9358 39.8885 55.4719 39.6406 54.8257 39.4422H54.892ZM54.6766 38.285C55.2554 38.4098 55.8542 38.4098 56.4329 38.285H56.6814V38.0206C57.6093 38.7314 58.5205 38.814 58.9845 39.5248C58.8186 39.7657 58.5916 39.9584 58.3267 40.0832C58.0619 40.2082 57.7687 40.2608 57.4767 40.2357C56.9797 40.1942 56.4967 40.051 56.0576 39.815C55.6187 39.5787 55.2332 39.2551 54.9252 38.8636C54.7691 38.711 54.6798 38.5031 54.6766 38.285ZM56.6483 37.2436C56.5318 36.8933 56.3328 36.5759 56.0684 36.3179C56.8309 36.1928 57.609 36.1928 58.3714 36.3179C58.9716 36.3133 59.5573 36.5022 60.0409 36.8568C60.5247 37.2112 60.8806 37.7123 61.0555 38.285C60.5025 38.6128 59.8494 38.7304 59.2164 38.6157C58.7147 38.5948 58.2243 38.4604 57.7822 38.2227C57.3402 37.985 56.9581 37.6503 56.6649 37.2436H56.6483ZM57.1288 35.5906C57.4118 35.3198 57.652 35.0075 57.8412 34.6648L57.9738 34.4169C58.8345 33.9991 59.819 33.9109 60.7408 34.1689C61.3099 34.3397 61.7982 34.7093 62.1159 35.2103C61.4661 35.7011 60.7023 36.0197 59.8958 36.1361C58.946 36.1414 58.0051 35.9559 57.1288 35.5906ZM56.7477 33.7061C56.6152 33.5738 56.4163 33.5738 56.1678 33.5738C56.6438 33.0757 57.0005 32.4767 57.2116 31.8216C57.8238 31.9647 58.4654 31.9186 59.0507 31.6893C59.3755 31.571 59.7238 31.5318 60.0667 31.5749C60.4097 31.6181 60.7373 31.7422 61.0224 31.9373C60.9018 32.3277 60.6728 32.6764 60.362 32.9425C60.0513 33.2087 59.6712 33.3817 59.2661 33.4416C58.8925 33.6702 58.4717 33.8112 58.0354 33.8542C57.5993 33.8972 57.1589 33.8408 56.7477 33.6895V33.7061ZM57.3939 31.4083H57.1454C56.8587 31.2571 56.5416 31.1723 56.2175 31.1603C56.9782 30.5085 57.793 29.9222 58.6531 29.4081C59.6094 28.787 60.6793 28.3601 61.8011 28.1518C61.4406 29.0765 60.9313 29.9364 60.2934 30.6975C59.9519 31.1088 59.495 31.409 58.9812 31.5591C58.4675 31.7093 57.9204 31.7029 57.4105 31.5406L57.3939 31.4083ZM55.9027 30.7471C56.2859 30.1935 56.5562 29.5699 56.698 28.9122C56.9465 28.1187 57.1619 27.1599 57.4933 26.3665C58.071 25.3126 59.0317 24.52 60.1774 24.1514C60.4331 25.2599 60.3166 26.4215 59.846 27.4575C58.8327 28.8743 57.4761 30.0118 55.9027 30.7636V30.7471ZM46.8562 39.0289C46.6498 39.2263 46.4082 39.3833 46.1438 39.4918C45.9894 39.8454 45.9208 40.2302 45.9438 40.6152C45.9668 41.0002 46.0808 41.3743 46.2763 41.7069C46.8392 42.7052 47.2999 43.7573 47.6515 44.8477C47.6515 44.8477 47.9829 44.8477 48.364 42.8806C48.4801 42.1504 48.8019 41.4682 49.2918 40.9134C49.0766 41.0496 48.8329 41.1344 48.5794 41.1614H48.3308L48.1983 40.9134C47.9928 40.5583 47.9059 40.1474 47.9498 39.7397V39.4091C47.7501 39.4437 47.545 39.4268 47.3536 39.3604C47.1623 39.2937 46.9911 39.1797 46.8562 39.0289Z" fill="white"/>
<path d="M56.9299 42.3348C58.1063 43.5085 60.6578 46.2691 60.4093 49.1454C59.0661 48.7225 57.901 47.8682 57.0956 46.7154C56.5148 45.5697 55.8561 44.4651 55.1239 43.4093H56.1677C56.8412 44.7769 57.8291 45.9664 59.0507 46.8807C59.0507 46.8807 59.2992 45.5087 56.1677 42.5001C56.1677 42.3678 56.0352 42.2521 55.9192 42.1695C56.257 42.2723 56.6101 42.3171 56.963 42.3017L56.9299 42.3348ZM32.458 21.1921C33.2051 20.9414 34.014 20.9414 34.7611 21.1921C34.0077 21.4016 33.2114 21.4016 32.458 21.1921ZM40.9246 19.8366C40.9246 20.0846 40.792 20.1672 40.5932 20.1672C40.5491 20.1696 40.5049 20.1628 40.4636 20.1469C40.4224 20.1312 40.3848 20.1069 40.3536 20.0757C40.3223 20.0446 40.298 20.0071 40.2822 19.9659C40.2663 19.9247 40.2595 19.8806 40.2618 19.8366C40.2618 19.5887 40.3944 19.506 40.5932 19.506C40.6373 19.5037 40.6815 19.5105 40.7228 19.5263C40.764 19.542 40.8016 19.5663 40.8328 19.5976C40.8641 19.6287 40.8885 19.6662 40.9042 19.7074C40.9201 19.7485 40.9269 19.7927 40.9246 19.8366ZM38.6215 18.5803C38.1633 17.665 37.813 16.6998 37.5777 15.704C37.7103 15.456 37.8262 15.2411 38.1576 15.2411C38.489 15.2411 38.6215 15.1089 38.7375 15.2411C39.1461 16.1958 39.387 17.2135 39.45 18.2497C39.1589 18.334 38.8759 18.4446 38.605 18.5803H38.6215ZM39.7316 18.3323H40.1956C40.0758 17.4688 39.8818 16.617 39.6157 15.7866C39.5855 15.589 39.506 15.4021 39.3844 15.2431C39.2628 15.0843 39.103 14.9585 38.9198 14.8774C39.0523 15.3403 39.2511 15.8032 39.3837 16.2495C39.549 16.9529 39.6763 17.6648 39.7648 18.3819L39.7316 18.3323ZM38.8369 20.8119C38.2319 21.1363 37.5519 21.2959 36.8653 21.2748C37.1304 20.8174 37.4854 20.4182 37.9091 20.1011C38.491 19.7194 39.1893 19.5554 39.8808 19.6383C39.6226 20.1006 39.2664 20.5012 38.8369 20.8119ZM37.7931 20.9442C38.314 20.74 38.7836 20.4241 39.1683 20.0185C38.6051 20.1332 38.1106 20.4661 37.7931 20.9442Z" fill="white"/>
<path d="M32.259 21.4073C33.0028 21.6453 33.7812 21.7571 34.562 21.7379C35.929 21.749 37.2922 21.5936 38.6214 21.275C38.5685 21.4418 38.476 21.5934 38.3521 21.7172C38.228 21.8409 38.0761 21.9331 37.9089 21.9859C38.1271 21.9907 38.3349 22.0796 38.4888 22.2338C38.4166 22.3742 38.316 22.498 38.1934 22.5977C38.0708 22.6972 37.9288 22.7704 37.7764 22.8124C38.2676 23.2982 38.9242 23.5816 39.6155 23.6059C39.4309 23.769 39.2089 23.8844 38.9691 23.9421C38.7294 23.9996 38.4792 23.9978 38.2403 23.9365C37.6436 23.816 37.1093 23.4878 36.7325 23.0108C36.8374 23.2323 36.883 23.4773 36.8651 23.7216C36.7083 23.7009 36.5574 23.6492 36.4209 23.5698C36.2844 23.4903 36.1651 23.3845 36.0698 23.2587C36.2191 23.4978 36.3046 23.7708 36.3183 24.0522C36.0603 24.0474 35.8108 23.9606 35.6059 23.8042C35.7083 23.9791 35.7545 24.181 35.7384 24.3828C35.1125 24.1578 34.5213 23.8462 33.9821 23.4571V24.0357C34.1147 24.1679 32.3253 23.9034 32.3253 21.3577L32.259 21.4073ZM35.3408 22.3991H33.3028C33.3235 22.5555 33.3754 22.7061 33.4549 22.8423C33.5346 22.9785 33.6407 23.0975 33.7667 23.1926C33.7667 22.3991 35.2745 22.3991 35.2745 22.3991H35.3408ZM31.9608 21.6057C31.9704 22.1241 32.083 22.6354 32.2921 23.1099C31.9391 22.8889 31.6617 22.5661 31.4969 22.1842C31.3643 21.6057 31.3643 21.3412 31.9608 21.6057ZM32.3418 23.2587L33.2697 23.9695C32.928 24.0985 32.5796 24.2089 32.2259 24.3001C31.8837 24.0165 31.4529 23.8613 31.0081 23.8613C30.5632 23.8613 30.1324 24.0165 29.7903 24.3001C29.6205 24.2109 29.4717 24.0864 29.3542 23.9348C29.2367 23.7834 29.1531 23.6085 29.1091 23.422C29.0651 23.2356 29.0618 23.0418 29.0992 22.8541C29.1368 22.6661 29.2142 22.4884 29.3264 22.333C29.531 22.1087 29.8022 21.9558 30.1004 21.8963C30.3985 21.8368 30.7078 21.874 30.9832 22.0024C31.1111 22.2965 31.2997 22.5603 31.5366 22.7769C31.7735 22.9932 32.0536 23.1574 32.3584 23.2587H32.3418ZM30.7016 23.5067C30.7508 23.5067 30.7988 23.4921 30.8396 23.4649C30.8805 23.4376 30.9123 23.3989 30.9312 23.3536C30.9499 23.3083 30.9549 23.2584 30.9453 23.2103C30.9357 23.1622 30.912 23.118 30.8773 23.0833C30.8426 23.0488 30.7983 23.0251 30.7501 23.0156C30.7019 23.006 30.6519 23.0109 30.6065 23.0296C30.5611 23.0485 30.5223 23.0802 30.4949 23.121C30.4676 23.1617 30.453 23.2096 30.453 23.2587C30.453 23.391 30.453 23.5067 30.7016 23.5067ZM33.336 24.1679C33.5814 24.4927 33.8471 24.8019 34.1313 25.0936C33.6387 25.0763 33.1527 25.2116 32.7403 25.4809C32.3279 25.7504 32.0093 26.1405 31.8282 26.5979C31.6622 26.3584 31.5625 26.0795 31.5391 25.7892C31.5159 25.4989 31.5699 25.2077 31.6957 24.9448C31.9011 24.7047 32.1546 24.5099 32.4399 24.3734C32.7254 24.2367 33.0362 24.1611 33.3525 24.1514L33.336 24.1679ZM35.3573 24.5316L36.1526 24.7795V24.3167C36.4012 24.3167 36.484 24.4489 36.7325 24.4489C36.9342 25.1693 37.2654 25.8471 37.7101 26.4491C37.6831 26.702 37.5981 26.9452 37.4616 27.1599C37.1812 26.6837 36.8714 26.2255 36.5337 25.7879C36.2348 25.305 35.7956 24.9245 35.2745 24.6969L35.3573 24.5316ZM33.7667 24.4489C34.3604 24.5751 34.9234 24.8166 35.4236 25.1597C35.7053 25.3351 35.9379 25.5785 36.1001 25.8674C36.2623 26.1565 36.3488 26.4815 36.3515 26.8128C36.0976 26.4534 35.7838 26.1403 35.4236 25.8871C34.7476 25.5791 34.173 25.0862 33.7667 24.4655V24.4489ZM33.7667 18.564C34.0153 18.564 34.2307 18.6963 34.2307 18.8946C34.0898 19.3355 33.895 19.7575 33.6508 20.151C33.383 19.7706 33.1867 19.3449 33.0709 18.8946C33.1469 18.7788 33.2539 18.6865 33.3799 18.6282C33.5058 18.5696 33.6455 18.5475 33.7833 18.564H33.7667ZM33.4022 20.7791C33.3048 20.2136 33.1494 19.6597 32.9383 19.1261C32.7231 18.9899 32.4794 18.9051 32.2259 18.8781C32.1405 18.8855 32.0605 18.9227 31.9999 18.9832C31.9392 19.0437 31.902 19.1236 31.8945 19.2087V19.341C32.173 19.8607 32.4828 20.3631 32.8223 20.8453C33.0062 20.772 33.2051 20.7436 33.4022 20.7626V20.7791ZM33.9821 20.7626C34.0796 20.1971 34.235 19.6431 34.4461 19.1095C34.6613 18.9733 34.905 18.8885 35.1585 18.8616C35.2438 18.869 35.3239 18.9062 35.3845 18.9667C35.4452 19.0272 35.4824 19.1071 35.4899 19.1922V19.3244C35.2402 19.8602 34.9289 20.365 34.562 20.8287C34.379 20.7522 34.1793 20.7236 33.9821 20.7461V20.7626ZM34.562 17.1589H33.8496V16.5308H33.5182V17.1093H32.8058V17.5722H33.5182V18.1838H33.8496V17.5226H34.562V17.1589ZM27.4872 21.2916V20.1675C27.2047 20.2606 26.9458 20.4136 26.7284 20.6163C26.5109 20.819 26.3402 21.0663 26.228 21.3412C26.228 21.3412 27.1559 20.7626 27.4872 21.3412V21.2916ZM28.2825 22.8455C28.4151 22.3826 28.5311 21.804 28.6139 21.3412C28.731 20.9975 28.7695 20.632 28.7266 20.2716C28.6835 19.9111 28.5601 19.565 28.3654 19.2583C28.1198 18.7431 28.006 18.1751 28.034 17.6053L27.2387 17.9359C27.2747 18.5134 27.4327 19.0768 27.7026 19.5889C27.8691 20.0262 27.9149 20.5001 27.8352 20.961C27.7712 21.2899 27.7795 21.6286 27.8595 21.9541C27.9397 22.2794 28.0897 22.5836 28.2991 22.8455H28.2825ZM28.2991 17.8863V17.5557C28.7315 17.0703 29.3153 16.7442 29.956 16.6299C30.2873 16.4977 30.5359 16.6299 30.8838 16.8779C30.6656 16.8827 30.4578 16.9716 30.3039 17.1259C29.9495 17.4421 29.5537 17.7091 29.1275 17.9193C28.8628 17.8997 28.597 17.8997 28.3322 17.9193" fill="white"/>
<path d="M30.834 16.7621C31.117 17.0048 31.3192 17.3278 31.4139 17.6878C31.3104 18.178 31.1136 18.6438 30.834 19.0599C30.5522 19.3884 30.389 19.8016 30.3701 20.2336C30.3701 20.4815 30.6187 20.6964 30.7015 20.9444C30.454 20.8748 30.2228 20.7573 30.0209 20.5984C29.8191 20.4395 29.6506 20.2425 29.5251 20.0187C29.4622 19.7988 29.4598 19.5662 29.518 19.3452C29.5763 19.124 29.6933 18.9229 29.8565 18.7623C30.0618 18.3087 30.3295 17.8859 30.6518 17.506C30.7832 17.2752 30.841 17.0099 30.8175 16.7456L30.834 16.7621ZM36.981 24.0521C37.1777 24.755 37.4913 25.42 37.9088 26.0193C38.1978 26.5236 38.3572 27.0916 38.3728 27.6723C38.6137 27.1217 38.6995 26.5159 38.6213 25.9201C38.3274 25.1179 37.7336 24.4603 36.9644 24.0852L36.981 24.0521ZM38.1408 24.3001C38.5003 24.3232 38.8533 24.407 39.1846 24.5481C39.7185 24.9578 40.0885 25.5439 40.2285 26.2011C39.86 26.0978 39.5084 25.9419 39.1846 25.7383C38.7143 25.3673 38.3534 24.876 38.1408 24.3166V24.3001ZM34.4129 25.7383C34.1643 25.7383 33.9489 25.8705 33.7004 25.8705C34.0257 25.9905 34.3368 26.1457 34.6283 26.3334C34.7999 26.4793 34.9399 26.6587 35.0395 26.8605C35.1392 27.0624 35.1967 27.2824 35.2082 27.507C35.3692 28.1456 35.6085 28.7619 35.9206 29.3419C35.9294 28.7162 36.0414 28.0964 36.252 27.507C35.9856 27.3528 35.7451 27.1574 35.5395 26.9285C35.3149 26.4167 34.9156 26.0009 34.4129 25.7548V25.7383ZM37.7266 27.4079C37.9885 27.9426 38.1191 28.5319 38.1077 29.127C37.8384 29.7544 37.4873 30.3435 37.0639 30.8793C36.9197 30.1936 36.8365 29.4967 36.8153 28.7964C36.8037 28.4924 36.8766 28.1911 37.0256 27.9256C37.1747 27.6603 37.3944 27.4411 37.6603 27.2921L37.7266 27.4079ZM38.9195 27.2921C39.2771 27.9129 39.5606 28.5729 39.7645 29.2593C39.8219 29.4737 39.8293 29.6985 39.7862 29.9162C39.7432 30.1339 39.6507 30.3391 39.516 30.5156C39.1846 30.9785 38.8036 31.4413 38.4722 31.8876C38.2513 31.6167 38.0929 31.3006 38.0083 30.9619C37.9796 30.5022 38.0131 30.0407 38.1077 29.5899C38.47 28.8559 38.7532 28.0858 38.9527 27.2921H38.9195ZM39.4166 31.805C38.9691 32.2607 38.5746 32.7654 38.2402 33.3093C38.117 33.4957 38.0512 33.7141 38.0512 33.9374C38.0512 34.1608 38.117 34.3791 38.2402 34.5656C38.6051 35.0761 39.0736 35.5042 39.6154 35.8219C39.2887 35.3341 39.1261 34.755 39.1515 34.1689C39.2766 33.7667 39.4317 33.3742 39.6154 32.9952C39.6358 32.5819 39.5621 32.1693 39.4 31.7885L39.4166 31.805ZM37.7432 31.2099C37.9687 31.5096 38.0856 31.8767 38.0745 32.2513C38.0522 32.7175 37.9687 33.1789 37.826 33.6234C37.5762 34.3054 37.2657 34.9637 36.8982 35.5905C36.6582 35.2713 36.4631 34.921 36.3183 34.5491C36.6496 34.0862 36.8982 33.6234 37.2461 33.177C37.4607 32.5347 37.6269 31.8771 37.7432 31.2099ZM37.4946 30.8793C37.2572 32.1118 36.7908 33.2893 36.1194 34.3507C35.9311 34.6988 35.6688 35.0018 35.3513 35.2387C35.0337 35.4756 34.6682 35.6408 34.2803 35.7228C33.9382 35.7066 33.6096 35.585 33.3396 35.3748C33.0697 35.1647 32.8715 34.8762 32.7726 34.5491C32.6554 34.2472 32.6167 33.9206 32.6602 33.5997C32.7036 33.2789 32.8278 32.9742 33.0211 32.7142C33.0938 33.0061 33.2401 33.2747 33.4459 33.4946C33.6519 33.7144 33.9105 33.8783 34.1975 33.9705C35.0756 33.8879 36.252 32.8464 37.5112 30.8793" fill="white"/>
<path d="M36.4509 30.0857C36.5661 30.5189 36.5661 30.9748 36.4509 31.4081C36.4065 31.6478 36.3131 31.8759 36.1762 32.0779C36.0394 32.2798 35.8621 32.4513 35.6556 32.5818C35.3866 32.7378 35.0696 32.7902 34.7644 32.7294C34.4594 32.6684 34.187 32.4985 33.9988 32.2512L33.8662 32.1189C34.4463 32.0604 34.9975 31.8379 35.4553 31.4779C35.9131 31.1177 36.2586 30.6348 36.4509 30.0857ZM39.3007 38.0203C39.7433 38.5735 40.0955 39.1927 40.3446 39.8552C40.3219 40.7132 40.0763 41.5505 39.6321 42.2852C39.1026 41.8457 38.6971 41.2759 38.4557 40.6322C38.3941 40.1616 38.4378 39.6832 38.584 39.2315C38.7301 38.7799 38.975 38.3662 39.3007 38.0203ZM38.1741 38.8138C38.3757 38.2538 38.6915 37.7415 39.1019 37.3095C39.2239 36.8149 39.1738 36.2939 38.9601 35.8314C38.7463 35.3688 38.3817 34.9924 37.9255 34.7638C37.5022 35.3111 37.1872 35.9338 36.9977 36.5987C36.8652 37.5575 37.793 38.0203 38.1741 38.8138ZM36.0864 34.8795C35.8326 35.2389 35.5188 35.552 35.1586 35.8052V36.9789C35.3398 37.6535 35.5783 38.3116 35.871 38.9461C36.2321 38.5012 36.5023 37.9903 36.6663 37.4418C36.7619 36.9908 36.8063 36.5306 36.7989 36.0697C36.5928 35.6604 36.3545 35.268 36.0864 34.8961V34.8795ZM34.1147 38.2022C33.6208 37.5005 33.2873 36.6992 33.1372 35.8548C33.3874 35.9948 33.6651 36.0792 33.9511 36.102C34.2372 36.1248 34.5247 36.0856 34.7941 35.9871C34.9197 36.4807 34.9197 36.9978 34.7941 37.4914C34.5767 37.773 34.3384 38.0384 34.0816 38.2848L34.1147 38.2022ZM34.2142 38.5328L34.7941 38.0203C34.9266 37.8881 35.374 39.0618 35.5065 39.3924C35.258 39.3924 35.0426 39.3924 34.9266 39.2601C34.7114 39.017 34.4728 38.7956 34.2142 38.5989V38.5328ZM36.8651 38.0203C36.5129 38.5986 36.1197 39.151 35.6888 39.6734C35.8139 40.0756 35.969 40.468 36.1527 40.8471C36.4327 41.3521 36.7843 41.8143 37.1965 42.2191C37.4795 41.7868 37.7181 41.3271 37.909 40.8471C38.1018 40.488 38.1716 40.0758 38.1078 39.6734C37.8593 39.0948 37.18 38.4997 36.9314 37.9212L36.8651 38.0203ZM38.1078 41.1612C38.4922 41.6667 38.8045 42.2231 39.0356 42.8142C39.1168 43.166 39.0698 43.5353 38.9031 43.8557C38.7705 44.1036 38.4392 44.6491 38.1906 45.112C37.7232 44.7587 37.362 44.2841 37.1468 43.7399C37.0757 43.514 37.0509 43.2763 37.0736 43.0405C37.0964 42.8048 37.1664 42.5762 37.2794 42.3679C37.5279 42.0373 37.9918 41.7067 38.1244 41.1942L38.1078 41.1612ZM35.7716 41.1116C36.0978 41.5308 36.3654 41.9923 36.5669 42.4836C36.6892 42.6916 36.7538 42.9284 36.7538 43.1696C36.7538 43.4108 36.6892 43.6477 36.5669 43.8557C36.3184 44.3185 36.103 44.6491 35.987 44.8971C35.6505 44.5278 35.3814 44.1026 35.1917 43.6408C35.0674 43.1918 35.0674 42.7177 35.1917 42.2687C35.4668 41.9232 35.6644 41.523 35.7716 41.095V41.1116ZM39.0853 44.4012C38.6115 45.0285 38.2781 45.7501 38.1078 46.5171C38.2889 47.2294 38.5271 47.9258 38.8202 48.5999C39.1558 48.2611 39.4255 47.8632 39.6155 47.4263C39.9028 46.9806 40.0203 46.4468 39.9469 45.922C39.9612 45.6372 39.9088 45.3528 39.7938 45.0916C39.6787 44.8306 39.5042 44.5999 39.2842 44.4177L39.0853 44.4012ZM37.064 44.2855C37.42 44.8029 37.6212 45.4105 37.6439 46.0377C37.3957 46.6207 37.0847 47.175 36.716 47.6908C36.4707 47.2572 36.2761 46.7968 36.1361 46.3187C36.1257 45.9365 36.2041 45.5571 36.3651 45.2102C36.526 44.8632 36.7652 44.558 37.064 44.3185V44.2855ZM48.7946 21.1757C48.0475 20.9249 47.2386 20.9249 46.4915 21.1757C47.2449 21.3851 48.0412 21.3851 48.7946 21.1757ZM40.5931 17.4728C40.8872 16.7537 41.1254 16.0132 41.3055 15.2577C41.3055 15.0692 41.2305 14.8884 41.0969 14.7551C40.9632 14.6218 40.782 14.5469 40.5931 14.5469C40.4042 14.5469 40.2229 14.6218 40.0892 14.7551C39.9557 14.8884 39.8806 15.0692 39.8806 15.2577C40.0422 16.0183 40.2809 16.7605 40.5931 17.4728ZM42.5648 18.6465C43.023 17.7312 43.3733 16.7659 43.6086 15.7701C43.476 15.5222 43.3601 15.3073 43.1447 15.3073C42.9293 15.3073 42.6807 15.175 42.5648 15.3073C42.1562 16.262 41.9153 17.2797 41.8523 18.3159C41.9849 18.3985 42.3162 18.5308 42.5648 18.6465ZM41.4215 18.382H40.9245C41.0442 17.5184 41.2383 16.6666 41.5044 15.8363C41.5037 15.6188 41.5748 15.4072 41.7065 15.234C41.8382 15.0607 42.0233 14.9355 42.2334 14.8775C42.1008 15.3403 41.902 15.8032 41.7695 16.2495C41.6369 16.9603 41.5209 17.6712 41.3884 18.3324L41.4215 18.382ZM41.5209 19.6218C42.2075 19.6006 42.8875 19.7603 43.4926 20.0846C43.9439 20.3704 44.3058 20.7771 44.5364 21.2583C43.8498 21.2795 43.1698 21.1198 42.5648 20.7954C42.307 20.7014 42.0766 20.5448 41.8944 20.34C41.7121 20.1352 41.5839 19.8884 41.5209 19.6218ZM41.9848 19.9524C42.3692 20.3584 42.8388 20.6744 43.36 20.8781C43.2119 20.6334 43.0123 20.4238 42.7749 20.264C42.5373 20.104 42.2677 19.9977 41.9848 19.9524ZM47.088 24.1346V23.5561C46.5813 23.9396 46.0236 24.2512 45.4311 24.4818C45.4151 24.2799 45.4613 24.0781 45.5637 23.9032C45.3485 24.0394 45.1047 24.1242 44.8512 24.1512C44.9838 23.9032 44.9838 23.5726 45.1826 23.3577C45.0901 23.4863 44.9715 23.5941 44.8345 23.6739C44.6975 23.7536 44.545 23.8037 44.3873 23.8205C44.3694 23.5762 44.415 23.3312 44.5199 23.1097C44.1949 23.5804 43.7037 23.911 43.1447 24.0354C42.9057 24.0968 42.6555 24.0986 42.4158 24.0411C42.1761 23.9834 41.954 23.868 41.7695 23.7048C42.4625 23.6888 43.1221 23.4043 43.6086 22.9114C43.3422 22.757 43.1017 22.5617 42.8961 22.3328C43.05 22.1786 43.2578 22.0896 43.476 22.0848C43.3088 22.0321 43.1569 21.9399 43.0328 21.8162C42.9089 21.6924 42.8164 21.5408 42.7636 21.374C44.0916 21.6995 45.4557 21.8551 46.8229 21.8369C47.6026 21.8385 48.3784 21.7271 49.1259 21.5063C48.7946 23.9363 47.0714 24.1842 47.0714 24.1842L47.088 24.1346ZM47.4028 23.1428C47.5317 23.0506 47.6397 22.9322 47.7198 22.7955C47.7996 22.6588 47.8498 22.5067 47.8667 22.3493C47.1683 22.3673 46.4696 22.323 45.7791 22.2171V22.3493C45.9116 22.432 47.4359 22.432 47.4359 23.1428H47.4028ZM49.275 21.6385C49.2654 22.1569 49.1528 22.6682 48.9437 23.1428C49.2968 22.9218 49.5741 22.5989 49.739 22.2171C49.8715 21.7212 49.8715 21.374 49.275 21.6385ZM50.4514 22.184C50.7268 22.0556 51.0361 22.0184 51.3342 22.0779C51.6324 22.1374 51.9037 22.2905 52.1083 22.5146C52.2599 22.8476 52.2967 23.2211 52.2127 23.5772C52.1287 23.9331 51.9288 24.2513 51.6444 24.4818C51.3022 24.1981 50.8714 24.0429 50.4266 24.0429C49.9817 24.0429 49.5509 24.1981 49.2088 24.4818C48.8815 24.3146 48.5288 24.2029 48.165 24.1512C48.4251 23.8564 48.7402 23.6149 49.0928 23.4403C49.6869 23.199 50.1747 22.7533 50.468 22.184H50.4514ZM50.9319 23.4734C50.9319 23.4243 50.9173 23.3764 50.89 23.3357C50.8627 23.2949 50.8239 23.2631 50.7785 23.2443C50.7331 23.2256 50.683 23.2207 50.6348 23.2302C50.5866 23.2398 50.5424 23.2635 50.5076 23.298C50.473 23.3327 50.4493 23.3769 50.4397 23.425C50.4301 23.4731 50.435 23.523 50.4537 23.5683C50.4726 23.6136 50.5044 23.6523 50.5454 23.6795C50.5861 23.7068 50.6342 23.7214 50.6834 23.7214C50.8159 23.7214 50.9319 23.5891 50.9319 23.4734ZM47.9164 24.2669C47.671 24.5917 47.4053 24.9008 47.1211 25.1926C47.6137 25.1752 48.0997 25.3106 48.5121 25.5799C48.9245 25.8494 49.2431 26.2395 49.4242 26.6969C49.5902 26.4573 49.6899 26.1785 49.7133 25.8882C49.7365 25.5979 49.6825 25.3066 49.5567 25.0438C49.3579 24.796 49.1057 24.596 48.8189 24.4588C48.5321 24.3214 48.218 24.2502 47.8999 24.2503" fill="white"/>
<path d="M45.9116 24.6635L45.1163 24.9115V24.4486C44.8678 24.4486 44.7849 24.5809 44.5364 24.5809C44.2952 25.2606 43.9364 25.8929 43.4761 26.4489C43.5031 26.7018 43.588 26.9449 43.7245 27.1597C44.0049 26.6834 44.3148 26.2252 44.6525 25.7876C44.9759 25.3261 45.4083 24.9513 45.9116 24.6966V24.6635ZM47.4194 24.4486C46.8257 24.5748 46.2628 24.8163 45.7626 25.1595C45.4809 25.3349 45.2482 25.5782 45.086 25.8671C44.9238 26.1563 44.8373 26.4814 44.8346 26.8125C45.0885 26.4531 45.4024 26.1401 45.7626 25.8868C46.4137 25.5415 46.9796 25.0558 47.4194 24.4652V24.4486ZM47.4194 18.5638C47.1708 18.5638 46.9554 18.696 46.9554 18.8944C47.0963 19.3352 47.2912 19.7573 47.5354 20.1507C47.8032 19.7703 47.9994 19.3447 48.1152 18.8944C47.926 18.7011 47.6728 18.5836 47.4029 18.5638H47.4194ZM47.7342 20.7789C47.7701 20.2013 47.9283 19.6379 48.1982 19.1258C48.4134 18.9896 48.657 18.9048 48.9105 18.8778C49.0431 18.8778 49.2419 19.0101 49.1591 19.2084V19.3407C48.8805 19.8604 48.5708 20.3628 48.2313 20.845C48.2313 20.7623 47.9827 20.7623 47.7342 20.7623V20.7789ZM47.1875 20.7623C47.0901 20.1968 46.9346 19.643 46.7235 19.1093C46.5082 18.973 46.2646 18.8882 46.0111 18.8613C45.9258 18.8687 45.8457 18.9059 45.785 18.9664C45.7244 19.0269 45.6871 19.1068 45.6796 19.1919V19.3242C45.9582 19.8439 46.268 20.3462 46.6075 20.8284C46.7906 20.7519 46.9903 20.7233 47.1875 20.7458V20.7623ZM46.6075 17.1586H47.2702V16.5305H47.7342V17.1091H48.3141V17.5719H47.7342V18.1835H47.2702V17.5223H46.6075V17.1586ZM39.7646 13.4227H40.3446V12.7119H40.8085V13.4227H41.4216V13.7533H40.8416V14.5964H40.3778V13.7533H39.7646V13.4227ZM53.7155 21.2748V20.1507C53.998 20.2438 54.2569 20.3968 54.4743 20.5995C54.6918 20.8022 54.8626 21.0495 54.9747 21.3244C54.9747 21.3244 54.0469 20.7458 53.7155 21.3244V21.2748ZM52.8704 22.8286C52.7379 22.3658 52.622 21.7872 52.5392 21.3244C52.3282 20.637 52.3754 19.8966 52.6716 19.2415C52.9776 18.7481 53.0953 18.1612 53.003 17.5884L53.7984 17.9191C53.7624 18.4966 53.6043 19.06 53.3344 19.5721C53.1678 20.0094 53.1222 20.4833 53.2019 20.9442C53.3296 21.2576 53.3662 21.6006 53.3075 21.9338C53.2489 22.2673 53.0974 22.5772 52.8704 22.8286ZM52.8704 17.8695V17.5389C52.438 17.0535 51.8543 16.7274 51.2136 16.6131C50.8822 16.4809 50.6338 16.6131 50.2858 16.8611C50.504 16.8659 50.7118 16.9548 50.8657 17.1091C51.2201 17.4253 51.6159 17.6923 52.042 17.9025C52.3069 17.8875 52.5724 17.8875 52.8373 17.9025" fill="white"/>
<path d="M50.3189 16.7621C50.0359 17.0048 49.8336 17.3278 49.739 17.6878C49.8426 18.178 50.0394 18.6438 50.3189 19.0599C50.6008 19.3884 50.7641 19.8016 50.7828 20.2336C50.7828 20.4815 50.5343 20.6964 50.4515 20.9444C50.6988 20.8748 50.9301 20.7573 51.1321 20.5984C51.3339 20.4395 51.5024 20.2425 51.6278 20.0187C51.6908 19.7988 51.6933 19.5662 51.635 19.3452C51.5766 19.124 51.4597 18.9229 51.2965 18.7623C51.0912 18.3087 50.8234 17.8859 50.5012 17.506C50.3698 17.2752 50.312 17.0099 50.3355 16.7456L50.3189 16.7621ZM44.2217 24.0521C44.025 24.755 43.7113 25.42 43.2938 26.0193C42.9709 26.5456 42.8095 27.1548 42.8299 27.7715C42.589 27.2209 42.503 26.615 42.5814 26.0193C42.6715 25.5797 42.8703 25.1694 43.1596 24.8259C43.4489 24.4824 43.8197 24.2165 44.2382 24.0521H44.2217ZM43.0619 24.267C42.7023 24.2902 42.3494 24.374 42.018 24.515C41.4842 24.9248 41.1142 25.5108 40.9742 26.1681C41.3427 26.0647 41.6943 25.9089 42.018 25.7052C42.4785 25.3248 42.8372 24.8363 43.0619 24.2836V24.267ZM46.7898 25.7052C47.0383 25.7052 47.2537 25.8374 47.5023 25.8374C47.1768 25.9575 46.8659 26.1127 46.5744 26.3003C46.4028 26.4463 46.2628 26.6256 46.1632 26.8275C46.0634 27.0293 46.0061 27.2493 45.9945 27.474C45.8335 28.1126 45.5942 28.7288 45.2821 29.3089C45.2733 28.6832 45.1613 28.0633 44.9507 27.474C45.2171 27.3197 45.4575 27.1244 45.6631 26.8954C45.7617 26.6339 45.9123 26.3952 46.106 26.1933C46.2995 25.9917 46.5322 25.8312 46.7898 25.7217V25.7052ZM43.4761 27.3748C43.2032 27.9182 43.0668 28.5195 43.0784 29.127C43.3477 29.7544 43.6988 30.3435 44.1222 30.8793C44.2664 30.1936 44.3496 29.4967 44.3708 28.7964C44.3656 28.4956 44.2858 28.2005 44.1383 27.938C43.9909 27.6755 43.7804 27.4535 43.5258 27.2921L43.4761 27.3748ZM40.5931 29.375C40.5931 28.9121 41.637 27.8707 41.637 27.2921C41.5554 27.0498 41.4188 26.8298 41.2377 26.6491C41.0566 26.4684 40.836 26.332 40.5931 26.2507C40.1488 26.4861 39.7853 26.8488 39.5493 27.2921C39.5493 27.8707 40.5931 29.0444 40.5931 29.375ZM42.25 27.2921C41.8982 27.9135 41.6202 28.5738 41.4216 29.2593C41.3642 29.4737 41.3568 29.6985 41.3999 29.9162C41.4429 30.1339 41.5354 30.3391 41.6701 30.5156C42.0015 30.9785 42.3825 31.4413 42.7139 31.8876C42.9348 31.6167 43.0932 31.3006 43.1778 30.9619C43.2065 30.5022 43.173 30.0407 43.0784 29.5899C42.6977 28.864 42.4135 28.0916 42.2334 27.2921H42.25ZM40.5766 32.7307C40.8963 32.4948 41.1432 32.1741 41.289 31.805C41.3609 31.6549 41.3868 31.4868 41.3632 31.3221C41.3395 31.1573 41.2676 31.0033 41.1565 30.8793C40.8741 30.5895 40.674 30.2301 40.5766 29.8379C40.4318 30.2098 40.2366 30.5601 39.9967 30.8793C39.8835 31.0023 39.8103 31.1563 39.7866 31.3216C39.7629 31.4869 39.7899 31.6554 39.8641 31.805C40.0209 32.1678 40.2657 32.4859 40.5766 32.7307ZM41.7529 31.805C42.2005 32.2607 42.5951 32.7654 42.9293 33.3093C43.0526 33.4957 43.1184 33.7141 43.1184 33.9374C43.1184 34.1608 43.0526 34.3791 42.9293 34.5656C42.5645 35.0761 42.0959 35.5042 41.5541 35.8219C41.8809 35.3341 42.0434 34.755 42.018 34.1689C41.8929 33.7667 41.7379 33.3742 41.5541 32.9952C41.5337 32.5819 41.6075 32.1693 41.7695 31.7885L41.7529 31.805ZM43.4264 31.2099C43.2007 31.5096 43.0839 31.8767 43.095 32.2513C43.1174 32.7175 43.2009 33.1789 43.3435 33.6234C43.5934 34.3054 43.9039 34.9637 44.2714 35.5905C44.5113 35.2713 44.7065 34.921 44.8513 34.5491C44.5199 34.0862 44.2714 33.6234 43.9234 33.177C43.5755 32.7307 43.5424 31.805 43.4264 31.2099ZM43.8075 30.8793C44.0449 32.1118 44.5113 33.2893 45.1826 34.3507C45.371 34.6988 45.6333 35.0018 45.9508 35.2387C46.2684 35.4756 46.6339 35.6408 47.0218 35.7228C47.3639 35.7066 47.6925 35.585 47.9625 35.3748C48.2324 35.1647 48.4306 34.8762 48.5295 34.5491C48.6467 34.2472 48.6854 33.9206 48.6419 33.5997C48.5984 33.2789 48.4743 32.9742 48.281 32.7142C48.2082 33.0061 48.0619 33.2747 47.8562 33.4946C47.6502 33.7144 47.3916 33.8783 47.1046 33.9705C46.2265 33.8879 45.0501 32.8464 43.7909 30.8793" fill="white"/>
<path d="M44.7355 30.0859C44.6204 30.5192 44.6204 30.9751 44.7355 31.4084C44.7799 31.6481 44.8734 31.8762 45.0102 32.0782C45.1471 32.28 45.3244 32.4516 45.5308 32.5821C45.7999 32.7381 46.1168 32.7905 46.422 32.7297C46.7271 32.6687 46.9995 32.4987 47.1877 32.2514L47.3202 32.1192C46.7383 32.0666 46.1841 31.8464 45.7253 31.4854C45.2664 31.1244 44.9226 30.6382 44.7355 30.0859ZM40.5934 35.8551C40.8946 35.7573 41.1486 35.551 41.3058 35.2765C41.5321 34.855 41.6463 34.3826 41.6372 33.9045C41.5108 33.5243 41.3141 33.171 41.0573 32.8631C40.9289 33.0059 40.7705 33.1188 40.5934 33.1937C40.4489 33.0699 40.2936 32.9593 40.1294 32.8631C39.8895 33.1823 39.6944 33.5326 39.5495 33.9045C39.4998 34.1434 39.5038 34.3903 39.5611 34.6276C39.6183 34.8648 39.7277 35.0864 39.8809 35.2765C40.0135 35.6568 40.262 35.7394 40.5934 35.8551ZM40.5934 39.3266C40.7259 38.748 41.7697 37.8223 41.7697 37.2437C41.7697 36.6651 41.0573 36.5329 40.5934 36.2023C40.1294 36.5329 39.6655 36.4502 39.417 37.2437C39.417 37.7065 40.4608 38.748 40.5934 39.3266ZM41.8526 38.0702C41.41 38.6233 41.0578 39.2426 40.8088 39.9051C40.8314 40.7629 41.077 41.6003 41.5212 42.3351C42.0507 41.8956 42.4562 41.3258 42.6976 40.6821C42.7773 40.2033 42.7421 39.7127 42.5953 39.2502C42.4484 38.7876 42.1939 38.3663 41.8526 38.0206V38.0702ZM43.029 38.8141C42.8273 38.254 42.5115 37.7418 42.1011 37.3098C41.9792 36.8152 42.0292 36.2942 42.2429 35.8316C42.4567 35.3691 42.8214 34.9927 43.2775 34.7641C43.6526 35.3404 43.9638 35.9555 44.2053 36.599C44.2882 37.5578 43.3603 38.0206 43.029 38.8141ZM45.1166 34.8798C45.3704 35.2392 45.6842 35.5523 46.0444 35.8055V36.9792C45.8632 37.6538 45.6248 38.3119 45.332 38.9463C44.971 38.5015 44.7007 37.9905 44.5367 37.4421C44.4411 36.9911 44.3967 36.5309 44.4042 36.07C44.5367 35.9378 44.8681 35.227 45.1166 34.8963V34.8798ZM47.0883 38.2025C47.5762 37.4993 47.9043 36.698 48.0492 35.8551C47.7991 35.9951 47.5214 36.0794 47.2354 36.1023C46.9492 36.1251 46.6618 36.0859 46.3924 35.9874C46.2668 36.481 46.2668 36.998 46.3924 37.4917C46.5978 37.7833 46.8369 38.0496 47.1048 38.2851L47.0883 38.2025ZM46.9723 38.5331C46.7238 38.2851 46.5084 38.2025 46.3924 37.9545C46.1439 38.4174 45.9285 38.8802 45.6799 39.3266C45.9285 39.3266 46.1438 39.3265 46.2598 39.1943C46.4751 38.9511 46.7136 38.7296 46.9723 38.5331ZM44.2716 38.0206C44.6238 38.5989 45.017 39.1513 45.448 39.6737C45.3229 40.0759 45.1678 40.4683 44.9841 40.8474C44.704 41.3524 44.3524 41.8146 43.9402 42.2194C43.6572 41.787 43.4185 41.3274 43.2278 40.8474C43.052 40.4825 42.9996 40.0708 43.0787 39.6737C43.3272 39.0951 44.0396 38.5 44.255 37.9214L44.2716 38.0206ZM40.5934 45.3437C40.8926 44.9007 41.1691 44.4426 41.4218 43.9717C41.5341 43.6505 41.5341 43.3008 41.4218 42.9798C41.2892 42.6492 40.7093 41.8061 40.6265 41.6078C40.3054 42.043 40.0174 42.5017 39.7649 42.9798C39.6407 43.3159 39.6407 43.6852 39.7649 44.0212C39.9803 44.7321 40.5602 45.0627 40.5602 45.3933L40.5934 45.3437ZM42.8633 41.211C42.4789 41.7165 42.1665 42.273 41.9354 42.8641C41.8542 43.2159 41.9013 43.585 42.068 43.9055C42.2005 44.1535 42.5319 44.699 42.7804 45.1619C43.2478 44.8086 43.609 44.334 43.8242 43.7898C43.8953 43.5638 43.9202 43.3261 43.8975 43.0904C43.8746 42.8547 43.8047 42.6259 43.6917 42.4178C43.5592 42.0872 43.1118 41.7566 42.8467 41.2441L42.8633 41.211ZM45.2823 41.1614C44.9561 41.5807 44.6885 42.0422 44.487 42.5335C44.3647 42.7414 44.3001 42.9783 44.3001 43.2195C44.3001 43.4607 44.3647 43.6976 44.487 43.9055C44.7355 44.3684 44.9509 44.699 45.0669 44.947C45.4034 44.5777 45.6725 44.1525 45.8622 43.6906C45.9865 43.2417 45.9865 42.7676 45.8622 42.3186C45.6193 41.9538 45.4243 41.5593 45.2823 41.1449V41.1614ZM40.5934 52.0717C41.056 51.076 41.3686 50.0177 41.5212 48.9308C41.3984 48.1278 41.0798 47.3672 40.5934 46.7157C40.0514 47.3341 39.7257 48.1116 39.6655 48.9308C39.781 50.0253 40.0955 51.0896 40.5934 52.0717ZM41.9686 44.418C42.4877 45.0286 42.8666 45.7452 43.0787 46.5174C42.8976 47.2295 42.6593 47.9261 42.3662 48.6002C42.0307 48.2613 41.7609 47.8635 41.5709 47.4265C41.4107 47.2143 41.2982 46.97 41.241 46.7104C41.1839 46.4509 41.1834 46.182 41.2395 45.9223C41.2089 45.6356 41.2541 45.346 41.3703 45.0822C41.4866 44.8182 41.67 44.5892 41.9023 44.418H41.9686ZM44.1225 44.2857C43.7664 44.8031 43.5653 45.4108 43.5426 46.038C43.7908 46.621 44.1018 47.1753 44.4704 47.691C44.7158 47.2574 44.9103 46.7971 45.0503 46.319C45.0608 45.9368 44.9824 45.5574 44.8214 45.2105C44.6605 44.8635 44.4212 44.5583 44.1225 44.3188" fill="white"/>
<path d="M41.4215 54.3691C41.5717 53.5682 41.8397 52.7939 42.2168 52.0713C42.2889 51.7295 42.2846 51.3762 42.2044 51.0362C42.1244 50.6963 41.9701 50.3781 41.7529 50.1042C41.4369 51.1351 41.0438 52.1408 40.5765 53.1128C40.1269 52.1332 39.7342 51.1288 39.4002 50.1042C39.183 50.3781 39.0287 50.6963 38.9487 51.0362C38.8685 51.3762 38.8642 51.7295 38.9363 52.0713C39.281 52.8108 39.5584 53.5799 39.7647 54.3691C39.7484 54.7105 39.6267 55.0383 39.4159 55.3077C39.2053 55.577 38.9162 55.7747 38.5883 55.8734C38.8773 55.987 39.1955 56.0032 39.4946 55.9197C39.7938 55.836 40.0573 55.6573 40.2452 55.4105C40.3883 55.2824 40.5015 55.1244 40.5765 54.9477C40.7006 55.0918 40.8115 55.2467 40.9079 55.4105C41.094 55.6595 41.3574 55.84 41.6573 55.9238C41.957 56.0075 42.2762 55.9898 42.5648 55.8734C42.2907 55.7086 42.0526 55.4905 41.8648 55.2322C41.6769 54.9736 41.5432 54.6802 41.4712 54.3691H41.4215ZM37.6605 47.0956C37.793 47.4262 38.1244 48.2693 38.2404 48.4677C38.2854 48.7702 38.2324 49.0791 38.0894 49.3497C37.9464 49.6202 37.7208 49.8382 37.4451 49.972C37.1336 49.7843 36.8854 49.5079 36.7326 49.1785C36.6561 49.0294 36.6277 48.8604 36.6514 48.6946C36.6753 48.5288 36.7499 48.3744 36.8652 48.2528C37.0449 47.8103 37.3158 47.4104 37.6605 47.0791V47.0956ZM39.3173 48.7322C39.2627 49.445 39.1064 50.1462 38.8534 50.815C38.6773 51.1856 38.421 51.5129 38.103 51.773C37.7851 52.0332 37.4131 52.2196 37.0143 52.3193C36.6329 52.2548 36.274 52.0958 35.9705 51.8565C35.9998 51.6422 36.0903 51.4409 36.2314 51.2767C36.3724 51.1124 36.558 50.9924 36.7658 50.9307C37.8202 50.4652 38.7094 49.6933 39.3173 48.7156V48.7322ZM37.0971 50.3687C36.9527 50.2449 36.7974 50.1343 36.6332 50.0381C36.2215 50.1883 35.827 50.3823 35.4568 50.6167C34.9765 50.9702 34.552 51.3938 34.1976 51.873C34.6079 51.9991 35.0466 51.9991 35.4568 51.873C35.5471 51.4455 35.8033 51.0711 36.1693 50.8316C36.446 50.6193 36.761 50.4621 37.0971 50.3687ZM36.451 49.7405C36.2255 49.4408 36.1085 49.0737 36.1196 48.6991L34.7444 49.6248C34.3013 49.9617 33.9057 50.3565 33.568 50.7985C34.0187 50.6583 34.478 50.5479 34.9432 50.4679C35.5231 50.2199 35.987 50.005 36.451 49.7571V49.7405ZM34.6118 50.9307C33.8152 51.1828 33.0012 51.3762 32.1762 51.5093C31.6094 51.7533 31.097 52.1072 30.6685 52.5507L31.9277 52.8813C32.3578 52.5709 32.8186 52.3049 33.3029 52.0879C33.8071 51.7855 34.2463 51.3866 34.5953 50.9142L34.6118 50.9307ZM33.4189 54.7162C33.6674 54.584 33.6674 54.3856 33.5514 54.1377C33.3578 53.8624 33.0781 53.659 32.7561 53.5591C32.0437 53.3111 31.2484 53.0962 30.536 52.8483C30.4119 52.9924 30.301 53.1473 30.2046 53.3111C30.2046 53.4434 30.2046 53.5591 30.4531 53.5591H31.9609C32.0425 53.6284 32.0995 53.7221 32.1234 53.8264C32.1474 53.9307 32.1368 54.0398 32.0934 54.1377C32.3086 54.0015 32.5524 53.9167 32.8059 53.8897C32.9649 53.9773 33.1034 54.098 33.212 54.2433C33.3205 54.3888 33.3967 54.5556 33.4355 54.7328L33.4189 54.7162ZM32.2591 52.8979C32.6693 53.0015 33.0647 53.1571 33.4355 53.3607C33.568 53.2285 33.684 53.2285 33.7668 53.1128C33.9847 52.7248 34.3058 52.4044 34.6947 52.1871C34.4924 52.2031 34.2901 52.157 34.1148 52.0548C33.8662 52.1871 33.6509 52.1871 33.4023 52.3028C32.9991 52.4363 32.619 52.6316 32.2757 52.8813L32.2591 52.8979ZM35.5894 52.0879C35.4568 52.2201 35.258 52.2201 35.0095 52.2201C34.3913 52.5879 33.94 53.1804 33.7503 53.8732C33.6746 54.0727 33.6807 54.2941 33.7677 54.4891C33.8545 54.684 34.015 54.8369 34.2142 54.9146C34.4601 55.0224 34.7373 55.0346 34.9916 54.949C35.2461 54.8634 35.4593 54.686 35.5894 54.4518C35.5894 54.3195 35.7219 54.3195 35.7219 54.2038C35.6371 54.2722 35.5395 54.3232 35.435 54.3541C35.3303 54.3848 35.2206 54.3947 35.1122 54.3832C35.0037 54.3716 34.8986 54.3389 34.8027 54.2869C34.7069 54.2349 34.6224 54.1645 34.5539 54.0798C34.4155 53.9089 34.3507 53.69 34.3741 53.4715C34.3974 53.2528 34.5068 53.0524 34.6781 52.9144C34.8107 52.9144 34.8107 52.7822 34.9266 52.7822C35.3008 52.542 35.7416 52.4261 36.1859 52.4516C35.9373 52.3193 35.7219 52.1209 35.606 52.1209" fill="white"/>
<path d="M28.0671 61.1633C28.2096 60.5958 28.4038 60.0425 28.647 59.5102C29.2269 58.3365 30.4033 55.4602 33.0377 54.9973C33.2862 54.9973 32.7891 54.2865 32.4578 54.4188C32.1216 54.5122 31.8066 54.6694 31.5299 54.8816V54.1708C31.5299 54.0386 31.3974 54.0386 31.2814 54.0386C30.9565 54.0444 30.6379 54.1295 30.3535 54.2865C29.4519 55.5126 28.7166 56.8522 28.1665 58.2704C27.5866 59.6425 27.2386 60.1053 26.5096 59.9235C25.7806 59.7416 25.5818 58.9978 24.422 59.2127C23.9703 59.3337 23.5624 59.5801 23.2456 59.9235C23.3041 60.0554 23.4085 60.1615 23.5395 60.2223C23.6706 60.2832 23.8194 60.2944 23.9581 60.2541C24.6544 60.2728 25.3341 60.4721 25.9297 60.8327C26.6351 60.9963 27.3485 61.1233 28.0671 61.2129V61.1633ZM38.6213 52.1045C38.701 52.5667 38.901 53 39.2012 53.3608C39.2012 53.3608 38.4059 57.0802 35.4733 57.4108C35.598 56.8531 35.9294 56.3629 36.4011 56.0388C37.3289 55.4602 38.6213 54.5345 38.4888 53.1625C38.2223 53.3168 37.9819 53.5121 37.7763 53.741C37.3124 54.3196 36.5171 55.8239 35.0093 55.8239C35.147 55.3604 35.4247 54.9504 35.8046 54.6502C36.4897 54.2779 37.0884 53.7653 37.5609 53.1459C37.7726 52.6852 38.143 52.3158 38.6047 52.1045H38.6213ZM37.2295 65.7257L38.9858 68.2714L40.361 65.8414L39.8971 65.048L38.9692 66.8002L37.7929 65.048L37.213 65.7092" fill="white"/>
<path d="M36.7826 63.6097L32.7233 57.857L33.4357 57.3941L31.3481 56.6007V58.8984L32.0605 58.3199L36.3352 64.337L36.7991 63.6262L36.7826 63.6097ZM22.1856 50.005C22.7655 49.4264 23.5608 49.8727 24.4886 50.7984C25.4165 51.7241 25.9964 52.4515 25.4165 53.0135C24.8366 53.5756 24.0413 53.1458 23.1135 52.3027C22.1856 51.4596 21.7383 50.6496 22.1856 50.005Z" fill="white"/>
<path d="M23.6767 60.1383C23.4133 59.9128 23.2047 59.6303 23.0668 59.3124C22.9291 58.9945 22.8657 58.6494 22.8814 58.3034C22.8537 57.9685 22.8958 57.6316 23.0052 57.3139C23.1145 56.996 23.2888 56.7044 23.517 56.4572C23.745 56.2099 24.022 56.0127 24.3305 55.8777C24.6389 55.7428 24.972 55.6732 25.3087 55.6732C25.6456 55.6732 25.9786 55.7428 26.2869 55.8777C26.5954 56.0127 26.8725 56.2099 27.1005 56.4572C27.3286 56.7044 27.5029 56.996 27.6123 57.3139C27.7216 57.6316 27.7637 57.9685 27.736 58.3034V58.7662C27.8966 58.3331 28.0906 57.9133 28.3159 57.5099C28.0944 56.7186 27.5725 56.0445 26.861 55.6309C26.1494 55.2173 25.3044 55.0968 24.5051 55.2948C23.6558 55.5663 22.9477 56.16 22.5335 56.9479C22.6703 55.9236 23.1086 54.9629 23.7927 54.1873C24.2049 53.8702 24.6707 53.6295 25.1679 53.4764C24.7436 53.4776 24.3244 53.3849 23.9405 53.2047C23.5566 53.0247 23.2174 52.7617 22.9477 52.435C22.2889 51.9662 21.8378 51.2613 21.6885 50.4679C21.7914 51.0906 21.7047 51.7297 21.4399 52.3028C20.7608 53.5859 20.4838 55.0429 20.6447 56.485C20.96 57.8643 21.688 59.1154 22.7323 60.0722C22.8471 60.1963 22.9356 60.3423 22.9924 60.5013C23.0494 60.6603 23.0736 60.8293 23.0637 60.9979H25.2839C25.2839 60.9979 25.7478 60.9979 25.7478 60.6673C25.7478 60.3367 25.4993 60.3367 25.2839 60.3367C24.726 60.3953 24.1622 60.3391 23.627 60.1713L23.6767 60.1383ZM33.2202 60.6673C32.1328 60.9987 31.0262 61.2637 29.9065 61.4607C29.2545 61.5634 28.5948 61.6077 27.9348 61.593V61.9236C27.9794 61.9661 28.0142 62.0175 28.0371 62.0745C28.0599 62.1315 28.0702 62.1929 28.0674 62.2542C28.7658 62.2722 29.4645 62.2279 30.155 62.122C31.398 61.9722 32.6138 61.6495 33.767 61.1632L33.2699 60.6177L33.2202 60.6673ZM35.1588 60.6177C36.9419 59.7024 38.4253 58.2971 39.4335 56.5677L39.682 56.2371C39.5587 56.2995 39.4225 56.3319 39.2844 56.3319C39.1462 56.3319 39.01 56.2995 38.8867 56.2371L38.7542 56.485C37.7276 58.0073 36.3751 59.2833 34.7943 60.2209L35.1256 60.6342L35.1588 60.6177ZM25.1845 61.2954H23.9252C23.8426 61.2706 23.7556 61.263 23.6699 61.2733C23.5841 61.2834 23.5014 61.311 23.4267 61.3544C23.3521 61.3978 23.2873 61.4561 23.2363 61.5255C23.1853 61.595 23.149 61.6743 23.1299 61.7583C22.9974 62.0062 23.1299 62.2211 23.3785 62.4691C23.627 62.7171 23.8424 62.6013 23.9584 62.4691C24.4342 62.236 24.8937 61.9709 25.3336 61.6756C25.4164 61.4277 25.549 61.1797 25.1679 61.2954H25.1845ZM26.2117 61.874C26.0323 61.7831 25.8331 61.7376 25.6318 61.7418C25.1717 61.9915 24.748 62.303 24.3726 62.6675C24.24 62.9154 24.3726 62.9981 24.6211 63.1303C24.7528 63.2325 24.919 63.2799 25.085 63.2626C25.3033 63.2578 25.511 63.1688 25.6649 63.0146C25.7975 62.8824 26.2448 62.3038 26.3774 62.2211C26.3479 62.0998 26.2912 61.9869 26.2117 61.8905V61.874ZM26.3443 62.4691C26.2117 62.6013 25.7644 63.1799 25.7644 63.1799C25.7644 63.1799 25.7644 63.3122 25.8969 63.4279H26.0295C26.4447 63.4279 26.8518 63.3135 27.2058 63.0973C27.5869 62.8824 27.9183 62.3038 27.5372 62.1716C27.4416 62.1099 27.3342 62.0686 27.2217 62.0502C27.1094 62.0317 26.9944 62.0367 26.8841 62.0646C26.7737 62.0925 26.6702 62.1428 26.5802 62.2124C26.4902 62.282 26.4155 62.3694 26.3608 62.4691H26.3443ZM26.6094 60.9648C26.501 60.9025 26.3782 60.8696 26.2531 60.8696C26.128 60.8696 26.0053 60.9025 25.8969 60.9648C25.7644 61.2128 25.8969 61.4277 26.2283 61.5434C26.4157 61.6563 26.6254 61.7265 26.8431 61.7495C27.0607 61.7723 27.2807 61.747 27.4875 61.6756C27.6532 61.5434 27.4046 61.1797 26.6094 60.9648ZM43.7413 47.0956C43.6088 47.4262 43.2774 48.2693 43.1614 48.4677C43.1165 48.7702 43.1694 49.0791 43.3124 49.3497C43.4553 49.6202 43.681 49.8382 43.9567 49.972C44.2682 49.7843 44.5164 49.5079 44.6692 49.1785C44.7457 49.0294 44.774 48.8604 44.7504 48.6946C44.7265 48.5288 44.6519 48.3744 44.5366 48.2528C44.2052 47.7569 43.9567 47.4097 43.7413 47.0791V47.0956ZM41.985 48.7322C42.0225 49.4605 42.2205 50.1716 42.5649 50.815C42.7411 51.1856 42.9974 51.5129 43.3153 51.773C43.6333 52.0332 44.0053 52.2196 44.4041 52.3193C44.7855 52.2548 45.1444 52.0958 45.4479 51.8565C45.4283 51.649 45.3515 51.451 45.2255 51.2845C45.0998 51.1182 44.9301 50.9899 44.7354 50.9142C43.6429 50.4537 42.7096 49.6835 42.0513 48.6991" fill="white"/>
<path d="M44.0726 50.3191C44.217 50.1953 44.3723 50.0847 44.5365 49.9885C44.9482 50.1388 45.3427 50.3327 45.7128 50.5671C46.1932 50.9207 46.6177 51.3442 46.9721 51.8234C46.5618 51.9496 46.1231 51.9496 45.7128 51.8234C45.6225 51.3959 45.3664 51.0215 45.0004 50.782C44.8679 50.5671 44.5365 50.4514 44.0726 50.3191ZM44.785 49.7406C45.0264 49.3986 45.1432 48.9845 45.1164 48.5669L46.4916 49.4926C46.9346 49.8295 47.3303 50.2243 47.6679 50.6663C47.2173 50.5261 46.758 50.4157 46.2928 50.3357C45.78 50.1922 45.3049 49.9383 44.901 49.5918L44.785 49.7406ZM46.5578 50.8812C47.3545 51.1333 48.1685 51.3267 48.9934 51.4598C49.5602 51.7037 50.0727 52.0578 50.5012 52.5012L49.242 52.8318C48.8118 52.5213 48.3511 52.2555 47.8668 52.0383C47.3541 51.7476 46.9126 51.3467 46.5744 50.8647L46.5578 50.8812ZM47.7011 54.6667C47.4526 54.5344 47.4526 54.3361 47.5685 54.0881C47.7622 53.8129 48.0419 53.6094 48.3638 53.5095C49.0763 53.2616 49.8716 53.0467 50.584 52.7987C50.7081 52.9429 50.819 53.0978 50.9154 53.2616C50.9154 53.3938 50.9154 53.5095 50.6669 53.5095H49.1591C49.0774 53.5788 49.0204 53.6725 48.9966 53.7769C48.9726 53.8812 48.9832 53.9903 49.0266 54.0881C48.8113 53.9519 48.5676 53.8671 48.3141 53.8402C48.004 54.0306 47.7786 54.3323 47.6845 54.6832L47.7011 54.6667ZM48.9272 52.8979C48.5169 53.0016 48.1216 53.1571 47.7508 53.3608C47.6862 53.3568 47.6252 53.3295 47.5795 53.2837C47.5336 53.2381 47.5062 53.1773 47.5023 53.1128C47.2844 52.7248 46.9633 52.4045 46.5744 52.1871C46.7767 52.2031 46.979 52.157 47.1543 52.0549C47.4028 52.1871 47.6182 52.1871 47.8668 52.3028C48.2361 52.4547 48.5863 52.6488 48.9106 52.8814L48.9272 52.8979ZM45.5969 52.0879C45.7294 52.2202 45.9282 52.2202 46.1768 52.2202C46.7949 52.588 47.2463 53.1804 47.436 53.8732C47.5117 54.0727 47.5056 54.2941 47.4186 54.4892C47.3318 54.6841 47.1712 54.8371 46.9721 54.9147C46.7262 55.0224 46.449 55.0347 46.1947 54.949C45.9402 54.8634 45.7269 54.686 45.5969 54.4518C45.5969 54.3195 45.4643 54.3196 45.4643 54.2038C45.6356 54.3419 45.855 54.4065 46.074 54.3832C46.2931 54.36 46.4941 54.2508 46.6324 54.0799C46.7707 53.9089 46.8355 53.6901 46.8122 53.4715C46.7888 53.253 46.6795 53.0525 46.5081 52.9144C46.3756 52.9144 46.3756 52.7822 46.2596 52.7822C45.8855 52.542 45.4446 52.4261 45.0004 52.4516C45.2489 52.3193 45.4643 52.121 45.5803 52.121L45.5969 52.0879ZM53.2516 61.1632C53.1038 60.5952 52.904 60.042 52.6551 59.5102C52.0752 58.3365 50.8988 55.4602 48.2644 54.9973C48.0159 54.9973 48.513 54.2865 48.8443 54.4187C49.1805 54.5121 49.4955 54.6693 49.7722 54.8816V54.1708C49.7722 54.0385 49.9047 54.0385 50.0207 54.0385C50.1841 54.0114 50.3516 54.0194 50.5116 54.0622C50.6717 54.105 50.8206 54.1815 50.9485 54.2865C51.8669 55.5312 52.6135 56.8935 53.1687 58.3365C53.7486 59.7085 54.0966 60.1714 54.8256 59.9896C55.5546 59.8077 55.8694 59.0638 56.9132 59.2787C57.3649 59.3997 57.7728 59.6462 58.0896 59.9896C58.0311 60.1215 57.9267 60.2276 57.7957 60.2884C57.6646 60.3493 57.5158 60.3605 57.3772 60.3202C56.6808 60.3388 56.0011 60.5382 55.4055 60.8987C54.6544 61.064 53.942 61.1908 53.2681 61.2789L53.2516 61.1632ZM42.5648 52.0714C42.4851 52.5336 42.2851 52.9668 41.9849 53.3277C41.9849 53.3277 42.7802 57.0471 45.7128 57.3777C45.5881 56.82 45.2567 56.3298 44.785 56.0057C43.8572 55.4271 42.5648 54.5014 42.6974 53.1293C42.9638 53.2837 43.2042 53.479 43.4098 53.7079C43.8737 54.2865 44.669 55.7908 46.1768 55.7908C46.0391 55.3273 45.7614 54.9173 45.3815 54.6171C44.6964 54.2448 44.0977 53.7322 43.6252 53.1128C43.4012 52.6609 43.0344 52.2949 42.5814 52.0714H42.5648ZM40.5931 55.6255C41.0619 56.5485 41.6525 57.4048 42.3494 58.1712C42.8133 58.634 44.0063 59.8242 44.6525 60.3863C43.6346 60.1529 42.6866 59.6827 41.8855 59.0142C41.4973 59.2432 41.0706 59.4001 40.6263 59.4771C40.1774 59.4176 39.7473 59.2594 39.3671 59.0142C38.5815 59.7062 37.6272 60.1793 36.6001 60.3863C37.18 59.8077 38.4392 58.634 38.9031 58.1712C39.6595 57.4736 40.229 56.5985 40.56 55.6255" fill="white"/>
<path d="M40.5931 59.8075C40.9527 59.7844 41.3056 59.7006 41.637 59.5596C41.4217 60.1038 41.0605 60.5784 40.5931 60.9316C40.1532 60.5517 39.7977 60.0844 39.5493 59.5596C39.8807 59.7006 40.2336 59.7844 40.5931 59.8075Z" fill="white"/>
<path d="M42.1009 68.2547L49.1757 58.4355L49.8882 59.0141V56.7163L47.8005 57.5098L48.513 57.9726L42.2666 66.7504L38.9529 60.9812L38.6215 61.5598L35.8545 65.8247L35.1421 65.3618V67.6596L37.3623 66.8661L36.6498 66.4032L39.0854 62.6839L42.1009 68.2381" fill="white"/>
<path d="M43.3601 64.3204L42.1838 62.4855C42.0512 62.8161 41.6039 63.4112 41.2559 64.2377L40.792 63.312L42.1672 60.882L42.4986 61.4606L43.7578 63.6757L43.3436 64.3039L43.3601 64.3204ZM44.8513 64.8824L45.3152 65.6759L46.0277 65.213V67.5108L43.8075 66.7173L44.5199 66.2545L44.1886 65.7916L44.8513 64.8659V64.8824ZM59.0175 49.9884C58.4376 49.4098 57.6423 49.8561 56.7144 50.7818C55.7866 51.7075 55.2067 52.4349 55.7866 52.9969C56.3665 53.559 57.1618 53.1292 58.0896 52.2861C59.0175 51.443 59.4648 50.633 59.0175 49.9884Z" fill="white"/>
<path d="M57.642 60.1386C57.9055 59.9131 58.1141 59.6306 58.2519 59.3127C58.3896 58.9948 58.4531 58.6497 58.4373 58.3037C58.387 57.696 58.1094 57.1294 57.6598 56.7163C57.2101 56.3032 56.6213 56.0739 56.01 56.0739C55.3988 56.0739 54.81 56.3032 54.3603 56.7163C53.9106 57.1294 53.6331 57.696 53.5827 58.3037V58.7666C53.4502 58.5186 53.0028 57.5929 53.0028 57.5102C53.2243 56.7189 53.7463 56.045 54.4577 55.6314C55.1693 55.2178 56.0143 55.0971 56.8136 55.2951C57.6629 55.5666 58.3711 56.1603 58.7853 56.9482C58.6484 55.924 58.2102 54.9634 57.5261 54.1876C57.1138 53.8707 56.6481 53.6298 56.1509 53.4768C56.5752 53.4779 56.9944 53.3852 57.3783 53.205C57.7622 53.025 58.1013 52.762 58.3711 52.4353C59.0396 51.9657 59.4974 51.2537 59.6468 50.4517C59.544 51.0744 59.6306 51.7134 59.8954 52.2866C60.5745 53.5697 60.8515 55.0267 60.6907 56.4688C60.3754 57.8481 59.6474 59.0992 58.603 60.0559C58.4882 60.1801 58.3997 60.3261 58.3429 60.4851C58.2859 60.6441 58.2617 60.813 58.2717 60.9817H56.0018C56.0018 60.9817 55.5378 60.9817 55.5378 60.651C55.5378 60.3204 55.7864 60.3204 56.0018 60.3204C56.5595 60.3659 57.121 60.3099 57.6586 60.1551L57.642 60.1386ZM46.1766 60.651C44.42 59.699 42.9455 58.3022 41.9019 56.6011L41.6533 56.2704C41.7766 56.3329 41.9128 56.3655 42.051 56.3655C42.1891 56.3655 42.3253 56.3329 42.4486 56.2704L42.5812 56.5184C43.6049 58.0329 44.9515 59.303 46.5245 60.2378L46.1931 60.651H46.1766ZM47.85 60.651C48.9374 60.9825 50.044 61.2475 51.1637 61.4445C51.8157 61.5473 52.4755 61.5915 53.1354 61.5768V61.9074C53.0908 61.9499 53.056 62.0013 53.0332 62.0583C53.0103 62.1153 53 62.1767 53.0028 62.238C52.3045 62.256 51.6058 62.2117 50.9152 62.1057C49.7012 61.9538 48.5139 61.6368 47.3861 61.1635L47.8831 60.618L47.85 60.651ZM55.8858 61.2792H57.145C57.4846 61.2713 57.815 61.3891 58.0728 61.6098C58.0753 61.7578 58.0471 61.9046 57.9902 62.0411C57.9332 62.1776 57.8485 62.301 57.7415 62.4033C57.4929 62.5355 57.2775 62.5355 57.1616 62.4033C56.6857 62.1702 56.2263 61.9051 55.7864 61.6098C55.7035 61.5272 55.571 61.147 55.9189 61.2792H55.8858ZM54.8751 61.8578C55.0971 61.7531 55.3427 61.7077 55.5875 61.7255C56.0477 61.9753 56.4713 62.2868 56.8467 62.6513C56.9793 62.8992 56.8468 62.9819 56.5982 63.1141C56.4665 63.2163 56.3003 63.2637 56.1343 63.2464C55.9161 63.2416 55.7083 63.1526 55.5544 62.9984C55.4218 62.8662 54.9745 62.2876 54.8419 62.2049C54.8646 62.0958 54.8646 61.9834 54.8419 61.8743L54.8751 61.8578ZM54.6763 62.4859C54.8088 62.6182 55.2562 63.1968 55.2562 63.1968C55.2562 63.1968 55.2562 63.329 55.1236 63.4447H54.9911C54.5759 63.4447 54.1688 63.3303 53.8147 63.1141C53.4833 62.8662 53.1022 62.3206 53.4833 62.1884C53.5773 62.1214 53.6848 62.0758 53.7983 62.0545C53.9118 62.0333 54.0286 62.037 54.1406 62.0652C54.2526 62.0935 54.357 62.1459 54.4466 62.2185C54.5363 62.2912 54.609 62.3825 54.6597 62.4859H54.6763ZM54.4112 60.9817C54.5195 60.9193 54.6423 60.8864 54.7674 60.8864C54.8925 60.8864 55.0153 60.9193 55.1236 60.9817C55.2562 61.2296 55.1236 61.4445 54.7922 61.5602C54.6063 61.6764 54.3963 61.7488 54.178 61.7717C53.9598 61.7946 53.7391 61.7675 53.533 61.6925C53.3673 61.5602 53.6159 61.1966 54.4112 60.9817Z" fill="white"/>
<path d="M158.512 24.2835C158.181 21.1427 156.673 19.5557 153.194 19.5557H148.803L148.223 37.2766H151.537C151.537 37.2766 151.868 29.0112 151.868 28.7137H155.927C155.927 29.0443 156.64 37.2766 156.64 37.2766H159.954C159.821 37.1443 158.661 24.9943 158.529 24.2835H158.512ZM151.901 25.7051C151.901 25.3745 152.034 22.8288 152.034 22.399H152.614C154.917 22.399 155.381 22.8619 155.629 25.7051H151.901ZM119.427 48.6166C119.095 45.4757 117.588 43.8888 114.108 43.8888H109.717L109.138 61.6096H112.451C112.451 61.6096 112.783 53.3443 112.783 53.0468H116.842C116.842 53.3774 117.554 61.6096 117.554 61.6096H120.868C120.736 61.4443 119.576 49.2778 119.443 48.6166H119.427ZM112.816 49.9886C112.816 49.658 112.948 47.1123 112.948 46.6825H113.528C115.831 46.6825 116.295 47.1453 116.544 49.9886H112.816ZM95.3027 19.5557V37.2435H98.6165V22.3659H102.56V37.2435H105.874V19.5557H95.3027ZM129.782 25.7051H128.026C127.438 25.7304 126.858 25.5683 126.369 25.2423C126.255 25.1181 126.165 24.9722 126.109 24.8131C126.052 24.6539 126.028 24.4852 126.038 24.3166V19.5557H122.724V24.6472C122.706 25.2016 122.82 25.7522 123.059 26.2529C123.299 26.7537 123.655 27.1894 124.099 27.5235C125.024 28.3044 126.202 28.7218 127.413 28.6972H129.716V37.26H133.029V19.5557H129.716V25.7051H129.782ZM136.592 19.5557V22.4321H139.276V37.3096H142.59V22.4321H145.274V19.5557H136.592ZM131.82 43.707V49.3935H127.297V43.7235H124.066V61.4443H127.297V52.4186H131.82V61.4443H135.134V43.7235L131.82 43.707ZM100.075 49.5919H98.5668V46.7651H104.382V43.8888H95.3359V61.6096H100.306C101.089 61.6204 101.862 61.4698 102.583 61.1673C103.304 60.8646 103.953 60.4168 104.492 59.8517C105.03 59.2866 105.446 58.6164 105.711 57.8834C105.978 57.1505 106.089 56.3706 106.039 55.5925C105.907 53.5923 105.244 49.658 100.124 49.658L100.075 49.5919ZM99.6603 58.7663C99.3289 58.7663 98.4839 58.6341 98.4839 58.6341V52.4186H99.0638C100.721 52.4186 102.659 52.2863 102.659 55.5594C102.659 58.568 100.572 58.7829 99.6437 58.7829L99.6603 58.7663ZM120.388 27.7714C120.411 25.8136 120.01 23.8737 119.211 22.0849C118.847 21.1891 118.22 20.4233 117.414 19.8868C116.607 19.3504 115.657 19.0681 114.688 19.0763H114.555C113.59 19.0854 112.648 19.3747 111.845 19.909C111.041 20.4433 110.412 21.1994 110.032 22.0849C109.242 23.8762 108.841 25.8142 108.856 27.7714V28.35C108.814 29.7936 109.01 31.2344 109.436 32.6149C110.364 36.2021 112.319 37.4584 114.539 37.5741H114.671C116.892 37.5741 118.863 36.3178 119.775 32.6149C120.132 31.2202 120.326 29.7892 120.355 28.35V27.7714H120.388ZM112.07 28.35C112.07 23.6223 113.247 22.0023 114.506 22.0023C115.765 22.0023 116.941 23.6553 116.941 28.35C116.941 33.0447 115.765 34.5821 114.506 34.5821C113.247 34.5821 112.203 32.929 112.07 28.35ZM151.156 61.4112L147.212 50.997C148.148 50.2885 148.819 49.2874 149.118 48.1537C149.366 46.98 149.698 43.7731 149.698 43.7731H146.384C146.384 44.1037 146.251 45.1451 146.135 46.3188C146.003 48.071 145.423 49.6249 143.832 49.6249H142.656V43.8061H139.342V61.4443H142.656V52.4186H144.628L147.941 61.4443L151.156 61.4112Z" fill="white"/>
</svg>
