<svg width="101" height="37" viewBox="0 0 101 37" fill="none" xmlns="http://www.w3.org/2000/svg">
<path d="M6.90568 0.5L5.17768 5.2398H29.1146L30.8425 0.5H6.90568ZM4.31478 7.6076L2.58678 12.3464H26.5237L28.2516 7.6076H4.31478ZM1.72888 14.7152L0.000976562 19.453H23.9378L25.6638 14.7142L1.72888 14.7152Z" fill="#009FDF"/>
<path d="M50.323 20.9405V21.0389C51.398 21.4337 52.426 22.1249 52.963 22.5689C54.625 23.9513 55.359 25.7766 55.359 28.1455C55.359 32.0464 53.306 34.8583 49.9312 35.7474C48.9034 36.0438 47.8285 36.1422 45.8243 36.1422H35.6074V7.61328H44.6529C46.5115 7.61328 47.7813 7.71168 48.9055 8.00708C52.181 8.89618 54.333 11.1666 54.333 14.7691C54.333 16.695 53.649 18.3244 52.525 19.4094C52.036 19.9027 51.352 20.4954 50.325 20.9394L50.323 20.9405ZM41.2785 23.9513V31.4537H45.1904C46.3628 31.4537 47.4397 31.3553 48.2213 30.6149C49.0039 29.8745 49.3455 28.9362 49.3455 27.7025C49.3455 26.7662 49.1004 25.8771 48.6121 25.2352C47.7813 24.1984 46.7536 23.9513 44.9945 23.9513H41.2774H41.2785ZM41.2282 19.0146H44.4068C45.3843 19.0146 45.8735 19.0146 46.3618 18.8669C47.6828 18.4711 48.5137 17.2887 48.5137 15.6592C48.5137 13.7344 47.6336 12.8945 46.3618 12.5007C45.8233 12.352 45.2868 12.3038 44.2109 12.3038H41.2282V19.0146ZM63.866 36.1432V12.4013H55.702V7.61428H78.389L76.775 12.4013H69.538V36.1432H63.866ZM80.149 36.1432V7.61428H98.533L96.92 12.4013H85.773V18.7203H90.321C93.987 18.7203 95.894 19.6093 97.215 20.7435C98.243 21.6326 100.002 23.6057 100.002 27.5066C100.002 31.3563 98.194 33.478 96.677 34.565C94.917 35.7976 93.059 36.1442 89.293 36.1442H80.15L80.149 36.1432ZM85.772 31.3543H90.025C91.639 31.3543 92.616 30.9594 93.3 30.0704C93.642 29.6273 94.131 28.8357 94.131 27.3559C94.131 25.8761 93.642 24.8383 92.664 24.0979C92.079 23.6549 91.295 23.4088 89.975 23.4088H85.77V31.3543H85.772Z" fill="#0A2973"/>
</svg>
